<?xml version="1.0" encoding="utf-8"?>
<svg xmlns="http://www.w3.org/2000/svg" viewBox="-34.315 -23.322 56.245 32.983">
  <g transform="scale(1,-1)">
    <line id="co-4" x1="8.966" y1="4" x2="8.966" y2="4" stroke="black" stroke-width="0.1" stroke-linecap="square" />
    <line id="co-5" x1="8.966" y1="2.908" x2="8.966" y2="3.607" stroke="black" stroke-width="0.1" stroke-linecap="square" />
    <line id="co-7" x1="9.207" y1="2.419" x2="19.28" y2="2.419" stroke="black" stroke-width="0.1" stroke-linecap="square" />
    <line id="co-113" x1="17.184" y1="1.568" x2="17.184" y2="1.171" stroke="black" stroke-width="0.1" stroke-linecap="square" />
    <line id="co-114" x1="17.184" y1="-0.791" x2="17.184" y2="-0.791" stroke="black" stroke-width="0.1" stroke-linecap="square" />
    <line id="co-115" x1="17.578" y1="1.962" x2="19.28" y2="1.962" stroke="black" stroke-width="0.1" stroke-linecap="square" />
    <line id="co-116" x1="15.988" y1="3.702" x2="15.988" y2="2.927" stroke="black" stroke-width="0.1" stroke-linecap="square" />
    <line id="co-117" x1="15.988" y1="4.096" x2="15.988" y2="4.096" stroke="black" stroke-width="0.1" stroke-linecap="square" />
    <line id="co-118" x1="19.28" y1="2.534" x2="16.382" y2="2.534" stroke="black" stroke-width="0.1" stroke-linecap="square" />
    <line id="co-120" x1="15.959" y1="3.702" x2="15.959" y2="2.927" stroke="black" stroke-width="0.1" stroke-linecap="square" />
    <line id="co-121" x1="16.352" y1="2.534" x2="19.28" y2="2.534" stroke="black" stroke-width="0.1" stroke-linecap="square" />
    <line id="co-122" x1="-4.248" y1="2.267" x2="19.28" y2="2.267" stroke="black" stroke-width="0.1" stroke-linecap="square" />
    <line id="co-123" x1="-4.642" y1="5.817" x2="-4.642" y2="2.661" stroke="black" stroke-width="0.1" stroke-linecap="square" />
    <line id="co-124" x1="-4.642" y1="6.21" x2="-4.642" y2="6.21" stroke="black" stroke-width="0.1" stroke-linecap="square" />
    <line id="co-125" x1="-8.268" y1="2.115" x2="19.28" y2="2.115" stroke="black" stroke-width="0.1" stroke-linecap="square" />
    <line id="co-126" x1="-8.661" y1="2.508" x2="-8.661" y2="3.702" stroke="black" stroke-width="0.1" stroke-linecap="square" />
    <line id="co-128" x1="-3.34" y1="1.873" x2="-3.34" y2="1.424" stroke="black" stroke-width="0.1" stroke-linecap="square" />
    <line id="co-129" x1="-3.34" y1="-0.648" x2="-3.34" y2="-0.648" stroke="black" stroke-width="0.1" stroke-linecap="square" />
    <line id="co-130" x1="-11.601" y1="2.026" x2="-11.601" y2="1.525" stroke="black" stroke-width="0.1" stroke-linecap="square" />
    <line id="co-131" x1="-11.601" y1="-0.648" x2="-11.601" y2="-0.648" stroke="black" stroke-width="0.1" stroke-linecap="square" />
    <line id="co-132" x1="4.68" y1="1.441" x2="4.68" y2="1.721" stroke="black" stroke-width="0.1" stroke-linecap="square" />
    <line id="co-133" x1="4.68" y1="-0.648" x2="4.68" y2="-0.648" stroke="black" stroke-width="0.1" stroke-linecap="square" />
    <line id="co-134" x1="5.074" y1="2.115" x2="19.28" y2="2.115" stroke="black" stroke-width="0.1" stroke-linecap="square" />
    <line id="co-135" x1="-2.946" y1="2.267" x2="19.28" y2="2.267" stroke="black" stroke-width="0.1" stroke-linecap="square" />
    <line id="co-136" x1="-0.181" y1="2.419" x2="19.28" y2="2.419" stroke="black" stroke-width="0.1" stroke-linecap="square" />
    <line id="co-137" x1="-14.459" y1="1.962" x2="19.28" y2="1.962" stroke="black" stroke-width="0.1" stroke-linecap="square" />
    <line id="co-138" x1="-15.102" y1="4.744" x2="-14.875" y2="3.456" stroke="black" stroke-width="0.1" stroke-linecap="square" />
    <line id="co-139" x1="-15.17" y1="5.132" x2="-15.17" y2="5.132" stroke="black" stroke-width="0.1" stroke-linecap="square" />
    <line id="co-140" x1="-14.853" y1="2.356" x2="-14.853" y2="3.204" stroke="black" stroke-width="0.1" stroke-linecap="square" />
    <line id="co-195" x1="-11.601" y1="-0.254" x2="-11.601" y2="0.732" stroke="black" stroke-width="0.1" stroke-linecap="square" />
    <line id="co-196" x1="-8.638" y1="3.702" x2="-8.638" y2="2.203" stroke="black" stroke-width="0.1" stroke-linecap="square" />
    <line id="co-197" x1="-8.638" y1="4.096" x2="-8.638" y2="4.096" stroke="black" stroke-width="0.1" stroke-linecap="square" />
    <line id="co-198" x1="-8.245" y1="1.81" x2="19.28" y2="1.81" stroke="black" stroke-width="0.1" stroke-linecap="square" />
    <line id="co-217" x1="-9.337" y1="1.81" x2="-13.633" y2="1.81" stroke="black" stroke-width="0.1" stroke-linecap="square" />
    <line id="co-218" x1="-14.027" y1="2.203" x2="-14.027" y2="3.064" stroke="black" stroke-width="0.1" stroke-linecap="square" />
    <line id="co-220" x1="19.28" y1="1.81" x2="-8.506" y2="1.81" stroke="black" stroke-width="0.1" stroke-linecap="square" />
    <line id="co-221" x1="-9.085" y1="1.81" x2="-8.759" y2="1.81" stroke="black" stroke-width="0.1" stroke-linecap="square" />
    <line id="co-222" x1="-13.916" y1="4.244" x2="-14.015" y2="3.298" stroke="black" stroke-width="0.1" stroke-linecap="square" />
    <line id="co-223" x1="-15.17" y1="4.242" x2="-15.17" y2="2.051" stroke="black" stroke-width="0.1" stroke-linecap="square" />
    <line id="co-225" x1="-14.776" y1="1.657" x2="19.28" y2="1.657" stroke="black" stroke-width="0.1" stroke-linecap="square" />
    <line id="co-250" x1="-14.055" y1="4.734" x2="-14.111" y2="4.612" stroke="black" stroke-width="0.1" stroke-linecap="square" />
    <line id="co-251" x1="-13.892" y1="5.093" x2="-13.892" y2="5.093" stroke="black" stroke-width="0.1" stroke-linecap="square" />
    <line id="co-252" x1="-14.18" y1="4.297" x2="-14.18" y2="2.051" stroke="black" stroke-width="0.1" stroke-linecap="square" />
    <line id="co-253" x1="-13.786" y1="1.657" x2="19.28" y2="1.657" stroke="black" stroke-width="0.1" stroke-linecap="square" />
    <line id="co-285" x1="8.814" y1="2.813" x2="8.814" y2="3.607" stroke="black" stroke-width="0.1" stroke-linecap="square" />
    <line id="co-481" x1="-11.208" y1="2.419" x2="-0.235" y2="2.419" stroke="black" stroke-width="0.1" stroke-linecap="square" />
    <line id="co-486" x1="-11.601" y1="0.981" x2="-11.601" y2="1.276" stroke="black" stroke-width="0.1" stroke-linecap="square" />
    <line id="co-491" x1="-3.34" y1="-0.254" x2="-3.34" y2="0.1" stroke="black" stroke-width="0.1" stroke-linecap="square" />
    <line id="co-492" x1="-3.34" y1="0.737" x2="-3.34" y2="0.787" stroke="black" stroke-width="0.1" stroke-linecap="square" />
    <line id="co-493" x1="-3.34" y1="0.397" x2="-3.34" y2="0.44" stroke="black" stroke-width="0.1" stroke-linecap="square" />
    <line id="co-494" x1="-3.34" y1="1.127" x2="-3.34" y2="1.084" stroke="black" stroke-width="0.1" stroke-linecap="square" />
    <line id="co-495" x1="4.68" y1="0.626" x2="4.68" y2="0.751" stroke="black" stroke-width="0.1" stroke-linecap="square" />
    <line id="co-496" x1="4.68" y1="-0.254" x2="4.68" y2="-0.064" stroke="black" stroke-width="0.1" stroke-linecap="square" />
    <line id="co-497" x1="4.68" y1="0.329" x2="4.68" y2="0.233" stroke="black" stroke-width="0.1" stroke-linecap="square" />
    <line id="co-498" x1="4.68" y1="1.144" x2="4.68" y2="1.048" stroke="black" stroke-width="0.1" stroke-linecap="square" />
    <line id="co-503" x1="17.184" y1="-0.397" x2="17.184" y2="0.242" stroke="black" stroke-width="0.1" stroke-linecap="square" />
    <line id="co-504" x1="17.184" y1="0.881" x2="17.184" y2="0.532" stroke="black" stroke-width="0.1" stroke-linecap="square" />
  </g>
</svg>