<?xml version="1.0" encoding="utf-8"?>
<svg xmlns="http://www.w3.org/2000/svg" viewBox="-34.315 -23.322 56.245 32.983">
  <g transform="scale(1,-1)">
    <rect id="eq-2" x="8.816" y="3.924" width="0.3" height="0.3" fill="black" transform="rotate(180,8.966,4.074)" />
    <rect id="eq-7" x="15.809" y="4.019" width="0.3" height="0.3" fill="black" transform="rotate(180,15.959,4.169)" />
    <rect id="eq-8" x="-8.811" y="4.019" width="0.3" height="0.3" fill="black" transform="rotate(90,-8.661,4.169)" />
    <rect id="eq-150" x="-11.751" y="-0.871" width="0.3" height="0.3" fill="black" transform="rotate(90,-11.601,-0.721)" />
    <rect id="eq-151" x="-3.49" y="-0.871" width="0.3" height="0.3" fill="black" transform="rotate(90,-3.34,-0.721)" />
    <rect id="eq-152" x="4.53" y="-0.871" width="0.3" height="0.3" fill="black" transform="rotate(90,4.68,-0.721)" />
    <rect id="eq-153" x="17.02" y="-1.014" width="0.3" height="0.3" fill="black" transform="rotate(90,17.17,-0.864)" />
    <rect id="eq-154" x="-15.393" y="4.943" width="0.3" height="0.3" fill="black" transform="rotate(240,-15.243,5.093)" />
    <rect id="eq-167" x="-4.865" y="6.06" width="0.3" height="0.3" fill="black" transform="rotate(240,-4.715,6.21)" />
    <rect id="eq-171" x="19.511" y="1.603" width="0.3" height="0.3" fill="black" transform="rotate(90,19.661,1.753)" />
    <rect id="eq-175" x="-13.969" y="4.943" width="0.3" height="0.3" fill="black" transform="rotate(120,-13.819,5.093)" />
  </g>
</svg>