<?xml version="1.0" encoding="utf-8"?>
<svg xmlns="http://www.w3.org/2000/svg" viewBox="-34.485 -31.672 64.597 49.853">
  <g transform="scale(1,-1)">
    <rect id="tm-3" x="-8.561" y="-3.408" width="0.3" height="0.3" stroke="black" stroke-width="0.02" fill="none" />
    <rect id="tm-5" x="7.695" y="-3.408" width="0.3" height="0.3" stroke="black" stroke-width="0.02" fill="none" />
    <rect id="tm-10" x="-8.561" y="-2.112" width="0.3" height="0.3" stroke="black" stroke-width="0.02" fill="none" />
    <rect id="tm-11" x="-8.561" y="-2.76" width="0.3" height="0.3" stroke="black" stroke-width="0.02" fill="none" />
    <rect id="tm-14" x="7.695" y="-2.112" width="0.3" height="0.3" stroke="black" stroke-width="0.02" fill="none" />
    <rect id="tm-15" x="7.695" y="-2.76" width="0.3" height="0.3" stroke="black" stroke-width="0.02" fill="none" />
    <rect id="tm-32" x="-14.25" y="-4.446" width="0.3" height="0.3" stroke="black" stroke-width="0.02" fill="none" />
    <rect id="tm-33" x="-14.25" y="-2.261" width="0.3" height="0.3" stroke="black" stroke-width="0.02" fill="none" />
    <rect id="tm-34" x="-14.25" y="-0.077" width="0.3" height="0.3" stroke="black" stroke-width="0.02" fill="none" />
    <rect id="tm-35" x="-10.897" y="-0.077" width="0.3" height="0.3" stroke="black" stroke-width="0.02" fill="none" />
    <rect id="tm-36" x="-10.897" y="-4.446" width="0.3" height="0.3" stroke="black" stroke-width="0.02" fill="none" />
    <rect id="tm-37" x="-7.545" y="-4.446" width="0.3" height="0.3" stroke="black" stroke-width="0.02" fill="none" />
    <rect id="tm-38" x="-7.545" y="-2.261" width="0.3" height="0.3" stroke="black" stroke-width="0.02" fill="none" />
    <rect id="tm-39" x="-7.545" y="-0.077" width="0.3" height="0.3" stroke="black" stroke-width="0.02" fill="none" />
    <rect id="tm-92" x="5.568" y="5.176" width="0.3" height="0.3" stroke="black" stroke-width="0.02" fill="none" />
    <rect id="tm-93" x="5.568" y="6.471" width="0.3" height="0.3" stroke="black" stroke-width="0.02" fill="none" />
    <rect id="tm-94" x="5.568" y="5.824" width="0.3" height="0.3" stroke="black" stroke-width="0.02" fill="none" />
    <rect id="tm-101" x="15.776" y="5.854" width="0.3" height="0.3" stroke="black" stroke-width="0.02" fill="none" />
    <rect id="tm-102" x="14.48" y="5.854" width="0.3" height="0.3" stroke="black" stroke-width="0.02" fill="none" />
    <rect id="tm-103" x="15.128" y="5.854" width="0.3" height="0.3" stroke="black" stroke-width="0.02" fill="none" />
    <rect id="tm-113" x="-8.869" y="5.854" width="0.3" height="0.3" stroke="black" stroke-width="0.02" fill="none" />
    <rect id="tm-114" x="-10.164" y="5.854" width="0.3" height="0.3" stroke="black" stroke-width="0.02" fill="none" />
    <rect id="tm-115" x="-9.516" y="5.854" width="0.3" height="0.3" stroke="black" stroke-width="0.02" fill="none" />
    <rect id="tm-122" x="-2.388" y="5.962" width="0.3" height="0.3" stroke="black" stroke-width="0.02" fill="none" />
    <rect id="tm-123" x="-3.684" y="5.962" width="0.3" height="0.3" stroke="black" stroke-width="0.02" fill="none" />
    <rect id="tm-124" x="-3.036" y="5.962" width="0.3" height="0.3" stroke="black" stroke-width="0.02" fill="none" />
    <rect id="tm-230" x="12.575" y="-0.239" width="0.3" height="0.3" stroke="black" stroke-width="0.02" fill="none" />
    <rect id="tm-231" x="12.575" y="-5.217" width="0.3" height="0.3" stroke="black" stroke-width="0.02" fill="none" />
    <rect id="tm-232" x="15.128" y="-0.239" width="0.3" height="0.3" stroke="black" stroke-width="0.02" fill="none" />
    <rect id="tm-233" x="15.128" y="-5.217" width="0.3" height="0.3" stroke="black" stroke-width="0.02" fill="none" />
    <rect id="tm-244" x="-15.009" y="6.772" width="0.3" height="0.3" stroke="black" stroke-width="0.02" fill="none" />
    <rect id="tm-245" x="-15.009" y="11.963" width="0.3" height="0.3" stroke="black" stroke-width="0.02" fill="none" />
    <rect id="tm-256" x="-12.456" y="6.772" width="0.3" height="0.3" stroke="black" stroke-width="0.02" fill="none" />
    <rect id="tm-257" x="-12.456" y="11.963" width="0.3" height="0.3" stroke="black" stroke-width="0.02" fill="none" />
    <rect id="tm-268" x="-33.373" y="6.518" width="0.3" height="0.3" stroke="black" stroke-width="0.02" fill="none" />
    <rect id="tm-269" x="-33.373" y="11.963" width="0.3" height="0.3" stroke="black" stroke-width="0.02" fill="none" />
    <rect id="tm-280" x="-30.821" y="6.518" width="0.3" height="0.3" stroke="black" stroke-width="0.02" fill="none" />
    <rect id="tm-281" x="-30.821" y="11.963" width="0.3" height="0.3" stroke="black" stroke-width="0.02" fill="none" />
    <rect id="tm-308" x="10.129" y="1.679" width="0.3" height="0.3" stroke="black" stroke-width="0.02" fill="none" />
    <rect id="tm-309" x="3.719" y="1.679" width="0.3" height="0.3" stroke="black" stroke-width="0.02" fill="none" />
    <rect id="tm-310" x="-2.69" y="1.679" width="0.3" height="0.3" stroke="black" stroke-width="0.02" fill="none" />
    <rect id="tm-311" x="-9.099" y="1.679" width="0.3" height="0.3" stroke="black" stroke-width="0.02" fill="none" />
    <rect id="tm-423" x="-4.652" y="3.295" width="0.3" height="0.3" stroke="black" stroke-width="0.02" fill="none" />
    <rect id="tm-424" x="-2.287" y="5.067" width="0.3" height="0.3" stroke="black" stroke-width="0.02" fill="none" />
    <rect id="tm-427" x="8.288" y="4.178" width="0.3" height="0.3" stroke="black" stroke-width="0.02" fill="none" />
    <rect id="tm-428" x="6.437" y="5.143" width="0.3" height="0.3" stroke="black" stroke-width="0.02" fill="none" />
    <rect id="tm-429" x="6.437" y="4.09" width="0.3" height="0.3" stroke="black" stroke-width="0.02" fill="none" />
    <rect id="tm-430" x="6.622" y="6.236" width="0.3" height="0.3" stroke="black" stroke-width="0.02" fill="none" />
    <rect id="tm-519" x="-3.281" y="-1.217" width="0.3" height="0.3" stroke="black" stroke-width="0.02" fill="none" />
    <rect id="tm-520" x="-1.43" y="-2.182" width="0.3" height="0.3" stroke="black" stroke-width="0.02" fill="none" />
    <rect id="tm-521" x="-1.43" y="-1.129" width="0.3" height="0.3" stroke="black" stroke-width="0.02" fill="none" />
    <rect id="tm-522" x="-1.43" y="-3.217" width="0.3" height="0.3" stroke="black" stroke-width="0.02" fill="none" />
    <rect id="tm-523" x="-4.922" y="-3.049" width="0.3" height="0.3" stroke="black" stroke-width="0.02" fill="none" />
    <rect id="tm-524" x="-4.922" y="-1.527" width="0.3" height="0.3" stroke="black" stroke-width="0.02" fill="none" />
    <rect id="tm-525" x="-0.542" y="-3.422" width="0.3" height="0.3" stroke="black" stroke-width="0.02" fill="none" />
    <rect id="tm-526" x="-0.542" y="-2.126" width="0.3" height="0.3" stroke="black" stroke-width="0.02" fill="none" />
    <rect id="tm-527" x="-0.542" y="-2.774" width="0.3" height="0.3" stroke="black" stroke-width="0.02" fill="none" />
    <rect id="tm-562" x="13.795" y="9.362" width="0.3" height="0.3" stroke="black" stroke-width="0.02" fill="none" />
    <rect id="tm-563" x="17.452" y="9.362" width="0.3" height="0.3" stroke="black" stroke-width="0.02" fill="none" />
    <rect id="tm-564" x="17.757" y="4.027" width="0.3" height="0.3" stroke="black" stroke-width="0.02" fill="none" />
    <rect id="tm-565" x="-3.719" y="-3.398" width="0.3" height="0.3" stroke="black" stroke-width="0.02" fill="none" />
    <rect id="tm-566" x="-2.144" y="-3.398" width="0.3" height="0.3" stroke="black" stroke-width="0.02" fill="none" />
    <rect id="tm-569" x="0.333" y="-2.36" width="0.3" height="0.3" stroke="black" stroke-width="0.02" fill="none" />
    <rect id="tm-570" x="-5.687" y="-2.261" width="0.3" height="0.3" stroke="black" stroke-width="0.02" fill="none" />
    <rect id="tm-571" x="-2.382" y="-0.077" width="0.3" height="0.3" stroke="black" stroke-width="0.02" fill="none" />
    <rect id="tm-572" x="2.72" y="-5.954" width="0.3" height="0.3" stroke="black" stroke-width="0.02" fill="none" />
    <rect id="tm-573" x="5.159" y="-5.954" width="0.3" height="0.3" stroke="black" stroke-width="0.02" fill="none" />
    <rect id="tm-574" x="8.156" y="-5.954" width="0.3" height="0.3" stroke="black" stroke-width="0.02" fill="none" />
    <rect id="tm-575" x="10.747" y="-5.954" width="0.3" height="0.3" stroke="black" stroke-width="0.02" fill="none" />
    <rect id="tm-576" x="9.527" y="-2.804" width="0.3" height="0.3" stroke="black" stroke-width="0.02" fill="none" />
    <rect id="tm-577" x="1.653" y="-2.22" width="0.3" height="0.3" stroke="black" stroke-width="0.02" fill="none" />
    <rect id="tm-578" x="5.057" y="-0.036" width="0.3" height="0.3" stroke="black" stroke-width="0.02" fill="none" />
    <rect id="tm-579" x="17.16" y="-2.754" width="0.3" height="0.3" stroke="black" stroke-width="0.02" fill="none" />
    <rect id="tm-580" x="18.456" y="-2.754" width="0.3" height="0.3" stroke="black" stroke-width="0.02" fill="none" />
    <rect id="tm-581" x="17.808" y="-2.754" width="0.3" height="0.3" stroke="black" stroke-width="0.02" fill="none" />
    <rect id="tm-582" x="16.805" y="-5.802" width="0.3" height="0.3" stroke="black" stroke-width="0.02" fill="none" />
    <rect id="tm-583" x="19.862" y="-5.802" width="0.3" height="0.3" stroke="black" stroke-width="0.02" fill="none" />
    <rect id="tm-584" x="15.954" y="-1.712" width="0.3" height="0.3" stroke="black" stroke-width="0.02" fill="none" />
    <rect id="tm-601" x="9.612" y="12.56" width="0.3" height="0.3" stroke="black" stroke-width="0.02" fill="none" />
    <rect id="tm-602" x="3.516" y="12.56" width="0.3" height="0.3" stroke="black" stroke-width="0.02" fill="none" />
    <rect id="tm-627" x="5.822" y="5.603" width="0.3" height="0.3" stroke="black" stroke-width="0.02" fill="none" />
    <rect id="tm-628" x="5.822" y="4.308" width="0.3" height="0.3" stroke="black" stroke-width="0.02" fill="none" />
    <rect id="tm-629" x="2.723" y="4.943" width="0.3" height="0.3" stroke="black" stroke-width="0.02" fill="none" />
    <rect id="tm-630" x="5.54" y="3.739" width="0.3" height="0.3" stroke="black" stroke-width="0.02" fill="none" />
    <rect id="tm-631" x="9.273" y="3.739" width="0.3" height="0.3" stroke="black" stroke-width="0.02" fill="none" />
    <rect id="tm-632" x="10.239" y="6.889" width="0.3" height="0.3" stroke="black" stroke-width="0.02" fill="none" />
    <rect id="tm-633" x="7.546" y="6.635" width="0.3" height="0.3" stroke="black" stroke-width="0.02" fill="none" />
    <rect id="tm-634" x="9.163" y="6.635" width="0.3" height="0.3" stroke="black" stroke-width="0.02" fill="none" />
    <rect id="tm-635" x="9.804" y="4.247" width="0.3" height="0.3" stroke="black" stroke-width="0.02" fill="none" />
    <rect id="tm-636" x="2.568" y="5.12" width="0.3" height="0.3" stroke="black" stroke-width="0.02" fill="none" />
    <rect id="tm-637" x="12.274" y="7.533" width="0.3" height="0.3" stroke="black" stroke-width="0.02" fill="none" />
    <rect id="tm-638" x="12.274" y="10.581" width="0.3" height="0.3" stroke="black" stroke-width="0.02" fill="none" />
    <rect id="tm-641" x="1.091" y="9.896" width="0.3" height="0.3" stroke="black" stroke-width="0.02" fill="none" />
    <rect id="tm-642" x="9.988" y="6.314" width="0.3" height="0.3" stroke="black" stroke-width="0.02" fill="none" />
    <rect id="tm-643" x="5.822" y="5.044" width="0.3" height="0.3" stroke="black" stroke-width="0.02" fill="none" />
    <rect id="tm-644" x="9.216" y="2.517" width="0.3" height="0.3" stroke="black" stroke-width="0.02" fill="none" />
    <rect id="tm-645" x="3.085" y="2.517" width="0.3" height="0.3" stroke="black" stroke-width="0.02" fill="none" />
    <rect id="tm-728" x="14.504" y="5.6" width="0.3" height="0.3" stroke="black" stroke-width="0.02" fill="none" />
    <rect id="tm-729" x="13.705" y="5.6" width="0.3" height="0.3" stroke="black" stroke-width="0.02" fill="none" />
    <rect id="tm-730" x="15.056" y="5.6" width="0.3" height="0.3" stroke="black" stroke-width="0.02" fill="none" />
    <rect id="tm-731" x="12.572" y="7.991" width="0.3" height="0.3" stroke="black" stroke-width="0.02" fill="none" />
    <rect id="tm-732" x="12.572" y="10.353" width="0.3" height="0.3" stroke="black" stroke-width="0.02" fill="none" />
    <rect id="tm-733" x="18.948" y="10.575" width="0.3" height="0.3" stroke="black" stroke-width="0.02" fill="none" />
    <rect id="tm-734" x="19.351" y="7.518" width="0.3" height="0.3" stroke="black" stroke-width="0.02" fill="none" />
    <rect id="tm-736" x="19.791" y="4.173" width="0.3" height="0.3" stroke="black" stroke-width="0.02" fill="none" />
    <rect id="tm-737" x="15.293" y="3.05" width="0.3" height="0.3" stroke="black" stroke-width="0.02" fill="none" />
    <rect id="tm-799" x="-25.677" y="12.88" width="0.3" height="0.3" stroke="black" stroke-width="0.02" fill="none" />
    <rect id="tm-800" x="15.928" y="12.88" width="0.3" height="0.3" stroke="black" stroke-width="0.02" fill="none" />
    <rect id="tm-889" x="0.793" y="10.277" width="0.3" height="0.3" stroke="black" stroke-width="0.02" fill="none" />
    <rect id="tm-890" x="-0.734" y="8.451" width="0.3" height="0.3" stroke="black" stroke-width="0.02" fill="none" />
    <rect id="tm-891" x="-3.122" y="12.56" width="0.3" height="0.3" stroke="black" stroke-width="0.02" fill="none" />
    <rect id="tm-892" x="-0.734" y="12.88" width="0.3" height="0.3" stroke="black" stroke-width="0.02" fill="none" />
    <rect id="tm-893" x="-6.173" y="11.115" width="0.3" height="0.3" stroke="black" stroke-width="0.02" fill="none" />
    <rect id="tm-894" x="-6.173" y="7.381" width="0.3" height="0.3" stroke="black" stroke-width="0.02" fill="none" />
    <rect id="tm-895" x="-4.233" y="3.723" width="0.3" height="0.3" stroke="black" stroke-width="0.02" fill="none" />
    <rect id="tm-896" x="-1.75" y="4.054" width="0.3" height="0.3" stroke="black" stroke-width="0.02" fill="none" />
    <rect id="tm-897" x="-4.341" y="5.705" width="0.3" height="0.3" stroke="black" stroke-width="0.02" fill="none" />
    <rect id="tm-898" x="-3.684" y="5.705" width="0.3" height="0.3" stroke="black" stroke-width="0.02" fill="none" />
    <rect id="tm-899" x="-3.1" y="5.705" width="0.3" height="0.3" stroke="black" stroke-width="0.02" fill="none" />
    <rect id="tm-900" x="-6.471" y="10.656" width="0.3" height="0.3" stroke="black" stroke-width="0.02" fill="none" />
    <rect id="tm-901" x="-6.471" y="6.797" width="0.3" height="0.3" stroke="black" stroke-width="0.02" fill="none" />
    <rect id="tm-902" x="-12.072" y="7.991" width="0.3" height="0.3" stroke="black" stroke-width="0.02" fill="none" />
    <rect id="tm-903" x="-12.072" y="10.658" width="0.3" height="0.3" stroke="black" stroke-width="0.02" fill="none" />
    <rect id="tm-904" x="-10.437" y="12.56" width="0.3" height="0.3" stroke="black" stroke-width="0.02" fill="none" />
    <rect id="tm-905" x="-9.351" y="3.114" width="0.3" height="0.3" stroke="black" stroke-width="0.02" fill="none" />
    <rect id="tm-906" x="-12.072" y="3.038" width="0.3" height="0.3" stroke="black" stroke-width="0.02" fill="none" />
    <rect id="tm-907" x="-9.592" y="5.6" width="0.3" height="0.3" stroke="black" stroke-width="0.02" fill="none" />
    <rect id="tm-908" x="-10.253" y="5.6" width="0.3" height="0.3" stroke="black" stroke-width="0.02" fill="none" />
    <rect id="tm-909" x="-10.839" y="5.6" width="0.3" height="0.3" stroke="black" stroke-width="0.02" fill="none" />
    <rect id="tm-910" x="-15.393" y="10.201" width="0.3" height="0.3" stroke="black" stroke-width="0.02" fill="none" />
    <rect id="tm-911" x="-15.393" y="7.076" width="0.3" height="0.3" stroke="black" stroke-width="0.02" fill="none" />
    <rect id="tm-912" x="-17.854" y="12.56" width="0.3" height="0.3" stroke="black" stroke-width="0.02" fill="none" />
    <rect id="tm-913" x="-22.172" y="12.56" width="0.3" height="0.3" stroke="black" stroke-width="0.02" fill="none" />
    <rect id="tm-914" x="-25.982" y="12.56" width="0.3" height="0.3" stroke="black" stroke-width="0.02" fill="none" />
    <rect id="tm-915" x="-27.614" y="8.905" width="0.3" height="0.3" stroke="black" stroke-width="0.02" fill="none" />
    <rect id="tm-916" x="-33.789" y="4.181" width="0.3" height="0.3" stroke="black" stroke-width="0.02" fill="none" />
    <rect id="tm-917" x="-33.789" y="1.933" width="0.3" height="0.3" stroke="black" stroke-width="0.02" fill="none" />
    <rect id="tm-918" x="-27.978" y="-0.923" width="0.3" height="0.3" stroke="black" stroke-width="0.02" fill="none" />
    <rect id="tm-919" x="-21.411" y="-0.97" width="0.3" height="0.3" stroke="black" stroke-width="0.02" fill="none" />
    <rect id="tm-920" x="-32.503" y="-0.456" width="0.3" height="0.3" stroke="black" stroke-width="0.02" fill="none" />
    <rect id="tm-921" x="-25.921" y="-0.467" width="0.3" height="0.3" stroke="black" stroke-width="0.02" fill="none" />
    <rect id="tm-922" x="-19.273" y="-0.335" width="0.3" height="0.3" stroke="black" stroke-width="0.02" fill="none" />
    <rect id="tm-923" x="-15.393" y="-0.544" width="0.3" height="0.3" stroke="black" stroke-width="0.02" fill="none" />
    <rect id="tm-924" x="-15.393" y="3.571" width="0.3" height="0.3" stroke="black" stroke-width="0.02" fill="none" />
    <rect id="tm-925" x="-30.347" y="11.318" width="0.3" height="0.3" stroke="black" stroke-width="0.02" fill="none" />
    <rect id="tm-926" x="-27.818" y="5.705" width="0.3" height="0.3" stroke="black" stroke-width="0.02" fill="none" />
    <rect id="tm-927" x="-21.49" y="5.705" width="0.3" height="0.3" stroke="black" stroke-width="0.02" fill="none" />
    <rect id="tm-930" x="2.009" y="7.078" width="0.3" height="0.3" stroke="black" stroke-width="0.02" fill="none" />
    <rect id="tm-931" x="9.375" y="6.451" width="0.3" height="0.3" stroke="black" stroke-width="0.02" fill="none" />
    <rect id="tm-940" x="12.572" y="3.063" width="0.3" height="0.3" stroke="black" stroke-width="0.02" fill="none" />
    <rect id="tm-941" x="17.869" y="-2.579" width="0.3" height="0.3" stroke="black" stroke-width="0.02" fill="none" />
    <rect id="tm-942" x="20.346" y="-0.043" width="0.3" height="0.3" stroke="black" stroke-width="0.02" fill="none" />
    <rect id="tm-943" x="17.525" y="0.282" width="0.3" height="0.3" stroke="black" stroke-width="0.02" fill="none" />
    <rect id="tm-944" x="19.114" y="-2.579" width="0.3" height="0.3" stroke="black" stroke-width="0.02" fill="none" />
    <rect id="tm-945" x="18.479" y="-2.579" width="0.3" height="0.3" stroke="black" stroke-width="0.02" fill="none" />
    <rect id="tm-946" x="21.12" y="-5.925" width="0.3" height="0.3" stroke="black" stroke-width="0.02" fill="none" />
    <rect id="tm-947" x="19.249" y="-8.252" width="0.3" height="0.3" stroke="black" stroke-width="0.02" fill="none" />
    <rect id="tm-948" x="15.859" y="-8.698" width="0.3" height="0.3" stroke="black" stroke-width="0.02" fill="none" />
    <rect id="tm-949" x="12.575" y="-7.402" width="0.3" height="0.3" stroke="black" stroke-width="0.02" fill="none" />
    <rect id="tm-950" x="15.512" y="-5.09" width="0.3" height="0.3" stroke="black" stroke-width="0.02" fill="none" />
    <rect id="tm-951" x="7.441" y="-1.464" width="0.3" height="0.3" stroke="black" stroke-width="0.02" fill="none" />
    <rect id="tm-952" x="7.441" y="-2.709" width="0.3" height="0.3" stroke="black" stroke-width="0.02" fill="none" />
    <rect id="tm-953" x="7.441" y="-2.067" width="0.3" height="0.3" stroke="black" stroke-width="0.02" fill="none" />
    <rect id="tm-954" x="3.99" y="0.533" width="0.3" height="0.3" stroke="black" stroke-width="0.02" fill="none" />
    <rect id="tm-955" x="10.289" y="0.533" width="0.3" height="0.3" stroke="black" stroke-width="0.02" fill="none" />
    <rect id="tm-956" x="1.091" y="-1.763" width="0.3" height="0.3" stroke="black" stroke-width="0.02" fill="none" />
    <rect id="tm-957" x="3.276" y="-3.262" width="0.3" height="0.3" stroke="black" stroke-width="0.02" fill="none" />
    <rect id="tm-958" x="1.091" y="-6.259" width="0.3" height="0.3" stroke="black" stroke-width="0.02" fill="none" />
    <rect id="tm-959" x="12.277" y="-7.326" width="0.3" height="0.3" stroke="black" stroke-width="0.02" fill="none" />
    <rect id="tm-960" x="12.191" y="-3.109" width="0.3" height="0.3" stroke="black" stroke-width="0.02" fill="none" />
    <rect id="tm-961" x="7.14" y="-8.24" width="0.3" height="0.3" stroke="black" stroke-width="0.02" fill="none" />
    <rect id="tm-962" x="3.787" y="-3.582" width="0.3" height="0.3" stroke="black" stroke-width="0.02" fill="none" />
    <rect id="tm-963" x="6.708" y="-3.582" width="0.3" height="0.3" stroke="black" stroke-width="0.02" fill="none" />
    <rect id="tm-964" x="4.549" y="-3.398" width="0.3" height="0.3" stroke="black" stroke-width="0.02" fill="none" />
    <rect id="tm-965" x="6.073" y="-3.398" width="0.3" height="0.3" stroke="black" stroke-width="0.02" fill="none" />
    <rect id="tm-966" x="3.46" y="-1.23" width="0.3" height="0.3" stroke="black" stroke-width="0.02" fill="none" />
    <rect id="tm-967" x="-3.884" y="0.533" width="0.3" height="0.3" stroke="black" stroke-width="0.02" fill="none" />
    <rect id="tm-968" x="0.793" y="-1.763" width="0.3" height="0.3" stroke="black" stroke-width="0.02" fill="none" />
    <rect id="tm-969" x="-6.173" y="-1.763" width="0.3" height="0.3" stroke="black" stroke-width="0.02" fill="none" />
    <rect id="tm-970" x="-4.573" y="-3.414" width="0.3" height="0.3" stroke="black" stroke-width="0.02" fill="none" />
    <rect id="tm-971" x="-2.276" y="-3.398" width="0.3" height="0.3" stroke="black" stroke-width="0.02" fill="none" />
    <rect id="tm-972" x="-3.708" y="-3.398" width="0.3" height="0.3" stroke="black" stroke-width="0.02" fill="none" />
    <rect id="tm-973" x="-4.389" y="-1.179" width="0.3" height="0.3" stroke="black" stroke-width="0.02" fill="none" />
    <rect id="tm-974" x="-0.782" y="-2.734" width="0.3" height="0.3" stroke="black" stroke-width="0.02" fill="none" />
    <rect id="tm-975" x="-0.782" y="-1.464" width="0.3" height="0.3" stroke="black" stroke-width="0.02" fill="none" />
    <rect id="tm-976" x="-0.782" y="-2.099" width="0.3" height="0.3" stroke="black" stroke-width="0.02" fill="none" />
    <rect id="tm-977" x="-6.173" y="-6.157" width="0.3" height="0.3" stroke="black" stroke-width="0.02" fill="none" />
    <rect id="tm-978" x="0.793" y="-6.259" width="0.3" height="0.3" stroke="black" stroke-width="0.02" fill="none" />
    <rect id="tm-979" x="-2.698" y="-9.161" width="0.3" height="0.3" stroke="black" stroke-width="0.02" fill="none" />
    <rect id="tm-980" x="-15.095" y="-6.157" width="0.3" height="0.3" stroke="black" stroke-width="0.02" fill="none" />
    <rect id="tm-981" x="-6.471" y="-6.157" width="0.3" height="0.3" stroke="black" stroke-width="0.02" fill="none" />
    <rect id="tm-982" x="-10.914" y="-8.545" width="0.3" height="0.3" stroke="black" stroke-width="0.02" fill="none" />
    <rect id="tm-983" x="-12.571" y="-3.582" width="0.3" height="0.3" stroke="black" stroke-width="0.02" fill="none" />
    <rect id="tm-984" x="-10.132" y="-3.582" width="0.3" height="0.3" stroke="black" stroke-width="0.02" fill="none" />
    <rect id="tm-985" x="-12.98" y="-3.262" width="0.3" height="0.3" stroke="black" stroke-width="0.02" fill="none" />
    <rect id="tm-986" x="-8.815" y="-2.696" width="0.3" height="0.3" stroke="black" stroke-width="0.02" fill="none" />
    <rect id="tm-987" x="-12.796" y="-1.255" width="0.3" height="0.3" stroke="black" stroke-width="0.02" fill="none" />
    <rect id="tm-988" x="-15.095" y="-1.763" width="0.3" height="0.3" stroke="black" stroke-width="0.02" fill="none" />
    <rect id="tm-989" x="-12.113" y="0.533" width="0.3" height="0.3" stroke="black" stroke-width="0.02" fill="none" />
    <rect id="tm-990" x="-6.471" y="-2.068" width="0.3" height="0.3" stroke="black" stroke-width="0.02" fill="none" />
    <rect id="tm-991" x="-8.815" y="-2.03" width="0.3" height="0.3" stroke="black" stroke-width="0.02" fill="none" />
    <rect id="tm-992" x="-8.815" y="-1.446" width="0.3" height="0.3" stroke="black" stroke-width="0.02" fill="none" />
    <rect id="tm-993" x="-10.285" y="-3.398" width="0.3" height="0.3" stroke="black" stroke-width="0.02" fill="none" />
    <rect id="tm-994" x="-11.579" y="-3.398" width="0.3" height="0.3" stroke="black" stroke-width="0.02" fill="none" />
    <rect id="tm-1045" x="7.597" y="6.451" width="0.3" height="0.3" stroke="black" stroke-width="0.02" fill="none" />
    <rect id="tm-1069" x="-15.393" y="11.598" width="0.3" height="0.3" stroke="black" stroke-width="0.02" fill="none" />
    <rect id="tm-1070" x="-9.156" y="2.86" width="0.3" height="0.3" stroke="black" stroke-width="0.02" fill="none" />
    <rect id="tm-1071" x="-4.417" y="2.962" width="0.3" height="0.3" stroke="black" stroke-width="0.02" fill="none" />
    <rect id="tm-1072" x="6.759" y="4.441" width="0.3" height="0.3" stroke="black" stroke-width="0.02" fill="none" />
    <rect id="tm-1073" x="15.488" y="2.967" width="0.3" height="0.3" stroke="black" stroke-width="0.02" fill="none" />
    <rect id="tm-1074" x="17.327" y="0.18" width="0.3" height="0.3" stroke="black" stroke-width="0.02" fill="none" />
    <rect id="tm-1075" x="7.159" y="-1.449" width="0.3" height="0.3" stroke="black" stroke-width="0.02" fill="none" />
    <rect id="tm-1076" x="-1.115" y="-1.434" width="0.3" height="0.3" stroke="black" stroke-width="0.02" fill="none" />
    <rect id="tm-1077" x="-9.091" y="-1.449" width="0.3" height="0.3" stroke="black" stroke-width="0.02" fill="none" />
  </g>
</svg>