<?xml version="1.0" encoding="utf-8"?>
<svg xmlns="http://www.w3.org/2000/svg" viewBox="-34.315 -23.322 56.245 32.983">
  <g transform="scale(1,-1)">
    <line id="co-6" x1="9.36" y1="2.515" x2="19.28" y2="2.515" stroke="black" stroke-width="0.1" stroke-linecap="square" />
    <line id="co-77" x1="5.027" y1="2.21" x2="19.28" y2="2.21" stroke="black" stroke-width="0.1" stroke-linecap="square" />
    <line id="co-78" x1="4.634" y1="1.816" x2="4.634" y2="1.395" stroke="black" stroke-width="0.1" stroke-linecap="square" />
    <line id="co-79" x1="4.634" y1="-0.648" x2="4.634" y2="-0.648" stroke="black" stroke-width="0.1" stroke-linecap="square" />
    <line id="co-80" x1="-8.25" y1="2.362" x2="19.28" y2="2.362" stroke="black" stroke-width="0.1" stroke-linecap="square" />
    <line id="co-81" x1="-8.643" y1="3.702" x2="-8.643" y2="2.756" stroke="black" stroke-width="0.1" stroke-linecap="square" />
    <line id="co-82" x1="-8.643" y1="4.096" x2="-8.643" y2="4.096" stroke="black" stroke-width="0.1" stroke-linecap="square" />
    <line id="co-83" x1="-11.414" y1="1.432" x2="-11.414" y2="1.969" stroke="black" stroke-width="0.1" stroke-linecap="square" />
    <line id="co-84" x1="-11.414" y1="-0.648" x2="-11.414" y2="-0.648" stroke="black" stroke-width="0.1" stroke-linecap="square" />
    <line id="co-85" x1="17.196" y1="-0.791" x2="17.196" y2="-0.791" stroke="black" stroke-width="0.1" stroke-linecap="square" />
    <line id="co-86" x1="-13.892" y1="5.114" x2="-13.892" y2="5.114" stroke="black" stroke-width="0.1" stroke-linecap="square" />
    <line id="co-87" x1="-13.671" y1="2.21" x2="19.28" y2="2.21" stroke="black" stroke-width="0.1" stroke-linecap="square" />
    <line id="co-88" x1="19.28" y1="2.057" x2="-14.438" y2="2.057" stroke="black" stroke-width="0.1" stroke-linecap="square" />
    <line id="co-89" x1="-15.075" y1="4.729" x2="-14.865" y2="3.889" stroke="black" stroke-width="0.1" stroke-linecap="square" />
    <line id="co-90" x1="-15.17" y1="5.111" x2="-15.17" y2="5.111" stroke="black" stroke-width="0.1" stroke-linecap="square" />
    <line id="co-91" x1="-14.832" y1="2.451" x2="-14.832" y2="3.618" stroke="black" stroke-width="0.1" stroke-linecap="square" />
    <line id="co-92" x1="-13.961" y1="4.726" x2="-14.042" y2="4.264" stroke="black" stroke-width="0.1" stroke-linecap="square" />
    <line id="co-93" x1="-14.064" y1="4.011" x2="-14.064" y2="2.603" stroke="black" stroke-width="0.1" stroke-linecap="square" />
    <line id="co-94" x1="15.977" y1="4.096" x2="15.977" y2="4.096" stroke="black" stroke-width="0.1" stroke-linecap="square" />
    <line id="co-97" x1="-11.021" y1="2.362" x2="19.28" y2="2.362" stroke="black" stroke-width="0.1" stroke-linecap="square" />
    <line id="co-99" x1="17.196" y1="1.664" x2="17.196" y2="1.203" stroke="black" stroke-width="0.1" stroke-linecap="square" />
    <line id="co-100" x1="17.59" y1="2.057" x2="19.28" y2="2.057" stroke="black" stroke-width="0.1" stroke-linecap="square" />
    <line id="co-101" x1="19.468" y1="-0.345" x2="19.468" y2="-0.345" stroke="black" stroke-width="0.1" stroke-linecap="square" />
    <line id="co-102" x1="19.468" y1="-0.192" x2="19.468" y2="-0.192" stroke="black" stroke-width="0.1" stroke-linecap="square" />
    <line id="co-103" x1="19.468" y1="-0.04" x2="19.468" y2="-0.04" stroke="black" stroke-width="0.1" stroke-linecap="square" />
    <line id="co-104" x1="19.468" y1="0.112" x2="19.468" y2="0.112" stroke="black" stroke-width="0.1" stroke-linecap="square" />
    <line id="co-105" x1="19.468" y1="0.265" x2="19.468" y2="0.265" stroke="black" stroke-width="0.1" stroke-linecap="square" />
    <line id="co-106" x1="19.468" y1="0.417" x2="19.468" y2="0.417" stroke="black" stroke-width="0.1" stroke-linecap="square" />
    <line id="co-107" x1="19.621" y1="-0.345" x2="19.621" y2="-0.345" stroke="black" stroke-width="0.1" stroke-linecap="square" />
    <line id="co-108" x1="19.621" y1="-0.192" x2="19.621" y2="-0.192" stroke="black" stroke-width="0.1" stroke-linecap="square" />
    <line id="co-109" x1="19.621" y1="-0.04" x2="19.621" y2="-0.04" stroke="black" stroke-width="0.1" stroke-linecap="square" />
    <line id="co-110" x1="19.621" y1="0.112" x2="19.621" y2="0.112" stroke="black" stroke-width="0.1" stroke-linecap="square" />
    <line id="co-111" x1="19.621" y1="0.265" x2="19.621" y2="0.265" stroke="black" stroke-width="0.1" stroke-linecap="square" />
    <line id="co-112" x1="19.621" y1="0.417" x2="19.621" y2="0.417" stroke="black" stroke-width="0.1" stroke-linecap="square" />
    <line id="co-141" x1="19.458" y1="1.753" x2="19.458" y2="1.753" stroke="black" stroke-width="0.1" stroke-linecap="square" />
    <line id="co-142" x1="19.458" y1="1.6" x2="19.458" y2="1.6" stroke="black" stroke-width="0.1" stroke-linecap="square" />
    <line id="co-143" x1="19.458" y1="1.448" x2="19.458" y2="1.448" stroke="black" stroke-width="0.1" stroke-linecap="square" />
    <line id="co-144" x1="19.458" y1="1.143" x2="19.458" y2="1.143" stroke="black" stroke-width="0.1" stroke-linecap="square" />
    <line id="co-145" x1="19.458" y1="0.991" x2="19.458" y2="0.991" stroke="black" stroke-width="0.1" stroke-linecap="square" />
    <line id="co-146" x1="19.773" y1="-0.345" x2="19.773" y2="-0.345" stroke="black" stroke-width="0.1" stroke-linecap="square" />
    <line id="co-147" x1="19.773" y1="-0.192" x2="19.773" y2="-0.192" stroke="black" stroke-width="0.1" stroke-linecap="square" />
    <line id="co-148" x1="19.773" y1="-0.04" x2="19.773" y2="-0.04" stroke="black" stroke-width="0.1" stroke-linecap="square" />
    <line id="co-149" x1="19.773" y1="0.112" x2="19.773" y2="0.112" stroke="black" stroke-width="0.1" stroke-linecap="square" />
    <line id="co-150" x1="19.773" y1="0.265" x2="19.773" y2="0.265" stroke="black" stroke-width="0.1" stroke-linecap="square" />
    <line id="co-151" x1="19.773" y1="0.417" x2="19.773" y2="0.417" stroke="black" stroke-width="0.1" stroke-linecap="square" />
    <line id="co-152" x1="19.56" y1="1.753" x2="19.56" y2="1.753" stroke="black" stroke-width="0.1" stroke-linecap="square" />
    <line id="co-153" x1="19.56" y1="1.6" x2="19.56" y2="1.6" stroke="black" stroke-width="0.1" stroke-linecap="square" />
    <line id="co-154" x1="19.56" y1="1.295" x2="19.56" y2="1.295" stroke="black" stroke-width="0.1" stroke-linecap="square" />
    <line id="co-155" x1="19.56" y1="1.143" x2="19.56" y2="1.143" stroke="black" stroke-width="0.1" stroke-linecap="square" />
    <line id="co-156" x1="19.56" y1="0.991" x2="19.56" y2="0.991" stroke="black" stroke-width="0.1" stroke-linecap="square" />
    <line id="co-157" x1="19.484" y1="0.991" x2="19.484" y2="0.991" stroke="black" stroke-width="0.1" stroke-linecap="square" />
    <line id="co-158" x1="19.484" y1="1.143" x2="19.484" y2="1.143" stroke="black" stroke-width="0.1" stroke-linecap="square" />
    <line id="co-159" x1="19.484" y1="1.295" x2="19.484" y2="1.295" stroke="black" stroke-width="0.1" stroke-linecap="square" />
    <line id="co-160" x1="19.484" y1="1.448" x2="19.484" y2="1.448" stroke="black" stroke-width="0.1" stroke-linecap="square" />
    <line id="co-161" x1="19.484" y1="1.6" x2="19.484" y2="1.6" stroke="black" stroke-width="0.1" stroke-linecap="square" />
    <line id="co-162" x1="19.484" y1="1.753" x2="19.484" y2="1.753" stroke="black" stroke-width="0.1" stroke-linecap="square" />
    <line id="co-163" x1="19.926" y1="-0.345" x2="19.926" y2="-0.345" stroke="black" stroke-width="0.1" stroke-linecap="square" />
    <line id="co-164" x1="19.926" y1="-0.192" x2="19.926" y2="-0.192" stroke="black" stroke-width="0.1" stroke-linecap="square" />
    <line id="co-165" x1="19.926" y1="-0.04" x2="19.926" y2="-0.04" stroke="black" stroke-width="0.1" stroke-linecap="square" />
    <line id="co-166" x1="19.926" y1="0.112" x2="19.926" y2="0.112" stroke="black" stroke-width="0.1" stroke-linecap="square" />
    <line id="co-167" x1="19.926" y1="0.265" x2="19.926" y2="0.265" stroke="black" stroke-width="0.1" stroke-linecap="square" />
    <line id="co-168" x1="19.926" y1="0.417" x2="19.926" y2="0.417" stroke="black" stroke-width="0.1" stroke-linecap="square" />
    <line id="co-169" x1="19.814" y1="1.753" x2="19.814" y2="1.753" stroke="black" stroke-width="0.1" stroke-linecap="square" />
    <line id="co-170" x1="19.814" y1="1.6" x2="19.814" y2="1.6" stroke="black" stroke-width="0.1" stroke-linecap="square" />
    <line id="co-171" x1="19.814" y1="1.448" x2="19.814" y2="1.448" stroke="black" stroke-width="0.1" stroke-linecap="square" />
    <line id="co-172" x1="19.814" y1="1.295" x2="19.814" y2="1.295" stroke="black" stroke-width="0.1" stroke-linecap="square" />
    <line id="co-173" x1="19.814" y1="0.991" x2="19.814" y2="0.991" stroke="black" stroke-width="0.1" stroke-linecap="square" />
    <line id="co-174" x1="19.585" y1="1.295" x2="19.585" y2="1.295" stroke="black" stroke-width="0.1" stroke-linecap="square" />
    <line id="co-175" x1="19.585" y1="1.448" x2="19.585" y2="1.448" stroke="black" stroke-width="0.1" stroke-linecap="square" />
    <line id="co-176" x1="19.585" y1="1.6" x2="19.585" y2="1.6" stroke="black" stroke-width="0.1" stroke-linecap="square" />
    <line id="co-177" x1="19.585" y1="1.753" x2="19.585" y2="1.753" stroke="black" stroke-width="0.1" stroke-linecap="square" />
    <line id="co-178" x1="19.458" y1="1.295" x2="19.458" y2="1.295" stroke="black" stroke-width="0.1" stroke-linecap="square" />
    <line id="co-179" x1="19.56" y1="1.448" x2="19.56" y2="1.448" stroke="black" stroke-width="0.1" stroke-linecap="square" />
    <line id="co-180" x1="19.814" y1="1.143" x2="19.814" y2="1.143" stroke="black" stroke-width="0.1" stroke-linecap="square" />
    <line id="co-226" x1="19.585" y1="1.143" x2="19.585" y2="1.143" stroke="black" stroke-width="0.1" stroke-linecap="square" />
    <line id="co-227" x1="19.585" y1="0.991" x2="19.585" y2="0.991" stroke="black" stroke-width="0.1" stroke-linecap="square" />
    <line id="co-228" x1="19.687" y1="1.753" x2="19.687" y2="1.753" stroke="black" stroke-width="0.1" stroke-linecap="square" />
    <line id="co-229" x1="19.661" y1="1.753" x2="19.661" y2="1.753" stroke="black" stroke-width="0.1" stroke-linecap="square" />
    <line id="co-230" x1="19.661" y1="1.6" x2="19.661" y2="1.6" stroke="black" stroke-width="0.1" stroke-linecap="square" />
    <line id="co-231" x1="19.468" y1="0.57" x2="19.468" y2="0.57" stroke="black" stroke-width="0.1" stroke-linecap="square" />
    <line id="co-232" x1="19.621" y1="0.57" x2="19.621" y2="0.57" stroke="black" stroke-width="0.1" stroke-linecap="square" />
    <line id="co-233" x1="19.773" y1="0.57" x2="19.773" y2="0.57" stroke="black" stroke-width="0.1" stroke-linecap="square" />
    <line id="co-254" x1="19.687" y1="1.6" x2="19.687" y2="1.6" stroke="black" stroke-width="0.1" stroke-linecap="square" />
    <line id="co-255" x1="19.661" y1="1.448" x2="19.661" y2="1.448" stroke="black" stroke-width="0.1" stroke-linecap="square" />
    <line id="co-256" x1="19.687" y1="1.295" x2="19.687" y2="1.295" stroke="black" stroke-width="0.1" stroke-linecap="square" />
    <line id="co-257" x1="19.687" y1="1.448" x2="19.687" y2="1.448" stroke="black" stroke-width="0.1" stroke-linecap="square" />
    <line id="co-258" x1="19.687" y1="1.143" x2="19.687" y2="1.143" stroke="black" stroke-width="0.1" stroke-linecap="square" />
    <line id="co-259" x1="19.839" y1="0.991" x2="19.839" y2="0.991" stroke="black" stroke-width="0.1" stroke-linecap="square" />
    <line id="co-260" x1="19.661" y1="1.295" x2="19.661" y2="1.295" stroke="black" stroke-width="0.1" stroke-linecap="square" />
    <line id="co-261" x1="19.661" y1="0.991" x2="19.661" y2="0.991" stroke="black" stroke-width="0.1" stroke-linecap="square" />
    <line id="co-262" x1="19.661" y1="1.143" x2="19.661" y2="1.143" stroke="black" stroke-width="0.1" stroke-linecap="square" />
    <line id="co-263" x1="19.458" y1="1.905" x2="19.458" y2="1.905" stroke="black" stroke-width="0.1" stroke-linecap="square" />
    <line id="co-264" x1="19.926" y1="0.57" x2="19.926" y2="0.57" stroke="black" stroke-width="0.1" stroke-linecap="square" />
    <line id="co-482" x1="-11.414" y1="0.785" x2="-11.414" y2="0.739" stroke="black" stroke-width="0.1" stroke-linecap="square" />
    <line id="co-483" x1="-11.414" y1="-0.254" x2="-11.414" y2="0.092" stroke="black" stroke-width="0.1" stroke-linecap="square" />
    <line id="co-484" x1="-11.414" y1="0.45" x2="-11.414" y2="0.381" stroke="black" stroke-width="0.1" stroke-linecap="square" />
    <line id="co-485" x1="-11.414" y1="1.074" x2="-11.414" y2="1.143" stroke="black" stroke-width="0.1" stroke-linecap="square" />
    <line id="co-487" x1="4.634" y1="-0.254" x2="4.634" y2="0.088" stroke="black" stroke-width="0.1" stroke-linecap="square" />
    <line id="co-488" x1="4.634" y1="0.7" x2="4.634" y2="0.783" stroke="black" stroke-width="0.1" stroke-linecap="square" />
    <line id="co-489" x1="4.634" y1="0.377" x2="4.634" y2="0.411" stroke="black" stroke-width="0.1" stroke-linecap="square" />
    <line id="co-490" x1="4.634" y1="1.106" x2="4.634" y2="1.072" stroke="black" stroke-width="0.1" stroke-linecap="square" />
    <line id="co-501" x1="17.196" y1="-0.397" x2="17.196" y2="0.245" stroke="black" stroke-width="0.1" stroke-linecap="square" />
    <line id="co-502" x1="17.196" y1="0.913" x2="17.196" y2="0.536" stroke="black" stroke-width="0.1" stroke-linecap="square" />
    <line id="co-511" x1="19.687" y1="0.991" x2="19.687" y2="0.991" stroke="black" stroke-width="0.1" stroke-linecap="square" />
    <line id="co-512" x1="19.56" y1="1.905" x2="19.56" y2="1.905" stroke="black" stroke-width="0.1" stroke-linecap="square" />
    <line id="co-513" x1="20.078" y1="-0.345" x2="20.078" y2="-0.345" stroke="black" stroke-width="0.1" stroke-linecap="square" />
    <line id="co-514" x1="20.078" y1="-0.192" x2="20.078" y2="-0.192" stroke="black" stroke-width="0.1" stroke-linecap="square" />
    <line id="co-515" x1="20.078" y1="-0.04" x2="20.078" y2="-0.04" stroke="black" stroke-width="0.1" stroke-linecap="square" />
    <line id="co-516" x1="20.078" y1="0.112" x2="20.078" y2="0.112" stroke="black" stroke-width="0.1" stroke-linecap="square" />
    <line id="co-517" x1="20.078" y1="0.265" x2="20.078" y2="0.265" stroke="black" stroke-width="0.1" stroke-linecap="square" />
  </g>
</svg>