<?xml version="1.0" encoding="utf-8"?>
<svg xmlns="http://www.w3.org/2000/svg" viewBox="-34.315 -23.322 56.245 32.983">
  <g transform="scale(1,-1)">
    <rect id="eq-3" x="8.816" y="3.924" width="0.3" height="0.3" fill="black" transform="rotate(180,8.966,4.074)" />
    <rect id="eq-9" x="15.821" y="4.019" width="0.3" height="0.3" fill="black" transform="rotate(90,15.971,4.169)" />
    <rect id="eq-10" x="-8.799" y="4.033" width="0.3" height="0.3" fill="black" transform="rotate(180,-8.649,4.183)" />
    <rect id="eq-163" x="4.454" y="-0.871" width="0.3" height="0.3" fill="black" transform="rotate(90,4.604,-0.721)" />
    <rect id="eq-164" x="17.065" y="-1.014" width="0.3" height="0.3" fill="black" transform="rotate(90,17.215,-0.864)" />
    <rect id="eq-165" x="-11.587" y="-0.871" width="0.3" height="0.3" fill="black" transform="rotate(90,-11.437,-0.721)" />
    <rect id="eq-166" x="-15.393" y="4.943" width="0.3" height="0.3" fill="black" transform="rotate(240,-15.243,5.093)" />
    <rect id="eq-168" x="-13.969" y="4.943" width="0.3" height="0.3" fill="black" transform="rotate(120,-13.819,5.093)" />
    <rect id="eq-170" x="19.511" y="1.603" width="0.3" height="0.3" fill="black" transform="rotate(90,19.661,1.753)" />
  </g>
</svg>