<?xml version="1.0" encoding="utf-8"?>
<svg xmlns="http://www.w3.org/2000/svg" viewBox="-34.315 -23.322 56.245 32.983">
  <g transform="scale(1,-1)">
    <rect id="tm-2" x="-8.561" y="-3.408" width="0.3" height="0.3" fill="black" transform="rotate(90,-8.411,-3.258)" />
    <rect id="tm-4" x="7.695" y="-3.408" width="0.3" height="0.3" fill="black" transform="rotate(90,7.845,-3.258)" />
    <rect id="tm-8" x="-8.561" y="-2.112" width="0.3" height="0.3" fill="black" transform="rotate(90,-8.411,-1.962)" />
    <rect id="tm-9" x="-8.561" y="-2.76" width="0.3" height="0.3" fill="black" transform="rotate(90,-8.411,-2.61)" />
    <rect id="tm-12" x="7.695" y="-2.112" width="0.3" height="0.3" fill="black" transform="rotate(90,7.845,-1.962)" />
    <rect id="tm-13" x="7.695" y="-2.76" width="0.3" height="0.3" fill="black" transform="rotate(90,7.845,-2.61)" />
    <rect id="tm-24" x="-14.25" y="-4.446" width="0.3" height="0.3" fill="black" transform="rotate(180,-14.1,-4.296)" />
    <rect id="tm-25" x="-14.25" y="-2.261" width="0.3" height="0.3" fill="black" transform="rotate(180,-14.1,-2.111)" />
    <rect id="tm-26" x="-14.25" y="-0.077" width="0.3" height="0.3" fill="black" transform="rotate(180,-14.1,0.073)" />
    <rect id="tm-27" x="-10.897" y="-0.077" width="0.3" height="0.3" fill="black" transform="rotate(180,-10.747,0.073)" />
    <rect id="tm-28" x="-10.897" y="-4.446" width="0.3" height="0.3" fill="black" transform="rotate(180,-10.747,-4.296)" />
    <rect id="tm-29" x="-7.545" y="-4.446" width="0.3" height="0.3" fill="black" transform="rotate(180,-7.395,-4.296)" />
    <rect id="tm-30" x="-7.545" y="-2.261" width="0.3" height="0.3" fill="black" transform="rotate(180,-7.395,-2.111)" />
    <rect id="tm-31" x="-7.545" y="-0.077" width="0.3" height="0.3" fill="black" transform="rotate(180,-7.395,0.073)" />
    <rect id="tm-44" x="-9.099" y="1.603" width="0.3" height="0.3" fill="black" />
    <rect id="tm-45" x="-2.69" y="1.603" width="0.3" height="0.3" fill="black" />
    <rect id="tm-46" x="3.719" y="1.603" width="0.3" height="0.3" fill="black" />
    <rect id="tm-47" x="10.129" y="1.603" width="0.3" height="0.3" fill="black" />
    <rect id="tm-50" x="-0.568" y="4.02" width="0.3" height="0.3" fill="black" transform="rotate(180,-0.418,4.17)" />
    <rect id="tm-89" x="5.568" y="5.176" width="0.3" height="0.3" fill="black" transform="rotate(90,5.718,5.326)" />
    <rect id="tm-90" x="5.568" y="6.471" width="0.3" height="0.3" fill="black" transform="rotate(90,5.718,6.621)" />
    <rect id="tm-91" x="5.568" y="5.824" width="0.3" height="0.3" fill="black" transform="rotate(90,5.718,5.974)" />
    <rect id="tm-104" x="15.776" y="5.854" width="0.3" height="0.3" fill="black" transform="rotate(180,15.926,6.004)" />
    <rect id="tm-105" x="14.48" y="5.854" width="0.3" height="0.3" fill="black" transform="rotate(180,14.63,6.004)" />
    <rect id="tm-106" x="15.128" y="5.854" width="0.3" height="0.3" fill="black" transform="rotate(180,15.278,6.004)" />
    <rect id="tm-110" x="-8.869" y="5.854" width="0.3" height="0.3" fill="black" transform="rotate(180,-8.719,6.004)" />
    <rect id="tm-111" x="-10.164" y="5.854" width="0.3" height="0.3" fill="black" transform="rotate(180,-10.014,6.004)" />
    <rect id="tm-112" x="-9.516" y="5.854" width="0.3" height="0.3" fill="black" transform="rotate(180,-9.366,6.004)" />
    <rect id="tm-180" x="1.83" y="4.993" width="0.3" height="0.3" fill="black" transform="rotate(180,1.98,5.143)" />
    <rect id="tm-186" x="-2.69" y="-6.068" width="0.3" height="0.3" fill="black" transform="rotate(180,-2.54,-5.918)" />
    <rect id="tm-226" x="12.575" y="-0.239" width="0.3" height="0.3" fill="black" transform="rotate(120,12.725,-0.089)" />
    <rect id="tm-227" x="12.575" y="-5.217" width="0.3" height="0.3" fill="black" transform="rotate(120,12.725,-5.067)" />
    <rect id="tm-228" x="15.128" y="-0.239" width="0.3" height="0.3" fill="black" transform="rotate(120,15.278,-0.089)" />
    <rect id="tm-229" x="15.128" y="-5.217" width="0.3" height="0.3" fill="black" transform="rotate(120,15.278,-5.067)" />
    <rect id="tm-242" x="-15.009" y="6.772" width="0.3" height="0.3" fill="black" transform="rotate(240,-14.859,6.922)" />
    <rect id="tm-243" x="-15.009" y="11.963" width="0.3" height="0.3" fill="black" transform="rotate(240,-14.859,12.113)" />
    <rect id="tm-254" x="-12.456" y="6.772" width="0.3" height="0.3" fill="black" transform="rotate(240,-12.306,6.922)" />
    <rect id="tm-255" x="-12.456" y="11.963" width="0.3" height="0.3" fill="black" transform="rotate(240,-12.306,12.113)" />
    <rect id="tm-266" x="-33.373" y="6.518" width="0.3" height="0.3" fill="black" transform="rotate(240,-33.223,6.668)" />
    <rect id="tm-267" x="-33.373" y="11.963" width="0.3" height="0.3" fill="black" transform="rotate(240,-33.223,12.113)" />
    <rect id="tm-278" x="-30.821" y="6.518" width="0.3" height="0.3" fill="black" transform="rotate(240,-30.671,6.668)" />
    <rect id="tm-279" x="-30.821" y="11.963" width="0.3" height="0.3" fill="black" transform="rotate(240,-30.671,12.113)" />
    <rect id="tm-395" x="-8.869" y="3.284" width="0.3" height="0.3" fill="black" transform="rotate(180,-8.719,3.434)" />
    <rect id="tm-396" x="-10.701" y="5.016" width="0.3" height="0.3" fill="black" transform="rotate(180,-10.551,5.166)" />
    <rect id="tm-397" x="-10.701" y="3.054" width="0.3" height="0.3" fill="black" transform="rotate(180,-10.551,3.204)" />
    <rect id="tm-398" x="-11.615" y="4.027" width="0.3" height="0.3" fill="black" transform="rotate(180,-11.465,4.177)" />
    <rect id="tm-443" x="-11.307" y="-1.217" width="0.3" height="0.3" fill="black" transform="rotate(180,-11.157,-1.067)" />
    <rect id="tm-444" x="-9.456" y="-2.182" width="0.3" height="0.3" fill="black" transform="rotate(180,-9.306,-2.032)" />
    <rect id="tm-445" x="-13.329" y="-3.019" width="0.3" height="0.3" fill="black" transform="rotate(180,-13.179,-2.869)" />
    <rect id="tm-446" x="-13.329" y="-1.496" width="0.3" height="0.3" fill="black" transform="rotate(180,-13.179,-1.346)" />
    <rect id="tm-447" x="-9.456" y="-1.129" width="0.3" height="0.3" fill="black" transform="rotate(180,-9.306,-0.979)" />
    <rect id="tm-448" x="-9.456" y="-3.217" width="0.3" height="0.3" fill="black" transform="rotate(180,-9.306,-3.067)" />
    <rect id="tm-507" x="17.554" y="-1.134" width="0.3" height="0.3" fill="black" transform="rotate(180,17.704,-0.984)" />
    <rect id="tm-508" x="17.554" y="-0.017" width="0.3" height="0.3" fill="black" transform="rotate(180,17.704,0.133)" />
    <rect id="tm-528" x="-4.544" y="11.039" width="0.3" height="0.3" fill="black" transform="rotate(180,-4.394,11.189)" />
    <rect id="tm-529" x="-0.887" y="11.039" width="0.3" height="0.3" fill="black" transform="rotate(180,-0.737,11.189)" />
    <rect id="tm-530" x="-4.544" y="7.226" width="0.3" height="0.3" fill="black" transform="rotate(180,-4.394,7.376)" />
    <rect id="tm-531" x="-3.401" y="3.698" width="0.3" height="0.3" fill="black" transform="rotate(180,-3.251,3.848)" />
    <rect id="tm-532" x="-4.824" y="3.698" width="0.3" height="0.3" fill="black" transform="rotate(180,-4.674,3.848)" />
    <rect id="tm-537" x="-29.246" y="11.496" width="0.3" height="0.3" fill="black" transform="rotate(180,-29.096,11.646)" />
    <rect id="tm-538" x="17.189" y="-2.83" width="0.3" height="0.3" fill="black" />
    <rect id="tm-539" x="18.485" y="-2.83" width="0.3" height="0.3" fill="black" />
    <rect id="tm-540" x="17.837" y="-2.83" width="0.3" height="0.3" fill="black" />
    <rect id="tm-541" x="16.792" y="-5.954" width="0.3" height="0.3" fill="black" transform="rotate(180,16.942,-5.804)" />
    <rect id="tm-542" x="19.84" y="-5.954" width="0.3" height="0.3" fill="black" transform="rotate(180,19.99,-5.804)" />
    <rect id="tm-543" x="16.131" y="-1.042" width="0.3" height="0.3" fill="black" transform="rotate(180,16.281,-0.892)" />
    <rect id="tm-544" x="9.527" y="-2.5" width="0.3" height="0.3" fill="black" transform="rotate(180,9.677,-2.35)" />
    <rect id="tm-545" x="9.527" y="-5.243" width="0.3" height="0.3" fill="black" transform="rotate(180,9.677,-5.093)" />
    <rect id="tm-546" x="1.857" y="-5.243" width="0.3" height="0.3" fill="black" transform="rotate(180,2.007,-5.093)" />
    <rect id="tm-547" x="6.124" y="-5.243" width="0.3" height="0.3" fill="black" transform="rotate(180,6.274,-5.093)" />
    <rect id="tm-548" x="1.857" y="-2.22" width="0.3" height="0.3" fill="black" transform="rotate(180,2.007,-2.07)" />
    <rect id="tm-549" x="1.857" y="-0.087" width="0.3" height="0.3" fill="black" transform="rotate(180,2.007,0.063)" />
    <rect id="tm-550" x="6.073" y="-0.087" width="0.3" height="0.3" fill="black" transform="rotate(180,6.223,0.063)" />
    <rect id="tm-551" x="9.527" y="-0.087" width="0.3" height="0.3" fill="black" transform="rotate(180,9.677,0.063)" />
    <rect id="tm-552" x="14.861" y="7.492" width="0.3" height="0.3" fill="black" transform="rotate(180,15.011,7.642)" />
    <rect id="tm-553" x="17.3" y="7.492" width="0.3" height="0.3" fill="black" transform="rotate(180,17.45,7.642)" />
    <rect id="tm-554" x="18.367" y="4.027" width="0.3" height="0.3" fill="black" transform="rotate(180,18.517,4.177)" />
    <rect id="tm-639" x="9.612" y="12.56" width="0.3" height="0.3" fill="black" transform="rotate(90,9.762,12.71)" />
    <rect id="tm-640" x="4.125" y="12.56" width="0.3" height="0.3" fill="black" transform="rotate(90,4.275,12.71)" />
    <rect id="tm-646" x="5.822" y="5.603" width="0.3" height="0.3" fill="black" transform="rotate(240,5.972,5.753)" />
    <rect id="tm-647" x="5.822" y="4.308" width="0.3" height="0.3" fill="black" transform="rotate(240,5.972,4.458)" />
    <rect id="tm-648" x="2.723" y="4.943" width="0.3" height="0.3" fill="black" transform="rotate(120,2.873,5.093)" />
    <rect id="tm-649" x="5.54" y="3.739" width="0.3" height="0.3" fill="black" transform="rotate(90,5.69,3.889)" />
    <rect id="tm-650" x="9.273" y="3.739" width="0.3" height="0.3" fill="black" transform="rotate(90,9.423,3.889)" />
    <rect id="tm-651" x="10.239" y="6.889" width="0.3" height="0.3" fill="black" transform="rotate(180,10.389,7.039)" />
    <rect id="tm-652" x="7.546" y="6.635" width="0.3" height="0.3" fill="black" transform="rotate(180,7.696,6.785)" />
    <rect id="tm-653" x="9.163" y="6.635" width="0.3" height="0.3" fill="black" transform="rotate(180,9.313,6.785)" />
    <rect id="tm-654" x="9.804" y="4.247" width="0.3" height="0.3" fill="black" transform="rotate(240,9.954,4.397)" />
    <rect id="tm-655" x="2.568" y="5.12" width="0.3" height="0.3" fill="black" transform="rotate(240,2.718,5.27)" />
    <rect id="tm-656" x="12.274" y="7.533" width="0.3" height="0.3" fill="black" transform="rotate(240,12.424,7.683)" />
    <rect id="tm-657" x="12.274" y="10.581" width="0.3" height="0.3" fill="black" transform="rotate(240,12.424,10.731)" />
    <rect id="tm-658" x="1.091" y="9.896" width="0.3" height="0.3" fill="black" transform="rotate(120,1.241,10.046)" />
    <rect id="tm-659" x="9.988" y="6.314" width="0.3" height="0.3" fill="black" transform="rotate(120,10.138,6.464)" />
    <rect id="tm-660" x="5.822" y="5.044" width="0.3" height="0.3" fill="black" transform="rotate(240,5.972,5.194)" />
    <rect id="tm-661" x="9.216" y="2.517" width="0.3" height="0.3" fill="black" transform="rotate(90,9.366,2.667)" />
    <rect id="tm-662" x="3.085" y="2.517" width="0.3" height="0.3" fill="black" transform="rotate(90,3.235,2.667)" />
    <rect id="tm-735" x="16.069" y="12.56" width="0.3" height="0.3" fill="black" transform="rotate(90,16.219,12.71)" />
    <rect id="tm-801" x="4.193" y="12.88" width="0.3" height="0.3" fill="black" transform="rotate(180,4.343,13.03)" />
    <rect id="tm-802" x="-19.124" y="12.88" width="0.3" height="0.3" fill="black" transform="rotate(180,-18.974,13.03)" />
    <rect id="tm-803" x="-12.072" y="3.063" width="0.3" height="0.3" fill="black" transform="rotate(120,-11.922,3.213)" />
    <rect id="tm-804" x="12.572" y="3.088" width="0.3" height="0.3" fill="black" transform="rotate(120,12.722,3.238)" />
    <rect id="tm-805" x="15.293" y="3.012" width="0.3" height="0.3" fill="black" transform="rotate(240,15.443,3.162)" />
    <rect id="tm-806" x="12.572" y="10.658" width="0.3" height="0.3" fill="black" transform="rotate(120,12.722,10.808)" />
    <rect id="tm-807" x="12.572" y="7.686" width="0.3" height="0.3" fill="black" transform="rotate(120,12.722,7.836)" />
    <rect id="tm-808" x="19.138" y="9.133" width="0.3" height="0.3" fill="black" transform="rotate(244.231,19.288,9.283)" />
    <rect id="tm-809" x="19.906" y="3.297" width="0.3" height="0.3" fill="black" transform="rotate(244.231,20.056,3.447)" />
    <rect id="tm-810" x="12.575" y="-7.478" width="0.3" height="0.3" fill="black" transform="rotate(120,12.725,-7.328)" />
    <rect id="tm-811" x="21.117" y="-5.899" width="0.3" height="0.3" fill="black" transform="rotate(244.231,21.267,-5.749)" />
    <rect id="tm-812" x="15.512" y="-4.633" width="0.3" height="0.3" fill="black" transform="rotate(120,15.662,-4.483)" />
    <rect id="tm-813" x="15.648" y="-8.726" width="0.3" height="0.3" fill="black" transform="rotate(185.301,15.798,-8.576)" />
    <rect id="tm-814" x="17.554" y="0.206" width="0.3" height="0.3" fill="black" transform="rotate(120,17.704,0.356)" />
    <rect id="tm-815" x="20.349" y="-0.066" width="0.3" height="0.3" fill="black" transform="rotate(244.231,20.499,0.084)" />
    <rect id="tm-816" x="18.499" y="-2.579" width="0.3" height="0.3" fill="black" transform="rotate(90,18.649,-2.429)" />
    <rect id="tm-817" x="17.904" y="-2.579" width="0.3" height="0.3" fill="black" transform="rotate(90,18.054,-2.429)" />
    <rect id="tm-818" x="19.172" y="-2.579" width="0.3" height="0.3" fill="black" transform="rotate(90,19.322,-2.429)" />
    <rect id="tm-819" x="7.441" y="-2.042" width="0.3" height="0.3" fill="black" transform="rotate(120,7.591,-1.892)" />
    <rect id="tm-820" x="7.441" y="-1.433" width="0.3" height="0.3" fill="black" transform="rotate(120,7.591,-1.283)" />
    <rect id="tm-821" x="7.441" y="-2.703" width="0.3" height="0.3" fill="black" transform="rotate(120,7.591,-2.553)" />
    <rect id="tm-822" x="3.46" y="-1.204" width="0.3" height="0.3" fill="black" transform="rotate(120,3.61,-1.054)" />
    <rect id="tm-823" x="6.022" y="-3.398" width="0.3" height="0.3" fill="black" transform="rotate(180,6.172,-3.248)" />
    <rect id="tm-824" x="4.528" y="-3.398" width="0.3" height="0.3" fill="black" transform="rotate(180,4.678,-3.248)" />
    <rect id="tm-825" x="1.091" y="-6.005" width="0.3" height="0.3" fill="black" transform="rotate(120,1.241,-5.855)" />
    <rect id="tm-826" x="1.091" y="-1.611" width="0.3" height="0.3" fill="black" transform="rotate(120,1.241,-1.461)" />
    <rect id="tm-827" x="12.277" y="-7.478" width="0.3" height="0.3" fill="black" transform="rotate(240,12.427,-7.328)" />
    <rect id="tm-828" x="12.191" y="-3.109" width="0.3" height="0.3" fill="black" transform="rotate(240,12.341,-2.959)" />
    <rect id="tm-829" x="3.99" y="0.533" width="0.3" height="0.3" fill="black" transform="rotate(90,4.14,0.683)" />
    <rect id="tm-830" x="10.289" y="0.533" width="0.3" height="0.3" fill="black" transform="rotate(90,10.439,0.683)" />
    <rect id="tm-831" x="3.276" y="-2.982" width="0.3" height="0.3" fill="black" transform="rotate(240,3.426,-2.832)" />
    <rect id="tm-832" x="6.835" y="-8.535" width="0.3" height="0.3" fill="black" transform="rotate(240,6.985,-8.385)" />
    <rect id="tm-833" x="-6.471" y="9.591" width="0.3" height="0.3" fill="black" transform="rotate(240,-6.321,9.741)" />
    <rect id="tm-834" x="-6.471" y="7.534" width="0.3" height="0.3" fill="black" transform="rotate(240,-6.321,7.684)" />
    <rect id="tm-835" x="-12.072" y="10.963" width="0.3" height="0.3" fill="black" transform="rotate(120,-11.922,11.113)" />
    <rect id="tm-836" x="-12.072" y="7.838" width="0.3" height="0.3" fill="black" transform="rotate(120,-11.922,7.988)" />
    <rect id="tm-837" x="-9.497" y="12.56" width="0.3" height="0.3" fill="black" transform="rotate(90,-9.347,12.71)" />
    <rect id="tm-838" x="-6.471" y="4.028" width="0.3" height="0.3" fill="black" transform="rotate(240,-6.321,4.178)" />
    <rect id="tm-839" x="-11.68" y="5.6" width="0.3" height="0.3" fill="black" transform="rotate(180,-11.53,5.75)" />
    <rect id="tm-840" x="-10.256" y="5.6" width="0.3" height="0.3" fill="black" transform="rotate(180,-10.106,5.75)" />
    <rect id="tm-841" x="-9.587" y="5.6" width="0.3" height="0.3" fill="black" transform="rotate(180,-9.437,5.75)" />
    <rect id="tm-842" x="-9.351" y="3.114" width="0.3" height="0.3" fill="black" transform="rotate(240,-9.201,3.264)" />
    <rect id="tm-843" x="-8.815" y="-2.068" width="0.3" height="0.3" fill="black" transform="rotate(120,-8.665,-1.918)" />
    <rect id="tm-844" x="-8.815" y="-1.414" width="0.3" height="0.3" fill="black" transform="rotate(120,-8.665,-1.264)" />
    <rect id="tm-845" x="-8.815" y="-2.696" width="0.3" height="0.3" fill="black" transform="rotate(120,-8.665,-2.546)" />
    <rect id="tm-846" x="-15.111" y="-6.199" width="0.3" height="0.3" fill="black" transform="rotate(240,-14.961,-6.049)" />
    <rect id="tm-847" x="-6.471" y="-6.157" width="0.3" height="0.3" fill="black" transform="rotate(240,-6.321,-6.007)" />
    <rect id="tm-848" x="-6.471" y="-2.068" width="0.3" height="0.3" fill="black" transform="rotate(240,-6.321,-1.918)" />
    <rect id="tm-849" x="-15.095" y="-1.763" width="0.3" height="0.3" fill="black" transform="rotate(120,-14.945,-1.613)" />
    <rect id="tm-850" x="-12.98" y="-2.957" width="0.3" height="0.3" fill="black" transform="rotate(240,-12.83,-2.807)" />
    <rect id="tm-851" x="-11.986" y="0.533" width="0.3" height="0.3" fill="black" transform="rotate(90,-11.836,0.683)" />
    <rect id="tm-852" x="-12.796" y="-1.23" width="0.3" height="0.3" fill="black" transform="rotate(120,-12.646,-1.08)" />
    <rect id="tm-853" x="-10.716" y="-8.569" width="0.3" height="0.3" fill="black" transform="rotate(180,-10.566,-8.419)" />
    <rect id="tm-854" x="-11.758" y="-3.398" width="0.3" height="0.3" fill="black" transform="rotate(180,-11.608,-3.248)" />
    <rect id="tm-855" x="-10.183" y="-3.398" width="0.3" height="0.3" fill="black" transform="rotate(180,-10.033,-3.248)" />
    <rect id="tm-856" x="-15.393" y="10.201" width="0.3" height="0.3" fill="black" transform="rotate(240,-15.243,10.351)" />
    <rect id="tm-857" x="-15.393" y="7.076" width="0.3" height="0.3" fill="black" transform="rotate(240,-15.243,7.226)" />
    <rect id="tm-858" x="-17.854" y="12.56" width="0.3" height="0.3" fill="black" transform="rotate(90,-17.704,12.71)" />
    <rect id="tm-859" x="-22.172" y="12.56" width="0.3" height="0.3" fill="black" transform="rotate(90,-22.022,12.71)" />
    <rect id="tm-860" x="-25.982" y="12.56" width="0.3" height="0.3" fill="black" transform="rotate(90,-25.832,12.71)" />
    <rect id="tm-861" x="-27.614" y="8.905" width="0.3" height="0.3" fill="black" transform="rotate(120,-27.464,9.055)" />
    <rect id="tm-862" x="-33.789" y="4.181" width="0.3" height="0.3" fill="black" transform="rotate(120,-33.639,4.331)" />
    <rect id="tm-863" x="-33.789" y="1.933" width="0.3" height="0.3" fill="black" transform="rotate(120,-33.639,2.083)" />
    <rect id="tm-864" x="-28.251" y="-1.524" width="0.3" height="0.3" fill="black" transform="rotate(224.981,-28.101,-1.374)" />
    <rect id="tm-865" x="-21.569" y="-1.317" width="0.3" height="0.3" fill="black" transform="rotate(224.981,-21.419,-1.167)" />
    <rect id="tm-866" x="-32.672" y="-0.826" width="0.3" height="0.3" fill="black" transform="rotate(107.018,-32.522,-0.676)" />
    <rect id="tm-867" x="-26.047" y="-0.745" width="0.3" height="0.3" fill="black" transform="rotate(107.018,-25.897,-0.595)" />
    <rect id="tm-868" x="-19.462" y="-0.751" width="0.3" height="0.3" fill="black" transform="rotate(107.018,-19.312,-0.601)" />
    <rect id="tm-869" x="-15.393" y="-1.001" width="0.3" height="0.3" fill="black" transform="rotate(240,-15.243,-0.851)" />
    <rect id="tm-870" x="-17.814" y="-2.437" width="0.3" height="0.3" fill="black" transform="rotate(162.743,-17.664,-2.287)" />
    <rect id="tm-871" x="-24.472" y="-2.417" width="0.3" height="0.3" fill="black" transform="rotate(162.743,-24.322,-2.267)" />
    <rect id="tm-872" x="-31.074" y="-2.424" width="0.3" height="0.3" fill="black" transform="rotate(162.743,-30.924,-2.274)" />
    <rect id="tm-873" x="-15.393" y="3.571" width="0.3" height="0.3" fill="black" transform="rotate(240,-15.243,3.721)" />
    <rect id="tm-874" x="-30.347" y="11.318" width="0.3" height="0.3" fill="black" transform="rotate(120,-30.197,11.468)" />
    <rect id="tm-875" x="-6.173" y="6.924" width="0.3" height="0.3" fill="black" transform="rotate(120,-6.023,7.074)" />
    <rect id="tm-876" x="-4.493" y="4.625" width="0.3" height="0.3" fill="black" transform="rotate(180,-4.343,4.775)" />
    <rect id="tm-877" x="-2.084" y="6.924" width="0.3" height="0.3" fill="black" transform="rotate(240,-1.934,7.074)" />
    <rect id="tm-878" x="-2.969" y="2.673" width="0.3" height="0.3" fill="black" transform="rotate(180,-2.819,2.823)" />
    <rect id="tm-879" x="15.312" y="2.517" width="0.3" height="0.3" fill="black" transform="rotate(90,15.462,2.667)" />
    <rect id="tm-880" x="-3.011" y="2.517" width="0.3" height="0.3" fill="black" transform="rotate(90,-2.861,2.667)" />
    <rect id="tm-881" x="-9.107" y="2.517" width="0.3" height="0.3" fill="black" transform="rotate(90,-8.957,2.667)" />
    <rect id="tm-928" x="-27.829" y="5.705" width="0.3" height="0.3" fill="black" transform="rotate(180,-27.679,5.855)" />
    <rect id="tm-929" x="-21.485" y="5.705" width="0.3" height="0.3" fill="black" transform="rotate(180,-21.335,5.855)" />
    <rect id="tm-932" x="13.806" y="5.6" width="0.3" height="0.3" fill="black" transform="rotate(180,13.956,5.75)" />
    <rect id="tm-933" x="15.052" y="5.6" width="0.3" height="0.3" fill="black" transform="rotate(180,15.202,5.75)" />
    <rect id="tm-934" x="14.415" y="5.6" width="0.3" height="0.3" fill="black" transform="rotate(180,14.565,5.75)" />
    <rect id="tm-995" x="-30.347" y="12.233" width="0.3" height="0.3" fill="black" transform="rotate(120,-30.197,12.383)" />
    <rect id="tm-1043" x="9.426" y="6.451" width="0.3" height="0.3" fill="black" transform="rotate(90,9.576,6.601)" />
    <rect id="tm-1044" x="7.534" y="6.432" width="0.3" height="0.3" fill="black" transform="rotate(270,7.684,6.582)" />
    <rect id="tm-1062" x="-15.393" y="11.572" width="0.3" height="0.3" fill="black" transform="rotate(240,-15.243,11.722)" />
    <rect id="tm-1063" x="-9.156" y="2.864" width="0.3" height="0.3" fill="black" transform="rotate(120,-9.006,3.014)" />
    <rect id="tm-1064" x="6.733" y="4.441" width="0.3" height="0.3" fill="black" transform="rotate(90,6.883,4.591)" />
    <rect id="tm-1065" x="15.488" y="3.012" width="0.3" height="0.3" fill="black" transform="rotate(120,15.638,3.162)" />
    <rect id="tm-1066" x="17.356" y="0.129" width="0.3" height="0.3" fill="black" transform="rotate(240,17.506,0.279)" />
    <rect id="tm-1067" x="7.165" y="-1.449" width="0.3" height="0.3" fill="black" transform="rotate(180,7.315,-1.299)" />
    <rect id="tm-1068" x="-9.065" y="-1.449" width="0.3" height="0.3" fill="black" transform="rotate(180,-8.915,-1.299)" />
  </g>
</svg>