<?xml version="1.0" encoding="utf-8"?>
<svg xmlns="http://www.w3.org/2000/svg" viewBox="-34.485 -31.672 64.597 49.853">
  <g transform="scale(1,-1)">
    <polygon id="sl-92" points="-3.226,-1.683 -3.226,-1.073 -6.02,-1.445 -6.02,-2.07" fill="rgba(128,128,128,0.2)" stroke="gray" stroke-width="0.05" />
    <polygon id="sl-93" points="-3.226,-1.073 -3.226,-0.463 -6.02,-0.835 -6.02,-1.461" fill="rgba(128,128,128,0.2)" stroke="gray" stroke-width="0.05" />
    <polygon id="sl-94" points="-3.226,-0.464 -3.226,0.146 -6.02,-0.225 -6.02,-0.851" fill="rgba(128,128,128,0.2)" stroke="gray" stroke-width="0.05" />
    <polygon id="sl-95" points="-3.226,0.146 -3.226,0.756 -6.02,0.384 -6.02,-0.241" fill="rgba(128,128,128,0.2)" stroke="gray" stroke-width="0.05" />
    <polygon id="sl-101" points="0.94,-2.07 0.94,-1.445 -6.02,-1.445 -6.02,-2.07" fill="rgba(128,128,128,0.2)" stroke="gray" stroke-width="0.05" />
    <polygon id="sl-102" points="0.94,-1.461 0.94,-0.835 -6.02,-0.835 -6.02,-1.461" fill="rgba(128,128,128,0.2)" stroke="gray" stroke-width="0.05" />
    <polygon id="sl-103" points="0.94,-0.851 0.94,-0.225 -6.02,-0.225 -6.02,-0.851" fill="rgba(128,128,128,0.2)" stroke="gray" stroke-width="0.05" />
    <polygon id="sl-104" points="0.94,-0.241 0.94,0.384 -6.02,0.384 -6.02,-0.241" fill="rgba(128,128,128,0.2)" stroke="gray" stroke-width="0.05" />
  </g>
</svg>