<?xml version="1.0" encoding="utf-8"?>
<svg xmlns="http://www.w3.org/2000/svg" viewBox="-134.847 188.218 26.744 34.612">
  <g transform="scale(1,-1)">
    <polygon id="sp-1" points="-115.355,-189.394 -133.495,-189.394 -133.495,-205.369 -125.383,-205.369 -125.383,-201.445 -118.892,-201.445 -115.355,-201.445 -115.355,-199.12 -115.355,-195.158" fill="rgba(0,0,255,0.1)" stroke="blue" stroke-width="0.05" />
    <polygon id="sp-2" points="-118.841,-219.891 -109.28,-219.891 -109.28,-208.436 -118.841,-208.436" fill="rgba(0,0,255,0.1)" stroke="blue" stroke-width="0.05" />
    <polygon id="sp-45" points="-111.698,-195.215 -115.241,-195.215 -115.241,-199.063 -112.612,-199.063 -111.698,-199.063" fill="rgba(0,0,255,0.1)" stroke="blue" stroke-width="0.05" />
    <polygon id="sp-46" points="-111.698,-189.394 -115.241,-189.394 -115.241,-195.101 -111.698,-195.101" fill="rgba(0,0,255,0.1)" stroke="blue" stroke-width="0.05" />
    <polygon id="sp-47" points="-115.241,-199.178 -115.241,-201.445 -112.669,-201.445 -112.669,-199.178" fill="rgba(0,0,255,0.1)" stroke="blue" stroke-width="0.05" />
    <polygon id="sp-48" points="-133.495,-205.483 -133.495,-212.011 -119.762,-219.891 -118.956,-219.891 -118.956,-208.379 -118.892,-208.379 -118.892,-206.245 -118.892,-201.559 -125.269,-201.559 -125.269,-205.483" fill="rgba(0,0,255,0.1)" stroke="blue" stroke-width="0.05" />
  </g>
</svg>