<?xml version="1.0" encoding="utf-8"?>
<svg xmlns="http://www.w3.org/2000/svg" viewBox="-134.847 188.218 26.744 34.612">
  <g transform="scale(1,-1)">
    <line id="w-5" x1="-109.094" y1="-189.208" x2="-133.681" y2="-189.208" stroke="black" stroke-width="0.371" stroke-linecap="square" />
    <line id="w-6" x1="-133.681" y1="-189.208" x2="-133.681" y2="-211.904" stroke="black" stroke-width="0.371" stroke-linecap="square" />
    <line id="w-7" x1="-109.094" y1="-219.891" x2="-109.094" y2="-189.208" stroke="black" stroke-width="0.371" stroke-linecap="square" />
    <line id="w-20" x1="-118.898" y1="-219.891" x2="-118.898" y2="-208.379" stroke="black" stroke-width="0.114" stroke-linecap="square" />
    <line id="w-21" x1="-118.898" y1="-208.379" x2="-109.094" y2="-208.379" stroke="black" stroke-width="0.114" stroke-linecap="square" />
    <line id="w-49" x1="-111.64" y1="-189.208" x2="-111.64" y2="-195.158" stroke="black" stroke-width="0.114" stroke-linecap="square" />
    <line id="w-50" x1="-111.64" y1="-195.158" x2="-115.298" y2="-195.158" stroke="black" stroke-width="0.114" stroke-linecap="square" />
    <line id="w-51" x1="-115.298" y1="-195.158" x2="-115.298" y2="-189.208" stroke="black" stroke-width="0.114" stroke-linecap="square" />
    <line id="w-52" x1="-115.298" y1="-195.158" x2="-115.298" y2="-201.502" stroke="black" stroke-width="0.114" stroke-linecap="square" />
    <line id="w-53" x1="-115.298" y1="-199.12" x2="-111.64" y2="-199.12" stroke="black" stroke-width="0.114" stroke-linecap="square" />
    <line id="w-54" x1="-111.64" y1="-195.158" x2="-111.64" y2="-199.12" stroke="black" stroke-width="0.114" stroke-linecap="square" />
    <line id="w-55" x1="-111.64" y1="-199.12" x2="-111.64" y2="-201.502" stroke="black" stroke-width="0.114" stroke-linecap="square" />
    <line id="w-56" x1="-111.64" y1="-201.502" x2="-125.326" y2="-201.502" stroke="black" stroke-width="0.114" stroke-linecap="square" />
    <line id="w-57" x1="-112.612" y1="-199.12" x2="-112.612" y2="-201.502" stroke="black" stroke-width="0.114" stroke-linecap="square" />
    <line id="w-77" x1="-125.326" y1="-201.502" x2="-125.326" y2="-205.426" stroke="black" stroke-width="0.114" stroke-linecap="square" />
    <line id="w-78" x1="-125.326" y1="-205.426" x2="-133.681" y2="-205.426" stroke="black" stroke-width="0.114" stroke-linecap="square" />
  </g>
</svg>