<?xml version="1.0" encoding="utf-8"?>
<svg xmlns="http://www.w3.org/2000/svg" viewBox="-134.847 188.218 26.744 34.612">
  <g transform="scale(1,-1)">
    <line id="wn-1" data-host="w-5" x1="-129.182" y1="-189.208" x2="-132.23" y2="-189.208" stroke="white" stroke-width="0.391" />
    <line id="wn-2" data-host="w-5" x1="-125.125" y1="-189.208" x2="-128.173" y2="-189.208" stroke="white" stroke-width="0.391" />
    <line id="wn-3" data-host="w-5" x1="-121.044" y1="-189.208" x2="-124.092" y2="-189.208" stroke="white" stroke-width="0.391" />
    <line id="wn-4" data-host="w-5" x1="-116.987" y1="-189.208" x2="-120.035" y2="-189.208" stroke="white" stroke-width="0.391" />
    <line id="wn-17" data-host="w-5" x1="-112.766" y1="-189.208" x2="-113.782" y2="-189.208" stroke="white" stroke-width="0.391" />
    <line id="wn-21" data-host="w-5" x1="-109.993" y1="-189.208" x2="-110.653" y2="-189.208" stroke="white" stroke-width="0.391" />
    <line id="wn-31" data-host="w-6" x1="-133.681" y1="-201.805" x2="-133.681" y2="-204.345" stroke="white" stroke-width="0.391" />
    <line id="wn-32" data-host="w-6" x1="-133.681" y1="-196.222" x2="-133.681" y2="-198.762" stroke="white" stroke-width="0.391" />
    <line id="wn-33" data-host="w-6" x1="-133.681" y1="-191.796" x2="-133.681" y2="-194.336" stroke="white" stroke-width="0.391" />
    <line id="wn-34" data-host="w-7" x1="-109.094" y1="-197.816" x2="-109.094" y2="-196.8" stroke="white" stroke-width="0.391" />
    <line id="wn-35" data-host="w-7" x1="-109.094" y1="-203.707" x2="-109.094" y2="-202.691" stroke="white" stroke-width="0.391" />
    <line id="wn-36" data-host="w-7" x1="-109.094" y1="-213.096" x2="-109.094" y2="-212.08" stroke="white" stroke-width="0.391" />
    <line id="wn-52" data-host="w-56" x1="-119.275" y1="-201.502" x2="-124.863" y2="-201.502" stroke="white" stroke-width="0.134" />
    <line id="wn-53" data-host="w-7" x1="-109.094" y1="-216.993" x2="-109.094" y2="-215.977" stroke="white" stroke-width="0.391" />
    <line id="wn-57" data-host="w-7" x1="-109.094" y1="-206.653" x2="-109.094" y2="-205.637" stroke="white" stroke-width="0.391" />
  </g>
</svg>