<?xml version="1.0" encoding="utf-8"?>
<svg xmlns="http://www.w3.org/2000/svg" viewBox="-14.068 -7.642 35.646 17.325">
  <g transform="scale(1,-1)">
    <polygon id="cl-52" points="2.718,6.082 1.241,6.082 1.241,5.713 1.241,4.205 2.718,4.205" />
    <polygon id="cl-53" points="1.397,-8.7 1.397,-8.998 12.427,-8.998 12.427,-8.534 1.241,-8.534 1.241,-8.7" />
    <polygon id="cl-54" points="16.243,2.823 16.243,6.353 12.722,6.353 12.722,5.663 12.722,2.823" />
    <polygon id="cl-55" points="-8.401,2.823 -8.401,6.353 -11.922,6.353 -11.922,5.663 -11.922,2.823" />
    <polygon id="cl-56" points="-1.934,6.471 -4.788,6.471 -4.788,2.823 -1.6,2.823 -1.6,5.674 -1.934,5.674" />
    <polygon id="cl-57" points="10.69,3.997 10.69,6.956 5.42,6.956 5.42,3.997" />
    <polygon id="cl-58" points="-8.112,-3.578 -8.112,-0.645 -13.383,-0.645 -13.383,-3.578" />
    <polygon id="cl-59" points="8.144,-3.578 8.144,-0.645 2.873,-0.645 2.873,-3.578" />
    <polygon id="cl-60" points="16.989,0.683 16.989,-3.051 20.892,-3.051 20.401,0.683" />
    <polygon id="cl-61" points="-0.079,-3.616 -0.079,-0.645 -4.95,-0.645 -4.95,-3.616" />
    <polygon id="cl-62" points="-11.998,0.838 -6.477,0.838 -6.172,0.838 -6.172,0.895 1.092,0.895 1.092,0.838 1.241,0.838 12.341,0.838 12.341,0.889 12.341,0.956 15.662,0.956 15.662,0.838 17.049,0.838 17.049,2.667 0.943,2.667 0.943,5.674 -1.384,5.674 -1.384,2.667 -11.998,2.667 -11.998,0.895" />
  </g>
</svg>