<?xml version="1.0" encoding="utf-8"?>
<svg xmlns="http://www.w3.org/2000/svg" viewBox="-35.090 -14.047 57.481 23.853">
  <g transform="scale(1,-1)">
    <circle id="c-94" cx="-5.131" cy="9.487" r="0.051" />
    <rect id="c-95" x="6.985" y="-4.179" width="0.61" height="0.61" />
    <rect id="c-96" x="6.985" y="0.457" width="0.61" height="0.61" />
    <rect id="c-97" x="0.787" y="0.457" width="0.61" height="0.61" />
    <rect id="c-98" x="0.816" y="-4.102" width="0.61" height="0.457" transform="rotate(90,1.121,-3.874)" />
    <rect id="c-20" x="0.787" y="-8.7" width="0.61" height="0.61" />
    <rect id="c-21" x="-6.477" y="-8.7" width="0.61" height="0.61" />
    <rect id="c-99" x="-6.43" y="-4.102" width="0.457" height="0.457" transform="rotate(90,-6.201,-3.874)" />
    <rect id="c-100" x="-6.477" y="0.457" width="0.61" height="0.61" />
    <rect id="c-101" x="12.268" y="-8.7" width="0.61" height="0.61" />
    <rect id="c-102" x="6.985" y="12.331" width="0.61" height="0.61" />
    <rect id="c-103" x="0.787" y="12.331" width="0.61" height="0.61" />
    <rect id="c-104" x="12.268" y="12.331" width="0.61" height="0.61" />
    <rect id="c-105" x="19.395" y="5.55" width="0.61" height="0.61" />
    <rect id="c-106" x="20.065" y="0.457" width="0.61" height="0.61" />
    <rect id="c-107" x="20.675" y="-4.179" width="0.61" height="0.61" />
    <rect id="c-108" x="18.502" y="12.331" width="0.61" height="0.61" />
    <rect id="c-109" x="6.985" y="-8.7" width="0.61" height="0.61" />
    <rect id="c-110" x="12.294" y="5.55" width="0.559" height="0.61" />
    <rect id="c-111" x="-6.477" y="5.55" width="0.61" height="0.61" />
    <rect id="c-112" x="-6.477" y="12.332" width="0.61" height="0.61" />
    <rect id="c-113" x="-21.641" y="12.332" width="0.61" height="0.61" />
    <rect id="c-114" x="-27.978" y="12.332" width="0.61" height="0.61" />
    <rect id="c-115" x="-33.985" y="0.356" width="0.61" height="0.813" />
    <rect id="c-116" x="-15.29" y="0.457" width="0.559" height="0.61" />
    <rect id="c-117" x="-15.252" y="-4.179" width="0.483" height="0.61" />
    <rect id="c-118" x="6.985" y="5.55" width="0.61" height="0.61" />
  </g>
</svg>