<?xml version="1.0" encoding="utf-8"?>
<svg xmlns="http://www.w3.org/2000/svg" viewBox="-34.446 -14.119 55.956 24.703">
  <g transform="scale(1,-1)">
    <path id="du-598" d="M 19.104,-1.726 L 19.104,-3.061" />
    <path id="du-599" d="M 19.612,-2.657 L 19.612,-7.011" />
    <path id="du-600" d="M 19.347,-7.313 L 13.87,-8.034" />
    <path id="du-601" d="M 18.799,-3.366 L 16.31,-3.366" />
    <path id="du-602" d="M 16.005,-3.67 L 16.005,-6.349" />
    <path id="du-603" d="M 19.612,-2.53 L 19.612,-2.53" />
    <path id="du-604" d="M 19.612,-1.726 L 19.612,-2.403" />
    <path id="du-605" d="M 19.612,-2.301 L 19.612,-1.946" />
    <path id="du-606" d="M 19.612,-0.296 L 19.612,0.009" />
    <path id="du-607" d="M 19.764,0.161 L 19.891,0.161" />
    <path id="du-608" d="M 20.043,0.009 L 20.043,-0.868" />
    <path id="du-609" d="M 20.088,-0.976 L 20.39,-1.277" />
    <path id="du-610" d="M 20.434,-1.385 L 20.434,-7.411" />
    <path id="du-611" d="M 19.104,-0.296 L 19.104,0.009" />
    <path id="du-612" d="M 18.951,0.161 L 15.903,0.161" />
    <path id="du-613" d="M 15.751,0.009 L 15.751,-4.821" />
    <path id="du-614" d="M 20.302,-7.562 L 19.556,-7.661" />
    <path id="du-615" d="M 19.423,-7.822 L 19.455,-8.06" />
    <path id="du-616" d="M 19.525,-8.596 L 19.462,-8.113" />
    <path id="du-617" d="M 15.751,-5.099 L 15.751,-6.068" />
    <path id="du-618" d="M 15.751,-4.928 L 15.751,-4.992" />
    <path id="du-619" d="M 5.096,-3.749 L 5.096,-4.075" />
    <path id="du-620" d="M 4.588,-2.466 L 4.588,-3.923" />
    <path id="du-621" d="M 5.096,-1.036 L 5.096,-0.572" />
    <path id="du-622" d="M 4.588,-1.036 L 4.588,-0.572" />
    <path id="du-623" d="M 5.096,-4.204 L 5.096,-4.381" />
    <path id="du-624" d="M 5.096,-4.51 L 5.096,-7.237" />
    <path id="du-625" d="M 5.801,-7.942 L 10.592,-7.942" />
    <path id="du-626" d="M 5.02,-7.942 L 2.962,-7.942" />
    <path id="du-627" d="M 5.303,-7.57 L 5.185,-7.452" />
    <path id="du-628" d="M 5.303,-7.786 L 5.236,-7.853" />
    <path id="du-629" d="M 5.586,-7.853 L 5.519,-7.786" />
    <path id="du-630" d="M 4.283,-4.227 L 2.225,-4.227" />
    <path id="du-631" d="M 2.009,-4.317 L 1.712,-4.614" />
    <path id="du-632" d="M 1.622,-4.83 L 1.622,-7.852" />
    <path id="du-633" d="M 5.096,-2.777 L 5.096,-2.777" />
    <path id="du-634" d="M 5.096,-2.466 L 5.096,-2.65" />
    <path id="du-635" d="M 5.096,-2.625 L 5.096,-2.447" />
    <path id="du-636" d="M 5.248,-3.177 L 7.853,-3.177" />
    <path id="du-637" d="M 5.096,-2.904 L 5.096,-3.025" />
    <path id="du-638" d="M 8.169,-2.86 L 8.169,-0.749" />
    <path id="du-639" d="M 3.302,-3.596 L 4.691,-3.596" />
    <path id="du-640" d="M 3.086,-3.507 L 2.937,-3.358" />
    <path id="du-641" d="M 2.848,-3.142 L 2.848,-0.749" />
    <path id="du-642" d="M 8.08,-3.076 L 8.068,-3.088" />
    <path id="du-643" d="M 4.435,-0.419 L 2.149,-0.419" />
    <path id="du-644" d="M 1.997,-4.331 L 1.997,-7.996" />
    <path id="du-645" d="M 5.248,-0.419 L 5.858,-0.419" />
    <path id="du-646" d="M 6.01,-0.572 L 6.01,-4.084" />
    <path id="du-647" d="M 1.997,-0.572 L 1.997,-3.92" />
    <path id="du-648" d="M 1.997,-4.199 L 1.997,-4.052" />
    <path id="du-649" d="M 3.531,-8.148 L 2.632,-8.148" />
    <path id="du-650" d="M 2.105,-8.148 L 2.524,-8.148" />
    <path id="du-651" d="M 6.163,-4.237 L 11.561,-4.237" />
    <path id="du-652" d="M 12.03,-4.389 L 12.03,-7.996" />
    <path id="du-653" d="M 11.922,-4.237 L 11.668,-4.237" />
    <path id="du-654" d="M 11.922,-8.148 L 11.503,-8.148" />
    <path id="du-655" d="M 11.122,-8.148 L 11.395,-8.148" />
    <path id="du-656" d="M 10.973,-9.508 L 10.97,-8.301" />
    <path id="du-657" d="M -11.668,-2.466 L -11.668,-3.923" />
    <path id="du-658" d="M -11.16,-1.036 L -11.16,-0.427" />
    <path id="du-659" d="M -11.668,-1.036 L -11.668,-0.427" />
    <path id="du-660" d="M -11.16,-4.204 L -11.16,-4.381" />
    <path id="du-661" d="M -11.16,-4.51 L -11.16,-7.237" />
    <path id="du-662" d="M -10.455,-7.942 L -7.96,-7.942" />
    <path id="du-663" d="M -11.236,-7.942 L -13.294,-7.942" />
    <path id="du-664" d="M -10.953,-7.57 L -11.071,-7.452" />
    <path id="du-665" d="M -10.953,-7.786 L -11.02,-7.853" />
    <path id="du-666" d="M -10.67,-7.853 L -10.737,-7.786" />
    <path id="du-667" d="M -11.973,-4.227 L -14.031,-4.227" />
    <path id="du-668" d="M -14.247,-4.317 L -14.544,-4.614" />
    <path id="du-669" d="M -14.634,-4.83 L -14.634,-7.852" />
    <path id="du-670" d="M -11.16,-2.777 L -11.16,-2.777" />
    <path id="du-671" d="M -11.16,-2.466 L -11.16,-2.65" />
    <path id="du-672" d="M -11.16,-2.625 L -11.16,-2.447" />
    <path id="du-673" d="M -11.008,-3.329 L -8.48,-3.329" />
    <path id="du-674" d="M -11.16,-2.904 L -11.16,-3.177" />
    <path id="du-675" d="M -8.087,-2.936 L -8.087,-0.749" />
    <path id="du-676" d="M -12.853,-3.698 L -11.616,-3.698" />
    <path id="du-677" d="M -13.068,-3.608 L -13.319,-3.358" />
    <path id="du-678" d="M -13.408,-3.142 L -13.408,-0.749" />
    <path id="du-679" d="M -8.176,-3.152 L -8.264,-3.24" />
    <path id="du-680" d="M -11.821,-0.274 L -14.107,-0.274" />
    <path id="du-681" d="M -14.259,-4.331 L -14.259,-7.996" />
    <path id="du-682" d="M -11.008,-0.274 L -10.398,-0.274" />
    <path id="du-683" d="M -10.246,-0.427 L -10.246,-4.084" />
    <path id="du-684" d="M -14.259,-0.427 L -14.259,-3.92" />
    <path id="du-685" d="M -12.71,-8.899 L -12.71,-8.301" />
    <path id="du-686" d="M -14.259,-4.199 L -14.259,-4.052" />
    <path id="du-687" d="M -12.862,-8.148 L -13.84,-8.148" />
    <path id="du-688" d="M -14.151,-8.148 L -13.948,-8.148" />
    <path id="du-689" d="M -8.747,-8.899 L -8.747,-8.301" />
    <path id="du-690" d="M -10.093,-4.237 L -7.972,-4.237" />
    <path id="du-691" d="M -7.503,-4.389 L -7.503,-7.996" />
    <path id="du-692" d="M -7.61,-4.237 L -7.864,-4.237" />
    <path id="du-693" d="M -7.61,-8.148 L -7.813,-8.148" />
    <path id="du-694" d="M -8.595,-8.148 L -7.921,-8.148" />
    <path id="du-695" d="M -18.847,5.048 L -18.847,2.939" />
    <path id="du-696" d="M -26.096,5.049 L -26.096,2.939" />
    <path id="du-697" d="M -18.847,9.727 L -18.847,6.659" />
    <path id="du-698" d="M -18.847,6 L -18.847,5.706" />
    <path id="du-699" d="M -18.847,6.443 L -18.847,6.216" />
    <path id="du-700" d="M -18.847,5.491 L -18.847,5.263" />
    <path id="du-701" d="M -25.584,9.727 L -25.584,7.477" />
    <path id="du-702" d="M -26.096,6.001 L -26.096,5.708" />
    <path id="du-703" d="M -26.096,6.394 L -26.096,6.217" />
    <path id="du-704" d="M -26.096,5.492 L -26.096,5.265" />
    <path id="du-705" d="M -26.096,6.61 L -26.096,6.713" />
    <path id="du-706" d="M -25.673,7.262 L -26.007,6.928" />
    <path id="du-707" d="M -29.373,1.497 L -31.735,1.497" />
    <path id="du-708" d="M -25.146,1.497 L -22.667,1.497" />
    <path id="du-709" d="M -17.44,1.497 L -18.72,1.497" />
    <path id="du-710" d="M -26.096,2.724 L -26.096,2.496" />
    <path id="du-711" d="M -26.096,2.28 L -26.096,2.107" />
    <path id="du-712" d="M -26.491,1.586 L -26.185,1.892" />
    <path id="du-713" d="M -18.847,2.724 L -18.847,2.496" />
    <path id="du-714" d="M -18.847,2.28 L -18.847,2.107" />
    <path id="du-715" d="M -18.981,1.847 L -18.936,1.892" />
    <path id="du-716" d="M -18.936,1.586 L -18.981,1.631" />
    <path id="du-717" d="M -19.241,1.586 L -19.196,1.631" />
    <path id="du-718" d="M -29.221,1.389 L -29.221,1.191" />
    <path id="du-719" d="M -26.706,1.497 L -29.068,1.497" />
    <path id="du-720" d="M -29.221,0.976 L -29.221,0.089" />
    <path id="du-721" d="M -29.248,-0.038 L -29.853,-1.364" />
    <path id="du-722" d="M -22.515,1.389 L -22.515,1.191" />
    <path id="du-723" d="M -22.515,0.976 L -22.515,0.356" />
    <path id="du-724" d="M -22.543,0.229 L -23.248,-1.318" />
    <path id="du-725" d="M -19.457,1.497 L -22.363,1.497" />
    <path id="du-726" d="M -17.135,1.282 L -17.135,1.191" />
    <path id="du-727" d="M -17.135,0.976 L -17.135,0.356" />
    <path id="du-728" d="M -17.162,0.229 L -17.741,-1.041" />
    <path id="du-729" d="M -27.263,6.001 L -27.263,5.834" />
    <path id="du-730" d="M -27.263,6.394 L -27.263,6.217" />
    <path id="du-731" d="M -27.263,7.957 L -27.263,6.61" />
    <path id="du-732" d="M -15.725,8.326 L -15.725,1.137" />
    <path id="du-733" d="M -19.355,9.727 L -19.355,9.701" />
    <path id="du-734" d="M -16.796,9.397 L -18.822,9.397" />
    <path id="du-735" d="M -16.581,9.307 L -15.815,8.541" />
    <path id="du-736" d="M -19.139,9.397 L -19.038,9.397" />
    <path id="du-737" d="M -26.092,9.727 L -26.092,9.38" />
    <path id="du-738" d="M -27.174,8.172 L -26.181,9.164" />
    <path id="du-739" d="M -27.352,5.619 L -27.497,5.474" />
    <path id="du-740" d="M -27.712,5.385 L -32.489,5.385" />
    <path id="du-741" d="M -32.705,5.295 L -33.28,4.72" />
    <path id="du-742" d="M -33.37,4.504 L -33.37,1.735" />
    <path id="du-743" d="M -26.092,11.157 L -26.092,11.892" />
    <path id="du-744" d="M -25.584,11.157 L -25.584,12.019" />
    <path id="du-745" d="M -19.355,11.157 L -19.355,12.019" />
    <path id="du-746" d="M -18.847,11.157 L -18.847,12.019" />
    <path id="du-747" d="M -17.907,12.171 L -18.472,12.171" />
    <path id="du-748" d="M -18.748,12.171 L -18.588,12.171" />
    <path id="du-749" d="M -21.565,12.171 L -19.687,12.171" />
    <path id="du-750" d="M -19.443,12.171 L -19.563,12.171" />
    <path id="du-751" d="M -24.257,12.171 L -25.216,12.171" />
    <path id="du-752" d="M -25.324,12.171 L -25.476,12.171" />
    <path id="du-753" d="M -28.067,12.044 L -26.46,12.044" />
    <path id="du-754" d="M -26.352,12.044 L -26.2,12.044" />
    <path id="du-755" d="M -10.072,3.232 L -10.072,3.149" />
    <path id="du-756" d="M -10.174,3.048 L -10.631,3.048" />
    <path id="du-757" d="M -9.564,3.232 L -9.564,3.003" />
    <path id="du-758" d="M -9.666,2.902 L -10.796,2.902" />
    <path id="du-759" d="M -10.733,3.149 L -10.733,5.246" />
    <path id="du-760" d="M -10.898,3.003 L -10.898,4.998" />
    <path id="du-761" d="M -10.733,5.378 L -10.733,5.518" />
    <path id="du-762" d="M -10.733,5.65 L -10.733,5.982" />
    <path id="du-763" d="M -10.733,6.114 L -10.733,6.331" />
    <path id="du-764" d="M -10.733,6.463 L -10.733,11.9" />
    <path id="du-765" d="M -11.311,6.476 L -11.311,12.103" />
    <path id="du-766" d="M -11.311,6.344 L -11.311,6.13" />
    <path id="du-767" d="M -11.311,5.998 L -11.311,5.711" />
    <path id="du-768" d="M -10.943,5.105 L -11.195,5.358" />
    <path id="du-769" d="M -11.279,5.442 L -11.295,5.458" />
    <path id="du-770" d="M -11.311,5.492 L -11.311,5.579" />
    <path id="du-771" d="M -11.159,12.256 L -10.967,12.256" />
    <path id="du-772" d="M -10.833,12.256 L -10.669,12.256" />
    <path id="du-773" d="M -10.688,12.008 L -10.485,12.211" />
    <path id="du-774" d="M -10.377,12.256 L -7.336,12.256" />
    <path id="du-775" d="M -7.228,12.256 L -6.893,12.256" />
    <path id="du-776" d="M -6.785,12.408 L -6.785,13.037" />
    <path id="du-777" d="M -10.072,6.54 L -10.072,11.851" />
    <path id="du-778" d="M -10.072,4.759 L -10.072,4.662" />
    <path id="du-779" d="M -10.072,5.424 L -10.072,5.512" />
    <path id="du-780" d="M -10.072,5.776 L -10.072,5.924" />
    <path id="du-781" d="M -10.072,6.276 L -10.072,6.188" />
    <path id="du-782" d="M -10.072,4.911 L -10.072,4.911" />
    <path id="du-783" d="M -10.072,5.16 L -10.072,5.063" />
    <path id="du-784" d="M -9.564,6.643 L -9.564,6.581" />
    <path id="du-785" d="M -9.26,6.948 L -7.278,6.948" />
    <path id="du-786" d="M -6.974,7.253 L -6.974,11.851" />
    <path id="du-787" d="M -9.564,4.662 L -9.564,5.16" />
    <path id="du-788" d="M -9.564,5.776 L -9.564,6.153" />
    <path id="du-789" d="M -9.564,5.424 L -9.564,5.512" />
    <path id="du-790" d="M -9.564,6.428 L -9.564,6.306" />
    <path id="du-791" d="M 8.638,6.92 L 8.638,5.742" />
    <path id="du-792" d="M 8.13,6.358 L 8.13,6.721" />
    <path id="du-793" d="M 8.13,4.312 L 8.13,4.287" />
    <path id="du-794" d="M 8.638,4.312 L 8.638,4.287" />
    <path id="du-795" d="M 7.978,4.134 L 7.063,4.134" />
    <path id="du-796" d="M 6.911,4.287 L 6.911,7.119" />
    <path id="du-797" d="M 8.791,4.134 L 9.146,4.134" />
    <path id="du-798" d="M 9.299,4.287 L 9.299,7.234" />
    <path id="du-799" d="M 2.034,7.767 L 5.756,7.767" />
    <path id="du-800" d="M 6.866,7.227 L 6.378,7.715" />
    <path id="du-801" d="M 9.705,9.857 L 8.283,9.857" />
    <path id="du-802" d="M 8.943,7.767 L 10.595,7.767" />
    <path id="du-803" d="M 8.638,7.462 L 8.638,7.416" />
    <path id="du-804" d="M 8.638,7.2 L 8.638,7.135" />
    <path id="du-805" d="M 9.767,12.41 L 10.024,12.153" />
    <path id="du-806" d="M 10.066,12.016 L 10.066,7.539" />
    <path id="du-807" d="M 9.947,7.387 L 9.418,7.387" />
    <path id="du-808" d="M 11.422,8.593 L 11.422,11.577" />
    <path id="du-809" d="M 11.332,8.378 L 10.81,7.856" />
    <path id="du-810" d="M 8.13,6.936 L 8.13,6.986" />
    <path id="du-811" d="M 8.13,9.705 L 8.13,7.202" />
    <path id="du-812" d="M 1.882,7.919 L 1.882,12.078" />
    <path id="du-813" d="M 6.262,7.767 L 5.827,7.767" />
    <path id="du-814" d="M 1.882,12.186 L 1.882,12.376" />
    <path id="du-815" d="M 4.133,9.401 L 4.133,3.057" />
    <path id="du-816" d="M 4.286,9.857 L 7.978,9.857" />
    <path id="du-817" d="M 2.644,9.857 L 3.981,9.857" />
    <path id="du-818" d="M 4.133,9.554 L 4.133,9.725" />
    <path id="du-819" d="M 8.13,6.231 L 8.13,6.231" />
    <path id="du-820" d="M 8.13,5.742 L 8.13,6.104" />
    <path id="du-821" d="M 8.13,6.079 L 8.13,5.927" />
    <path id="du-822" d="M 14.518,4.683 L 14.518,5.984" />
    <path id="du-823" d="M 14.01,5.681 L 14.01,12.151" />
    <path id="du-824" d="M 14.518,3.253 L 14.518,3.119" />
    <path id="du-825" d="M 14.01,3.253 L 14.01,3.119" />
    <path id="du-826" d="M 18.059,6.289 L 15.03,6.289" />
    <path id="du-827" d="M 18.274,6.378 L 19.019,7.122" />
    <path id="du-828" d="M 19.105,7.378 L 18.497,11.998" />
    <path id="du-829" d="M 14.795,6.289 L 14.903,6.289" />
    <path id="du-830" d="M 14.01,5.554 L 14.01,5.554" />
    <path id="du-831" d="M 14.01,5.125 L 14.01,5.427" />
    <path id="du-832" d="M 14.01,5.325 L 14.01,4.995" />
    <path id="du-833" d="M 14.449,4.998 L 16.044,4.998" />
    <path id="du-834" d="M 16.272,4.77 L 16.272,3.525" />
    <path id="du-835" d="M 13.857,2.966 L 13.146,2.966" />
    <path id="du-836" d="M 12.994,6.229 L 12.994,6.016" />
    <path id="du-837" d="M 12.994,3.074 L 12.994,3.2" />
    <path id="du-838" d="M 12.994,5.872 L 12.994,3.307" />
    <path id="du-839" d="M 12.994,6.372 L 12.994,11.961" />
    <path id="du-840" d="M 13.062,12.102 L 13.467,12.336" />
    <path id="du-841" d="M 13.535,12.476 L 13.535,13.037" />
    <path id="du-842" d="M 14.67,2.966 L 17.193,2.966" />
    <path id="du-843" d="M 17.345,6.776 L 17.345,12.027" />
    <path id="du-844" d="M 17.345,3.119 L 17.345,6.307" />
    <path id="du-845" d="M 17.345,12.159 L 17.345,12.364" />
    <path id="du-846" d="M 17.345,6.439 L 17.345,6.645" />
    <path id="du-847" d="M -5.406,6.944 L -3.089,6.944" />
    <path id="du-848" d="M -5.803,6.459 L -5.582,6.842" />
    <path id="du-849" d="M -2.886,6.679 L -2.886,5.282" />
    <path id="du-850" d="M -17.755,13.037 L -17.755,12.324" />
    <path id="du-851" d="M -24.105,13.037 L -24.105,12.324" />
    <path id="du-852" d="M -11.16,-3.545 L -11.16,-3.482" />
    <path id="du-853" d="M -11.16,-3.85 L -11.16,-4.075" />
    <path id="du-854" d="M -11.463,-3.698 L -11.292,-3.698" />
    <path id="du-855" d="M 1.882,13.037 L 1.882,12.484" />
    <path id="du-856" d="M 14.318,4.998 L 14.134,4.998" />
    <path id="du-857" d="M 14.01,4.683 L 14.01,4.871" />
    <path id="du-858" d="M 4.866,-3.596 L 4.971,-3.596" />
    <path id="du-859" d="M 5.096,-3.329 L 5.096,-3.444" />
    <path id="du-860" d="M 3.683,-9.508 L 3.683,-8.301" />
    <path id="du-861" d="M 16.142,-9.048 L 15.752,-6.088" />
    <path id="du-862" d="M 17.345,13.043 L 17.345,12.496" />
    <path id="du-863" d="M 9.725,13.043 L 9.725,12.547" />
    <path id="du-864" d="M -10.595,13.043 L -10.595,12.408" />
    <path id="du-865" d="M -21.717,13.043 L -21.717,12.324" />
    <path id="du-866" d="M -28.219,13.043 L -28.219,12.197" />
    <path id="du-1160" d="M 17.345,13.037 L 17.345,6.811" />
    <path id="du-1161" d="M 5.915,13.037 L 5.915,7.447" />
    <path id="du-1162" d="M 6.52,4.45 L 6.52,4.45" />
    <path id="du-1163" d="M -8.879,3.542 L -8.879,6.547" />
    <path id="du-1164" d="M -8.879,3.389 L -8.879,3.389" />
    <path id="du-1165" d="M -9.031,6.7 L -10.443,6.7" />
    <path id="du-1166" d="M 15.765,3.814 L 15.765,6.507" />
    <path id="du-1167" d="M 17.193,6.659 L 15.918,6.659" />
    <path id="du-1168" d="M 6.52,4.602 L 6.52,7.142" />
    <path id="du-1169" d="M 6.067,7.295 L 6.367,7.295" />
    <path id="du-1170" d="M -10.595,6.852 L -10.595,13.037" />
    <path id="du-1171" d="M -15.37,11.468 L -15.37,12.018" />
    <path id="du-1172" d="M -15.37,11.316 L -15.37,11.316" />
    <path id="du-1173" d="M -15.786,12.433 L -16.332,12.433" />
    <path id="du-1174" d="M -16.485,12.586 L -16.485,13.037" />
    <path id="du-1175" d="M 6.909,-1.157 L 6.909,-1.157" />
    <path id="du-1176" d="M 5.347,-4.559 L 5.347,-4.13" />
    <path id="du-1177" d="M 5.347,-4.023 L 5.347,-3.298" />
    <path id="du-1178" d="M 5.391,-3.19 L 6.864,-1.717" />
    <path id="du-1179" d="M 6.909,-1.31 L 6.909,-1.61" />
    <path id="du-1180" d="M -9.299,-1.17 L -9.3,-1.157" />
    <path id="du-1181" d="M -6.996,-1.172 L -9.146,-1.172" />
    <path id="du-1182" d="M -6.844,-8.256 L -6.844,-8.899" />
    <path id="du-1183" d="M -6.844,-1.324 L -6.844,-3.235" />
    <path id="du-1184" d="M -6.844,-3.367 L -6.844,-3.604" />
    <path id="du-1185" d="M -6.844,-3.736 L -6.844,-4.008" />
    <path id="du-1186" d="M -6.844,-4.509 L -6.844,-7.787" />
    <path id="du-1187" d="M -6.844,-4.14 L -6.844,-4.377" />
    <path id="du-1188" d="M -6.844,-7.919 L -6.844,-8.124" />
    <path id="du-1189" d="M 17.712,-4.487 L 17.712,-7.555" />
    <path id="du-1190" d="M 17.712,-4.355 L 17.712,-4.143" />
    <path id="du-1191" d="M 17.712,-4.011 L 17.712,-3.736" />
    <path id="du-1192" d="M 17.712,-3.604 L 17.712,-3.391" />
    <path id="du-1193" d="M 17.712,-7.708 L 17.712,-7.708" />
    <path id="du-1194" d="M 17.712,-7.86 L 17.712,-7.903" />
    <path id="du-1195" d="M 17.721,-7.955 L 17.805,-8.185" />
    <path id="du-1196" d="M 5.347,-8.188 L 5.347,-8.188" />
    <path id="du-1197" d="M 5.347,-4.667 L 5.347,-8.036" />
    <path id="du-1198" d="M 5.347,-9.508 L 5.347,-8.34" />
    <path id="du-1199" d="M 17.892,-8.811 L 17.813,-8.217" />
    <path id="du-1200" d="M 17.712,-3.259 L 17.712,-1.679" />
    <path id="du-1201" d="M 17.708,-1.642 L 17.386,-0.326" />
    <path id="du-1202" d="M 17.35,-0.178 L 17.35,-0.178" />
    <path id="du-1203" d="M 15.765,3.662 L 15.765,3.662" />
    <path id="du-1204" d="M -4.408,3.79 L -4.408,6.635" />
    <path id="du-1205" d="M -3.127,6.787 L -4.256,6.787" />
    <path id="du-1206" d="M -4.408,3.637 L -4.408,3.637" />
    <path id="du-1207" d="M -2.975,13.037 L -2.975,6.939" />
    <path id="du-1208" d="M -15.415,12.126 L -15.678,12.389" />
    <path id="du-1209" d="M -1.335,-1.157 L -1.335,-1.157" />
    <path id="du-1210" d="M -1.335,-1.31 L -1.335,-3.418" />
    <path id="du-1211" d="M -1.487,-3.57 L -5.751,-3.57" />
    <path id="du-1212" d="M -5.904,-3.57 L -5.904,-3.57" />
    <path id="du-1213" d="M -5.904,-3.723 L -5.904,-7.797" />
  </g>
</svg>