<?xml version="1.0" encoding="utf-8"?>
<svg xmlns="http://www.w3.org/2000/svg" viewBox="-26.904 -11.508 47.631 14.325">
  <g transform="scale(1,-1)">
    <rect id="eq-24" x="19.208" y="-1.161" width="0.3" height="0.3" />
    <rect id="eq-25" x="4.692" y="-1.901" width="0.3" height="0.3" transform="rotate(360,4.842,-1.751)" />
    <rect id="eq-26" x="-11.564" y="-1.901" width="0.3" height="0.3" transform="rotate(360,-11.414,-1.751)" />
    <rect id="eq-27" x="-25.988" y="10.292" width="0.3" height="0.3" transform="rotate(360,-25.838,10.442)" />
    <rect id="eq-28" x="-19.251" y="10.292" width="0.3" height="0.3" transform="rotate(360,-19.101,10.442)" />
    <rect id="eq-29" x="-9.968" y="3.797" width="0.3" height="0.3" transform="rotate(180,-9.818,3.947)" />
    <rect id="eq-30" x="8.234" y="4.877" width="0.3" height="0.3" transform="rotate(180,8.384,5.027)" />
    <rect id="eq-31" x="14.114" y="3.818" width="0.3" height="0.3" transform="rotate(180,14.264,3.968)" />
    <rect id="eq-64" x="8.816" y="3.924" width="0.3" height="0.3" transform="rotate(180,8.966,4.074)" />
    <rect id="eq-65" x="15.809" y="4.019" width="0.3" height="0.3" transform="rotate(180,15.959,4.169)" />
    <rect id="eq-66" x="-8.811" y="4.019" width="0.3" height="0.3" transform="rotate(90,-8.661,4.169)" />
    <rect id="eq-67" x="-11.751" y="-0.871" width="0.3" height="0.3" transform="rotate(90,-11.601,-0.721)" />
    <rect id="eq-68" x="-3.49" y="-0.871" width="0.3" height="0.3" transform="rotate(90,-3.34,-0.721)" />
    <rect id="eq-69" x="4.53" y="-0.871" width="0.3" height="0.3" transform="rotate(90,4.68,-0.721)" />
    <rect id="eq-70" x="17.02" y="-1.014" width="0.3" height="0.3" transform="rotate(90,17.17,-0.864)" />
    <rect id="eq-71" x="-15.393" y="4.943" width="0.3" height="0.3" transform="rotate(240,-15.243,5.093)" />
    <rect id="eq-72" x="-4.865" y="6.06" width="0.3" height="0.3" transform="rotate(240,-4.715,6.21)" />
    <rect id="eq-73" x="19.511" y="1.603" width="0.3" height="0.3" transform="rotate(90,19.661,1.753)" />
    <rect id="eq-74" x="-13.969" y="4.943" width="0.3" height="0.3" transform="rotate(120,-13.819,5.093)" />
  </g>
</svg>