<?xml version="1.0" encoding="utf-8"?>
<svg xmlns="http://www.w3.org/2000/svg" viewBox="-31.334 -13.478 53.263 23.261">
  <g transform="scale(1,-1)">
    <path id="pi-1876" d="M 13.214,4.177 L 13.214,4.177" />
    <path id="pi-1877" d="M 13.214,5.166 L 13.214,5.166" />
    <path id="pi-1878" d="M 9.461,5.29 L 9.461,5.29" />
    <path id="pi-1879" d="M 6.695,5.324 L 6.696,5.324" />
    <path id="pi-1880" d="M -2.08,5.217 L -2.08,5.217" />
    <path id="pi-1881" d="M -2.08,3.204 L -2.08,3.204" />
    <path id="pi-1882" d="M 1.543,2.616 L -4.154,2.616" />
    <path id="pi-1883" d="M -4.175,3.287 L -4.175,2.637" />
    <path id="pi-1884" d="M -6.334,2.565 L -8.991,2.565" />
    <path id="pi-1885" d="M 1.899,2.515 L -15.248,2.515" />
    <path id="pi-1886" d="M -15.269,2.535 L -15.269,10.953" />
    <path id="pi-1887" d="M -15.283,11.354 L -30.229,11.354" />
    <path id="pi-1888" d="M -12.688,2.464 L -6.334,2.464" />
    <path id="pi-1889" d="M 2.102,2.413 L -1.472,2.413" />
    <path id="pi-1890" d="M -1.492,1.042 L -1.492,2.392" />
    <path id="pi-1891" d="M 1.564,3.953 L 1.564,2.637" />
    <path id="pi-1892" d="M 1.97,4.004 L 1.97,2.586" />
    <path id="pi-1893" d="M 1.919,4.004 L 1.919,2.535" />
    <path id="pi-1894" d="M 2.021,4.004 L 2.021,2.484" />
    <path id="pi-1895" d="M 2.122,4.004 L 2.122,2.434" />
    <path id="pi-1896" d="M -1.635,5.217 L -1.937,5.217" />
    <path id="pi-1897" d="M -1.492,5.217 L -1.492,5.217" />
    <path id="pi-1898" d="M -1.563,5.217 L -1.783,5.217" />
    <path id="pi-1899" d="M -2.009,3.204 L -1.925,3.204" />
    <path id="pi-1900" d="M -2.95,5.855 L -2.95,5.833" />
    <path id="pi-1901" d="M -4.099,3.432 L -4.116,3.432" />
    <path id="pi-1902" d="M -4.194,3.432 L -4.194,3.432" />
    <path id="pi-1903" d="M -4.116,3.432 L -3.896,3.432" />
    <path id="pi-1904" d="M -1.854,3.204 L -1.854,3.204" />
    <path id="pi-1905" d="M -2.872,5.755 L -1.57,5.755" />
    <path id="pi-1906" d="M -1.522,4.04 L -1.522,4.04" />
    <path id="pi-1907" d="M -1.438,4.847 L -1.438,4.19" />
    <path id="pi-1908" d="M -1.522,4.101 L -1.522,4.101" />
    <path id="pi-1909" d="M -4.099,3.534 L -4.161,3.534" />
    <path id="pi-1910" d="M -3.051,5.855 L -3.051,5.721" />
    <path id="pi-1911" d="M -2.848,5.855 L -2.848,5.774" />
    <path id="pi-1912" d="M -4.358,3.637 L -4.358,3.637" />
    <path id="pi-1913" d="M -4.099,3.331 L -4.161,3.331" />
    <path id="pi-1914" d="M -4.358,3.79 L -4.358,3.79" />
    <path id="pi-1915" d="M -4.343,3.637 L -4.189,3.637" />
    <path id="pi-1916" d="M -4.175,3.331 L -4.175,3.331" />
    <path id="pi-1917" d="M -4.175,3.637 L -4.175,3.637" />
    <path id="pi-1918" d="M -4.175,3.81 L -4.175,4.114" />
    <path id="pi-1919" d="M -4.189,4.128 L -4.643,4.128" />
    <path id="pi-1920" d="M -4.175,4.128 L -4.175,4.128" />
    <path id="pi-1921" d="M -4.658,4.142 L -4.658,5.746" />
    <path id="pi-1922" d="M -4.643,5.76 L -2.862,5.76" />
    <path id="pi-1923" d="M -2.848,5.76 L -2.848,5.76" />
    <path id="pi-1924" d="M -4.175,3.519 L -4.175,3.439" />
    <path id="pi-1925" d="M -4.175,3.287 L -4.175,2.759" />
    <path id="pi-1926" d="M -4.175,3.424 L -4.175,3.424" />
    <path id="pi-1927" d="M -4.161,2.745 L -1.507,2.745" />
    <path id="pi-1928" d="M -1.507,3.407 L -1.572,3.407" />
    <path id="pi-1929" d="M -1.492,3.407 L -1.492,3.407" />
    <path id="pi-1930" d="M -1.492,3.386 L -1.492,2.759" />
    <path id="pi-1931" d="M -1.443,4.857 L -1.564,4.979" />
    <path id="pi-1932" d="M -1.568,5.693 L -1.568,4.989" />
    <path id="pi-1933" d="M -2.833,5.745 L -2.799,5.711" />
    <path id="pi-1934" d="M -2.848,5.76 L -2.848,5.76" />
    <path id="pi-1935" d="M -2.008,5.707 L -1.583,5.707" />
    <path id="pi-1936" d="M -1.568,5.693 L -1.568,4.989" />
    <path id="pi-1937" d="M -1.443,4.857 L -1.564,4.979" />
    <path id="pi-1938" d="M -2.029,5.68 L -2.029,5.729" />
    <path id="pi-1939" d="M -2.789,5.707 L -2.151,5.707" />
    <path id="pi-1940" d="M -2.13,5.707 L -2.13,5.707" />
    <path id="pi-1941" d="M -2.13,5.693 L -2.13,5.68" />
    <path id="pi-1942" d="M -2.11,5.707 L -1.583,5.707" />
    <path id="pi-1943" d="M -2.029,5.744 L -2.029,5.744" />
    <path id="pi-1944" d="M -2.029,5.721 L -2.029,5.739" />
    <path id="pi-1945" d="M -3.037,5.707 L -2.049,5.707" />
    <path id="pi-1946" d="M -4.302,3.307 L -4.302,3.307" />
    <path id="pi-1947" d="M 13.164,4.64 L 13.164,4.677" />
    <path id="pi-1948" d="M 15.456,3.832 L 15.543,3.832" />
    <path id="pi-1949" d="M 15.1,5.715 L 15.1,5.653" />
    <path id="pi-1950" d="M 15.303,5.715 L 15.303,5.653" />
    <path id="pi-1951" d="M 15.715,3.509 L 15.715,3.509" />
    <path id="pi-1952" d="M 15.7,3.509 L 15.578,3.509" />
    <path id="pi-1953" d="M 13.214,5.309 L 13.214,5.496" />
    <path id="pi-1954" d="M 13.214,5.064 L 13.214,4.911" />
    <path id="pi-1955" d="M 12.646,4.47 L 12.646,4.47" />
    <path id="pi-1956" d="M 12.646,4.437 L 12.646,3.572" />
    <path id="pi-1957" d="M 15.456,3.731 L 15.474,3.731" />
    <path id="pi-1958" d="M 15.508,3.731 L 15.508,3.731" />
    <path id="pi-1959" d="M 15.202,5.715 L 15.202,5.672" />
    <path id="pi-1960" d="M 15.202,5.639 L 15.202,5.639" />
    <path id="pi-1961" d="M 12.679,4.47 L 12.886,4.47" />
    <path id="pi-1962" d="M 13.106,4.677 L 12.91,4.48" />
    <path id="pi-1963" d="M 13.214,4.32 L 13.214,4.658" />
    <path id="pi-1964" d="M 13.322,5.639 L 13.87,5.639" />
    <path id="pi-1965" d="M 15.508,3.764 L 15.508,5.605" />
    <path id="pi-1966" d="M 15.474,5.639 L 15.376,5.639" />
    <path id="pi-1967" d="M 15.165,5.639 L 15.097,5.639" />
    <path id="pi-1968" d="M 15.085,5.639 L 13.893,5.639" />
    <path id="pi-1969" d="M 15.365,5.639 L 15.239,5.639" />
    <path id="pi-1970" d="M 15.564,3.509 L 15.564,3.509" />
    <path id="pi-1971" d="M 15.564,3.812 L 15.564,3.53" />
    <path id="pi-1972" d="M 15.564,2.759 L 15.564,3.489" />
    <path id="pi-1973" d="M 15.55,2.745 L 12.66,2.745" />
    <path id="pi-1974" d="M 12.646,2.745 L 12.646,2.745" />
    <path id="pi-1975" d="M 12.646,2.759 L 12.646,3.121" />
    <path id="pi-1976" d="M 12.646,3.135 L 12.646,3.135" />
    <path id="pi-1977" d="M 15.564,3.853 L 15.564,4.067" />
    <path id="pi-1978" d="M 15.564,4.081 L 15.564,4.081" />
    <path id="pi-1979" d="M 15.564,4.096 L 15.564,5.693" />
    <path id="pi-1980" d="M 15.303,5.639 L 15.303,5.639" />
    <path id="pi-1981" d="M 15.1,5.639 L 15.1,5.639" />
    <path id="pi-1982" d="M 13.164,4.691 L 13.164,4.691" />
    <path id="pi-1983" d="M 13.164,4.705 L 13.164,5.448" />
    <path id="pi-1984" d="M 13.178,5.462 L 15.289,5.462" />
    <path id="pi-1985" d="M -15.269,11.051 L -15.269,11.34" />
    <path id="pi-1986" d="M -15.319,11.316 L -15.319,11.316" />
    <path id="pi-1987" d="M -15.305,11.316 L -15.283,11.316" />
    <path id="pi-1988" d="M -15.269,11.294 L -15.269,10.994" />
    <path id="pi-1989" d="M -15.269,10.973 L -15.269,10.973" />
    <path id="pi-1990" d="M -15.319,11.468 L -15.319,11.468" />
    <path id="pi-1991" d="M -15.305,11.468 L -15.283,11.468" />
    <path id="pi-1992" d="M -15.269,11.066 L -15.269,11.066" />
    <path id="pi-1993" d="M -15.269,11.081 L -15.269,11.382" />
    <path id="pi-1994" d="M -15.269,11.454 L -15.269,11.081" />
    <path id="pi-1995" d="M -15.283,11.397 L -30.296,11.397" />
    <path id="pi-1996" d="M -30.243,11.354 L -30.243,11.354" />
    <path id="pi-1997" d="M -30.229,11.065 L -30.213,11.065" />
    <path id="pi-1998" d="M -30.243,11.079 L -30.243,11.333" />
    <path id="pi-1999" d="M -30.296,10.862 L -30.213,10.862" />
    <path id="pi-2000" d="M -30.31,10.876 L -30.31,11.382" />
    <path id="pi-2001" d="M -30.31,11.397 L -30.31,11.397" />
    <path id="pi-2002" d="M -30.243,11.354 L -30.243,11.354" />
    <path id="pi-2003" d="M -30.229,12.04 L -30.214,12.04" />
    <path id="pi-2004" d="M -30.243,12.026 L -30.243,11.368" />
    <path id="pi-2005" d="M -30.22,12.43 L -29.761,12.263" />
    <path id="pi-2006" d="M -29.706,12.243 L -29.706,12.243" />
    <path id="pi-2007" d="M -30.282,12.453 L -30.282,12.453" />
    <path id="pi-2008" d="M -30.147,12.404 L -29.84,12.292" />
    <path id="pi-2009" d="M -30.282,12.453 L -30.282,12.453" />
    <path id="pi-2010" d="M -30.282,12.453 L -30.282,12.453" />
    <path id="pi-2011" d="M -30.244,12.439 L -29.914,12.319" />
    <path id="pi-2012" d="M -29.877,12.305 L -29.877,12.305" />
    <path id="pi-2013" d="M -30.213,10.963 L -30.248,10.963" />
    <path id="pi-2014" d="M -30.282,12.361 L -30.282,10.997" />
    <path id="pi-2015" d="M -30.282,12.453 L -30.282,12.453" />
    <path id="pi-2016" d="M -30.282,12.453 L -30.282,12.453" />
    <path id="pi-2017" d="M -30.282,12.453 L -30.281,12.454" />
    <path id="pi-2018" d="M -30.282,12.453 L -30.282,12.453" />
    <path id="pi-2019" d="M -30.281,12.383 L -30.281,12.345" />
    <path id="pi-2020" d="M -30.281,12.275 L -30.281,12.275" />
    <path id="pi-2021" d="M -19.145,12.275 L -15.956,12.275" />
    <path id="pi-2022" d="M -15.813,12.275 L -15.813,12.275" />
    <path id="pi-2023" d="M 17.744,12.275 L 17.967,12.275" />
    <path id="pi-2024" d="M 4.044,12.275 L 7.808,12.275" />
    <path id="pi-2025" d="M -16.036,12.275 L -16.201,12.275" />
    <path id="pi-2026" d="M -11.458,12.275 L -5.769,12.275" />
    <path id="pi-2027" d="M -19.745,12.275 L -19.398,12.275" />
    <path id="pi-2028" d="M 8.402,12.275 L 9.154,12.275" />
    <path id="pi-2029" d="M 11.488,12.275 L 9.748,12.275" />
    <path id="pi-2030" d="M 9.903,5.29 L 9.604,5.29" />
    <path id="pi-2031" d="M 13.214,5.639 L 13.214,5.639" />
    <path id="pi-2032" d="M 13.214,5.639 L 13.214,5.639" />
    <path id="pi-2033" d="M 9.36,5.29 L 6.839,5.323" />
    <path id="pi-2034" d="M 6.064,6.039 L 6.064,6.039" />
    <path id="pi-2035" d="M 6.064,6.117 L 6.064,6.637" />
    <path id="pi-2036" d="M 7.893,6.715 L 7.403,6.715" />
    <path id="pi-2037" d="M 7.971,6.715 L 7.971,6.715" />
    <path id="pi-2038" d="M 8.731,6.715 L 8.025,6.715" />
    <path id="pi-2039" d="M 8.809,6.715 L 8.809,6.715" />
    <path id="pi-2040" d="M 8.863,6.715 L 9.968,6.715" />
    <path id="pi-2041" d="M 8.809,6.637 L 8.809,6.593" />
    <path id="pi-2042" d="M 7.971,6.637 L 7.971,6.593" />
    <path id="pi-2043" d="M 5.972,5.925 L 5.986,5.925" />
    <path id="pi-2044" d="M 6.142,6.715 L 7.025,6.715" />
    <path id="pi-2045" d="M 7.296,6.715 L 7.131,6.715" />
    <path id="pi-2046" d="M -11.414,5.166 L -11.414,5.166" />
    <path id="pi-2047" d="M -11.421,5.023 L -11.458,4.319" />
    <path id="pi-2048" d="M -11.465,4.177 L -11.465,4.177" />
    <path id="pi-2049" d="M -11.414,5.166 L -11.414,5.166" />
    <path id="pi-2050" d="M -11.923,2.745 L -9.188,2.745" />
    <path id="pi-2051" d="M -12.001,2.745 L -12.001,2.745" />
    <path id="pi-2052" d="M -9.111,3.808 L -9.111,5.559" />
    <path id="pi-2053" d="M -9.111,3.731 L -9.111,3.731" />
    <path id="pi-2054" d="M -9.111,2.823 L -9.111,3.677" />
    <path id="pi-2055" d="M -9.442,5.637 L -9.442,5.637" />
    <path id="pi-2056" d="M -9.188,5.637 L -9.365,5.637" />
    <path id="pi-2057" d="M -11.274,5.637 L -9.496,5.637" />
    <path id="pi-2058" d="M 20.169,-1.854 L 20.169,-1.854" />
    <path id="pi-2059" d="M 20.158,-1.712 L 20.105,-1.035" />
    <path id="pi-2060" d="M 20.094,-0.892 L 20.094,-0.892" />
    <path id="pi-2061" d="M 17.65,-0.429 L 17.661,-0.429" />
    <path id="pi-2062" d="M 17.573,-0.506 L 17.573,-2.257" />
    <path id="pi-2063" d="M 17.573,-0.429 L 17.573,-0.429" />
    <path id="pi-2064" d="M 18.021,-2.335 L 18.021,-2.335" />
    <path id="pi-2065" d="M 18.099,-2.335 L 20.317,-2.335" />
    <path id="pi-2066" d="M 17.65,-2.335 L 17.967,-2.335" />
    <path id="pi-2067" d="M 20.904,-2.195 L 20.655,-0.308" />
    <path id="pi-2068" d="M 20.796,-2.295 L 20.838,-2.287" />
    <path id="pi-2069" d="M 20.169,-1.854 L 20.169,-1.854" />
    <path id="pi-2070" d="M 6.87,-2.032 L 6.87,-2.032" />
    <path id="pi-2071" d="M 6.727,-2.029 L 4.245,-1.981" />
    <path id="pi-2072" d="M 4.102,-1.978 L 4.102,-1.978" />
    <path id="pi-2073" d="M 3.517,-2.986 L 3.517,-1.802" />
    <path id="pi-2074" d="M 4.101,-1.978 L 4.102,-1.978" />
    <path id="pi-2075" d="M 4.101,-2.121 L 4.101,-2.658" />
    <path id="pi-2076" d="M 4.031,-2.829 L 3.778,-3.081" />
    <path id="pi-2077" d="M -1.876,12.275 L 3.295,12.275" />
    <path id="pi-2078" d="M -1.358,-2.032 L -1.358,-2.032" />
    <path id="pi-2079" d="M -1.501,-2.033 L -3.604,-2.053" />
    <path id="pi-2080" d="M -3.746,-2.054 L -3.746,-2.054" />
    <path id="pi-2081" d="M -9.387,-2.032 L -9.387,-2.032" />
    <path id="pi-2082" d="M -11.941,-1.982 L -12.011,-1.981" />
    <path id="pi-2083" d="M -12.154,-1.978 L -12.154,-1.978" />
    <path id="pi-2084" d="M -11.197,-3.248 L -11.197,-3.262" />
    <path id="pi-2085" d="M -11.835,-2.127 L -11.835,-2.288" />
    <path id="pi-2086" d="M -12.648,-2.331 L -12.308,-2.599" />
    <path id="pi-2087" d="M -12.709,-2.283 L -12.709,-2.283" />
    <path id="pi-2088" d="M -12.497,-3.228 L -12.207,-2.86" />
    <path id="pi-2089" d="M -11.897,-2.467 L -12.056,-2.668" />
    <path id="pi-2090" d="M -9.53,-2.029 L -11.692,-1.987" />
    <path id="pi-2091" d="M -8.893,-2.546 L -8.893,-2.546" />
    <path id="pi-2092" d="M -8.893,-2.624 L -8.893,-3.262" />
    <path id="pi-2093" d="M -8.971,-3.34 L -10.302,-3.34" />
    <path id="pi-2094" d="M -10.356,-3.34 L -10.356,-3.34" />
    <path id="pi-2095" d="M -11.197,-3.34 L -11.197,-3.34" />
    <path id="pi-2096" d="M -2.387,-3.38 L -3.093,-3.38" />
    <path id="pi-2097" d="M -3.226,-3.38 L -3.937,-3.38" />
    <path id="pi-2098" d="M -0.632,-2.584 L -0.692,-2.584" />
    <path id="pi-2099" d="M -0.77,-2.584 L -0.77,-2.584" />
    <path id="pi-2100" d="M -0.769,-2.662 L -0.769,-2.743" />
    <path id="pi-2101" d="M -0.81,-2.841 L -1.309,-3.339" />
    <path id="pi-2102" d="M -1.406,-3.38 L -2.255,-3.38" />
    <path id="pi-2103" d="M -2.31,-3.38 L -2.31,-3.38" />
    <path id="pi-2104" d="M -3.148,-3.38 L -3.148,-3.38" />
    <path id="pi-2105" d="M 5.106,-3.341 L 5.821,-3.34" />
    <path id="pi-2106" d="M 3.872,-3.341 L 4.974,-3.341" />
    <path id="pi-2107" d="M 5.899,-3.34 L 5.899,-3.34" />
    <path id="pi-2108" d="M 5.051,-3.341 L 5.051,-3.341" />
    <path id="pi-2109" d="M 7.591,-2.546 L 7.557,-2.546" />
    <path id="pi-2110" d="M 7.479,-2.546 L 7.479,-2.546" />
    <path id="pi-2111" d="M 7.479,-2.624 L 7.479,-2.701" />
    <path id="pi-2112" d="M 7.438,-2.798 L 6.936,-3.3" />
    <path id="pi-2113" d="M 6.839,-3.34 L 5.953,-3.34" />
    <path id="pi-2114" d="M 5.051,-3.248 L 5.051,-3.263" />
    <path id="pi-2115" d="M 5.899,-3.248 L 5.899,-3.263" />
    <path id="pi-2116" d="M 14.622,12.275 L 17.15,12.275" />
    <path id="pi-2117" d="M 18.738,10.159 L 18.738,10.159" />
    <path id="pi-2118" d="M 18.284,11.175 L 18.132,11.155" />
    <path id="pi-2119" d="M 18.641,10.901 L 18.674,10.648" />
    <path id="pi-2120" d="M 18.524,11.786 L 18.564,11.486" />
    <path id="pi-2121" d="M -29.706,12.243 L -29.706,12.243" />
    <path id="pi-2122" d="M -29.012,12.275 L -30.138,12.275" />
    <path id="pi-2123" d="M -29.229,12.243 L -29.229,12.243" />
    <path id="pi-2124" d="M -29.614,12.243 L -29.262,12.243" />
    <path id="pi-2125" d="M -22.856,12.275 L -28.759,12.275" />
    <path id="pi-2126" d="M -19.998,12.275 L -22.603,12.275" />
    <path id="pi-2127" d="M -11.935,12.275 L -15.559,12.275" />
    <path id="pi-2128" d="M -12.709,-1.362 L -12.709,-2.205" />
    <path id="pi-2129" d="M -3.848,-2.055 L -4.035,-2.055" />
    <path id="pi-2130" d="M -4.178,-3.235 L -4.178,-2.198" />
    <path id="pi-2131" d="M -4.301,-1.443 L -4.301,-1.486" />
    <path id="pi-2132" d="M -4.178,-1.903 L -4.178,-1.954" />
    <path id="pi-2133" d="M -8.665,-2.546 L -8.815,-2.546" />
    <path id="pi-2134" d="M -10.358,-3.235 L -10.357,-3.262" />
    <path id="pi-2135" d="M -3.148,-3.302 L -3.148,-3.286" />
    <path id="pi-2136" d="M -2.31,-3.286 L -2.31,-3.302" />
    <path id="pi-2137" d="M -9.188,3.731 L -9.204,3.731" />
    <path id="pi-2138" d="M -9.442,5.731 L -9.442,5.715" />
    <path id="pi-2139" d="M -12.001,3.182 L -12.001,2.823" />
    <path id="pi-2140" d="M 14.027,12.275 L 12.082,12.275" />
    <path id="pi-2141" d="M 13.214,5.639 L 13.214,5.639" />
    <path id="pi-2142" d="M 18.021,-2.413 L 18.021,-2.429" />
    <path id="pi-2143" d="M 17.657,-0.53 L 17.661,-0.53" />
    <path id="pi-2144" d="M 18.123,-2.405 L 18.123,-2.429" />
    <path id="pi-2145" d="M 20.144,-0.392 L 20.144,-0.429" />
    <path id="pi-2146" d="M 20.043,-0.392 L 20.043,-0.429" />
    <path id="pi-2147" d="M 17.643,0.11 L 17.643,-0.005" />
    <path id="pi-2148" d="M 17.643,-0.53 L 17.643,-0.53" />
    <path id="pi-2149" d="M 17.43,0.124 L 17.628,0.124" />
    <path id="pi-2150" d="M 18.137,-2.391 L 20.837,-2.391" />
    <path id="pi-2151" d="M 20.851,-2.376 L 20.851,-2.229" />
    <path id="pi-2152" d="M 20.778,-1.671 L 20.851,-2.227" />
    <path id="pi-2153" d="M 20.584,0.124 L 20.341,0.124" />
    <path id="pi-2154" d="M 20.327,0.124 L 20.327,0.124" />
    <path id="pi-2155" d="M 20.313,0.124 L 17.43,0.124" />
    <path id="pi-2156" d="M 17.416,0.124 L 17.416,0.124" />
    <path id="pi-2157" d="M 20.043,-0.378 L 20.043,-0.378" />
    <path id="pi-2158" d="M 20.593,-0.378 L 20.159,-0.378" />
    <path id="pi-2159" d="M 20.607,-0.378 L 20.607,-0.378" />
    <path id="pi-2160" d="M 20.598,0.124 L 20.598,0.124" />
    <path id="pi-2161" d="M 20.598,0.124 L 20.598,0.124" />
    <path id="pi-2162" d="M 20.647,0.09 L 20.647,0.09" />
    <path id="pi-2163" d="M 20.636,0.098 L 20.615,0.113" />
    <path id="pi-2164" d="M 17.92,-2.391 L 17.92,-2.391" />
    <path id="pi-2165" d="M 17.92,-2.405 L 17.92,-2.429" />
    <path id="pi-2166" d="M 20.887,-2.376 L 20.887,-1.731" />
    <path id="pi-2167" d="M 17.934,-2.391 L 20.873,-2.391" />
    <path id="pi-2168" d="M 17.401,-0.025 L 17.401,-0.025" />
    <path id="pi-2169" d="M 17.415,-0.025 L 17.622,-0.025" />
    <path id="pi-2170" d="M 17.643,-0.046 L 17.643,-0.516" />
    <path id="pi-2171" d="M 10.025,2.616 L 2.346,2.616" />
    <path id="pi-2172" d="M 2.326,2.637 L 2.326,3.953" />
    <path id="pi-2173" d="M 2.326,3.974 L 2.326,3.974" />
    <path id="pi-2174" d="M 2.326,3.953 L 2.326,-7.268" />
    <path id="pi-2175" d="M 2.346,-7.289 L 11.266,-7.289" />
    <path id="pi-2176" d="M 11.287,-8.758 L 11.287,-7.31" />
    <path id="pi-2177" d="M 6.59,0.448 L 6.59,-1.34" />
    <path id="pi-2178" d="M 13.265,4.64 L 13.265,4.696" />
    <path id="pi-2179" d="M 13.265,4.71 L 13.265,4.71" />
    <path id="pi-2180" d="M 13.265,4.724 L 13.265,5.442" />
    <path id="pi-2181" d="M 15.456,3.629 L 15.518,3.629" />
    <path id="pi-2182" d="M 15.715,3.662 L 15.715,3.662" />
    <path id="pi-2183" d="M 15.7,3.662 L 15.546,3.662" />
    <path id="pi-2184" d="M 12.646,3.196 L 12.646,3.196" />
    <path id="pi-2185" d="M 12.646,2.805 L 12.646,3.181" />
    <path id="pi-2186" d="M 15.518,2.745 L 12.706,2.745" />
    <path id="pi-2187" d="M 15.532,3.268 L 15.532,2.759" />
    <path id="pi-2188" d="M 12.706,4.963 L 12.657,4.963" />
    <path id="pi-2189" d="M 12.643,4.963 L 12.643,4.963" />
    <path id="pi-2190" d="M 12.643,4.977 L 12.643,5.448" />
    <path id="pi-2191" d="M 12.657,5.462 L 13.245,5.462" />
    <path id="pi-2192" d="M 20.606,0.065 L 20.606,0.065" />
    <path id="pi-2193" d="M 20.592,0.065 L 20.341,0.065" />
    <path id="pi-2194" d="M 20.327,0.065 L 20.327,0.065" />
    <path id="pi-2195" d="M 20.313,0.065 L 17.563,0.065" />
    <path id="pi-2196" d="M 17.549,0.065 L 17.549,0.065" />
    <path id="pi-2197" d="M 17.563,-0.327 L 17.661,-0.327" />
    <path id="pi-2198" d="M 17.549,-0.313 L 17.549,-0.198" />
    <path id="pi-2199" d="M 17.401,-0.178 L 17.401,-0.178" />
    <path id="pi-2200" d="M 17.415,-0.178 L 17.528,-0.178" />
    <path id="pi-2201" d="M 17.422,0.241 L 17.422,0.241" />
    <path id="pi-2202" d="M 17.422,0.241 L 17.422,0.241" />
    <path id="pi-2203" d="M 17.443,0.241 L 17.528,0.241" />
    <path id="pi-2204" d="M 17.549,0.241 L 17.549,0.241" />
    <path id="pi-2205" d="M 17.549,0.221 L 17.549,0.086" />
    <path id="pi-2206" d="M 17.549,0.065 L 17.549,0.065" />
    <path id="pi-2207" d="M 10.046,4.712 L 10.046,5.049" />
    <path id="pi-2208" d="M 6.054,5.823 L 5.972,5.823" />
    <path id="pi-2209" d="M 6.047,6.026 L 5.972,6.026" />
    <path id="pi-2210" d="M 7.448,6.094 L 7.448,6.672" />
    <path id="pi-2211" d="M 7.849,6.686 L 7.588,6.686" />
    <path id="pi-2212" d="M 6.068,5.844 L 6.068,6.014" />
    <path id="pi-2213" d="M 6.072,6.024 L 6.123,6.076" />
    <path id="pi-2214" d="M 6.768,6.08 L 7.46,6.08" />
    <path id="pi-2215" d="M 7.474,6.094 L 7.474,6.645" />
    <path id="pi-2216" d="M 6.068,5.823 L 6.068,5.823" />
    <path id="pi-2217" d="M 6.068,4.667 L 6.068,5.802" />
    <path id="pi-2218" d="M 7.488,6.659 L 7.561,6.659" />
    <path id="pi-2219" d="M 7.575,6.659 L 7.575,6.659" />
    <path id="pi-2220" d="M 8.072,6.645 L 8.072,6.593" />
    <path id="pi-2221" d="M 8.072,6.659 L 8.072,6.659" />
    <path id="pi-2222" d="M 7.59,6.659 L 8.052,6.659" />
    <path id="pi-2223" d="M 8.911,6.645 L 8.911,6.593" />
    <path id="pi-2224" d="M 8.911,6.659 L 8.911,6.659" />
    <path id="pi-2225" d="M 8.093,6.659 L 8.89,6.659" />
    <path id="pi-2226" d="M 7.56,6.686 L 7.463,6.686" />
    <path id="pi-2227" d="M 7.574,6.686 L 7.574,6.686" />
    <path id="pi-2228" d="M 7.869,6.672 L 7.869,6.593" />
    <path id="pi-2229" d="M 7.869,6.686 L 7.869,6.686" />
    <path id="pi-2230" d="M 8.687,6.686 L 7.89,6.686" />
    <path id="pi-2231" d="M 8.707,6.672 L 8.707,6.593" />
    <path id="pi-2232" d="M 8.707,6.686 L 8.707,6.686" />
    <path id="pi-2233" d="M 8.728,6.686 L 10.082,6.686" />
    <path id="pi-2234" d="M 8.931,6.659 L 10.082,6.659" />
    <path id="pi-2235" d="M 10.097,6.645 L 10.097,5.607" />
    <path id="pi-2236" d="M 10.097,6.672 L 10.097,5.659" />
    <path id="pi-2237" d="M 10.097,5.645 L 10.097,5.645" />
    <path id="pi-2238" d="M 10.097,5.631 L 10.097,4.72" />
    <path id="pi-2239" d="M 10.097,4.705 L 10.097,4.705" />
    <path id="pi-2240" d="M 10.096,5.593 L 10.097,5.593" />
    <path id="pi-2241" d="M 10.097,5.578 L 10.097,4.769" />
    <path id="pi-2242" d="M 10.097,4.754 L 10.097,4.754" />
    <path id="pi-2243" d="M 10.097,4.691 L 10.097,4.553" />
    <path id="pi-2244" d="M 10.097,4.74 L 10.097,4.493" />
    <path id="pi-2245" d="M 10.097,4.478 L 10.097,4.478" />
    <path id="pi-2246" d="M 10.046,4.478 L 10.046,4.478" />
    <path id="pi-2247" d="M 10.05,4.478 L 10.092,4.478" />
    <path id="pi-2248" d="M 10.082,4.539 L 10.06,4.539" />
    <path id="pi-2249" d="M 10.046,4.539 L 10.046,4.539" />
    <path id="pi-2250" d="M 10.082,5.493 L 9.969,5.493" />
    <path id="pi-2251" d="M 10.097,5.508 L 10.097,5.572" />
    <path id="pi-2252" d="M 10.097,5.593 L 10.096,5.593" />
    <path id="pi-2253" d="M 6.645,6.009 L 6.644,5.94" />
    <path id="pi-2254" d="M 6.645,6.023 L 6.645,6.023" />
    <path id="pi-2255" d="M 6.666,6.08 L 7.434,6.08" />
    <path id="pi-2256" d="M 6.747,6.066 L 6.746,5.94" />
    <path id="pi-2257" d="M 6.747,6.08 L 6.747,6.08" />
    <path id="pi-2258" d="M 6.134,6.08 L 6.726,6.08" />
    <path id="pi-2259" d="M 6.082,6.08 L 6.625,6.08" />
    <path id="pi-2260" d="M 6.645,6.059 L 6.645,6.037" />
    <path id="pi-2261" d="M 6.52,4.501 L 6.52,4.501" />
    <path id="pi-2262" d="M 6.068,6.006 L 6.068,5.928" />
    <path id="pi-2263" d="M 6.068,5.899 L 6.068,4.64" />
    <path id="pi-2264" d="M 6.068,5.913 L 6.068,5.913" />
    <path id="pi-2265" d="M 6.082,4.626 L 6.285,4.626" />
    <path id="pi-2266" d="M 6.299,4.626 L 6.299,4.626" />
    <path id="pi-2267" d="M 6.299,4.612 L 6.299,4.515" />
    <path id="pi-2268" d="M 6.52,4.522 L 6.52,4.531" />
    <path id="pi-2269" d="M 6.52,4.653 L 6.52,4.653" />
    <path id="pi-2270" d="M 6.068,4.653 L 6.068,4.653" />
    <path id="pi-2271" d="M 6.52,4.551 L 6.52,4.551" />
    <path id="pi-2272" d="M 6.52,4.551 L 6.52,4.551" />
    <path id="pi-2273" d="M 6.52,4.572 L 6.52,4.632" />
    <path id="pi-2274" d="M 6.52,4.551 L 6.52,4.551" />
    <path id="pi-2275" d="M 6.082,4.653 L 6.506,4.653" />
    <path id="pi-2276" d="M 6.52,4.632 L 6.52,4.578" />
    <path id="pi-2277" d="M 10.046,2.637 L 10.046,4.632" />
    <path id="pi-2278" d="M 10.025,4.653 L 6.866,4.653" />
    <path id="pi-2279" d="M 6.845,4.653 L 6.845,4.653" />
    <path id="pi-2280" d="M 6.825,4.653 L 6.54,4.653" />
    <path id="pi-2281" d="M -9.3,-1.208 L -9.3,-1.208" />
    <path id="pi-2282" d="M -9.148,-1.208 L -9.148,-1.208" />
    <path id="pi-2283" d="M -8.757,-2.669 L -8.757,-2.719" />
    <path id="pi-2284" d="M -9.357,-2.734 L -9.811,-2.734" />
    <path id="pi-2285" d="M -8.665,-2.648 L -8.742,-2.648" />
    <path id="pi-2286" d="M -8.757,-2.648 L -8.757,-2.648" />
    <path id="pi-2287" d="M -8.757,-1.349 L -8.757,-2.627" />
    <path id="pi-2288" d="M -8.757,-2.424 L -8.757,-1.375" />
    <path id="pi-2289" d="M -9.458,-2.734 L -9.811,-2.734" />
    <path id="pi-2290" d="M -8.665,-2.445 L -8.742,-2.445" />
    <path id="pi-2291" d="M -8.757,-2.445 L -8.757,-2.445" />
    <path id="pi-2292" d="M -8.757,-2.719 L -8.757,-2.465" />
    <path id="pi-2293" d="M -9.825,-2.748 L -9.825,-3.327" />
    <path id="pi-2294" d="M -11.319,-3.342 L -12.236,-3.342" />
    <path id="pi-2295" d="M -9.825,-2.748 L -9.825,-3.327" />
    <path id="pi-2296" d="M -9.438,-2.648 L -9.438,-2.719" />
    <path id="pi-2297" d="M -9.438,-2.734 L -9.438,-2.734" />
    <path id="pi-2298" d="M -8.771,-2.734 L -9.417,-2.734" />
    <path id="pi-2299" d="M -9.336,-2.648 L -9.336,-2.675" />
    <path id="pi-2300" d="M -9.336,-2.689 L -9.336,-2.689" />
    <path id="pi-2301" d="M -8.771,-2.734 L -9.315,-2.734" />
    <path id="pi-2302" d="M -9.336,-2.704 L -9.336,-2.713" />
    <path id="pi-2303" d="M -9.3,-1.222 L -9.3,-1.346" />
    <path id="pi-2304" d="M -9.327,-1.36 L -9.61,-1.36" />
    <path id="pi-2305" d="M -8.771,-1.335 L -9.134,-1.335" />
    <path id="pi-2306" d="M -9.148,-1.335 L -9.148,-1.335" />
    <path id="pi-2307" d="M -9.148,-1.321 L -9.148,-1.222" />
    <path id="pi-2308" d="M -9.3,-1.36 L -9.3,-1.36" />
    <path id="pi-2309" d="M -9.631,-1.233 L -9.631,-1.233" />
    <path id="pi-2310" d="M -9.631,-1.233 L -9.631,-1.233" />
    <path id="pi-2311" d="M -9.631,-1.254 L -9.631,-1.34" />
    <path id="pi-2312" d="M -9.631,-1.34 L -9.631,-1.254" />
    <path id="pi-2313" d="M -12.709,0.477 L -12.709,-1.34" />
    <path id="pi-2314" d="M -12.688,-1.36 L -9.652,-1.36" />
    <path id="pi-2315" d="M -9.631,-1.36 L -9.631,-1.36" />
    <path id="pi-2316" d="M -12.251,-3.269 L -12.251,-3.118" />
    <path id="pi-2317" d="M -10.256,-3.235 L -10.256,-3.327" />
    <path id="pi-2318" d="M -10.256,-3.342 L -10.256,-3.342" />
    <path id="pi-2319" d="M -9.839,-3.342 L -10.236,-3.342" />
    <path id="pi-2320" d="M -11.095,-3.248 L -11.095,-3.327" />
    <path id="pi-2321" d="M -11.095,-3.342 L -11.095,-3.342" />
    <path id="pi-2322" d="M -10.277,-3.342 L -11.074,-3.342" />
    <path id="pi-2323" d="M -11.298,-3.248 L -11.298,-3.327" />
    <path id="pi-2324" d="M -11.298,-3.342 L -11.298,-3.342" />
    <path id="pi-2325" d="M -10.48,-3.342 L -11.278,-3.342" />
    <path id="pi-2326" d="M -10.46,-3.235 L -10.46,-3.327" />
    <path id="pi-2327" d="M -10.46,-3.342 L -10.46,-3.342" />
    <path id="pi-2328" d="M -9.839,-3.342 L -10.439,-3.342" />
    <path id="pi-2329" d="M -8.771,-1.36 L -9.266,-1.36" />
    <path id="pi-2330" d="M -12.782,-1.381 L -12.782,-1.381" />
    <path id="pi-2331" d="M -12.782,-1.341 L -12.782,-1.341" />
    <path id="pi-2332" d="M -12.709,-1.189 L -12.709,-1.189" />
    <path id="pi-2333" d="M -12.723,-1.189 L -12.768,-1.189" />
    <path id="pi-2334" d="M -12.782,-1.203 L -12.782,-1.367" />
    <path id="pi-2335" d="M -12.709,-1.129 L -12.709,-1.129" />
    <path id="pi-2336" d="M -12.723,-1.129 L -12.768,-1.129" />
    <path id="pi-2337" d="M -12.782,-1.143 L -12.782,-1.327" />
    <path id="pi-2338" d="M -12.782,-2.567 L -12.782,-2.202" />
    <path id="pi-2339" d="M -12.662,-2.181 L -12.768,-2.181" />
    <path id="pi-2340" d="M -12.782,-2.181 L -12.782,-2.181" />
    <path id="pi-2341" d="M -12.782,-1.356 L -12.782,-2.161" />
    <path id="pi-2342" d="M -12.782,-2.657 L -12.782,-1.395" />
    <path id="pi-2343" d="M -12.782,-2.671 L -12.782,-2.671" />
    <path id="pi-2344" d="M -12.255,-3.108 L -12.772,-2.591" />
    <path id="pi-2345" d="M -12.782,-2.581 L -12.782,-2.581" />
    <path id="pi-2346" d="M -12.314,-3.327 L -12.314,-3.144" />
    <path id="pi-2347" d="M -12.251,-3.283 L -12.251,-3.283" />
    <path id="pi-2348" d="M -12.251,-3.327 L -12.251,-3.297" />
    <path id="pi-2349" d="M -12.251,-3.342 L -12.251,-3.342" />
    <path id="pi-2350" d="M -11.116,-3.342 L -12.176,-3.342" />
    <path id="pi-2351" d="M -12.19,-3.342 L -12.19,-3.342" />
    <path id="pi-2352" d="M -12.205,-3.342 L -12.3,-3.342" />
    <path id="pi-2353" d="M -9.176,3.629 L -9.204,3.629" />
    <path id="pi-2354" d="M -9.204,3.832 L -9.169,3.832" />
    <path id="pi-2355" d="M -9.341,5.731 L -9.341,5.666" />
    <path id="pi-2356" d="M -9.544,5.731 L -9.544,5.637" />
    <path id="pi-2357" d="M -8.93,3.389 L -8.93,3.389" />
    <path id="pi-2358" d="M -8.93,3.237 L -8.93,3.237" />
    <path id="pi-2359" d="M -9.155,3.646 L -9.155,3.41" />
    <path id="pi-2360" d="M -9.155,3.389 L -9.155,3.389" />
    <path id="pi-2361" d="M -8.95,3.389 L -9.134,3.389" />
    <path id="pi-2362" d="M -8.969,3.667 L -8.969,3.667" />
    <path id="pi-2363" d="M -8.969,3.667 L -8.969,3.667" />
    <path id="pi-2364" d="M -8.99,3.667 L -9.144,3.667" />
    <path id="pi-2365" d="M -8.99,3.667 L -9.134,3.667" />
    <path id="pi-2366" d="M -9.155,3.355 L -9.155,3.302" />
    <path id="pi-2367" d="M -9.155,3.389 L -9.155,3.389" />
    <path id="pi-2368" d="M -9.155,3.288 L -9.155,3.288" />
    <path id="pi-2369" d="M -9.155,3.267 L -9.155,2.772" />
    <path id="pi-2370" d="M -9.155,3.216 L -9.155,2.772" />
    <path id="pi-2371" d="M -9.155,3.832 L -9.155,3.832" />
    <path id="pi-2372" d="M -8.944,3.237 L -9.093,3.237" />
    <path id="pi-2373" d="M -9.107,3.237 L -9.107,3.237" />
    <path id="pi-2374" d="M -9.134,3.237 L -9.122,3.237" />
    <path id="pi-2375" d="M -9.155,3.812 L -9.155,3.258" />
    <path id="pi-2376" d="M -11.536,2.757 L -11.986,2.757" />
    <path id="pi-2377" d="M -12.015,3.355 L -12.051,3.355" />
    <path id="pi-2378" d="M -12.001,3.355 L -12.001,3.355" />
    <path id="pi-2379" d="M -12.001,3.401 L -12.001,2.772" />
    <path id="pi-2380" d="M -11.435,2.757 L -12.051,2.757" />
    <path id="pi-2381" d="M -12.065,2.757 L -12.065,2.757" />
    <path id="pi-2382" d="M -12.065,2.772 L -12.065,3.341" />
    <path id="pi-2383" d="M -11.414,3.713 L -11.414,3.672" />
    <path id="pi-2384" d="M -11.414,3.643 L -11.414,2.731" />
    <path id="pi-2385" d="M -11.414,3.658 L -11.414,3.658" />
    <path id="pi-2386" d="M -11.516,3.713 L -11.516,3.672" />
    <path id="pi-2387" d="M -11.516,3.643 L -11.516,2.731" />
    <path id="pi-2388" d="M -11.516,3.658 L -11.516,3.658" />
    <path id="pi-2389" d="M -11.516,2.716 L -11.516,2.716" />
    <path id="pi-2390" d="M -11.414,2.716 L -11.414,2.716" />
    <path id="pi-2391" d="M -11.516,2.737 L -11.516,2.731" />
    <path id="pi-2392" d="M -11.414,2.737 L -11.414,2.731" />
    <path id="pi-2393" d="M -9.169,2.757 L -11.393,2.757" />
    <path id="pi-2394" d="M -9.169,2.757 L -11.495,2.757" />
    <path id="pi-2395" d="M -12.021,3.416 L -12.05,3.416" />
    <path id="pi-2396" d="M -12.001,3.416 L -12.001,3.416" />
    <path id="pi-2397" d="M -12.001,3.416 L -12.001,3.416" />
    <path id="pi-2398" d="M -12.064,4.948 L -12.064,3.43" />
    <path id="pi-2399" d="M -11.922,4.963 L -12.05,4.963" />
    <path id="pi-2400" d="M -12.064,4.963 L -12.064,4.963" />
    <path id="pi-2401" d="M -9.53,5.623 L -9.139,5.623" />
    <path id="pi-2402" d="M -9.125,5.623 L -9.125,5.623" />
    <path id="pi-2403" d="M -9.125,5.609 L -9.125,4.154" />
    <path id="pi-2404" d="M -9.327,5.652 L -9.111,5.652" />
    <path id="pi-2405" d="M -9.096,5.652 L -9.096,5.652" />
    <path id="pi-2406" d="M -9.096,5.637 L -9.096,4.154" />
    <path id="pi-2407" d="M -9.096,4.14 L -9.096,4.14" />
    <path id="pi-2408" d="M -9.125,4.14 L -9.125,4.14" />
    <path id="pi-2409" d="M -9.155,3.853 L -9.155,3.974" />
    <path id="pi-2410" d="M -9.155,3.65 L -9.155,3.739" />
    <path id="pi-2411" d="M -9.159,3.749 L -9.166,3.756" />
    <path id="pi-2412" d="M -9.176,3.781 L -9.176,3.995" />
    <path id="pi-2413" d="M -9.176,3.766 L -9.176,3.766" />
    <path id="pi-2414" d="M -9.129,4.049 L -9.172,4.005" />
    <path id="pi-2415" d="M -9.151,3.984 L -9.101,4.034" />
    <path id="pi-2416" d="M -9.096,4.045 L -9.096,4.126" />
    <path id="pi-2417" d="M -9.125,4.059 L -9.125,4.126" />
    <path id="pi-2418" d="M -9.155,3.308 L -9.155,3.608" />
    <path id="pi-2419" d="M 13.091,4.583 L 12.905,4.475" />
    <path id="pi-2420" d="M 15.55,5.707 L 15.318,5.707" />
    <path id="pi-2421" d="M 15.303,5.659 L 15.303,5.693" />
    <path id="pi-2422" d="M 15.304,5.477 L 15.303,5.618" />
    <path id="pi-2423" d="M 15.1,5.483 L 15.1,5.625" />
    <path id="pi-2424" d="M -1.854,3.204 L -1.854,3.204" />
    <path id="pi-2425" d="M -1.854,3.346 L -1.854,5.074" />
    <path id="pi-2426" d="M -1.854,5.217 L -1.854,5.217" />
    <path id="pi-2427" d="M -1.492,5.677 L -1.492,5.458" />
    <path id="pi-2428" d="M -3.067,-3.378 L -3.986,-3.378" />
    <path id="pi-2429" d="M -4.301,-3.063 L -4.301,-1.284" />
    <path id="pi-2430" d="M -3.046,-3.286 L -3.046,-3.364" />
    <path id="pi-2431" d="M -3.046,-3.378 L -3.046,-3.378" />
    <path id="pi-2432" d="M -2.187,-3.378 L -0.738,-3.378" />
    <path id="pi-2433" d="M -0.724,-2.768 L -0.724,-2.707" />
    <path id="pi-2434" d="M -2.208,-3.286 L -2.208,-3.364" />
    <path id="pi-2435" d="M -2.208,-3.378 L -2.208,-3.378" />
    <path id="pi-2436" d="M -3.026,-3.378 L -2.229,-3.378" />
    <path id="pi-2437" d="M -0.632,-2.686 L -0.71,-2.686" />
    <path id="pi-2438" d="M -0.724,-2.686 L -0.724,-2.686" />
    <path id="pi-2439" d="M -4.301,-1.27 L -4.301,-1.27" />
    <path id="pi-2440" d="M -4.011,-3.368 L -4.291,-3.088" />
    <path id="pi-2441" d="M -4.001,-3.378 L -4.001,-3.378" />
    <path id="pi-2442" d="M -4.301,-3.078 L -4.301,-3.078" />
    <path id="pi-2443" d="M -4.301,-1.21 L -4.301,-1.21" />
    <path id="pi-2444" d="M -4.301,-2.278 L -4.301,-2.999" />
    <path id="pi-2445" d="M -2.411,-3.286 L -2.411,-3.31" />
    <path id="pi-2446" d="M -3.947,-3.378 L -3.947,-3.378" />
    <path id="pi-2447" d="M -0.724,-2.768 L -0.724,-2.503" />
    <path id="pi-2448" d="M -3.249,-3.315 L -3.249,-3.286" />
    <path id="pi-2449" d="M -2.391,-3.378 L -0.738,-3.378" />
    <path id="pi-2450" d="M -3.249,-3.358 L -3.249,-3.343" />
    <path id="pi-2451" d="M -3.932,-3.378 L -3.27,-3.378" />
    <path id="pi-2452" d="M -3.249,-3.329 L -3.249,-3.329" />
    <path id="pi-2453" d="M -2.411,-3.358 L -2.411,-3.339" />
    <path id="pi-2454" d="M -2.411,-3.324 L -2.411,-3.324" />
    <path id="pi-2455" d="M -3.229,-3.378 L -2.432,-3.378" />
    <path id="pi-2456" d="M -3.951,-3.32 L -4.254,-3.017" />
    <path id="pi-2457" d="M -3.947,-3.33 L -3.947,-3.364" />
    <path id="pi-2458" d="M -4.264,-3.013 L -4.287,-3.013" />
    <path id="pi-2459" d="M -4.301,-3.013 L -4.301,-3.013" />
    <path id="pi-2460" d="M -0.71,-2.483 L -0.632,-2.483" />
    <path id="pi-2461" d="M -0.724,-2.483 L -0.724,-2.483" />
    <path id="pi-2462" d="M -4.254,-2.257 L -4.287,-2.257" />
    <path id="pi-2463" d="M -4.301,-2.257 L -4.301,-2.257" />
    <path id="pi-2464" d="M -4.301,-1.224 L -4.301,-2.237" />
    <path id="pi-2465" d="M -1.335,-1.208 L -1.335,-1.208" />
    <path id="pi-2466" d="M -0.724,-2.665 L -0.724,-2.589" />
    <path id="pi-2467" d="M -0.728,-2.579 L -0.742,-2.564" />
    <path id="pi-2468" d="M -0.747,-2.554 L -0.747,-1.406" />
    <path id="pi-2469" d="M -0.724,-2.462 L -0.724,-1.375" />
    <path id="pi-2470" d="M -0.738,-1.36 L -0.989,-1.36" />
    <path id="pi-2471" d="M -1.003,-1.36 L -1.003,-1.36" />
    <path id="pi-2472" d="M -1.003,-1.36 L -1.003,-1.36" />
    <path id="pi-2473" d="M -1.183,-1.208 L -1.183,-1.208" />
    <path id="pi-2474" d="M -1.183,-1.222 L -1.183,-1.377" />
    <path id="pi-2475" d="M -1.183,-1.392 L -1.183,-1.392" />
    <path id="pi-2476" d="M -1.168,-1.392 L -0.761,-1.392" />
    <path id="pi-2477" d="M -1.335,-1.222 L -1.335,-1.346" />
    <path id="pi-2478" d="M -1.037,-1.36 L -1.321,-1.36" />
    <path id="pi-2479" d="M -1.003,-1.36 L -1.003,-1.36" />
    <path id="pi-2480" d="M -1.335,-1.36 L -1.335,-1.36" />
    <path id="pi-2481" d="M -1.024,-1.36 L -1.472,-1.36" />
    <path id="pi-2482" d="M -1.307,-2.699 L -1.307,-2.699" />
    <path id="pi-2483" d="M -1.221,-2.784 L -1.297,-2.709" />
    <path id="pi-2484" d="M -1.307,-2.648 L -1.307,-2.684" />
    <path id="pi-2485" d="M -0.745,-2.789 L -1.211,-2.789" />
    <path id="pi-2486" d="M -1.409,-2.699 L -1.409,-2.699" />
    <path id="pi-2487" d="M -1.323,-2.784 L -1.398,-2.709" />
    <path id="pi-2488" d="M -0.745,-2.789 L -1.313,-2.789" />
    <path id="pi-2489" d="M -1.409,-2.648 L -1.409,-2.684" />
    <path id="pi-2490" d="M -0.724,-3.364 L -0.724,-2.809" />
    <path id="pi-2491" d="M -0.724,-3.364 L -0.724,-2.809" />
    <path id="pi-2492" d="M 6.068,6.066 L 6.068,6.047" />
    <path id="pi-2493" d="M 6.367,4.501 L 6.367,4.501" />
    <path id="pi-2494" d="M 6.353,4.501 L 6.313,4.501" />
    <path id="pi-2495" d="M 20.677,-1.651 L 20.761,-1.651" />
    <path id="pi-2496" d="M 20.775,-1.651 L 20.775,-1.651" />
    <path id="pi-2497" d="M 20.609,-0.392 L 20.772,-1.631" />
    <path id="pi-2498" d="M 20.887,-1.729 L 20.685,-0.194" />
    <path id="pi-2499" d="M 20.057,-0.378 L 20.464,-0.378" />
    <path id="pi-2500" d="M 20.478,-0.378 L 20.478,-0.378" />
    <path id="pi-2501" d="M 20.668,-0.189 L 20.488,-0.368" />
    <path id="pi-2502" d="M 20.68,-0.153 L 20.649,0.076" />
    <path id="pi-2503" d="M 6.909,-1.208 L 6.909,-1.208" />
    <path id="pi-2504" d="M 6.59,-1.36 L 6.59,-1.36" />
    <path id="pi-2505" d="M 6.611,-1.36 L 6.888,-1.36" />
    <path id="pi-2506" d="M 7.061,-1.208 L 7.061,-1.208" />
    <path id="pi-2507" d="M 6.909,-1.222 L 6.909,-1.346" />
    <path id="pi-2508" d="M 7.061,-1.222 L 7.061,-1.346" />
    <path id="pi-2509" d="M 6.59,-1.243 L 6.59,-1.243" />
    <path id="pi-2510" d="M 6.59,-1.243 L 6.59,-1.243" />
    <path id="pi-2511" d="M 6.59,-1.34 L 6.59,-1.264" />
    <path id="pi-2512" d="M 6.59,-1.36 L 6.59,-1.36" />
    <path id="pi-2513" d="M 6.59,-1.34 L 6.59,-1.264" />
    <path id="pi-2514" d="M 6.909,-1.36 L 6.909,-1.36" />
    <path id="pi-2515" d="M 6.943,-1.36 L 7.485,-1.36" />
    <path id="pi-2516" d="M 6.909,-1.36 L 6.909,-1.36" />
    <path id="pi-2517" d="M 7.075,-1.36 L 7.485,-1.36" />
    <path id="pi-2518" d="M 7.061,-1.36 L 7.061,-1.36" />
    <path id="pi-2519" d="M 7.499,-2.669 L 7.499,-2.719" />
    <path id="pi-2520" d="M 7.52,-2.648 L 7.591,-2.648" />
    <path id="pi-2521" d="M 7.499,-2.627 L 7.499,-1.375" />
    <path id="pi-2522" d="M 6.9,-2.734 L 6.445,-2.734" />
    <path id="pi-2523" d="M 6.431,-2.748 L 6.431,-3.326" />
    <path id="pi-2524" d="M 3.878,-3.326 L 3.878,-3.165" />
    <path id="pi-2525" d="M 6,-3.248 L 6,-3.319" />
    <path id="pi-2526" d="M 6.417,-3.34 L 6.021,-3.34" />
    <path id="pi-2527" d="M 5.153,-3.248 L 5.153,-3.319" />
    <path id="pi-2528" d="M 5.132,-3.34 L 3.892,-3.34" />
    <path id="pi-2529" d="M 5.98,-3.34 L 5.174,-3.34" />
    <path id="pi-2530" d="M 6.921,-2.648 L 6.921,-2.719" />
    <path id="pi-2531" d="M 6.921,-2.734 L 6.921,-2.734" />
    <path id="pi-2532" d="M 7.485,-2.734 L 6.941,-2.734" />
    <path id="pi-2533" d="M 7.591,-2.445 L 7.514,-2.445" />
    <path id="pi-2534" d="M 7.499,-1.375 L 7.499,-2.424" />
    <path id="pi-2535" d="M 7.499,-2.445 L 7.499,-2.445" />
    <path id="pi-2536" d="M 3.867,-3.141 L 3.472,-2.746" />
    <path id="pi-2537" d="M 3.878,-3.151 L 3.878,-3.151" />
    <path id="pi-2538" d="M 3.462,-2.722 L 3.462,-1.157" />
    <path id="pi-2539" d="M 3.462,-2.736 L 3.462,-2.736" />
    <path id="pi-2540" d="M 3.53,-1.731 L 3.535,-1.718" />
    <path id="pi-2541" d="M 3.547,-1.647 L 3.547,-1.316" />
    <path id="pi-2542" d="M 3.547,-1.143 L 3.547,-1.143" />
    <path id="pi-2543" d="M 3.533,-1.143 L 3.477,-1.143" />
    <path id="pi-2544" d="M 7.499,-2.465 L 7.499,-2.719" />
    <path id="pi-2545" d="M 6.431,-2.748 L 6.431,-3.34" />
    <path id="pi-2546" d="M 4.95,-3.334 L 4.95,-3.331" />
    <path id="pi-2547" d="M 5.797,-3.334 L 5.797,-3.331" />
    <path id="pi-2548" d="M 4.929,-3.354 L 3.943,-3.354" />
    <path id="pi-2549" d="M 5.776,-3.354 L 4.97,-3.354" />
    <path id="pi-2550" d="M 4.95,-3.248 L 4.95,-3.302" />
    <path id="pi-2551" d="M 4.95,-3.316 L 4.95,-3.316" />
    <path id="pi-2552" d="M 6.417,-3.354 L 5.818,-3.354" />
    <path id="pi-2553" d="M 5.797,-3.248 L 5.797,-3.302" />
    <path id="pi-2554" d="M 5.797,-3.316 L 5.797,-3.316" />
    <path id="pi-2555" d="M 6.819,-2.713 L 6.819,-2.703" />
    <path id="pi-2556" d="M 6.799,-2.734 L 6.445,-2.734" />
    <path id="pi-2557" d="M 7.485,-2.734 L 6.84,-2.734" />
    <path id="pi-2558" d="M 6.819,-2.648 L 6.819,-2.673" />
    <path id="pi-2559" d="M 6.819,-2.689 L 6.819,-2.688" />
    <path id="pi-2560" d="M 3.927,-3.143 L 3.928,-3.34" />
    <path id="pi-2561" d="M 3.917,-3.119 L 3.472,-2.674" />
    <path id="pi-2562" d="M 3.927,-3.129 L 3.927,-3.129" />
    <path id="pi-2563" d="M 3.462,-2.664 L 3.462,-2.664" />
    <path id="pi-2564" d="M 3.462,-2.65 L 3.462,-2.202" />
    <path id="pi-2565" d="M 3.594,-2.181 L 3.483,-2.181" />
    <path id="pi-2566" d="M 3.462,-2.161 L 3.462,-1.097" />
    <path id="pi-2567" d="M 3.462,-1.083 L 3.462,-1.083" />
    <path id="pi-2568" d="M 3.533,-1.083 L 3.477,-1.083" />
    <path id="pi-2569" d="M 3.547,-1.083 L 3.547,-1.083" />
    <path id="pi-2570" d="M -9.012,2.586 L -9.012,3.124" />
    <path id="pi-2571" d="M -9.012,3.129 L -9.159,3.647" />
    <path id="pi-2572" d="M -9.165,3.667 L -9.165,3.667" />
    <path id="pi-2573" d="M -15.269,11.036 L -15.269,11.036" />
    <path id="pi-2574" d="M -15.269,11.008 L -15.269,11.022" />
    <path id="pi-2575" d="M -15.269,10.973 L -15.269,10.973" />
    <path id="pi-2576" d="M -15.269,10.973 L -15.269,10.973" />
    <path id="pi-2577" d="M -4.343,3.79 L -4.189,3.79" />
    <path id="pi-2578" d="M -4.175,3.79 L -4.175,3.79" />
    <path id="pi-2579" d="M -4.175,3.345 L -4.175,3.769" />
    <path id="pi-2580" d="M -4.302,3.307 L -4.302,3.307" />
    <path id="pi-2581" d="M -4.175,3.307 L -4.175,3.307" />
    <path id="pi-2582" d="M -4.196,3.307 L -4.281,3.307" />
    <path id="pi-2583" d="M -4.207,3.307 L -4.196,3.307" />
    <path id="pi-2584" d="M -4.175,3.328 L -4.175,3.617" />
    <path id="pi-2585" d="M -4.234,3.307 L -4.234,3.307" />
    <path id="pi-2586" d="M -4.281,3.307 L -4.261,3.307" />
    <path id="pi-2587" d="M -4.219,3.307 L -4.196,3.307" />
    <path id="pi-2588" d="M -4.175,3.41 L -4.175,3.328" />
    <path id="pi-2589" d="M -4.175,3.637 L -4.175,3.637" />
    <path id="pi-2590" d="M -1.492,3.427 L -1.492,3.523" />
    <path id="pi-2591" d="M -1.438,4.847 L -1.438,4.357" />
    <path id="pi-2592" d="M -1.522,4.274 L -1.522,4.632" />
    <path id="pi-2593" d="M -1.519,4.644 L -1.505,4.678" />
    <path id="pi-2594" d="M -1.492,4.709 L -1.492,4.709" />
    <path id="pi-2595" d="M -1.492,4.742 L -1.492,4.975" />
    <path id="pi-2596" d="M -1.488,3.533 L -1.443,3.579" />
    <path id="pi-2597" d="M -1.438,3.589 L -1.438,3.936" />
    <path id="pi-2598" d="M -1.453,3.972 L -1.512,4.03" />
    <path id="pi-2599" d="M -1.438,3.978 L -1.438,4.295" />
    <path id="pi-2600" d="M -1.438,4.305 L -1.438,4.347" />
    <path id="pi-2601" d="M -1.443,4.18 L -1.512,4.111" />
    <path id="pi-2602" d="M 15.684,3.302 L 15.684,3.302" />
    <path id="pi-2603" d="M 15.664,3.302 L 15.553,3.302" />
    <path id="pi-2604" d="M 15.553,3.302 L 15.664,3.302" />
    <path id="pi-2605" d="M 15.532,3.302 L 15.532,3.302" />
    <path id="pi-2606" d="M 15.532,3.567 L 15.532,3.641" />
    <path id="pi-2607" d="M 15.532,3.662 L 15.532,3.662" />
    <path id="pi-2608" d="M 15.532,3.615 L 15.532,3.554" />
    <path id="pi-2609" d="M 15.532,3.54 L 15.532,3.54" />
    <path id="pi-2610" d="M 15.532,3.329 L 15.532,3.513" />
    <path id="pi-2611" d="M 12.696,2.749 L 12.65,2.794" />
    <path id="pi-2612" d="M 15.532,3.662 L 15.532,3.662" />
    <path id="pi-2613" d="M -1.003,-1.259 L -1.003,-1.259" />
    <path id="pi-2614" d="M -1.003,-1.259 L -1.003,-1.259" />
    <path id="pi-2615" d="M -1.003,-1.28 L -1.003,-1.34" />
    <path id="pi-2616" d="M -1.003,-1.28 L -1.003,-1.34" />
    <path id="pi-2617" d="M -5.292,12.275 L -2.353,12.275" />
    <path id="pi-2618" d="M -12.709,0.901 L -12.709,0.621" />
    <path id="pi-2619" d="M -12.709,1.031 L -12.709,0.916" />
    <path id="pi-2620" d="M -12.709,0.491 L -12.709,0.606" />
    <path id="pi-2621" d="M -12.709,1.045 L -12.709,2.443" />
    <path id="pi-2622" d="M -1.492,-1.34 L -1.492,0.847" />
    <path id="pi-2623" d="M -1.492,0.862 L -1.492,1.028" />
    <path id="pi-2624" d="M 6.59,0.911 L 6.59,0.579" />
    <path id="pi-2625" d="M 6.59,1.042 L 6.59,2.443" />
    <path id="pi-2626" d="M 6.59,0.462 L 6.59,0.565" />
    <path id="pi-2627" d="M 6.59,0.925 L 6.59,1.027" />
    <path id="pi-2628" d="M 1.949,2.565 L -6.011,2.565" />
    <path id="pi-2629" d="M -6.266,2.565 L -6.079,2.565" />
    <path id="pi-2630" d="M -6.319,2.565 L -6.28,2.565" />
    <path id="pi-2631" d="M -6.025,2.565 L -6.064,2.565" />
    <path id="pi-2632" d="M -6.079,2.464 L -6.266,2.464" />
    <path id="pi-2633" d="M 2,2.464 L -6.011,2.464" />
    <path id="pi-2634" d="M -6.025,2.464 L -6.064,2.464" />
    <path id="pi-2635" d="M -6.319,2.464 L -6.28,2.464" />
    <path id="pi-2636" d="M 6.064,6.005 L 6.064,5.959" />
    <path id="pi-2637" d="M -30.282,12.453 L -30.282,12.453" />
    <path id="pi-2638" d="M -4.178,-1.804 L -4.178,-1.744" />
    <path id="pi-2639" d="M -4.233,-1.611 L -4.261,-1.583" />
    <path id="pi-2640" d="M -4.178,-1.666 L -4.178,-1.666" />
    <path id="pi-2641" d="M 6.064,5.925 L 6.064,5.925" />
  </g>
</svg>