<?xml version="1.0" encoding="utf-8"?>
<svg xmlns="http://www.w3.org/2000/svg" viewBox="-34.847 -15.355 57.520 25.488">
  <g transform="scale(1,-1)">
    <polygon id="sl-125" points="-32.099,7.861 -33.217,7.861 -33.217,6.013 -30.677,6.013 -30.677,6.16 -30.677,7.176 -30.677,7.83 -31.794,7.83 -31.794,7.296 -32.099,7.296" />
    <polygon id="sl-126" points="-13.735,8.039 -14.853,8.039 -14.853,6.013 -13.475,6.013 -12.459,6.013 -12.313,6.013 -12.313,8.287 -13.43,8.287 -13.43,7.474 -13.735,7.474" />
    <polygon id="sl-127" points="16.243,2.823 16.243,6.353 12.722,6.353 12.722,2.823" />
    <polygon id="sl-128" points="-8.401,2.823 -8.401,6.353 -11.922,6.353 -11.922,2.823" />
    <polygon id="sl-129" points="12.421,0.571 12.87,0.571 13.886,0.571 15.583,0.571 15.583,0.714 17.173,0.714 17.173,0.806 17.173,2.791 15.456,2.791 12.69,2.791 12.456,2.791 2.842,2.791 2.842,7.196 1.21,7.196 1.194,7.196 1.194,6.007 0.94,6.007 0.286,6.007 -0.946,6.007 -1.568,6.007 -1.568,5.753 -1.568,2.791 -1.597,2.791 -4.099,2.791 -6.055,2.791 -6.29,2.791 -9.188,2.791 -11.954,2.791 -11.954,6.007 -12.002,6.007 -12.459,6.007 -13.475,6.007 -14.859,6.007 -15.094,6.007 -15.094,0.714 -14.961,0.714 -14.945,0.714 -6.29,0.714 -6.055,0.714 0.975,0.714 1.21,0.714 12.357,0.714 12.421,0.714" />
    <polygon id="sl-130" points="14.154,-1.232 15.272,-1.232 15.272,0.565 13.894,0.565 12.878,0.565 12.732,0.565 12.732,-1.48 13.849,-1.48 13.849,-0.692 14.154,-0.692" />
    <polygon id="sl-131" points="-26.03,14.249 -27.28,14.249 -27.28,13.03 -24.74,13.03 -24.74,14.249" />
    <polygon id="sl-132" points="15.419,14.249 14.17,14.249 14.17,13.03 16.71,13.03 16.71,14.249" />
    <polygon id="sl-133" points="-1.091,14.249 -2.34,14.249 -2.34,13.03 0.2,13.03 0.2,14.249" />
    <polygon id="sl-134" points="-1.918,6.471 -4.788,6.471 -4.788,2.823 -4.788,2.791 -1.568,2.791 -1.568,2.823 -1.568,5.69 -1.918,5.69" />
    <polygon id="sl-135" points="10.69,3.997 10.69,6.956 5.42,6.956 5.42,3.997" />
    <polygon id="sl-136" points="-8.112,-3.578 -8.112,-0.645 -13.383,-0.645 -13.383,-3.578" />
    <polygon id="sl-137" points="8.144,-3.578 8.144,-0.645 2.873,-0.645 2.873,-3.578" />
    <polygon id="sl-138" points="16.989,0.714 16.989,0.683 16.989,-3.051 20.908,-3.051 20.417,0.683 20.412,0.714" />
    <polygon id="sl-139" points="-0.079,-3.616 -0.079,-0.645 -4.95,-0.645 -4.95,-3.616" />
    <polygon id="sl-140" points="-33.741,5.702 -33.741,0.267 -33.665,0.267 -32.444,0.267 -32.437,0.267 -32.415,0.267 -32.162,0.151 -32.166,0.143 -32.864,-1.389 -32.871,-1.404 -28.918,-3.205 -28.912,-3.19 -27.082,0.824 -26.805,0.697 -25.857,0.266 -25.58,0.139 -25.707,-0.138 -26.272,-1.379 -26.278,-1.393 -22.326,-3.194 -22.319,-3.18 -20.49,0.834 -20.213,0.708 -19.265,0.276 -18.988,0.15 -19.114,-0.128 -19.68,-1.368 -19.686,-1.383 -15.734,-3.184 -15.727,-3.169 -15.243,-2.107 -15.235,-2.09 -15.094,-2.09 -15.094,0.714 -15.094,5.634 -15.094,5.702 -15.094,6.007 -15.094,12.725 -15.164,12.725 -26.137,12.725 -27.153,12.725 -30.366,12.725 -30.366,12.71 -30.366,10.531 -30.366,10.452 -27.572,10.452 -27.572,7.938 -28.48,7.938 -29.712,7.938 -30.366,7.938 -30.366,7.684 -30.366,7.176 -30.366,6.16 -30.366,5.702 -33.665,5.702" />
    <polygon id="sl-141" points="12.456,2.791 12.456,12.71 12.456,12.725 1.21,12.725 1.21,12.71 1.21,7.196 2.842,7.196 2.842,2.791" />
    <polygon id="sl-142" points="6.14,6.102 6.14,4.607 7.087,4.607 7.087,4.058 9.97,4.058 9.97,6.617 7.404,6.617 7.404,6.102" />
    <polygon id="sl-143" points="20.297,1.813 18.862,12.71 18.86,12.725 15.313,12.725 14.297,12.725 12.69,12.725 12.69,12.71 12.69,5.582 15.456,5.582 15.456,2.791 17.173,2.791 17.173,0.838 17.173,0.806 19.296,0.806 19.296,0.838 19.296,1.813 19.388,1.813 19.388,1.822 20.28,1.822 20.281,1.813" />
    <polygon id="sl-144" points="12.69,2.791 15.456,2.791 15.456,5.582 12.69,5.582" />
    <polygon id="sl-145" points="-9.188,2.791 -6.29,2.791 -6.29,12.71 -6.29,12.725 -11.938,12.725 -11.938,12.71 -11.938,5.582 -9.188,5.582" />
    <polygon id="sl-146" points="-9.188,2.791 -9.188,5.582 -11.938,5.582 -11.954,5.582 -11.954,2.791" />
    <polygon id="sl-147" points="-6.055,2.791 -4.099,2.791 -4.099,4.175 -4.607,4.175 -4.607,5.69 -1.854,5.69 -1.854,8.522 0.975,8.522 0.975,12.71 0.975,12.725 -1.197,12.725 -2.213,12.725 -6.055,12.725 -6.055,12.71" />
    <polygon id="sl-148" points="-4.099,2.791 -1.597,2.791 -1.597,5.69 -1.854,5.69 -4.607,5.69 -4.607,4.175 -4.099,4.175" />
    <polygon id="sl-149" points="17.659,-2.261 17.659,0.683 17.659,0.714 17.173,0.714 15.662,0.714 15.583,0.714 15.583,0.571 15.583,-6.287 12.694,-6.287 12.694,-9.001 12.725,-8.997 21.318,-7.865 21.567,-7.833 20.833,-2.261" />
    <polygon id="sl-150" points="17.659,0.714 17.659,-2.261 20.833,-2.261 20.442,0.714" />
    <polygon id="sl-151" points="1.21,0.714 1.21,-9.014 1.241,-9.014 12.427,-9.014 12.459,-9.014 12.459,-6.35 12.357,-6.35 12.357,0.714" />
    <polygon id="sl-152" points="3.594,-0.705 3.594,-3.264 6.385,-3.264 6.385,-2.657 7.423,-2.657 7.423,-1.407 6.385,-1.407 6.385,-0.705" />
    <polygon id="sl-153" points="-14.961,0.714 -14.961,-8.435 -14.808,-8.435 -6.475,-8.435 -6.29,-8.435 -6.29,0.714" />
    <polygon id="sl-154" points="-12.662,-3.264 -9.871,-3.264 -9.871,-2.657 -8.68,-2.657 -8.68,-1.314 -9.871,-1.314 -9.871,-0.705 -12.662,-0.705" />
    <polygon id="sl-155" points="-6.055,0.714 -6.055,-9.027 0.975,-9.027 0.975,0.714" />
    <polygon id="sl-156" points="-4.254,-3.264 -1.838,-3.264 -1.838,-2.657 -0.8,-2.657 -0.8,-1.407 -1.838,-1.407 -1.838,-0.705 -4.254,-0.705" />
  </g>
</svg>