<?xml version="1.0" encoding="utf-8"?>
<svg xmlns="http://www.w3.org/2000/svg" viewBox="-34.893 -14.291 57.417 25.047">
  <g transform="scale(1,-1)">
    <rect id="tm-371" x="-8.561" y="-3.408" width="0.3" height="0.3" transform="rotate(90,-8.411,-3.258)" />
    <rect id="tm-372" x="7.695" y="-3.408" width="0.3" height="0.3" transform="rotate(90,7.845,-3.258)" />
    <rect id="tm-373" x="-8.561" y="-2.112" width="0.3" height="0.3" transform="rotate(90,-8.411,-1.962)" />
    <rect id="tm-374" x="-8.561" y="-2.76" width="0.3" height="0.3" transform="rotate(90,-8.411,-2.61)" />
    <rect id="tm-375" x="7.695" y="-2.112" width="0.3" height="0.3" transform="rotate(90,7.845,-1.962)" />
    <rect id="tm-376" x="7.695" y="-2.76" width="0.3" height="0.3" transform="rotate(90,7.845,-2.61)" />
    <rect id="tm-377" x="-14.25" y="-4.446" width="0.3" height="0.3" transform="rotate(180,-14.1,-4.296)" />
    <rect id="tm-378" x="-14.25" y="-2.261" width="0.3" height="0.3" transform="rotate(180,-14.1,-2.111)" />
    <rect id="tm-379" x="-14.25" y="-0.077" width="0.3" height="0.3" transform="rotate(180,-14.1,0.073)" />
    <rect id="tm-380" x="-10.897" y="-0.077" width="0.3" height="0.3" transform="rotate(180,-10.747,0.073)" />
    <rect id="tm-381" x="-10.897" y="-4.446" width="0.3" height="0.3" transform="rotate(180,-10.747,-4.296)" />
    <rect id="tm-382" x="-7.545" y="-4.446" width="0.3" height="0.3" transform="rotate(180,-7.395,-4.296)" />
    <rect id="tm-383" x="-7.545" y="-2.261" width="0.3" height="0.3" transform="rotate(180,-7.395,-2.111)" />
    <rect id="tm-384" x="-7.545" y="-0.077" width="0.3" height="0.3" transform="rotate(180,-7.395,0.073)" />
    <rect id="tm-385" x="5.568" y="5.176" width="0.3" height="0.3" transform="rotate(90,5.718,5.326)" />
    <rect id="tm-386" x="5.568" y="6.471" width="0.3" height="0.3" transform="rotate(90,5.718,6.621)" />
    <rect id="tm-387" x="5.568" y="5.824" width="0.3" height="0.3" transform="rotate(90,5.718,5.974)" />
    <rect id="tm-388" x="15.776" y="5.854" width="0.3" height="0.3" transform="rotate(180,15.926,6.004)" />
    <rect id="tm-389" x="14.48" y="5.854" width="0.3" height="0.3" transform="rotate(180,14.63,6.004)" />
    <rect id="tm-390" x="15.128" y="5.854" width="0.3" height="0.3" transform="rotate(180,15.278,6.004)" />
    <rect id="tm-391" x="-8.869" y="5.854" width="0.3" height="0.3" transform="rotate(180,-8.719,6.004)" />
    <rect id="tm-392" x="-10.164" y="5.854" width="0.3" height="0.3" transform="rotate(180,-10.014,6.004)" />
    <rect id="tm-393" x="-9.516" y="5.854" width="0.3" height="0.3" transform="rotate(180,-9.366,6.004)" />
    <rect id="tm-394" x="-2.388" y="5.962" width="0.3" height="0.3" transform="rotate(180,-2.238,6.112)" />
    <rect id="tm-395" x="-3.684" y="5.962" width="0.3" height="0.3" transform="rotate(180,-3.534,6.112)" />
    <rect id="tm-396" x="-3.036" y="5.962" width="0.3" height="0.3" transform="rotate(180,-2.886,6.112)" />
    <rect id="tm-397" x="1.83" y="4.993" width="0.3" height="0.3" transform="rotate(180,1.98,5.143)" />
    <rect id="tm-398" x="12.575" y="-0.239" width="0.3" height="0.3" transform="rotate(120,12.725,-0.089)" />
    <rect id="tm-399" x="12.575" y="-5.217" width="0.3" height="0.3" transform="rotate(120,12.725,-5.067)" />
    <rect id="tm-400" x="15.128" y="-0.239" width="0.3" height="0.3" transform="rotate(120,15.278,-0.089)" />
    <rect id="tm-401" x="15.128" y="-5.217" width="0.3" height="0.3" transform="rotate(120,15.278,-5.067)" />
    <rect id="tm-402" x="-15.009" y="6.772" width="0.3" height="0.3" transform="rotate(240,-14.859,6.922)" />
    <rect id="tm-403" x="-15.009" y="11.963" width="0.3" height="0.3" transform="rotate(240,-14.859,12.113)" />
    <rect id="tm-404" x="-12.456" y="6.772" width="0.3" height="0.3" transform="rotate(240,-12.306,6.922)" />
    <rect id="tm-405" x="-12.456" y="11.963" width="0.3" height="0.3" transform="rotate(240,-12.306,12.113)" />
    <rect id="tm-406" x="-33.373" y="6.518" width="0.3" height="0.3" transform="rotate(240,-33.223,6.668)" />
    <rect id="tm-407" x="-33.373" y="11.963" width="0.3" height="0.3" transform="rotate(240,-33.223,12.113)" />
    <rect id="tm-408" x="-30.821" y="6.518" width="0.3" height="0.3" transform="rotate(240,-30.671,6.668)" />
    <rect id="tm-409" x="-30.821" y="11.963" width="0.3" height="0.3" transform="rotate(240,-30.671,12.113)" />
    <rect id="tm-410" x="-11.755" y="-3.398" width="0.3" height="0.3" transform="rotate(240,-11.605,-3.248)" />
    <rect id="tm-411" x="-10.18" y="-3.398" width="0.3" height="0.3" transform="rotate(240,-10.03,-3.248)" />
    <rect id="tm-412" x="-3.281" y="-1.217" width="0.3" height="0.3" transform="rotate(180,-3.131,-1.067)" />
    <rect id="tm-413" x="-1.43" y="-2.182" width="0.3" height="0.3" transform="rotate(180,-1.28,-2.032)" />
    <rect id="tm-414" x="-1.43" y="-1.129" width="0.3" height="0.3" transform="rotate(180,-1.28,-0.979)" />
    <rect id="tm-415" x="-1.43" y="-3.217" width="0.3" height="0.3" transform="rotate(180,-1.28,-3.067)" />
    <rect id="tm-416" x="-4.922" y="-3.049" width="0.3" height="0.3" transform="rotate(180,-4.772,-2.899)" />
    <rect id="tm-417" x="-4.922" y="-1.527" width="0.3" height="0.3" transform="rotate(180,-4.772,-1.377)" />
    <rect id="tm-418" x="-0.542" y="-3.422" width="0.3" height="0.3" transform="rotate(90,-0.392,-3.272)" />
    <rect id="tm-419" x="-0.542" y="-2.126" width="0.3" height="0.3" transform="rotate(90,-0.392,-1.976)" />
    <rect id="tm-420" x="-0.542" y="-2.774" width="0.3" height="0.3" transform="rotate(90,-0.392,-2.624)" />
    <rect id="tm-421" x="-3.719" y="-3.398" width="0.3" height="0.3" transform="rotate(240,-3.569,-3.248)" />
    <rect id="tm-422" x="-2.144" y="-3.398" width="0.3" height="0.3" transform="rotate(240,-1.994,-3.248)" />
    <rect id="tm-765" x="16.445" y="-7.722" width="0.3" height="0.3" transform="rotate(269.755,16.595,-7.572)" />
    <rect id="tm-766" x="14.323" y="-8.002" width="0.3" height="0.3" transform="rotate(269.755,14.473,-7.852)" />
    <rect id="tm-767" x="18.402" y="-7.465" width="0.3" height="0.3" transform="rotate(269.755,18.552,-7.315)" />
    <rect id="tm-768" x="19.36" y="-6.551" width="0.3" height="0.3" transform="rotate(120,19.51,-6.401)" />
    <rect id="tm-769" x="19.36" y="-5.243" width="0.3" height="0.3" transform="rotate(120,19.51,-5.093)" />
    <rect id="tm-770" x="19.36" y="-3.566" width="0.3" height="0.3" transform="rotate(120,19.51,-3.416)" />
    <rect id="tm-771" x="3.381" y="-7.991" width="0.3" height="0.3" transform="rotate(90,3.531,-7.841)" />
    <rect id="tm-772" x="7.648" y="-7.991" width="0.3" height="0.3" transform="rotate(180,7.798,-7.841)" />
    <rect id="tm-773" x="6.429" y="-7.991" width="0.3" height="0.3" transform="rotate(180,6.579,-7.841)" />
    <rect id="tm-774" x="4.6" y="-7.991" width="0.3" height="0.3" transform="rotate(90,4.75,-7.841)" />
    <rect id="tm-775" x="5.047" y="-6.792" width="0.3" height="0.3" transform="rotate(120,5.197,-6.642)" />
    <rect id="tm-776" x="5.047" y="-5.446" width="0.3" height="0.3" transform="rotate(120,5.197,-5.296)" />
    <rect id="tm-777" x="4.844" y="-5.446" width="0.3" height="0.3" transform="rotate(120,4.994,-5.296)" />
    <rect id="tm-778" x="4.844" y="-6.792" width="0.3" height="0.3" transform="rotate(120,4.994,-6.642)" />
    <rect id="tm-779" x="8.121" y="-2.728" width="0.3" height="0.3" transform="rotate(240,8.271,-2.578)" />
    <rect id="tm-780" x="8.121" y="-1.331" width="0.3" height="0.3" transform="rotate(240,8.271,-1.181)" />
    <rect id="tm-781" x="2.596" y="-2.775" width="0.3" height="0.3" transform="rotate(240,2.746,-2.625)" />
    <rect id="tm-782" x="2.596" y="-1.186" width="0.3" height="0.3" transform="rotate(240,2.746,-1.036)" />
    <rect id="tm-783" x="8.861" y="-7.991" width="0.3" height="0.3" transform="rotate(180,9.011,-7.841)" />
    <rect id="tm-784" x="10.078" y="-7.991" width="0.3" height="0.3" transform="rotate(180,10.228,-7.841)" />
    <rect id="tm-785" x="-12.875" y="-7.991" width="0.3" height="0.3" transform="rotate(90,-12.725,-7.841)" />
    <rect id="tm-786" x="-8.608" y="-7.991" width="0.3" height="0.3" transform="rotate(180,-8.458,-7.841)" />
    <rect id="tm-787" x="-9.827" y="-7.991" width="0.3" height="0.3" transform="rotate(180,-9.677,-7.841)" />
    <rect id="tm-788" x="-11.656" y="-7.991" width="0.3" height="0.3" transform="rotate(90,-11.506,-7.841)" />
    <rect id="tm-789" x="-11.209" y="-6.792" width="0.3" height="0.3" transform="rotate(120,-11.059,-6.642)" />
    <rect id="tm-790" x="-11.209" y="-5.446" width="0.3" height="0.3" transform="rotate(120,-11.059,-5.296)" />
    <rect id="tm-791" x="-11.412" y="-5.446" width="0.3" height="0.3" transform="rotate(120,-11.262,-5.296)" />
    <rect id="tm-792" x="-11.412" y="-6.792" width="0.3" height="0.3" transform="rotate(120,-11.262,-6.642)" />
    <rect id="tm-793" x="-8.135" y="-2.728" width="0.3" height="0.3" transform="rotate(240,-7.985,-2.578)" />
    <rect id="tm-794" x="-8.135" y="-1.331" width="0.3" height="0.3" transform="rotate(240,-7.985,-1.181)" />
    <rect id="tm-795" x="-13.66" y="-2.775" width="0.3" height="0.3" transform="rotate(240,-13.51,-2.625)" />
    <rect id="tm-796" x="-13.66" y="-1.186" width="0.3" height="0.3" transform="rotate(240,-13.51,-1.036)" />
    <rect id="tm-797" x="-29.608" y="-0.893" width="0.3" height="0.3" transform="rotate(107.017,-29.458,-0.743)" />
    <rect id="tm-798" x="-29.793" y="-0.809" width="0.3" height="0.3" transform="rotate(107.017,-29.643,-0.659)" />
    <rect id="tm-799" x="-30.704" y="1.449" width="0.3" height="0.3" transform="rotate(90,-30.554,1.599)" />
    <rect id="tm-800" x="-28.037" y="1.449" width="0.3" height="0.3" transform="rotate(90,-27.887,1.599)" />
    <rect id="tm-801" x="-26.348" y="3.114" width="0.3" height="0.3" transform="rotate(120,-26.198,3.264)" />
    <rect id="tm-802" x="-26.348" y="4.562" width="0.3" height="0.3" transform="rotate(120,-26.198,4.712)" />
    <rect id="tm-803" x="-26.145" y="3.844" width="0.3" height="0.3" transform="rotate(120,-25.995,3.994)" />
    <rect id="tm-804" x="-25.836" y="8.804" width="0.3" height="0.3" transform="rotate(120,-25.686,8.954)" />
    <rect id="tm-805" x="-25.632" y="8.169" width="0.3" height="0.3" transform="rotate(120,-25.482,8.319)" />
    <rect id="tm-806" x="-17.572" y="-0.737" width="0.3" height="0.3" transform="rotate(107.017,-17.422,-0.587)" />
    <rect id="tm-807" x="-17.757" y="-0.652" width="0.3" height="0.3" transform="rotate(107.017,-17.607,-0.502)" />
    <rect id="tm-808" x="-23.138" y="-0.652" width="0.3" height="0.3" transform="rotate(107.017,-22.988,-0.502)" />
    <rect id="tm-809" x="-22.953" y="-0.737" width="0.3" height="0.3" transform="rotate(107.017,-22.803,-0.587)" />
    <rect id="tm-810" x="-24.057" y="1.449" width="0.3" height="0.3" transform="rotate(180,-23.907,1.599)" />
    <rect id="tm-811" x="-21.06" y="1.449" width="0.3" height="0.3" transform="rotate(90,-20.91,1.599)" />
    <rect id="tm-812" x="-18.23" y="1.449" width="0.3" height="0.3" transform="rotate(90,-18.08,1.599)" />
    <rect id="tm-813" x="-19.098" y="3.114" width="0.3" height="0.3" transform="rotate(120,-18.948,3.264)" />
    <rect id="tm-814" x="-19.098" y="4.562" width="0.3" height="0.3" transform="rotate(120,-18.948,4.712)" />
    <rect id="tm-815" x="-18.895" y="3.843" width="0.3" height="0.3" transform="rotate(120,-18.745,3.993)" />
    <rect id="tm-816" x="-19.098" y="8.804" width="0.3" height="0.3" transform="rotate(120,-18.948,8.954)" />
    <rect id="tm-817" x="-18.895" y="8.168" width="0.3" height="0.3" transform="rotate(120,-18.745,8.318)" />
    <rect id="tm-818" x="-10.121" y="11.14" width="0.3" height="0.3" transform="rotate(240,-9.971,11.29)" />
    <rect id="tm-819" x="-10.121" y="7.381" width="0.3" height="0.3" transform="rotate(240,-9.971,7.531)" />
    <rect id="tm-820" x="-10.121" y="9.21" width="0.3" height="0.3" transform="rotate(240,-9.971,9.36)" />
    <rect id="tm-821" x="-10.324" y="9.21" width="0.3" height="0.3" transform="rotate(240,-10.174,9.36)" />
    <rect id="tm-822" x="2.822" y="9.605" width="0.3" height="0.3" transform="rotate(90,2.972,9.755)" />
    <rect id="tm-823" x="2.822" y="9.809" width="0.3" height="0.3" transform="rotate(90,2.972,9.959)" />
    <rect id="tm-824" x="4.907" y="9.605" width="0.3" height="0.3" transform="rotate(90,5.057,9.755)" />
    <rect id="tm-825" x="4.907" y="9.809" width="0.3" height="0.3" transform="rotate(90,5.057,9.959)" />
    <rect id="tm-826" x="6.937" y="9.809" width="0.3" height="0.3" transform="rotate(90,7.087,9.959)" />
    <rect id="tm-827" x="6.937" y="9.605" width="0.3" height="0.3" transform="rotate(90,7.087,9.755)" />
    <rect id="tm-828" x="9.098" y="9.809" width="0.3" height="0.3" transform="rotate(270,9.248,9.959)" />
    <rect id="tm-829" x="9.098" y="9.605" width="0.3" height="0.3" transform="rotate(90,9.248,9.755)" />
    <rect id="tm-830" x="4.085" y="7.728" width="0.3" height="0.3" transform="rotate(240,4.235,7.878)" />
    <rect id="tm-831" x="4.085" y="4.282" width="0.3" height="0.3" transform="rotate(120,4.235,4.432)" />
    <rect id="tm-832" x="13.961" y="6.855" width="0.3" height="0.3" transform="rotate(240,14.111,7.005)" />
    <rect id="tm-833" x="13.961" y="8.531" width="0.3" height="0.3" transform="rotate(240,14.111,8.681)" />
    <rect id="tm-834" x="13.961" y="9.903" width="0.3" height="0.3" transform="rotate(240,14.111,10.053)" />
    <rect id="tm-835" x="13.961" y="11.579" width="0.3" height="0.3" transform="rotate(240,14.111,11.729)" />
    <rect id="tm-836" x="16.198" y="3.693" width="0.3" height="0.3" transform="rotate(120,16.348,3.843)" />
    <rect id="tm-837" x="-12.86" y="-9.043" width="0.3" height="0.3" transform="rotate(270,-12.71,-8.893)" />
    <rect id="tm-838" x="-14.682" y="-6.491" width="0.3" height="0.3" transform="rotate(120,-14.532,-6.341)" />
    <rect id="tm-839" x="-14.682" y="-5.446" width="0.3" height="0.3" transform="rotate(120,-14.532,-5.296)" />
    <rect id="tm-840" x="-14.682" y="-7.529" width="0.3" height="0.3" transform="rotate(120,-14.532,-7.379)" />
    <rect id="tm-841" x="-13.152" y="-4.479" width="0.3" height="0.3" transform="rotate(90,-13.002,-4.329)" />
    <rect id="tm-842" x="3.533" y="-9.652" width="0.3" height="0.3" transform="rotate(90,3.683,-9.502)" />
    <rect id="tm-843" x="15.991" y="-9.191" width="0.3" height="0.3" transform="rotate(90.245,16.141,-9.041)" />
    <rect id="tm-844" x="15.956" y="-6.005" width="0.3" height="0.3" transform="rotate(120,16.106,-5.855)" />
    <rect id="tm-845" x="15.956" y="-4.336" width="0.3" height="0.3" transform="rotate(120,16.106,-4.186)" />
    <rect id="tm-846" x="17.404" y="-3.617" width="0.3" height="0.3" transform="rotate(90,17.554,-3.467)" />
    <rect id="tm-847" x="18.55" y="9.525" width="0.3" height="0.3" transform="rotate(244.231,18.7,9.675)" />
    <rect id="tm-848" x="18.325" y="11.233" width="0.3" height="0.3" transform="rotate(244.231,18.475,11.383)" />
    <rect id="tm-849" x="18.758" y="7.948" width="0.3" height="0.3" transform="rotate(244.231,18.908,8.098)" />
    <rect id="tm-850" x="16.394" y="6.241" width="0.3" height="0.3" transform="rotate(270,16.544,6.391)" />
    <rect id="tm-851" x="17.195" y="12.887" width="0.3" height="0.3" transform="rotate(180,17.345,13.037)" />
    <rect id="tm-852" x="11.17" y="10.891" width="0.3" height="0.3" transform="rotate(240,11.32,11.041)" />
    <rect id="tm-853" x="11.17" y="8.981" width="0.3" height="0.3" transform="rotate(240,11.32,9.131)" />
    <rect id="tm-854" x="9.619" y="7.718" width="0.3" height="0.3" transform="rotate(180,9.769,7.868)" />
    <rect id="tm-855" x="9.575" y="12.887" width="0.3" height="0.3" transform="rotate(180,9.725,13.037)" />
    <rect id="tm-856" x="-8.419" y="6.899" width="0.3" height="0.3" transform="rotate(180,-8.269,7.049)" />
    <rect id="tm-857" x="-7.225" y="7.554" width="0.3" height="0.3" transform="rotate(240,-7.075,7.704)" />
    <rect id="tm-858" x="-7.225" y="9.402" width="0.3" height="0.3" transform="rotate(240,-7.075,9.552)" />
    <rect id="tm-859" x="-7.225" y="11.14" width="0.3" height="0.3" transform="rotate(240,-7.075,11.29)" />
    <rect id="tm-860" x="-10.745" y="12.887" width="0.3" height="0.3" transform="rotate(180,-10.595,13.037)" />
    <rect id="tm-861" x="-17.959" y="9.145" width="0.3" height="0.3" transform="rotate(90,-17.809,9.295)" />
    <rect id="tm-862" x="-16.42" y="8.702" width="0.3" height="0.3" transform="rotate(148.6,-16.27,8.852)" />
    <rect id="tm-863" x="-15.977" y="7.103" width="0.3" height="0.3" transform="rotate(120,-15.827,7.253)" />
    <rect id="tm-864" x="-15.977" y="1.742" width="0.3" height="0.3" transform="rotate(120,-15.827,1.892)" />
    <rect id="tm-865" x="-15.977" y="3.843" width="0.3" height="0.3" transform="rotate(120,-15.827,3.993)" />
    <rect id="tm-866" x="-15.977" y="5.429" width="0.3" height="0.3" transform="rotate(120,-15.827,5.579)" />
    <rect id="tm-867" x="-21.867" y="12.887" width="0.3" height="0.3" transform="rotate(180,-21.717,13.037)" />
    <rect id="tm-868" x="-28.369" y="12.887" width="0.3" height="0.3" transform="rotate(180,-28.219,13.037)" />
    <rect id="tm-869" x="-26.899" y="8.59" width="0.3" height="0.3" transform="rotate(211.4,-26.749,8.74)" />
    <rect id="tm-870" x="-27.311" y="7.133" width="0.3" height="0.3" transform="rotate(120,-27.161,7.283)" />
    <rect id="tm-871" x="-30.251" y="5.133" width="0.3" height="0.3" transform="rotate(90,-30.101,5.283)" />
    <rect id="tm-872" x="-28.585" y="5.133" width="0.3" height="0.3" transform="rotate(90,-28.435,5.283)" />
    <rect id="tm-873" x="-31.885" y="5.133" width="0.3" height="0.3" transform="rotate(90,-31.735,5.283)" />
    <rect id="tm-874" x="-33.418" y="3.844" width="0.3" height="0.3" transform="rotate(120,-33.268,3.994)" />
    <rect id="tm-875" x="-33.418" y="2.13" width="0.3" height="0.3" transform="rotate(120,-33.268,2.28)" />
    <rect id="tm-876" x="3.104" y="-4.479" width="0.3" height="0.3" transform="rotate(90,3.254,-4.329)" />
    <rect id="tm-877" x="1.574" y="-5.446" width="0.3" height="0.3" transform="rotate(120,1.724,-5.296)" />
    <rect id="tm-878" x="1.574" y="-7.387" width="0.3" height="0.3" transform="rotate(120,1.724,-7.237)" />
    <rect id="tm-976" x="-3.125" y="12.88" width="0.3" height="0.3" transform="rotate(180,-2.975,13.03)" />
    <rect id="tm-977" x="17.195" y="12.88" width="0.3" height="0.3" transform="rotate(180,17.345,13.03)" />
    <rect id="tm-978" x="5.765" y="12.88" width="0.3" height="0.3" transform="rotate(180,5.915,13.03)" />
    <rect id="tm-979" x="-10.745" y="12.88" width="0.3" height="0.3" transform="rotate(180,-10.595,13.03)" />
    <rect id="tm-980" x="-16.635" y="12.88" width="0.3" height="0.3" transform="rotate(180,-16.485,13.03)" />
    <rect id="tm-981" x="5.197" y="-9.652" width="0.3" height="0.3" transform="rotate(270,5.347,-9.502)" />
    <rect id="tm-982" x="17.742" y="-8.955" width="0.3" height="0.3" transform="rotate(90.245,17.892,-8.805)" />
    <rect id="tm-1609" x="-8.561" y="-3.408" width="0.3" height="0.3" transform="rotate(90,-8.411,-3.258)" />
    <rect id="tm-1610" x="7.695" y="-3.408" width="0.3" height="0.3" transform="rotate(90,7.845,-3.258)" />
    <rect id="tm-1611" x="-8.561" y="-2.112" width="0.3" height="0.3" transform="rotate(90,-8.411,-1.962)" />
    <rect id="tm-1612" x="-8.561" y="-2.76" width="0.3" height="0.3" transform="rotate(90,-8.411,-2.61)" />
    <rect id="tm-1613" x="7.695" y="-2.112" width="0.3" height="0.3" transform="rotate(90,7.845,-1.962)" />
    <rect id="tm-1614" x="7.695" y="-2.76" width="0.3" height="0.3" transform="rotate(90,7.845,-2.61)" />
    <rect id="tm-1615" x="-14.25" y="-4.446" width="0.3" height="0.3" transform="rotate(180,-14.1,-4.296)" />
    <rect id="tm-1616" x="-14.25" y="-2.261" width="0.3" height="0.3" transform="rotate(180,-14.1,-2.111)" />
    <rect id="tm-1617" x="-14.25" y="-0.077" width="0.3" height="0.3" transform="rotate(180,-14.1,0.073)" />
    <rect id="tm-1618" x="-10.897" y="-0.077" width="0.3" height="0.3" transform="rotate(180,-10.747,0.073)" />
    <rect id="tm-1619" x="-10.897" y="-4.446" width="0.3" height="0.3" transform="rotate(180,-10.747,-4.296)" />
    <rect id="tm-1620" x="-7.545" y="-4.446" width="0.3" height="0.3" transform="rotate(180,-7.395,-4.296)" />
    <rect id="tm-1621" x="-7.545" y="-2.261" width="0.3" height="0.3" transform="rotate(180,-7.395,-2.111)" />
    <rect id="tm-1622" x="-7.545" y="-0.077" width="0.3" height="0.3" transform="rotate(180,-7.395,0.073)" />
    <rect id="tm-1623" x="5.568" y="5.176" width="0.3" height="0.3" transform="rotate(90,5.718,5.326)" />
    <rect id="tm-1624" x="5.568" y="6.471" width="0.3" height="0.3" transform="rotate(90,5.718,6.621)" />
    <rect id="tm-1625" x="5.568" y="5.824" width="0.3" height="0.3" transform="rotate(90,5.718,5.974)" />
    <rect id="tm-1626" x="15.776" y="5.854" width="0.3" height="0.3" transform="rotate(180,15.926,6.004)" />
    <rect id="tm-1627" x="14.48" y="5.854" width="0.3" height="0.3" transform="rotate(180,14.63,6.004)" />
    <rect id="tm-1628" x="15.128" y="5.854" width="0.3" height="0.3" transform="rotate(180,15.278,6.004)" />
    <rect id="tm-1629" x="-8.869" y="5.854" width="0.3" height="0.3" transform="rotate(180,-8.719,6.004)" />
    <rect id="tm-1630" x="-10.164" y="5.854" width="0.3" height="0.3" transform="rotate(180,-10.014,6.004)" />
    <rect id="tm-1631" x="-9.516" y="5.854" width="0.3" height="0.3" transform="rotate(180,-9.366,6.004)" />
    <rect id="tm-1632" x="-2.388" y="5.962" width="0.3" height="0.3" transform="rotate(180,-2.238,6.112)" />
    <rect id="tm-1633" x="-3.684" y="5.962" width="0.3" height="0.3" transform="rotate(180,-3.534,6.112)" />
    <rect id="tm-1634" x="-3.036" y="5.962" width="0.3" height="0.3" transform="rotate(180,-2.886,6.112)" />
    <rect id="tm-1635" x="12.575" y="-0.239" width="0.3" height="0.3" transform="rotate(120,12.725,-0.089)" />
    <rect id="tm-1636" x="12.575" y="-5.217" width="0.3" height="0.3" transform="rotate(120,12.725,-5.067)" />
    <rect id="tm-1637" x="15.128" y="-0.239" width="0.3" height="0.3" transform="rotate(120,15.278,-0.089)" />
    <rect id="tm-1638" x="15.128" y="-5.217" width="0.3" height="0.3" transform="rotate(120,15.278,-5.067)" />
    <rect id="tm-1639" x="-15.009" y="6.772" width="0.3" height="0.3" transform="rotate(240,-14.859,6.922)" />
    <rect id="tm-1640" x="-15.009" y="11.963" width="0.3" height="0.3" transform="rotate(240,-14.859,12.113)" />
    <rect id="tm-1641" x="-12.456" y="6.772" width="0.3" height="0.3" transform="rotate(240,-12.306,6.922)" />
    <rect id="tm-1642" x="-12.456" y="11.963" width="0.3" height="0.3" transform="rotate(240,-12.306,12.113)" />
    <rect id="tm-1643" x="-33.373" y="6.518" width="0.3" height="0.3" transform="rotate(240,-33.223,6.668)" />
    <rect id="tm-1644" x="-33.373" y="11.963" width="0.3" height="0.3" transform="rotate(240,-33.223,12.113)" />
    <rect id="tm-1645" x="-30.821" y="6.518" width="0.3" height="0.3" transform="rotate(240,-30.671,6.668)" />
    <rect id="tm-1646" x="-30.821" y="11.963" width="0.3" height="0.3" transform="rotate(240,-30.671,12.113)" />
    <rect id="tm-1647" x="10.129" y="1.679" width="0.3" height="0.3" />
    <rect id="tm-1648" x="3.719" y="1.679" width="0.3" height="0.3" />
    <rect id="tm-1649" x="-2.69" y="1.679" width="0.3" height="0.3" />
    <rect id="tm-1650" x="-9.099" y="1.679" width="0.3" height="0.3" />
    <rect id="tm-1651" x="-4.652" y="3.295" width="0.3" height="0.3" transform="rotate(180,-4.502,3.445)" />
    <rect id="tm-1652" x="-2.287" y="5.067" width="0.3" height="0.3" transform="rotate(180,-2.137,5.217)" />
    <rect id="tm-1653" x="8.288" y="4.178" width="0.3" height="0.3" transform="rotate(180,8.438,4.328)" />
    <rect id="tm-1654" x="6.437" y="5.143" width="0.3" height="0.3" transform="rotate(180,6.587,5.293)" />
    <rect id="tm-1655" x="6.437" y="4.09" width="0.3" height="0.3" transform="rotate(180,6.587,4.24)" />
    <rect id="tm-1656" x="6.622" y="6.236" width="0.3" height="0.3" transform="rotate(180,6.772,6.386)" />
    <rect id="tm-1657" x="-3.281" y="-1.217" width="0.3" height="0.3" transform="rotate(180,-3.131,-1.067)" />
    <rect id="tm-1658" x="-1.43" y="-2.182" width="0.3" height="0.3" transform="rotate(180,-1.28,-2.032)" />
    <rect id="tm-1659" x="-1.43" y="-1.129" width="0.3" height="0.3" transform="rotate(180,-1.28,-0.979)" />
    <rect id="tm-1660" x="-1.43" y="-3.217" width="0.3" height="0.3" transform="rotate(180,-1.28,-3.067)" />
    <rect id="tm-1661" x="-4.922" y="-3.049" width="0.3" height="0.3" transform="rotate(180,-4.772,-2.899)" />
    <rect id="tm-1662" x="-4.922" y="-1.527" width="0.3" height="0.3" transform="rotate(180,-4.772,-1.377)" />
    <rect id="tm-1663" x="-0.542" y="-3.422" width="0.3" height="0.3" transform="rotate(90,-0.392,-3.272)" />
    <rect id="tm-1664" x="-0.542" y="-2.126" width="0.3" height="0.3" transform="rotate(90,-0.392,-1.976)" />
    <rect id="tm-1665" x="-0.542" y="-2.774" width="0.3" height="0.3" transform="rotate(90,-0.392,-2.624)" />
    <rect id="tm-1666" x="13.795" y="9.362" width="0.3" height="0.3" transform="rotate(180,13.945,9.512)" />
    <rect id="tm-1667" x="17.452" y="9.362" width="0.3" height="0.3" transform="rotate(180,17.602,9.512)" />
    <rect id="tm-1668" x="17.757" y="4.027" width="0.3" height="0.3" transform="rotate(180,17.907,4.177)" />
    <rect id="tm-1669" x="-3.719" y="-3.398" width="0.3" height="0.3" transform="rotate(240,-3.569,-3.248)" />
    <rect id="tm-1670" x="-2.144" y="-3.398" width="0.3" height="0.3" transform="rotate(240,-1.994,-3.248)" />
    <rect id="tm-1671" x="0.333" y="-2.36" width="0.3" height="0.3" transform="rotate(180,0.483,-2.21)" />
    <rect id="tm-1672" x="-5.687" y="-2.261" width="0.3" height="0.3" transform="rotate(180,-5.537,-2.111)" />
    <rect id="tm-1673" x="-2.382" y="-0.077" width="0.3" height="0.3" transform="rotate(180,-2.232,0.073)" />
    <rect id="tm-1674" x="2.72" y="-5.954" width="0.3" height="0.3" transform="rotate(180,2.87,-5.804)" />
    <rect id="tm-1675" x="5.159" y="-5.954" width="0.3" height="0.3" transform="rotate(180,5.309,-5.804)" />
    <rect id="tm-1676" x="8.156" y="-5.954" width="0.3" height="0.3" transform="rotate(180,8.306,-5.804)" />
    <rect id="tm-1677" x="10.747" y="-5.954" width="0.3" height="0.3" transform="rotate(180,10.897,-5.804)" />
    <rect id="tm-1678" x="9.527" y="-2.804" width="0.3" height="0.3" transform="rotate(180,9.677,-2.654)" />
    <rect id="tm-1679" x="1.653" y="-2.22" width="0.3" height="0.3" transform="rotate(180,1.803,-2.07)" />
    <rect id="tm-1680" x="5.057" y="-0.036" width="0.3" height="0.3" transform="rotate(180,5.207,0.114)" />
    <rect id="tm-1681" x="17.16" y="-2.754" width="0.3" height="0.3" />
    <rect id="tm-1682" x="18.456" y="-2.754" width="0.3" height="0.3" />
    <rect id="tm-1683" x="17.808" y="-2.754" width="0.3" height="0.3" />
    <rect id="tm-1684" x="16.805" y="-5.802" width="0.3" height="0.3" transform="rotate(180,16.955,-5.652)" />
    <rect id="tm-1685" x="19.862" y="-5.802" width="0.3" height="0.3" transform="rotate(180,20.012,-5.652)" />
    <rect id="tm-1686" x="15.954" y="-1.712" width="0.3" height="0.3" transform="rotate(180,16.104,-1.562)" />
    <rect id="tm-1687" x="9.612" y="12.56" width="0.3" height="0.3" transform="rotate(90,9.762,12.71)" />
    <rect id="tm-1688" x="3.516" y="12.56" width="0.3" height="0.3" transform="rotate(90,3.666,12.71)" />
    <rect id="tm-1689" x="5.822" y="5.603" width="0.3" height="0.3" transform="rotate(240,5.972,5.753)" />
    <rect id="tm-1690" x="5.822" y="4.308" width="0.3" height="0.3" transform="rotate(240,5.972,4.458)" />
    <rect id="tm-1691" x="2.723" y="4.943" width="0.3" height="0.3" transform="rotate(120,2.873,5.093)" />
    <rect id="tm-1692" x="5.54" y="3.739" width="0.3" height="0.3" transform="rotate(90,5.69,3.889)" />
    <rect id="tm-1693" x="9.273" y="3.739" width="0.3" height="0.3" transform="rotate(90,9.423,3.889)" />
    <rect id="tm-1694" x="10.239" y="6.889" width="0.3" height="0.3" transform="rotate(180,10.389,7.039)" />
    <rect id="tm-1695" x="7.546" y="6.635" width="0.3" height="0.3" transform="rotate(180,7.696,6.785)" />
    <rect id="tm-1696" x="9.163" y="6.635" width="0.3" height="0.3" transform="rotate(180,9.313,6.785)" />
    <rect id="tm-1697" x="9.804" y="4.247" width="0.3" height="0.3" transform="rotate(240,9.954,4.397)" />
    <rect id="tm-1698" x="2.568" y="5.12" width="0.3" height="0.3" transform="rotate(240,2.718,5.27)" />
    <rect id="tm-1699" x="12.274" y="7.533" width="0.3" height="0.3" transform="rotate(240,12.424,7.683)" />
    <rect id="tm-1700" x="12.274" y="10.581" width="0.3" height="0.3" transform="rotate(240,12.424,10.731)" />
    <rect id="tm-1701" x="1.091" y="9.896" width="0.3" height="0.3" transform="rotate(120,1.241,10.046)" />
    <rect id="tm-1702" x="9.988" y="6.314" width="0.3" height="0.3" transform="rotate(120,10.138,6.464)" />
    <rect id="tm-1703" x="5.822" y="5.044" width="0.3" height="0.3" transform="rotate(240,5.972,5.194)" />
    <rect id="tm-1704" x="9.216" y="2.517" width="0.3" height="0.3" transform="rotate(90,9.366,2.667)" />
    <rect id="tm-1705" x="3.085" y="2.517" width="0.3" height="0.3" transform="rotate(90,3.235,2.667)" />
    <rect id="tm-1706" x="14.504" y="5.6" width="0.3" height="0.3" transform="rotate(180,14.654,5.75)" />
    <rect id="tm-1707" x="13.705" y="5.6" width="0.3" height="0.3" transform="rotate(180,13.855,5.75)" />
    <rect id="tm-1708" x="15.056" y="5.6" width="0.3" height="0.3" transform="rotate(180,15.206,5.75)" />
    <rect id="tm-1709" x="12.572" y="7.991" width="0.3" height="0.3" transform="rotate(120,12.722,8.141)" />
    <rect id="tm-1710" x="12.572" y="10.353" width="0.3" height="0.3" transform="rotate(120,12.722,10.503)" />
    <rect id="tm-1711" x="18.948" y="10.575" width="0.3" height="0.3" transform="rotate(244.231,19.098,10.725)" />
    <rect id="tm-1712" x="19.351" y="7.518" width="0.3" height="0.3" transform="rotate(244.231,19.501,7.668)" />
    <rect id="tm-1713" x="19.791" y="4.173" width="0.3" height="0.3" transform="rotate(244.231,19.941,4.323)" />
    <rect id="tm-1714" x="15.293" y="3.05" width="0.3" height="0.3" transform="rotate(240,15.443,3.2)" />
    <rect id="tm-1715" x="-25.677" y="12.88" width="0.3" height="0.3" transform="rotate(180,-25.527,13.03)" />
    <rect id="tm-1716" x="15.928" y="12.88" width="0.3" height="0.3" transform="rotate(180,16.078,13.03)" />
    <rect id="tm-1717" x="0.793" y="10.277" width="0.3" height="0.3" transform="rotate(240,0.943,10.427)" />
    <rect id="tm-1718" x="-0.734" y="8.451" width="0.3" height="0.3" transform="rotate(180,-0.584,8.601)" />
    <rect id="tm-1719" x="-3.122" y="12.56" width="0.3" height="0.3" transform="rotate(90,-2.972,12.71)" />
    <rect id="tm-1720" x="-0.734" y="12.88" width="0.3" height="0.3" transform="rotate(180,-0.584,13.03)" />
    <rect id="tm-1721" x="-6.173" y="11.115" width="0.3" height="0.3" transform="rotate(120,-6.023,11.265)" />
    <rect id="tm-1722" x="-6.173" y="7.381" width="0.3" height="0.3" transform="rotate(120,-6.023,7.531)" />
    <rect id="tm-1723" x="-4.233" y="3.723" width="0.3" height="0.3" transform="rotate(120,-4.083,3.873)" />
    <rect id="tm-1724" x="-1.75" y="4.054" width="0.3" height="0.3" transform="rotate(240,-1.6,4.204)" />
    <rect id="tm-1725" x="-4.341" y="5.705" width="0.3" height="0.3" transform="rotate(180,-4.191,5.855)" />
    <rect id="tm-1726" x="-3.684" y="5.705" width="0.3" height="0.3" transform="rotate(180,-3.534,5.855)" />
    <rect id="tm-1727" x="-3.1" y="5.705" width="0.3" height="0.3" transform="rotate(180,-2.95,5.855)" />
    <rect id="tm-1728" x="-6.471" y="10.656" width="0.3" height="0.3" transform="rotate(240,-6.321,10.806)" />
    <rect id="tm-1729" x="-6.471" y="6.797" width="0.3" height="0.3" transform="rotate(240,-6.321,6.947)" />
    <rect id="tm-1730" x="-12.072" y="7.991" width="0.3" height="0.3" transform="rotate(120,-11.922,8.141)" />
    <rect id="tm-1731" x="-12.072" y="10.658" width="0.3" height="0.3" transform="rotate(120,-11.922,10.808)" />
    <rect id="tm-1732" x="-10.437" y="12.56" width="0.3" height="0.3" transform="rotate(90,-10.287,12.71)" />
    <rect id="tm-1733" x="-9.351" y="3.114" width="0.3" height="0.3" transform="rotate(240,-9.201,3.264)" />
    <rect id="tm-1734" x="-12.072" y="3.038" width="0.3" height="0.3" transform="rotate(120,-11.922,3.188)" />
    <rect id="tm-1735" x="-9.592" y="5.6" width="0.3" height="0.3" transform="rotate(180,-9.442,5.75)" />
    <rect id="tm-1736" x="-10.253" y="5.6" width="0.3" height="0.3" transform="rotate(180,-10.103,5.75)" />
    <rect id="tm-1737" x="-10.839" y="5.6" width="0.3" height="0.3" transform="rotate(180,-10.689,5.75)" />
    <rect id="tm-1738" x="-15.393" y="10.201" width="0.3" height="0.3" transform="rotate(240,-15.243,10.351)" />
    <rect id="tm-1739" x="-15.393" y="7.076" width="0.3" height="0.3" transform="rotate(240,-15.243,7.226)" />
    <rect id="tm-1740" x="-17.854" y="12.56" width="0.3" height="0.3" transform="rotate(90,-17.704,12.71)" />
    <rect id="tm-1741" x="-22.172" y="12.56" width="0.3" height="0.3" transform="rotate(90,-22.022,12.71)" />
    <rect id="tm-1742" x="-25.982" y="12.56" width="0.3" height="0.3" transform="rotate(90,-25.832,12.71)" />
    <rect id="tm-1743" x="-27.614" y="8.905" width="0.3" height="0.3" transform="rotate(120,-27.464,9.055)" />
    <rect id="tm-1744" x="-33.789" y="4.181" width="0.3" height="0.3" transform="rotate(120,-33.639,4.331)" />
    <rect id="tm-1745" x="-33.789" y="1.933" width="0.3" height="0.3" transform="rotate(120,-33.639,2.083)" />
    <rect id="tm-1746" x="-27.978" y="-0.923" width="0.3" height="0.3" transform="rotate(224.981,-27.828,-0.773)" />
    <rect id="tm-1747" x="-21.411" y="-0.97" width="0.3" height="0.3" transform="rotate(224.981,-21.261,-0.82)" />
    <rect id="tm-1748" x="-32.503" y="-0.456" width="0.3" height="0.3" transform="rotate(107.018,-32.353,-0.306)" />
    <rect id="tm-1749" x="-25.921" y="-0.467" width="0.3" height="0.3" transform="rotate(107.018,-25.771,-0.317)" />
    <rect id="tm-1750" x="-19.273" y="-0.335" width="0.3" height="0.3" transform="rotate(107.018,-19.123,-0.185)" />
    <rect id="tm-1751" x="-15.393" y="-0.544" width="0.3" height="0.3" transform="rotate(240,-15.243,-0.394)" />
    <rect id="tm-1752" x="-15.393" y="3.571" width="0.3" height="0.3" transform="rotate(240,-15.243,3.721)" />
    <rect id="tm-1753" x="-30.347" y="11.318" width="0.3" height="0.3" transform="rotate(120,-30.197,11.468)" />
    <rect id="tm-1754" x="-27.818" y="5.705" width="0.3" height="0.3" transform="rotate(180,-27.668,5.855)" />
    <rect id="tm-1755" x="-21.49" y="5.705" width="0.3" height="0.3" transform="rotate(180,-21.34,5.855)" />
    <rect id="tm-1756" x="2.009" y="7.078" width="0.3" height="0.3" transform="rotate(180,2.159,7.228)" />
    <rect id="tm-1757" x="9.375" y="6.451" width="0.3" height="0.3" transform="rotate(270,9.525,6.601)" />
    <rect id="tm-1758" x="12.572" y="3.063" width="0.3" height="0.3" transform="rotate(120,12.722,3.213)" />
    <rect id="tm-1759" x="17.869" y="-2.579" width="0.3" height="0.3" transform="rotate(90,18.019,-2.429)" />
    <rect id="tm-1760" x="20.346" y="-0.043" width="0.3" height="0.3" transform="rotate(244.231,20.496,0.107)" />
    <rect id="tm-1761" x="17.525" y="0.282" width="0.3" height="0.3" transform="rotate(120,17.675,0.432)" />
    <rect id="tm-1762" x="19.114" y="-2.579" width="0.3" height="0.3" transform="rotate(90,19.264,-2.429)" />
    <rect id="tm-1763" x="18.479" y="-2.579" width="0.3" height="0.3" transform="rotate(90,18.629,-2.429)" />
    <rect id="tm-1764" x="21.12" y="-5.925" width="0.3" height="0.3" transform="rotate(244.231,21.27,-5.775)" />
    <rect id="tm-1765" x="19.249" y="-8.252" width="0.3" height="0.3" transform="rotate(185.301,19.399,-8.102)" />
    <rect id="tm-1766" x="15.859" y="-8.698" width="0.3" height="0.3" transform="rotate(185.301,16.009,-8.548)" />
    <rect id="tm-1767" x="12.575" y="-7.402" width="0.3" height="0.3" transform="rotate(120,12.725,-7.252)" />
    <rect id="tm-1768" x="15.512" y="-5.09" width="0.3" height="0.3" transform="rotate(120,15.662,-4.94)" />
    <rect id="tm-1769" x="7.441" y="-1.464" width="0.3" height="0.3" transform="rotate(120,7.591,-1.314)" />
    <rect id="tm-1770" x="7.441" y="-2.709" width="0.3" height="0.3" transform="rotate(120,7.591,-2.559)" />
    <rect id="tm-1771" x="7.441" y="-2.067" width="0.3" height="0.3" transform="rotate(120,7.591,-1.917)" />
    <rect id="tm-1772" x="3.99" y="0.533" width="0.3" height="0.3" transform="rotate(90,4.14,0.683)" />
    <rect id="tm-1773" x="10.289" y="0.533" width="0.3" height="0.3" transform="rotate(90,10.439,0.683)" />
    <rect id="tm-1774" x="1.091" y="-1.763" width="0.3" height="0.3" transform="rotate(120,1.241,-1.613)" />
    <rect id="tm-1775" x="3.276" y="-3.262" width="0.3" height="0.3" transform="rotate(240,3.426,-3.112)" />
    <rect id="tm-1776" x="1.091" y="-6.259" width="0.3" height="0.3" transform="rotate(120,1.241,-6.109)" />
    <rect id="tm-1777" x="12.277" y="-7.326" width="0.3" height="0.3" transform="rotate(240,12.427,-7.176)" />
    <rect id="tm-1778" x="12.191" y="-3.109" width="0.3" height="0.3" transform="rotate(240,12.341,-2.959)" />
    <rect id="tm-1779" x="7.14" y="-8.24" width="0.3" height="0.3" transform="rotate(180,7.29,-8.09)" />
    <rect id="tm-1780" x="3.787" y="-3.582" width="0.3" height="0.3" transform="rotate(90,3.937,-3.432)" />
    <rect id="tm-1781" x="6.708" y="-3.582" width="0.3" height="0.3" transform="rotate(90,6.858,-3.432)" />
    <rect id="tm-1782" x="4.549" y="-3.398" width="0.3" height="0.3" transform="rotate(180,4.699,-3.248)" />
    <rect id="tm-1783" x="6.073" y="-3.398" width="0.3" height="0.3" transform="rotate(180,6.223,-3.248)" />
    <rect id="tm-1784" x="3.46" y="-1.23" width="0.3" height="0.3" transform="rotate(120,3.61,-1.08)" />
    <rect id="tm-1785" x="-3.884" y="0.533" width="0.3" height="0.3" transform="rotate(90,-3.734,0.683)" />
    <rect id="tm-1786" x="0.793" y="-1.763" width="0.3" height="0.3" transform="rotate(240,0.943,-1.613)" />
    <rect id="tm-1787" x="-6.173" y="-1.763" width="0.3" height="0.3" transform="rotate(120,-6.023,-1.613)" />
    <rect id="tm-1788" x="-4.573" y="-3.414" width="0.3" height="0.3" transform="rotate(240,-4.423,-3.264)" />
    <rect id="tm-1789" x="-2.276" y="-3.398" width="0.3" height="0.3" transform="rotate(180,-2.126,-3.248)" />
    <rect id="tm-1790" x="-3.708" y="-3.398" width="0.3" height="0.3" transform="rotate(180,-3.558,-3.248)" />
    <rect id="tm-1791" x="-4.389" y="-1.179" width="0.3" height="0.3" transform="rotate(120,-4.239,-1.029)" />
    <rect id="tm-1792" x="-0.782" y="-2.734" width="0.3" height="0.3" transform="rotate(120,-0.632,-2.584)" />
    <rect id="tm-1793" x="-0.782" y="-1.464" width="0.3" height="0.3" transform="rotate(120,-0.632,-1.314)" />
    <rect id="tm-1794" x="-0.782" y="-2.099" width="0.3" height="0.3" transform="rotate(120,-0.632,-1.949)" />
    <rect id="tm-1795" x="-6.173" y="-6.157" width="0.3" height="0.3" transform="rotate(120,-6.023,-6.007)" />
    <rect id="tm-1796" x="0.793" y="-6.259" width="0.3" height="0.3" transform="rotate(240,0.943,-6.109)" />
    <rect id="tm-1797" x="-2.698" y="-9.161" width="0.3" height="0.3" transform="rotate(180,-2.548,-9.011)" />
    <rect id="tm-1798" x="-15.095" y="-6.157" width="0.3" height="0.3" transform="rotate(120,-14.945,-6.007)" />
    <rect id="tm-1799" x="-6.471" y="-6.157" width="0.3" height="0.3" transform="rotate(240,-6.321,-6.007)" />
    <rect id="tm-1800" x="-10.914" y="-8.545" width="0.3" height="0.3" transform="rotate(180,-10.764,-8.395)" />
    <rect id="tm-1801" x="-12.571" y="-3.582" width="0.3" height="0.3" transform="rotate(90,-12.421,-3.432)" />
    <rect id="tm-1802" x="-10.132" y="-3.582" width="0.3" height="0.3" transform="rotate(90,-9.982,-3.432)" />
    <rect id="tm-1803" x="-12.98" y="-3.262" width="0.3" height="0.3" transform="rotate(240,-12.83,-3.112)" />
    <rect id="tm-1804" x="-8.815" y="-2.696" width="0.3" height="0.3" transform="rotate(120,-8.665,-2.546)" />
    <rect id="tm-1805" x="-12.796" y="-1.255" width="0.3" height="0.3" transform="rotate(120,-12.646,-1.105)" />
    <rect id="tm-1806" x="-15.095" y="-1.763" width="0.3" height="0.3" transform="rotate(120,-14.945,-1.613)" />
    <rect id="tm-1807" x="-12.113" y="0.533" width="0.3" height="0.3" transform="rotate(90,-11.963,0.683)" />
    <rect id="tm-1808" x="-6.471" y="-2.068" width="0.3" height="0.3" transform="rotate(240,-6.321,-1.918)" />
    <rect id="tm-1809" x="-8.815" y="-2.03" width="0.3" height="0.3" transform="rotate(120,-8.665,-1.88)" />
    <rect id="tm-1810" x="-8.815" y="-1.446" width="0.3" height="0.3" transform="rotate(120,-8.665,-1.296)" />
    <rect id="tm-1811" x="-10.285" y="-3.398" width="0.3" height="0.3" transform="rotate(180,-10.135,-3.248)" />
    <rect id="tm-1812" x="-11.579" y="-3.398" width="0.3" height="0.3" transform="rotate(180,-11.429,-3.248)" />
    <rect id="tm-1813" x="7.597" y="6.451" width="0.3" height="0.3" transform="rotate(270,7.747,6.601)" />
    <rect id="tm-1814" x="-15.393" y="11.598" width="0.3" height="0.3" transform="rotate(240,-15.243,11.748)" />
    <rect id="tm-1815" x="-9.156" y="2.86" width="0.3" height="0.3" transform="rotate(120,-9.006,3.01)" />
    <rect id="tm-1816" x="-4.417" y="2.962" width="0.3" height="0.3" transform="rotate(240,-4.267,3.112)" />
    <rect id="tm-1817" x="6.759" y="4.441" width="0.3" height="0.3" transform="rotate(90,6.909,4.591)" />
    <rect id="tm-1818" x="15.488" y="2.967" width="0.3" height="0.3" transform="rotate(120,15.638,3.117)" />
    <rect id="tm-1819" x="17.327" y="0.18" width="0.3" height="0.3" transform="rotate(240,17.477,0.33)" />
    <rect id="tm-1820" x="7.159" y="-1.449" width="0.3" height="0.3" transform="rotate(180,7.309,-1.299)" />
    <rect id="tm-1821" x="-1.115" y="-1.434" width="0.3" height="0.3" transform="rotate(180,-0.965,-1.284)" />
    <rect id="tm-1822" x="-9.091" y="-1.449" width="0.3" height="0.3" transform="rotate(180,-8.941,-1.299)" />
  </g>
</svg>