<?xml version="1.0" encoding="utf-8"?>
<svg xmlns="http://www.w3.org/2000/svg" viewBox="-34.940 -13.977 57.563 24.434">
  <g transform="scale(1,-1)">
    <path id="w-763" d="M -12.068,2.745 L -1.492,2.745" />
    <path id="w-764" d="M -15.094,0.76 L 12.381,0.76" />
    <path id="w-765" d="M 15.623,0.76 L 20.581,0.76" />
    <path id="w-766" d="M 17.127,0.76 L 17.127,2.745" />
    <path id="w-767" d="M -1.492,5.713 L -1.492,2.745" />
    <path id="w-768" d="M 1.092,2.745 L 17.127,2.745" />
    <path id="w-769" d="M -13.491,-0.598 L -12.738,-0.598" />
    <path id="w-770" d="M -12.738,-3.624 L -12.738,-0.629" />
    <path id="w-771" d="M -8.757,-3.37 L -9.825,-3.37" />
    <path id="w-772" d="M -8.726,-0.598 L -8.726,-1.36" />
    <path id="w-773" d="M -13.491,-3.624 L -12.738,-3.624" />
    <path id="w-774" d="M -9.825,-1.36 L -8.726,-1.36" />
    <path id="w-775" d="M -8.757,-3.624 L -8.004,-3.624" />
    <path id="w-776" d="M -9.825,-3.34 L -9.825,-2.734" />
    <path id="w-777" d="M -12.738,-1.535 L -11.935,-1.535" />
    <path id="w-778" d="M -8.726,-0.598 L -8.004,-0.598" />
    <path id="w-779" d="M -9.825,-0.598 L -8.726,-0.598" />
    <path id="w-780" d="M 2.765,-0.598 L 3.518,-0.598" />
    <path id="w-781" d="M 3.518,-3.624 L 3.518,-0.629" />
    <path id="w-782" d="M 7.499,-3.37 L 6.431,-3.37" />
    <path id="w-783" d="M 7.53,-0.598 L 7.53,-1.36" />
    <path id="w-784" d="M 2.765,-3.624 L 3.518,-3.624" />
    <path id="w-785" d="M 6.431,-1.36 L 7.53,-1.36" />
    <path id="w-786" d="M 7.499,-3.624 L 8.252,-3.624" />
    <path id="w-787" d="M 6.431,-3.34 L 6.431,-2.734" />
    <path id="w-788" d="M 3.518,-1.535 L 4.321,-1.535" />
    <path id="w-789" d="M 7.53,-0.598 L 8.252,-0.598" />
    <path id="w-790" d="M 6.431,-0.598 L 7.53,-0.598" />
    <path id="w-791" d="M 10.798,3.951 L 10.046,3.951" />
    <path id="w-792" d="M 10.046,6.977 L 10.046,3.981" />
    <path id="w-793" d="M 6.064,6.723 L 7.45,6.723" />
    <path id="w-794" d="M 6.034,3.951 L 6.034,4.653" />
    <path id="w-795" d="M 10.798,6.977 L 10.046,6.977" />
    <path id="w-796" d="M 7.133,3.981 L 7.133,4.653" />
    <path id="w-797" d="M 7.133,4.653 L 6.034,4.653" />
    <path id="w-798" d="M 6.064,6.977 L 5.312,6.977" />
    <path id="w-799" d="M 7.099,6.09 L 7.099,5.661" />
    <path id="w-800" d="M 10.046,4.866 L 9.242,4.866" />
    <path id="w-801" d="M 6.034,3.951 L 5.312,3.951" />
    <path id="w-802" d="M 7.133,3.951 L 6.034,3.951" />
    <path id="w-803" d="M -5.058,-0.598 L -4.331,-0.598" />
    <path id="w-804" d="M -1.792,-3.34 L -4.331,-3.34" />
    <path id="w-805" d="M -0.694,-0.598 L -0.694,-1.36" />
    <path id="w-806" d="M -1.792,-0.629 L -1.792,-3.37" />
    <path id="w-807" d="M -1.792,-1.36 L -0.724,-1.36" />
    <path id="w-808" d="M -0.724,-3.624 L 0.029,-3.624" />
    <path id="w-809" d="M -0.694,-0.598 L 0.029,-0.598" />
    <path id="w-810" d="M -1.792,-0.598 L -0.694,-0.598" />
    <path id="w-811" d="M -4.331,-3.624 L -4.331,-0.629" />
    <path id="w-812" d="M -5.058,-3.624 L -4.331,-3.624" />
    <path id="w-813" d="M -4.331,-1.535 L -3.477,-1.535" />
    <path id="w-814" d="M -13.911,5.663 L -13.911,2.729" />
    <path id="w-815" d="M -13.911,2.729 L -15.094,2.729" />
    <path id="w-816" d="M 17.583,0.76 L 17.583,-2.337" />
    <path id="w-817" d="M 16.943,0.76 L 16.943,-0.772" />
    <path id="w-818" d="M 20.989,-2.337 L 16.943,-2.337" />
    <path id="w-819" d="M 16.943,-2.337 L 16.943,-3.14" />
    <path id="w-820" d="M 20.753,-1.411 L 19.61,-1.411" />
    <path id="w-821" d="M 20.73,-0.373 L 19.61,-0.373" />
    <path id="w-822" d="M 16.943,-0.772 L 17.583,-0.772" />
    <path id="w-823" d="M 15.532,2.745 L 15.532,4.077" />
    <path id="w-824" d="M 16.293,2.745 L 16.293,4.077" />
    <path id="w-825" d="M 12.573,5.658 L 16.293,5.658" />
    <path id="w-826" d="M 16.293,5.658 L 16.293,6.48" />
    <path id="w-827" d="M 12.573,4.713 L 13.637,4.713" />
    <path id="w-828" d="M 12.573,3.675 L 13.637,3.675" />
    <path id="w-829" d="M -28.612,-2.881 L -32.973,-0.894" />
    <path id="w-830" d="M -32.827,-0.96 L -32.34,0.109" />
    <path id="w-831" d="M -28.612,-2.881 L -26.944,0.778" />
    <path id="w-832" d="M -22.02,-2.87 L -26.381,-0.883" />
    <path id="w-833" d="M -26.235,-0.95 L -25.771,0.068" />
    <path id="w-834" d="M -22.02,-2.87 L -20.352,0.789" />
    <path id="w-835" d="M -15.427,-2.86 L -19.789,-0.873" />
    <path id="w-836" d="M -19.643,-0.939 L -19.179,0.078" />
    <path id="w-837" d="M -15.427,-2.86 L -15.13,-2.208" />
    <path id="w-838" d="M -8.757,-1.36 L -8.757,-3.624" />
    <path id="w-839" d="M 7.499,-1.36 L 7.499,-3.624" />
    <path id="w-840" d="M 6.064,4.653 L 6.064,6.977" />
    <path id="w-841" d="M -0.724,-1.36 L -0.724,-3.624" />
    <path id="w-842" d="M 7.45,6.723 L 7.45,6.09" />
    <path id="w-843" d="M 7.099,5.661 L 7.483,5.661" />
    <path id="w-844" d="M 7.099,6.09 L 7.483,6.09" />
    <path id="w-845" d="M 7.483,6.09 L 7.483,5.661" />
    <path id="w-846" d="M 6.064,6.026 L 7.099,6.026" />
    <path id="w-847" d="M -9.112,2.745 L -9.112,4.077" />
    <path id="w-848" d="M -8.352,2.745 L -8.352,4.077" />
    <path id="w-849" d="M -12.154,5.658 L -8.352,5.658" />
    <path id="w-850" d="M -8.352,5.658 L -8.352,6.48" />
    <path id="w-851" d="M -12.03,4.713 L -11.008,4.713" />
    <path id="w-852" d="M -12.03,3.675 L -11.008,3.675" />
    <path id="w-853" d="M -12.068,2.745 L -12.068,0.76" />
    <path id="w-854" d="M -12.03,2.745 L -12.03,5.663" />
    <path id="w-855" d="M -11.962,12.87 L -11.962,5.663" />
    <path id="w-856" d="M -11.962,5.663 L -15.203,5.663" />
    <path id="w-857" d="M 1.233,8.561 L -1.894,8.561" />
    <path id="w-858" d="M -1.894,8.561 L -1.894,5.713" />
    <path id="w-859" d="M 1.233,8.561 L 1.233,7.15" />
    <path id="w-860" d="M 1.218,5.713 L -1.894,5.713" />
    <path id="w-861" d="M 1.218,5.713 L 1.218,6.159" />
    <path id="w-862" d="M -4.653,4.129 L -4.653,5.766" />
    <path id="w-863" d="M -4.175,2.745 L -4.175,4.129" />
    <path id="w-864" d="M -4.82,2.745 L -4.82,4.129" />
    <path id="w-865" d="M -4.82,4.129 L -4.175,4.129" />
    <path id="w-866" d="M -4.623,5.766 L -1.934,5.766" />
    <path id="w-867" d="M -1.492,4.697 L -2.515,4.697" />
    <path id="w-868" d="M 7.45,6.693 L 10.046,6.693" />
    <path id="w-869" d="M -30.326,5.663 L -33.825,5.663" />
    <path id="w-870" d="M -27.518,10.492 L -30.282,10.492" />
    <path id="w-871" d="M -30.282,12.87 L -30.282,10.492" />
    <path id="w-872" d="M -27.518,7.644 L -30.326,7.644" />
    <path id="w-873" d="M -27.518,10.492 L -27.518,7.644" />
    <path id="w-874" d="M -30.326,7.644 L -30.326,5.663" />
    <path id="w-875" d="M -28.002,12.87 L -28.002,10.492" />
    <path id="w-876" d="M -15.203,12.87 L -15.203,5.623" />
    <path id="w-877" d="M 12.381,0.916 L 12.381,-6.326" />
    <path id="w-878" d="M 15.623,0.916 L 15.623,-6.326" />
    <path id="w-879" d="M 15.623,0.916 L 12.381,0.916" />
    <path id="w-880" d="M 15.623,-6.326 L 12.381,-6.326" />
    <path id="w-881" d="M -15.13,-2.208 L -15.13,-7.998" />
    <path id="w-882" d="M -15.094,5.663 L -15.094,-2.633" />
    <path id="w-883" d="M 7.025,-3.632 L 7.025,-3.37" />
    <path id="w-884" d="M 2.811,4.05 L 2.811,2.745" />
    <path id="w-885" d="M -9.825,-3.34 L -12.738,-3.34" />
    <path id="w-886" d="M 6.431,-3.34 L 3.518,-3.34" />
    <path id="w-887" d="M -9.825,-2.734 L -8.757,-2.734" />
    <path id="w-888" d="M 6.431,-2.734 L 7.499,-2.734" />
    <path id="w-889" d="M -6.475,-8.504 L -14.754,-8.504" />
    <path id="w-890" d="M -15.13,-7.998 L -14.754,-7.998" />
    <path id="w-891" d="M -14.754,-7.998 L -14.754,-8.504" />
    <path id="w-892" d="M -14.754,-3.874 L -6.477,-3.874" />
    <path id="w-893" d="M -14.754,-8.379 L -6.477,-8.379" />
    <path id="w-267" d="M -6.02,-9.095 L 1.092,-9.095" />
    <path id="w-268" d="M -5.907,-9.011 L -5.907,-8.668" />
    <path id="w-894" d="M 1.092,-9.082 L 12.576,-9.082" />
    <path id="w-895" d="M 1.357,-9.082 L 1.357,-8.7" />
    <path id="w-896" d="M 21.516,-7.57 L 21.244,-7.606" />
    <path id="w-897" d="M 21.266,-7.776 L 21.244,-7.606" />
    <path id="w-898" d="M 12.686,-9.071 L 21.327,-7.933" />
    <path id="w-899" d="M 12.838,-8.935 L 12.838,-8.7" />
    <path id="w-900" d="M -6.172,0.762 L 1.092,0.762" />
    <path id="w-901" d="M -5.867,-8.379 L 0.787,-8.379" />
    <path id="w-902" d="M -33.825,0.762 L -15.094,0.762" />
    <path id="w-903" d="M -14.945,-8.138 L -14.945,5.663" />
    <path id="w-904" d="M -11.962,12.621 L -6.477,12.621" />
    <path id="w-905" d="M 1.397,-8.401 L 6.985,-8.401" />
    <path id="w-906" d="M 12.838,-8.822 L 21.258,-7.713" />
    <path id="w-907" d="M -4.623,5.766 L -4.623,6.569" />
    <path id="w-908" d="M 10.046,3.981 L 7.133,3.981" />
    <path id="w-909" d="M -12.738,-0.629 L -9.825,-0.629" />
    <path id="w-910" d="M 3.518,-0.629 L 6.431,-0.629" />
    <path id="w-911" d="M -4.331,-0.629 L -1.792,-0.629" />
    <path id="w-912" d="M 12.722,6.407 L 16.297,6.407" />
    <path id="w-913" d="M 16.297,6.407 L 16.297,2.823" />
    <path id="w-914" d="M -11.922,6.407 L -8.347,6.407" />
    <path id="w-915" d="M -8.347,6.407 L -8.347,2.823" />
    <path id="w-916" d="M -11.962,5.855 L -6.477,5.855" />
    <path id="w-917" d="M -14.754,0.76 L -6.477,0.76" />
    <path id="w-918" d="M -5.867,12.621 L 0.787,12.621" />
    <path id="w-919" d="M -6.172,5.855 L -1.894,5.855" />
    <path id="w-920" d="M 1.092,12.621 L 7.29,12.621" />
    <path id="w-921" d="M 1.218,5.855 L 7.071,5.855" />
    <path id="w-922" d="M 7.29,12.621 L 12.573,12.621" />
    <path id="w-923" d="M 7.512,5.855 L 12.573,5.855" />
    <path id="w-924" d="M 12.573,12.621 L 19.02,12.621" />
    <path id="w-925" d="M 12.573,5.855 L 19.395,5.855" />
    <path id="w-926" d="M -6.172,-3.874 L 1.092,-3.874" />
    <path id="w-927" d="M 1.092,-3.874 L 6.985,-3.874" />
    <path id="w-928" d="M 7.595,-3.874 L 12.381,-3.874" />
    <path id="w-929" d="M 15.623,-3.874 L 20.676,-3.874" />
    <path id="w-930" d="M 19.334,0.76 L 19.334,1.876" />
    <path id="w-931" d="M 19.334,1.876 L 20.434,1.876" />
    <path id="w-932" d="M 1.092,0.76 L 6.985,0.76" />
    <path id="w-933" d="M 7.595,0.76 L 12.381,0.76" />
    <path id="w-934" d="M -4.842,2.823 L -4.842,6.525" />
    <path id="w-935" d="M -4.842,6.525 L -1.934,6.525" />
    <path id="w-936" d="M 5.366,7.01 L 10.744,7.01" />
    <path id="w-937" d="M 10.744,7.01 L 10.744,3.943" />
    <path id="w-938" d="M 10.744,3.943 L 5.366,3.943" />
    <path id="w-939" d="M 5.366,3.943 L 5.366,7.01" />
    <path id="w-940" d="M -13.437,-0.591 L -8.058,-0.591" />
    <path id="w-941" d="M -8.058,-0.591 L -8.058,-3.632" />
    <path id="w-942" d="M -8.058,-3.632 L -13.437,-3.632" />
    <path id="w-943" d="M -13.437,-3.632 L -13.437,-0.591" />
    <path id="w-944" d="M 2.819,-0.591 L 8.198,-0.591" />
    <path id="w-945" d="M 8.198,-0.591 L 8.198,-3.632" />
    <path id="w-946" d="M 8.198,-3.632 L 2.819,-3.632" />
    <path id="w-947" d="M 2.819,-3.632 L 2.819,-0.591" />
    <path id="w-948" d="M 20.897,-3.105 L 16.935,-3.105" />
    <path id="w-949" d="M 16.935,-3.105 L 16.935,0.683" />
    <path id="w-950" d="M -5.004,-0.591 L -0.025,-0.591" />
    <path id="w-951" d="M -0.025,-0.591 L -0.025,-3.67" />
    <path id="w-952" d="M -0.025,-3.67 L -5.004,-3.67" />
    <path id="w-953" d="M -5.004,-3.67 L -5.004,-0.591" />
    <path id="w-954" d="M -32.297,0.203 L -32.042,0.762" />
    <path id="w-955" d="M -25.705,0.213 L -25.455,0.762" />
    <path id="w-956" d="M -19.113,0.224 L -18.868,0.762" />
    <path id="w-957" d="M 7.595,-8.401 L 12.268,-8.401" />
    <path id="w-958" d="M 15.532,4.077 L 15.532,5.658" />
    <path id="w-959" d="M -9.112,4.077 L -9.112,5.658" />
    <path id="w-960" d="M 15.532,4.077 L 16.293,4.077" />
    <path id="w-961" d="M -9.112,4.077 L -8.352,4.077" />
    <path id="w-962" d="M -0.724,-3.37 L -1.792,-3.37" />
    <path id="w-963" d="M -1.792,-2.734 L -0.724,-2.734" />
    <path id="w-964" d="M -30.282,12.631 L -27.924,12.631" />
    <path id="w-965" d="M -30.326,5.855 L -15.203,5.855" />
    <path id="w-966" d="M -27.368,12.631 L -21.641,12.631" />
    <path id="w-967" d="M -21.031,12.631 L -15.203,12.631" />
    <path id="w-968" d="M 15.662,0.756 L 20.065,0.756" />
    <path id="w-969" d="M -9.825,-2.734 L -9.825,-0.629" />
    <path id="w-970" d="M 6.431,-2.734 L 6.431,-0.629" />
    <path id="w-1077" d="M -6.172,-9.35 L 1.092,-9.35" />
    <path id="w-1078" d="M 1.092,-9.35 L 1.092,-8.385" />
    <path id="w-1079" d="M -6.172,-9.35 L -6.172,-8.385" />
    <path id="w-1147" d="M -33.833,7.414 L -15.011,7.414" />
  </g>
</svg>