<?xml version="1.0" encoding="utf-8"?>
<svg xmlns="http://www.w3.org/2000/svg" viewBox="-133.979 188.910 25.184 23.471">
  <g transform="scale(1,-1)">
    <polygon id="sp-36" points="-115.355,-189.394 -133.495,-189.394 -133.495,-199.152 -125.269,-199.152 -125.269,-201.445 -115.355,-201.445 -115.355,-199.12 -115.355,-195.158" fill="rgba(0,0,255,0.1)" stroke="blue" stroke-width="0.05" />
    <polygon id="sp-37" points="-109.28,-211.896 -109.28,-204.09 -111.618,-204.09 -117.374,-209.273 -117.374,-211.896" fill="rgba(0,0,255,0.1)" stroke="blue" stroke-width="0.05" />
    <polygon id="sp-42" points="-111.698,-195.215 -115.241,-195.215 -115.241,-199.063 -112.612,-199.063 -111.698,-199.063" fill="rgba(0,0,255,0.1)" stroke="blue" stroke-width="0.05" />
    <polygon id="sp-43" points="-111.698,-189.394 -115.241,-189.394 -115.241,-195.101 -111.698,-195.101" fill="rgba(0,0,255,0.1)" stroke="blue" stroke-width="0.05" />
    <polygon id="sp-44" points="-115.241,-201.445 -112.669,-201.445 -112.669,-199.178 -115.241,-199.178" fill="rgba(0,0,255,0.1)" stroke="blue" stroke-width="0.05" />
    <polygon id="sp-45" points="-133.495,-199.267 -133.495,-205.972 -126.094,-205.972 -125.383,-204.733 -125.383,-201.502 -125.383,-199.267" fill="rgba(0,0,255,0.1)" stroke="blue" stroke-width="0.05" />
  </g>
</svg>