<?xml version="1.0" encoding="utf-8"?>
<svg xmlns="http://www.w3.org/2000/svg" viewBox="-34.315 -23.322 56.245 32.983">
  <g transform="scale(1,-1)">
    <line id="co-1" x1="8.966" y1="4" x2="8.966" y2="4" stroke="black" stroke-width="0.1" stroke-linecap="square" />
    <line id="co-2" x1="8.966" y1="3.607" x2="8.966" y2="2.784" stroke="black" stroke-width="0.1" stroke-linecap="square" />
    <line id="co-3" x1="9.36" y1="2.391" x2="16.98" y2="2.391" stroke="black" stroke-width="0.1" stroke-linecap="square" />
    <line id="co-8" x1="8.649" y1="3.607" x2="8.649" y2="2.642" stroke="black" stroke-width="0.1" stroke-linecap="square" />
    <line id="co-9" x1="16.98" y1="2.248" x2="9.042" y2="2.248" stroke="black" stroke-width="0.1" stroke-linecap="square" />
    <line id="co-10" x1="-4.642" y1="2.642" x2="-4.642" y2="5.075" stroke="black" stroke-width="0.1" stroke-linecap="square" />
    <line id="co-11" x1="-4.642" y1="6.159" x2="-4.642" y2="6.16" stroke="black" stroke-width="0.1" stroke-linecap="square" />
    <line id="co-12" x1="16.989" y1="2.248" x2="-4.248" y2="2.248" stroke="black" stroke-width="0.1" stroke-linecap="square" />
    <line id="co-13" x1="-8.655" y1="3.702" x2="-8.655" y2="2.508" stroke="black" stroke-width="0.1" stroke-linecap="square" />
    <line id="co-14" x1="-8.655" y1="4.096" x2="-8.655" y2="4.096" stroke="black" stroke-width="0.1" stroke-linecap="square" />
    <line id="co-15" x1="-11.354" y1="-0.254" x2="-11.354" y2="1.568" stroke="black" stroke-width="0.1" stroke-linecap="square" />
    <line id="co-16" x1="-11.354" y1="-0.648" x2="-11.354" y2="-0.648" stroke="black" stroke-width="0.1" stroke-linecap="square" />
    <line id="co-17" x1="15.913" y1="2.115" x2="16.981" y2="2.115" stroke="black" stroke-width="0.1" stroke-linecap="square" />
    <line id="co-18" x1="15.519" y1="2.115" x2="15.519" y2="2.115" stroke="black" stroke-width="0.1" stroke-linecap="square" />
    <line id="co-95" x1="16.37" y1="2.391" x2="16.989" y2="2.391" stroke="black" stroke-width="0.1" stroke-linecap="square" />
    <line id="co-96" x1="15.977" y1="3.702" x2="15.977" y2="2.784" stroke="black" stroke-width="0.1" stroke-linecap="square" />
    <line id="co-98" x1="16.989" y1="1.962" x2="-10.96" y2="1.962" stroke="black" stroke-width="0.1" stroke-linecap="square" />
    <line id="co-181" x1="19.357" y1="1.962" x2="17.993" y2="1.962" stroke="black" stroke-width="0.1" stroke-linecap="square" />
    <line id="co-182" x1="19.357" y1="2.115" x2="17.985" y2="2.115" stroke="black" stroke-width="0.1" stroke-linecap="square" />
    <line id="co-183" x1="19.357" y1="2.115" x2="17.985" y2="2.115" stroke="black" stroke-width="0.1" stroke-linecap="square" />
    <line id="co-184" x1="19.357" y1="2.248" x2="17.985" y2="2.248" stroke="black" stroke-width="0.1" stroke-linecap="square" />
    <line id="co-185" x1="17.985" y1="2.391" x2="19.357" y2="2.391" stroke="black" stroke-width="0.1" stroke-linecap="square" />
    <line id="co-186" x1="17.984" y1="2.391" x2="19.357" y2="2.391" stroke="black" stroke-width="0.1" stroke-linecap="square" />
    <line id="co-187" x1="17.286" y1="2.391" x2="17.688" y2="2.391" stroke="black" stroke-width="0.1" stroke-linecap="square" />
    <line id="co-188" x1="17.687" y1="2.391" x2="17.277" y2="2.391" stroke="black" stroke-width="0.1" stroke-linecap="square" />
    <line id="co-189" x1="17.286" y1="2.248" x2="17.688" y2="2.248" stroke="black" stroke-width="0.1" stroke-linecap="square" />
    <line id="co-190" x1="17.277" y1="2.248" x2="17.687" y2="2.248" stroke="black" stroke-width="0.1" stroke-linecap="square" />
    <line id="co-191" x1="17.984" y1="2.248" x2="19.357" y2="2.248" stroke="black" stroke-width="0.1" stroke-linecap="square" />
    <line id="co-192" x1="17.286" y1="2.115" x2="17.688" y2="2.115" stroke="black" stroke-width="0.1" stroke-linecap="square" />
    <line id="co-193" x1="17.278" y1="2.115" x2="17.688" y2="2.115" stroke="black" stroke-width="0.1" stroke-linecap="square" />
    <line id="co-194" x1="17.286" y1="1.962" x2="17.696" y2="1.962" stroke="black" stroke-width="0.1" stroke-linecap="square" />
    <line id="co-265" x1="8.649" y1="4" x2="8.649" y2="4" stroke="black" stroke-width="0.1" stroke-linecap="square" />
    <line id="co-284" x1="-8.261" y1="2.115" x2="-7.301" y2="2.115" stroke="black" stroke-width="0.1" stroke-linecap="square" />
    <line id="co-499" x1="-4.642" y1="5.766" x2="-4.642" y2="5.746" stroke="black" stroke-width="0.1" stroke-linecap="square" />
    <line id="co-500" x1="-4.642" y1="5.398" x2="-4.642" y2="5.423" stroke="black" stroke-width="0.1" stroke-linecap="square" />
    <line id="co-507" x1="-6.675" y1="2.115" x2="-6.179" y2="2.115" stroke="black" stroke-width="0.1" stroke-linecap="square" />
    <line id="co-508" x1="-6.994" y1="2.115" x2="-6.982" y2="2.115" stroke="black" stroke-width="0.1" stroke-linecap="square" />
    <line id="co-509" x1="-5.553" y1="2.115" x2="16.989" y2="2.115" stroke="black" stroke-width="0.1" stroke-linecap="square" />
    <line id="co-510" x1="-5.872" y1="2.115" x2="-5.86" y2="2.115" stroke="black" stroke-width="0.1" stroke-linecap="square" />
  </g>
</svg>