<?xml version="1.0" encoding="utf-8"?>
<svg xmlns="http://www.w3.org/2000/svg" viewBox="-34.315 -23.322 56.245 32.983">
  <g transform="scale(1,-1)">
    <rect id="eq-4" x="8.588" y="3.924" width="0.3" height="0.3" fill="black" transform="rotate(180,8.738,4.074)" />
    <rect id="eq-11" x="-8.807" y="4.019" width="0.3" height="0.3" fill="black" transform="rotate(90,-8.657,4.169)" />
    <rect id="eq-12" x="-11.504" y="-0.871" width="0.3" height="0.3" fill="black" transform="rotate(90,-11.354,-0.721)" />
    <rect id="eq-13" x="-4.865" y="6.01" width="0.3" height="0.3" fill="black" transform="rotate(240,-4.715,6.16)" />
    <rect id="eq-14" x="15.296" y="1.965" width="0.3" height="0.3" fill="black" transform="rotate(240,15.446,2.115)" />
    <rect id="eq-19" x="-32.231" y="-1.265" width="0.3" height="0.3" fill="black" transform="rotate(114.55,-32.081,-1.115)" />
    <rect id="eq-20" x="-32.389" y="-1.56" width="0.3" height="0.3" fill="black" transform="rotate(114.55,-32.239,-1.41)" />
    <rect id="eq-21" x="-32.529" y="-1.866" width="0.3" height="0.3" fill="black" transform="rotate(114.55,-32.379,-1.716)" />
    <rect id="eq-22" x="-32.677" y="-2.167" width="0.3" height="0.3" fill="black" transform="rotate(114.55,-32.527,-2.017)" />
    <rect id="eq-23" x="-32.808" y="-2.488" width="0.3" height="0.3" fill="black" transform="rotate(114.55,-32.658,-2.338)" />
    <rect id="eq-24" x="-32.955" y="-2.797" width="0.3" height="0.3" fill="black" transform="rotate(114.55,-32.805,-2.647)" />
    <rect id="eq-25" x="-33.102" y="-3.104" width="0.3" height="0.3" fill="black" transform="rotate(114.55,-32.952,-2.954)" />
  </g>
</svg>