<?xml version="1.0" encoding="utf-8"?>
<svg xmlns="http://www.w3.org/2000/svg" viewBox="-34.315 -23.322 56.245 32.983">
  <g transform="scale(1,-1)">
    <rect id="tm-1" x="-8.561" y="-3.408" width="0.3" height="0.3" fill="black" transform="rotate(90,-8.411,-3.258)" />
    <rect id="tm-6" x="-8.561" y="-2.112" width="0.3" height="0.3" fill="black" transform="rotate(90,-8.411,-1.962)" />
    <rect id="tm-7" x="-8.561" y="-2.76" width="0.3" height="0.3" fill="black" transform="rotate(90,-8.411,-2.61)" />
    <rect id="tm-16" x="-14.25" y="-4.446" width="0.3" height="0.3" fill="black" transform="rotate(180,-14.1,-4.296)" />
    <rect id="tm-17" x="-14.25" y="-2.261" width="0.3" height="0.3" fill="black" transform="rotate(180,-14.1,-2.111)" />
    <rect id="tm-18" x="-14.25" y="-0.077" width="0.3" height="0.3" fill="black" transform="rotate(180,-14.1,0.073)" />
    <rect id="tm-19" x="-10.897" y="-0.077" width="0.3" height="0.3" fill="black" transform="rotate(180,-10.747,0.073)" />
    <rect id="tm-20" x="-10.897" y="-4.446" width="0.3" height="0.3" fill="black" transform="rotate(180,-10.747,-4.296)" />
    <rect id="tm-21" x="-7.538" y="-4.446" width="0.3" height="0.3" fill="black" transform="rotate(180,-7.388,-4.296)" />
    <rect id="tm-22" x="-7.538" y="-2.261" width="0.3" height="0.3" fill="black" transform="rotate(180,-7.388,-2.111)" />
    <rect id="tm-23" x="-7.538" y="-0.077" width="0.3" height="0.3" fill="black" transform="rotate(180,-7.388,0.073)" />
    <rect id="tm-40" x="-9.091" y="1.603" width="0.3" height="0.3" fill="black" />
    <rect id="tm-41" x="-2.69" y="1.603" width="0.3" height="0.3" fill="black" />
    <rect id="tm-42" x="3.711" y="1.603" width="0.3" height="0.3" fill="black" />
    <rect id="tm-43" x="10.112" y="1.603" width="0.3" height="0.3" fill="black" />
    <rect id="tm-51" x="-0.385" y="4.02" width="0.3" height="0.3" fill="black" transform="rotate(180,-0.235,4.17)" />
    <rect id="tm-55" x="-29.255" y="11.991" width="0.3" height="0.3" fill="black" transform="rotate(180,-29.105,12.141)" />
    <rect id="tm-56" x="-26.426" y="11.991" width="0.3" height="0.3" fill="black" transform="rotate(180,-26.276,12.141)" />
    <rect id="tm-57" x="-24.344" y="11.991" width="0.3" height="0.3" fill="black" transform="rotate(180,-24.194,12.141)" />
    <rect id="tm-58" x="-22.261" y="11.991" width="0.3" height="0.3" fill="black" transform="rotate(180,-22.111,12.141)" />
    <rect id="tm-59" x="-19.568" y="11.991" width="0.3" height="0.3" fill="black" transform="rotate(180,-19.418,12.141)" />
    <rect id="tm-60" x="-26.804" y="8.981" width="0.3" height="0.3" fill="black" transform="rotate(180,-26.654,9.131)" />
    <rect id="tm-61" x="-29.13" y="6.565" width="0.3" height="0.3" fill="black" transform="rotate(180,-28.98,6.715)" />
    <rect id="tm-62" x="-26.082" y="6.525" width="0.3" height="0.3" fill="black" transform="rotate(180,-25.932,6.675)" />
    <rect id="tm-63" x="-23.034" y="6.525" width="0.3" height="0.3" fill="black" transform="rotate(180,-22.884,6.675)" />
    <rect id="tm-64" x="-19.986" y="6.525" width="0.3" height="0.3" fill="black" transform="rotate(180,-19.836,6.675)" />
    <rect id="tm-65" x="-23.756" y="8.981" width="0.3" height="0.3" fill="black" transform="rotate(180,-23.606,9.131)" />
    <rect id="tm-66" x="-20.708" y="8.981" width="0.3" height="0.3" fill="black" transform="rotate(180,-20.558,9.131)" />
    <rect id="tm-67" x="-10.548" y="7.226" width="0.3" height="0.3" fill="black" transform="rotate(180,-10.398,7.376)" />
    <rect id="tm-68" x="-7.538" y="4.501" width="0.3" height="0.3" fill="black" transform="rotate(180,-7.388,4.651)" />
    <rect id="tm-69" x="-7.538" y="7.226" width="0.3" height="0.3" fill="black" transform="rotate(180,-7.388,7.376)" />
    <rect id="tm-70" x="11.258" y="7.492" width="0.3" height="0.3" fill="black" transform="rotate(180,11.408,7.642)" />
    <rect id="tm-71" x="11.258" y="5.308" width="0.3" height="0.3" fill="black" transform="rotate(180,11.408,5.458)" />
    <rect id="tm-72" x="11.258" y="3.123" width="0.3" height="0.3" fill="black" transform="rotate(180,11.408,3.273)" />
    <rect id="tm-73" x="7.905" y="3.123" width="0.3" height="0.3" fill="black" transform="rotate(180,8.055,3.273)" />
    <rect id="tm-74" x="7.905" y="7.492" width="0.3" height="0.3" fill="black" transform="rotate(180,8.055,7.642)" />
    <rect id="tm-75" x="4.546" y="7.492" width="0.3" height="0.3" fill="black" transform="rotate(180,4.696,7.642)" />
    <rect id="tm-76" x="4.546" y="5.308" width="0.3" height="0.3" fill="black" transform="rotate(180,4.696,5.458)" />
    <rect id="tm-77" x="4.546" y="3.123" width="0.3" height="0.3" fill="black" transform="rotate(180,4.696,3.273)" />
    <rect id="tm-86" x="5.568" y="5.176" width="0.3" height="0.3" fill="black" transform="rotate(90,5.718,5.326)" />
    <rect id="tm-87" x="5.568" y="6.471" width="0.3" height="0.3" fill="black" transform="rotate(90,5.718,6.621)" />
    <rect id="tm-88" x="5.568" y="5.824" width="0.3" height="0.3" fill="black" transform="rotate(90,5.718,5.974)" />
    <rect id="tm-98" x="-8.869" y="5.854" width="0.3" height="0.3" fill="black" transform="rotate(180,-8.719,6.004)" />
    <rect id="tm-99" x="-10.164" y="5.854" width="0.3" height="0.3" fill="black" transform="rotate(180,-10.014,6.004)" />
    <rect id="tm-100" x="-9.516" y="5.854" width="0.3" height="0.3" fill="black" transform="rotate(180,-9.366,6.004)" />
    <rect id="tm-119" x="-2.388" y="5.962" width="0.3" height="0.3" fill="black" transform="rotate(180,-2.238,6.112)" />
    <rect id="tm-120" x="-3.684" y="5.962" width="0.3" height="0.3" fill="black" transform="rotate(180,-3.534,6.112)" />
    <rect id="tm-121" x="-3.036" y="5.962" width="0.3" height="0.3" fill="black" transform="rotate(180,-2.886,6.112)" />
    <rect id="tm-125" x="-5.411" y="7.226" width="0.3" height="0.3" fill="black" transform="rotate(180,-5.261,7.376)" />
    <rect id="tm-126" x="-3.315" y="7.226" width="0.3" height="0.3" fill="black" transform="rotate(180,-3.165,7.376)" />
    <rect id="tm-127" x="-5.411" y="4.501" width="0.3" height="0.3" fill="black" transform="rotate(180,-5.261,4.651)" />
    <rect id="tm-128" x="-10.548" y="7.226" width="0.3" height="0.3" fill="black" transform="rotate(180,-10.398,7.376)" />
    <rect id="tm-129" x="-7.538" y="4.501" width="0.3" height="0.3" fill="black" transform="rotate(180,-7.388,4.651)" />
    <rect id="tm-130" x="-7.538" y="7.226" width="0.3" height="0.3" fill="black" transform="rotate(180,-7.388,7.376)" />
    <rect id="tm-131" x="11.258" y="7.492" width="0.3" height="0.3" fill="black" transform="rotate(180,11.408,7.642)" />
    <rect id="tm-132" x="11.258" y="5.308" width="0.3" height="0.3" fill="black" transform="rotate(180,11.408,5.458)" />
    <rect id="tm-133" x="11.258" y="3.123" width="0.3" height="0.3" fill="black" transform="rotate(180,11.408,3.273)" />
    <rect id="tm-134" x="7.905" y="3.123" width="0.3" height="0.3" fill="black" transform="rotate(180,8.055,3.273)" />
    <rect id="tm-135" x="7.905" y="7.492" width="0.3" height="0.3" fill="black" transform="rotate(180,8.055,7.642)" />
    <rect id="tm-136" x="4.546" y="7.492" width="0.3" height="0.3" fill="black" transform="rotate(180,4.696,7.642)" />
    <rect id="tm-137" x="4.546" y="5.308" width="0.3" height="0.3" fill="black" transform="rotate(180,4.696,5.458)" />
    <rect id="tm-138" x="4.546" y="3.123" width="0.3" height="0.3" fill="black" transform="rotate(180,4.696,3.273)" />
    <rect id="tm-139" x="-10.548" y="7.226" width="0.3" height="0.3" fill="black" transform="rotate(180,-10.398,7.376)" />
    <rect id="tm-140" x="-7.538" y="4.501" width="0.3" height="0.3" fill="black" transform="rotate(180,-7.388,4.651)" />
    <rect id="tm-141" x="-7.538" y="7.226" width="0.3" height="0.3" fill="black" transform="rotate(180,-7.388,7.376)" />
    <rect id="tm-142" x="11.258" y="7.492" width="0.3" height="0.3" fill="black" transform="rotate(180,11.408,7.642)" />
    <rect id="tm-143" x="11.258" y="5.308" width="0.3" height="0.3" fill="black" transform="rotate(180,11.408,5.458)" />
    <rect id="tm-144" x="11.258" y="3.123" width="0.3" height="0.3" fill="black" transform="rotate(180,11.408,3.273)" />
    <rect id="tm-145" x="7.905" y="3.123" width="0.3" height="0.3" fill="black" transform="rotate(180,8.055,3.273)" />
    <rect id="tm-146" x="7.905" y="7.492" width="0.3" height="0.3" fill="black" transform="rotate(180,8.055,7.642)" />
    <rect id="tm-147" x="4.546" y="7.492" width="0.3" height="0.3" fill="black" transform="rotate(180,4.696,7.642)" />
    <rect id="tm-148" x="4.546" y="5.308" width="0.3" height="0.3" fill="black" transform="rotate(180,4.696,5.458)" />
    <rect id="tm-149" x="4.546" y="3.123" width="0.3" height="0.3" fill="black" transform="rotate(180,4.696,3.273)" />
    <rect id="tm-150" x="-5.411" y="7.226" width="0.3" height="0.3" fill="black" transform="rotate(180,-5.261,7.376)" />
    <rect id="tm-151" x="-3.315" y="7.226" width="0.3" height="0.3" fill="black" transform="rotate(180,-3.165,7.376)" />
    <rect id="tm-152" x="-5.411" y="4.501" width="0.3" height="0.3" fill="black" transform="rotate(180,-5.261,4.651)" />
    <rect id="tm-153" x="-10.548" y="7.226" width="0.3" height="0.3" fill="black" transform="rotate(180,-10.398,7.376)" />
    <rect id="tm-154" x="-7.538" y="4.501" width="0.3" height="0.3" fill="black" transform="rotate(180,-7.388,4.651)" />
    <rect id="tm-155" x="-7.538" y="7.226" width="0.3" height="0.3" fill="black" transform="rotate(180,-7.388,7.376)" />
    <rect id="tm-156" x="11.258" y="7.492" width="0.3" height="0.3" fill="black" transform="rotate(180,11.408,7.642)" />
    <rect id="tm-157" x="11.258" y="5.308" width="0.3" height="0.3" fill="black" transform="rotate(180,11.408,5.458)" />
    <rect id="tm-158" x="11.258" y="3.123" width="0.3" height="0.3" fill="black" transform="rotate(180,11.408,3.273)" />
    <rect id="tm-159" x="7.905" y="3.123" width="0.3" height="0.3" fill="black" transform="rotate(180,8.055,3.273)" />
    <rect id="tm-160" x="7.905" y="7.492" width="0.3" height="0.3" fill="black" transform="rotate(180,8.055,7.642)" />
    <rect id="tm-161" x="4.546" y="7.492" width="0.3" height="0.3" fill="black" transform="rotate(180,4.696,7.642)" />
    <rect id="tm-162" x="4.546" y="5.308" width="0.3" height="0.3" fill="black" transform="rotate(180,4.696,5.458)" />
    <rect id="tm-163" x="4.546" y="3.123" width="0.3" height="0.3" fill="black" transform="rotate(180,4.696,3.273)" />
    <rect id="tm-179" x="1.83" y="4.993" width="0.3" height="0.3" fill="black" transform="rotate(180,1.98,5.143)" />
    <rect id="tm-182" x="0.793" y="-6.17" width="0.3" height="0.3" fill="black" transform="rotate(90,0.943,-6.02)" />
    <rect id="tm-183" x="0.793" y="-1.903" width="0.3" height="0.3" fill="black" transform="rotate(90,0.943,-1.753)" />
    <rect id="tm-184" x="-6.173" y="-6.17" width="0.3" height="0.3" fill="black" transform="rotate(90,-6.023,-6.02)" />
    <rect id="tm-185" x="-6.173" y="-1.903" width="0.3" height="0.3" fill="black" transform="rotate(90,-6.023,-1.753)" />
    <rect id="tm-221" x="12.575" y="-0.239" width="0.3" height="0.3" fill="black" transform="rotate(120,12.725,-0.089)" />
    <rect id="tm-222" x="12.575" y="-5.217" width="0.3" height="0.3" fill="black" transform="rotate(120,12.725,-5.067)" />
    <rect id="tm-224" x="15.128" y="-0.239" width="0.3" height="0.3" fill="black" transform="rotate(120,15.278,-0.089)" />
    <rect id="tm-225" x="15.128" y="-5.217" width="0.3" height="0.3" fill="black" transform="rotate(120,15.278,-5.067)" />
    <rect id="tm-240" x="-15.009" y="6.772" width="0.3" height="0.3" fill="black" transform="rotate(240,-14.859,6.922)" />
    <rect id="tm-241" x="-15.009" y="11.963" width="0.3" height="0.3" fill="black" transform="rotate(240,-14.859,12.113)" />
    <rect id="tm-252" x="-12.456" y="6.772" width="0.3" height="0.3" fill="black" transform="rotate(240,-12.306,6.922)" />
    <rect id="tm-253" x="-12.456" y="11.963" width="0.3" height="0.3" fill="black" transform="rotate(240,-12.306,12.113)" />
    <rect id="tm-264" x="-33.373" y="6.518" width="0.3" height="0.3" fill="black" transform="rotate(240,-33.223,6.668)" />
    <rect id="tm-265" x="-33.373" y="11.963" width="0.3" height="0.3" fill="black" transform="rotate(240,-33.223,12.113)" />
    <rect id="tm-276" x="-30.821" y="6.518" width="0.3" height="0.3" fill="black" transform="rotate(240,-30.671,6.668)" />
    <rect id="tm-277" x="-30.821" y="11.963" width="0.3" height="0.3" fill="black" transform="rotate(240,-30.671,12.113)" />
    <rect id="tm-472" x="-11.755" y="-3.398" width="0.3" height="0.3" fill="black" transform="rotate(240,-11.605,-3.248)" />
    <rect id="tm-476" x="-10.18" y="-3.398" width="0.3" height="0.3" fill="black" transform="rotate(240,-10.03,-3.248)" />
    <rect id="tm-495" x="-4.233" y="2.746" width="0.3" height="0.3" fill="black" transform="rotate(180,-4.083,2.896)" />
    <rect id="tm-496" x="-4.233" y="3.812" width="0.3" height="0.3" fill="black" transform="rotate(180,-4.083,3.962)" />
    <rect id="tm-499" x="9.078" y="6.451" width="0.3" height="0.3" fill="black" transform="rotate(120,9.228,6.601)" />
    <rect id="tm-500" x="7.503" y="6.451" width="0.3" height="0.3" fill="black" transform="rotate(120,7.653,6.601)" />
    <rect id="tm-663" x="5.822" y="5.603" width="0.3" height="0.3" fill="black" transform="rotate(240,5.972,5.753)" />
    <rect id="tm-664" x="5.822" y="4.308" width="0.3" height="0.3" fill="black" transform="rotate(240,5.972,4.458)" />
    <rect id="tm-665" x="2.723" y="4.943" width="0.3" height="0.3" fill="black" transform="rotate(120,2.873,5.093)" />
    <rect id="tm-666" x="5.54" y="3.739" width="0.3" height="0.3" fill="black" transform="rotate(90,5.69,3.889)" />
    <rect id="tm-667" x="9.273" y="3.739" width="0.3" height="0.3" fill="black" transform="rotate(90,9.423,3.889)" />
    <rect id="tm-668" x="10.239" y="6.889" width="0.3" height="0.3" fill="black" transform="rotate(180,10.389,7.039)" />
    <rect id="tm-669" x="7.546" y="6.635" width="0.3" height="0.3" fill="black" transform="rotate(180,7.696,6.785)" />
    <rect id="tm-670" x="9.163" y="6.635" width="0.3" height="0.3" fill="black" transform="rotate(180,9.313,6.785)" />
    <rect id="tm-671" x="9.804" y="4.247" width="0.3" height="0.3" fill="black" transform="rotate(240,9.954,4.397)" />
    <rect id="tm-672" x="2.568" y="5.12" width="0.3" height="0.3" fill="black" transform="rotate(240,2.718,5.27)" />
    <rect id="tm-673" x="12.274" y="7.533" width="0.3" height="0.3" fill="black" transform="rotate(240,12.424,7.683)" />
    <rect id="tm-674" x="12.274" y="10.581" width="0.3" height="0.3" fill="black" transform="rotate(240,12.424,10.731)" />
    <rect id="tm-675" x="9.612" y="12.56" width="0.3" height="0.3" fill="black" transform="rotate(90,9.762,12.71)" />
    <rect id="tm-676" x="3.516" y="12.56" width="0.3" height="0.3" fill="black" transform="rotate(90,3.666,12.71)" />
    <rect id="tm-677" x="1.091" y="9.896" width="0.3" height="0.3" fill="black" transform="rotate(120,1.241,10.046)" />
    <rect id="tm-678" x="9.988" y="6.314" width="0.3" height="0.3" fill="black" transform="rotate(120,10.138,6.464)" />
    <rect id="tm-679" x="5.822" y="5.044" width="0.3" height="0.3" fill="black" transform="rotate(240,5.972,5.194)" />
    <rect id="tm-680" x="9.216" y="2.517" width="0.3" height="0.3" fill="black" transform="rotate(90,9.366,2.667)" />
    <rect id="tm-681" x="3.085" y="2.517" width="0.3" height="0.3" fill="black" transform="rotate(90,3.235,2.667)" />
    <rect id="tm-682" x="9.273" y="3.739" width="0.3" height="0.3" fill="black" transform="rotate(90,9.423,3.889)" />
    <rect id="tm-683" x="-23.493" y="12.56" width="0.3" height="0.3" fill="black" transform="rotate(90,-23.343,12.71)" />
    <rect id="tm-684" x="-25.449" y="12.56" width="0.3" height="0.3" fill="black" transform="rotate(90,-25.299,12.71)" />
    <rect id="tm-685" x="-27.176" y="12.55" width="0.3" height="0.3" fill="black" transform="rotate(90,-27.026,12.7)" />
    <rect id="tm-686" x="-28.433" y="12.55" width="0.3" height="0.3" fill="black" transform="rotate(90,-28.283,12.7)" />
    <rect id="tm-687" x="-30.084" y="12.55" width="0.3" height="0.3" fill="black" transform="rotate(90,-29.934,12.7)" />
    <rect id="tm-688" x="-27.614" y="9.743" width="0.3" height="0.3" fill="black" transform="rotate(120,-27.464,9.893)" />
    <rect id="tm-689" x="-27.614" y="8.219" width="0.3" height="0.3" fill="black" transform="rotate(120,-27.464,8.369)" />
    <rect id="tm-690" x="-19.505" y="12.56" width="0.3" height="0.3" fill="black" transform="rotate(90,-19.355,12.71)" />
    <rect id="tm-691" x="-6.471" y="10.81" width="0.3" height="0.3" fill="black" transform="rotate(240,-6.321,10.96)" />
    <rect id="tm-692" x="-6.471" y="7.838" width="0.3" height="0.3" fill="black" transform="rotate(240,-6.321,7.988)" />
    <rect id="tm-693" x="-9.676" y="12.56" width="0.3" height="0.3" fill="black" transform="rotate(90,-9.526,12.71)" />
    <rect id="tm-694" x="-12.072" y="10.81" width="0.3" height="0.3" fill="black" transform="rotate(120,-11.922,10.96)" />
    <rect id="tm-695" x="-12.072" y="7.838" width="0.3" height="0.3" fill="black" transform="rotate(120,-11.922,7.988)" />
    <rect id="tm-696" x="-9.351" y="2.962" width="0.3" height="0.3" fill="black" transform="rotate(240,-9.201,3.112)" />
    <rect id="tm-697" x="-12.072" y="3.05" width="0.3" height="0.3" fill="black" transform="rotate(120,-11.922,3.2)" />
    <rect id="tm-698" x="-6.471" y="4.028" width="0.3" height="0.3" fill="black" transform="rotate(240,-6.321,4.178)" />
    <rect id="tm-699" x="-6.173" y="7.711" width="0.3" height="0.3" fill="black" transform="rotate(120,-6.023,7.861)" />
    <rect id="tm-700" x="-6.173" y="10.958" width="0.3" height="0.3" fill="black" transform="rotate(120,-6.023,11.108)" />
    <rect id="tm-701" x="-2.333" y="12.56" width="0.3" height="0.3" fill="black" transform="rotate(90,-2.183,12.71)" />
    <rect id="tm-702" x="0.793" y="10.505" width="0.3" height="0.3" fill="black" transform="rotate(240,0.943,10.655)" />
    <rect id="tm-703" x="-3.1" y="5.705" width="0.3" height="0.3" fill="black" transform="rotate(180,-2.95,5.855)" />
    <rect id="tm-704" x="-4.366" y="5.705" width="0.3" height="0.3" fill="black" transform="rotate(180,-4.216,5.855)" />
    <rect id="tm-705" x="-3.684" y="5.705" width="0.3" height="0.3" fill="black" transform="rotate(180,-3.534,5.855)" />
    <rect id="tm-706" x="-4.233" y="2.961" width="0.3" height="0.3" fill="black" transform="rotate(120,-4.083,3.111)" />
    <rect id="tm-707" x="-1.75" y="4.079" width="0.3" height="0.3" fill="black" transform="rotate(240,-1.6,4.229)" />
    <rect id="tm-708" x="-9.611" y="5.6" width="0.3" height="0.3" fill="black" transform="rotate(180,-9.461,5.75)" />
    <rect id="tm-709" x="-10.945" y="5.6" width="0.3" height="0.3" fill="black" transform="rotate(180,-10.795,5.75)" />
    <rect id="tm-710" x="-10.094" y="5.6" width="0.3" height="0.3" fill="black" transform="rotate(180,-9.944,5.75)" />
    <rect id="tm-711" x="-12.796" y="-1.204" width="0.3" height="0.3" fill="black" transform="rotate(120,-12.646,-1.054)" />
    <rect id="tm-712" x="-8.815" y="-2.22" width="0.3" height="0.3" fill="black" transform="rotate(120,-8.665,-2.07)" />
    <rect id="tm-713" x="-8.815" y="-1.306" width="0.3" height="0.3" fill="black" transform="rotate(120,-8.665,-1.156)" />
    <rect id="tm-714" x="-8.815" y="-2.728" width="0.3" height="0.3" fill="black" transform="rotate(120,-8.665,-2.578)" />
    <rect id="tm-715" x="-11.707" y="-3.398" width="0.3" height="0.3" fill="black" transform="rotate(180,-11.557,-3.248)" />
    <rect id="tm-716" x="-10.208" y="-3.398" width="0.3" height="0.3" fill="black" transform="rotate(180,-10.058,-3.248)" />
    <rect id="tm-717" x="-15.095" y="-5.878" width="0.3" height="0.3" fill="black" transform="rotate(120,-14.945,-5.728)" />
    <rect id="tm-718" x="-12.98" y="-3.414" width="0.3" height="0.3" fill="black" transform="rotate(240,-12.83,-3.264)" />
    <rect id="tm-719" x="-6.471" y="-6.157" width="0.3" height="0.3" fill="black" transform="rotate(240,-6.321,-6.007)" />
    <rect id="tm-720" x="-6.471" y="-2.068" width="0.3" height="0.3" fill="black" transform="rotate(240,-6.321,-1.918)" />
    <rect id="tm-721" x="-12.418" y="-3.582" width="0.3" height="0.3" fill="black" transform="rotate(90,-12.268,-3.432)" />
    <rect id="tm-722" x="-10.285" y="-3.582" width="0.3" height="0.3" fill="black" transform="rotate(90,-10.135,-3.432)" />
    <rect id="tm-723" x="-12.571" y="-0.687" width="0.3" height="0.3" fill="black" transform="rotate(180,-12.421,-0.537)" />
    <rect id="tm-724" x="-15.095" y="-1.725" width="0.3" height="0.3" fill="black" transform="rotate(120,-14.945,-1.575)" />
    <rect id="tm-725" x="-10.894" y="-8.564" width="0.3" height="0.3" fill="black" transform="rotate(180,-10.744,-8.414)" />
    <rect id="tm-726" x="-3.011" y="2.517" width="0.3" height="0.3" fill="black" transform="rotate(90,-2.861,2.667)" />
    <rect id="tm-727" x="-9.107" y="2.517" width="0.3" height="0.3" fill="black" transform="rotate(90,-8.957,2.667)" />
    <rect id="tm-882" x="5.26" y="12.56" width="0.3" height="0.3" fill="black" transform="rotate(90,5.41,12.71)" />
    <rect id="tm-883" x="4.32" y="12.88" width="0.3" height="0.3" fill="black" transform="rotate(180,4.47,13.03)" />
    <rect id="tm-938" x="9.451" y="6.451" width="0.3" height="0.3" fill="black" transform="rotate(90,9.601,6.601)" />
    <rect id="tm-939" x="-2.69" y="-6.068" width="0.3" height="0.3" fill="black" transform="rotate(180,-2.54,-5.918)" />
    <rect id="tm-1052" x="-4.417" y="2.958" width="0.3" height="0.3" fill="black" transform="rotate(240,-4.267,3.108)" />
    <rect id="tm-1053" x="-9.156" y="2.865" width="0.3" height="0.3" fill="black" transform="rotate(120,-9.006,3.015)" />
    <rect id="tm-1054" x="6.733" y="4.441" width="0.3" height="0.3" fill="black" transform="rotate(90,6.883,4.591)" />
    <rect id="tm-1055" x="-9.091" y="-1.449" width="0.3" height="0.3" fill="black" transform="rotate(180,-8.941,-1.299)" />
  </g>
</svg>