<?xml version="1.0" encoding="utf-8"?>
<svg xmlns="http://www.w3.org/2000/svg" viewBox="-30.829 -13.68 52.812 25.292">
  <g transform="scale(1,-1)">
    <line id="du-28" x1="-15.37" y1="11.468" x2="-15.37" y2="12.018" stroke="black" stroke-width="0.102" stroke-linecap="square" />
    <line id="du-29" x1="-15.37" y1="11.316" x2="-15.37" y2="11.316" stroke="black" stroke-width="0.102" stroke-linecap="square" />
    <line id="du-30" x1="-15.786" y1="12.433" x2="-16.332" y2="12.433" stroke="black" stroke-width="0.102" stroke-linecap="square" />
    <line id="du-31" x1="-16.485" y1="12.586" x2="-16.485" y2="13.037" stroke="black" stroke-width="0.102" stroke-linecap="square" />
    <line id="du-38" x1="-8.879" y1="3.542" x2="-8.879" y2="6.506" stroke="black" stroke-width="0.102" stroke-linecap="square" />
    <line id="du-39" x1="-8.879" y1="3.389" x2="-8.879" y2="3.389" stroke="black" stroke-width="0.102" stroke-linecap="square" />
    <line id="du-40" x1="6.444" y1="4.602" x2="6.444" y2="11.861" stroke="black" stroke-width="0.102" stroke-linecap="square" />
    <line id="du-41" x1="6.444" y1="4.45" x2="6.444" y2="4.45" stroke="black" stroke-width="0.102" stroke-linecap="square" />
    <line id="du-42" x1="15.765" y1="3.823" x2="15.765" y2="6.522" stroke="black" stroke-width="0.102" stroke-linecap="square" />
    <line id="du-43" x1="15.765" y1="3.67" x2="15.765" y2="3.67" stroke="black" stroke-width="0.102" stroke-linecap="square" />
    <line id="du-44" x1="16.075" y1="13.037" x2="16.075" y2="6.958" stroke="black" stroke-width="0.102" stroke-linecap="square" />
    <line id="du-45" x1="16.03" y1="6.85" x2="15.81" y2="6.63" stroke="black" stroke-width="0.102" stroke-linecap="square" />
    <line id="du-78" x1="-9.031" y1="6.659" x2="-9.311" y2="6.659" stroke="black" stroke-width="0.102" stroke-linecap="square" />
    <line id="du-79" x1="-9.463" y1="6.811" x2="-9.463" y2="13.037" stroke="black" stroke-width="0.102" stroke-linecap="square" />
    <line id="du-80" x1="5.915" y1="13.037" x2="5.915" y2="12.515" stroke="black" stroke-width="0.102" stroke-linecap="square" />
    <line id="du-81" x1="6.399" y1="11.968" x2="5.96" y2="12.408" stroke="black" stroke-width="0.102" stroke-linecap="square" />
    <line id="du-90" x1="6.909" y1="-1.157" x2="6.909" y2="-1.157" stroke="black" stroke-width="0.102" stroke-linecap="square" />
    <line id="du-91" x1="6.325" y1="-4.667" x2="6.325" y2="-8.036" stroke="black" stroke-width="0.102" stroke-linecap="square" />
    <line id="du-92" x1="6.325" y1="-4.559" x2="6.325" y2="-4.13" stroke="black" stroke-width="0.102" stroke-linecap="square" />
    <line id="du-93" x1="6.325" y1="-4.023" x2="6.325" y2="-2.32" stroke="black" stroke-width="0.102" stroke-linecap="square" />
    <line id="du-94" x1="6.369" y1="-2.212" x2="6.864" y2="-1.717" stroke="black" stroke-width="0.102" stroke-linecap="square" />
    <line id="du-95" x1="6.909" y1="-1.31" x2="6.909" y2="-1.61" stroke="black" stroke-width="0.102" stroke-linecap="square" />
    <line id="du-101" x1="-9.139" y1="-1.157" x2="-6.996" y2="-1.157" stroke="black" stroke-width="0.102" stroke-linecap="square" />
    <line id="du-105" x1="-6.844" y1="-1.31" x2="-6.844" y2="-3.235" stroke="black" stroke-width="0.102" stroke-linecap="square" />
    <line id="du-106" x1="-6.844" y1="-8.256" x2="-6.844" y2="-8.899" stroke="black" stroke-width="0.102" stroke-linecap="square" />
    <line id="du-107" x1="-6.844" y1="-3.367" x2="-6.844" y2="-3.604" stroke="black" stroke-width="0.102" stroke-linecap="square" />
    <line id="du-108" x1="-6.844" y1="-3.736" x2="-6.844" y2="-4.008" stroke="black" stroke-width="0.102" stroke-linecap="square" />
    <line id="du-109" x1="-6.844" y1="-4.509" x2="-6.844" y2="-7.787" stroke="black" stroke-width="0.102" stroke-linecap="square" />
    <line id="du-110" x1="-6.844" y1="-4.14" x2="-6.844" y2="-4.377" stroke="black" stroke-width="0.102" stroke-linecap="square" />
    <line id="du-111" x1="-6.844" y1="-7.919" x2="-6.844" y2="-8.124" stroke="black" stroke-width="0.102" stroke-linecap="square" />
    <line id="du-119" x1="17.379" y1="-0.279" x2="17.379" y2="-0.279" stroke="black" stroke-width="0.102" stroke-linecap="square" />
    <line id="du-120" x1="17.702" y1="-4.487" x2="17.702" y2="-7.68" stroke="black" stroke-width="0.102" stroke-linecap="square" />
    <line id="du-121" x1="17.702" y1="-4.355" x2="17.702" y2="-4.143" stroke="black" stroke-width="0.102" stroke-linecap="square" />
    <line id="du-122" x1="17.702" y1="-4.011" x2="17.702" y2="-3.736" stroke="black" stroke-width="0.102" stroke-linecap="square" />
    <line id="du-123" x1="17.702" y1="-3.604" x2="17.702" y2="-3.391" stroke="black" stroke-width="0.102" stroke-linecap="square" />
    <line id="du-124" x1="17.702" y1="-1.596" x2="17.702" y2="-3.259" stroke="black" stroke-width="0.102" stroke-linecap="square" />
    <line id="du-129" x1="17.698" y1="-1.559" x2="17.416" y2="-0.427" stroke="black" stroke-width="0.102" stroke-linecap="square" />
    <line id="du-130" x1="6.325" y1="-8.188" x2="6.325" y2="-8.188" stroke="black" stroke-width="0.102" stroke-linecap="square" />
    <line id="du-131" x1="5.563" y1="-8.188" x2="6.172" y2="-8.188" stroke="black" stroke-width="0.102" stroke-linecap="square" />
    <line id="du-132" x1="5.41" y1="-8.188" x2="5.41" y2="-8.188" stroke="black" stroke-width="0.102" stroke-linecap="square" />
    <line id="du-136" x1="17.738" y1="-8.509" x2="17.707" y2="-7.928" stroke="black" stroke-width="0.102" stroke-linecap="square" />
    <line id="du-137" x1="17.702" y1="-7.833" x2="17.702" y2="-7.833" stroke="black" stroke-width="0.102" stroke-linecap="square" />
    <line id="du-158" x1="5.41" y1="-9.508" x2="5.41" y2="-8.34" stroke="black" stroke-width="0.102" stroke-linecap="square" />
    <line id="du-159" x1="17.777" y1="-8.826" x2="17.743" y2="-8.567" stroke="black" stroke-width="0.102" stroke-linecap="square" />
    <line id="du-171" x1="-15.415" y1="12.126" x2="-15.678" y2="12.389" stroke="black" stroke-width="0.102" stroke-linecap="square" />
    <line id="du-172" x1="-9.291" y1="-1.157" x2="-9.291" y2="-1.157" stroke="black" stroke-width="0.102" stroke-linecap="square" />
  </g>
</svg>