<?xml version="1.0" encoding="utf-8"?>
<svg xmlns="http://www.w3.org/2000/svg" viewBox="-133.85 188.888 22.611 13.501">
  <g transform="scale(1,-1)">
    <rect id="mn-466" x="-111.825" y="-196.758" width="0.05" height="0.05" fill="black" transform="rotate(180,-111.8,-196.733)" />
    <rect id="mn-467" x="-111.825" y="-196.783" width="0.05" height="0.05" fill="black" transform="rotate(270,-111.8,-196.758)" />
    <rect id="mn-468" x="-111.842" y="-199.329" width="0.05" height="0.05" fill="black" transform="rotate(180,-111.817,-199.304)" />
    <rect id="mn-469" x="-111.842" y="-199.224" width="0.05" height="0.05" fill="black" transform="rotate(90,-111.817,-199.199)" />
    <rect id="mn-470" x="-111.842" y="-197.723" width="0.05" height="0.05" fill="black" transform="rotate(120,-111.817,-197.698)" />
    <rect id="mn-471" x="-111.842" y="-197.723" width="0.05" height="0.05" fill="black" transform="rotate(240,-111.817,-197.698)" />
    <rect id="mn-472" x="-111.842" y="-198.536" width="0.05" height="0.05" fill="black" transform="rotate(120,-111.817,-198.511)" />
    <rect id="mn-473" x="-111.842" y="-198.536" width="0.05" height="0.05" fill="black" transform="rotate(240,-111.817,-198.511)" />
    <rect id="mn-474" x="-111.842" y="-198.986" width="0.05" height="0.05" fill="black" transform="rotate(180,-111.817,-198.961)" />
    <rect id="mn-475" x="-113.128" y="-198.986" width="0.05" height="0.05" fill="black" transform="rotate(90,-113.103,-198.961)" />
    <rect id="mn-476" x="-113.128" y="-198.986" width="0.05" height="0.05" fill="black" transform="rotate(240,-113.103,-198.961)" />
    <rect id="mn-477" x="-115.193" y="-198.986" width="0.05" height="0.05" fill="black" transform="rotate(240,-115.168,-198.961)" />
    <rect id="mn-478" x="-115.193" y="-198.986" width="0.05" height="0.05" fill="black" transform="rotate(240,-115.168,-198.961)" />
    <rect id="mn-479" x="-115.193" y="-198.163" width="0.05" height="0.05" fill="black" transform="rotate(120,-115.168,-198.138)" />
    <rect id="mn-480" x="-115.193" y="-198.163" width="0.05" height="0.05" fill="black" transform="rotate(270,-115.168,-198.138)" />
    <rect id="mn-481" x="-115.193" y="-198.163" width="0.05" height="0.05" fill="black" transform="rotate(240,-115.168,-198.138)" />
    <rect id="mn-482" x="-115.193" y="-189.438" width="0.05" height="0.05" fill="black" transform="rotate(180,-115.168,-189.413)" />
    <rect id="mn-483" x="-111.789" y="-189.438" width="0.05" height="0.05" fill="black" transform="rotate(90,-111.764,-189.413)" />
    <rect id="mn-484" x="-111.789" y="-193.73" width="0.05" height="0.05" fill="black" transform="rotate(270,-111.764,-193.705)" />
    <rect id="mn-485" x="-111.789" y="-193.373" width="0.05" height="0.05" fill="black" transform="rotate(240,-111.764,-193.348)" />
    <rect id="mn-486" x="-111.789" y="-193.373" width="0.05" height="0.05" fill="black" transform="rotate(180,-111.764,-193.348)" />
    <rect id="mn-487" x="-111.789" y="-193.373" width="0.05" height="0.05" fill="black" transform="rotate(120,-111.764,-193.348)" />
    <rect id="mn-488" x="-111.789" y="-192.23" width="0.05" height="0.05" fill="black" transform="rotate(240,-111.764,-192.205)" />
    <rect id="mn-489" x="-111.789" y="-192.23" width="0.05" height="0.05" fill="black" transform="rotate(180,-111.764,-192.205)" />
    <rect id="mn-490" x="-111.789" y="-192.23" width="0.05" height="0.05" fill="black" transform="rotate(120,-111.764,-192.205)" />
    <rect id="mn-491" x="-111.789" y="-191.087" width="0.05" height="0.05" fill="black" transform="rotate(240,-111.764,-191.062)" />
    <rect id="mn-492" x="-111.789" y="-191.087" width="0.05" height="0.05" fill="black" transform="rotate(180,-111.764,-191.062)" />
    <rect id="mn-493" x="-111.789" y="-191.087" width="0.05" height="0.05" fill="black" transform="rotate(120,-111.764,-191.062)" />
    <rect id="mn-494" x="-111.789" y="-189.944" width="0.05" height="0.05" fill="black" transform="rotate(240,-111.764,-189.919)" />
    <rect id="mn-495" x="-111.789" y="-189.944" width="0.05" height="0.05" fill="black" transform="rotate(180,-111.764,-189.919)" />
    <rect id="mn-496" x="-111.789" y="-189.944" width="0.05" height="0.05" fill="black" transform="rotate(120,-111.764,-189.919)" />
    <rect id="mn-497" x="-115.193" y="-189.944" width="0.05" height="0.05" fill="black" transform="rotate(120,-115.168,-189.919)" />
    <rect id="mn-498" x="-115.193" y="-189.944" width="0.05" height="0.05" fill="black" transform="rotate(270,-115.168,-189.919)" />
    <rect id="mn-499" x="-115.193" y="-189.944" width="0.05" height="0.05" fill="black" transform="rotate(240,-115.168,-189.919)" />
    <rect id="mn-500" x="-115.193" y="-191.087" width="0.05" height="0.05" fill="black" transform="rotate(120,-115.168,-191.062)" />
    <rect id="mn-501" x="-115.193" y="-191.087" width="0.05" height="0.05" fill="black" transform="rotate(270,-115.168,-191.062)" />
    <rect id="mn-502" x="-115.193" y="-191.087" width="0.05" height="0.05" fill="black" transform="rotate(240,-115.168,-191.062)" />
    <rect id="mn-503" x="-115.193" y="-192.23" width="0.05" height="0.05" fill="black" transform="rotate(120,-115.168,-192.205)" />
    <rect id="mn-504" x="-115.193" y="-192.23" width="0.05" height="0.05" fill="black" transform="rotate(270,-115.168,-192.205)" />
    <rect id="mn-505" x="-115.193" y="-192.23" width="0.05" height="0.05" fill="black" transform="rotate(240,-115.168,-192.205)" />
    <rect id="mn-506" x="-115.193" y="-193.373" width="0.05" height="0.05" fill="black" transform="rotate(120,-115.168,-193.348)" />
    <rect id="mn-507" x="-115.193" y="-193.373" width="0.05" height="0.05" fill="black" transform="rotate(270,-115.168,-193.348)" />
    <rect id="mn-508" x="-115.193" y="-193.373" width="0.05" height="0.05" fill="black" transform="rotate(240,-115.168,-193.348)" />
    <rect id="mn-509" x="-115.193" y="-197.02" width="0.05" height="0.05" fill="black" transform="rotate(120,-115.168,-196.995)" />
    <rect id="mn-510" x="-115.193" y="-197.02" width="0.05" height="0.05" fill="black" transform="rotate(270,-115.168,-196.995)" />
    <rect id="mn-511" x="-115.193" y="-197.02" width="0.05" height="0.05" fill="black" transform="rotate(240,-115.168,-196.995)" />
    <rect id="mn-512" x="-115.193" y="-195.299" width="0.05" height="0.05" fill="black" transform="rotate(90,-115.168,-195.274)" />
    <rect id="mn-513" x="-113.009" y="-195.299" width="0.05" height="0.05" fill="black" />
    <rect id="mn-514" x="-114.688" y="-195.299" width="0.05" height="0.05" fill="black" transform="rotate(120,-114.663,-195.274)" />
    <rect id="mn-515" x="-114.688" y="-195.299" width="0.05" height="0.05" fill="black" transform="rotate(90,-114.663,-195.274)" />
    <rect id="mn-516" x="-114.688" y="-195.299" width="0.05" height="0.05" fill="black" transform="rotate(120,-114.663,-195.274)" />
    <rect id="mn-517" x="-113.85" y="-195.299" width="0.05" height="0.05" fill="black" transform="rotate(90,-113.825,-195.274)" />
    <rect id="mn-518" x="-113.85" y="-195.299" width="0.05" height="0.05" fill="black" transform="rotate(240,-113.825,-195.274)" />
    <rect id="mn-519" x="-113.85" y="-195.299" width="0.05" height="0.05" fill="black" transform="rotate(180,-113.825,-195.274)" />
    <rect id="mn-520" x="-113.088" y="-195.299" width="0.05" height="0.05" fill="black" transform="rotate(90,-113.063,-195.274)" />
    <rect id="mn-521" x="-113.088" y="-195.299" width="0.05" height="0.05" fill="black" transform="rotate(240,-113.063,-195.274)" />
    <rect id="mn-522" x="-113.088" y="-195.299" width="0.05" height="0.05" fill="black" transform="rotate(180,-113.063,-195.274)" />
    <rect id="mn-523" x="-115.193" y="-195.058" width="0.05" height="0.05" fill="black" transform="rotate(90,-115.168,-195.033)" />
    <rect id="mn-524" x="-112.983" y="-195.058" width="0.05" height="0.05" fill="black" />
    <rect id="mn-525" x="-114.891" y="-195.058" width="0.05" height="0.05" fill="black" transform="rotate(240,-114.866,-195.033)" />
    <rect id="mn-526" x="-114.891" y="-195.058" width="0.05" height="0.05" fill="black" transform="rotate(90,-114.866,-195.033)" />
    <rect id="mn-527" x="-114.891" y="-195.058" width="0.05" height="0.05" fill="black" transform="rotate(120,-114.866,-195.033)" />
    <rect id="mn-528" x="-114.053" y="-195.058" width="0.05" height="0.05" fill="black" transform="rotate(90,-114.028,-195.033)" />
    <rect id="mn-529" x="-114.053" y="-195.058" width="0.05" height="0.05" fill="black" transform="rotate(120,-114.028,-195.033)" />
    <rect id="mn-530" x="-114.053" y="-195.058" width="0.05" height="0.05" fill="black" transform="rotate(270,-114.028,-195.033)" />
    <rect id="mn-531" x="-113.291" y="-195.058" width="0.05" height="0.05" fill="black" transform="rotate(90,-113.266,-195.033)" />
    <rect id="mn-532" x="-113.291" y="-195.058" width="0.05" height="0.05" fill="black" transform="rotate(120,-113.266,-195.033)" />
    <rect id="mn-533" x="-113.291" y="-195.058" width="0.05" height="0.05" fill="black" transform="rotate(270,-113.266,-195.033)" />
    <rect id="mn-534" x="-111.989" y="-199.33" width="0.05" height="0.05" fill="black" transform="rotate(180,-111.964,-199.305)" />
    <rect id="mn-535" x="-111.989" y="-199.225" width="0.05" height="0.05" fill="black" transform="rotate(90,-111.964,-199.2)" />
    <rect id="mn-536" x="-111.989" y="-199" width="0.05" height="0.05" fill="black" transform="rotate(90,-111.964,-198.975)" />
    <rect id="mn-537" x="-115.215" y="-199" width="0.05" height="0.05" fill="black" transform="rotate(270,-115.19,-198.975)" />
    <rect id="mn-538" x="-115.215" y="-194.986" width="0.05" height="0.05" fill="black" transform="rotate(180,-115.19,-194.961)" />
    <rect id="mn-539" x="-113.088" y="-194.986" width="0.05" height="0.05" fill="black" transform="rotate(90,-113.063,-194.961)" />
    <rect id="mn-540" x="-113.153" y="-194.986" width="0.05" height="0.05" fill="black" />
    <rect id="mn-541" x="-113.088" y="-194.986" width="0.05" height="0.05" fill="black" transform="rotate(270,-113.063,-194.961)" />
    <rect id="mn-542" x="-113.85" y="-194.986" width="0.05" height="0.05" fill="black" transform="rotate(90,-113.825,-194.961)" />
    <rect id="mn-543" x="-113.85" y="-194.986" width="0.05" height="0.05" fill="black" transform="rotate(120,-113.825,-194.961)" />
    <rect id="mn-544" x="-113.85" y="-194.986" width="0.05" height="0.05" fill="black" transform="rotate(270,-113.825,-194.961)" />
    <rect id="mn-545" x="-114.688" y="-194.986" width="0.05" height="0.05" fill="black" transform="rotate(240,-114.663,-194.961)" />
    <rect id="mn-546" x="-114.688" y="-194.986" width="0.05" height="0.05" fill="black" transform="rotate(90,-114.663,-194.961)" />
    <rect id="mn-547" x="-114.688" y="-194.986" width="0.05" height="0.05" fill="black" transform="rotate(120,-114.663,-194.961)" />
    <rect id="mn-548" x="-115.215" y="-195.353" width="0.05" height="0.05" fill="black" transform="rotate(90,-115.19,-195.328)" />
    <rect id="mn-549" x="-113.291" y="-195.353" width="0.05" height="0.05" fill="black" transform="rotate(90,-113.266,-195.328)" />
    <rect id="mn-550" x="-113.357" y="-195.353" width="0.05" height="0.05" fill="black" />
    <rect id="mn-551" x="-113.291" y="-195.353" width="0.05" height="0.05" fill="black" transform="rotate(180,-113.266,-195.328)" />
    <rect id="mn-552" x="-114.053" y="-195.353" width="0.05" height="0.05" fill="black" transform="rotate(120,-114.028,-195.328)" />
    <rect id="mn-553" x="-114.053" y="-195.353" width="0.05" height="0.05" fill="black" transform="rotate(90,-114.028,-195.328)" />
    <rect id="mn-554" x="-114.053" y="-195.353" width="0.05" height="0.05" fill="black" transform="rotate(120,-114.028,-195.328)" />
    <rect id="mn-555" x="-114.891" y="-195.353" width="0.05" height="0.05" fill="black" transform="rotate(120,-114.866,-195.328)" />
    <rect id="mn-556" x="-114.891" y="-195.353" width="0.05" height="0.05" fill="black" transform="rotate(90,-114.866,-195.328)" />
    <rect id="mn-557" x="-114.891" y="-195.353" width="0.05" height="0.05" fill="black" transform="rotate(120,-114.866,-195.328)" />
    <rect id="mn-558" x="-113.128" y="-199.02" width="0.05" height="0.05" fill="black" transform="rotate(270,-113.103,-198.995)" />
    <rect id="mn-559" x="-113.128" y="-198.723" width="0.05" height="0.05" fill="black" />
    <rect id="mn-560" x="-113.128" y="-198.828" width="0.05" height="0.05" fill="black" transform="rotate(270,-113.103,-198.803)" />
    <rect id="mn-561" x="-115.138" y="-198.723" width="0.05" height="0.05" fill="black" transform="rotate(270,-115.113,-198.698)" />
    <rect id="mn-562" x="-114.725" y="-198.163" width="0.05" height="0.05" fill="black" transform="rotate(120,-114.7,-198.138)" />
    <rect id="mn-563" x="-115.138" y="-198.163" width="0.05" height="0.05" fill="black" transform="rotate(180,-115.113,-198.138)" />
    <rect id="mn-564" x="-114.725" y="-197.02" width="0.05" height="0.05" fill="black" transform="rotate(120,-114.7,-196.995)" />
    <rect id="mn-565" x="-115.138" y="-197.02" width="0.05" height="0.05" fill="black" transform="rotate(180,-115.113,-196.995)" />
    <rect id="mn-566" x="-114.725" y="-193.373" width="0.05" height="0.05" fill="black" transform="rotate(120,-114.7,-193.348)" />
    <rect id="mn-567" x="-115.138" y="-193.373" width="0.05" height="0.05" fill="black" transform="rotate(180,-115.113,-193.348)" />
    <rect id="mn-568" x="-114.725" y="-192.23" width="0.05" height="0.05" fill="black" transform="rotate(120,-114.7,-192.205)" />
    <rect id="mn-569" x="-115.138" y="-192.23" width="0.05" height="0.05" fill="black" transform="rotate(180,-115.113,-192.205)" />
    <rect id="mn-570" x="-114.725" y="-191.087" width="0.05" height="0.05" fill="black" transform="rotate(120,-114.7,-191.062)" />
    <rect id="mn-571" x="-115.138" y="-191.087" width="0.05" height="0.05" fill="black" transform="rotate(180,-115.113,-191.062)" />
    <rect id="mn-572" x="-114.725" y="-189.944" width="0.05" height="0.05" fill="black" transform="rotate(120,-114.7,-189.919)" />
    <rect id="mn-573" x="-115.138" y="-189.944" width="0.05" height="0.05" fill="black" transform="rotate(180,-115.113,-189.919)" />
    <rect id="mn-574" x="-115.138" y="-189.626" width="0.05" height="0.05" fill="black" transform="rotate(90,-115.113,-189.601)" />
    <rect id="mn-575" x="-115.138" y="-194.548" width="0.05" height="0.05" fill="black" transform="rotate(90,-115.113,-194.523)" />
    <rect id="mn-576" x="-112.878" y="-194.548" width="0.05" height="0.05" fill="black" />
    <rect id="mn-577" x="-114.79" y="-194.796" width="0.05" height="0.05" fill="black" transform="rotate(270,-114.765,-194.771)" />
    <rect id="mn-578" x="-114.79" y="-194.548" width="0.05" height="0.05" fill="black" />
    <rect id="mn-579" x="-114.79" y="-194.653" width="0.05" height="0.05" fill="black" transform="rotate(270,-114.765,-194.628)" />
    <rect id="mn-580" x="-113.951" y="-194.796" width="0.05" height="0.05" fill="black" transform="rotate(270,-113.926,-194.771)" />
    <rect id="mn-581" x="-113.951" y="-194.548" width="0.05" height="0.05" fill="black" />
    <rect id="mn-582" x="-113.951" y="-194.653" width="0.05" height="0.05" fill="black" transform="rotate(270,-113.926,-194.628)" />
    <rect id="mn-583" x="-113.189" y="-194.796" width="0.05" height="0.05" fill="black" transform="rotate(270,-113.164,-194.771)" />
    <rect id="mn-584" x="-113.189" y="-194.548" width="0.05" height="0.05" fill="black" />
    <rect id="mn-585" x="-113.189" y="-194.653" width="0.05" height="0.05" fill="black" transform="rotate(270,-113.164,-194.628)" />
    <rect id="mn-586" x="-115.138" y="-195.842" width="0.05" height="0.05" fill="black" transform="rotate(90,-115.113,-195.817)" />
    <rect id="mn-587" x="-112.878" y="-195.842" width="0.05" height="0.05" fill="black" />
    <rect id="mn-588" x="-114.79" y="-195.57" width="0.05" height="0.05" fill="black" transform="rotate(180,-114.765,-195.545)" />
    <rect id="mn-589" x="-114.79" y="-195.842" width="0.05" height="0.05" fill="black" transform="rotate(180,-114.765,-195.817)" />
    <rect id="mn-590" x="-114.79" y="-195.737" width="0.05" height="0.05" fill="black" transform="rotate(90,-114.765,-195.712)" />
    <rect id="mn-591" x="-113.189" y="-195.57" width="0.05" height="0.05" fill="black" transform="rotate(180,-113.164,-195.545)" />
    <rect id="mn-592" x="-113.189" y="-195.842" width="0.05" height="0.05" fill="black" transform="rotate(180,-113.164,-195.817)" />
    <rect id="mn-593" x="-113.189" y="-195.737" width="0.05" height="0.05" fill="black" transform="rotate(90,-113.164,-195.712)" />
    <rect id="mn-594" x="-113.951" y="-195.57" width="0.05" height="0.05" fill="black" transform="rotate(180,-113.926,-195.545)" />
    <rect id="mn-595" x="-113.951" y="-195.842" width="0.05" height="0.05" fill="black" transform="rotate(180,-113.926,-195.817)" />
    <rect id="mn-596" x="-113.951" y="-195.737" width="0.05" height="0.05" fill="black" transform="rotate(90,-113.926,-195.712)" />
    <rect id="mn-597" x="-112.136" y="-199.329" width="0.05" height="0.05" fill="black" transform="rotate(180,-112.111,-199.304)" />
    <rect id="mn-598" x="-111.791" y="-198.536" width="0.05" height="0.05" fill="black" transform="rotate(120,-111.766,-198.511)" />
    <rect id="mn-599" x="-112.136" y="-198.536" width="0.05" height="0.05" fill="black" transform="rotate(180,-112.111,-198.511)" />
    <rect id="mn-600" x="-112.031" y="-198.536" width="0.05" height="0.05" fill="black" transform="rotate(90,-112.006,-198.511)" />
    <rect id="mn-601" x="-111.791" y="-197.723" width="0.05" height="0.05" fill="black" transform="rotate(120,-111.766,-197.698)" />
    <rect id="mn-602" x="-112.136" y="-197.723" width="0.05" height="0.05" fill="black" transform="rotate(180,-112.111,-197.698)" />
    <rect id="mn-603" x="-112.031" y="-197.723" width="0.05" height="0.05" fill="black" transform="rotate(90,-112.006,-197.698)" />
    <rect id="mn-604" x="-111.791" y="-196.758" width="0.05" height="0.05" fill="black" transform="rotate(120,-111.766,-196.733)" />
    <rect id="mn-605" x="-112.136" y="-196.758" width="0.05" height="0.05" fill="black" transform="rotate(180,-112.111,-196.733)" />
    <rect id="mn-606" x="-112.031" y="-196.758" width="0.05" height="0.05" fill="black" transform="rotate(90,-112.006,-196.733)" />
    <rect id="mn-607" x="-112.49" y="-198.723" width="0.05" height="0.05" fill="black" transform="rotate(90,-112.465,-198.698)" />
    <rect id="mn-608" x="-112.136" y="-198.977" width="0.05" height="0.05" fill="black" transform="rotate(270,-112.111,-198.952)" />
    <rect id="mn-609" x="-112.49" y="-198.977" width="0.05" height="0.05" fill="black" transform="rotate(270,-112.465,-198.952)" />
    <rect id="mn-610" x="-112.136" y="-194.087" width="0.05" height="0.05" fill="black" transform="rotate(180,-112.111,-194.062)" />
    <rect id="mn-611" x="-111.831" y="-194.087" width="0.05" height="0.05" fill="black" />
    <rect id="mn-612" x="-111.831" y="-189.668" width="0.05" height="0.05" fill="black" transform="rotate(90,-111.806,-189.643)" />
    <rect id="mn-613" x="-112.284" y="-193.373" width="0.05" height="0.05" fill="black" transform="rotate(240,-112.259,-193.348)" />
    <rect id="mn-614" x="-111.831" y="-193.373" width="0.05" height="0.05" fill="black" transform="rotate(180,-111.806,-193.348)" />
    <rect id="mn-615" x="-112.284" y="-192.23" width="0.05" height="0.05" fill="black" transform="rotate(240,-112.259,-192.205)" />
    <rect id="mn-616" x="-111.831" y="-192.23" width="0.05" height="0.05" fill="black" transform="rotate(180,-111.806,-192.205)" />
    <rect id="mn-617" x="-112.284" y="-191.087" width="0.05" height="0.05" fill="black" transform="rotate(240,-112.259,-191.062)" />
    <rect id="mn-618" x="-111.831" y="-191.087" width="0.05" height="0.05" fill="black" transform="rotate(180,-111.806,-191.062)" />
    <rect id="mn-619" x="-112.284" y="-189.944" width="0.05" height="0.05" fill="black" transform="rotate(240,-112.259,-189.919)" />
    <rect id="mn-620" x="-111.831" y="-189.944" width="0.05" height="0.05" fill="black" transform="rotate(180,-111.806,-189.919)" />
  </g>
</svg>