<?xml version="1.0" encoding="utf-8"?>
<svg xmlns="http://www.w3.org/2000/svg" viewBox="-133.85 188.888 22.611 13.501">
  <g transform="scale(1,-1)">
    <line id="pi-485" x1="-115.168" y1="-198.202" x2="-115.168" y2="-198.91" stroke="black" stroke-width="0.051" stroke-linecap="square" />
    <line id="pi-486" x1="-111.8" y1="-196.733" x2="-111.8" y2="-196.733" stroke="black" stroke-width="0.025" stroke-linecap="square" />
    <line id="pi-487" x1="-111.8" y1="-197.698" x2="-111.8" y2="-197.698" stroke="black" stroke-width="0.025" stroke-linecap="square" />
    <line id="pi-488" x1="-111.817" y1="-196.834" x2="-111.817" y2="-197.634" stroke="black" stroke-width="0.051" stroke-linecap="square" />
    <line id="pi-489" x1="-111.8" y1="-198.511" x2="-111.8" y2="-198.511" stroke="black" stroke-width="0.025" stroke-linecap="square" />
    <line id="pi-490" x1="-111.817" y1="-199.025" x2="-111.817" y2="-199.097" stroke="black" stroke-width="0.051" stroke-linecap="square" />
    <line id="pi-491" x1="-111.817" y1="-197.762" x2="-111.817" y2="-198.447" stroke="black" stroke-width="0.051" stroke-linecap="square" />
    <line id="pi-492" x1="-111.817" y1="-198.575" x2="-111.817" y2="-198.897" stroke="black" stroke-width="0.051" stroke-linecap="square" />
    <line id="pi-493" x1="-113.103" y1="-198.961" x2="-113.103" y2="-198.961" stroke="black" stroke-width="0.025" stroke-linecap="square" />
    <line id="pi-494" x1="-113.167" y1="-198.961" x2="-115.117" y2="-198.961" stroke="black" stroke-width="0.051" stroke-linecap="square" />
    <line id="pi-495" x1="-111.881" y1="-198.961" x2="-113.039" y2="-198.961" stroke="black" stroke-width="0.051" stroke-linecap="square" />
    <line id="pi-496" x1="-115.168" y1="-198.961" x2="-115.168" y2="-198.961" stroke="black" stroke-width="0.051" stroke-linecap="square" />
    <line id="pi-497" x1="-115.073" y1="-198.138" x2="-115.153" y2="-198.138" stroke="black" stroke-width="0.013" stroke-linecap="square" />
    <line id="pi-498" x1="-115.168" y1="-198.138" x2="-115.168" y2="-198.138" stroke="black" stroke-width="0.013" stroke-linecap="square" />
    <line id="pi-499" x1="-115.168" y1="-189.855" x2="-115.168" y2="-189.464" stroke="black" stroke-width="0.051" stroke-linecap="square" />
    <line id="pi-500" x1="-115.117" y1="-189.413" x2="-111.815" y2="-189.413" stroke="black" stroke-width="0.051" stroke-linecap="square" />
    <line id="pi-501" x1="-111.764" y1="-193.412" x2="-111.764" y2="-193.705" stroke="black" stroke-width="0.051" stroke-linecap="square" />
    <line id="pi-502" x1="-111.886" y1="-193.348" x2="-111.779" y2="-193.348" stroke="black" stroke-width="0.013" stroke-linecap="square" />
    <line id="pi-503" x1="-111.764" y1="-193.348" x2="-111.764" y2="-193.348" stroke="black" stroke-width="0.013" stroke-linecap="square" />
    <line id="pi-504" x1="-111.764" y1="-192.269" x2="-111.764" y2="-193.284" stroke="black" stroke-width="0.051" stroke-linecap="square" />
    <line id="pi-505" x1="-111.886" y1="-192.205" x2="-111.779" y2="-192.205" stroke="black" stroke-width="0.013" stroke-linecap="square" />
    <line id="pi-506" x1="-111.764" y1="-192.205" x2="-111.764" y2="-192.205" stroke="black" stroke-width="0.013" stroke-linecap="square" />
    <line id="pi-507" x1="-111.764" y1="-191.126" x2="-111.764" y2="-192.141" stroke="black" stroke-width="0.051" stroke-linecap="square" />
    <line id="pi-508" x1="-111.886" y1="-191.062" x2="-111.779" y2="-191.062" stroke="black" stroke-width="0.013" stroke-linecap="square" />
    <line id="pi-509" x1="-111.764" y1="-191.062" x2="-111.764" y2="-191.062" stroke="black" stroke-width="0.013" stroke-linecap="square" />
    <line id="pi-510" x1="-111.764" y1="-189.983" x2="-111.764" y2="-190.998" stroke="black" stroke-width="0.051" stroke-linecap="square" />
    <line id="pi-511" x1="-111.886" y1="-189.919" x2="-111.779" y2="-189.919" stroke="black" stroke-width="0.013" stroke-linecap="square" />
    <line id="pi-512" x1="-111.764" y1="-189.919" x2="-111.764" y2="-189.919" stroke="black" stroke-width="0.013" stroke-linecap="square" />
    <line id="pi-513" x1="-111.764" y1="-189.464" x2="-111.764" y2="-189.855" stroke="black" stroke-width="0.051" stroke-linecap="square" />
    <line id="pi-514" x1="-115.073" y1="-189.919" x2="-115.153" y2="-189.919" stroke="black" stroke-width="0.013" stroke-linecap="square" />
    <line id="pi-515" x1="-115.168" y1="-189.919" x2="-115.168" y2="-189.919" stroke="black" stroke-width="0.013" stroke-linecap="square" />
    <line id="pi-516" x1="-115.168" y1="-190.998" x2="-115.168" y2="-189.983" stroke="black" stroke-width="0.051" stroke-linecap="square" />
    <line id="pi-517" x1="-115.073" y1="-191.062" x2="-115.153" y2="-191.062" stroke="black" stroke-width="0.013" stroke-linecap="square" />
    <line id="pi-518" x1="-115.168" y1="-191.062" x2="-115.168" y2="-191.062" stroke="black" stroke-width="0.013" stroke-linecap="square" />
    <line id="pi-519" x1="-115.168" y1="-192.141" x2="-115.168" y2="-191.126" stroke="black" stroke-width="0.051" stroke-linecap="square" />
    <line id="pi-520" x1="-115.073" y1="-192.205" x2="-115.153" y2="-192.205" stroke="black" stroke-width="0.013" stroke-linecap="square" />
    <line id="pi-521" x1="-115.168" y1="-192.205" x2="-115.168" y2="-192.205" stroke="black" stroke-width="0.013" stroke-linecap="square" />
    <line id="pi-522" x1="-115.168" y1="-193.284" x2="-115.168" y2="-192.269" stroke="black" stroke-width="0.051" stroke-linecap="square" />
    <line id="pi-523" x1="-115.073" y1="-193.348" x2="-115.153" y2="-193.348" stroke="black" stroke-width="0.013" stroke-linecap="square" />
    <line id="pi-524" x1="-115.168" y1="-193.348" x2="-115.168" y2="-193.348" stroke="black" stroke-width="0.013" stroke-linecap="square" />
    <line id="pi-525" x1="-115.168" y1="-194.969" x2="-115.168" y2="-193.412" stroke="black" stroke-width="0.051" stroke-linecap="square" />
    <line id="pi-526" x1="-115.073" y1="-196.995" x2="-115.153" y2="-196.995" stroke="black" stroke-width="0.013" stroke-linecap="square" />
    <line id="pi-527" x1="-115.168" y1="-196.995" x2="-115.168" y2="-196.995" stroke="black" stroke-width="0.013" stroke-linecap="square" />
    <line id="pi-528" x1="-115.168" y1="-198.074" x2="-115.168" y2="-197.059" stroke="black" stroke-width="0.051" stroke-linecap="square" />
    <line id="pi-529" x1="-112.999" y1="-195.274" x2="-112.984" y2="-195.274" stroke="black" stroke-width="0.051" stroke-linecap="square" />
    <line id="pi-530" x1="-115.168" y1="-196.931" x2="-115.168" y2="-195.338" stroke="black" stroke-width="0.051" stroke-linecap="square" />
    <line id="pi-531" x1="-114.663" y1="-195.418" x2="-114.663" y2="-195.289" stroke="black" stroke-width="0.013" stroke-linecap="square" />
    <line id="pi-532" x1="-114.663" y1="-195.274" x2="-114.663" y2="-195.274" stroke="black" stroke-width="0.013" stroke-linecap="square" />
    <line id="pi-533" x1="-115.104" y1="-195.274" x2="-114.727" y2="-195.274" stroke="black" stroke-width="0.051" stroke-linecap="square" />
    <line id="pi-534" x1="-113.825" y1="-195.418" x2="-113.825" y2="-195.289" stroke="black" stroke-width="0.013" stroke-linecap="square" />
    <line id="pi-535" x1="-113.825" y1="-195.274" x2="-113.825" y2="-195.274" stroke="black" stroke-width="0.013" stroke-linecap="square" />
    <line id="pi-536" x1="-114.599" y1="-195.274" x2="-113.889" y2="-195.274" stroke="black" stroke-width="0.051" stroke-linecap="square" />
    <line id="pi-537" x1="-113.063" y1="-195.418" x2="-113.063" y2="-195.289" stroke="black" stroke-width="0.013" stroke-linecap="square" />
    <line id="pi-538" x1="-113.063" y1="-195.274" x2="-113.063" y2="-195.274" stroke="black" stroke-width="0.013" stroke-linecap="square" />
    <line id="pi-539" x1="-113.761" y1="-195.274" x2="-113.127" y2="-195.274" stroke="black" stroke-width="0.051" stroke-linecap="square" />
    <line id="pi-540" x1="-113.202" y1="-195.033" x2="-112.958" y2="-195.033" stroke="black" stroke-width="0.051" stroke-linecap="square" />
    <line id="pi-541" x1="-115.168" y1="-195.21" x2="-115.168" y2="-195.097" stroke="black" stroke-width="0.051" stroke-linecap="square" />
    <line id="pi-542" x1="-114.866" y1="-194.898" x2="-114.866" y2="-195.019" stroke="black" stroke-width="0.013" stroke-linecap="square" />
    <line id="pi-543" x1="-114.866" y1="-195.033" x2="-114.866" y2="-195.033" stroke="black" stroke-width="0.013" stroke-linecap="square" />
    <line id="pi-544" x1="-115.104" y1="-195.033" x2="-114.93" y2="-195.033" stroke="black" stroke-width="0.051" stroke-linecap="square" />
    <line id="pi-545" x1="-114.028" y1="-194.898" x2="-114.028" y2="-195.019" stroke="black" stroke-width="0.013" stroke-linecap="square" />
    <line id="pi-546" x1="-114.028" y1="-195.033" x2="-114.028" y2="-195.033" stroke="black" stroke-width="0.013" stroke-linecap="square" />
    <line id="pi-547" x1="-114.802" y1="-195.033" x2="-114.092" y2="-195.033" stroke="black" stroke-width="0.051" stroke-linecap="square" />
    <line id="pi-548" x1="-113.266" y1="-194.898" x2="-113.266" y2="-195.019" stroke="black" stroke-width="0.013" stroke-linecap="square" />
    <line id="pi-549" x1="-113.266" y1="-195.033" x2="-113.266" y2="-195.033" stroke="black" stroke-width="0.013" stroke-linecap="square" />
    <line id="pi-550" x1="-113.964" y1="-195.033" x2="-113.33" y2="-195.033" stroke="black" stroke-width="0.051" stroke-linecap="square" />
    <line id="pi-551" x1="-111.964" y1="-199.098" x2="-111.964" y2="-199" stroke="black" stroke-width="0.025" stroke-linecap="square" />
    <line id="pi-552" x1="-111.989" y1="-198.975" x2="-115.165" y2="-198.975" stroke="black" stroke-width="0.025" stroke-linecap="square" />
    <line id="pi-553" x1="-115.19" y1="-195.29" x2="-115.19" y2="-194.986" stroke="black" stroke-width="0.025" stroke-linecap="square" />
    <line id="pi-554" x1="-113.787" y1="-194.961" x2="-113.128" y2="-194.961" stroke="black" stroke-width="0.025" stroke-linecap="square" />
    <line id="pi-555" x1="-113.063" y1="-194.898" x2="-113.063" y2="-194.947" stroke="black" stroke-width="0.013" stroke-linecap="square" />
    <line id="pi-556" x1="-113.063" y1="-194.961" x2="-113.063" y2="-194.961" stroke="black" stroke-width="0.013" stroke-linecap="square" />
    <line id="pi-557" x1="-113.825" y1="-194.898" x2="-113.825" y2="-194.947" stroke="black" stroke-width="0.013" stroke-linecap="square" />
    <line id="pi-558" x1="-113.825" y1="-194.961" x2="-113.825" y2="-194.961" stroke="black" stroke-width="0.013" stroke-linecap="square" />
    <line id="pi-559" x1="-114.625" y1="-194.961" x2="-113.863" y2="-194.961" stroke="black" stroke-width="0.025" stroke-linecap="square" />
    <line id="pi-560" x1="-114.663" y1="-194.898" x2="-114.663" y2="-194.947" stroke="black" stroke-width="0.013" stroke-linecap="square" />
    <line id="pi-561" x1="-114.663" y1="-194.961" x2="-114.663" y2="-194.961" stroke="black" stroke-width="0.013" stroke-linecap="square" />
    <line id="pi-562" x1="-115.165" y1="-194.961" x2="-114.701" y2="-194.961" stroke="black" stroke-width="0.025" stroke-linecap="square" />
    <line id="pi-563" x1="-113.99" y1="-195.328" x2="-113.332" y2="-195.328" stroke="black" stroke-width="0.025" stroke-linecap="square" />
    <line id="pi-564" x1="-115.19" y1="-198.95" x2="-115.19" y2="-195.366" stroke="black" stroke-width="0.025" stroke-linecap="square" />
    <line id="pi-565" x1="-113.266" y1="-195.418" x2="-113.266" y2="-195.343" stroke="black" stroke-width="0.013" stroke-linecap="square" />
    <line id="pi-566" x1="-113.266" y1="-195.328" x2="-113.266" y2="-195.328" stroke="black" stroke-width="0.013" stroke-linecap="square" />
    <line id="pi-567" x1="-114.028" y1="-195.418" x2="-114.028" y2="-195.343" stroke="black" stroke-width="0.013" stroke-linecap="square" />
    <line id="pi-568" x1="-114.028" y1="-195.328" x2="-114.028" y2="-195.328" stroke="black" stroke-width="0.013" stroke-linecap="square" />
    <line id="pi-569" x1="-114.828" y1="-195.328" x2="-114.066" y2="-195.328" stroke="black" stroke-width="0.025" stroke-linecap="square" />
    <line id="pi-570" x1="-114.866" y1="-195.418" x2="-114.866" y2="-195.343" stroke="black" stroke-width="0.013" stroke-linecap="square" />
    <line id="pi-571" x1="-114.866" y1="-195.328" x2="-114.866" y2="-195.328" stroke="black" stroke-width="0.013" stroke-linecap="square" />
    <line id="pi-572" x1="-115.152" y1="-195.328" x2="-114.904" y2="-195.328" stroke="black" stroke-width="0.025" stroke-linecap="square" />
    <line id="pi-573" x1="-113.103" y1="-198.995" x2="-113.103" y2="-198.995" stroke="black" stroke-width="0.051" stroke-linecap="square" />
    <line id="pi-574" x1="-113.103" y1="-198.944" x2="-113.103" y2="-198.905" stroke="black" stroke-width="0.051" stroke-linecap="square" />
    <line id="pi-575" x1="-113.208" y1="-198.698" x2="-115.011" y2="-198.698" stroke="black" stroke-width="0.102" stroke-linecap="square" />
    <line id="pi-576" x1="-112.998" y1="-198.698" x2="-112.567" y2="-198.698" stroke="black" stroke-width="0.102" stroke-linecap="square" />
    <line id="pi-577" x1="-114.7" y1="-198.138" x2="-114.7" y2="-198.138" stroke="black" stroke-width="0.102" stroke-linecap="square" />
    <line id="pi-578" x1="-114.802" y1="-198.138" x2="-115.008" y2="-198.138" stroke="black" stroke-width="0.102" stroke-linecap="square" />
    <line id="pi-579" x1="-115.113" y1="-198.596" x2="-115.113" y2="-198.243" stroke="black" stroke-width="0.102" stroke-linecap="square" />
    <line id="pi-580" x1="-114.7" y1="-196.995" x2="-114.7" y2="-196.995" stroke="black" stroke-width="0.102" stroke-linecap="square" />
    <line id="pi-581" x1="-114.802" y1="-196.995" x2="-115.008" y2="-196.995" stroke="black" stroke-width="0.102" stroke-linecap="square" />
    <line id="pi-582" x1="-115.113" y1="-198.033" x2="-115.113" y2="-197.1" stroke="black" stroke-width="0.102" stroke-linecap="square" />
    <line id="pi-583" x1="-114.7" y1="-193.348" x2="-114.7" y2="-193.348" stroke="black" stroke-width="0.102" stroke-linecap="square" />
    <line id="pi-584" x1="-114.802" y1="-193.348" x2="-115.008" y2="-193.348" stroke="black" stroke-width="0.102" stroke-linecap="square" />
    <line id="pi-585" x1="-115.113" y1="-194.418" x2="-115.113" y2="-193.453" stroke="black" stroke-width="0.102" stroke-linecap="square" />
    <line id="pi-586" x1="-114.7" y1="-192.205" x2="-114.7" y2="-192.205" stroke="black" stroke-width="0.102" stroke-linecap="square" />
    <line id="pi-587" x1="-114.802" y1="-192.205" x2="-115.008" y2="-192.205" stroke="black" stroke-width="0.102" stroke-linecap="square" />
    <line id="pi-588" x1="-115.113" y1="-193.243" x2="-115.113" y2="-192.31" stroke="black" stroke-width="0.102" stroke-linecap="square" />
    <line id="pi-589" x1="-114.7" y1="-191.062" x2="-114.7" y2="-191.062" stroke="black" stroke-width="0.102" stroke-linecap="square" />
    <line id="pi-590" x1="-114.802" y1="-191.062" x2="-115.008" y2="-191.062" stroke="black" stroke-width="0.102" stroke-linecap="square" />
    <line id="pi-591" x1="-115.113" y1="-192.1" x2="-115.113" y2="-191.167" stroke="black" stroke-width="0.102" stroke-linecap="square" />
    <line id="pi-592" x1="-114.7" y1="-189.919" x2="-114.7" y2="-189.919" stroke="black" stroke-width="0.102" stroke-linecap="square" />
    <line id="pi-593" x1="-114.802" y1="-189.919" x2="-115.008" y2="-189.919" stroke="black" stroke-width="0.102" stroke-linecap="square" />
    <line id="pi-594" x1="-115.113" y1="-189.814" x2="-115.113" y2="-189.601" stroke="black" stroke-width="0.102" stroke-linecap="square" />
    <line id="pi-595" x1="-115.113" y1="-190.957" x2="-115.113" y2="-190.024" stroke="black" stroke-width="0.102" stroke-linecap="square" />
    <line id="pi-596" x1="-113.059" y1="-194.523" x2="-112.853" y2="-194.523" stroke="black" stroke-width="0.102" stroke-linecap="square" />
    <line id="pi-597" x1="-115.113" y1="-195.712" x2="-115.113" y2="-194.628" stroke="black" stroke-width="0.102" stroke-linecap="square" />
    <line id="pi-598" x1="-114.765" y1="-194.771" x2="-114.765" y2="-194.771" stroke="black" stroke-width="0.038" stroke-linecap="square" />
    <line id="pi-599" x1="-114.765" y1="-194.733" x2="-114.765" y2="-194.73" stroke="black" stroke-width="0.038" stroke-linecap="square" />
    <line id="pi-600" x1="-115.008" y1="-194.523" x2="-114.87" y2="-194.523" stroke="black" stroke-width="0.102" stroke-linecap="square" />
    <line id="pi-601" x1="-113.926" y1="-194.771" x2="-113.926" y2="-194.771" stroke="black" stroke-width="0.038" stroke-linecap="square" />
    <line id="pi-602" x1="-113.926" y1="-194.733" x2="-113.926" y2="-194.73" stroke="black" stroke-width="0.038" stroke-linecap="square" />
    <line id="pi-603" x1="-114.66" y1="-194.523" x2="-114.031" y2="-194.523" stroke="black" stroke-width="0.102" stroke-linecap="square" />
    <line id="pi-604" x1="-113.164" y1="-194.771" x2="-113.164" y2="-194.771" stroke="black" stroke-width="0.038" stroke-linecap="square" />
    <line id="pi-605" x1="-113.164" y1="-194.733" x2="-113.164" y2="-194.73" stroke="black" stroke-width="0.038" stroke-linecap="square" />
    <line id="pi-606" x1="-113.821" y1="-194.523" x2="-113.269" y2="-194.523" stroke="black" stroke-width="0.102" stroke-linecap="square" />
    <line id="pi-607" x1="-113.059" y1="-195.817" x2="-112.853" y2="-195.817" stroke="black" stroke-width="0.102" stroke-linecap="square" />
    <line id="pi-608" x1="-115.113" y1="-196.89" x2="-115.113" y2="-195.922" stroke="black" stroke-width="0.102" stroke-linecap="square" />
    <line id="pi-609" x1="-114.765" y1="-195.545" x2="-114.765" y2="-195.545" stroke="black" stroke-width="0.038" stroke-linecap="square" />
    <line id="pi-610" x1="-114.765" y1="-195.583" x2="-114.765" y2="-195.61" stroke="black" stroke-width="0.038" stroke-linecap="square" />
    <line id="pi-611" x1="-115.008" y1="-195.817" x2="-114.87" y2="-195.817" stroke="black" stroke-width="0.102" stroke-linecap="square" />
    <line id="pi-612" x1="-113.164" y1="-195.545" x2="-113.164" y2="-195.545" stroke="black" stroke-width="0.038" stroke-linecap="square" />
    <line id="pi-613" x1="-113.164" y1="-195.583" x2="-113.164" y2="-195.61" stroke="black" stroke-width="0.038" stroke-linecap="square" />
    <line id="pi-614" x1="-113.821" y1="-195.817" x2="-113.269" y2="-195.817" stroke="black" stroke-width="0.102" stroke-linecap="square" />
    <line id="pi-615" x1="-113.926" y1="-195.545" x2="-113.926" y2="-195.545" stroke="black" stroke-width="0.038" stroke-linecap="square" />
    <line id="pi-616" x1="-113.926" y1="-195.583" x2="-113.926" y2="-195.61" stroke="black" stroke-width="0.038" stroke-linecap="square" />
    <line id="pi-617" x1="-114.66" y1="-195.817" x2="-114.031" y2="-195.817" stroke="black" stroke-width="0.102" stroke-linecap="square" />
    <line id="pi-618" x1="-111.766" y1="-198.511" x2="-111.766" y2="-198.511" stroke="black" stroke-width="0.051" stroke-linecap="square" />
    <line id="pi-619" x1="-111.817" y1="-198.511" x2="-111.904" y2="-198.511" stroke="black" stroke-width="0.051" stroke-linecap="square" />
    <line id="pi-620" x1="-112.111" y1="-198.847" x2="-112.111" y2="-198.616" stroke="black" stroke-width="0.102" stroke-linecap="square" />
    <line id="pi-621" x1="-111.766" y1="-197.698" x2="-111.766" y2="-197.698" stroke="black" stroke-width="0.051" stroke-linecap="square" />
    <line id="pi-622" x1="-111.817" y1="-197.698" x2="-111.904" y2="-197.698" stroke="black" stroke-width="0.051" stroke-linecap="square" />
    <line id="pi-623" x1="-112.111" y1="-198.406" x2="-112.111" y2="-197.803" stroke="black" stroke-width="0.102" stroke-linecap="square" />
    <line id="pi-624" x1="-111.766" y1="-196.733" x2="-111.766" y2="-196.733" stroke="black" stroke-width="0.051" stroke-linecap="square" />
    <line id="pi-625" x1="-111.817" y1="-196.733" x2="-111.904" y2="-196.733" stroke="black" stroke-width="0.051" stroke-linecap="square" />
    <line id="pi-626" x1="-112.111" y1="-196.628" x2="-112.111" y2="-194.164" stroke="black" stroke-width="0.102" stroke-linecap="square" />
    <line id="pi-627" x1="-112.111" y1="-197.593" x2="-112.111" y2="-196.838" stroke="black" stroke-width="0.102" stroke-linecap="square" />
    <line id="pi-628" x1="-112.465" y1="-198.8" x2="-112.465" y2="-198.85" stroke="black" stroke-width="0.102" stroke-linecap="square" />
    <line id="pi-629" x1="-112.216" y1="-198.952" x2="-112.363" y2="-198.952" stroke="black" stroke-width="0.102" stroke-linecap="square" />
    <line id="pi-630" x1="-112.111" y1="-199.199" x2="-112.111" y2="-199.057" stroke="black" stroke-width="0.102" stroke-linecap="square" />
    <line id="pi-631" x1="-112.009" y1="-194.062" x2="-111.908" y2="-194.062" stroke="black" stroke-width="0.102" stroke-linecap="square" />
    <line id="pi-632" x1="-111.806" y1="-189.814" x2="-111.806" y2="-189.643" stroke="black" stroke-width="0.102" stroke-linecap="square" />
    <line id="pi-633" x1="-112.259" y1="-193.348" x2="-112.259" y2="-193.348" stroke="black" stroke-width="0.102" stroke-linecap="square" />
    <line id="pi-634" x1="-112.157" y1="-193.348" x2="-111.911" y2="-193.348" stroke="black" stroke-width="0.102" stroke-linecap="square" />
    <line id="pi-635" x1="-111.806" y1="-193.96" x2="-111.806" y2="-193.453" stroke="black" stroke-width="0.102" stroke-linecap="square" />
    <line id="pi-636" x1="-112.259" y1="-192.205" x2="-112.259" y2="-192.205" stroke="black" stroke-width="0.102" stroke-linecap="square" />
    <line id="pi-637" x1="-112.157" y1="-192.205" x2="-111.911" y2="-192.205" stroke="black" stroke-width="0.102" stroke-linecap="square" />
    <line id="pi-638" x1="-111.806" y1="-193.243" x2="-111.806" y2="-192.31" stroke="black" stroke-width="0.102" stroke-linecap="square" />
    <line id="pi-639" x1="-112.259" y1="-191.062" x2="-112.259" y2="-191.062" stroke="black" stroke-width="0.102" stroke-linecap="square" />
    <line id="pi-640" x1="-112.157" y1="-191.062" x2="-111.911" y2="-191.062" stroke="black" stroke-width="0.102" stroke-linecap="square" />
    <line id="pi-641" x1="-111.806" y1="-192.1" x2="-111.806" y2="-191.167" stroke="black" stroke-width="0.102" stroke-linecap="square" />
    <line id="pi-642" x1="-112.259" y1="-189.919" x2="-112.259" y2="-189.919" stroke="black" stroke-width="0.102" stroke-linecap="square" />
    <line id="pi-643" x1="-112.157" y1="-189.919" x2="-111.911" y2="-189.919" stroke="black" stroke-width="0.102" stroke-linecap="square" />
    <line id="pi-644" x1="-111.806" y1="-190.957" x2="-111.806" y2="-190.024" stroke="black" stroke-width="0.102" stroke-linecap="square" />
  </g>
</svg>