<?xml version="1.0" encoding="utf-8"?>
<svg xmlns="http://www.w3.org/2000/svg" viewBox="-133.85 188.888 22.611 13.501">
  <g transform="scale(1,-1)">
    <rect id="mn-156" x="-111.825" y="-196.758" width="0.05" height="0.05" fill="black" transform="rotate(180,-111.8,-196.733)" />
    <rect id="mn-157" x="-111.825" y="-196.783" width="0.05" height="0.05" fill="black" transform="rotate(270,-111.8,-196.758)" />
    <rect id="mn-158" x="-111.842" y="-199.329" width="0.05" height="0.05" fill="black" transform="rotate(180,-111.817,-199.304)" />
    <rect id="mn-159" x="-111.842" y="-199.224" width="0.05" height="0.05" fill="black" transform="rotate(90,-111.817,-199.199)" />
    <rect id="mn-160" x="-111.842" y="-197.723" width="0.05" height="0.05" fill="black" transform="rotate(120,-111.817,-197.698)" />
    <rect id="mn-161" x="-111.842" y="-197.723" width="0.05" height="0.05" fill="black" transform="rotate(240,-111.817,-197.698)" />
    <rect id="mn-162" x="-111.842" y="-198.536" width="0.05" height="0.05" fill="black" transform="rotate(120,-111.817,-198.511)" />
    <rect id="mn-163" x="-111.842" y="-198.536" width="0.05" height="0.05" fill="black" transform="rotate(240,-111.817,-198.511)" />
    <rect id="mn-164" x="-111.842" y="-198.986" width="0.05" height="0.05" fill="black" transform="rotate(180,-111.817,-198.961)" />
    <rect id="mn-165" x="-113.128" y="-198.986" width="0.05" height="0.05" fill="black" transform="rotate(90,-113.103,-198.961)" />
    <rect id="mn-166" x="-113.128" y="-198.986" width="0.05" height="0.05" fill="black" transform="rotate(240,-113.103,-198.961)" />
    <rect id="mn-167" x="-115.193" y="-198.986" width="0.05" height="0.05" fill="black" transform="rotate(240,-115.168,-198.961)" />
    <rect id="mn-168" x="-115.193" y="-198.986" width="0.05" height="0.05" fill="black" transform="rotate(240,-115.168,-198.961)" />
    <rect id="mn-169" x="-115.193" y="-198.163" width="0.05" height="0.05" fill="black" transform="rotate(120,-115.168,-198.138)" />
    <rect id="mn-170" x="-115.193" y="-198.163" width="0.05" height="0.05" fill="black" transform="rotate(270,-115.168,-198.138)" />
    <rect id="mn-171" x="-115.193" y="-198.163" width="0.05" height="0.05" fill="black" transform="rotate(240,-115.168,-198.138)" />
    <rect id="mn-172" x="-115.193" y="-189.438" width="0.05" height="0.05" fill="black" transform="rotate(180,-115.168,-189.413)" />
    <rect id="mn-173" x="-111.789" y="-189.438" width="0.05" height="0.05" fill="black" transform="rotate(90,-111.764,-189.413)" />
    <rect id="mn-174" x="-111.789" y="-193.73" width="0.05" height="0.05" fill="black" transform="rotate(270,-111.764,-193.705)" />
    <rect id="mn-175" x="-111.789" y="-193.373" width="0.05" height="0.05" fill="black" transform="rotate(240,-111.764,-193.348)" />
    <rect id="mn-176" x="-111.789" y="-193.373" width="0.05" height="0.05" fill="black" transform="rotate(180,-111.764,-193.348)" />
    <rect id="mn-177" x="-111.789" y="-193.373" width="0.05" height="0.05" fill="black" transform="rotate(120,-111.764,-193.348)" />
    <rect id="mn-178" x="-111.789" y="-192.23" width="0.05" height="0.05" fill="black" transform="rotate(240,-111.764,-192.205)" />
    <rect id="mn-179" x="-111.789" y="-192.23" width="0.05" height="0.05" fill="black" transform="rotate(180,-111.764,-192.205)" />
    <rect id="mn-180" x="-111.789" y="-192.23" width="0.05" height="0.05" fill="black" transform="rotate(120,-111.764,-192.205)" />
    <rect id="mn-181" x="-111.789" y="-191.087" width="0.05" height="0.05" fill="black" transform="rotate(240,-111.764,-191.062)" />
    <rect id="mn-182" x="-111.789" y="-191.087" width="0.05" height="0.05" fill="black" transform="rotate(180,-111.764,-191.062)" />
    <rect id="mn-183" x="-111.789" y="-191.087" width="0.05" height="0.05" fill="black" transform="rotate(120,-111.764,-191.062)" />
    <rect id="mn-184" x="-111.789" y="-189.944" width="0.05" height="0.05" fill="black" transform="rotate(240,-111.764,-189.919)" />
    <rect id="mn-185" x="-111.789" y="-189.944" width="0.05" height="0.05" fill="black" transform="rotate(180,-111.764,-189.919)" />
    <rect id="mn-186" x="-111.789" y="-189.944" width="0.05" height="0.05" fill="black" transform="rotate(120,-111.764,-189.919)" />
    <rect id="mn-187" x="-115.193" y="-189.944" width="0.05" height="0.05" fill="black" transform="rotate(120,-115.168,-189.919)" />
    <rect id="mn-188" x="-115.193" y="-189.944" width="0.05" height="0.05" fill="black" transform="rotate(270,-115.168,-189.919)" />
    <rect id="mn-189" x="-115.193" y="-189.944" width="0.05" height="0.05" fill="black" transform="rotate(240,-115.168,-189.919)" />
    <rect id="mn-190" x="-115.193" y="-191.087" width="0.05" height="0.05" fill="black" transform="rotate(120,-115.168,-191.062)" />
    <rect id="mn-191" x="-115.193" y="-191.087" width="0.05" height="0.05" fill="black" transform="rotate(270,-115.168,-191.062)" />
    <rect id="mn-192" x="-115.193" y="-191.087" width="0.05" height="0.05" fill="black" transform="rotate(240,-115.168,-191.062)" />
    <rect id="mn-193" x="-115.193" y="-192.23" width="0.05" height="0.05" fill="black" transform="rotate(120,-115.168,-192.205)" />
    <rect id="mn-194" x="-115.193" y="-192.23" width="0.05" height="0.05" fill="black" transform="rotate(270,-115.168,-192.205)" />
    <rect id="mn-195" x="-115.193" y="-192.23" width="0.05" height="0.05" fill="black" transform="rotate(240,-115.168,-192.205)" />
    <rect id="mn-196" x="-115.193" y="-193.373" width="0.05" height="0.05" fill="black" transform="rotate(120,-115.168,-193.348)" />
    <rect id="mn-197" x="-115.193" y="-193.373" width="0.05" height="0.05" fill="black" transform="rotate(270,-115.168,-193.348)" />
    <rect id="mn-198" x="-115.193" y="-193.373" width="0.05" height="0.05" fill="black" transform="rotate(240,-115.168,-193.348)" />
    <rect id="mn-199" x="-115.193" y="-197.02" width="0.05" height="0.05" fill="black" transform="rotate(120,-115.168,-196.995)" />
    <rect id="mn-200" x="-115.193" y="-197.02" width="0.05" height="0.05" fill="black" transform="rotate(270,-115.168,-196.995)" />
    <rect id="mn-201" x="-115.193" y="-197.02" width="0.05" height="0.05" fill="black" transform="rotate(240,-115.168,-196.995)" />
    <rect id="mn-202" x="-115.193" y="-195.299" width="0.05" height="0.05" fill="black" transform="rotate(90,-115.168,-195.274)" />
    <rect id="mn-203" x="-113.009" y="-195.299" width="0.05" height="0.05" fill="black" />
    <rect id="mn-204" x="-114.688" y="-195.299" width="0.05" height="0.05" fill="black" transform="rotate(120,-114.663,-195.274)" />
    <rect id="mn-205" x="-114.688" y="-195.299" width="0.05" height="0.05" fill="black" transform="rotate(90,-114.663,-195.274)" />
    <rect id="mn-206" x="-114.688" y="-195.299" width="0.05" height="0.05" fill="black" transform="rotate(120,-114.663,-195.274)" />
    <rect id="mn-207" x="-113.85" y="-195.299" width="0.05" height="0.05" fill="black" transform="rotate(90,-113.825,-195.274)" />
    <rect id="mn-208" x="-113.85" y="-195.299" width="0.05" height="0.05" fill="black" transform="rotate(240,-113.825,-195.274)" />
    <rect id="mn-209" x="-113.85" y="-195.299" width="0.05" height="0.05" fill="black" transform="rotate(180,-113.825,-195.274)" />
    <rect id="mn-210" x="-113.088" y="-195.299" width="0.05" height="0.05" fill="black" transform="rotate(90,-113.063,-195.274)" />
    <rect id="mn-211" x="-113.088" y="-195.299" width="0.05" height="0.05" fill="black" transform="rotate(240,-113.063,-195.274)" />
    <rect id="mn-212" x="-113.088" y="-195.299" width="0.05" height="0.05" fill="black" transform="rotate(180,-113.063,-195.274)" />
    <rect id="mn-213" x="-115.193" y="-195.058" width="0.05" height="0.05" fill="black" transform="rotate(90,-115.168,-195.033)" />
    <rect id="mn-214" x="-112.983" y="-195.058" width="0.05" height="0.05" fill="black" />
    <rect id="mn-215" x="-114.891" y="-195.058" width="0.05" height="0.05" fill="black" transform="rotate(240,-114.866,-195.033)" />
    <rect id="mn-216" x="-114.891" y="-195.058" width="0.05" height="0.05" fill="black" transform="rotate(90,-114.866,-195.033)" />
    <rect id="mn-217" x="-114.891" y="-195.058" width="0.05" height="0.05" fill="black" transform="rotate(120,-114.866,-195.033)" />
    <rect id="mn-218" x="-114.053" y="-195.058" width="0.05" height="0.05" fill="black" transform="rotate(90,-114.028,-195.033)" />
    <rect id="mn-219" x="-114.053" y="-195.058" width="0.05" height="0.05" fill="black" transform="rotate(120,-114.028,-195.033)" />
    <rect id="mn-220" x="-114.053" y="-195.058" width="0.05" height="0.05" fill="black" transform="rotate(270,-114.028,-195.033)" />
    <rect id="mn-221" x="-113.291" y="-195.058" width="0.05" height="0.05" fill="black" transform="rotate(90,-113.266,-195.033)" />
    <rect id="mn-222" x="-113.291" y="-195.058" width="0.05" height="0.05" fill="black" transform="rotate(120,-113.266,-195.033)" />
    <rect id="mn-223" x="-113.291" y="-195.058" width="0.05" height="0.05" fill="black" transform="rotate(270,-113.266,-195.033)" />
    <rect id="mn-224" x="-111.989" y="-199.33" width="0.05" height="0.05" fill="black" transform="rotate(180,-111.964,-199.305)" />
    <rect id="mn-225" x="-111.989" y="-199.225" width="0.05" height="0.05" fill="black" transform="rotate(90,-111.964,-199.2)" />
    <rect id="mn-226" x="-111.989" y="-199" width="0.05" height="0.05" fill="black" transform="rotate(90,-111.964,-198.975)" />
    <rect id="mn-227" x="-115.215" y="-199" width="0.05" height="0.05" fill="black" transform="rotate(270,-115.19,-198.975)" />
    <rect id="mn-228" x="-115.215" y="-194.986" width="0.05" height="0.05" fill="black" transform="rotate(180,-115.19,-194.961)" />
    <rect id="mn-229" x="-113.088" y="-194.986" width="0.05" height="0.05" fill="black" transform="rotate(90,-113.063,-194.961)" />
    <rect id="mn-230" x="-113.153" y="-194.986" width="0.05" height="0.05" fill="black" />
    <rect id="mn-231" x="-113.088" y="-194.986" width="0.05" height="0.05" fill="black" transform="rotate(270,-113.063,-194.961)" />
    <rect id="mn-232" x="-113.85" y="-194.986" width="0.05" height="0.05" fill="black" transform="rotate(90,-113.825,-194.961)" />
    <rect id="mn-233" x="-113.85" y="-194.986" width="0.05" height="0.05" fill="black" transform="rotate(120,-113.825,-194.961)" />
    <rect id="mn-234" x="-113.85" y="-194.986" width="0.05" height="0.05" fill="black" transform="rotate(270,-113.825,-194.961)" />
    <rect id="mn-235" x="-114.688" y="-194.986" width="0.05" height="0.05" fill="black" transform="rotate(240,-114.663,-194.961)" />
    <rect id="mn-236" x="-114.688" y="-194.986" width="0.05" height="0.05" fill="black" transform="rotate(90,-114.663,-194.961)" />
    <rect id="mn-237" x="-114.688" y="-194.986" width="0.05" height="0.05" fill="black" transform="rotate(120,-114.663,-194.961)" />
    <rect id="mn-238" x="-115.215" y="-195.353" width="0.05" height="0.05" fill="black" transform="rotate(90,-115.19,-195.328)" />
    <rect id="mn-239" x="-113.291" y="-195.353" width="0.05" height="0.05" fill="black" transform="rotate(90,-113.266,-195.328)" />
    <rect id="mn-240" x="-113.357" y="-195.353" width="0.05" height="0.05" fill="black" />
    <rect id="mn-241" x="-113.291" y="-195.353" width="0.05" height="0.05" fill="black" transform="rotate(180,-113.266,-195.328)" />
    <rect id="mn-242" x="-114.053" y="-195.353" width="0.05" height="0.05" fill="black" transform="rotate(120,-114.028,-195.328)" />
    <rect id="mn-243" x="-114.053" y="-195.353" width="0.05" height="0.05" fill="black" transform="rotate(90,-114.028,-195.328)" />
    <rect id="mn-244" x="-114.053" y="-195.353" width="0.05" height="0.05" fill="black" transform="rotate(120,-114.028,-195.328)" />
    <rect id="mn-245" x="-114.891" y="-195.353" width="0.05" height="0.05" fill="black" transform="rotate(120,-114.866,-195.328)" />
    <rect id="mn-246" x="-114.891" y="-195.353" width="0.05" height="0.05" fill="black" transform="rotate(90,-114.866,-195.328)" />
    <rect id="mn-247" x="-114.891" y="-195.353" width="0.05" height="0.05" fill="black" transform="rotate(120,-114.866,-195.328)" />
    <rect id="mn-248" x="-113.128" y="-199.02" width="0.05" height="0.05" fill="black" transform="rotate(270,-113.103,-198.995)" />
    <rect id="mn-249" x="-113.128" y="-198.723" width="0.05" height="0.05" fill="black" />
    <rect id="mn-250" x="-113.128" y="-198.828" width="0.05" height="0.05" fill="black" transform="rotate(270,-113.103,-198.803)" />
    <rect id="mn-251" x="-115.138" y="-198.723" width="0.05" height="0.05" fill="black" transform="rotate(270,-115.113,-198.698)" />
    <rect id="mn-252" x="-114.725" y="-198.163" width="0.05" height="0.05" fill="black" transform="rotate(120,-114.7,-198.138)" />
    <rect id="mn-253" x="-115.138" y="-198.163" width="0.05" height="0.05" fill="black" transform="rotate(180,-115.113,-198.138)" />
    <rect id="mn-254" x="-114.725" y="-197.02" width="0.05" height="0.05" fill="black" transform="rotate(120,-114.7,-196.995)" />
    <rect id="mn-255" x="-115.138" y="-197.02" width="0.05" height="0.05" fill="black" transform="rotate(180,-115.113,-196.995)" />
    <rect id="mn-256" x="-114.725" y="-193.373" width="0.05" height="0.05" fill="black" transform="rotate(120,-114.7,-193.348)" />
    <rect id="mn-257" x="-115.138" y="-193.373" width="0.05" height="0.05" fill="black" transform="rotate(180,-115.113,-193.348)" />
    <rect id="mn-258" x="-114.725" y="-192.23" width="0.05" height="0.05" fill="black" transform="rotate(120,-114.7,-192.205)" />
    <rect id="mn-259" x="-115.138" y="-192.23" width="0.05" height="0.05" fill="black" transform="rotate(180,-115.113,-192.205)" />
    <rect id="mn-260" x="-114.725" y="-191.087" width="0.05" height="0.05" fill="black" transform="rotate(120,-114.7,-191.062)" />
    <rect id="mn-261" x="-115.138" y="-191.087" width="0.05" height="0.05" fill="black" transform="rotate(180,-115.113,-191.062)" />
    <rect id="mn-262" x="-114.725" y="-189.944" width="0.05" height="0.05" fill="black" transform="rotate(120,-114.7,-189.919)" />
    <rect id="mn-263" x="-115.138" y="-189.944" width="0.05" height="0.05" fill="black" transform="rotate(180,-115.113,-189.919)" />
    <rect id="mn-264" x="-115.138" y="-189.626" width="0.05" height="0.05" fill="black" transform="rotate(90,-115.113,-189.601)" />
    <rect id="mn-265" x="-115.138" y="-194.548" width="0.05" height="0.05" fill="black" transform="rotate(90,-115.113,-194.523)" />
    <rect id="mn-266" x="-112.878" y="-194.548" width="0.05" height="0.05" fill="black" />
    <rect id="mn-267" x="-114.79" y="-194.796" width="0.05" height="0.05" fill="black" transform="rotate(270,-114.765,-194.771)" />
    <rect id="mn-268" x="-114.79" y="-194.548" width="0.05" height="0.05" fill="black" />
    <rect id="mn-269" x="-114.79" y="-194.653" width="0.05" height="0.05" fill="black" transform="rotate(270,-114.765,-194.628)" />
    <rect id="mn-270" x="-113.951" y="-194.796" width="0.05" height="0.05" fill="black" transform="rotate(270,-113.926,-194.771)" />
    <rect id="mn-271" x="-113.951" y="-194.548" width="0.05" height="0.05" fill="black" />
    <rect id="mn-272" x="-113.951" y="-194.653" width="0.05" height="0.05" fill="black" transform="rotate(270,-113.926,-194.628)" />
    <rect id="mn-273" x="-113.189" y="-194.796" width="0.05" height="0.05" fill="black" transform="rotate(270,-113.164,-194.771)" />
    <rect id="mn-274" x="-113.189" y="-194.548" width="0.05" height="0.05" fill="black" />
    <rect id="mn-275" x="-113.189" y="-194.653" width="0.05" height="0.05" fill="black" transform="rotate(270,-113.164,-194.628)" />
    <rect id="mn-276" x="-115.138" y="-195.842" width="0.05" height="0.05" fill="black" transform="rotate(90,-115.113,-195.817)" />
    <rect id="mn-277" x="-112.878" y="-195.842" width="0.05" height="0.05" fill="black" />
    <rect id="mn-278" x="-114.79" y="-195.57" width="0.05" height="0.05" fill="black" transform="rotate(180,-114.765,-195.545)" />
    <rect id="mn-279" x="-114.79" y="-195.842" width="0.05" height="0.05" fill="black" transform="rotate(180,-114.765,-195.817)" />
    <rect id="mn-280" x="-114.79" y="-195.737" width="0.05" height="0.05" fill="black" transform="rotate(90,-114.765,-195.712)" />
    <rect id="mn-281" x="-113.189" y="-195.57" width="0.05" height="0.05" fill="black" transform="rotate(180,-113.164,-195.545)" />
    <rect id="mn-282" x="-113.189" y="-195.842" width="0.05" height="0.05" fill="black" transform="rotate(180,-113.164,-195.817)" />
    <rect id="mn-283" x="-113.189" y="-195.737" width="0.05" height="0.05" fill="black" transform="rotate(90,-113.164,-195.712)" />
    <rect id="mn-284" x="-113.951" y="-195.57" width="0.05" height="0.05" fill="black" transform="rotate(180,-113.926,-195.545)" />
    <rect id="mn-285" x="-113.951" y="-195.842" width="0.05" height="0.05" fill="black" transform="rotate(180,-113.926,-195.817)" />
    <rect id="mn-286" x="-113.951" y="-195.737" width="0.05" height="0.05" fill="black" transform="rotate(90,-113.926,-195.712)" />
    <rect id="mn-287" x="-112.136" y="-199.329" width="0.05" height="0.05" fill="black" transform="rotate(180,-112.111,-199.304)" />
    <rect id="mn-288" x="-111.791" y="-198.536" width="0.05" height="0.05" fill="black" transform="rotate(120,-111.766,-198.511)" />
    <rect id="mn-289" x="-112.136" y="-198.536" width="0.05" height="0.05" fill="black" transform="rotate(180,-112.111,-198.511)" />
    <rect id="mn-290" x="-112.031" y="-198.536" width="0.05" height="0.05" fill="black" transform="rotate(90,-112.006,-198.511)" />
    <rect id="mn-291" x="-111.791" y="-197.723" width="0.05" height="0.05" fill="black" transform="rotate(120,-111.766,-197.698)" />
    <rect id="mn-292" x="-112.136" y="-197.723" width="0.05" height="0.05" fill="black" transform="rotate(180,-112.111,-197.698)" />
    <rect id="mn-293" x="-112.031" y="-197.723" width="0.05" height="0.05" fill="black" transform="rotate(90,-112.006,-197.698)" />
    <rect id="mn-294" x="-111.791" y="-196.758" width="0.05" height="0.05" fill="black" transform="rotate(120,-111.766,-196.733)" />
    <rect id="mn-295" x="-112.136" y="-196.758" width="0.05" height="0.05" fill="black" transform="rotate(180,-112.111,-196.733)" />
    <rect id="mn-296" x="-112.031" y="-196.758" width="0.05" height="0.05" fill="black" transform="rotate(90,-112.006,-196.733)" />
    <rect id="mn-297" x="-112.49" y="-198.723" width="0.05" height="0.05" fill="black" transform="rotate(90,-112.465,-198.698)" />
    <rect id="mn-298" x="-112.136" y="-198.977" width="0.05" height="0.05" fill="black" transform="rotate(270,-112.111,-198.952)" />
    <rect id="mn-299" x="-112.49" y="-198.977" width="0.05" height="0.05" fill="black" transform="rotate(270,-112.465,-198.952)" />
    <rect id="mn-300" x="-112.136" y="-194.087" width="0.05" height="0.05" fill="black" transform="rotate(180,-112.111,-194.062)" />
    <rect id="mn-301" x="-111.831" y="-194.087" width="0.05" height="0.05" fill="black" />
    <rect id="mn-302" x="-111.831" y="-189.668" width="0.05" height="0.05" fill="black" transform="rotate(90,-111.806,-189.643)" />
    <rect id="mn-303" x="-112.284" y="-193.373" width="0.05" height="0.05" fill="black" transform="rotate(240,-112.259,-193.348)" />
    <rect id="mn-304" x="-111.831" y="-193.373" width="0.05" height="0.05" fill="black" transform="rotate(180,-111.806,-193.348)" />
    <rect id="mn-305" x="-112.284" y="-192.23" width="0.05" height="0.05" fill="black" transform="rotate(240,-112.259,-192.205)" />
    <rect id="mn-306" x="-111.831" y="-192.23" width="0.05" height="0.05" fill="black" transform="rotate(180,-111.806,-192.205)" />
    <rect id="mn-307" x="-112.284" y="-191.087" width="0.05" height="0.05" fill="black" transform="rotate(240,-112.259,-191.062)" />
    <rect id="mn-308" x="-111.831" y="-191.087" width="0.05" height="0.05" fill="black" transform="rotate(180,-111.806,-191.062)" />
    <rect id="mn-309" x="-112.284" y="-189.944" width="0.05" height="0.05" fill="black" transform="rotate(240,-112.259,-189.919)" />
    <rect id="mn-310" x="-111.831" y="-189.944" width="0.05" height="0.05" fill="black" transform="rotate(180,-111.806,-189.919)" />
    <rect id="mn-817" x="-115.628" y="-196.478" width="0.05" height="0.05" fill="black" transform="rotate(120,-115.603,-196.453)" />
    <rect id="mn-818" x="-115.628" y="-196.478" width="0.05" height="0.05" fill="black" transform="rotate(180,-115.603,-196.453)" />
    <rect id="mn-819" x="-116.561" y="-196.478" width="0.05" height="0.05" fill="black" transform="rotate(240,-116.536,-196.453)" />
    <rect id="mn-820" x="-115.628" y="-196.478" width="0.05" height="0.05" fill="black" transform="rotate(120,-115.603,-196.453)" />
    <rect id="mn-821" x="-115.628" y="-195.998" width="0.05" height="0.05" fill="black" transform="rotate(90,-115.603,-195.973)" />
    <rect id="mn-822" x="-115.856" y="-197.038" width="0.05" height="0.05" fill="black" transform="rotate(90,-115.831,-197.013)" />
    <rect id="mn-823" x="-117.031" y="-197.038" width="0.05" height="0.05" fill="black" transform="rotate(90,-117.006,-197.013)" />
    <rect id="mn-824" x="-117.031" y="-197.038" width="0.05" height="0.05" fill="black" transform="rotate(120,-117.006,-197.013)" />
    <rect id="mn-825" x="-117.031" y="-196.478" width="0.05" height="0.05" fill="black" transform="rotate(180,-117.006,-196.453)" />
    <rect id="mn-826" x="-117.031" y="-197.038" width="0.05" height="0.05" fill="black" transform="rotate(90,-117.006,-197.013)" />
    <rect id="mn-827" x="-117.355" y="-197.038" width="0.05" height="0.05" fill="black" transform="rotate(180,-117.33,-197.013)" />
    <rect id="mn-828" x="-111.989" y="-199.33" width="0.05" height="0.05" fill="black" transform="rotate(240,-111.964,-199.305)" />
    <rect id="mn-829" x="-115.628" y="-199.33" width="0.05" height="0.05" fill="black" transform="rotate(180,-115.603,-199.305)" />
    <rect id="mn-830" x="-115.628" y="-199.33" width="0.05" height="0.05" fill="black" transform="rotate(90,-115.603,-199.305)" />
    <rect id="mn-831" x="-111.842" y="-199.329" width="0.05" height="0.05" fill="black" transform="rotate(90,-111.817,-199.304)" />
    <rect id="mn-832" x="-115.856" y="-199.552" width="0.05" height="0.05" fill="black" transform="rotate(240,-115.831,-199.527)" />
    <rect id="mn-833" x="-111.842" y="-199.552" width="0.05" height="0.05" fill="black" />
    <rect id="mn-834" x="-115.856" y="-199.552" width="0.05" height="0.05" fill="black" transform="rotate(240,-115.831,-199.527)" />
  </g>
</svg>