<?xml version="1.0" encoding="utf-8"?>
<svg xmlns="http://www.w3.org/2000/svg" viewBox="-30.829 -13.68 52.812 25.292">
  <g transform="scale(1,-1)">
    <line id="pi-313" x1="13.389" y1="12.243" x2="13.389" y2="12.243" stroke="black" stroke-width="0.102" stroke-linecap="square" />
    <line id="pi-314" x1="13.389" y1="8.563" x2="13.389" y2="8.563" stroke="black" stroke-width="0.102" stroke-linecap="square" />
    <line id="pi-316" x1="13.513" y1="12.247" x2="14.18" y2="12.27" stroke="black" stroke-width="0.102" stroke-linecap="square" />
    <line id="pi-317" x1="14.303" y1="12.275" x2="14.303" y2="12.275" stroke="black" stroke-width="0.102" stroke-linecap="square" />
    <line id="pi-318" x1="12.881" y1="9.911" x2="12.876" y2="9.911" stroke="black" stroke-width="0.051" stroke-linecap="square" />
    <line id="pi-319" x1="12.798" y1="9.911" x2="12.798" y2="9.911" stroke="black" stroke-width="0.051" stroke-linecap="square" />
    <line id="pi-320" x1="12.876" y1="9.911" x2="13.311" y2="9.911" stroke="black" stroke-width="0.051" stroke-linecap="square" />
    <line id="pi-321" x1="13.389" y1="9.911" x2="13.389" y2="9.911" stroke="black" stroke-width="0.051" stroke-linecap="square" />
    <line id="pi-322" x1="13.389" y1="11.039" x2="13.389" y2="12.1" stroke="black" stroke-width="0.102" stroke-linecap="square" />
    <line id="pi-323" x1="13.389" y1="8.706" x2="13.389" y2="9.803" stroke="black" stroke-width="0.102" stroke-linecap="square" />
    <line id="pi-324" x1="12.876" y1="10.897" x2="12.881" y2="10.897" stroke="black" stroke-width="0.051" stroke-linecap="square" />
    <line id="pi-325" x1="12.798" y1="10.897" x2="12.798" y2="10.897" stroke="black" stroke-width="0.051" stroke-linecap="square" />
    <line id="pi-326" x1="12.876" y1="10.897" x2="13.311" y2="10.897" stroke="black" stroke-width="0.051" stroke-linecap="square" />
    <line id="pi-327" x1="13.389" y1="10.897" x2="13.389" y2="10.897" stroke="black" stroke-width="0.051" stroke-linecap="square" />
    <line id="pi-328" x1="13.389" y1="10.056" x2="13.389" y2="10.786" stroke="black" stroke-width="0.102" stroke-linecap="square" />
    <line id="pi-345" x1="13.389" y1="12.243" x2="13.389" y2="12.243" stroke="black" stroke-width="0.102" stroke-linecap="square" />
    <line id="pi-346" x1="13.299" y1="12.139" x2="13.028" y2="11.826" stroke="black" stroke-width="0.102" stroke-linecap="square" />
    <line id="pi-348" x1="13.389" y1="12.243" x2="13.389" y2="12.243" stroke="black" stroke-width="0.102" stroke-linecap="square" />
    <line id="pi-434" x1="10.331" y1="6.637" x2="10.331" y2="6.226" stroke="black" stroke-width="0.051" stroke-linecap="square" />
    <line id="pi-435" x1="10.331" y1="6.129" x2="10.331" y2="6.065" stroke="black" stroke-width="0.051" stroke-linecap="square" />
    <line id="pi-436" x1="10.331" y1="5.967" x2="10.331" y2="5.643" stroke="black" stroke-width="0.051" stroke-linecap="square" />
    <line id="pi-437" x1="10.331" y1="5.499" x2="10.331" y2="5.536" stroke="black" stroke-width="0.051" stroke-linecap="square" />
    <line id="pi-759" x1="-14.933" y1="2.045" x2="-6.226" y2="2.045" stroke="black" stroke-width="0.051" stroke-linecap="square" />
    <line id="pi-760" x1="-6.094" y1="2.045" x2="1.038" y2="2.045" stroke="black" stroke-width="0.051" stroke-linecap="square" />
    <line id="pi-761" x1="1.17" y1="2.045" x2="7.121" y2="2.045" stroke="black" stroke-width="0.051" stroke-linecap="square" />
    <line id="pi-762" x1="7.406" y1="2.045" x2="12.484" y2="2.045" stroke="black" stroke-width="0.076" stroke-linecap="square" />
    <line id="pi-763" x1="12.689" y1="2.045" x2="19.299" y2="2.045" stroke="black" stroke-width="0.076" stroke-linecap="square" />
    <line id="pi-764" x1="-27.673" y1="2.045" x2="-27.673" y2="2.045" stroke="black" stroke-width="0.051" stroke-linecap="square" />
    <line id="pi-765" x1="-21.336" y1="2.045" x2="-21.336" y2="2.045" stroke="black" stroke-width="0.051" stroke-linecap="square" />
    <line id="pi-766" x1="-15.011" y1="2.045" x2="-15.011" y2="2.045" stroke="black" stroke-width="0.051" stroke-linecap="square" />
    <line id="pi-767" x1="-6.172" y1="2.045" x2="-6.172" y2="2.045" stroke="black" stroke-width="0.051" stroke-linecap="square" />
    <line id="pi-768" x1="1.092" y1="2.045" x2="1.092" y2="2.045" stroke="black" stroke-width="0.051" stroke-linecap="square" />
    <line id="pi-769" x1="7.29" y1="2.045" x2="7.29" y2="2.045" stroke="black" stroke-width="0.051" stroke-linecap="square" />
    <line id="pi-770" x1="12.573" y1="2.045" x2="12.573" y2="2.045" stroke="black" stroke-width="0.051" stroke-linecap="square" />
    <line id="pi-771" x1="-21.258" y1="2.045" x2="-20.855" y2="2.045" stroke="black" stroke-width="0.051" stroke-linecap="square" />
    <line id="pi-781" x1="-21.39" y1="2.045" x2="-27.595" y2="2.045" stroke="black" stroke-width="0.051" stroke-linecap="square" />
    <line id="pi-785" x1="-15.065" y1="2.045" x2="-20.723" y2="2.045" stroke="black" stroke-width="0.051" stroke-linecap="square" />
    <line id="pi-978" x1="12.837" y1="10.795" x2="12.837" y2="10.795" stroke="black" stroke-width="0.013" stroke-linecap="square" />
    <line id="pi-979" x1="12.851" y1="10.795" x2="12.881" y2="10.795" stroke="black" stroke-width="0.013" stroke-linecap="square" />
    <line id="pi-980" x1="12.837" y1="10.816" x2="12.837" y2="12.787" stroke="black" stroke-width="0.013" stroke-linecap="square" />
    <line id="pi-981" x1="12.881" y1="9.809" x2="12.852" y2="9.809" stroke="black" stroke-width="0.013" stroke-linecap="square" />
    <line id="pi-982" x1="12.837" y1="9.823" x2="12.837" y2="10.774" stroke="black" stroke-width="0.013" stroke-linecap="square" />
    <line id="pi-983" x1="12.838" y1="9.809" x2="12.838" y2="9.809" stroke="black" stroke-width="0.013" stroke-linecap="square" />
    <line id="pi-984" x1="15.546" y1="12.633" x2="15.546" y2="12.633" stroke="black" stroke-width="0.013" stroke-linecap="square" />
    <line id="pi-985" x1="12.851" y1="12.802" x2="15.532" y2="12.802" stroke="black" stroke-width="0.013" stroke-linecap="square" />
    <line id="pi-986" x1="15.546" y1="12.764" x2="15.546" y2="12.764" stroke="black" stroke-width="0.013" stroke-linecap="square" />
    <line id="pi-987" x1="15.546" y1="12.749" x2="15.546" y2="12.648" stroke="black" stroke-width="0.013" stroke-linecap="square" />
    <line id="pi-988" x1="15.546" y1="12.787" x2="15.546" y2="12.778" stroke="black" stroke-width="0.013" stroke-linecap="square" />
    <line id="pi-994" x1="6.274" y1="12.633" x2="6.274" y2="12.633" stroke="black" stroke-width="0.013" stroke-linecap="square" />
    <line id="pi-995" x1="6.274" y1="12.648" x2="6.274" y2="12.825" stroke="black" stroke-width="0.013" stroke-linecap="square" />
    <line id="pi-1447" x1="-9.22" y1="10.828" x2="-9.22" y2="10.828" stroke="black" stroke-width="0.013" stroke-linecap="square" />
    <line id="pi-1499" x1="6.426" y1="12.633" x2="6.426" y2="12.633" stroke="black" stroke-width="0.013" stroke-linecap="square" />
    <line id="pi-1500" x1="15.699" y1="12.557" x2="15.699" y2="12.557" stroke="black" stroke-width="0.025" stroke-linecap="square" />
    <line id="pi-1501" x1="15.699" y1="12.578" x2="15.699" y2="12.613" stroke="black" stroke-width="0.025" stroke-linecap="square" />
    <line id="pi-1502" x1="15.699" y1="12.633" x2="15.699" y2="12.633" stroke="black" stroke-width="0.025" stroke-linecap="square" />
    <line id="pi-1550" x1="12.881" y1="10.012" x2="12.819" y2="10.014" stroke="black" stroke-width="0.013" stroke-linecap="square" />
    <line id="pi-1551" x1="12.881" y1="8.36" x2="12.813" y2="8.36" stroke="black" stroke-width="0.013" stroke-linecap="square" />
    <line id="pi-1552" x1="12.798" y1="8.36" x2="12.798" y2="8.36" stroke="black" stroke-width="0.013" stroke-linecap="square" />
    <line id="pi-1553" x1="12.798" y1="8.374" x2="12.798" y2="9.994" stroke="black" stroke-width="0.013" stroke-linecap="square" />
    <line id="pi-1554" x1="12.881" y1="12.04" x2="12.813" y2="12.04" stroke="black" stroke-width="0.013" stroke-linecap="square" />
    <line id="pi-1555" x1="12.798" y1="12.04" x2="12.798" y2="12.04" stroke="black" stroke-width="0.013" stroke-linecap="square" />
    <line id="pi-1556" x1="12.881" y1="10.998" x2="12.819" y2="10.998" stroke="black" stroke-width="0.013" stroke-linecap="square" />
    <line id="pi-1557" x1="15.699" y1="12.633" x2="15.699" y2="12.633" stroke="black" stroke-width="0.025" stroke-linecap="square" />
    <line id="pi-1558" x1="15.699" y1="12.557" x2="15.699" y2="12.557" stroke="black" stroke-width="0.025" stroke-linecap="square" />
    <line id="pi-1589" x1="-3.886" y1="10.828" x2="-3.886" y2="10.828" stroke="black" stroke-width="0.013" stroke-linecap="square" />
    <line id="pi-1623" x1="-9.373" y1="10.828" x2="-9.373" y2="10.828" stroke="black" stroke-width="0.013" stroke-linecap="square" />
  </g>
</svg>