<?xml version="1.0" encoding="utf-8"?>
<svg xmlns="http://www.w3.org/2000/svg" viewBox="-133.85 188.888 22.611 13.501">
  <g transform="scale(1,-1)">
    <line id="pi-165" x1="-115.168" y1="-198.202" x2="-115.168" y2="-198.91" stroke="black" stroke-width="0.051" stroke-linecap="square" />
    <line id="pi-166" x1="-111.8" y1="-196.733" x2="-111.8" y2="-196.733" stroke="black" stroke-width="0.025" stroke-linecap="square" />
    <line id="pi-167" x1="-111.8" y1="-197.698" x2="-111.8" y2="-197.698" stroke="black" stroke-width="0.025" stroke-linecap="square" />
    <line id="pi-168" x1="-111.817" y1="-196.834" x2="-111.817" y2="-197.634" stroke="black" stroke-width="0.051" stroke-linecap="square" />
    <line id="pi-169" x1="-111.8" y1="-198.511" x2="-111.8" y2="-198.511" stroke="black" stroke-width="0.025" stroke-linecap="square" />
    <line id="pi-170" x1="-111.817" y1="-199.025" x2="-111.817" y2="-199.097" stroke="black" stroke-width="0.051" stroke-linecap="square" />
    <line id="pi-171" x1="-111.817" y1="-197.762" x2="-111.817" y2="-198.447" stroke="black" stroke-width="0.051" stroke-linecap="square" />
    <line id="pi-172" x1="-111.817" y1="-198.575" x2="-111.817" y2="-198.897" stroke="black" stroke-width="0.051" stroke-linecap="square" />
    <line id="pi-173" x1="-113.103" y1="-198.961" x2="-113.103" y2="-198.961" stroke="black" stroke-width="0.025" stroke-linecap="square" />
    <line id="pi-174" x1="-113.167" y1="-198.961" x2="-115.117" y2="-198.961" stroke="black" stroke-width="0.051" stroke-linecap="square" />
    <line id="pi-175" x1="-111.881" y1="-198.961" x2="-113.039" y2="-198.961" stroke="black" stroke-width="0.051" stroke-linecap="square" />
    <line id="pi-176" x1="-115.168" y1="-198.961" x2="-115.168" y2="-198.961" stroke="black" stroke-width="0.051" stroke-linecap="square" />
    <line id="pi-177" x1="-115.073" y1="-198.138" x2="-115.153" y2="-198.138" stroke="black" stroke-width="0.013" stroke-linecap="square" />
    <line id="pi-178" x1="-115.168" y1="-198.138" x2="-115.168" y2="-198.138" stroke="black" stroke-width="0.013" stroke-linecap="square" />
    <line id="pi-179" x1="-115.168" y1="-189.855" x2="-115.168" y2="-189.464" stroke="black" stroke-width="0.051" stroke-linecap="square" />
    <line id="pi-180" x1="-115.117" y1="-189.413" x2="-111.815" y2="-189.413" stroke="black" stroke-width="0.051" stroke-linecap="square" />
    <line id="pi-181" x1="-111.764" y1="-193.412" x2="-111.764" y2="-193.705" stroke="black" stroke-width="0.051" stroke-linecap="square" />
    <line id="pi-182" x1="-111.886" y1="-193.348" x2="-111.779" y2="-193.348" stroke="black" stroke-width="0.013" stroke-linecap="square" />
    <line id="pi-183" x1="-111.764" y1="-193.348" x2="-111.764" y2="-193.348" stroke="black" stroke-width="0.013" stroke-linecap="square" />
    <line id="pi-184" x1="-111.764" y1="-192.269" x2="-111.764" y2="-193.284" stroke="black" stroke-width="0.051" stroke-linecap="square" />
    <line id="pi-185" x1="-111.886" y1="-192.205" x2="-111.779" y2="-192.205" stroke="black" stroke-width="0.013" stroke-linecap="square" />
    <line id="pi-186" x1="-111.764" y1="-192.205" x2="-111.764" y2="-192.205" stroke="black" stroke-width="0.013" stroke-linecap="square" />
    <line id="pi-187" x1="-111.764" y1="-191.126" x2="-111.764" y2="-192.141" stroke="black" stroke-width="0.051" stroke-linecap="square" />
    <line id="pi-188" x1="-111.886" y1="-191.062" x2="-111.779" y2="-191.062" stroke="black" stroke-width="0.013" stroke-linecap="square" />
    <line id="pi-189" x1="-111.764" y1="-191.062" x2="-111.764" y2="-191.062" stroke="black" stroke-width="0.013" stroke-linecap="square" />
    <line id="pi-190" x1="-111.764" y1="-189.983" x2="-111.764" y2="-190.998" stroke="black" stroke-width="0.051" stroke-linecap="square" />
    <line id="pi-191" x1="-111.886" y1="-189.919" x2="-111.779" y2="-189.919" stroke="black" stroke-width="0.013" stroke-linecap="square" />
    <line id="pi-192" x1="-111.764" y1="-189.919" x2="-111.764" y2="-189.919" stroke="black" stroke-width="0.013" stroke-linecap="square" />
    <line id="pi-193" x1="-111.764" y1="-189.464" x2="-111.764" y2="-189.855" stroke="black" stroke-width="0.051" stroke-linecap="square" />
    <line id="pi-194" x1="-115.073" y1="-189.919" x2="-115.153" y2="-189.919" stroke="black" stroke-width="0.013" stroke-linecap="square" />
    <line id="pi-195" x1="-115.168" y1="-189.919" x2="-115.168" y2="-189.919" stroke="black" stroke-width="0.013" stroke-linecap="square" />
    <line id="pi-196" x1="-115.168" y1="-190.998" x2="-115.168" y2="-189.983" stroke="black" stroke-width="0.051" stroke-linecap="square" />
    <line id="pi-197" x1="-115.073" y1="-191.062" x2="-115.153" y2="-191.062" stroke="black" stroke-width="0.013" stroke-linecap="square" />
    <line id="pi-198" x1="-115.168" y1="-191.062" x2="-115.168" y2="-191.062" stroke="black" stroke-width="0.013" stroke-linecap="square" />
    <line id="pi-199" x1="-115.168" y1="-192.141" x2="-115.168" y2="-191.126" stroke="black" stroke-width="0.051" stroke-linecap="square" />
    <line id="pi-200" x1="-115.073" y1="-192.205" x2="-115.153" y2="-192.205" stroke="black" stroke-width="0.013" stroke-linecap="square" />
    <line id="pi-201" x1="-115.168" y1="-192.205" x2="-115.168" y2="-192.205" stroke="black" stroke-width="0.013" stroke-linecap="square" />
    <line id="pi-202" x1="-115.168" y1="-193.284" x2="-115.168" y2="-192.269" stroke="black" stroke-width="0.051" stroke-linecap="square" />
    <line id="pi-203" x1="-115.073" y1="-193.348" x2="-115.153" y2="-193.348" stroke="black" stroke-width="0.013" stroke-linecap="square" />
    <line id="pi-204" x1="-115.168" y1="-193.348" x2="-115.168" y2="-193.348" stroke="black" stroke-width="0.013" stroke-linecap="square" />
    <line id="pi-205" x1="-115.168" y1="-194.969" x2="-115.168" y2="-193.412" stroke="black" stroke-width="0.051" stroke-linecap="square" />
    <line id="pi-206" x1="-115.073" y1="-196.995" x2="-115.153" y2="-196.995" stroke="black" stroke-width="0.013" stroke-linecap="square" />
    <line id="pi-207" x1="-115.168" y1="-196.995" x2="-115.168" y2="-196.995" stroke="black" stroke-width="0.013" stroke-linecap="square" />
    <line id="pi-208" x1="-115.168" y1="-198.074" x2="-115.168" y2="-197.059" stroke="black" stroke-width="0.051" stroke-linecap="square" />
    <line id="pi-209" x1="-112.999" y1="-195.274" x2="-112.984" y2="-195.274" stroke="black" stroke-width="0.051" stroke-linecap="square" />
    <line id="pi-210" x1="-115.168" y1="-196.931" x2="-115.168" y2="-195.338" stroke="black" stroke-width="0.051" stroke-linecap="square" />
    <line id="pi-211" x1="-114.663" y1="-195.418" x2="-114.663" y2="-195.289" stroke="black" stroke-width="0.013" stroke-linecap="square" />
    <line id="pi-212" x1="-114.663" y1="-195.274" x2="-114.663" y2="-195.274" stroke="black" stroke-width="0.013" stroke-linecap="square" />
    <line id="pi-213" x1="-115.104" y1="-195.274" x2="-114.727" y2="-195.274" stroke="black" stroke-width="0.051" stroke-linecap="square" />
    <line id="pi-214" x1="-113.825" y1="-195.418" x2="-113.825" y2="-195.289" stroke="black" stroke-width="0.013" stroke-linecap="square" />
    <line id="pi-215" x1="-113.825" y1="-195.274" x2="-113.825" y2="-195.274" stroke="black" stroke-width="0.013" stroke-linecap="square" />
    <line id="pi-216" x1="-114.599" y1="-195.274" x2="-113.889" y2="-195.274" stroke="black" stroke-width="0.051" stroke-linecap="square" />
    <line id="pi-217" x1="-113.063" y1="-195.418" x2="-113.063" y2="-195.289" stroke="black" stroke-width="0.013" stroke-linecap="square" />
    <line id="pi-218" x1="-113.063" y1="-195.274" x2="-113.063" y2="-195.274" stroke="black" stroke-width="0.013" stroke-linecap="square" />
    <line id="pi-219" x1="-113.761" y1="-195.274" x2="-113.127" y2="-195.274" stroke="black" stroke-width="0.051" stroke-linecap="square" />
    <line id="pi-220" x1="-113.202" y1="-195.033" x2="-112.958" y2="-195.033" stroke="black" stroke-width="0.051" stroke-linecap="square" />
    <line id="pi-221" x1="-115.168" y1="-195.21" x2="-115.168" y2="-195.097" stroke="black" stroke-width="0.051" stroke-linecap="square" />
    <line id="pi-222" x1="-114.866" y1="-194.898" x2="-114.866" y2="-195.019" stroke="black" stroke-width="0.013" stroke-linecap="square" />
    <line id="pi-223" x1="-114.866" y1="-195.033" x2="-114.866" y2="-195.033" stroke="black" stroke-width="0.013" stroke-linecap="square" />
    <line id="pi-224" x1="-115.104" y1="-195.033" x2="-114.93" y2="-195.033" stroke="black" stroke-width="0.051" stroke-linecap="square" />
    <line id="pi-225" x1="-114.028" y1="-194.898" x2="-114.028" y2="-195.019" stroke="black" stroke-width="0.013" stroke-linecap="square" />
    <line id="pi-226" x1="-114.028" y1="-195.033" x2="-114.028" y2="-195.033" stroke="black" stroke-width="0.013" stroke-linecap="square" />
    <line id="pi-227" x1="-114.802" y1="-195.033" x2="-114.092" y2="-195.033" stroke="black" stroke-width="0.051" stroke-linecap="square" />
    <line id="pi-228" x1="-113.266" y1="-194.898" x2="-113.266" y2="-195.019" stroke="black" stroke-width="0.013" stroke-linecap="square" />
    <line id="pi-229" x1="-113.266" y1="-195.033" x2="-113.266" y2="-195.033" stroke="black" stroke-width="0.013" stroke-linecap="square" />
    <line id="pi-230" x1="-113.964" y1="-195.033" x2="-113.33" y2="-195.033" stroke="black" stroke-width="0.051" stroke-linecap="square" />
    <line id="pi-231" x1="-111.964" y1="-199.098" x2="-111.964" y2="-199" stroke="black" stroke-width="0.025" stroke-linecap="square" />
    <line id="pi-232" x1="-111.989" y1="-198.975" x2="-115.165" y2="-198.975" stroke="black" stroke-width="0.025" stroke-linecap="square" />
    <line id="pi-233" x1="-115.19" y1="-195.29" x2="-115.19" y2="-194.986" stroke="black" stroke-width="0.025" stroke-linecap="square" />
    <line id="pi-234" x1="-113.787" y1="-194.961" x2="-113.128" y2="-194.961" stroke="black" stroke-width="0.025" stroke-linecap="square" />
    <line id="pi-235" x1="-113.063" y1="-194.898" x2="-113.063" y2="-194.947" stroke="black" stroke-width="0.013" stroke-linecap="square" />
    <line id="pi-236" x1="-113.063" y1="-194.961" x2="-113.063" y2="-194.961" stroke="black" stroke-width="0.013" stroke-linecap="square" />
    <line id="pi-237" x1="-113.825" y1="-194.898" x2="-113.825" y2="-194.947" stroke="black" stroke-width="0.013" stroke-linecap="square" />
    <line id="pi-238" x1="-113.825" y1="-194.961" x2="-113.825" y2="-194.961" stroke="black" stroke-width="0.013" stroke-linecap="square" />
    <line id="pi-239" x1="-114.625" y1="-194.961" x2="-113.863" y2="-194.961" stroke="black" stroke-width="0.025" stroke-linecap="square" />
    <line id="pi-240" x1="-114.663" y1="-194.898" x2="-114.663" y2="-194.947" stroke="black" stroke-width="0.013" stroke-linecap="square" />
    <line id="pi-241" x1="-114.663" y1="-194.961" x2="-114.663" y2="-194.961" stroke="black" stroke-width="0.013" stroke-linecap="square" />
    <line id="pi-242" x1="-115.165" y1="-194.961" x2="-114.701" y2="-194.961" stroke="black" stroke-width="0.025" stroke-linecap="square" />
    <line id="pi-243" x1="-113.99" y1="-195.328" x2="-113.332" y2="-195.328" stroke="black" stroke-width="0.025" stroke-linecap="square" />
    <line id="pi-244" x1="-115.19" y1="-198.95" x2="-115.19" y2="-195.366" stroke="black" stroke-width="0.025" stroke-linecap="square" />
    <line id="pi-245" x1="-113.266" y1="-195.418" x2="-113.266" y2="-195.343" stroke="black" stroke-width="0.013" stroke-linecap="square" />
    <line id="pi-246" x1="-113.266" y1="-195.328" x2="-113.266" y2="-195.328" stroke="black" stroke-width="0.013" stroke-linecap="square" />
    <line id="pi-247" x1="-114.028" y1="-195.418" x2="-114.028" y2="-195.343" stroke="black" stroke-width="0.013" stroke-linecap="square" />
    <line id="pi-248" x1="-114.028" y1="-195.328" x2="-114.028" y2="-195.328" stroke="black" stroke-width="0.013" stroke-linecap="square" />
    <line id="pi-249" x1="-114.828" y1="-195.328" x2="-114.066" y2="-195.328" stroke="black" stroke-width="0.025" stroke-linecap="square" />
    <line id="pi-250" x1="-114.866" y1="-195.418" x2="-114.866" y2="-195.343" stroke="black" stroke-width="0.013" stroke-linecap="square" />
    <line id="pi-251" x1="-114.866" y1="-195.328" x2="-114.866" y2="-195.328" stroke="black" stroke-width="0.013" stroke-linecap="square" />
    <line id="pi-252" x1="-115.152" y1="-195.328" x2="-114.904" y2="-195.328" stroke="black" stroke-width="0.025" stroke-linecap="square" />
    <line id="pi-253" x1="-113.103" y1="-198.995" x2="-113.103" y2="-198.995" stroke="black" stroke-width="0.051" stroke-linecap="square" />
    <line id="pi-254" x1="-113.103" y1="-198.944" x2="-113.103" y2="-198.905" stroke="black" stroke-width="0.051" stroke-linecap="square" />
    <line id="pi-255" x1="-113.208" y1="-198.698" x2="-115.011" y2="-198.698" stroke="black" stroke-width="0.102" stroke-linecap="square" />
    <line id="pi-256" x1="-112.998" y1="-198.698" x2="-112.567" y2="-198.698" stroke="black" stroke-width="0.102" stroke-linecap="square" />
    <line id="pi-257" x1="-114.7" y1="-198.138" x2="-114.7" y2="-198.138" stroke="black" stroke-width="0.102" stroke-linecap="square" />
    <line id="pi-258" x1="-114.802" y1="-198.138" x2="-115.008" y2="-198.138" stroke="black" stroke-width="0.102" stroke-linecap="square" />
    <line id="pi-259" x1="-115.113" y1="-198.596" x2="-115.113" y2="-198.243" stroke="black" stroke-width="0.102" stroke-linecap="square" />
    <line id="pi-260" x1="-114.7" y1="-196.995" x2="-114.7" y2="-196.995" stroke="black" stroke-width="0.102" stroke-linecap="square" />
    <line id="pi-261" x1="-114.802" y1="-196.995" x2="-115.008" y2="-196.995" stroke="black" stroke-width="0.102" stroke-linecap="square" />
    <line id="pi-262" x1="-115.113" y1="-198.033" x2="-115.113" y2="-197.1" stroke="black" stroke-width="0.102" stroke-linecap="square" />
    <line id="pi-263" x1="-114.7" y1="-193.348" x2="-114.7" y2="-193.348" stroke="black" stroke-width="0.102" stroke-linecap="square" />
    <line id="pi-264" x1="-114.802" y1="-193.348" x2="-115.008" y2="-193.348" stroke="black" stroke-width="0.102" stroke-linecap="square" />
    <line id="pi-265" x1="-115.113" y1="-194.418" x2="-115.113" y2="-193.453" stroke="black" stroke-width="0.102" stroke-linecap="square" />
    <line id="pi-266" x1="-114.7" y1="-192.205" x2="-114.7" y2="-192.205" stroke="black" stroke-width="0.102" stroke-linecap="square" />
    <line id="pi-267" x1="-114.802" y1="-192.205" x2="-115.008" y2="-192.205" stroke="black" stroke-width="0.102" stroke-linecap="square" />
    <line id="pi-268" x1="-115.113" y1="-193.243" x2="-115.113" y2="-192.31" stroke="black" stroke-width="0.102" stroke-linecap="square" />
    <line id="pi-269" x1="-114.7" y1="-191.062" x2="-114.7" y2="-191.062" stroke="black" stroke-width="0.102" stroke-linecap="square" />
    <line id="pi-270" x1="-114.802" y1="-191.062" x2="-115.008" y2="-191.062" stroke="black" stroke-width="0.102" stroke-linecap="square" />
    <line id="pi-271" x1="-115.113" y1="-192.1" x2="-115.113" y2="-191.167" stroke="black" stroke-width="0.102" stroke-linecap="square" />
    <line id="pi-272" x1="-114.7" y1="-189.919" x2="-114.7" y2="-189.919" stroke="black" stroke-width="0.102" stroke-linecap="square" />
    <line id="pi-273" x1="-114.802" y1="-189.919" x2="-115.008" y2="-189.919" stroke="black" stroke-width="0.102" stroke-linecap="square" />
    <line id="pi-274" x1="-115.113" y1="-189.814" x2="-115.113" y2="-189.601" stroke="black" stroke-width="0.102" stroke-linecap="square" />
    <line id="pi-275" x1="-115.113" y1="-190.957" x2="-115.113" y2="-190.024" stroke="black" stroke-width="0.102" stroke-linecap="square" />
    <line id="pi-276" x1="-113.059" y1="-194.523" x2="-112.853" y2="-194.523" stroke="black" stroke-width="0.102" stroke-linecap="square" />
    <line id="pi-277" x1="-115.113" y1="-195.712" x2="-115.113" y2="-194.628" stroke="black" stroke-width="0.102" stroke-linecap="square" />
    <line id="pi-278" x1="-114.765" y1="-194.771" x2="-114.765" y2="-194.771" stroke="black" stroke-width="0.038" stroke-linecap="square" />
    <line id="pi-279" x1="-114.765" y1="-194.733" x2="-114.765" y2="-194.73" stroke="black" stroke-width="0.038" stroke-linecap="square" />
    <line id="pi-280" x1="-115.008" y1="-194.523" x2="-114.87" y2="-194.523" stroke="black" stroke-width="0.102" stroke-linecap="square" />
    <line id="pi-281" x1="-113.926" y1="-194.771" x2="-113.926" y2="-194.771" stroke="black" stroke-width="0.038" stroke-linecap="square" />
    <line id="pi-282" x1="-113.926" y1="-194.733" x2="-113.926" y2="-194.73" stroke="black" stroke-width="0.038" stroke-linecap="square" />
    <line id="pi-283" x1="-114.66" y1="-194.523" x2="-114.031" y2="-194.523" stroke="black" stroke-width="0.102" stroke-linecap="square" />
    <line id="pi-284" x1="-113.164" y1="-194.771" x2="-113.164" y2="-194.771" stroke="black" stroke-width="0.038" stroke-linecap="square" />
    <line id="pi-285" x1="-113.164" y1="-194.733" x2="-113.164" y2="-194.73" stroke="black" stroke-width="0.038" stroke-linecap="square" />
    <line id="pi-286" x1="-113.821" y1="-194.523" x2="-113.269" y2="-194.523" stroke="black" stroke-width="0.102" stroke-linecap="square" />
    <line id="pi-287" x1="-113.059" y1="-195.817" x2="-112.853" y2="-195.817" stroke="black" stroke-width="0.102" stroke-linecap="square" />
    <line id="pi-288" x1="-115.113" y1="-196.89" x2="-115.113" y2="-195.922" stroke="black" stroke-width="0.102" stroke-linecap="square" />
    <line id="pi-289" x1="-114.765" y1="-195.545" x2="-114.765" y2="-195.545" stroke="black" stroke-width="0.038" stroke-linecap="square" />
    <line id="pi-290" x1="-114.765" y1="-195.583" x2="-114.765" y2="-195.61" stroke="black" stroke-width="0.038" stroke-linecap="square" />
    <line id="pi-291" x1="-115.008" y1="-195.817" x2="-114.87" y2="-195.817" stroke="black" stroke-width="0.102" stroke-linecap="square" />
    <line id="pi-292" x1="-113.164" y1="-195.545" x2="-113.164" y2="-195.545" stroke="black" stroke-width="0.038" stroke-linecap="square" />
    <line id="pi-293" x1="-113.164" y1="-195.583" x2="-113.164" y2="-195.61" stroke="black" stroke-width="0.038" stroke-linecap="square" />
    <line id="pi-294" x1="-113.821" y1="-195.817" x2="-113.269" y2="-195.817" stroke="black" stroke-width="0.102" stroke-linecap="square" />
    <line id="pi-295" x1="-113.926" y1="-195.545" x2="-113.926" y2="-195.545" stroke="black" stroke-width="0.038" stroke-linecap="square" />
    <line id="pi-296" x1="-113.926" y1="-195.583" x2="-113.926" y2="-195.61" stroke="black" stroke-width="0.038" stroke-linecap="square" />
    <line id="pi-297" x1="-114.66" y1="-195.817" x2="-114.031" y2="-195.817" stroke="black" stroke-width="0.102" stroke-linecap="square" />
    <line id="pi-298" x1="-111.766" y1="-198.511" x2="-111.766" y2="-198.511" stroke="black" stroke-width="0.051" stroke-linecap="square" />
    <line id="pi-299" x1="-111.817" y1="-198.511" x2="-111.904" y2="-198.511" stroke="black" stroke-width="0.051" stroke-linecap="square" />
    <line id="pi-300" x1="-112.111" y1="-198.847" x2="-112.111" y2="-198.616" stroke="black" stroke-width="0.102" stroke-linecap="square" />
    <line id="pi-301" x1="-111.766" y1="-197.698" x2="-111.766" y2="-197.698" stroke="black" stroke-width="0.051" stroke-linecap="square" />
    <line id="pi-302" x1="-111.817" y1="-197.698" x2="-111.904" y2="-197.698" stroke="black" stroke-width="0.051" stroke-linecap="square" />
    <line id="pi-303" x1="-112.111" y1="-198.406" x2="-112.111" y2="-197.803" stroke="black" stroke-width="0.102" stroke-linecap="square" />
    <line id="pi-304" x1="-111.766" y1="-196.733" x2="-111.766" y2="-196.733" stroke="black" stroke-width="0.051" stroke-linecap="square" />
    <line id="pi-305" x1="-111.817" y1="-196.733" x2="-111.904" y2="-196.733" stroke="black" stroke-width="0.051" stroke-linecap="square" />
    <line id="pi-306" x1="-112.111" y1="-196.628" x2="-112.111" y2="-194.164" stroke="black" stroke-width="0.102" stroke-linecap="square" />
    <line id="pi-307" x1="-112.111" y1="-197.593" x2="-112.111" y2="-196.838" stroke="black" stroke-width="0.102" stroke-linecap="square" />
    <line id="pi-308" x1="-112.465" y1="-198.8" x2="-112.465" y2="-198.85" stroke="black" stroke-width="0.102" stroke-linecap="square" />
    <line id="pi-309" x1="-112.216" y1="-198.952" x2="-112.363" y2="-198.952" stroke="black" stroke-width="0.102" stroke-linecap="square" />
    <line id="pi-310" x1="-112.111" y1="-199.199" x2="-112.111" y2="-199.057" stroke="black" stroke-width="0.102" stroke-linecap="square" />
    <line id="pi-311" x1="-112.009" y1="-194.062" x2="-111.908" y2="-194.062" stroke="black" stroke-width="0.102" stroke-linecap="square" />
    <line id="pi-312" x1="-111.806" y1="-189.814" x2="-111.806" y2="-189.643" stroke="black" stroke-width="0.102" stroke-linecap="square" />
    <line id="pi-313" x1="-112.259" y1="-193.348" x2="-112.259" y2="-193.348" stroke="black" stroke-width="0.102" stroke-linecap="square" />
    <line id="pi-314" x1="-112.157" y1="-193.348" x2="-111.911" y2="-193.348" stroke="black" stroke-width="0.102" stroke-linecap="square" />
    <line id="pi-315" x1="-111.806" y1="-193.96" x2="-111.806" y2="-193.453" stroke="black" stroke-width="0.102" stroke-linecap="square" />
    <line id="pi-316" x1="-112.259" y1="-192.205" x2="-112.259" y2="-192.205" stroke="black" stroke-width="0.102" stroke-linecap="square" />
    <line id="pi-317" x1="-112.157" y1="-192.205" x2="-111.911" y2="-192.205" stroke="black" stroke-width="0.102" stroke-linecap="square" />
    <line id="pi-318" x1="-111.806" y1="-193.243" x2="-111.806" y2="-192.31" stroke="black" stroke-width="0.102" stroke-linecap="square" />
    <line id="pi-319" x1="-112.259" y1="-191.062" x2="-112.259" y2="-191.062" stroke="black" stroke-width="0.102" stroke-linecap="square" />
    <line id="pi-320" x1="-112.157" y1="-191.062" x2="-111.911" y2="-191.062" stroke="black" stroke-width="0.102" stroke-linecap="square" />
    <line id="pi-321" x1="-111.806" y1="-192.1" x2="-111.806" y2="-191.167" stroke="black" stroke-width="0.102" stroke-linecap="square" />
    <line id="pi-322" x1="-112.259" y1="-189.919" x2="-112.259" y2="-189.919" stroke="black" stroke-width="0.102" stroke-linecap="square" />
    <line id="pi-323" x1="-112.157" y1="-189.919" x2="-111.911" y2="-189.919" stroke="black" stroke-width="0.102" stroke-linecap="square" />
    <line id="pi-324" x1="-111.806" y1="-190.957" x2="-111.806" y2="-190.024" stroke="black" stroke-width="0.102" stroke-linecap="square" />
    <line id="pi-848" x1="-115.603" y1="-196.558" x2="-115.603" y2="-199.203" stroke="black" stroke-width="0.102" stroke-linecap="square" />
    <line id="pi-849" x1="-116.536" y1="-196.453" x2="-116.536" y2="-196.453" stroke="black" stroke-width="0.032" stroke-linecap="square" />
    <line id="pi-850" x1="-116.504" y1="-196.453" x2="-115.635" y2="-196.453" stroke="black" stroke-width="0.032" stroke-linecap="square" />
    <line id="pi-851" x1="-115.603" y1="-196.453" x2="-115.603" y2="-196.453" stroke="black" stroke-width="0.032" stroke-linecap="square" />
    <line id="pi-852" x1="-115.603" y1="-195.973" x2="-115.603" y2="-196.348" stroke="black" stroke-width="0.102" stroke-linecap="square" />
    <line id="pi-853" x1="-117.111" y1="-197.013" x2="-117.33" y2="-197.013" stroke="black" stroke-width="0.102" stroke-linecap="square" />
    <line id="pi-854" x1="-117.006" y1="-196.453" x2="-117.006" y2="-196.453" stroke="black" stroke-width="0.032" stroke-linecap="square" />
    <line id="pi-855" x1="-117.006" y1="-196.485" x2="-117.006" y2="-196.981" stroke="black" stroke-width="0.032" stroke-linecap="square" />
    <line id="pi-856" x1="-117.006" y1="-197.013" x2="-117.006" y2="-197.013" stroke="black" stroke-width="0.032" stroke-linecap="square" />
    <line id="pi-857" x1="-115.933" y1="-197.013" x2="-116.901" y2="-197.013" stroke="black" stroke-width="0.102" stroke-linecap="square" />
    <line id="pi-858" x1="-112.069" y1="-199.305" x2="-115.501" y2="-199.305" stroke="black" stroke-width="0.102" stroke-linecap="square" />
    <line id="pi-860" x1="-115.831" y1="-197.115" x2="-115.831" y2="-199.425" stroke="black" stroke-width="0.102" stroke-linecap="square" />
    <line id="pi-861" x1="-115.603" y1="-199.305" x2="-115.603" y2="-199.305" stroke="black" stroke-width="0.102" stroke-linecap="square" />
    <line id="pi-862" x1="-111.919" y1="-199.527" x2="-115.729" y2="-199.527" stroke="black" stroke-width="0.102" stroke-linecap="square" />
    <line id="pi-863" x1="-111.817" y1="-199.409" x2="-111.817" y2="-199.425" stroke="black" stroke-width="0.102" stroke-linecap="square" />
    <line id="pi-865" x1="-115.831" y1="-199.527" x2="-115.831" y2="-199.527" stroke="black" stroke-width="0.102" stroke-linecap="square" />
  </g>
</svg>