<?xml version="1.0" encoding="utf-8"?>
<svg xmlns="http://www.w3.org/2000/svg" viewBox="-34.737 -8.054 57.092 18.451">
  <g transform="scale(1,-1)">
    <polygon id="cl-39" points="-4.648,-8.626 -4.648,-8.868 -6.02,-8.868 -6.02,-9.299 0.94,-9.299 0.94,-8.868 -0.432,-8.868 -0.432,-8.626" />
    <polygon id="cl-40" points="-11.998,0.838 -6.477,0.838 -6.172,0.838 -6.172,0.895 0.787,0.895 0.787,1.067 1.397,1.067 1.397,0.838 6.985,0.838 6.985,0.889 6.985,1.067 7.595,1.067 7.595,0.889 7.595,0.838 12.189,0.838 12.189,0.889 12.189,0.956 14.51,0.956 14.51,2.667 0.943,2.667 0.943,5.674 -1.413,5.674 -1.413,2.667 -11.998,2.667 -11.998,0.894" />
    <polygon id="cl-41" points="-5.845,-8.868 -5.845,-9.096 -4.721,-9.096 -4.721,-8.868" />
    <polygon id="cl-42" points="0.765,-8.868 -0.359,-8.868 -0.359,-9.096 0.765,-9.096" />
    <polygon id="cl-43" points="2.718,6.082 1.241,6.082 1.241,5.713 1.241,4.205 2.718,4.205" />
    <polygon id="cl-44" points="-32.012,0.441 -32.85,-1.396 -28.926,-3.184 -27.274,0.441" />
    <polygon id="cl-45" points="-15.316,1.083 -15.316,2.635 -27.708,2.635 -27.708,5.566 -30.326,5.566 -33.639,5.566 -33.639,1.083" />
    <polygon id="cl-46" points="12.427,-9.172 12.427,-8.688 12.189,-8.688 12.189,-8.534 1.241,-8.534 1.241,-8.585 1.397,-8.585 1.397,-9.172" />
    <polygon id="cl-47" points="21.257,-8.012 21.23,-7.805 15.832,-8.515 15.859,-8.723 16.158,-8.684 16.16,-8.699 21.146,-8.043 21.144,-8.027" />
    <polygon id="cl-48" points="-8.401,2.823 -8.401,6.353 -11.922,6.353 -11.922,5.663 -11.922,2.823" />
    <polygon id="cl-49" points="-1.934,6.471 -4.788,6.471 -4.788,2.823 -1.6,2.823 -1.6,5.674 -1.934,5.674" />
    <polygon id="cl-50" points="10.69,3.997 10.69,6.956 5.42,6.956 5.42,3.997" />
    <polygon id="cl-51" points="-8.112,-3.578 -8.112,-0.645 -13.383,-0.645 -13.383,-3.578" />
  </g>
</svg>