<?xml version="1.0" encoding="utf-8"?>
<svg xmlns="http://www.w3.org/2000/svg" viewBox="-30.181 -14.033 51.811 24.462">
  <g transform="scale(1,-1)">
    <path id="du-82" d="M -10.877,-2.863 L -10.877,-2.964" />
    <path id="du-83" d="M -11.385,-2.507 L -11.385,-2.66" />
    <path id="du-84" d="M -10.877,-2.507 L -10.877,-2.609" />
    <path id="du-85" d="M -12.735,-3.046 L -12.735,-3.046" />
    <path id="du-86" d="M -12.659,-3.046 L -11.973,-3.046" />
    <path id="du-87" d="M -10.724,3.194 L -10.724,5.258" />
    <path id="du-88" d="M -10.91,3.057 L -10.91,5.141" />
    <path id="du-89" d="M -9.735,4.707 L -9.735,5.166" />
    <path id="du-90" d="M -11.109,6.136 L -11.109,6.239" />
    <path id="du-91" d="M -11.383,6.149 L -11.659,6.308" />
    <path id="du-92" d="M -11.251,6.072 L -11.251,6.072" />
    <path id="du-93" d="M -11.109,6.382 L -11.109,11.3" />
    <path id="du-94" d="M -11.109,11.398 L -11.109,11.525" />
    <path id="du-95" d="M -11.109,12.219 L -11.109,11.623" />
    <path id="du-96" d="M -6.76,12.524 L -6.76,13.037" />
    <path id="du-97" d="M -6.76,12.371 L -6.76,12.371" />
    <path id="du-98" d="M -6.912,12.371 L -10.957,12.371" />
    <path id="du-99" d="M -11.735,6.44 L -11.735,11.64" />
    <path id="du-100" d="M -11.704,11.787 L -11.592,11.899" />
    <path id="du-101" d="M -11.251,5.92 L -11.251,5.654" />
    <path id="du-102" d="M -11.223,5.536 L -11.216,5.524" />
    <path id="du-103" d="M -11.149,5.442 L -10.955,5.248" />
    <path id="du-104" d="M -10.769,5.366 L -10.917,5.514" />
    <path id="du-105" d="M -10.959,5.556 L -11.063,5.661" />
    <path id="du-106" d="M -11.109,5.776 L -11.109,5.993" />
    <path id="du-107" d="M -9.735,3.149 L -9.735,3.019" />
    <path id="du-108" d="M -9.887,2.905 L -10.758,2.905" />
    <path id="du-109" d="M -10.572,3.042 L -10.491,3.042" />
    <path id="du-110" d="M -10.362,3.042 L -10.325,3.042" />
    <path id="du-111" d="M -9.735,3.277 L -9.735,3.251" />
    <path id="du-112" d="M -10.728,-8.144 L -10.728,-8.041" />
    <path id="du-113" d="M -10.728,-7.909 L -10.728,-7.554" />
    <path id="du-114" d="M -10.684,-7.446 L -10.303,-7.066" />
    <path id="du-115" d="M -10.258,-6.958 L -10.258,-4.367" />
    <path id="du-116" d="M -10.258,-4.235 L -10.258,-4.133" />
    <path id="du-117" d="M -10.258,-4.001 L -10.258,-3.707" />
    <path id="du-118" d="M -10.258,-3.575 L -10.258,-3.502" />
    <path id="du-119" d="M -10.258,-3.37 L -10.258,-1.364" />
    <path id="du-120" d="M -10.258,-1.257 L -10.258,-1.193" />
    <path id="du-121" d="M -10.258,-1.086 L -10.258,-0.946" />
    <path id="du-122" d="M -10.411,-0.793 L -10.725,-0.793" />
    <path id="du-123" d="M -10.877,-0.948 L -10.877,-0.92" />
    <path id="du-124" d="M -10.728,-8.899 L -10.728,-8.276" />
    <path id="du-125" d="M -12.71,-8.899 L -12.71,-8.276" />
    <path id="du-126" d="M -12.71,-8.144 L -12.71,-8.041" />
    <path id="du-127" d="M -12.71,-7.909 L -12.71,-7.842" />
    <path id="du-128" d="M -12.665,-7.735 L -12.043,-7.113" />
    <path id="du-129" d="M -11.998,-7.005 L -11.998,-4.367" />
    <path id="du-130" d="M -11.998,-4.235 L -11.998,-4.133" />
    <path id="du-131" d="M -11.998,-4.001 L -11.998,-3.707" />
    <path id="du-132" d="M -11.998,-3.575 L -11.998,-3.502" />
    <path id="du-133" d="M -11.998,-3.37 L -11.998,-1.273" />
    <path id="du-134" d="M -11.998,-1.166 L -11.998,-1.103" />
    <path id="du-135" d="M -11.998,-0.995 L -11.998,-0.945" />
    <path id="du-136" d="M -8.629,5.632 L -8.629,5.632" />
    <path id="du-137" d="M -10.243,4.891 L -10.243,4.707" />
    <path id="du-138" d="M -10.243,5.723 L -10.243,6.091" />
    <path id="du-139" d="M -10.243,5.647 L -10.243,5.647" />
    <path id="du-140" d="M -10.243,6.167 L -10.243,6.167" />
    <path id="du-141" d="M -10.243,6.596 L -10.243,11.615" />
    <path id="du-142" d="M -10.243,6.167 L -10.243,6.167" />
    <path id="du-143" d="M -10.243,5.647 L -10.243,5.647" />
    <path id="du-144" d="M -10.09,5.018 L -10.039,5.018" />
    <path id="du-145" d="M -10.243,5.328 L -10.243,5.145" />
    <path id="du-146" d="M -5.406,6.944 L -3.089,6.944" />
    <path id="du-147" d="M -5.904,6.283 L -5.904,6.283" />
    <path id="du-148" d="M -5.803,6.459 L -5.582,6.842" />
    <path id="du-149" d="M -2.886,6.679 L -2.886,6.41" />
    <path id="du-150" d="M -2.886,6.302 L -2.886,6.176" />
    <path id="du-151" d="M -2.886,6.068 L -2.886,5.71" />
    <path id="du-152" d="M -2.886,5.596 L -2.886,5.504" />
    <path id="du-153" d="M -2.886,5.39 L -2.886,4.968" />
    <path id="du-154" d="M 2.621,8.77 L 2.621,7.399" />
    <path id="du-155" d="M 3.129,10.2 L 3.129,11.724" />
    <path id="du-156" d="M 9.16,7.926 L 9.16,6.837" />
    <path id="du-157" d="M 9.007,8.078 L 3.434,8.078" />
    <path id="du-158" d="M 9.16,6.614 L 9.16,6.3" />
    <path id="du-159" d="M 9.16,6.192 L 9.16,5.855" />
    <path id="du-160" d="M 2.621,10.2 L 2.621,11.792" />
    <path id="du-161" d="M 2.545,11.924 L 2.237,12.102" />
    <path id="du-162" d="M 2.105,12.178 L 2.105,12.178" />
    <path id="du-163" d="M 4.645,12.405 L 4.645,13.037" />
    <path id="du-164" d="M 4.619,12.285 L 4.42,11.942" />
    <path id="du-165" d="M 4.278,11.877 L 3.281,11.877" />
    <path id="du-166" d="M 17.345,13.037 L 17.345,12.558" />
    <path id="du-167" d="M 15.326,8.989 L 15.326,4.213" />
    <path id="du-168" d="M 14.818,4.854 L 14.818,9.68" />
    <path id="du-169" d="M 15.326,9.141 L 15.326,9.141" />
    <path id="du-170" d="M 15.326,9.23 L 15.326,9.569" />
    <path id="du-171" d="M 15.326,9.785 L 15.326,10.141" />
    <path id="du-172" d="M 14.364,10.344 L 15.123,10.344" />
    <path id="du-173" d="M 13.421,10.344 L 13.665,10.344" />
    <path id="du-174" d="M 13.919,10.344 L 14.11,10.344" />
    <path id="du-175" d="M 17.193,12.406 L 15.479,12.406" />
    <path id="du-176" d="M 14.666,12.406 L 13.687,12.406" />
    <path id="du-177" d="M 14.818,12.253 L 14.818,11.11" />
    <path id="du-178" d="M 18.23,-5.145 L 18.23,-4.387" />
    <path id="du-179" d="M 16.677,-8.394 L 16.661,-8.272" />
    <path id="du-180" d="M 20.552,-7.759 L 20.57,-7.9" />
    <path id="du-181" d="M 16.69,-8.494 L 16.69,-8.494" />
    <path id="du-182" d="M 16.703,-8.595 L 16.742,-8.885" />
    <path id="du-183" d="M 20.583,-8.001 L 20.583,-8.001" />
    <path id="du-184" d="M 18.918,-7.872 L 20.438,-7.672" />
    <path id="du-185" d="M 16.748,-8.158 L 17.634,-8.041" />
    <path id="du-186" d="M 18.274,-7.313 L 18.79,-7.829" />
    <path id="du-187" d="M 18.535,-4.082 L 20.516,-4.082" />
    <path id="du-188" d="M 17.633,-3.967 L 17.129,-3.463" />
    <path id="du-189" d="M 17.039,-3.248 L 17.039,0.608" />
    <path id="du-190" d="M 4.88,-5.145 L 4.88,-0.395" />
    <path id="du-191" d="M 4.88,-0.179 L 4.88,0.227" />
    <path id="du-192" d="M 4.88,0.316 L 4.88,0.316" />
    <path id="du-193" d="M 9.42,-5.145 L 9.42,-0.395" />
    <path id="du-194" d="M 9.42,0.316 L 9.42,0.316" />
    <path id="du-195" d="M 9.42,0.227 L 9.42,-0.179" />
    <path id="du-196" d="M 9.928,-5.145 L 9.928,-4.84" />
    <path id="du-197" d="M 10.233,-4.536 L 11.478,-4.536" />
    <path id="du-198" d="M 11.693,-4.446 L 11.964,-4.175" />
    <path id="du-199" d="M 12.054,-3.96 L 12.054,0.334" />
    <path id="du-200" d="M 5.388,-5.145 L 5.388,-4.84" />
    <path id="du-201" d="M 2.618,-4.536 L 4.851,-4.536" />
    <path id="du-202" d="M 5.172,-4.536 L 5.067,-4.536" />
    <path id="du-203" d="M 2.403,-4.446 L 1.612,-3.655" />
    <path id="du-204" d="M 1.522,-3.439 L 1.522,0.32" />
    <path id="du-205" d="M 4.88,-6.575 L 4.88,-8.62" />
    <path id="du-206" d="M 4.88,-8.836 L 4.88,-8.836" />
    <path id="du-207" d="M 2.571,-9.171 L 2.571,-9.432" />
    <path id="du-208" d="M 8.159,-9.223 L 8.159,-9.432" />
    <path id="du-209" d="M 4.685,-8.836 L 2.996,-8.836" />
    <path id="du-210" d="M 2.639,-9.044 L 2.911,-8.862" />
    <path id="du-211" d="M 4.88,-8.728 L 4.88,-8.791" />
    <path id="du-212" d="M 5.388,-6.575 L 5.388,-8.569" />
    <path id="du-213" d="M 5.558,-8.836 L 5.986,-8.836" />
    <path id="du-214" d="M 5.417,-8.836 L 5.486,-8.836" />
    <path id="du-215" d="M 5.388,-8.791 L 5.388,-8.677" />
    <path id="du-216" d="M 5.388,-8.836 L 5.388,-8.836" />
    <path id="du-217" d="M 6.094,-8.88 L 6.394,-9.18" />
    <path id="du-218" d="M 4.757,-8.836 L 4.85,-8.836" />
    <path id="du-219" d="M 9.42,-6.575 L 9.42,-8.62" />
    <path id="du-220" d="M 9.229,-8.836 L 8.521,-8.836" />
    <path id="du-221" d="M 9.928,-6.575 L 9.928,-8.62" />
    <path id="du-222" d="M 9.42,-8.728 L 9.42,-8.791" />
    <path id="du-223" d="M 9.42,-8.836 L 9.42,-8.836" />
    <path id="du-224" d="M 9.301,-8.836 L 9.39,-8.836" />
    <path id="du-225" d="M 8.396,-8.898 L 8.204,-9.09" />
    <path id="du-226" d="M 9.928,-8.836 L 9.928,-8.836" />
    <path id="du-227" d="M 9.972,-8.836 L 10.032,-8.836" />
    <path id="du-228" d="M 10.14,-8.836 L 11.626,-8.836" />
    <path id="du-229" d="M 9.928,-8.728 L 9.928,-8.791" />
    <path id="du-230" d="M 11.734,-8.88 L 12.027,-9.174" />
    <path id="du-231" d="M -26.985,11.001 L -26.528,11.001" />
    <path id="du-232" d="M -26.223,10.696 L -26.223,7.648" />
    <path id="du-233" d="M -26.985,11.509 L -18.146,11.509" />
    <path id="du-234" d="M -28.415,11.509 L -28.568,11.509" />
    <path id="du-235" d="M -28.72,11.662 L -28.72,11.814" />
    <path id="du-236" d="M -28.568,11.966 L -24.257,11.966" />
    <path id="du-237" d="M -24.105,12.119 L -24.105,13.037" />
    <path id="du-238" d="M -28.415,11.001 L -29.032,11.001" />
    <path id="du-239" d="M -25.803,3.025 L -25.803,2.667" />
    <path id="du-240" d="M -19.525,3.177 L -25.651,3.177" />
    <path id="du-241" d="M -15.59,5.384 L -15.59,5.384" />
    <path id="du-242" d="M -16.196,4.229 L -15.895,4.229" />
    <path id="du-243" d="M -15.59,4.534 L -15.59,5.079" />
    <path id="du-244" d="M -16.196,3.721 L -15.891,3.721" />
    <path id="du-245" d="M -15.587,3.416 L -15.587,3.365" />
    <path id="du-246" d="M -17.626,4.229 L -18.84,4.229" />
    <path id="du-247" d="M -17.626,3.721 L -17.778,3.721" />
    <path id="du-248" d="M -18.978,4.141 L -19.386,3.265" />
    <path id="du-249" d="M -17.916,3.632 L -18.17,3.077" />
    <path id="du-250" d="M -15.587,3.061 L -15.587,3.061" />
    <path id="du-251" d="M -5.891,-4.307 L -5.891,-4.307" />
    <path id="du-252" d="M 0.832,-4.307 L 0.832,-4.307" />
    <path id="du-253" d="M 20.633,-8.38 L 20.597,-8.102" />
    <path id="du-254" d="M 15.326,12.253 L 15.326,11.11" />
    <path id="du-255" d="M 13.535,13.037 L 13.535,12.558" />
    <path id="du-256" d="M 2.105,13.037 L 2.105,12.33" />
    <path id="du-257" d="M -11.56,13.037 L -11.56,12.045" />
    <path id="du-258" d="M -29.185,13.037 L -29.185,11.154" />
    <path id="du-259" d="M -11.846,-0.793 L -11.655,-0.793" />
    <path id="du-260" d="M -11.581,-0.793 L -11.518,-0.793" />
    <path id="du-261" d="M 11.206,8.078 L 9.312,8.078" />
    <path id="du-262" d="M 3.129,8.77 L 3.129,8.383" />
    <path id="du-263" d="M 15.326,9.68 L 15.326,9.293" />
    <path id="du-1070" d="M 5.712,12.063 L 5.712,12.192" />
    <path id="du-1071" d="M 6.469,4.45 L 6.469,4.45" />
    <path id="du-1072" d="M 6.317,4.45 L 5.864,4.45" />
    <path id="du-1073" d="M 5.712,6.564 L 5.712,11.632" />
    <path id="du-1074" d="M 5.712,5.659 L 5.712,6.139" />
    <path id="du-1075" d="M 5.712,11.955 L 5.712,11.74" />
    <path id="du-1076" d="M 5.712,4.602 L 5.712,5.379" />
    <path id="du-1077" d="M 5.712,5.456 L 5.712,5.583" />
    <path id="du-1078" d="M 5.712,6.456 L 5.712,6.247" />
    <path id="du-1079" d="M 5.915,13.037 L 5.915,12.522" />
    <path id="du-1080" d="M 5.87,12.414 L 5.756,12.3" />
    <path id="du-1081" d="M -8.879,3.389 L -8.879,3.389" />
    <path id="du-1082" d="M -4.408,3.637 L -4.408,3.637" />
    <path id="du-1083" d="M -4.408,3.79 L -4.408,5.923" />
    <path id="du-1084" d="M -4.256,6.075 L -2.184,6.075" />
    <path id="du-1085" d="M -2.032,6.227 L -2.032,8.539" />
    <path id="du-1086" d="M -0.511,13.037 L -0.511,12.63" />
    <path id="du-1087" d="M -0.359,12.478 L 0.533,12.478" />
    <path id="du-1088" d="M -1.88,8.691 L 0.699,8.691" />
    <path id="du-1089" d="M 0.851,8.691 L 0.851,8.691" />
    <path id="du-1090" d="M 0.851,8.844 L 0.851,12.164" />
    <path id="du-1091" d="M 0.749,12.265 L 0.737,12.265" />
    <path id="du-1092" d="M 0.635,12.376 L 0.635,12.367" />
    <path id="du-1093" d="M -9.35,6.839 L -9.35,11.856" />
    <path id="du-1094" d="M -9.031,6.687 L -9.198,6.687" />
    <path id="du-1095" d="M -8.879,3.542 L -8.879,5.257" />
    <path id="du-1096" d="M -8.879,5.364 L -8.879,5.471" />
    <path id="du-1097" d="M -8.879,5.578 L -8.879,6.112" />
    <path id="du-1098" d="M -8.879,6.22 L -8.879,6.326" />
    <path id="du-1099" d="M -8.879,6.434 L -8.879,6.534" />
    <path id="du-1100" d="M -9.35,11.964 L -9.35,12.179" />
    <path id="du-1101" d="M -9.35,12.287 L -9.35,13.037" />
    <path id="du-1102" d="M -9.3,-1.172 L -9.3,-1.172" />
    <path id="du-1103" d="M -9.148,-1.172 L -6.996,-1.172" />
    <path id="du-1104" d="M -6.844,-1.324 L -6.844,-3.243" />
    <path id="du-1105" d="M -6.844,-8.257 L -6.844,-8.899" />
    <path id="du-1106" d="M -6.844,-3.375 L -6.844,-3.604" />
    <path id="du-1107" d="M -6.844,-4.011 L -6.844,-3.736" />
    <path id="du-1108" d="M -6.844,-4.504 L -6.844,-7.796" />
    <path id="du-1109" d="M -6.844,-7.928 L -6.844,-8.125" />
    <path id="du-1110" d="M -6.844,-4.372 L -6.844,-4.143" />
    <path id="du-1111" d="M -16.485,13.037 L -16.485,12.554" />
    <path id="du-1112" d="M -16.637,12.402 L -16.993,12.402" />
    <path id="du-1113" d="M 15.699,12.735 L 15.699,13.037" />
  </g>
</svg>