<?xml version="1.0" encoding="utf-8"?>
<svg xmlns="http://www.w3.org/2000/svg" viewBox="-30.207 -13.500 51.845 23.747">
  <g transform="scale(1,-1)">
    <rect id="mn-58" x="-10.902" y="-2.989" width="0.05" height="0.05" transform="rotate(270,-10.877,-2.964)" />
    <rect id="mn-59" x="-10.902" y="-2.761" width="0.05" height="0.05" transform="rotate(180,-10.877,-2.736)" />
    <rect id="mn-60" x="-10.283" y="-2.057" width="0.05" height="0.05" transform="rotate(120,-10.258,-2.032)" />
    <rect id="mn-61" x="-12.76" y="-3.071" width="0.05" height="0.05" transform="rotate(240,-12.735,-3.046)" />
    <rect id="mn-62" x="-11.998" y="-3.071" width="0.05" height="0.05" />
    <rect id="mn-63" x="-12.76" y="-3.071" width="0.05" height="0.05" transform="rotate(270,-12.735,-3.046)" />
    <rect id="mn-64" x="-10.749" y="3.017" width="0.05" height="0.05" transform="rotate(270,-10.724,3.042)" />
    <rect id="mn-65" x="-10.935" y="2.88" width="0.05" height="0.05" transform="rotate(270,-10.91,2.905)" />
    <rect id="mn-66" x="-11.134" y="6.075" width="0.05" height="0.05" transform="rotate(120,-11.109,6.1)" />
    <rect id="mn-67" x="-11.134" y="6.25" width="0.05" height="0.05" transform="rotate(91.728,-11.109,6.275)" />
    <rect id="mn-68" x="-11.276" y="6.047" width="0.05" height="0.05" transform="rotate(120,-11.251,6.072)" />
    <rect id="mn-69" x="-11.276" y="6.047" width="0.05" height="0.05" transform="rotate(104.478,-11.251,6.072)" />
    <rect id="mn-70" x="-11.76" y="6.327" width="0.05" height="0.05" transform="rotate(270,-11.735,6.352)" />
    <rect id="mn-71" x="-11.134" y="11.33" width="0.05" height="0.05" transform="rotate(120,-11.109,11.355)" />
    <rect id="mn-72" x="-11.134" y="12.346" width="0.05" height="0.05" transform="rotate(180,-11.109,12.371)" />
    <rect id="mn-73" x="-11.134" y="11.542" width="0.05" height="0.05" transform="rotate(100.289,-11.109,11.567)" />
    <rect id="mn-74" x="-6.785" y="12.346" width="0.05" height="0.05" transform="rotate(120,-6.76,12.371)" />
    <rect id="mn-75" x="-11.76" y="11.73" width="0.05" height="0.05" transform="rotate(130.061,-11.735,11.755)" />
    <rect id="mn-76" x="-10.935" y="5.179" width="0.05" height="0.05" transform="rotate(90,-10.91,5.204)" />
    <rect id="mn-77" x="-11.276" y="5.556" width="0.05" height="0.05" transform="rotate(255.704,-11.251,5.581)" />
    <rect id="mn-78" x="-11.217" y="5.46" width="0.05" height="0.05" transform="rotate(248.778,-11.192,5.485)" />
    <rect id="mn-79" x="-10.749" y="5.297" width="0.05" height="0.05" transform="rotate(90,-10.724,5.322)" />
    <rect id="mn-80" x="-10.964" y="5.511" width="0.05" height="0.05" transform="rotate(148.6,-10.939,5.536)" />
    <rect id="mn-81" x="-11.134" y="5.681" width="0.05" height="0.05" transform="rotate(265.939,-11.109,5.706)" />
    <rect id="mn-82" x="-9.76" y="2.88" width="0.05" height="0.05" transform="rotate(41.857,-9.735,2.905)" />
    <rect id="mn-83" x="-10.432" y="3.017" width="0.05" height="0.05" transform="rotate(90,-10.407,3.042)" />
    <rect id="mn-84" x="-10.268" y="3.017" width="0.05" height="0.05" transform="rotate(57.401,-10.243,3.042)" />
    <rect id="mn-85" x="-9.76" y="3.168" width="0.05" height="0.05" transform="rotate(99.576,-9.735,3.193)" />
    <rect id="mn-86" x="-6.785" y="12.346" width="0.05" height="0.05" transform="rotate(270,-6.76,12.371)" />
    <rect id="mn-87" x="-10.753" y="-8.022" width="0.05" height="0.05" transform="rotate(93.841,-10.728,-7.997)" />
    <rect id="mn-88" x="-10.753" y="-7.516" width="0.05" height="0.05" transform="rotate(225,-10.728,-7.491)" />
    <rect id="mn-89" x="-10.283" y="-7.046" width="0.05" height="0.05" transform="rotate(45,-10.258,-7.021)" />
    <rect id="mn-90" x="-10.283" y="-4.304" width="0.05" height="0.05" transform="rotate(120,-10.258,-4.279)" />
    <rect id="mn-91" x="-10.283" y="-4.114" width="0.05" height="0.05" transform="rotate(93.841,-10.258,-4.089)" />
    <rect id="mn-92" x="-10.283" y="-3.644" width="0.05" height="0.05" transform="rotate(120,-10.258,-3.619)" />
    <rect id="mn-93" x="-10.283" y="-3.483" width="0.05" height="0.05" transform="rotate(93.841,-10.258,-3.458)" />
    <rect id="mn-94" x="-10.283" y="-1.326" width="0.05" height="0.05" transform="rotate(120,-10.258,-1.301)" />
    <rect id="mn-95" x="-10.283" y="-1.174" width="0.05" height="0.05" transform="rotate(98.421,-10.258,-1.149)" />
    <rect id="mn-96" x="-10.283" y="-0.818" width="0.05" height="0.05" transform="rotate(90,-10.258,-0.793)" />
    <rect id="mn-97" x="-10.902" y="-0.818" width="0.05" height="0.05" transform="rotate(180,-10.877,-0.793)" />
    <rect id="mn-98" x="-10.753" y="-8.213" width="0.05" height="0.05" transform="rotate(120,-10.728,-8.188)" />
    <rect id="mn-99" x="-10.902" y="-1.011" width="0.05" height="0.05" transform="rotate(120,-10.877,-0.986)" />
    <rect id="mn-100" x="-12.735" y="-8.213" width="0.05" height="0.05" transform="rotate(120,-12.71,-8.188)" />
    <rect id="mn-101" x="-12.735" y="-8.022" width="0.05" height="0.05" transform="rotate(93.841,-12.71,-7.997)" />
    <rect id="mn-102" x="-12.735" y="-7.804" width="0.05" height="0.05" transform="rotate(225,-12.71,-7.779)" />
    <rect id="mn-103" x="-12.023" y="-7.093" width="0.05" height="0.05" transform="rotate(45,-11.998,-7.068)" />
    <rect id="mn-104" x="-12.023" y="-4.304" width="0.05" height="0.05" transform="rotate(120,-11.998,-4.279)" />
    <rect id="mn-105" x="-12.023" y="-4.114" width="0.05" height="0.05" transform="rotate(93.841,-11.998,-4.089)" />
    <rect id="mn-106" x="-12.023" y="-3.644" width="0.05" height="0.05" transform="rotate(120,-11.998,-3.619)" />
    <rect id="mn-107" x="-12.023" y="-3.483" width="0.05" height="0.05" transform="rotate(93.841,-11.998,-3.458)" />
    <rect id="mn-108" x="-12.023" y="-1.235" width="0.05" height="0.05" transform="rotate(120,-11.998,-1.21)" />
    <rect id="mn-109" x="-12.023" y="-1.083" width="0.05" height="0.05" transform="rotate(98.421,-11.998,-1.058)" />
    <rect id="mn-110" x="-12.023" y="-0.818" width="0.05" height="0.05" transform="rotate(180,-11.998,-0.793)" />
    <rect id="mn-111" x="-10.268" y="4.255" width="0.05" height="0.05" transform="rotate(120,-10.243,4.28)" />
    <rect id="mn-112" x="-9.76" y="5.203" width="0.05" height="0.05" transform="rotate(270,-9.735,5.228)" />
    <rect id="mn-113" x="-8.654" y="5.607" width="0.05" height="0.05" transform="rotate(120,-8.629,5.632)" />
    <rect id="mn-114" x="-8.654" y="5.607" width="0.05" height="0.05" transform="rotate(240,-8.629,5.632)" />
    <rect id="mn-115" x="-10.268" y="5.622" width="0.05" height="0.05" transform="rotate(240,-10.243,5.647)" />
    <rect id="mn-116" x="-10.268" y="5.622" width="0.05" height="0.05" transform="rotate(240,-10.243,5.647)" />
    <rect id="mn-117" x="-10.268" y="6.142" width="0.05" height="0.05" transform="rotate(120,-10.243,6.167)" />
    <rect id="mn-118" x="-10.268" y="6.142" width="0.05" height="0.05" transform="rotate(240,-10.243,6.167)" />
    <rect id="mn-119" x="-10.268" y="6.142" width="0.05" height="0.05" transform="rotate(180,-10.243,6.167)" />
    <rect id="mn-120" x="-10.268" y="6.219" width="0.05" height="0.05" transform="rotate(90,-10.243,6.244)" />
    <rect id="mn-121" x="-10.268" y="5.622" width="0.05" height="0.05" transform="rotate(270,-10.243,5.647)" />
    <rect id="mn-122" x="-10.268" y="5.546" width="0.05" height="0.05" transform="rotate(270,-10.243,5.571)" />
    <rect id="mn-123" x="-10.268" y="4.993" width="0.05" height="0.05" transform="rotate(90,-10.243,5.018)" />
    <rect id="mn-124" x="-5.548" y="6.919" width="0.05" height="0.05" transform="rotate(180,-5.523,6.944)" />
    <rect id="mn-125" x="-2.911" y="6.919" width="0.05" height="0.05" transform="rotate(90,-2.886,6.944)" />
    <rect id="mn-126" x="-2.911" y="6.322" width="0.05" height="0.05" transform="rotate(240,-2.886,6.347)" />
    <rect id="mn-127" x="-2.911" y="6.107" width="0.05" height="0.05" transform="rotate(211.4,-2.886,6.132)" />
    <rect id="mn-128" x="-2.911" y="6.716" width="0.05" height="0.05" transform="rotate(270,-2.886,6.741)" />
    <rect id="mn-129" x="-2.911" y="5.624" width="0.05" height="0.05" transform="rotate(240,-2.886,5.649)" />
    <rect id="mn-130" x="-2.911" y="5.426" width="0.05" height="0.05" transform="rotate(221.41,-2.886,5.451)" />
    <rect id="mn-131" x="-3.454" y="4.522" width="0.05" height="0.05" transform="rotate(120,-3.429,4.547)" />
    <rect id="mn-132" x="-5.929" y="6.258" width="0.05" height="0.05" transform="rotate(266.159,-5.904,6.283)" />
    <rect id="mn-133" x="2.596" y="7.374" width="0.05" height="0.05" transform="rotate(270,2.621,7.399)" />
    <rect id="mn-134" x="3.104" y="11.852" width="0.05" height="0.05" transform="rotate(180,3.129,11.877)" />
    <rect id="mn-135" x="9.135" y="6.23" width="0.05" height="0.05" transform="rotate(211.4,9.16,6.255)" />
    <rect id="mn-136" x="8.484" y="5.525" width="0.05" height="0.05" transform="rotate(120,8.509,5.55)" />
    <rect id="mn-137" x="2.596" y="11.855" width="0.05" height="0.05" transform="rotate(90,2.621,11.88)" />
    <rect id="mn-138" x="2.08" y="12.153" width="0.05" height="0.05" transform="rotate(158.909,2.105,12.178)" />
    <rect id="mn-139" x="4.358" y="11.852" width="0.05" height="0.05" transform="rotate(206.869,4.383,11.877)" />
    <rect id="mn-140" x="4.62" y="12.306" width="0.05" height="0.05" transform="rotate(72.584,4.645,12.331)" />
    <rect id="mn-141" x="14.793" y="4.829" width="0.05" height="0.05" transform="rotate(270,14.818,4.854)" />
    <rect id="mn-142" x="15.301" y="9.634" width="0.05" height="0.05" transform="rotate(98.421,15.326,9.659)" />
    <rect id="mn-143" x="15.301" y="10.319" width="0.05" height="0.05" transform="rotate(90,15.326,10.344)" />
    <rect id="mn-144" x="13.396" y="10.319" width="0.05" height="0.05" transform="rotate(180,13.421,10.344)" />
    <rect id="mn-145" x="13.767" y="10.319" width="0.05" height="0.05" transform="rotate(180,13.792,10.344)" />
    <rect id="mn-146" x="13.767" y="11.537" width="0.05" height="0.05" transform="rotate(120,13.792,11.562)" />
    <rect id="mn-147" x="14.212" y="10.319" width="0.05" height="0.05" transform="rotate(180,14.237,10.344)" />
    <rect id="mn-148" x="13.767" y="9.15" width="0.05" height="0.05" transform="rotate(120,13.792,9.175)" />
    <rect id="mn-149" x="17.32" y="12.381" width="0.05" height="0.05" />
    <rect id="mn-150" x="15.301" y="12.381" width="0.05" height="0.05" transform="rotate(180,15.326,12.406)" />
    <rect id="mn-151" x="14.793" y="12.381" width="0.05" height="0.05" transform="rotate(90,14.818,12.406)" />
    <rect id="mn-152" x="16.665" y="-8.519" width="0.05" height="0.05" transform="rotate(244.231,16.69,-8.494)" />
    <rect id="mn-153" x="20.558" y="-8.026" width="0.05" height="0.05" transform="rotate(244.231,20.583,-8.001)" />
    <rect id="mn-154" x="16.665" y="-8.519" width="0.05" height="0.05" transform="rotate(185.301,16.69,-8.494)" />
    <rect id="mn-155" x="18.819" y="-7.907" width="0.05" height="0.05" transform="rotate(315,18.844,-7.882)" />
    <rect id="mn-156" x="20.513" y="-7.684" width="0.05" height="0.05" transform="rotate(97.5,20.538,-7.659)" />
    <rect id="mn-157" x="16.623" y="-8.196" width="0.05" height="0.05" transform="rotate(187.5,16.648,-8.171)" />
    <rect id="mn-158" x="18.205" y="-4.107" width="0.05" height="0.05" transform="rotate(180,18.23,-4.082)" />
    <rect id="mn-159" x="20.491" y="-4.107" width="0.05" height="0.05" />
    <rect id="mn-160" x="17.697" y="-4.081" width="0.05" height="0.05" transform="rotate(90,17.722,-4.056)" />
    <rect id="mn-161" x="17.014" y="-3.399" width="0.05" height="0.05" transform="rotate(270,17.039,-3.374)" />
    <rect id="mn-162" x="17.014" y="0.583" width="0.05" height="0.05" transform="rotate(120,17.039,0.608)" />
    <rect id="mn-163" x="4.855" y="-0.293" width="0.05" height="0.05" transform="rotate(120,4.88,-0.268)" />
    <rect id="mn-164" x="4.855" y="0.291" width="0.05" height="0.05" transform="rotate(148.6,4.88,0.316)" />
    <rect id="mn-165" x="4.855" y="0.291" width="0.05" height="0.05" transform="rotate(270,4.88,0.316)" />
    <rect id="mn-166" x="4.855" y="11.51" width="0.05" height="0.05" transform="rotate(90,4.88,11.535)" />
    <rect id="mn-167" x="9.395" y="0.291" width="0.05" height="0.05" transform="rotate(270,9.42,0.316)" />
    <rect id="mn-168" x="9.395" y="0.291" width="0.05" height="0.05" transform="rotate(180,9.42,0.316)" />
    <rect id="mn-169" x="9.395" y="-0.293" width="0.05" height="0.05" transform="rotate(120,9.42,-0.268)" />
    <rect id="mn-170" x="9.903" y="-4.561" width="0.05" height="0.05" transform="rotate(180,9.928,-4.536)" />
    <rect id="mn-171" x="11.579" y="-4.561" width="0.05" height="0.05" />
    <rect id="mn-172" x="12.029" y="-4.111" width="0.05" height="0.05" transform="rotate(45,12.054,-4.086)" />
    <rect id="mn-173" x="12.029" y="0.309" width="0.05" height="0.05" transform="rotate(90,12.054,0.334)" />
    <rect id="mn-174" x="5.363" y="-4.561" width="0.05" height="0.05" transform="rotate(98.421,5.388,-4.536)" />
    <rect id="mn-175" x="1.497" y="-3.591" width="0.05" height="0.05" transform="rotate(270,1.522,-3.566)" />
    <rect id="mn-176" x="2.467" y="-4.561" width="0.05" height="0.05" transform="rotate(315,2.492,-4.536)" />
    <rect id="mn-177" x="4.953" y="-4.561" width="0.05" height="0.05" transform="rotate(148.6,4.978,-4.536)" />
    <rect id="mn-178" x="1.497" y="0.295" width="0.05" height="0.05" transform="rotate(90,1.522,0.32)" />
    <rect id="mn-179" x="4.855" y="-8.708" width="0.05" height="0.05" transform="rotate(240,4.88,-8.683)" />
    <rect id="mn-180" x="4.855" y="-8.861" width="0.05" height="0.05" transform="rotate(270,4.88,-8.836)" />
    <rect id="mn-181" x="5.363" y="-8.861" width="0.05" height="0.05" transform="rotate(240,5.388,-8.836)" />
    <rect id="mn-182" x="5.491" y="-8.861" width="0.05" height="0.05" transform="rotate(180,5.516,-8.836)" />
    <rect id="mn-183" x="5.363" y="-8.861" width="0.05" height="0.05" transform="rotate(270,5.388,-8.836)" />
    <rect id="mn-184" x="5.363" y="-8.658" width="0.05" height="0.05" transform="rotate(240,5.388,-8.633)" />
    <rect id="mn-185" x="6.025" y="-8.861" width="0.05" height="0.05" transform="rotate(135,6.05,-8.836)" />
    <rect id="mn-186" x="2.546" y="-9.115" width="0.05" height="0.05" transform="rotate(213.912,2.571,-9.09)" />
    <rect id="mn-187" x="2.924" y="-8.861" width="0.05" height="0.05" transform="rotate(180,2.949,-8.836)" />
    <rect id="mn-188" x="4.702" y="-8.861" width="0.05" height="0.05" transform="rotate(90,4.727,-8.836)" />
    <rect id="mn-189" x="4.855" y="-8.861" width="0.05" height="0.05" transform="rotate(120,4.88,-8.836)" />
    <rect id="mn-190" x="9.395" y="-8.708" width="0.05" height="0.05" transform="rotate(240,9.42,-8.683)" />
    <rect id="mn-191" x="9.395" y="-8.861" width="0.05" height="0.05" transform="rotate(261.579,9.42,-8.836)" />
    <rect id="mn-192" x="9.246" y="-8.861" width="0.05" height="0.05" transform="rotate(90,9.271,-8.836)" />
    <rect id="mn-193" x="9.395" y="-8.861" width="0.05" height="0.05" transform="rotate(120,9.42,-8.836)" />
    <rect id="mn-194" x="8.433" y="-8.861" width="0.05" height="0.05" transform="rotate(180,8.458,-8.836)" />
    <rect id="mn-195" x="8.389" y="-8.905" width="0.05" height="0.05" transform="rotate(225,8.414,-8.88)" />
    <rect id="mn-196" x="9.903" y="-8.861" width="0.05" height="0.05" transform="rotate(240,9.928,-8.836)" />
    <rect id="mn-197" x="10.052" y="-8.861" width="0.05" height="0.05" transform="rotate(261.579,10.077,-8.836)" />
    <rect id="mn-198" x="9.903" y="-8.861" width="0.05" height="0.05" transform="rotate(261.579,9.928,-8.836)" />
    <rect id="mn-199" x="9.903" y="-8.708" width="0.05" height="0.05" transform="rotate(98.421,9.928,-8.683)" />
    <rect id="mn-200" x="11.664" y="-8.861" width="0.05" height="0.05" transform="rotate(135,11.689,-8.836)" />
    <rect id="mn-201" x="8.134" y="-9.159" width="0.05" height="0.05" transform="rotate(225,8.159,-9.134)" />
    <rect id="mn-202" x="8.134" y="-9.223" width="0.05" height="0.05" transform="rotate(270,8.159,-9.198)" />
    <rect id="mn-203" x="-26.248" y="10.976" width="0.05" height="0.05" transform="rotate(90,-26.223,11.001)" />
    <rect id="mn-204" x="-18.171" y="11.484" width="0.05" height="0.05" />
    <rect id="mn-205" x="-26.248" y="7.623" width="0.05" height="0.05" transform="rotate(270,-26.223,7.648)" />
    <rect id="mn-206" x="-28.745" y="11.484" width="0.05" height="0.05" transform="rotate(270,-28.72,11.509)" />
    <rect id="mn-207" x="-28.745" y="11.941" width="0.05" height="0.05" transform="rotate(180,-28.72,11.966)" />
    <rect id="mn-208" x="-24.13" y="11.941" width="0.05" height="0.05" />
    <rect id="mn-209" x="-15.615" y="4.204" width="0.05" height="0.05" />
    <rect id="mn-210" x="-15.612" y="3.696" width="0.05" height="0.05" transform="rotate(90,-15.587,3.721)" />
    <rect id="mn-211" x="-15.615" y="5.359" width="0.05" height="0.05" transform="rotate(120,-15.59,5.384)" />
    <rect id="mn-212" x="-18.962" y="4.204" width="0.05" height="0.05" transform="rotate(180,-18.937,4.229)" />
    <rect id="mn-213" x="-19.452" y="3.152" width="0.05" height="0.05" />
    <rect id="mn-214" x="-25.828" y="3.152" width="0.05" height="0.05" transform="rotate(180,-25.803,3.177)" />
    <rect id="mn-215" x="-17.901" y="3.696" width="0.05" height="0.05" transform="rotate(180,-17.876,3.721)" />
    <rect id="mn-216" x="-15.612" y="3.036" width="0.05" height="0.05" transform="rotate(240,-15.587,3.061)" />
    <rect id="mn-217" x="0.807" y="-4.332" width="0.05" height="0.05" transform="rotate(120,0.832,-4.307)" />
    <rect id="mn-218" x="-10.268" y="11.59" width="0.05" height="0.05" transform="rotate(90,-10.243,11.615)" />
    <rect id="mn-219" x="-5.916" y="-4.332" width="0.05" height="0.05" transform="rotate(180,-5.891,-4.307)" />
    <rect id="mn-220" x="17.697" y="-8.054" width="0.05" height="0.05" transform="rotate(7.5,17.722,-8.029)" />
    <rect id="mn-221" x="18.205" y="-7.293" width="0.05" height="0.05" transform="rotate(270,18.23,-7.268)" />
    <rect id="mn-222" x="6.414" y="-9.25" width="0.05" height="0.05" transform="rotate(90,6.439,-9.225)" />
    <rect id="mn-223" x="12.047" y="-9.243" width="0.05" height="0.05" transform="rotate(90,12.072,-9.218)" />
    <rect id="mn-224" x="20.558" y="-8.026" width="0.05" height="0.05" transform="rotate(185.301,20.583,-8.001)" />
    <rect id="mn-225" x="13.51" y="12.381" width="0.05" height="0.05" transform="rotate(270,13.535,12.406)" />
    <rect id="mn-226" x="2.08" y="12.153" width="0.05" height="0.05" transform="rotate(270,2.105,12.178)" />
    <rect id="mn-227" x="-11.585" y="11.905" width="0.05" height="0.05" transform="rotate(74.799,-11.56,11.93)" />
    <rect id="mn-228" x="-29.21" y="10.976" width="0.05" height="0.05" transform="rotate(270,-29.185,11.001)" />
    <rect id="mn-229" x="-11.64" y="-0.818" width="0.05" height="0.05" transform="rotate(90,-11.615,-0.793)" />
    <rect id="mn-230" x="-11.41" y="-0.818" width="0.05" height="0.05" transform="rotate(93.638,-11.385,-0.793)" />
    <rect id="mn-231" x="-18.208" y="3.021" width="0.05" height="0.05" transform="rotate(245.5,-18.183,3.046)" />
    <rect id="mn-232" x="9.135" y="8.053" width="0.05" height="0.05" />
    <rect id="mn-233" x="9.135" y="6.656" width="0.05" height="0.05" transform="rotate(98.421,9.16,6.681)" />
    <rect id="mn-234" x="9.135" y="6.751" width="0.05" height="0.05" transform="rotate(90,9.16,6.776)" />
    <rect id="mn-235" x="3.104" y="8.053" width="0.05" height="0.05" transform="rotate(270,3.129,8.078)" />
    <rect id="mn-236" x="11.181" y="8.053" width="0.05" height="0.05" />
    <rect id="mn-237" x="15.301" y="4.188" width="0.05" height="0.05" transform="rotate(270,15.326,4.213)" />
    <rect id="mn-238" x="15.301" y="9.116" width="0.05" height="0.05" transform="rotate(240,15.326,9.141)" />
    <rect id="mn-239" x="15.301" y="9.116" width="0.05" height="0.05" transform="rotate(261.579,15.326,9.141)" />
    <rect id="mn-1107" x="6.444" y="4.425" width="0.05" height="0.05" transform="rotate(120,6.469,4.45)" />
    <rect id="mn-1108" x="5.687" y="11.975" width="0.05" height="0.05" transform="rotate(240,5.712,12)" />
    <rect id="mn-1109" x="5.687" y="11.67" width="0.05" height="0.05" transform="rotate(120,5.712,11.695)" />
    <rect id="mn-1110" x="5.687" y="4.425" width="0.05" height="0.05" transform="rotate(270,5.712,4.45)" />
    <rect id="mn-1111" x="5.687" y="5.395" width="0.05" height="0.05" transform="rotate(120,5.712,5.42)" />
    <rect id="mn-1112" x="5.687" y="5.593" width="0.05" height="0.05" transform="rotate(240,5.712,5.618)" />
    <rect id="mn-1113" x="5.687" y="6.476" width="0.05" height="0.05" transform="rotate(240,5.712,6.501)" />
    <rect id="mn-1114" x="5.687" y="6.177" width="0.05" height="0.05" transform="rotate(120,5.712,6.202)" />
    <rect id="mn-1115" x="5.89" y="12.434" width="0.05" height="0.05" transform="rotate(45,5.915,12.459)" />
    <rect id="mn-1116" x="5.687" y="12.23" width="0.05" height="0.05" transform="rotate(225,5.712,12.255)" />
    <rect id="mn-1117" x="-8.904" y="3.364" width="0.05" height="0.05" transform="rotate(90,-8.879,3.389)" />
    <rect id="mn-1118" x="-4.433" y="3.612" width="0.05" height="0.05" transform="rotate(90,-4.408,3.637)" />
    <rect id="mn-1119" x="-4.433" y="6.05" width="0.05" height="0.05" transform="rotate(180,-4.408,6.075)" />
    <rect id="mn-1120" x="-2.057" y="6.05" width="0.05" height="0.05" />
    <rect id="mn-1121" x="-2.057" y="8.666" width="0.05" height="0.05" transform="rotate(180,-2.032,8.691)" />
    <rect id="mn-1122" x="-0.536" y="12.453" width="0.05" height="0.05" transform="rotate(270,-0.511,12.478)" />
    <rect id="mn-1123" x="0.826" y="8.666" width="0.05" height="0.05" transform="rotate(90,0.851,8.691)" />
    <rect id="mn-1124" x="0.826" y="8.666" width="0.05" height="0.05" transform="rotate(90,0.851,8.691)" />
    <rect id="mn-1125" x="0.826" y="12.24" width="0.05" height="0.05" transform="rotate(90,0.851,12.265)" />
    <rect id="mn-1126" x="0.61" y="12.453" width="0.05" height="0.05" transform="rotate(90,0.635,12.478)" />
    <rect id="mn-1127" x="0.61" y="12.24" width="0.05" height="0.05" transform="rotate(270,0.635,12.265)" />
    <rect id="mn-1128" x="-9.375" y="6.662" width="0.05" height="0.05" transform="rotate(270,-9.35,6.687)" />
    <rect id="mn-1129" x="-8.904" y="5.295" width="0.05" height="0.05" transform="rotate(120,-8.879,5.32)" />
    <rect id="mn-1130" x="-8.904" y="5.49" width="0.05" height="0.05" transform="rotate(98.421,-8.879,5.515)" />
    <rect id="mn-1131" x="-8.904" y="6.151" width="0.05" height="0.05" transform="rotate(120,-8.879,6.176)" />
    <rect id="mn-1132" x="-8.904" y="6.346" width="0.05" height="0.05" transform="rotate(98.421,-8.879,6.371)" />
    <rect id="mn-1133" x="-8.904" y="6.662" width="0.05" height="0.05" transform="rotate(90,-8.879,6.687)" />
    <rect id="mn-1134" x="-9.375" y="11.894" width="0.05" height="0.05" transform="rotate(120,-9.35,11.919)" />
    <rect id="mn-1135" x="-9.375" y="12.199" width="0.05" height="0.05" transform="rotate(98.421,-9.35,12.224)" />
    <rect id="mn-1136" x="-9.325" y="-1.197" width="0.05" height="0.05" transform="rotate(240,-9.3,-1.172)" />
    <rect id="mn-1137" x="-6.869" y="-1.197" width="0.05" height="0.05" transform="rotate(90,-6.844,-1.172)" />
    <rect id="mn-1138" x="-6.869" y="-3.356" width="0.05" height="0.05" transform="rotate(240,-6.844,-3.331)" />
    <rect id="mn-1139" x="-6.869" y="-4.124" width="0.05" height="0.05" transform="rotate(93.841,-6.844,-4.099)" />
    <rect id="mn-1140" x="-6.869" y="-3.673" width="0.05" height="0.05" transform="rotate(201.091,-6.844,-3.648)" />
    <rect id="mn-1141" x="-6.869" y="-4.441" width="0.05" height="0.05" transform="rotate(201.091,-6.844,-4.416)" />
    <rect id="mn-1142" x="-6.869" y="-7.909" width="0.05" height="0.05" transform="rotate(93.841,-6.844,-7.884)" />
    <rect id="mn-1143" x="-6.869" y="-8.194" width="0.05" height="0.05" transform="rotate(201.091,-6.844,-8.169)" />
    <rect id="mn-1144" x="-16.51" y="12.377" width="0.05" height="0.05" />
    <rect id="mn-1145" x="-17.17" y="12.377" width="0.05" height="0.05" transform="rotate(180,-17.145,12.402)" />
    <rect id="mn-1146" x="10.021" y="5.265" width="0.05" height="0.05" transform="rotate(240,10.046,5.29)" />
    <rect id="mn-1147" x="9.437" y="5.265" width="0.05" height="0.05" transform="rotate(180,9.462,5.29)" />
    <rect id="mn-1148" x="6.673" y="5.299" width="0.05" height="0.05" transform="rotate(239.565,6.698,5.324)" />
    <rect id="mn-1149" x="10.021" y="6.144" width="0.05" height="0.05" transform="rotate(240,10.046,6.169)" />
    <rect id="mn-1150" x="10.021" y="5.999" width="0.05" height="0.05" transform="rotate(211.4,10.046,6.024)" />
    <rect id="mn-1151" x="10.021" y="5.265" width="0.05" height="0.05" transform="rotate(180,10.046,5.29)" />
    <rect id="mn-1152" x="10.021" y="5.406" width="0.05" height="0.05" transform="rotate(98.421,10.046,5.431)" />
    <rect id="mn-1153" x="10.021" y="5.593" width="0.05" height="0.05" transform="rotate(240,10.046,5.618)" />
    <rect id="mn-1154" x="7.946" y="6.69" width="0.05" height="0.05" transform="rotate(90,7.971,6.715)" />
    <rect id="mn-1155" x="8.784" y="6.69" width="0.05" height="0.05" transform="rotate(90,8.809,6.715)" />
    <rect id="mn-1156" x="10.306" y="6.69" width="0.05" height="0.05" transform="rotate(90,10.331,6.715)" />
    <rect id="mn-1157" x="10.021" y="5.265" width="0.05" height="0.05" transform="rotate(90,10.046,5.29)" />
    <rect id="mn-1158" x="10.021" y="5.122" width="0.05" height="0.05" transform="rotate(270,10.046,5.147)" />
    <rect id="mn-1159" x="8.784" y="6.69" width="0.05" height="0.05" transform="rotate(180.298,8.809,6.715)" />
    <rect id="mn-1160" x="7.946" y="6.69" width="0.05" height="0.05" transform="rotate(180,7.971,6.715)" />
    <rect id="mn-1161" x="-4.219" y="3.407" width="0.05" height="0.05" transform="rotate(240,-4.194,3.432)" />
    <rect id="mn-1162" x="-2.146" y="3.179" width="0.05" height="0.05" transform="rotate(269.996,-2.121,3.204)" />
    <rect id="mn-1163" x="-3.571" y="3.407" width="0.05" height="0.05" />
    <rect id="mn-1164" x="-2.975" y="5.738" width="0.05" height="0.05" transform="rotate(240,-2.95,5.763)" />
    <rect id="mn-1165" x="-1.546" y="4.699" width="0.05" height="0.05" transform="rotate(120,-1.521,4.724)" />
    <rect id="mn-1166" x="-1.546" y="4.699" width="0.05" height="0.05" transform="rotate(138.59,-1.521,4.724)" />
    <rect id="mn-1167" x="-11.541" y="5.614" width="0.05" height="0.05" transform="rotate(90.639,-11.516,5.639)" />
    <rect id="mn-1168" x="-11.541" y="5.614" width="0.05" height="0.05" transform="rotate(90.639,-11.516,5.639)" />
    <rect id="mn-1169" x="-11.541" y="5.614" width="0.05" height="0.05" transform="rotate(90.639,-11.516,5.639)" />
    <rect id="mn-1170" x="-11.439" y="5.141" width="0.05" height="0.05" transform="rotate(269.962,-11.414,5.166)" />
    <rect id="mn-1171" x="-11.541" y="5.614" width="0.05" height="0.05" transform="rotate(90.639,-11.516,5.639)" />
    <rect id="mn-1172" x="-12.026" y="2.72" width="0.05" height="0.05" transform="rotate(240,-12.001,2.745)" />
    <rect id="mn-1173" x="-9.136" y="3.706" width="0.05" height="0.05" transform="rotate(240,-9.111,3.731)" />
    <rect id="mn-1174" x="-9.136" y="2.72" width="0.05" height="0.05" />
    <rect id="mn-1175" x="-9.136" y="5.612" width="0.05" height="0.05" transform="rotate(90,-9.111,5.637)" />
    <rect id="mn-1176" x="-9.467" y="5.612" width="0.05" height="0.05" transform="rotate(90,-9.442,5.637)" />
    <rect id="mn-1177" x="-11.541" y="5.614" width="0.05" height="0.05" transform="rotate(120,-11.516,5.639)" />
    <rect id="mn-1178" x="-11.398" y="5.614" width="0.05" height="0.05" />
    <rect id="mn-1179" x="20.591" y="-2.689" width="0.05" height="0.05" transform="rotate(264.069,20.616,-2.664)" />
    <rect id="mn-1180" x="20.548" y="-2.362" width="0.05" height="0.05" transform="rotate(153.725,20.573,-2.337)" />
    <rect id="mn-1181" x="19.077" y="-0.628" width="0.05" height="0.05" transform="rotate(270,19.102,-0.603)" />
    <rect id="mn-1182" x="19.077" y="7.882" width="0.05" height="0.05" transform="rotate(90,19.102,7.907)" />
    <rect id="mn-1183" x="18.62" y="11.349" width="0.05" height="0.05" transform="rotate(124.421,18.645,11.374)" />
    <rect id="mn-1184" x="-9.417" y="-2.057" width="0.05" height="0.05" transform="rotate(119.356,-9.392,-2.032)" />
    <rect id="mn-1185" x="-12.179" y="-2.003" width="0.05" height="0.05" transform="rotate(119.356,-12.154,-1.978)" />
    <rect id="mn-1186" x="-10.383" y="-3.365" width="0.05" height="0.05" transform="rotate(90,-10.358,-3.34)" />
    <rect id="mn-1187" x="-11.222" y="-3.365" width="0.05" height="0.05" transform="rotate(90,-11.197,-3.34)" />
    <rect id="mn-1188" x="-12.611" y="-2.002" width="0.05" height="0.05" transform="rotate(183.291,-12.586,-1.977)" />
    <rect id="mn-1189" x="-12.179" y="-2.003" width="0.05" height="0.05" transform="rotate(119.873,-12.154,-1.978)" />
    <rect id="mn-1190" x="-12.734" y="-1.565" width="0.05" height="0.05" transform="rotate(240,-12.709,-1.54)" />
    <rect id="mn-1191" x="-12.734" y="-1.565" width="0.05" height="0.05" transform="rotate(240,-12.709,-1.54)" />
    <rect id="mn-1192" x="-12.432" y="-1.565" width="0.05" height="0.05" transform="rotate(120.012,-12.407,-1.54)" />
    <rect id="mn-1193" x="-12.179" y="-2.003" width="0.05" height="0.05" transform="rotate(201.091,-12.154,-1.978)" />
    <rect id="mn-1194" x="-12.25" y="-1.879" width="0.05" height="0.05" transform="rotate(120.004,-12.225,-1.854)" />
    <rect id="mn-1195" x="-8.918" y="-2.571" width="0.05" height="0.05" transform="rotate(180,-8.893,-2.546)" />
    <rect id="mn-1196" x="-8.918" y="-2.571" width="0.05" height="0.05" transform="rotate(180,-8.893,-2.546)" />
    <rect id="mn-1197" x="-8.918" y="-3.365" width="0.05" height="0.05" transform="rotate(1.688,-8.893,-3.34)" />
    <rect id="mn-1198" x="18.62" y="11.349" width="0.05" height="0.05" transform="rotate(269.42,18.645,11.374)" />
    <rect id="mn-1199" x="18.588" y="11.591" width="0.05" height="0.05" transform="rotate(97.5,18.613,11.616)" />
    <rect id="mn-1200" x="17.401" y="12.25" width="0.05" height="0.05" transform="rotate(179.156,17.426,12.275)" />
    <rect id="mn-1201" x="17.401" y="12.25" width="0.05" height="0.05" transform="rotate(171.843,17.426,12.275)" />
    <rect id="mn-1202" x="17.401" y="12.25" width="0.05" height="0.05" transform="rotate(90,17.426,12.275)" />
    <rect id="mn-1203" x="-9.136" y="3.706" width="0.05" height="0.05" transform="rotate(120,-9.111,3.731)" />
    <rect id="mn-1204" x="-9.467" y="5.612" width="0.05" height="0.05" transform="rotate(90,-9.442,5.637)" />
    <rect id="mn-1205" x="-11.439" y="5.141" width="0.05" height="0.05" transform="rotate(246.733,-11.414,5.166)" />
    <rect id="mn-1206" x="-11.439" y="5.141" width="0.05" height="0.05" transform="rotate(246.733,-11.414,5.166)" />
    <rect id="mn-1207" x="-11.439" y="5.141" width="0.05" height="0.05" transform="rotate(246.733,-11.414,5.166)" />
    <rect id="mn-1208" x="-11.439" y="5.141" width="0.05" height="0.05" transform="rotate(246.733,-11.414,5.166)" />
    <rect id="mn-1209" x="20.548" y="-2.362" width="0.05" height="0.05" transform="rotate(185.301,20.573,-2.337)" />
    <rect id="mn-1210" x="20.591" y="-2.689" width="0.05" height="0.05" transform="rotate(90.245,20.616,-2.664)" />
    <rect id="mn-1211" x="20.533" y="-2.364" width="0.05" height="0.05" transform="rotate(100.289,20.558,-2.339)" />
    <rect id="mn-1212" x="-9.366" y="-2.775" width="0.05" height="0.05" transform="rotate(240,-9.341,-2.75)" />
    <rect id="mn-1213" x="-9.85" y="-2.775" width="0.05" height="0.05" transform="rotate(180,-9.825,-2.75)" />
    <rect id="mn-1214" x="-9.85" y="-3.365" width="0.05" height="0.05" />
    <rect id="mn-1215" x="-10.281" y="-3.365" width="0.05" height="0.05" transform="rotate(180,-10.256,-3.34)" />
    <rect id="mn-1216" x="-10.281" y="-3.365" width="0.05" height="0.05" transform="rotate(240,-10.256,-3.34)" />
    <rect id="mn-1217" x="-9.366" y="-2.775" width="0.05" height="0.05" transform="rotate(90,-9.341,-2.75)" />
    <rect id="mn-1218" x="-8.739" y="-2.775" width="0.05" height="0.05" />
    <rect id="mn-1219" x="-8.739" y="-1.385" width="0.05" height="0.05" transform="rotate(90,-8.714,-1.36)" />
    <rect id="mn-1220" x="-8.739" y="-2.673" width="0.05" height="0.05" transform="rotate(240,-8.714,-2.648)" />
    <rect id="mn-1221" x="-8.739" y="-2.673" width="0.05" height="0.05" transform="rotate(240,-8.714,-2.648)" />
    <rect id="mn-1222" x="-9.173" y="-1.385" width="0.05" height="0.05" transform="rotate(270,-9.148,-1.36)" />
    <rect id="mn-1223" x="-9.468" y="-2.724" width="0.05" height="0.05" transform="rotate(240,-9.443,-2.699)" />
    <rect id="mn-1224" x="-10.485" y="-3.397" width="0.05" height="0.05" transform="rotate(180,-10.46,-3.372)" />
    <rect id="mn-1225" x="-9.468" y="-2.724" width="0.05" height="0.05" transform="rotate(90,-9.443,-2.699)" />
    <rect id="mn-1226" x="-8.825" y="-2.47" width="0.05" height="0.05" transform="rotate(90,-8.8,-2.445)" />
    <rect id="mn-1227" x="-4.2" y="2.575" width="0.05" height="0.05" transform="rotate(270,-4.175,2.6)" />
    <rect id="mn-1228" x="10.021" y="2.575" width="0.05" height="0.05" />
    <rect id="mn-1229" x="3.437" y="-2.633" width="0.05" height="0.05" transform="rotate(270,3.462,-2.608)" />
    <rect id="mn-1230" x="3.437" y="-1.688" width="0.05" height="0.05" transform="rotate(180,3.462,-1.663)" />
    <rect id="mn-1231" x="3.437" y="-2.633" width="0.05" height="0.05" transform="rotate(270,3.462,-2.608)" />
    <rect id="mn-1232" x="3.437" y="-1.625" width="0.05" height="0.05" transform="rotate(180,3.462,-1.6)" />
    <rect id="mn-1233" x="3.437" y="-1.625" width="0.05" height="0.05" transform="rotate(261.579,3.462,-1.6)" />
    <rect id="mn-1234" x="3.437" y="-1.688" width="0.05" height="0.05" transform="rotate(261.579,3.462,-1.663)" />
    <rect id="mn-1235" x="-12.723" y="-2.768" width="0.05" height="0.05" transform="rotate(148.6,-12.698,-2.743)" />
    <rect id="mn-1236" x="-12.723" y="-2.768" width="0.05" height="0.05" transform="rotate(90,-12.698,-2.743)" />
    <rect id="mn-1237" x="-12.723" y="-2.618" width="0.05" height="0.05" transform="rotate(90,-12.698,-2.593)" />
    <rect id="mn-1238" x="-12.36" y="-3.132" width="0.05" height="0.05" transform="rotate(90,-12.335,-3.107)" />
    <rect id="mn-1239" x="-12.807" y="-2.534" width="0.05" height="0.05" transform="rotate(270,-12.782,-2.509)" />
    <rect id="mn-1240" x="-12.36" y="-3.411" width="0.05" height="0.05" transform="rotate(240,-12.335,-3.386)" />
    <rect id="mn-1241" x="-12.807" y="-1.154" width="0.05" height="0.05" transform="rotate(180,-12.782,-1.129)" />
    <rect id="mn-1242" x="-12.807" y="-1.154" width="0.05" height="0.05" transform="rotate(120,-12.782,-1.129)" />
    <rect id="mn-1243" x="-8.955" y="3.364" width="0.05" height="0.05" transform="rotate(120,-8.93,3.389)" />
    <rect id="mn-1244" x="-8.955" y="3.364" width="0.05" height="0.05" transform="rotate(180,-8.93,3.389)" />
    <rect id="mn-1245" x="-9.18" y="3.364" width="0.05" height="0.05" transform="rotate(180,-9.155,3.389)" />
    <rect id="mn-1246" x="-8.994" y="3.642" width="0.05" height="0.05" transform="rotate(120,-8.969,3.667)" />
    <rect id="mn-1247" x="-9.19" y="3.642" width="0.05" height="0.05" transform="rotate(240,-9.165,3.667)" />
    <rect id="mn-1248" x="-8.994" y="3.642" width="0.05" height="0.05" transform="rotate(120,-8.969,3.667)" />
    <rect id="mn-1249" x="-9.18" y="3.642" width="0.05" height="0.05" transform="rotate(180,-9.155,3.667)" />
    <rect id="mn-1250" x="-9.18" y="3.364" width="0.05" height="0.05" transform="rotate(270,-9.155,3.389)" />
    <rect id="mn-1251" x="-9.19" y="3.642" width="0.05" height="0.05" transform="rotate(180,-9.165,3.667)" />
    <rect id="mn-1252" x="-9.18" y="3.364" width="0.05" height="0.05" transform="rotate(90,-9.155,3.389)" />
    <rect id="mn-1253" x="-9.18" y="3.337" width="0.05" height="0.05" transform="rotate(270,-9.155,3.362)" />
    <rect id="mn-1254" x="-9.18" y="3.263" width="0.05" height="0.05" transform="rotate(240,-9.155,3.288)" />
    <rect id="mn-1255" x="-9.18" y="3.263" width="0.05" height="0.05" transform="rotate(120,-9.155,3.288)" />
    <rect id="mn-1256" x="-9.18" y="3.807" width="0.05" height="0.05" transform="rotate(90,-9.155,3.832)" />
    <rect id="mn-1257" x="-8.955" y="3.212" width="0.05" height="0.05" transform="rotate(120,-8.93,3.237)" />
    <rect id="mn-1258" x="-9.132" y="3.212" width="0.05" height="0.05" transform="rotate(180,-9.107,3.237)" />
    <rect id="mn-1259" x="-9.18" y="3.212" width="0.05" height="0.05" transform="rotate(90,-9.155,3.237)" />
    <rect id="mn-1260" x="-9.132" y="3.212" width="0.05" height="0.05" transform="rotate(120,-9.107,3.237)" />
    <rect id="mn-1261" x="-9.18" y="2.732" width="0.05" height="0.05" />
    <rect id="mn-1262" x="-9.18" y="2.732" width="0.05" height="0.05" />
    <rect id="mn-1263" x="-12.026" y="3.33" width="0.05" height="0.05" transform="rotate(120,-12.001,3.355)" />
    <rect id="mn-1264" x="-12.09" y="3.33" width="0.05" height="0.05" transform="rotate(180,-12.065,3.355)" />
    <rect id="mn-1265" x="-12.026" y="3.391" width="0.05" height="0.05" transform="rotate(180,-12.001,3.416)" />
    <rect id="mn-1266" x="-12.026" y="2.732" width="0.05" height="0.05" transform="rotate(269.929,-12.001,2.757)" />
    <rect id="mn-1267" x="-12.09" y="2.732" width="0.05" height="0.05" transform="rotate(180,-12.065,2.757)" />
    <rect id="mn-1268" x="-12.09" y="2.732" width="0.05" height="0.05" transform="rotate(90,-12.065,2.757)" />
    <rect id="mn-1269" x="-11.439" y="3.633" width="0.05" height="0.05" transform="rotate(240,-11.414,3.658)" />
    <rect id="mn-1270" x="-11.439" y="3.633" width="0.05" height="0.05" transform="rotate(180,-11.414,3.658)" />
    <rect id="mn-1271" x="-11.541" y="3.633" width="0.05" height="0.05" transform="rotate(240,-11.516,3.658)" />
    <rect id="mn-1272" x="-11.541" y="3.633" width="0.05" height="0.05" transform="rotate(180,-11.516,3.658)" />
    <rect id="mn-1273" x="-11.541" y="2.691" width="0.05" height="0.05" transform="rotate(240,-11.516,2.716)" />
    <rect id="mn-1274" x="-11.439" y="2.691" width="0.05" height="0.05" transform="rotate(240,-11.414,2.716)" />
    <rect id="mn-1275" x="-11.439" y="2.732" width="0.05" height="0.05" transform="rotate(180,-11.414,2.757)" />
    <rect id="mn-1276" x="-11.439" y="2.691" width="0.05" height="0.05" transform="rotate(90,-11.414,2.716)" />
    <rect id="mn-1277" x="-11.541" y="2.732" width="0.05" height="0.05" transform="rotate(180,-11.516,2.757)" />
    <rect id="mn-1278" x="-11.541" y="2.691" width="0.05" height="0.05" transform="rotate(90,-11.516,2.716)" />
    <rect id="mn-1279" x="-12.026" y="2.72" width="0.05" height="0.05" transform="rotate(90,-12.001,2.745)" />
    <rect id="mn-1280" x="-12.026" y="3.391" width="0.05" height="0.05" transform="rotate(240,-12.001,3.416)" />
    <rect id="mn-1281" x="-12.089" y="4.938" width="0.05" height="0.05" transform="rotate(180,-12.064,4.963)" />
    <rect id="mn-1282" x="-12.089" y="4.938" width="0.05" height="0.05" transform="rotate(180,-12.064,4.963)" />
    <rect id="mn-1283" x="-12.089" y="3.391" width="0.05" height="0.05" transform="rotate(270,-12.064,3.416)" />
    <rect id="mn-1284" x="-11.49" y="4.152" width="0.05" height="0.05" transform="rotate(238.288,-11.465,4.177)" />
    <rect id="mn-1285" x="-9.366" y="5.627" width="0.05" height="0.05" transform="rotate(270,-9.341,5.652)" />
    <rect id="mn-1286" x="-9.569" y="5.598" width="0.05" height="0.05" transform="rotate(270,-9.544,5.623)" />
    <rect id="mn-1287" x="-9.15" y="5.598" width="0.05" height="0.05" transform="rotate(90,-9.125,5.623)" />
    <rect id="mn-1288" x="-9.15" y="5.598" width="0.05" height="0.05" transform="rotate(180,-9.125,5.623)" />
    <rect id="mn-1289" x="-9.121" y="5.627" width="0.05" height="0.05" transform="rotate(90,-9.096,5.652)" />
    <rect id="mn-1290" x="-9.121" y="5.627" width="0.05" height="0.05" transform="rotate(180,-9.096,5.652)" />
    <rect id="mn-1291" x="-9.121" y="4.115" width="0.05" height="0.05" transform="rotate(240,-9.096,4.14)" />
    <rect id="mn-1292" x="-9.15" y="4.115" width="0.05" height="0.05" transform="rotate(240,-9.125,4.14)" />
    <rect id="mn-1293" x="-9.18" y="3.807" width="0.05" height="0.05" transform="rotate(120,-9.155,3.832)" />
    <rect id="mn-1294" x="-9.18" y="3.604" width="0.05" height="0.05" transform="rotate(180,-9.155,3.629)" />
    <rect id="mn-1295" x="-9.18" y="3.72" width="0.05" height="0.05" transform="rotate(90,-9.155,3.745)" />
    <rect id="mn-1296" x="-9.201" y="3.741" width="0.05" height="0.05" transform="rotate(148.6,-9.176,3.766)" />
    <rect id="mn-1297" x="-9.201" y="3.741" width="0.05" height="0.05" transform="rotate(270,-9.176,3.766)" />
    <rect id="mn-1298" x="-9.18" y="3.955" width="0.05" height="0.05" transform="rotate(225,-9.155,3.98)" />
    <rect id="mn-1299" x="-9.15" y="4.115" width="0.05" height="0.05" transform="rotate(180,-9.125,4.14)" />
    <rect id="mn-1300" x="-9.15" y="4.028" width="0.05" height="0.05" transform="rotate(45,-9.125,4.053)" />
    <rect id="mn-1301" x="-9.201" y="3.976" width="0.05" height="0.05" transform="rotate(225,-9.176,4.001)" />
    <rect id="mn-1302" x="-9.121" y="4.014" width="0.05" height="0.05" transform="rotate(45,-9.096,4.039)" />
    <rect id="mn-1303" x="-9.121" y="4.115" width="0.05" height="0.05" transform="rotate(180,-9.096,4.14)" />
    <rect id="mn-1304" x="-4.383" y="3.612" width="0.05" height="0.05" transform="rotate(240,-4.358,3.637)" />
    <rect id="mn-1305" x="-4.2" y="3.306" width="0.05" height="0.05" transform="rotate(180,-4.175,3.331)" />
    <rect id="mn-1306" x="-4.2" y="3.306" width="0.05" height="0.05" transform="rotate(90,-4.175,3.331)" />
    <rect id="mn-1307" x="-4.383" y="3.765" width="0.05" height="0.05" transform="rotate(240,-4.358,3.79)" />
    <rect id="mn-1308" x="-4.2" y="3.612" width="0.05" height="0.05" transform="rotate(120,-4.175,3.637)" />
    <rect id="mn-1309" x="-4.2" y="3.612" width="0.05" height="0.05" transform="rotate(90,-4.175,3.637)" />
    <rect id="mn-1310" x="-4.2" y="3.509" width="0.05" height="0.05" transform="rotate(180,-4.175,3.534)" />
    <rect id="mn-1311" x="-4.2" y="3.399" width="0.05" height="0.05" transform="rotate(240,-4.175,3.424)" />
    <rect id="mn-1312" x="-4.2" y="3.399" width="0.05" height="0.05" transform="rotate(180,-4.175,3.424)" />
    <rect id="mn-1313" x="-4.2" y="2.72" width="0.05" height="0.05" transform="rotate(270,-4.175,2.745)" />
    <rect id="mn-1314" x="-1.517" y="2.72" width="0.05" height="0.05" />
    <rect id="mn-1315" x="-2.82" y="5.682" width="0.05" height="0.05" transform="rotate(315,-2.795,5.707)" />
    <rect id="mn-1316" x="-1.517" y="4.882" width="0.05" height="0.05" transform="rotate(90,-1.492,4.907)" />
    <rect id="mn-1317" x="-1.593" y="5.682" width="0.05" height="0.05" transform="rotate(90,-1.568,5.707)" />
    <rect id="mn-1318" x="-1.517" y="4.882" width="0.05" height="0.05" transform="rotate(90,-1.492,4.907)" />
    <rect id="mn-1319" x="-1.593" y="4.958" width="0.05" height="0.05" transform="rotate(270,-1.568,4.983)" />
    <rect id="mn-1320" x="-2.162" y="5.682" width="0.05" height="0.05" transform="rotate(90,-2.137,5.707)" />
    <rect id="mn-1321" x="-1.593" y="5.682" width="0.05" height="0.05" transform="rotate(90,-1.568,5.707)" />
    <rect id="mn-1322" x="-1.593" y="4.958" width="0.05" height="0.05" transform="rotate(270,-1.568,4.983)" />
    <rect id="mn-1323" x="-2.06" y="5.682" width="0.05" height="0.05" transform="rotate(180,-2.035,5.707)" />
    <rect id="mn-1324" x="-2.06" y="5.719" width="0.05" height="0.05" transform="rotate(180,-2.035,5.744)" />
    <rect id="mn-1325" x="-1.517" y="3.382" width="0.05" height="0.05" transform="rotate(120,-1.492,3.407)" />
    <rect id="mn-1326" x="-1.546" y="4.247" width="0.05" height="0.05" transform="rotate(240,-1.521,4.272)" />
    <rect id="mn-1327" x="-1.517" y="4.247" width="0.05" height="0.05" transform="rotate(240,-1.492,4.272)" />
    <rect id="mn-1328" x="-1.517" y="4.247" width="0.05" height="0.05" transform="rotate(98.421,-1.492,4.272)" />
    <rect id="mn-1329" x="-1.546" y="4.187" width="0.05" height="0.05" transform="rotate(240,-1.521,4.212)" />
    <rect id="mn-1330" x="-1.517" y="4.187" width="0.05" height="0.05" transform="rotate(240,-1.492,4.212)" />
    <rect id="mn-1331" x="-1.517" y="4.187" width="0.05" height="0.05" transform="rotate(98.421,-1.492,4.212)" />
    <rect id="mn-1332" x="-2.111" y="5.191" width="0.05" height="0.05" transform="rotate(239.425,-2.086,5.216)" />
    <rect id="mn-1333" x="-1.517" y="3.382" width="0.05" height="0.05" transform="rotate(180,-1.492,3.407)" />
    <rect id="mn-1334" x="-4.2" y="3.765" width="0.05" height="0.05" transform="rotate(90,-4.175,3.79)" />
    <rect id="mn-1335" x="-4.219" y="3.407" width="0.05" height="0.05" transform="rotate(240,-4.194,3.432)" />
    <rect id="mn-1336" x="-4.2" y="3.261" width="0.05" height="0.05" transform="rotate(120,-4.175,3.286)" />
    <rect id="mn-1337" x="-4.2" y="3.261" width="0.05" height="0.05" transform="rotate(120,-4.175,3.286)" />
    <rect id="mn-1338" x="-4.327" y="3.261" width="0.05" height="0.05" transform="rotate(240,-4.302,3.286)" />
    <rect id="mn-1339" x="-4.327" y="3.261" width="0.05" height="0.05" transform="rotate(180,-4.302,3.286)" />
    <rect id="mn-1340" x="-2.873" y="5.735" width="0.05" height="0.05" transform="rotate(270,-2.848,5.76)" />
    <rect id="mn-1341" x="-3.076" y="5.682" width="0.05" height="0.05" transform="rotate(270,-3.051,5.707)" />
    <rect id="mn-1342" x="-2.873" y="5.735" width="0.05" height="0.05" transform="rotate(211.4,-2.848,5.76)" />
    <rect id="mn-1343" x="-2.162" y="5.682" width="0.05" height="0.05" transform="rotate(180,-2.137,5.707)" />
    <rect id="mn-1344" x="-2.06" y="5.719" width="0.05" height="0.05" transform="rotate(180,-2.035,5.744)" />
    <rect id="mn-1345" x="-4.2" y="3.261" width="0.05" height="0.05" transform="rotate(120,-4.175,3.286)" />
    <rect id="mn-1346" x="-4.2" y="3.261" width="0.05" height="0.05" transform="rotate(90,-4.175,3.286)" />
    <rect id="mn-1347" x="-4.2" y="3.261" width="0.05" height="0.05" transform="rotate(180,-4.175,3.286)" />
    <rect id="mn-1348" x="7.423" y="6.055" width="0.05" height="0.05" />
    <rect id="mn-1349" x="6.103" y="6.055" width="0.05" height="0.05" transform="rotate(180,6.128,6.08)" />
    <rect id="mn-1350" x="6.043" y="5.995" width="0.05" height="0.05" transform="rotate(225,6.068,6.02)" />
    <rect id="mn-1351" x="6.043" y="5.798" width="0.05" height="0.05" transform="rotate(240,6.068,5.823)" />
    <rect id="mn-1352" x="7.449" y="6.634" width="0.05" height="0.05" transform="rotate(180,7.474,6.659)" />
    <rect id="mn-1353" x="7.55" y="6.634" width="0.05" height="0.05" transform="rotate(90,7.575,6.659)" />
    <rect id="mn-1354" x="7.55" y="6.634" width="0.05" height="0.05" transform="rotate(240,7.575,6.659)" />
    <rect id="mn-1355" x="8.047" y="6.634" width="0.05" height="0.05" transform="rotate(90,8.072,6.659)" />
    <rect id="mn-1356" x="8.886" y="6.634" width="0.05" height="0.05" transform="rotate(90,8.911,6.659)" />
    <rect id="mn-1357" x="7.549" y="6.661" width="0.05" height="0.05" transform="rotate(180,7.574,6.686)" />
    <rect id="mn-1358" x="7.549" y="6.661" width="0.05" height="0.05" transform="rotate(120,7.574,6.686)" />
    <rect id="mn-1359" x="7.423" y="6.661" width="0.05" height="0.05" transform="rotate(180,7.448,6.686)" />
    <rect id="mn-1360" x="7.844" y="6.661" width="0.05" height="0.05" transform="rotate(90,7.869,6.686)" />
    <rect id="mn-1361" x="8.682" y="6.661" width="0.05" height="0.05" transform="rotate(180,8.707,6.686)" />
    <rect id="mn-1362" x="8.682" y="6.661" width="0.05" height="0.05" transform="rotate(180,8.707,6.686)" />
    <rect id="mn-1363" x="10.072" y="6.634" width="0.05" height="0.05" transform="rotate(90,10.097,6.659)" />
    <rect id="mn-1364" x="10.072" y="6.661" width="0.05" height="0.05" transform="rotate(90,10.097,6.686)" />
    <rect id="mn-1365" x="10.072" y="5.62" width="0.05" height="0.05" transform="rotate(240,10.097,5.645)" />
    <rect id="mn-1366" x="10.072" y="5.62" width="0.05" height="0.05" transform="rotate(180,10.097,5.645)" />
    <rect id="mn-1367" x="10.072" y="4.68" width="0.05" height="0.05" transform="rotate(240,10.097,4.705)" />
    <rect id="mn-1368" x="10.072" y="5.568" width="0.05" height="0.05" transform="rotate(240,10.097,5.593)" />
    <rect id="mn-1369" x="10.072" y="5.568" width="0.05" height="0.05" transform="rotate(180,10.097,5.593)" />
    <rect id="mn-1370" x="10.072" y="4.729" width="0.05" height="0.05" transform="rotate(240,10.097,4.754)" />
    <rect id="mn-1371" x="10.072" y="4.68" width="0.05" height="0.05" transform="rotate(180,10.097,4.705)" />
    <rect id="mn-1372" x="10.072" y="4.729" width="0.05" height="0.05" transform="rotate(180,10.097,4.754)" />
    <rect id="mn-1373" x="10.072" y="4.453" width="0.05" height="0.05" transform="rotate(98.421,10.097,4.478)" />
    <rect id="mn-1374" x="10.072" y="4.453" width="0.05" height="0.05" transform="rotate(240,10.097,4.478)" />
    <rect id="mn-1375" x="10.072" y="4.514" width="0.05" height="0.05" />
    <rect id="mn-1376" x="10.072" y="5.568" width="0.05" height="0.05" transform="rotate(270,10.097,5.593)" />
    <rect id="mn-1377" x="6.622" y="6.055" width="0.05" height="0.05" transform="rotate(180,6.647,6.08)" />
    <rect id="mn-1378" x="6.043" y="6.055" width="0.05" height="0.05" transform="rotate(180,6.068,6.08)" />
    <rect id="mn-1379" x="6.043" y="5.888" width="0.05" height="0.05" transform="rotate(240,6.068,5.913)" />
    <rect id="mn-1380" x="6.043" y="5.888" width="0.05" height="0.05" transform="rotate(180,6.068,5.913)" />
    <rect id="mn-1381" x="6.043" y="4.601" width="0.05" height="0.05" transform="rotate(270,6.068,4.626)" />
    <rect id="mn-1382" x="6.292" y="4.601" width="0.05" height="0.05" transform="rotate(90,6.317,4.626)" />
    <rect id="mn-1383" x="6.292" y="4.601" width="0.05" height="0.05" transform="rotate(180,6.317,4.626)" />
    <rect id="mn-1384" x="6.82" y="4.628" width="0.05" height="0.05" transform="rotate(120,6.845,4.653)" />
    <rect id="mn-1385" x="6.444" y="4.628" width="0.05" height="0.05" transform="rotate(180,6.469,4.653)" />
    <rect id="mn-1386" x="6.043" y="4.628" width="0.05" height="0.05" transform="rotate(180,6.068,4.653)" />
    <rect id="mn-1387" x="6.043" y="4.628" width="0.05" height="0.05" transform="rotate(270,6.068,4.653)" />
    <rect id="mn-1388" x="6.444" y="4.526" width="0.05" height="0.05" transform="rotate(270,6.469,4.551)" />
    <rect id="mn-1389" x="6.444" y="4.628" width="0.05" height="0.05" transform="rotate(180,6.469,4.653)" />
    <rect id="mn-1390" x="6.444" y="4.526" width="0.05" height="0.05" transform="rotate(120,6.469,4.551)" />
    <rect id="mn-1391" x="6.444" y="4.526" width="0.05" height="0.05" transform="rotate(180,6.469,4.551)" />
    <rect id="mn-1392" x="6.444" y="4.628" width="0.05" height="0.05" transform="rotate(90,6.469,4.653)" />
    <rect id="mn-1393" x="6.444" y="4.614" width="0.05" height="0.05" transform="rotate(270,6.469,4.639)" />
    <rect id="mn-1394" x="8.886" y="6.634" width="0.05" height="0.05" transform="rotate(180.199,8.911,6.659)" />
    <rect id="mn-1395" x="8.047" y="6.634" width="0.05" height="0.05" transform="rotate(180,8.072,6.659)" />
    <rect id="mn-1396" x="7.844" y="6.661" width="0.05" height="0.05" transform="rotate(180,7.869,6.686)" />
    <rect id="mn-1397" x="10.072" y="5.468" width="0.05" height="0.05" />
    <rect id="mn-1398" x="10.021" y="4.453" width="0.05" height="0.05" transform="rotate(211.4,10.046,4.478)" />
    <rect id="mn-1399" x="10.021" y="4.514" width="0.05" height="0.05" transform="rotate(180,10.046,4.539)" />
    <rect id="mn-1400" x="6.043" y="6.001" width="0.05" height="0.05" transform="rotate(180,6.068,6.026)" />
    <rect id="mn-1401" x="6.043" y="5.798" width="0.05" height="0.05" transform="rotate(120,6.068,5.823)" />
    <rect id="mn-1402" x="10.021" y="4.252" width="0.05" height="0.05" transform="rotate(90,10.046,4.277)" />
    <rect id="mn-1403" x="6.82" y="4.628" width="0.05" height="0.05" transform="rotate(180,6.845,4.653)" />
    <rect id="mn-1404" x="6.82" y="4.252" width="0.05" height="0.05" transform="rotate(270,6.845,4.277)" />
    <rect id="mn-1405" x="6.292" y="4.476" width="0.05" height="0.05" transform="rotate(240,6.317,4.501)" />
    <rect id="mn-1406" x="6.444" y="4.476" width="0.05" height="0.05" transform="rotate(240,6.469,4.501)" />
    <rect id="mn-1407" x="6.444" y="4.497" width="0.05" height="0.05" transform="rotate(270,6.469,4.522)" />
    <rect id="mn-1408" x="6.622" y="5.998" width="0.05" height="0.05" transform="rotate(120,6.647,6.023)" />
    <rect id="mn-1409" x="6.622" y="5.998" width="0.05" height="0.05" transform="rotate(240,6.647,6.023)" />
    <rect id="mn-1410" x="7.449" y="6.055" width="0.05" height="0.05" />
    <rect id="mn-1411" x="6.724" y="6.055" width="0.05" height="0.05" transform="rotate(90,6.749,6.08)" />
    <rect id="mn-1412" x="6.724" y="6.055" width="0.05" height="0.05" transform="rotate(180,6.749,6.08)" />
    <rect id="mn-1413" x="-9.656" y="-1.385" width="0.05" height="0.05" transform="rotate(240,-9.631,-1.36)" />
    <rect id="mn-1414" x="-9.656" y="-1.385" width="0.05" height="0.05" transform="rotate(90,-9.631,-1.36)" />
    <rect id="mn-1415" x="-9.656" y="-1.287" width="0.05" height="0.05" transform="rotate(180,-9.631,-1.262)" />
    <rect id="mn-1416" x="-9.656" y="-1.385" width="0.05" height="0.05" transform="rotate(270,-9.631,-1.36)" />
    <rect id="mn-1417" x="-9.656" y="-1.287" width="0.05" height="0.05" transform="rotate(180,-9.631,-1.262)" />
    <rect id="mn-1418" x="-9.325" y="-1.385" width="0.05" height="0.05" transform="rotate(90,-9.3,-1.36)" />
    <rect id="mn-1419" x="-9.325" y="-1.385" width="0.05" height="0.05" transform="rotate(120,-9.3,-1.36)" />
    <rect id="mn-1420" x="-9.325" y="-1.247" width="0.05" height="0.05" transform="rotate(180,-9.3,-1.222)" />
    <rect id="mn-1421" x="-9.325" y="-1.385" width="0.05" height="0.05" transform="rotate(90,-9.3,-1.36)" />
    <rect id="mn-1422" x="-9.291" y="-1.385" width="0.05" height="0.05" transform="rotate(180,-9.266,-1.36)" />
    <rect id="mn-1423" x="-11.323" y="-3.397" width="0.05" height="0.05" transform="rotate(180,-11.298,-3.372)" />
    <rect id="mn-1424" x="-12.454" y="-3.397" width="0.05" height="0.05" transform="rotate(270,-12.429,-3.372)" />
    <rect id="mn-1425" x="-12.454" y="-3.186" width="0.05" height="0.05" transform="rotate(120,-12.429,-3.161)" />
    <rect id="mn-1426" x="-12.454" y="-3.186" width="0.05" height="0.05" transform="rotate(98.421,-12.429,-3.161)" />
    <rect id="mn-1427" x="-12.734" y="-2.906" width="0.05" height="0.05" transform="rotate(148.6,-12.709,-2.881)" />
    <rect id="mn-1428" x="-12.734" y="-2.206" width="0.05" height="0.05" transform="rotate(180,-12.709,-2.181)" />
    <rect id="mn-1429" x="-12.734" y="-2.906" width="0.05" height="0.05" transform="rotate(90,-12.709,-2.881)" />
    <rect id="mn-1430" x="-11.12" y="-3.365" width="0.05" height="0.05" transform="rotate(90,-11.095,-3.34)" />
    <rect id="mn-1431" x="-11.12" y="-3.365" width="0.05" height="0.05" transform="rotate(180,-11.095,-3.34)" />
    <rect id="mn-1432" x="-12.403" y="-3.365" width="0.05" height="0.05" transform="rotate(270,-12.378,-3.34)" />
    <rect id="mn-1433" x="-12.403" y="-3.165" width="0.05" height="0.05" transform="rotate(120,-12.378,-3.14)" />
    <rect id="mn-1434" x="-12.403" y="-3.165" width="0.05" height="0.05" transform="rotate(98.421,-12.378,-3.14)" />
    <rect id="mn-1435" x="-12.77" y="-2.798" width="0.05" height="0.05" transform="rotate(148.6,-12.745,-2.773)" />
    <rect id="mn-1436" x="-12.77" y="-2.798" width="0.05" height="0.05" transform="rotate(90,-12.745,-2.773)" />
    <rect id="mn-1437" x="-12.734" y="-1.724" width="0.05" height="0.05" transform="rotate(120,-12.709,-1.699)" />
    <rect id="mn-1438" x="-12.734" y="-1.724" width="0.05" height="0.05" transform="rotate(90,-12.709,-1.699)" />
    <rect id="mn-1439" x="-12.77" y="-1.681" width="0.05" height="0.05" transform="rotate(120,-12.745,-1.656)" />
    <rect id="mn-1440" x="-12.77" y="-1.681" width="0.05" height="0.05" transform="rotate(90,-12.745,-1.656)" />
    <rect id="mn-1441" x="-12.77" y="-1.214" width="0.05" height="0.05" transform="rotate(180,-12.745,-1.189)" />
    <rect id="mn-1442" x="-12.734" y="-1.214" width="0.05" height="0.05" transform="rotate(120,-12.709,-1.189)" />
    <rect id="mn-1443" x="-12.734" y="-1.154" width="0.05" height="0.05" transform="rotate(120,-12.709,-1.129)" />
    <rect id="mn-1444" x="-12.734" y="0.428" width="0.05" height="0.05" transform="rotate(120,-12.709,0.453)" />
    <rect id="mn-1445" x="-12.734" y="0.555" width="0.05" height="0.05" transform="rotate(240,-12.709,0.58)" />
    <rect id="mn-1446" x="-12.734" y="1.031" width="0.05" height="0.05" transform="rotate(240,-12.709,1.056)" />
    <rect id="mn-1447" x="-12.734" y="0.904" width="0.05" height="0.05" transform="rotate(120,-12.709,0.929)" />
    <rect id="mn-1448" x="-2.975" y="5.738" width="0.05" height="0.05" transform="rotate(211.4,-2.95,5.763)" />
    <rect id="mn-1449" x="-2.874" y="5.637" width="0.05" height="0.05" transform="rotate(230.993,-2.849,5.662)" />
    <rect id="mn-1450" x="-6.299" y="2.474" width="0.05" height="0.05" transform="rotate(180,-6.274,2.499)" />
    <rect id="mn-1451" x="-6.35" y="2.474" width="0.05" height="0.05" transform="rotate(148.6,-6.325,2.499)" />
    <rect id="mn-1452" x="-12.734" y="2.474" width="0.05" height="0.05" transform="rotate(180,-12.709,2.499)" />
    <rect id="mn-1453" x="-6.095" y="2.474" width="0.05" height="0.05" transform="rotate(90,-6.07,2.499)" />
    <rect id="mn-1454" x="-6.299" y="2.525" width="0.05" height="0.05" transform="rotate(180,-6.274,2.55)" />
    <rect id="mn-1455" x="-6.095" y="2.525" width="0.05" height="0.05" transform="rotate(90,-6.07,2.55)" />
    <rect id="mn-1456" x="-6.35" y="2.525" width="0.05" height="0.05" transform="rotate(148.6,-6.325,2.55)" />
    <rect id="mn-1457" x="-4.791" y="2.525" width="0.05" height="0.05" transform="rotate(180,-4.766,2.55)" />
    <rect id="mn-1458" x="-4.867" y="2.525" width="0.05" height="0.05" transform="rotate(148.6,-4.842,2.55)" />
    <rect id="mn-1459" x="-6.044" y="2.525" width="0.05" height="0.05" transform="rotate(261.579,-6.019,2.55)" />
    <rect id="mn-1460" x="-4.544" y="2.525" width="0.05" height="0.05" transform="rotate(90,-4.519,2.55)" />
    <rect id="mn-1461" x="-4.791" y="2.474" width="0.05" height="0.05" transform="rotate(180,-4.766,2.499)" />
    <rect id="mn-1462" x="-4.544" y="2.474" width="0.05" height="0.05" transform="rotate(90,-4.519,2.499)" />
    <rect id="mn-1463" x="-6.044" y="2.474" width="0.05" height="0.05" transform="rotate(261.579,-6.019,2.499)" />
    <rect id="mn-1464" x="-4.867" y="2.474" width="0.05" height="0.05" transform="rotate(148.6,-4.842,2.499)" />
    <rect id="mn-1465" x="-4.468" y="2.474" width="0.05" height="0.05" transform="rotate(261.579,-4.443,2.499)" />
    <rect id="mn-1466" x="-8.83" y="2.525" width="0.05" height="0.05" transform="rotate(180,-8.805,2.55)" />
    <rect id="mn-1467" x="-8.83" y="2.474" width="0.05" height="0.05" transform="rotate(180,-8.805,2.499)" />
    <rect id="mn-1468" x="-8.906" y="2.525" width="0.05" height="0.05" transform="rotate(148.6,-8.881,2.55)" />
    <rect id="mn-1469" x="-9.19" y="2.525" width="0.05" height="0.05" transform="rotate(270,-9.165,2.55)" />
    <rect id="mn-1470" x="-8.583" y="2.525" width="0.05" height="0.05" transform="rotate(90,-8.558,2.55)" />
    <rect id="mn-1471" x="-8.583" y="2.474" width="0.05" height="0.05" transform="rotate(90,-8.558,2.499)" />
    <rect id="mn-1472" x="6.039" y="5.9" width="0.05" height="0.05" transform="rotate(90,6.064,5.925)" />
    <rect id="mn-1473" x="6.039" y="5.9" width="0.05" height="0.05" transform="rotate(270,6.064,5.925)" />
    <rect id="mn-1474" x="6.039" y="6.69" width="0.05" height="0.05" transform="rotate(180,6.064,6.715)" />
    <rect id="mn-3800" x="-8.68" y="4.071" width="0.05" height="0.05" transform="rotate(180,-8.655,4.096)" />
    <rect id="mn-3801" x="-8.68" y="2.09" width="0.05" height="0.05" transform="rotate(270,-8.655,2.115)" />
    <rect id="mn-3802" x="15.952" y="2.366" width="0.05" height="0.05" transform="rotate(270,15.977,2.391)" />
    <rect id="mn-3803" x="15.494" y="2.09" width="0.05" height="0.05" transform="rotate(240,15.519,2.115)" />
    <rect id="mn-3804" x="-11.379" y="1.937" width="0.05" height="0.05" transform="rotate(180,-11.354,1.962)" />
    <rect id="mn-3805" x="-4.667" y="2.223" width="0.05" height="0.05" transform="rotate(270,-4.642,2.248)" />
    <rect id="mn-3806" x="17.117" y="2.366" width="0.05" height="0.05" transform="rotate(90,17.142,2.391)" />
    <rect id="mn-3807" x="17.807" y="2.366" width="0.05" height="0.05" transform="rotate(180,17.832,2.391)" />
    <rect id="mn-3808" x="17.806" y="2.366" width="0.05" height="0.05" transform="rotate(180,17.831,2.391)" />
    <rect id="mn-3809" x="17.108" y="2.366" width="0.05" height="0.05" transform="rotate(90,17.133,2.391)" />
    <rect id="mn-3810" x="17.117" y="2.223" width="0.05" height="0.05" transform="rotate(90,17.142,2.248)" />
    <rect id="mn-3811" x="17.807" y="2.223" width="0.05" height="0.05" transform="rotate(180,17.832,2.248)" />
    <rect id="mn-3812" x="17.108" y="2.223" width="0.05" height="0.05" transform="rotate(90,17.133,2.248)" />
    <rect id="mn-3813" x="17.806" y="2.223" width="0.05" height="0.05" transform="rotate(268.272,17.831,2.248)" />
    <rect id="mn-3814" x="17.807" y="2.09" width="0.05" height="0.05" transform="rotate(180,17.832,2.115)" />
    <rect id="mn-3815" x="17.109" y="2.09" width="0.05" height="0.05" transform="rotate(90,17.134,2.115)" />
    <rect id="mn-3816" x="17.807" y="2.09" width="0.05" height="0.05" transform="rotate(180,17.832,2.115)" />
    <rect id="mn-3817" x="17.117" y="1.937" width="0.05" height="0.05" transform="rotate(90,17.142,1.962)" />
    <rect id="mn-3818" x="17.815" y="1.937" width="0.05" height="0.05" transform="rotate(180,17.84,1.962)" />
    <rect id="mn-3819" x="8.624" y="2.223" width="0.05" height="0.05" transform="rotate(270,8.649,2.248)" />
    <rect id="mn-3820" x="-11.379" y="-0.673" width="0.05" height="0.05" transform="rotate(240,-11.354,-0.648)" />
    <rect id="mn-3821" x="8.624" y="3.975" width="0.05" height="0.05" transform="rotate(120,8.649,4)" />
    <rect id="mn-3822" x="8.941" y="3.975" width="0.05" height="0.05" transform="rotate(180,8.966,4)" />
    <rect id="mn-3823" x="8.941" y="2.366" width="0.05" height="0.05" transform="rotate(270,8.966,2.391)" />
    <rect id="mn-3824" x="-4.667" y="6.135" width="0.05" height="0.05" transform="rotate(180,-4.642,6.16)" />
    <rect id="mn-3825" x="-4.667" y="5.22" width="0.05" height="0.05" transform="rotate(120,-4.642,5.245)" />
    <rect id="mn-3826" x="-4.667" y="5.55" width="0.05" height="0.05" transform="rotate(240,-4.642,5.575)" />
    <rect id="mn-3827" x="-7.166" y="2.09" width="0.05" height="0.05" transform="rotate(90,-7.141,2.115)" />
    <rect id="mn-3828" x="-6.86" y="2.09" width="0.05" height="0.05" transform="rotate(267.819,-6.835,2.115)" />
    <rect id="mn-3829" x="-6.044" y="2.09" width="0.05" height="0.05" transform="rotate(90,-6.019,2.115)" />
    <rect id="mn-3830" x="-5.738" y="2.09" width="0.05" height="0.05" transform="rotate(267.819,-5.713,2.115)" />
    <rect id="mn-3831" x="17.117" y="2.09" width="0.05" height="0.05" transform="rotate(165.894,17.142,2.115)" />
  </g>
</svg>