<?xml version="1.0" encoding="utf-8"?>
<svg xmlns="http://www.w3.org/2000/svg" viewBox="-13.450 -12.943 34.734 16.983">
  <g transform="scale(1,-1)">
    <path id="pi-112" d="M -2.121,3.204 L -2.121,3.204" />
    <path id="pi-113" d="M 6.698,5.324 L 6.698,5.324" />
    <path id="pi-114" d="M 9.461,5.29 L 9.461,5.29" />
    <path id="pi-115" d="M -9.176,3.629 L -9.204,3.629" />
    <path id="pi-116" d="M -9.204,3.832 L -9.169,3.832" />
    <path id="pi-117" d="M 9.903,5.29 L 9.604,5.29" />
    <path id="pi-118" d="M 6.841,5.323 L 9.36,5.29" />
    <path id="pi-119" d="M 10.046,6.637 L 10.046,6.226" />
    <path id="pi-120" d="M 10.046,6.129 L 10.046,6.065" />
    <path id="pi-121" d="M 10.046,5.967 L 10.046,5.675" />
    <path id="pi-122" d="M 10.046,5.5 L 10.046,5.578" />
    <path id="pi-123" d="M 6.064,6.002 L 6.064,6.637" />
    <path id="pi-124" d="M 7.893,6.715 L 6.142,6.715" />
    <path id="pi-125" d="M 7.971,6.715 L 7.971,6.715" />
    <path id="pi-126" d="M 8.731,6.715 L 8.025,6.715" />
    <path id="pi-127" d="M 8.809,6.715 L 8.809,6.715" />
    <path id="pi-128" d="M 8.863,6.715 L 10.254,6.715" />
    <path id="pi-129" d="M 10.046,4.712 L 10.046,5.049" />
    <path id="pi-130" d="M 8.809,6.593 L 8.81,6.637" />
    <path id="pi-131" d="M 7.971,6.593 L 7.971,6.637" />
    <path id="pi-132" d="M 5.972,5.925 L 5.986,5.925" />
    <path id="pi-133" d="M -4.194,3.432 L -4.194,3.432" />
    <path id="pi-134" d="M -4.116,3.432 L -3.624,3.432" />
    <path id="pi-135" d="M -4.116,3.432 L -4.099,3.432" />
    <path id="pi-136" d="M -2.95,5.858 L -2.95,5.84" />
    <path id="pi-137" d="M -1.521,4.445 L -1.521,4.646" />
    <path id="pi-138" d="M -2.088,5.108 L -2.093,4.797" />
    <path id="pi-139" d="M -1.521,4.724 L -1.521,4.724" />
    <path id="pi-140" d="M -2.118,3.346 L -2.097,4.552" />
    <path id="pi-141" d="M -11.486,5.499 L -11.444,5.305" />
    <path id="pi-142" d="M -11.516,5.639 L -11.516,5.639" />
    <path id="pi-143" d="M -11.486,5.499 L -11.444,5.305" />
    <path id="pi-144" d="M -11.516,5.639 L -11.516,5.639" />
    <path id="pi-145" d="M -11.486,5.499 L -11.444,5.305" />
    <path id="pi-146" d="M -11.414,5.166 L -11.414,5.166" />
    <path id="pi-147" d="M -11.421,5.023 L -11.458,4.319" />
    <path id="pi-148" d="M -11.465,4.177 L -11.465,4.177" />
    <path id="pi-149" d="M -11.516,5.639 L -11.516,5.639" />
    <path id="pi-150" d="M -11.486,5.499 L -11.444,5.305" />
    <path id="pi-151" d="M -11.414,5.166 L -11.414,5.166" />
    <path id="pi-152" d="M -11.516,5.639 L -11.516,5.639" />
    <path id="pi-153" d="M -11.516,5.639 L -11.516,5.639" />
    <path id="pi-154" d="M -11.923,2.745 L -9.188,2.745" />
    <path id="pi-155" d="M -12.001,2.745 L -12.001,2.745" />
    <path id="pi-156" d="M -9.111,3.808 L -9.111,5.559" />
    <path id="pi-157" d="M -9.111,3.731 L -9.111,3.731" />
    <path id="pi-158" d="M -9.111,2.823 L -9.111,3.677" />
    <path id="pi-159" d="M -9.442,5.637 L -9.442,5.637" />
    <path id="pi-160" d="M -9.188,5.637 L -9.388,5.637" />
    <path id="pi-161" d="M -11.274,5.637 L -9.52,5.637" />
    <path id="pi-162" d="M -11.516,5.639 L -11.516,5.639" />
    <path id="pi-163" d="M 20.558,-2.339 L 20.558,-2.339" />
    <path id="pi-164" d="M 20.558,-2.339 L 20.558,-2.339" />
    <path id="pi-165" d="M 20.558,-2.339 L 20.558,-2.339" />
    <path id="pi-166" d="M 20.558,-2.339 L 20.558,-2.339" />
    <path id="pi-167" d="M 20.558,-2.339 L 20.558,-2.339" />
    <path id="pi-168" d="M 20.558,-2.339 L 20.558,-2.339" />
    <path id="pi-169" d="M 20.611,-2.624 L 20.579,-2.377" />
    <path id="pi-170" d="M 20.616,-2.664 L 20.616,-2.664" />
    <path id="pi-171" d="M 20.573,-2.337 L 20.573,-2.337" />
    <path id="pi-172" d="M 20.467,-2.229 L 19.166,-0.679" />
    <path id="pi-173" d="M 19.102,-0.503 L 19.102,7.837" />
    <path id="pi-174" d="M 19.093,7.976 L 18.664,11.232" />
    <path id="pi-175" d="M -9.392,-2.032 L -9.392,-2.032" />
    <path id="pi-176" d="M -9.535,-2.029 L -12.011,-1.981" />
    <path id="pi-177" d="M -12.154,-1.978 L -12.154,-1.978" />
    <path id="pi-178" d="M -12.709,-1.362 L -12.709,-1.462" />
    <path id="pi-179" d="M -10.358,-3.248 L -10.358,-3.262" />
    <path id="pi-180" d="M -11.197,-3.248 L -11.197,-3.262" />
    <path id="pi-181" d="M -11.516,5.639 L -11.516,5.639" />
    <path id="pi-182" d="M -12.444,-1.977 L -12.296,-1.977" />
    <path id="pi-183" d="M -12.154,-1.978 L -12.154,-1.978" />
    <path id="pi-184" d="M -12.709,-1.54 L -12.709,-1.54" />
    <path id="pi-185" d="M -12.631,-1.54 L -12.459,-1.54" />
    <path id="pi-186" d="M -12.381,-1.585 L -12.275,-1.769" />
    <path id="pi-187" d="M -12.154,-1.978 L -12.154,-1.978" />
    <path id="pi-188" d="M -8.665,-2.546 L -8.815,-2.546" />
    <path id="pi-189" d="M -8.893,-2.546 L -8.893,-2.546" />
    <path id="pi-190" d="M -8.893,-2.624 L -8.893,-3.262" />
    <path id="pi-191" d="M -8.971,-3.34 L -10.303,-3.34" />
    <path id="pi-192" d="M -10.358,-3.34 L -10.358,-3.34" />
    <path id="pi-193" d="M -11.197,-3.34 L -11.197,-3.34" />
    <path id="pi-194" d="M 17.426,12.275 L 17.426,12.275" />
    <path id="pi-195" d="M 17.53,12.198 L 18.541,11.451" />
    <path id="pi-196" d="M 18.645,11.374 L 18.645,11.374" />
    <path id="pi-197" d="M 18.627,11.516 L 18.613,11.616" />
    <path id="pi-198" d="M 18.645,11.374 L 18.645,11.374" />
    <path id="pi-199" d="M -12.001,2.823 L -12.001,3.182" />
    <path id="pi-200" d="M -9.204,3.731 L -9.188,3.731" />
    <path id="pi-201" d="M -9.442,5.731 L -9.442,5.715" />
    <path id="pi-202" d="M -11.095,-3.34 L -11.095,-3.34" />
    <path id="pi-203" d="M -10.277,-3.34 L -11.074,-3.34" />
    <path id="pi-204" d="M -10.256,-3.34 L -10.256,-3.34" />
    <path id="pi-205" d="M -11.095,-3.248 L -11.095,-3.326" />
    <path id="pi-206" d="M -10.256,-3.248 L -10.256,-3.326" />
    <path id="pi-207" d="M -9.341,-2.75 L -9.341,-2.75" />
    <path id="pi-208" d="M -9.811,-2.75 L -9.362,-2.75" />
    <path id="pi-209" d="M -9.825,-3.326 L -9.825,-2.764" />
    <path id="pi-210" d="M -9.341,-2.648 L -9.341,-2.735" />
    <path id="pi-211" d="M -9.839,-3.34 L -10.236,-3.34" />
    <path id="pi-212" d="M -9.32,-2.75 L -8.728,-2.75" />
    <path id="pi-213" d="M -8.714,-2.627 L -8.714,-1.375" />
    <path id="pi-214" d="M -8.728,-1.36 L -9.134,-1.36" />
    <path id="pi-215" d="M -8.665,-2.648 L -8.7,-2.648" />
    <path id="pi-216" d="M -8.714,-2.648 L -8.714,-2.648" />
    <path id="pi-217" d="M -8.714,-2.735 L -8.714,-2.669" />
    <path id="pi-218" d="M -12.709,-1.189 L -12.709,-1.189" />
    <path id="pi-219" d="M -9.148,-1.222 L -9.148,-1.222" />
    <path id="pi-220" d="M -9.148,-1.237 L -9.148,-1.346" />
    <path id="pi-221" d="M -9.341,5.731 L -9.341,5.666" />
    <path id="pi-222" d="M -9.544,5.731 L -9.544,5.637" />
    <path id="pi-223" d="M -8.814,-1.36 L -9.266,-1.36" />
    <path id="pi-224" d="M -9.631,-1.36 L -9.631,-1.36" />
    <path id="pi-225" d="M -12.709,0.445 L -12.709,-1.34" />
    <path id="pi-226" d="M -9.165,3.646 L -9.165,2.57" />
    <path id="pi-227" d="M -4.175,2.621 L -4.175,3.266" />
    <path id="pi-228" d="M 10.046,4.256 L 10.046,2.621" />
    <path id="pi-229" d="M -11.298,-3.248 L -11.298,-3.351" />
    <path id="pi-230" d="M -11.278,-3.372 L -10.48,-3.372" />
    <path id="pi-231" d="M -10.46,-3.248 L -10.46,-3.351" />
    <path id="pi-232" d="M -9.443,-2.648 L -9.443,-2.684" />
    <path id="pi-233" d="M -9.443,-2.699 L -9.443,-2.699" />
    <path id="pi-234" d="M -8.665,-2.445 L -8.779,-2.445" />
    <path id="pi-235" d="M -12.709,-1.129 L -12.709,-1.129" />
    <path id="pi-236" d="M -12.662,-2.181 L -12.688,-2.181" />
    <path id="pi-237" d="M -12.709,-2.161 L -12.709,-1.713" />
    <path id="pi-238" d="M 3.462,-2.159 L 3.462,-1.614" />
    <path id="pi-239" d="M 3.462,-2.602 L 3.462,-1.678" />
    <path id="pi-240" d="M 3.462,-1.663 L 3.462,-1.663" />
    <path id="pi-241" d="M 3.462,-1.6 L 3.462,-1.6" />
    <path id="pi-242" d="M 4.011,-3.157 L 3.466,-2.612" />
    <path id="pi-243" d="M 4.036,-3.182 L 3.466,-2.612" />
    <path id="pi-244" d="M -12.335,-3.113 L -12.335,-3.372" />
    <path id="pi-245" d="M -12.339,-3.103 L -12.688,-2.753" />
    <path id="pi-246" d="M -12.698,-2.729 L -12.698,-2.599" />
    <path id="pi-247" d="M -12.698,-2.743 L -12.698,-2.743" />
    <path id="pi-248" d="M -12.703,-2.588 L -12.778,-2.513" />
    <path id="pi-249" d="M -12.782,-1.129 L -12.782,-1.129" />
    <path id="pi-250" d="M -12.723,-1.129 L -12.768,-1.129" />
    <path id="pi-251" d="M -12.782,-2.503 L -12.782,-2.202" />
    <path id="pi-252" d="M -8.93,3.389 L -8.93,3.389" />
    <path id="pi-253" d="M -8.93,3.237 L -8.93,3.237" />
    <path id="pi-254" d="M -9.165,3.667 L -9.165,3.667" />
    <path id="pi-255" d="M -9.155,3.646 L -9.155,3.41" />
    <path id="pi-256" d="M -9.155,3.389 L -9.155,3.389" />
    <path id="pi-257" d="M -8.95,3.389 L -9.134,3.389" />
    <path id="pi-258" d="M -8.969,3.667 L -8.969,3.667" />
    <path id="pi-259" d="M -8.969,3.667 L -8.969,3.667" />
    <path id="pi-260" d="M -8.99,3.667 L -9.144,3.667" />
    <path id="pi-261" d="M -8.99,3.667 L -9.134,3.667" />
    <path id="pi-262" d="M -9.155,3.355 L -9.155,3.302" />
    <path id="pi-263" d="M -9.155,3.389 L -9.155,3.389" />
    <path id="pi-264" d="M -9.155,3.288 L -9.155,3.288" />
    <path id="pi-265" d="M -9.155,3.267 L -9.155,2.772" />
    <path id="pi-266" d="M -9.155,3.308 L -9.155,3.608" />
    <path id="pi-267" d="M -9.155,3.216 L -9.155,2.772" />
    <path id="pi-268" d="M -9.155,3.832 L -9.155,3.832" />
    <path id="pi-269" d="M -8.944,3.237 L -9.093,3.237" />
    <path id="pi-270" d="M -9.107,3.237 L -9.107,3.237" />
    <path id="pi-271" d="M -9.134,3.237 L -9.122,3.237" />
    <path id="pi-272" d="M -9.155,3.812 L -9.155,3.258" />
    <path id="pi-273" d="M -11.536,2.757 L -11.986,2.757" />
    <path id="pi-274" d="M -12.015,3.355 L -12.051,3.355" />
    <path id="pi-275" d="M -12.001,3.355 L -12.001,3.355" />
    <path id="pi-276" d="M -12.001,3.401 L -12.001,2.772" />
    <path id="pi-277" d="M -11.435,2.757 L -12.051,2.757" />
    <path id="pi-278" d="M -12.065,2.757 L -12.065,2.757" />
    <path id="pi-279" d="M -12.065,2.772 L -12.065,3.341" />
    <path id="pi-280" d="M -11.414,3.713 L -11.414,3.672" />
    <path id="pi-281" d="M -11.414,3.643 L -11.414,2.731" />
    <path id="pi-282" d="M -11.414,3.658 L -11.414,3.658" />
    <path id="pi-283" d="M -11.516,3.713 L -11.516,3.672" />
    <path id="pi-284" d="M -11.516,3.643 L -11.516,2.731" />
    <path id="pi-285" d="M -11.516,3.658 L -11.516,3.658" />
    <path id="pi-286" d="M -11.516,2.716 L -11.516,2.716" />
    <path id="pi-287" d="M -11.414,2.716 L -11.414,2.716" />
    <path id="pi-288" d="M -11.516,2.737 L -11.516,2.731" />
    <path id="pi-289" d="M -11.414,2.737 L -11.414,2.731" />
    <path id="pi-290" d="M -9.169,2.757 L -11.393,2.757" />
    <path id="pi-291" d="M -9.169,2.757 L -11.495,2.757" />
    <path id="pi-292" d="M -12.021,3.416 L -12.05,3.416" />
    <path id="pi-293" d="M -12.001,3.416 L -12.001,3.416" />
    <path id="pi-294" d="M -12.001,3.416 L -12.001,3.416" />
    <path id="pi-295" d="M -12.064,4.948 L -12.064,3.43" />
    <path id="pi-296" d="M -11.922,4.963 L -12.05,4.963" />
    <path id="pi-297" d="M -12.064,4.963 L -12.064,4.963" />
    <path id="pi-298" d="M -9.53,5.623 L -9.139,5.623" />
    <path id="pi-299" d="M -9.125,5.623 L -9.125,5.623" />
    <path id="pi-300" d="M -9.125,5.609 L -9.125,4.154" />
    <path id="pi-301" d="M -9.327,5.652 L -9.111,5.652" />
    <path id="pi-302" d="M -9.096,5.652 L -9.096,5.652" />
    <path id="pi-303" d="M -9.096,5.637 L -9.096,4.154" />
    <path id="pi-304" d="M -9.096,4.14 L -9.096,4.14" />
    <path id="pi-305" d="M -9.125,4.14 L -9.125,4.14" />
    <path id="pi-306" d="M -9.155,3.853 L -9.155,3.974" />
    <path id="pi-307" d="M -9.155,3.65 L -9.155,3.739" />
    <path id="pi-308" d="M -9.159,3.749 L -9.166,3.756" />
    <path id="pi-309" d="M -9.176,3.781 L -9.176,3.995" />
    <path id="pi-310" d="M -9.176,3.766 L -9.176,3.766" />
    <path id="pi-311" d="M -9.129,4.049 L -9.172,4.005" />
    <path id="pi-312" d="M -9.151,3.984 L -9.101,4.034" />
    <path id="pi-313" d="M -9.096,4.045 L -9.096,4.126" />
    <path id="pi-314" d="M -9.125,4.059 L -9.125,4.126" />
    <path id="pi-315" d="M -1.492,4.212 L -1.492,4.212" />
    <path id="pi-316" d="M -1.492,4.286 L -1.492,4.901" />
    <path id="pi-317" d="M -1.492,4.272 L -1.492,4.272" />
    <path id="pi-318" d="M -1.492,4.901 L -1.492,4.226" />
    <path id="pi-319" d="M -4.099,3.534 L -4.154,3.534" />
    <path id="pi-320" d="M -4.358,3.637 L -4.358,3.637" />
    <path id="pi-321" d="M -4.099,3.331 L -4.161,3.331" />
    <path id="pi-322" d="M -4.358,3.79 L -4.358,3.79" />
    <path id="pi-323" d="M -4.343,3.637 L -4.189,3.637" />
    <path id="pi-324" d="M -4.189,3.79 L -4.343,3.79" />
    <path id="pi-325" d="M -4.175,3.331 L -4.175,3.331" />
    <path id="pi-326" d="M -4.175,3.345 L -4.175,3.776" />
    <path id="pi-327" d="M -4.175,3.554 L -4.175,3.623" />
    <path id="pi-328" d="M -4.175,3.637 L -4.175,3.637" />
    <path id="pi-329" d="M -4.175,3.513 L -4.175,3.439" />
    <path id="pi-330" d="M -4.175,3.266 L -4.175,2.759" />
    <path id="pi-331" d="M -4.175,3.424 L -4.175,3.424" />
    <path id="pi-332" d="M -4.161,2.745 L -1.507,2.745" />
    <path id="pi-333" d="M -1.507,3.407 L -1.613,3.407" />
    <path id="pi-334" d="M -1.492,3.407 L -1.492,3.407" />
    <path id="pi-335" d="M -1.492,3.392 L -1.492,2.759" />
    <path id="pi-336" d="M -1.496,4.911 L -1.564,4.979" />
    <path id="pi-337" d="M -1.568,5.693 L -1.568,4.989" />
    <path id="pi-338" d="M -2.838,5.75 L -2.799,5.711" />
    <path id="pi-339" d="M -2.848,5.76 L -2.848,5.76" />
    <path id="pi-340" d="M -2.015,5.707 L -1.583,5.707" />
    <path id="pi-341" d="M -1.568,5.693 L -1.568,4.989" />
    <path id="pi-342" d="M -1.496,4.911 L -1.564,4.979" />
    <path id="pi-343" d="M -2.035,5.729 L -2.035,5.68" />
    <path id="pi-344" d="M -2.789,5.707 L -2.157,5.707" />
    <path id="pi-345" d="M -2.137,5.707 L -2.137,5.707" />
    <path id="pi-346" d="M -2.137,5.693 L -2.137,5.68" />
    <path id="pi-347" d="M -2.116,5.707 L -1.583,5.707" />
    <path id="pi-348" d="M -2.035,5.744 L -2.035,5.744" />
    <path id="pi-349" d="M -2.035,5.721 L -2.035,5.739" />
    <path id="pi-350" d="M -3.037,5.707 L -2.056,5.707" />
    <path id="pi-351" d="M -1.521,4.272 L -1.521,4.272" />
    <path id="pi-352" d="M -1.517,4.272 L -1.496,4.272" />
    <path id="pi-353" d="M -1.521,4.212 L -1.521,4.212" />
    <path id="pi-354" d="M -1.517,4.212 L -1.496,4.212" />
    <path id="pi-355" d="M -2.086,5.217 L -2.086,5.216" />
    <path id="pi-356" d="M -2.082,5.448 L -2.083,5.359" />
    <path id="pi-357" d="M -4.175,3.286 L -4.175,3.286" />
    <path id="pi-358" d="M -4.302,3.286 L -4.302,3.286" />
    <path id="pi-359" d="M -4.302,3.286 L -4.302,3.286" />
    <path id="pi-360" d="M -4.175,3.286 L -4.175,3.286" />
    <path id="pi-361" d="M -4.196,3.286 L -4.281,3.286" />
    <path id="pi-362" d="M -4.196,3.286 L -4.281,3.286" />
    <path id="pi-363" d="M -2.848,5.858 L -2.848,5.774" />
    <path id="pi-364" d="M -3.051,5.858 L -3.051,5.721" />
    <path id="pi-365" d="M -4.175,3.41 L -4.175,3.307" />
    <path id="pi-366" d="M 6.054,5.823 L 5.972,5.823" />
    <path id="pi-367" d="M 6.047,6.026 L 5.972,6.026" />
    <path id="pi-368" d="M 7.448,6.094 L 7.448,6.672" />
    <path id="pi-369" d="M 7.849,6.686 L 7.588,6.686" />
    <path id="pi-370" d="M 6.068,5.844 L 6.068,6.014" />
    <path id="pi-371" d="M 6.072,6.024 L 6.123,6.076" />
    <path id="pi-372" d="M 6.77,6.08 L 7.46,6.08" />
    <path id="pi-373" d="M 7.474,6.094 L 7.474,6.645" />
    <path id="pi-374" d="M 6.068,5.823 L 6.068,5.823" />
    <path id="pi-375" d="M 6.068,4.667 L 6.068,5.802" />
    <path id="pi-376" d="M 7.488,6.659 L 7.561,6.659" />
    <path id="pi-377" d="M 7.575,6.659 L 7.575,6.659" />
    <path id="pi-378" d="M 8.072,6.659 L 8.072,6.659" />
    <path id="pi-379" d="M 7.59,6.659 L 8.052,6.659" />
    <path id="pi-380" d="M 8.911,6.659 L 8.911,6.659" />
    <path id="pi-381" d="M 8.093,6.659 L 8.89,6.659" />
    <path id="pi-382" d="M 7.56,6.686 L 7.463,6.686" />
    <path id="pi-383" d="M 7.574,6.686 L 7.574,6.686" />
    <path id="pi-384" d="M 7.869,6.686 L 7.869,6.686" />
    <path id="pi-385" d="M 8.687,6.686 L 7.89,6.686" />
    <path id="pi-386" d="M 8.707,6.686 L 8.707,6.686" />
    <path id="pi-387" d="M 8.728,6.686 L 10.082,6.686" />
    <path id="pi-388" d="M 8.931,6.659 L 10.082,6.659" />
    <path id="pi-389" d="M 10.097,6.645 L 10.097,5.607" />
    <path id="pi-390" d="M 10.097,6.672 L 10.097,5.659" />
    <path id="pi-391" d="M 10.097,5.645 L 10.097,5.645" />
    <path id="pi-392" d="M 10.097,5.631 L 10.097,4.72" />
    <path id="pi-393" d="M 10.097,4.705 L 10.097,4.705" />
    <path id="pi-394" d="M 10.097,5.593 L 10.097,5.593" />
    <path id="pi-395" d="M 10.097,5.578 L 10.097,4.769" />
    <path id="pi-396" d="M 10.097,4.754 L 10.097,4.754" />
    <path id="pi-397" d="M 10.097,4.691 L 10.097,4.553" />
    <path id="pi-398" d="M 10.097,4.74 L 10.097,4.493" />
    <path id="pi-399" d="M 10.097,4.478 L 10.097,4.478" />
    <path id="pi-400" d="M 10.046,4.478 L 10.046,4.478" />
    <path id="pi-401" d="M 10.05,4.478 L 10.092,4.478" />
    <path id="pi-402" d="M 10.082,4.539 L 10.06,4.539" />
    <path id="pi-403" d="M 10.046,4.539 L 10.046,4.539" />
    <path id="pi-404" d="M 10.082,5.493 L 9.969,5.493" />
    <path id="pi-405" d="M 10.097,5.508 L 10.097,5.572" />
    <path id="pi-406" d="M 10.097,5.593 L 10.097,5.593" />
    <path id="pi-407" d="M 6.647,6.023 L 6.647,6.023" />
    <path id="pi-408" d="M 6.668,6.08 L 7.434,6.08" />
    <path id="pi-409" d="M 6.082,6.08 L 6.627,6.08" />
    <path id="pi-410" d="M 6.647,6.059 L 6.647,6.037" />
    <path id="pi-411" d="M 6.469,4.501 L 6.469,4.501" />
    <path id="pi-412" d="M 6.317,4.501 L 6.317,4.501" />
    <path id="pi-413" d="M 6.068,6.006 L 6.068,5.928" />
    <path id="pi-414" d="M 6.068,5.899 L 6.068,4.64" />
    <path id="pi-415" d="M 6.068,5.913 L 6.068,5.913" />
    <path id="pi-416" d="M 6.082,4.626 L 6.302,4.626" />
    <path id="pi-417" d="M 6.317,4.626 L 6.317,4.626" />
    <path id="pi-418" d="M 6.317,4.612 L 6.317,4.515" />
    <path id="pi-419" d="M 6.825,4.653 L 6.49,4.653" />
    <path id="pi-420" d="M 6.469,4.522 L 6.469,4.531" />
    <path id="pi-421" d="M 6.469,4.653 L 6.469,4.653" />
    <path id="pi-422" d="M 6.068,4.653 L 6.068,4.653" />
    <path id="pi-423" d="M 6.469,4.551 L 6.469,4.551" />
    <path id="pi-424" d="M 6.469,4.551 L 6.469,4.551" />
    <path id="pi-425" d="M 6.469,4.572 L 6.469,4.632" />
    <path id="pi-426" d="M 6.469,4.551 L 6.469,4.551" />
    <path id="pi-427" d="M 6.082,4.653 L 6.455,4.653" />
    <path id="pi-428" d="M 6.469,4.632 L 6.469,4.578" />
    <path id="pi-429" d="M 8.911,6.593 L 8.911,6.645" />
    <path id="pi-430" d="M 8.707,6.672 L 8.708,6.593" />
    <path id="pi-431" d="M 8.072,6.593 L 8.072,6.645" />
    <path id="pi-432" d="M 7.869,6.593 L 7.869,6.672" />
    <path id="pi-433" d="M 6.068,6.066 L 6.068,6.047" />
    <path id="pi-434" d="M 10.025,4.277 L 6.866,4.277" />
    <path id="pi-435" d="M 6.845,4.632 L 6.845,4.297" />
    <path id="pi-436" d="M 6.845,4.653 L 6.845,4.653" />
    <path id="pi-437" d="M 6.647,5.94 L 6.647,6.009" />
    <path id="pi-438" d="M 6.749,5.94 L 6.749,6.066" />
    <path id="pi-439" d="M 6.749,6.08 L 6.749,6.08" />
    <path id="pi-440" d="M 6.134,6.08 L 6.728,6.08" />
    <path id="pi-441" d="M 3.462,-2.602 L 3.462,-2.2" />
    <path id="pi-442" d="M -9.61,-1.36 L -9.327,-1.36" />
    <path id="pi-443" d="M -9.631,-1.262 L -9.631,-1.262" />
    <path id="pi-444" d="M -9.631,-1.36 L -9.631,-1.36" />
    <path id="pi-445" d="M -9.631,-1.262 L -9.631,-1.262" />
    <path id="pi-446" d="M -9.631,-1.34 L -9.631,-1.282" />
    <path id="pi-447" d="M -9.631,-1.34 L -9.631,-1.282" />
    <path id="pi-448" d="M -9.3,-1.346 L -9.3,-1.237" />
    <path id="pi-449" d="M -9.3,-1.222 L -9.3,-1.222" />
    <path id="pi-450" d="M -9.3,-1.36 L -9.3,-1.36" />
    <path id="pi-451" d="M -11.319,-3.372 L -12.415,-3.372" />
    <path id="pi-452" d="M -12.429,-3.358 L -12.429,-3.175" />
    <path id="pi-453" d="M -12.439,-3.151 L -12.699,-2.891" />
    <path id="pi-454" d="M -12.429,-3.161 L -12.429,-3.161" />
    <path id="pi-455" d="M -12.709,-2.867 L -12.709,-2.202" />
    <path id="pi-456" d="M -12.709,-2.881 L -12.709,-2.881" />
    <path id="pi-457" d="M -11.116,-3.34 L -12.364,-3.34" />
    <path id="pi-458" d="M -12.378,-3.326 L -12.378,-3.154" />
    <path id="pi-459" d="M -12.388,-3.13 L -12.735,-2.783" />
    <path id="pi-460" d="M -12.378,-3.14 L -12.378,-3.14" />
    <path id="pi-461" d="M -12.745,-2.759 L -12.745,-1.67" />
    <path id="pi-462" d="M -12.745,-2.773 L -12.745,-2.773" />
    <path id="pi-463" d="M -12.709,-1.699 L -12.709,-1.699" />
    <path id="pi-464" d="M -12.709,-1.684 L -12.709,-1.143" />
    <path id="pi-465" d="M -12.745,-1.656 L -12.745,-1.656" />
    <path id="pi-466" d="M -12.745,-1.641 L -12.745,-1.203" />
    <path id="pi-467" d="M -12.731,-1.189 L -12.723,-1.189" />
    <path id="pi-468" d="M -12.709,0.92 L -12.709,0.589" />
    <path id="pi-469" d="M -12.709,2.478 L -12.709,1.064" />
    <path id="pi-470" d="M -12.709,1.05 L -12.709,0.935" />
    <path id="pi-471" d="M -12.709,0.459 L -12.709,0.574" />
    <path id="pi-472" d="M -2.95,5.763 L -2.95,5.763" />
    <path id="pi-473" d="M -2.929,5.742 L -2.867,5.68" />
    <path id="pi-474" d="M -6.079,2.499 L -6.266,2.499" />
    <path id="pi-475" d="M -6.025,2.499 L -6.064,2.499" />
    <path id="pi-476" d="M -6.28,2.499 L -6.319,2.499" />
    <path id="pi-477" d="M -6.079,2.55 L -6.266,2.55" />
    <path id="pi-478" d="M -6.025,2.55 L -6.064,2.55" />
    <path id="pi-479" d="M -6.28,2.55 L -6.319,2.55" />
    <path id="pi-480" d="M -4.528,2.55 L -4.758,2.55" />
    <path id="pi-481" d="M -4.449,2.55 L -4.513,2.55" />
    <path id="pi-482" d="M -4.772,2.55 L -4.836,2.55" />
    <path id="pi-483" d="M -4.528,2.499 L -4.758,2.499" />
    <path id="pi-484" d="M -4.449,2.499 L -4.513,2.499" />
    <path id="pi-485" d="M -4.772,2.499 L -4.836,2.499" />
    <path id="pi-486" d="M -8.567,2.55 L -8.796,2.55" />
    <path id="pi-487" d="M -8.488,2.55 L -8.552,2.55" />
    <path id="pi-488" d="M -8.811,2.55 L -8.875,2.55" />
    <path id="pi-489" d="M -8.567,2.499 L -8.796,2.499" />
    <path id="pi-490" d="M -8.488,2.499 L -8.552,2.499" />
    <path id="pi-491" d="M -8.875,2.499 L -8.811,2.499" />
    <path id="pi-492" d="M 6.064,5.925 L 6.064,5.925" />
  </g>
</svg>