<?xml version="1.0" encoding="utf-8"?>
<svg xmlns="http://www.w3.org/2000/svg" viewBox="-34.193 -15.225 50.752 24.636">
  <g transform="scale(1,-1)">
    <polygon id="sl-108" points="-32.099,7.861 -33.217,7.861 -33.217,6.013 -30.677,6.013 -30.677,7.83 -31.794,7.83 -31.794,7.296 -32.099,7.296" />
    <polygon id="sl-109" points="-8.401,2.823 -8.401,6.353 -11.922,6.353 -11.922,2.823" />
    <polygon id="sl-110" points="-13.735,8.039 -14.853,8.039 -14.853,6.013 -13.475,6.013 -12.459,6.013 -12.313,6.013 -12.313,7.633 -13.437,7.633 -13.735,7.633" />
    <polygon id="sl-111" points="-14.961,6.007 -14.961,2.896 -14.961,0.714 -14.945,0.714 -6.321,0.714 -6.29,0.714 -6.29,0.603 -6.023,0.603 -5.871,0.603 -5.845,0.603 -5.845,0.578 -4.677,0.578 -4.677,0.603 -4.651,0.603 -4.499,0.603 -4.499,0.527 -4.245,0.527 -4.245,0.171 -3.635,0.171 -3.635,0.527 0.787,0.527 0.787,0.714 0.943,0.714 1.241,0.714 1.397,0.714 6.985,0.714 7.595,0.714 12.189,0.714 12.421,0.714 12.87,0.714 13.886,0.714 15.583,0.714 15.583,0.876 15.583,2.715 15.583,2.791 12.722,2.791 12.456,2.791 12.424,2.791 2.842,2.791 2.842,7.196 1.21,7.196 1.194,7.196 1.194,6.007 0.94,6.007 0.286,6.007 -0.946,6.007 -1.568,6.007 -1.568,5.753 -1.568,2.791 -1.597,2.791 -4.099,2.791 -6.023,2.791 -6.055,2.791 -6.29,2.791 -6.321,2.791 -9.188,2.791 -12.106,2.791 -12.106,5.702 -12.106,6.007 -12.459,6.007 -13.475,6.007 -14.859,6.007" />
    <polygon id="sl-112" points="14.154,-1.232 15.272,-1.232 15.272,0.565 13.894,0.565 12.878,0.565 12.732,0.565 12.732,-0.921 13.849,-0.921 13.849,-0.692 14.154,-0.692" />
    <polygon id="sl-113" points="3.989,14.249 2.74,14.249 2.74,13.03 5.28,13.03 5.28,14.249" />
    <polygon id="sl-114" points="-1.918,6.471 -4.788,6.471 -4.788,5.988 -4.788,5.721 -4.788,2.823 -4.788,2.791 -1.629,2.791 -1.568,2.791 -1.568,5.69 -1.918,5.69" />
    <polygon id="sl-115" points="10.69,3.997 10.69,5.715 10.69,5.982 10.69,6.956 5.42,6.956 5.42,3.997" />
    <polygon id="sl-116" points="-8.112,-3.578 -8.112,-0.645 -13.383,-0.645 -13.383,-3.578" />
    <polygon id="sl-117" points="-9.188,2.791 -6.29,2.791 -6.29,12.71 -6.29,12.725 -12.002,12.725 -12.002,12.71 -12.002,5.582 -9.188,5.582" />
    <polygon id="sl-118" points="-12.002,2.791 -9.188,2.791 -9.188,5.582 -12.002,5.582" />
    <polygon id="sl-119" points="-6.055,2.791 -4.099,2.791 -4.099,4.175 -4.607,4.175 -4.607,5.69 -1.854,5.69 -1.854,8.522 0.975,8.522 0.975,12.71 0.975,12.725 -6.055,12.725 -6.055,12.71" />
    <polygon id="sl-120" points="-4.099,2.791 -1.597,2.791 -1.597,5.69 -1.854,5.69 -4.607,5.69 -4.607,4.175 -4.099,4.175" />
    <polygon id="sl-121" points="12.456,2.791 12.456,12.71 12.456,12.725 3.883,12.725 2.867,12.725 1.21,12.725 1.21,12.71 1.21,7.196 2.842,7.196 2.842,2.791" />
    <polygon id="sl-122" points="6.14,6.102 6.14,4.607 7.087,4.607 7.087,4.058 9.97,4.058 9.97,6.617 7.404,6.617 7.404,6.102" />
    <polygon id="sl-123" points="-14.961,-8.435 -14.804,-8.435 -6.321,-8.435 -6.29,-8.435 -6.29,0.603 -6.29,0.714 -14.961,0.714" />
    <polygon id="sl-124" points="-12.662,-3.264 -9.871,-3.264 -9.871,-2.657 -8.68,-2.657 -8.68,-1.314 -9.871,-1.314 -9.871,-0.705 -12.662,-0.705" />
  </g>
</svg>