<?xml version="1.0" encoding="utf-8"?>
<svg xmlns="http://www.w3.org/2000/svg" viewBox="-34.456 -14.263 56.321 24.389">
  <g transform="scale(1,-1)">
    <rect id="tm-265" x="-8.561" y="-3.408" width="0.3" height="0.3" transform="rotate(90,-8.411,-3.258)" />
    <rect id="tm-266" x="-8.561" y="-2.112" width="0.3" height="0.3" transform="rotate(90,-8.411,-1.962)" />
    <rect id="tm-267" x="-8.561" y="-2.76" width="0.3" height="0.3" transform="rotate(90,-8.411,-2.61)" />
    <rect id="tm-268" x="-14.25" y="-4.446" width="0.3" height="0.3" transform="rotate(180,-14.1,-4.296)" />
    <rect id="tm-269" x="-14.25" y="-2.261" width="0.3" height="0.3" transform="rotate(180,-14.1,-2.111)" />
    <rect id="tm-270" x="-14.25" y="-0.077" width="0.3" height="0.3" transform="rotate(180,-14.1,0.073)" />
    <rect id="tm-271" x="-10.897" y="-0.077" width="0.3" height="0.3" transform="rotate(180,-10.747,0.073)" />
    <rect id="tm-272" x="-10.897" y="-4.446" width="0.3" height="0.3" transform="rotate(180,-10.747,-4.296)" />
    <rect id="tm-273" x="-7.538" y="-4.446" width="0.3" height="0.3" transform="rotate(180,-7.388,-4.296)" />
    <rect id="tm-274" x="-7.538" y="-2.261" width="0.3" height="0.3" transform="rotate(180,-7.388,-2.111)" />
    <rect id="tm-275" x="-7.538" y="-0.077" width="0.3" height="0.3" transform="rotate(180,-7.388,0.073)" />
    <rect id="tm-276" x="-9.091" y="1.603" width="0.3" height="0.3" />
    <rect id="tm-277" x="-2.69" y="1.603" width="0.3" height="0.3" />
    <rect id="tm-278" x="3.711" y="1.603" width="0.3" height="0.3" />
    <rect id="tm-279" x="10.112" y="1.603" width="0.3" height="0.3" />
    <rect id="tm-280" x="-0.385" y="4.02" width="0.3" height="0.3" transform="rotate(180,-0.235,4.17)" />
    <rect id="tm-281" x="-29.255" y="11.991" width="0.3" height="0.3" transform="rotate(180,-29.105,12.141)" />
    <rect id="tm-282" x="-26.426" y="11.991" width="0.3" height="0.3" transform="rotate(180,-26.276,12.141)" />
    <rect id="tm-283" x="-24.344" y="11.991" width="0.3" height="0.3" transform="rotate(180,-24.194,12.141)" />
    <rect id="tm-284" x="-22.261" y="11.991" width="0.3" height="0.3" transform="rotate(180,-22.111,12.141)" />
    <rect id="tm-285" x="-19.568" y="11.991" width="0.3" height="0.3" transform="rotate(180,-19.418,12.141)" />
    <rect id="tm-286" x="-26.804" y="8.981" width="0.3" height="0.3" transform="rotate(180,-26.654,9.131)" />
    <rect id="tm-287" x="-29.13" y="6.565" width="0.3" height="0.3" transform="rotate(180,-28.98,6.715)" />
    <rect id="tm-288" x="-26.082" y="6.525" width="0.3" height="0.3" transform="rotate(180,-25.932,6.675)" />
    <rect id="tm-289" x="-23.034" y="6.525" width="0.3" height="0.3" transform="rotate(180,-22.884,6.675)" />
    <rect id="tm-290" x="-19.986" y="6.525" width="0.3" height="0.3" transform="rotate(180,-19.836,6.675)" />
    <rect id="tm-291" x="-23.756" y="8.981" width="0.3" height="0.3" transform="rotate(180,-23.606,9.131)" />
    <rect id="tm-292" x="-20.708" y="8.981" width="0.3" height="0.3" transform="rotate(180,-20.558,9.131)" />
    <rect id="tm-293" x="-10.548" y="7.226" width="0.3" height="0.3" transform="rotate(180,-10.398,7.376)" />
    <rect id="tm-294" x="-7.538" y="4.501" width="0.3" height="0.3" transform="rotate(180,-7.388,4.651)" />
    <rect id="tm-295" x="-7.538" y="7.226" width="0.3" height="0.3" transform="rotate(180,-7.388,7.376)" />
    <rect id="tm-296" x="11.258" y="7.492" width="0.3" height="0.3" transform="rotate(180,11.408,7.642)" />
    <rect id="tm-297" x="11.258" y="5.308" width="0.3" height="0.3" transform="rotate(180,11.408,5.458)" />
    <rect id="tm-298" x="11.258" y="3.123" width="0.3" height="0.3" transform="rotate(180,11.408,3.273)" />
    <rect id="tm-299" x="7.905" y="3.123" width="0.3" height="0.3" transform="rotate(180,8.055,3.273)" />
    <rect id="tm-300" x="7.905" y="7.492" width="0.3" height="0.3" transform="rotate(180,8.055,7.642)" />
    <rect id="tm-301" x="4.546" y="7.492" width="0.3" height="0.3" transform="rotate(180,4.696,7.642)" />
    <rect id="tm-302" x="4.546" y="5.308" width="0.3" height="0.3" transform="rotate(180,4.696,5.458)" />
    <rect id="tm-303" x="4.546" y="3.123" width="0.3" height="0.3" transform="rotate(180,4.696,3.273)" />
    <rect id="tm-304" x="5.568" y="5.176" width="0.3" height="0.3" transform="rotate(90,5.718,5.326)" />
    <rect id="tm-305" x="5.568" y="6.471" width="0.3" height="0.3" transform="rotate(90,5.718,6.621)" />
    <rect id="tm-306" x="5.568" y="5.824" width="0.3" height="0.3" transform="rotate(90,5.718,5.974)" />
    <rect id="tm-307" x="-8.869" y="5.854" width="0.3" height="0.3" transform="rotate(180,-8.719,6.004)" />
    <rect id="tm-308" x="-10.164" y="5.854" width="0.3" height="0.3" transform="rotate(180,-10.014,6.004)" />
    <rect id="tm-309" x="-9.516" y="5.854" width="0.3" height="0.3" transform="rotate(180,-9.366,6.004)" />
    <rect id="tm-310" x="-2.388" y="5.962" width="0.3" height="0.3" transform="rotate(180,-2.238,6.112)" />
    <rect id="tm-311" x="-3.684" y="5.962" width="0.3" height="0.3" transform="rotate(180,-3.534,6.112)" />
    <rect id="tm-312" x="-3.036" y="5.962" width="0.3" height="0.3" transform="rotate(180,-2.886,6.112)" />
    <rect id="tm-313" x="-5.411" y="7.226" width="0.3" height="0.3" transform="rotate(180,-5.261,7.376)" />
    <rect id="tm-314" x="-3.315" y="7.226" width="0.3" height="0.3" transform="rotate(180,-3.165,7.376)" />
    <rect id="tm-315" x="-5.411" y="4.501" width="0.3" height="0.3" transform="rotate(180,-5.261,4.651)" />
    <rect id="tm-316" x="-10.548" y="7.226" width="0.3" height="0.3" transform="rotate(180,-10.398,7.376)" />
    <rect id="tm-317" x="-7.538" y="4.501" width="0.3" height="0.3" transform="rotate(180,-7.388,4.651)" />
    <rect id="tm-318" x="-7.538" y="7.226" width="0.3" height="0.3" transform="rotate(180,-7.388,7.376)" />
    <rect id="tm-319" x="11.258" y="7.492" width="0.3" height="0.3" transform="rotate(180,11.408,7.642)" />
    <rect id="tm-320" x="11.258" y="5.308" width="0.3" height="0.3" transform="rotate(180,11.408,5.458)" />
    <rect id="tm-321" x="11.258" y="3.123" width="0.3" height="0.3" transform="rotate(180,11.408,3.273)" />
    <rect id="tm-322" x="7.905" y="3.123" width="0.3" height="0.3" transform="rotate(180,8.055,3.273)" />
    <rect id="tm-323" x="7.905" y="7.492" width="0.3" height="0.3" transform="rotate(180,8.055,7.642)" />
    <rect id="tm-324" x="4.546" y="7.492" width="0.3" height="0.3" transform="rotate(180,4.696,7.642)" />
    <rect id="tm-325" x="4.546" y="5.308" width="0.3" height="0.3" transform="rotate(180,4.696,5.458)" />
    <rect id="tm-326" x="4.546" y="3.123" width="0.3" height="0.3" transform="rotate(180,4.696,3.273)" />
    <rect id="tm-327" x="-10.548" y="7.226" width="0.3" height="0.3" transform="rotate(180,-10.398,7.376)" />
    <rect id="tm-328" x="-7.538" y="4.501" width="0.3" height="0.3" transform="rotate(180,-7.388,4.651)" />
    <rect id="tm-329" x="-7.538" y="7.226" width="0.3" height="0.3" transform="rotate(180,-7.388,7.376)" />
    <rect id="tm-330" x="11.258" y="7.492" width="0.3" height="0.3" transform="rotate(180,11.408,7.642)" />
    <rect id="tm-331" x="11.258" y="5.308" width="0.3" height="0.3" transform="rotate(180,11.408,5.458)" />
    <rect id="tm-332" x="11.258" y="3.123" width="0.3" height="0.3" transform="rotate(180,11.408,3.273)" />
    <rect id="tm-333" x="7.905" y="3.123" width="0.3" height="0.3" transform="rotate(180,8.055,3.273)" />
    <rect id="tm-334" x="7.905" y="7.492" width="0.3" height="0.3" transform="rotate(180,8.055,7.642)" />
    <rect id="tm-335" x="4.546" y="7.492" width="0.3" height="0.3" transform="rotate(180,4.696,7.642)" />
    <rect id="tm-336" x="4.546" y="5.308" width="0.3" height="0.3" transform="rotate(180,4.696,5.458)" />
    <rect id="tm-337" x="4.546" y="3.123" width="0.3" height="0.3" transform="rotate(180,4.696,3.273)" />
    <rect id="tm-338" x="-5.411" y="7.226" width="0.3" height="0.3" transform="rotate(180,-5.261,7.376)" />
    <rect id="tm-339" x="-3.315" y="7.226" width="0.3" height="0.3" transform="rotate(180,-3.165,7.376)" />
    <rect id="tm-340" x="-5.411" y="4.501" width="0.3" height="0.3" transform="rotate(180,-5.261,4.651)" />
    <rect id="tm-341" x="-10.548" y="7.226" width="0.3" height="0.3" transform="rotate(180,-10.398,7.376)" />
    <rect id="tm-342" x="-7.538" y="4.501" width="0.3" height="0.3" transform="rotate(180,-7.388,4.651)" />
    <rect id="tm-343" x="-7.538" y="7.226" width="0.3" height="0.3" transform="rotate(180,-7.388,7.376)" />
    <rect id="tm-344" x="11.258" y="7.492" width="0.3" height="0.3" transform="rotate(180,11.408,7.642)" />
    <rect id="tm-345" x="11.258" y="5.308" width="0.3" height="0.3" transform="rotate(180,11.408,5.458)" />
    <rect id="tm-346" x="11.258" y="3.123" width="0.3" height="0.3" transform="rotate(180,11.408,3.273)" />
    <rect id="tm-347" x="7.905" y="3.123" width="0.3" height="0.3" transform="rotate(180,8.055,3.273)" />
    <rect id="tm-348" x="7.905" y="7.492" width="0.3" height="0.3" transform="rotate(180,8.055,7.642)" />
    <rect id="tm-349" x="4.546" y="7.492" width="0.3" height="0.3" transform="rotate(180,4.696,7.642)" />
    <rect id="tm-350" x="4.546" y="5.308" width="0.3" height="0.3" transform="rotate(180,4.696,5.458)" />
    <rect id="tm-351" x="4.546" y="3.123" width="0.3" height="0.3" transform="rotate(180,4.696,3.273)" />
    <rect id="tm-352" x="1.83" y="4.993" width="0.3" height="0.3" transform="rotate(180,1.98,5.143)" />
    <rect id="tm-353" x="0.942" y="-6.17" width="0.3" height="0.3" transform="rotate(90,1.092,-6.02)" />
    <rect id="tm-354" x="0.942" y="-1.903" width="0.3" height="0.3" transform="rotate(90,1.092,-1.753)" />
    <rect id="tm-355" x="-6.322" y="-6.17" width="0.3" height="0.3" transform="rotate(90,-6.172,-6.02)" />
    <rect id="tm-356" x="-6.322" y="-1.903" width="0.3" height="0.3" transform="rotate(90,-6.172,-1.753)" />
    <rect id="tm-357" x="12.575" y="-0.239" width="0.3" height="0.3" transform="rotate(120,12.725,-0.089)" />
    <rect id="tm-358" x="12.575" y="-5.217" width="0.3" height="0.3" transform="rotate(120,12.725,-5.067)" />
    <rect id="tm-359" x="15.128" y="-0.239" width="0.3" height="0.3" transform="rotate(120,15.278,-0.089)" />
    <rect id="tm-360" x="15.128" y="-5.217" width="0.3" height="0.3" transform="rotate(120,15.278,-5.067)" />
    <rect id="tm-361" x="-15.009" y="6.772" width="0.3" height="0.3" transform="rotate(240,-14.859,6.922)" />
    <rect id="tm-362" x="-15.009" y="11.963" width="0.3" height="0.3" transform="rotate(240,-14.859,12.113)" />
    <rect id="tm-363" x="-12.456" y="6.772" width="0.3" height="0.3" transform="rotate(240,-12.306,6.922)" />
    <rect id="tm-364" x="-12.456" y="11.963" width="0.3" height="0.3" transform="rotate(240,-12.306,12.113)" />
    <rect id="tm-365" x="-33.373" y="6.518" width="0.3" height="0.3" transform="rotate(240,-33.223,6.668)" />
    <rect id="tm-366" x="-33.373" y="11.963" width="0.3" height="0.3" transform="rotate(240,-33.223,12.113)" />
    <rect id="tm-367" x="-30.821" y="6.518" width="0.3" height="0.3" transform="rotate(240,-30.671,6.668)" />
    <rect id="tm-368" x="-30.821" y="11.963" width="0.3" height="0.3" transform="rotate(240,-30.671,12.113)" />
    <rect id="tm-369" x="-4.233" y="2.746" width="0.3" height="0.3" transform="rotate(180,-4.083,2.896)" />
    <rect id="tm-370" x="-4.233" y="3.812" width="0.3" height="0.3" transform="rotate(180,-4.083,3.962)" />
    <rect id="tm-537" x="-10.878" y="-9.043" width="0.3" height="0.3" transform="rotate(270,-10.728,-8.893)" />
    <rect id="tm-538" x="-11.178" y="-3.652" width="0.3" height="0.3" transform="rotate(180,-11.028,-3.502)" />
    <rect id="tm-539" x="-10.408" y="-2.182" width="0.3" height="0.3" transform="rotate(180,-10.258,-2.032)" />
    <rect id="tm-540" x="-6.91" y="12.88" width="0.3" height="0.3" transform="rotate(180,-6.76,13.03)" />
    <rect id="tm-541" x="-10.393" y="4.13" width="0.3" height="0.3" transform="rotate(180,-10.243,4.28)" />
    <rect id="tm-542" x="-12.936" y="-3.196" width="0.3" height="0.3" transform="rotate(90,-12.786,-3.046)" />
    <rect id="tm-543" x="-8.779" y="5.432" width="0.3" height="0.3" transform="rotate(120,-8.629,5.582)" />
    <rect id="tm-544" x="-10.494" y="10.886" width="0.3" height="0.3" transform="rotate(240,-10.344,11.036)" />
    <rect id="tm-545" x="-10.291" y="9.347" width="0.3" height="0.3" transform="rotate(240,-10.141,9.497)" />
    <rect id="tm-546" x="-10.494" y="7.727" width="0.3" height="0.3" transform="rotate(240,-10.344,7.877)" />
    <rect id="tm-547" x="-3.579" y="4.397" width="0.3" height="0.3" transform="rotate(180,-3.429,4.547)" />
    <rect id="tm-548" x="2.573" y="7.925" width="0.3" height="0.3" transform="rotate(120,2.723,8.075)" />
    <rect id="tm-549" x="8.359" y="5.4" width="0.3" height="0.3" transform="rotate(180,8.509,5.55)" />
    <rect id="tm-550" x="4.066" y="8.03" width="0.3" height="0.3" transform="rotate(180,4.216,8.18)" />
    <rect id="tm-551" x="6.429" y="8.03" width="0.3" height="0.3" transform="rotate(180,6.579,8.18)" />
    <rect id="tm-552" x="4.495" y="12.88" width="0.3" height="0.3" transform="rotate(180,4.645,13.03)" />
    <rect id="tm-553" x="17.195" y="12.88" width="0.3" height="0.3" transform="rotate(180,17.345,13.03)" />
    <rect id="tm-554" x="15.278" y="4.876" width="0.3" height="0.3" transform="rotate(120,15.428,5.026)" />
    <rect id="tm-555" x="14.567" y="8.991" width="0.3" height="0.3" transform="rotate(240,14.717,9.141)" />
    <rect id="tm-556" x="15.278" y="7.619" width="0.3" height="0.3" transform="rotate(120,15.428,7.769)" />
    <rect id="tm-557" x="16.788" y="0.167" width="0.3" height="0.3" transform="rotate(240,16.938,0.317)" />
    <rect id="tm-558" x="16.788" y="-2.576" width="0.3" height="0.3" transform="rotate(240,16.938,-2.426)" />
    <rect id="tm-559" x="16.991" y="-1.204" width="0.3" height="0.3" transform="rotate(240,17.141,-1.054)" />
    <rect id="tm-560" x="17.303" y="-3.794" width="0.3" height="0.3" transform="rotate(98.421,17.453,-3.644)" />
    <rect id="tm-561" x="4.628" y="-4.176" width="0.3" height="0.3" transform="rotate(240,4.778,-4.026)" />
    <rect id="tm-562" x="4.628" y="-1.433" width="0.3" height="0.3" transform="rotate(240,4.778,-1.283)" />
    <rect id="tm-563" x="9.168" y="-4.176" width="0.3" height="0.3" transform="rotate(240,9.318,-4.026)" />
    <rect id="tm-564" x="9.168" y="-1.433" width="0.3" height="0.3" transform="rotate(240,9.318,-1.283)" />
    <rect id="tm-565" x="4.831" y="-2.804" width="0.3" height="0.3" transform="rotate(240,4.981,-2.654)" />
    <rect id="tm-566" x="9.372" y="-2.804" width="0.3" height="0.3" transform="rotate(240,9.522,-2.654)" />
    <rect id="tm-567" x="1.474" y="-0.324" width="0.3" height="0.3" transform="rotate(240,1.624,-0.174)" />
    <rect id="tm-568" x="20.482" y="-8.523" width="0.3" height="0.3" transform="rotate(90.245,20.632,-8.373)" />
    <rect id="tm-569" x="19.906" y="-4.13" width="0.3" height="0.3" transform="rotate(180,20.056,-3.98)" />
    <rect id="tm-570" x="18.827" y="-4.333" width="0.3" height="0.3" transform="rotate(180,18.977,-4.183)" />
    <rect id="tm-571" x="11.802" y="-1.963" width="0.3" height="0.3" transform="rotate(240,11.952,-1.813)" />
    <rect id="tm-572" x="11.802" y="-0.722" width="0.3" height="0.3" transform="rotate(240,11.952,-0.572)" />
    <rect id="tm-573" x="11.802" y="-3.312" width="0.3" height="0.3" transform="rotate(240,11.952,-3.162)" />
    <rect id="tm-574" x="10.705" y="-4.787" width="0.3" height="0.3" transform="rotate(180,10.855,-4.637)" />
    <rect id="tm-575" x="1.474" y="-1.71" width="0.3" height="0.3" transform="rotate(240,1.624,-1.56)" />
    <rect id="tm-576" x="1.474" y="-3.084" width="0.3" height="0.3" transform="rotate(240,1.624,-2.934)" />
    <rect id="tm-577" x="3.585" y="-4.787" width="0.3" height="0.3" transform="rotate(180,3.735,-4.637)" />
    <rect id="tm-578" x="13.385" y="12.88" width="0.3" height="0.3" transform="rotate(180,13.535,13.03)" />
    <rect id="tm-579" x="14.567" y="6.314" width="0.3" height="0.3" transform="rotate(240,14.717,6.464)" />
    <rect id="tm-580" x="1.955" y="12.88" width="0.3" height="0.3" transform="rotate(180,2.105,13.03)" />
    <rect id="tm-581" x="-11.71" y="12.88" width="0.3" height="0.3" transform="rotate(180,-11.56,13.03)" />
    <rect id="tm-582" x="-12.86" y="-9.043" width="0.3" height="0.3" transform="rotate(90,-12.71,-8.893)" />
    <rect id="tm-583" x="0.58" y="-4.457" width="0.3" height="0.3" transform="rotate(90,0.73,-4.307)" />
    <rect id="tm-584" x="0.58" y="-4.457" width="0.3" height="0.3" transform="rotate(90,0.73,-4.307)" />
    <rect id="tm-585" x="0.58" y="-4.457" width="0.3" height="0.3" transform="rotate(90,0.73,-4.307)" />
    <rect id="tm-586" x="0.58" y="-4.457" width="0.3" height="0.3" transform="rotate(90,0.73,-4.307)" />
    <rect id="tm-587" x="10.109" y="8.03" width="0.3" height="0.3" transform="rotate(90,10.259,8.18)" />
    <rect id="tm-963" x="5.765" y="12.88" width="0.3" height="0.3" transform="rotate(180,5.915,13.03)" />
    <rect id="tm-964" x="-0.661" y="12.88" width="0.3" height="0.3" transform="rotate(180,-0.511,13.03)" />
    <rect id="tm-965" x="-9.5" y="12.88" width="0.3" height="0.3" transform="rotate(180,-9.35,13.03)" />
    <rect id="tm-966" x="-6.994" y="-9.043" width="0.3" height="0.3" transform="rotate(90,-6.844,-8.893)" />
    <rect id="tm-1233" x="-8.561" y="-3.408" width="0.3" height="0.3" transform="rotate(90,-8.411,-3.258)" />
    <rect id="tm-1234" x="-8.561" y="-2.112" width="0.3" height="0.3" transform="rotate(90,-8.411,-1.962)" />
    <rect id="tm-1235" x="-8.561" y="-2.76" width="0.3" height="0.3" transform="rotate(90,-8.411,-2.61)" />
    <rect id="tm-1236" x="-14.25" y="-4.446" width="0.3" height="0.3" transform="rotate(180,-14.1,-4.296)" />
    <rect id="tm-1237" x="-14.25" y="-2.261" width="0.3" height="0.3" transform="rotate(180,-14.1,-2.111)" />
    <rect id="tm-1238" x="-14.25" y="-0.077" width="0.3" height="0.3" transform="rotate(180,-14.1,0.073)" />
    <rect id="tm-1239" x="-10.897" y="-0.077" width="0.3" height="0.3" transform="rotate(180,-10.747,0.073)" />
    <rect id="tm-1240" x="-10.897" y="-4.446" width="0.3" height="0.3" transform="rotate(180,-10.747,-4.296)" />
    <rect id="tm-1241" x="-7.538" y="-4.446" width="0.3" height="0.3" transform="rotate(180,-7.388,-4.296)" />
    <rect id="tm-1242" x="-7.538" y="-2.261" width="0.3" height="0.3" transform="rotate(180,-7.388,-2.111)" />
    <rect id="tm-1243" x="-7.538" y="-0.077" width="0.3" height="0.3" transform="rotate(180,-7.388,0.073)" />
    <rect id="tm-1244" x="-9.091" y="1.603" width="0.3" height="0.3" />
    <rect id="tm-1245" x="-2.69" y="1.603" width="0.3" height="0.3" />
    <rect id="tm-1246" x="3.711" y="1.603" width="0.3" height="0.3" />
    <rect id="tm-1247" x="10.112" y="1.603" width="0.3" height="0.3" />
    <rect id="tm-1248" x="-0.385" y="4.02" width="0.3" height="0.3" transform="rotate(180,-0.235,4.17)" />
    <rect id="tm-1249" x="-29.255" y="11.991" width="0.3" height="0.3" transform="rotate(180,-29.105,12.141)" />
    <rect id="tm-1250" x="-26.426" y="11.991" width="0.3" height="0.3" transform="rotate(180,-26.276,12.141)" />
    <rect id="tm-1251" x="-24.344" y="11.991" width="0.3" height="0.3" transform="rotate(180,-24.194,12.141)" />
    <rect id="tm-1252" x="-22.261" y="11.991" width="0.3" height="0.3" transform="rotate(180,-22.111,12.141)" />
    <rect id="tm-1253" x="-19.568" y="11.991" width="0.3" height="0.3" transform="rotate(180,-19.418,12.141)" />
    <rect id="tm-1254" x="-26.804" y="8.981" width="0.3" height="0.3" transform="rotate(180,-26.654,9.131)" />
    <rect id="tm-1255" x="-29.13" y="6.565" width="0.3" height="0.3" transform="rotate(180,-28.98,6.715)" />
    <rect id="tm-1256" x="-26.082" y="6.525" width="0.3" height="0.3" transform="rotate(180,-25.932,6.675)" />
    <rect id="tm-1257" x="-23.034" y="6.525" width="0.3" height="0.3" transform="rotate(180,-22.884,6.675)" />
    <rect id="tm-1258" x="-19.986" y="6.525" width="0.3" height="0.3" transform="rotate(180,-19.836,6.675)" />
    <rect id="tm-1259" x="-23.756" y="8.981" width="0.3" height="0.3" transform="rotate(180,-23.606,9.131)" />
    <rect id="tm-1260" x="-20.708" y="8.981" width="0.3" height="0.3" transform="rotate(180,-20.558,9.131)" />
    <rect id="tm-1261" x="-10.548" y="7.226" width="0.3" height="0.3" transform="rotate(180,-10.398,7.376)" />
    <rect id="tm-1262" x="-7.538" y="4.501" width="0.3" height="0.3" transform="rotate(180,-7.388,4.651)" />
    <rect id="tm-1263" x="-7.538" y="7.226" width="0.3" height="0.3" transform="rotate(180,-7.388,7.376)" />
    <rect id="tm-1264" x="11.258" y="7.492" width="0.3" height="0.3" transform="rotate(180,11.408,7.642)" />
    <rect id="tm-1265" x="11.258" y="5.308" width="0.3" height="0.3" transform="rotate(180,11.408,5.458)" />
    <rect id="tm-1266" x="11.258" y="3.123" width="0.3" height="0.3" transform="rotate(180,11.408,3.273)" />
    <rect id="tm-1267" x="7.905" y="3.123" width="0.3" height="0.3" transform="rotate(180,8.055,3.273)" />
    <rect id="tm-1268" x="7.905" y="7.492" width="0.3" height="0.3" transform="rotate(180,8.055,7.642)" />
    <rect id="tm-1269" x="4.546" y="7.492" width="0.3" height="0.3" transform="rotate(180,4.696,7.642)" />
    <rect id="tm-1270" x="4.546" y="5.308" width="0.3" height="0.3" transform="rotate(180,4.696,5.458)" />
    <rect id="tm-1271" x="4.546" y="3.123" width="0.3" height="0.3" transform="rotate(180,4.696,3.273)" />
    <rect id="tm-1272" x="5.568" y="5.176" width="0.3" height="0.3" transform="rotate(90,5.718,5.326)" />
    <rect id="tm-1273" x="5.568" y="6.471" width="0.3" height="0.3" transform="rotate(90,5.718,6.621)" />
    <rect id="tm-1274" x="5.568" y="5.824" width="0.3" height="0.3" transform="rotate(90,5.718,5.974)" />
    <rect id="tm-1275" x="-8.869" y="5.854" width="0.3" height="0.3" transform="rotate(180,-8.719,6.004)" />
    <rect id="tm-1276" x="-10.164" y="5.854" width="0.3" height="0.3" transform="rotate(180,-10.014,6.004)" />
    <rect id="tm-1277" x="-9.516" y="5.854" width="0.3" height="0.3" transform="rotate(180,-9.366,6.004)" />
    <rect id="tm-1278" x="-2.388" y="5.962" width="0.3" height="0.3" transform="rotate(180,-2.238,6.112)" />
    <rect id="tm-1279" x="-3.684" y="5.962" width="0.3" height="0.3" transform="rotate(180,-3.534,6.112)" />
    <rect id="tm-1280" x="-3.036" y="5.962" width="0.3" height="0.3" transform="rotate(180,-2.886,6.112)" />
    <rect id="tm-1281" x="-5.411" y="7.226" width="0.3" height="0.3" transform="rotate(180,-5.261,7.376)" />
    <rect id="tm-1282" x="-3.315" y="7.226" width="0.3" height="0.3" transform="rotate(180,-3.165,7.376)" />
    <rect id="tm-1283" x="-5.411" y="4.501" width="0.3" height="0.3" transform="rotate(180,-5.261,4.651)" />
    <rect id="tm-1284" x="-10.548" y="7.226" width="0.3" height="0.3" transform="rotate(180,-10.398,7.376)" />
    <rect id="tm-1285" x="-7.538" y="4.501" width="0.3" height="0.3" transform="rotate(180,-7.388,4.651)" />
    <rect id="tm-1286" x="-7.538" y="7.226" width="0.3" height="0.3" transform="rotate(180,-7.388,7.376)" />
    <rect id="tm-1287" x="11.258" y="7.492" width="0.3" height="0.3" transform="rotate(180,11.408,7.642)" />
    <rect id="tm-1288" x="11.258" y="5.308" width="0.3" height="0.3" transform="rotate(180,11.408,5.458)" />
    <rect id="tm-1289" x="11.258" y="3.123" width="0.3" height="0.3" transform="rotate(180,11.408,3.273)" />
    <rect id="tm-1290" x="7.905" y="3.123" width="0.3" height="0.3" transform="rotate(180,8.055,3.273)" />
    <rect id="tm-1291" x="7.905" y="7.492" width="0.3" height="0.3" transform="rotate(180,8.055,7.642)" />
    <rect id="tm-1292" x="4.546" y="7.492" width="0.3" height="0.3" transform="rotate(180,4.696,7.642)" />
    <rect id="tm-1293" x="4.546" y="5.308" width="0.3" height="0.3" transform="rotate(180,4.696,5.458)" />
    <rect id="tm-1294" x="4.546" y="3.123" width="0.3" height="0.3" transform="rotate(180,4.696,3.273)" />
    <rect id="tm-1295" x="-10.548" y="7.226" width="0.3" height="0.3" transform="rotate(180,-10.398,7.376)" />
    <rect id="tm-1296" x="-7.538" y="4.501" width="0.3" height="0.3" transform="rotate(180,-7.388,4.651)" />
    <rect id="tm-1297" x="-7.538" y="7.226" width="0.3" height="0.3" transform="rotate(180,-7.388,7.376)" />
    <rect id="tm-1298" x="11.258" y="7.492" width="0.3" height="0.3" transform="rotate(180,11.408,7.642)" />
    <rect id="tm-1299" x="11.258" y="5.308" width="0.3" height="0.3" transform="rotate(180,11.408,5.458)" />
    <rect id="tm-1300" x="11.258" y="3.123" width="0.3" height="0.3" transform="rotate(180,11.408,3.273)" />
    <rect id="tm-1301" x="7.905" y="3.123" width="0.3" height="0.3" transform="rotate(180,8.055,3.273)" />
    <rect id="tm-1302" x="7.905" y="7.492" width="0.3" height="0.3" transform="rotate(180,8.055,7.642)" />
    <rect id="tm-1303" x="4.546" y="7.492" width="0.3" height="0.3" transform="rotate(180,4.696,7.642)" />
    <rect id="tm-1304" x="4.546" y="5.308" width="0.3" height="0.3" transform="rotate(180,4.696,5.458)" />
    <rect id="tm-1305" x="4.546" y="3.123" width="0.3" height="0.3" transform="rotate(180,4.696,3.273)" />
    <rect id="tm-1306" x="-5.411" y="7.226" width="0.3" height="0.3" transform="rotate(180,-5.261,7.376)" />
    <rect id="tm-1307" x="-3.315" y="7.226" width="0.3" height="0.3" transform="rotate(180,-3.165,7.376)" />
    <rect id="tm-1308" x="-5.411" y="4.501" width="0.3" height="0.3" transform="rotate(180,-5.261,4.651)" />
    <rect id="tm-1309" x="-10.548" y="7.226" width="0.3" height="0.3" transform="rotate(180,-10.398,7.376)" />
    <rect id="tm-1310" x="-7.538" y="4.501" width="0.3" height="0.3" transform="rotate(180,-7.388,4.651)" />
    <rect id="tm-1311" x="-7.538" y="7.226" width="0.3" height="0.3" transform="rotate(180,-7.388,7.376)" />
    <rect id="tm-1312" x="11.258" y="7.492" width="0.3" height="0.3" transform="rotate(180,11.408,7.642)" />
    <rect id="tm-1313" x="11.258" y="5.308" width="0.3" height="0.3" transform="rotate(180,11.408,5.458)" />
    <rect id="tm-1314" x="11.258" y="3.123" width="0.3" height="0.3" transform="rotate(180,11.408,3.273)" />
    <rect id="tm-1315" x="7.905" y="3.123" width="0.3" height="0.3" transform="rotate(180,8.055,3.273)" />
    <rect id="tm-1316" x="7.905" y="7.492" width="0.3" height="0.3" transform="rotate(180,8.055,7.642)" />
    <rect id="tm-1317" x="4.546" y="7.492" width="0.3" height="0.3" transform="rotate(180,4.696,7.642)" />
    <rect id="tm-1318" x="4.546" y="5.308" width="0.3" height="0.3" transform="rotate(180,4.696,5.458)" />
    <rect id="tm-1319" x="4.546" y="3.123" width="0.3" height="0.3" transform="rotate(180,4.696,3.273)" />
    <rect id="tm-1320" x="1.83" y="4.993" width="0.3" height="0.3" transform="rotate(180,1.98,5.143)" />
    <rect id="tm-1321" x="0.793" y="-6.17" width="0.3" height="0.3" transform="rotate(90,0.943,-6.02)" />
    <rect id="tm-1322" x="0.793" y="-1.903" width="0.3" height="0.3" transform="rotate(90,0.943,-1.753)" />
    <rect id="tm-1323" x="-6.173" y="-6.17" width="0.3" height="0.3" transform="rotate(90,-6.023,-6.02)" />
    <rect id="tm-1324" x="-6.173" y="-1.903" width="0.3" height="0.3" transform="rotate(90,-6.023,-1.753)" />
    <rect id="tm-1325" x="12.575" y="-0.239" width="0.3" height="0.3" transform="rotate(120,12.725,-0.089)" />
    <rect id="tm-1326" x="12.575" y="-5.217" width="0.3" height="0.3" transform="rotate(120,12.725,-5.067)" />
    <rect id="tm-1327" x="15.128" y="-0.239" width="0.3" height="0.3" transform="rotate(120,15.278,-0.089)" />
    <rect id="tm-1328" x="15.128" y="-5.217" width="0.3" height="0.3" transform="rotate(120,15.278,-5.067)" />
    <rect id="tm-1329" x="-15.009" y="6.772" width="0.3" height="0.3" transform="rotate(240,-14.859,6.922)" />
    <rect id="tm-1330" x="-15.009" y="11.963" width="0.3" height="0.3" transform="rotate(240,-14.859,12.113)" />
    <rect id="tm-1331" x="-12.456" y="6.772" width="0.3" height="0.3" transform="rotate(240,-12.306,6.922)" />
    <rect id="tm-1332" x="-12.456" y="11.963" width="0.3" height="0.3" transform="rotate(240,-12.306,12.113)" />
    <rect id="tm-1333" x="-33.373" y="6.518" width="0.3" height="0.3" transform="rotate(240,-33.223,6.668)" />
    <rect id="tm-1334" x="-33.373" y="11.963" width="0.3" height="0.3" transform="rotate(240,-33.223,12.113)" />
    <rect id="tm-1335" x="-30.821" y="6.518" width="0.3" height="0.3" transform="rotate(240,-30.671,6.668)" />
    <rect id="tm-1336" x="-30.821" y="11.963" width="0.3" height="0.3" transform="rotate(240,-30.671,12.113)" />
    <rect id="tm-1337" x="-11.755" y="-3.398" width="0.3" height="0.3" transform="rotate(240,-11.605,-3.248)" />
    <rect id="tm-1338" x="-10.18" y="-3.398" width="0.3" height="0.3" transform="rotate(240,-10.03,-3.248)" />
    <rect id="tm-1339" x="-4.233" y="2.746" width="0.3" height="0.3" transform="rotate(180,-4.083,2.896)" />
    <rect id="tm-1340" x="-4.233" y="3.812" width="0.3" height="0.3" transform="rotate(180,-4.083,3.962)" />
    <rect id="tm-1341" x="9.078" y="6.451" width="0.3" height="0.3" transform="rotate(120,9.228,6.601)" />
    <rect id="tm-1342" x="7.503" y="6.451" width="0.3" height="0.3" transform="rotate(120,7.653,6.601)" />
    <rect id="tm-1343" x="5.822" y="5.603" width="0.3" height="0.3" transform="rotate(240,5.972,5.753)" />
    <rect id="tm-1344" x="5.822" y="4.308" width="0.3" height="0.3" transform="rotate(240,5.972,4.458)" />
    <rect id="tm-1345" x="2.723" y="4.943" width="0.3" height="0.3" transform="rotate(120,2.873,5.093)" />
    <rect id="tm-1346" x="5.54" y="3.739" width="0.3" height="0.3" transform="rotate(90,5.69,3.889)" />
    <rect id="tm-1347" x="9.273" y="3.739" width="0.3" height="0.3" transform="rotate(90,9.423,3.889)" />
    <rect id="tm-1348" x="10.239" y="6.889" width="0.3" height="0.3" transform="rotate(180,10.389,7.039)" />
    <rect id="tm-1349" x="7.546" y="6.635" width="0.3" height="0.3" transform="rotate(180,7.696,6.785)" />
    <rect id="tm-1350" x="9.163" y="6.635" width="0.3" height="0.3" transform="rotate(180,9.313,6.785)" />
    <rect id="tm-1351" x="9.804" y="4.247" width="0.3" height="0.3" transform="rotate(240,9.954,4.397)" />
    <rect id="tm-1352" x="2.568" y="5.12" width="0.3" height="0.3" transform="rotate(240,2.718,5.27)" />
    <rect id="tm-1353" x="12.274" y="7.533" width="0.3" height="0.3" transform="rotate(240,12.424,7.683)" />
    <rect id="tm-1354" x="12.274" y="10.581" width="0.3" height="0.3" transform="rotate(240,12.424,10.731)" />
    <rect id="tm-1355" x="9.612" y="12.56" width="0.3" height="0.3" transform="rotate(90,9.762,12.71)" />
    <rect id="tm-1356" x="3.516" y="12.56" width="0.3" height="0.3" transform="rotate(90,3.666,12.71)" />
    <rect id="tm-1357" x="1.091" y="9.896" width="0.3" height="0.3" transform="rotate(120,1.241,10.046)" />
    <rect id="tm-1358" x="9.988" y="6.314" width="0.3" height="0.3" transform="rotate(120,10.138,6.464)" />
    <rect id="tm-1359" x="5.822" y="5.044" width="0.3" height="0.3" transform="rotate(240,5.972,5.194)" />
    <rect id="tm-1360" x="9.216" y="2.517" width="0.3" height="0.3" transform="rotate(90,9.366,2.667)" />
    <rect id="tm-1361" x="3.085" y="2.517" width="0.3" height="0.3" transform="rotate(90,3.235,2.667)" />
    <rect id="tm-1362" x="9.273" y="3.739" width="0.3" height="0.3" transform="rotate(90,9.423,3.889)" />
    <rect id="tm-1363" x="-23.493" y="12.56" width="0.3" height="0.3" transform="rotate(90,-23.343,12.71)" />
    <rect id="tm-1364" x="-25.449" y="12.56" width="0.3" height="0.3" transform="rotate(90,-25.299,12.71)" />
    <rect id="tm-1365" x="-27.176" y="12.55" width="0.3" height="0.3" transform="rotate(90,-27.026,12.7)" />
    <rect id="tm-1366" x="-28.433" y="12.55" width="0.3" height="0.3" transform="rotate(90,-28.283,12.7)" />
    <rect id="tm-1367" x="-30.084" y="12.55" width="0.3" height="0.3" transform="rotate(90,-29.934,12.7)" />
    <rect id="tm-1368" x="-27.614" y="9.743" width="0.3" height="0.3" transform="rotate(120,-27.464,9.893)" />
    <rect id="tm-1369" x="-27.614" y="8.219" width="0.3" height="0.3" transform="rotate(120,-27.464,8.369)" />
    <rect id="tm-1370" x="-19.505" y="12.56" width="0.3" height="0.3" transform="rotate(90,-19.355,12.71)" />
    <rect id="tm-1371" x="-6.471" y="10.81" width="0.3" height="0.3" transform="rotate(240,-6.321,10.96)" />
    <rect id="tm-1372" x="-6.471" y="7.838" width="0.3" height="0.3" transform="rotate(240,-6.321,7.988)" />
    <rect id="tm-1373" x="-9.676" y="12.56" width="0.3" height="0.3" transform="rotate(90,-9.526,12.71)" />
    <rect id="tm-1374" x="-12.072" y="10.81" width="0.3" height="0.3" transform="rotate(120,-11.922,10.96)" />
    <rect id="tm-1375" x="-12.072" y="7.838" width="0.3" height="0.3" transform="rotate(120,-11.922,7.988)" />
    <rect id="tm-1376" x="-9.351" y="2.962" width="0.3" height="0.3" transform="rotate(240,-9.201,3.112)" />
    <rect id="tm-1377" x="-12.072" y="3.05" width="0.3" height="0.3" transform="rotate(120,-11.922,3.2)" />
    <rect id="tm-1378" x="-6.471" y="4.028" width="0.3" height="0.3" transform="rotate(240,-6.321,4.178)" />
    <rect id="tm-1379" x="-6.173" y="7.711" width="0.3" height="0.3" transform="rotate(120,-6.023,7.861)" />
    <rect id="tm-1380" x="-6.173" y="10.958" width="0.3" height="0.3" transform="rotate(120,-6.023,11.108)" />
    <rect id="tm-1381" x="-2.333" y="12.56" width="0.3" height="0.3" transform="rotate(90,-2.183,12.71)" />
    <rect id="tm-1382" x="0.793" y="10.505" width="0.3" height="0.3" transform="rotate(240,0.943,10.655)" />
    <rect id="tm-1383" x="-3.1" y="5.705" width="0.3" height="0.3" transform="rotate(180,-2.95,5.855)" />
    <rect id="tm-1384" x="-4.366" y="5.705" width="0.3" height="0.3" transform="rotate(180,-4.216,5.855)" />
    <rect id="tm-1385" x="-3.684" y="5.705" width="0.3" height="0.3" transform="rotate(180,-3.534,5.855)" />
    <rect id="tm-1386" x="-4.233" y="2.961" width="0.3" height="0.3" transform="rotate(120,-4.083,3.111)" />
    <rect id="tm-1387" x="-1.75" y="4.079" width="0.3" height="0.3" transform="rotate(240,-1.6,4.229)" />
    <rect id="tm-1388" x="-9.611" y="5.6" width="0.3" height="0.3" transform="rotate(180,-9.461,5.75)" />
    <rect id="tm-1389" x="-10.945" y="5.6" width="0.3" height="0.3" transform="rotate(180,-10.795,5.75)" />
    <rect id="tm-1390" x="-10.094" y="5.6" width="0.3" height="0.3" transform="rotate(180,-9.944,5.75)" />
    <rect id="tm-1391" x="-12.796" y="-1.204" width="0.3" height="0.3" transform="rotate(120,-12.646,-1.054)" />
    <rect id="tm-1392" x="-8.815" y="-2.22" width="0.3" height="0.3" transform="rotate(120,-8.665,-2.07)" />
    <rect id="tm-1393" x="-8.815" y="-1.306" width="0.3" height="0.3" transform="rotate(120,-8.665,-1.156)" />
    <rect id="tm-1394" x="-8.815" y="-2.728" width="0.3" height="0.3" transform="rotate(120,-8.665,-2.578)" />
    <rect id="tm-1395" x="-11.707" y="-3.398" width="0.3" height="0.3" transform="rotate(180,-11.557,-3.248)" />
    <rect id="tm-1396" x="-10.208" y="-3.398" width="0.3" height="0.3" transform="rotate(180,-10.058,-3.248)" />
    <rect id="tm-1397" x="-15.095" y="-5.878" width="0.3" height="0.3" transform="rotate(120,-14.945,-5.728)" />
    <rect id="tm-1398" x="-12.98" y="-3.414" width="0.3" height="0.3" transform="rotate(240,-12.83,-3.264)" />
    <rect id="tm-1399" x="-6.471" y="-6.157" width="0.3" height="0.3" transform="rotate(240,-6.321,-6.007)" />
    <rect id="tm-1400" x="-6.471" y="-2.068" width="0.3" height="0.3" transform="rotate(240,-6.321,-1.918)" />
    <rect id="tm-1401" x="-12.418" y="-3.582" width="0.3" height="0.3" transform="rotate(90,-12.268,-3.432)" />
    <rect id="tm-1402" x="-10.285" y="-3.582" width="0.3" height="0.3" transform="rotate(90,-10.135,-3.432)" />
    <rect id="tm-1403" x="-12.571" y="-0.687" width="0.3" height="0.3" transform="rotate(180,-12.421,-0.537)" />
    <rect id="tm-1404" x="-15.095" y="-1.725" width="0.3" height="0.3" transform="rotate(120,-14.945,-1.575)" />
    <rect id="tm-1405" x="-10.894" y="-8.564" width="0.3" height="0.3" transform="rotate(180,-10.744,-8.414)" />
    <rect id="tm-1406" x="-3.011" y="2.517" width="0.3" height="0.3" transform="rotate(90,-2.861,2.667)" />
    <rect id="tm-1407" x="-9.107" y="2.517" width="0.3" height="0.3" transform="rotate(90,-8.957,2.667)" />
    <rect id="tm-1408" x="5.26" y="12.56" width="0.3" height="0.3" transform="rotate(90,5.41,12.71)" />
    <rect id="tm-1409" x="4.32" y="12.88" width="0.3" height="0.3" transform="rotate(180,4.47,13.03)" />
    <rect id="tm-1410" x="9.451" y="6.451" width="0.3" height="0.3" transform="rotate(90,9.601,6.601)" />
    <rect id="tm-1411" x="-2.69" y="-6.068" width="0.3" height="0.3" transform="rotate(180,-2.54,-5.918)" />
    <rect id="tm-1412" x="-4.417" y="2.958" width="0.3" height="0.3" transform="rotate(240,-4.267,3.108)" />
    <rect id="tm-1413" x="-9.156" y="2.865" width="0.3" height="0.3" transform="rotate(120,-9.006,3.015)" />
    <rect id="tm-1414" x="6.733" y="4.441" width="0.3" height="0.3" transform="rotate(90,6.883,4.591)" />
    <rect id="tm-1415" x="-9.091" y="-1.449" width="0.3" height="0.3" transform="rotate(180,-8.941,-1.299)" />
  </g>
</svg>