<?xml version="1.0" encoding="utf-8"?>
<svg xmlns="http://www.w3.org/2000/svg" viewBox="-34.094 -14.232 54.563 24.526">
  <g transform="scale(1,-1)">
    <path id="w-24" d="M -6.172,12.87 L -6.172,2.745" />
    <path id="w-41" d="M 1.092,12.87 L 1.092,8.561" />
    <path id="w-53" d="M 12.573,12.87 L 12.573,2.745" />
    <path id="w-656" d="M -12.03,2.745 L -1.521,2.745" />
    <path id="w-657" d="M 12.229,0.76 L 1.092,0.76" />
    <path id="w-658" d="M -6.172,0.76 L -15.13,0.76" />
    <path id="w-54" d="M -6.172,0.76 L -6.172,-8.395" />
    <path id="w-55" d="M 1.092,0.76 L 1.092,-9.082" />
    <path id="w-659" d="M 1.092,2.745 L 15.554,2.745" />
    <path id="w-660" d="M -13.491,-0.598 L -12.738,-0.598" />
    <path id="w-661" d="M -12.738,-3.624 L -12.738,-0.629" />
    <path id="w-662" d="M -8.757,-3.37 L -9.825,-3.37" />
    <path id="w-663" d="M -8.726,-0.598 L -8.726,-1.36" />
    <path id="w-664" d="M -13.491,-3.624 L -12.738,-3.624" />
    <path id="w-665" d="M -9.825,-1.36 L -8.726,-1.36" />
    <path id="w-666" d="M -8.757,-3.624 L -8.004,-3.624" />
    <path id="w-667" d="M -9.825,-3.34 L -9.825,-2.734" />
    <path id="w-668" d="M -12.738,-1.535 L -11.935,-1.535" />
    <path id="w-669" d="M -8.726,-0.598 L -8.004,-0.598" />
    <path id="w-670" d="M -9.825,-0.598 L -8.726,-0.598" />
    <path id="w-671" d="M 10.798,3.951 L 10.046,3.951" />
    <path id="w-672" d="M 10.046,6.977 L 10.046,3.981" />
    <path id="w-673" d="M 6.064,6.723 L 7.45,6.723" />
    <path id="w-674" d="M 6.034,3.951 L 6.034,4.653" />
    <path id="w-675" d="M 10.798,6.977 L 10.046,6.977" />
    <path id="w-676" d="M 7.133,3.981 L 7.133,4.653" />
    <path id="w-677" d="M 7.133,4.653 L 6.034,4.653" />
    <path id="w-678" d="M 6.064,6.977 L 5.312,6.977" />
    <path id="w-679" d="M 7.099,6.09 L 7.099,5.661" />
    <path id="w-680" d="M 10.046,4.866 L 9.242,4.866" />
    <path id="w-681" d="M 6.034,3.951 L 5.312,3.951" />
    <path id="w-682" d="M 7.133,3.951 L 6.034,3.951" />
    <path id="w-683" d="M 15.554,0.724 L 15.554,2.745" />
    <path id="w-684" d="M -9.112,2.745 L -9.112,4.077" />
    <path id="w-685" d="M -8.352,2.745 L -8.352,4.077" />
    <path id="w-686" d="M -12.154,5.658 L -8.352,5.658" />
    <path id="w-687" d="M -8.352,5.658 L -8.352,6.48" />
    <path id="w-688" d="M -12.03,4.713 L -11.008,4.713" />
    <path id="w-689" d="M -12.03,3.675 L -11.008,3.675" />
    <path id="w-690" d="M -4.653,4.129 L -4.653,5.766" />
    <path id="w-691" d="M -4.175,2.745 L -4.175,4.129" />
    <path id="w-692" d="M -4.82,2.745 L -4.82,4.129" />
    <path id="w-693" d="M -4.82,4.129 L -4.175,4.129" />
    <path id="w-694" d="M -4.623,5.766 L -1.934,5.766" />
    <path id="w-695" d="M -1.521,5.713 L -1.521,2.745" />
    <path id="w-696" d="M -1.521,4.697 L -2.515,4.697" />
    <path id="w-697" d="M 14.572,0.916 L 14.572,2.745" />
    <path id="w-86" d="M -12.154,5.855 L -12.154,12.865" />
    <path id="w-698" d="M -12.03,2.745 L -12.03,5.663" />
    <path id="w-699" d="M -13.902,5.663 L -13.902,0.76" />
    <path id="w-700" d="M -13.902,2.729 L -15.13,2.729" />
    <path id="w-701" d="M -14.402,-8.713 L -7.087,-8.713" />
    <path id="w-702" d="M 1.397,-9.244 L 12.592,-9.244" />
    <path id="w-130" d="M 1.092,5.713 L 1.092,2.745" />
    <path id="w-703" d="M -8.757,-1.36 L -8.757,-3.624" />
    <path id="w-704" d="M 6.064,4.653 L 6.064,6.977" />
    <path id="w-705" d="M 7.45,6.723 L 7.45,6.09" />
    <path id="w-706" d="M 7.099,5.661 L 7.483,5.661" />
    <path id="w-707" d="M 7.099,6.09 L 7.483,6.09" />
    <path id="w-708" d="M 7.483,6.09 L 7.483,5.661" />
    <path id="w-709" d="M 6.064,6.026 L 7.099,6.026" />
    <path id="w-146" d="M -15.011,13.183 L -15.011,12.865" />
    <path id="w-147" d="M -12.154,12.865 L -12.154,13.183" />
    <path id="w-710" d="M -12.068,2.745 L -12.068,0.76" />
    <path id="w-711" d="M 1.233,8.561 L -1.894,8.561" />
    <path id="w-712" d="M -1.894,8.561 L -1.894,5.713" />
    <path id="w-713" d="M 1.233,8.561 L 1.233,7.15" />
    <path id="w-714" d="M 15.623,0.876 L 15.623,-8.184" />
    <path id="w-715" d="M -11.962,12.87 L -11.962,5.663" />
    <path id="w-716" d="M 1.218,5.713 L -1.894,5.713" />
    <path id="w-717" d="M 15.554,0.916 L 12.229,0.916" />
    <path id="w-718" d="M -11.962,5.663 L -15.203,5.663" />
    <path id="w-719" d="M 1.218,5.713 L 1.218,6.159" />
    <path id="w-720" d="M 7.45,6.693 L 10.046,6.693" />
    <path id="w-721" d="M 2.811,4.05 L 2.811,2.745" />
    <path id="w-722" d="M -9.825,-3.34 L -12.738,-3.34" />
    <path id="w-723" d="M -9.825,-2.734 L -8.757,-2.734" />
    <path id="w-724" d="M -6.475,-8.498 L -14.754,-8.498" />
    <path id="w-725" d="M -15.13,-7.998 L -14.754,-7.998" />
    <path id="w-726" d="M -14.754,-7.998 L -14.754,-8.498" />
    <path id="w-727" d="M -14.765,-3.874 L -6.477,-3.874" />
    <path id="w-728" d="M -14.765,-8.379 L -6.477,-8.379" />
    <path id="w-259" d="M -0.392,-8.542 L -4.688,-8.542" />
    <path id="w-260" d="M -4.688,-8.784 L -6.02,-8.784" />
    <path id="w-262" d="M -5.907,-8.784 L -5.907,-8.553" />
    <path id="w-263" d="M -4.688,-8.868 L -4.688,-8.542" />
    <path id="w-264" d="M -0.392,-8.784 L 0.939,-8.784" />
    <path id="w-265" d="M 0.827,-8.784 L 0.827,-8.553" />
    <path id="w-266" d="M -0.392,-8.868 L -0.392,-8.542" />
    <path id="w-269" d="M 19.419,9.586 L 18.987,12.87" />
    <path id="w-729" d="M 1.397,0.756 L 6.985,0.756" />
    <path id="w-730" d="M -6.172,0.762 L 0.787,0.762" />
    <path id="w-731" d="M -5.805,-9.096 L -5.805,-8.868" />
    <path id="w-732" d="M -4.761,-9.096 L -4.761,-8.868" />
    <path id="w-733" d="M -0.319,-9.096 L -0.319,-8.868" />
    <path id="w-734" d="M 0.725,-9.096 L 0.725,-8.868" />
    <path id="w-735" d="M 12.573,8.036 L 12.827,8.036" />
    <path id="w-282" d="M -12.001,12.87 L 18.987,12.87" />
    <path id="w-736" d="M -4.623,5.766 L -4.623,6.569" />
    <path id="w-737" d="M 10.046,3.981 L 7.133,3.981" />
    <path id="w-738" d="M -12.738,-0.629 L -9.825,-0.629" />
    <path id="w-739" d="M -11.922,6.407 L -8.347,6.407" />
    <path id="w-740" d="M -8.347,6.407 L -8.347,2.823" />
    <path id="w-741" d="M -14.765,0.762 L -6.477,0.762" />
    <path id="w-742" d="M -11.962,5.855 L -6.477,5.855" />
    <path id="w-743" d="M 7.595,0.756 L 12.229,0.756" />
    <path id="w-744" d="M -5.867,5.855 L -1.727,5.855" />
    <path id="w-745" d="M 1.067,5.849 L 6.985,5.849" />
    <path id="w-746" d="M 1.092,12.646 L 6.985,12.646" />
    <path id="w-747" d="M 7.595,5.849 L 12.268,5.849" />
    <path id="w-748" d="M 7.265,12.646 L 12.275,12.646" />
    <path id="w-749" d="M 12.827,12.646 L 18.502,12.646" />
    <path id="w-750" d="M -4.842,2.823 L -4.842,6.525" />
    <path id="w-751" d="M -4.842,6.525 L -1.934,6.525" />
    <path id="w-752" d="M 5.366,7.01 L 10.744,7.01" />
    <path id="w-753" d="M 10.744,7.01 L 10.744,3.943" />
    <path id="w-754" d="M 10.744,3.943 L 5.366,3.943" />
    <path id="w-755" d="M 5.366,3.943 L 5.366,7.01" />
    <path id="w-756" d="M -13.437,-0.591 L -8.058,-0.591" />
    <path id="w-757" d="M -8.058,-0.591 L -8.058,-3.632" />
    <path id="w-758" d="M -8.058,-3.632 L -13.437,-3.632" />
    <path id="w-759" d="M -13.437,-3.632 L -13.437,-0.591" />
    <path id="w-760" d="M -9.112,4.077 L -9.112,5.658" />
    <path id="w-761" d="M -9.112,4.077 L -8.352,4.077" />
    <path id="w-762" d="M -9.825,-2.734 L -9.825,-0.629" />
    <path id="w-1143" d="M -33.045,-8.664 L -30.747,-8.664" />
    <path id="w-1144" d="M -29.54,-8.664 L -27.242,-8.664" />
    <path id="w-1145" d="M -25.654,-8.664 L -23.355,-8.664" />
    <path id="w-1146" d="M -21.057,-8.664 L -18.758,-8.664" />
    <path id="w-1086" d="M -15.011,-8.74 L -6.172,-8.74" />
    <path id="w-1087" d="M -15.011,-8.74 L -15.011,-8.052" />
  </g>
</svg>