<?xml version="1.0" encoding="utf-8"?>
<svg xmlns="http://www.w3.org/2000/svg" viewBox="-33.918 -13.687 55.2 23.839">
  <g transform="scale(1,-1)">
    <line id="du-135" x1="4.88" y1="0.621" x2="4.88" y2="11.535" stroke="black" stroke-width="0.203" stroke-linecap="square" />
    <line id="du-138" x1="9.42" y1="0.621" x2="9.42" y2="9.588" stroke="black" stroke-width="0.203" stroke-linecap="square" />
    <line id="du-139" x1="9.42" y1="9.803" x2="9.42" y2="10.056" stroke="black" stroke-width="0.203" stroke-linecap="square" />
    <line id="du-140" x1="9.42" y1="11.747" x2="9.42" y2="11.974" stroke="black" stroke-width="0.203" stroke-linecap="square" />
    <line id="du-141" x1="9.42" y1="10.271" x2="9.42" y2="10.986" stroke="black" stroke-width="0.203" stroke-linecap="square" />
    <line id="du-142" x1="9.42" y1="11.24" x2="9.42" y2="11.493" stroke="black" stroke-width="0.203" stroke-linecap="square" />
    <line id="du-875" x1="-7.573" y1="0.566" x2="-7.573" y2="-3.131" stroke="black" stroke-width="0.203" stroke-linecap="square" />
    <line id="du-877" x1="-8.386" y1="-5.588" x2="-10.517" y2="-5.588" stroke="black" stroke-width="0.203" stroke-linecap="square" />
    <line id="du-878" x1="-10.822" y1="-2.902" x2="-10.822" y2="0.566" stroke="black" stroke-width="0.203" stroke-linecap="square" />
    <line id="du-882" x1="-12.396" y1="-8.062" x2="-12.976" y2="-8.062" stroke="black" stroke-width="0.102" stroke-linecap="square" />
    <line id="du-884" x1="-10.822" y1="-3.95" x2="-10.822" y2="-3.51" stroke="black" stroke-width="0.203" stroke-linecap="square" />
    <line id="du-885" x1="-10.822" y1="-4.393" x2="-10.822" y2="-4.166" stroke="black" stroke-width="0.203" stroke-linecap="square" />
    <line id="du-886" x1="-10.822" y1="-3.118" x2="-10.822" y2="-3.295" stroke="black" stroke-width="0.203" stroke-linecap="square" />
    <line id="du-887" x1="-7.573" y1="-4.007" x2="-7.573" y2="-3.739" stroke="black" stroke-width="0.203" stroke-linecap="square" />
    <line id="du-888" x1="-7.573" y1="-4.45" x2="-7.573" y2="-4.223" stroke="black" stroke-width="0.203" stroke-linecap="square" />
    <line id="du-889" x1="-7.573" y1="-3.346" x2="-7.573" y2="-3.523" stroke="black" stroke-width="0.203" stroke-linecap="square" />
    <line id="du-891" x1="-7.608" y1="8.258" x2="-7.608" y2="7.699" stroke="black" stroke-width="0.203" stroke-linecap="square" />
    <line id="du-893" x1="-10.58" y1="4.988" x2="-10.58" y2="0.974" stroke="black" stroke-width="0.203" stroke-linecap="square" />
    <line id="du-895" x1="-10.58" y1="5.943" x2="-10.58" y2="5.787" stroke="black" stroke-width="0.203" stroke-linecap="square" />
    <line id="du-896" x1="-10.58" y1="5.204" x2="-10.58" y2="5.571" stroke="black" stroke-width="0.203" stroke-linecap="square" />
    <line id="du-902" x1="-8.116" y1="7.511" x2="-8.116" y2="7.127" stroke="black" stroke-width="0.203" stroke-linecap="square" />
    <line id="du-903" x1="-7.66" y1="6.544" x2="-8.027" y2="6.912" stroke="black" stroke-width="0.203" stroke-linecap="square" />
    <line id="du-906" x1="-10.58" y1="8.053" x2="-10.58" y2="7.52" stroke="black" stroke-width="0.203" stroke-linecap="square" />
    <line id="du-907" x1="-10.434" y1="7.032" x2="-10.491" y2="6.975" stroke="black" stroke-width="0.203" stroke-linecap="square" />
    <line id="du-908" x1="-10.491" y1="7.305" x2="-10.434" y2="7.248" stroke="black" stroke-width="0.203" stroke-linecap="square" />
    <line id="du-909" x1="-10.162" y1="7.305" x2="-10.218" y2="7.248" stroke="black" stroke-width="0.203" stroke-linecap="square" />
    <line id="du-910" x1="-8.116" y1="9.688" x2="-8.116" y2="9.84" stroke="black" stroke-width="0.102" stroke-linecap="square" />
    <line id="du-911" x1="-8.269" y1="9.992" x2="-8.523" y2="9.992" stroke="black" stroke-width="0.102" stroke-linecap="square" />
    <line id="du-912" x1="-8.675" y1="10.145" x2="-8.675" y2="10.279" stroke="black" stroke-width="0.102" stroke-linecap="square" />
    <line id="du-913" x1="-7.608" y1="9.688" x2="-7.608" y2="9.904" stroke="black" stroke-width="0.102" stroke-linecap="square" />
    <line id="du-914" x1="-8.675" y1="10.411" x2="-8.675" y2="10.777" stroke="black" stroke-width="0.102" stroke-linecap="square" />
    <line id="du-915" x1="-7.653" y1="10.012" x2="-7.743" y2="10.102" stroke="black" stroke-width="0.102" stroke-linecap="square" />
    <line id="du-916" x1="-7.788" y1="10.21" x2="-7.788" y2="10.262" stroke="black" stroke-width="0.102" stroke-linecap="square" />
    <line id="du-917" x1="-7.788" y1="10.394" x2="-7.788" y2="10.76" stroke="black" stroke-width="0.102" stroke-linecap="square" />
    <line id="du-944" x1="-2.853" y1="2.197" x2="-2.853" y2="0.995" stroke="black" stroke-width="0.203" stroke-linecap="square" />
    <line id="du-945" x1="-2.853" y1="8.158" x2="-2.853" y2="6.698" stroke="black" stroke-width="0.203" stroke-linecap="square" />
    <line id="du-946" x1="-2.853" y1="5.988" x2="-2.853" y2="5.674" stroke="black" stroke-width="0.203" stroke-linecap="square" />
    <line id="du-947" x1="-2.853" y1="6.482" x2="-2.853" y2="6.204" stroke="black" stroke-width="0.203" stroke-linecap="square" />
    <line id="du-948" x1="-2.853" y1="5.458" x2="-2.853" y2="5.23" stroke="black" stroke-width="0.203" stroke-linecap="square" />
    <line id="du-949" x1="-3.006" y1="2.324" x2="-4.225" y2="2.324" stroke="black" stroke-width="0.152" stroke-linecap="square" />
    <line id="du-950" x1="-4.225" y1="4.543" x2="-3.591" y2="4.543" stroke="black" stroke-width="0.152" stroke-linecap="square" />
    <line id="du-951" x1="-2.853" y1="4.67" x2="-2.853" y2="5.015" stroke="black" stroke-width="0.203" stroke-linecap="square" />
    <line id="du-952" x1="-3.416" y1="4.543" x2="-3.471" y2="4.543" stroke="black" stroke-width="0.152" stroke-linecap="square" />
    <line id="du-953" x1="-3.006" y1="4.543" x2="-3.297" y2="4.543" stroke="black" stroke-width="0.152" stroke-linecap="square" />
    <line id="du-954" x1="-2.853" y1="2.451" x2="-2.853" y2="4.416" stroke="black" stroke-width="0.203" stroke-linecap="square" />
    <line id="du-955" x1="-3.361" y1="8.158" x2="-3.361" y2="6.405" stroke="black" stroke-width="0.203" stroke-linecap="square" />
    <line id="du-956" x1="-3.666" y1="6.1" x2="-4.962" y2="6.1" stroke="black" stroke-width="0.203" stroke-linecap="square" />
    <line id="du-957" x1="-5.266" y1="6.405" x2="-5.266" y2="10.444" stroke="black" stroke-width="0.203" stroke-linecap="square" />
    <line id="du-958" x1="-3.361" y1="9.588" x2="-3.361" y2="9.791" stroke="black" stroke-width="0.102" stroke-linecap="square" />
    <line id="du-959" x1="-3.514" y1="9.943" x2="-4.276" y2="9.943" stroke="black" stroke-width="0.102" stroke-linecap="square" />
    <line id="du-960" x1="-4.428" y1="10.096" x2="-4.428" y2="10.147" stroke="black" stroke-width="0.102" stroke-linecap="square" />
    <line id="du-961" x1="-2.853" y1="9.588" x2="-2.853" y2="9.855" stroke="black" stroke-width="0.102" stroke-linecap="square" />
    <line id="du-962" x1="-2.854" y1="9.987" x2="-2.858" y2="10.325" stroke="black" stroke-width="0.102" stroke-linecap="square" />
    <line id="du-963" x1="-4.428" y1="10.279" x2="-4.428" y2="10.617" stroke="black" stroke-width="0.102" stroke-linecap="square" />
    <line id="du-991" x1="-13.108" y1="-8.623" x2="-13.108" y2="-8.215" stroke="black" stroke-width="0.102" stroke-linecap="square" />
    <line id="du-997" x1="-7.518" y1="-8.247" x2="-7.518" y2="-8.642" stroke="black" stroke-width="0.102" stroke-linecap="square" />
    <line id="du-998" x1="6.439" y1="-9.439" x2="6.439" y2="-9.288" stroke="black" stroke-width="0.102" stroke-linecap="square" />
    <line id="du-999" x1="12.072" y1="-9.439" x2="12.072" y2="-9.282" stroke="black" stroke-width="0.102" stroke-linecap="square" />
    <line id="du-1004" x1="-10.243" y1="3.194" x2="-10.243" y2="3.277" stroke="black" stroke-width="0.102" stroke-linecap="square" />
    <line id="du-1007" x1="-10.877" y1="-1.032" x2="-10.877" y2="-1.077" stroke="black" stroke-width="0.102" stroke-linecap="square" />
    <line id="du-1010" x1="-11.385" y1="-1.077" x2="-11.385" y2="-0.945" stroke="black" stroke-width="0.102" stroke-linecap="square" />
    <line id="du-1014" x1="-3.353" y1="6.318" x2="-3.353" y2="6.623" stroke="black" stroke-width="0.102" stroke-linecap="square" />
    <line id="du-1018" x1="19.104" y1="0.009" x2="19.104" y2="-0.296" stroke="black" stroke-width="0.102" stroke-linecap="square" />
    <line id="du-1037" x1="-8.675" y1="11.238" x2="-8.675" y2="10.909" stroke="black" stroke-width="0.102" stroke-linecap="square" />
    <line id="du-1038" x1="-4.428" y1="11.238" x2="-4.428" y2="10.749" stroke="black" stroke-width="0.102" stroke-linecap="square" />
    <line id="du-1039" x1="-21.213" y1="11.502" x2="-21.213" y2="11.718" stroke="black" stroke-width="0.102" stroke-linecap="square" />
    <line id="du-1040" x1="-20.705" y1="10.072" x2="-20.705" y2="9.463" stroke="black" stroke-width="0.203" stroke-linecap="square" />
    <line id="du-1041" x1="-21.714" y1="11.871" x2="-25.938" y2="11.871" stroke="black" stroke-width="0.102" stroke-linecap="square" />
    <line id="du-1042" x1="-26.09" y1="12.023" x2="-26.09" y2="12.2" stroke="black" stroke-width="0.102" stroke-linecap="square" />
    <line id="du-1043" x1="-21.01" y1="9.158" x2="-21.444" y2="9.158" stroke="black" stroke-width="0.203" stroke-linecap="square" />
    <line id="du-1044" x1="-21.708" y1="9.005" x2="-22.141" y2="8.254" stroke="black" stroke-width="0.203" stroke-linecap="square" />
    <line id="du-1045" x1="-22.405" y1="8.102" x2="-26.801" y2="8.102" stroke="black" stroke-width="0.203" stroke-linecap="square" />
    <line id="du-1046" x1="-27.106" y1="8.407" x2="-27.106" y2="11.15" stroke="black" stroke-width="0.203" stroke-linecap="square" />
    <line id="du-1047" x1="-26.801" y1="11.455" x2="-22.534" y2="11.455" stroke="black" stroke-width="0.203" stroke-linecap="square" />
    <line id="du-1048" x1="-21.321" y1="11.871" x2="-21.607" y2="11.871" stroke="black" stroke-width="0.102" stroke-linecap="square" />
    <line id="du-1049" x1="-26.09" y1="12.35" x2="-26.09" y2="12.405" stroke="black" stroke-width="0.102" stroke-linecap="square" />
  </g>
</svg>