<?xml version="1.0" encoding="utf-8"?>
<svg xmlns="http://www.w3.org/2000/svg" viewBox="-34.485 -31.672 64.597 49.853">
  <g transform="scale(1,-1)">
    <rect id="tm-34" x="10.95" y="11.47" width="0.3" height="0.3" stroke="black" stroke-width="0.02" fill="none" />
    <rect id="tm-35" x="8.562" y="11.47" width="0.3" height="0.3" stroke="black" stroke-width="0.02" fill="none" />
    <rect id="tm-38" x="4.628" y="1.31" width="0.3" height="0.3" stroke="black" stroke-width="0.02" fill="none" />
    <rect id="tm-39" x="4.628" y="4.054" width="0.3" height="0.3" stroke="black" stroke-width="0.02" fill="none" />
    <rect id="tm-40" x="4.628" y="6.797" width="0.3" height="0.3" stroke="black" stroke-width="0.02" fill="none" />
    <rect id="tm-41" x="4.628" y="9.54" width="0.3" height="0.3" stroke="black" stroke-width="0.02" fill="none" />
    <rect id="tm-44" x="9.168" y="1.31" width="0.3" height="0.3" stroke="black" stroke-width="0.02" fill="none" />
    <rect id="tm-45" x="9.168" y="4.054" width="0.3" height="0.3" stroke="black" stroke-width="0.02" fill="none" />
    <rect id="tm-46" x="9.168" y="6.797" width="0.3" height="0.3" stroke="black" stroke-width="0.02" fill="none" />
    <rect id="tm-47" x="9.168" y="9.083" width="0.3" height="0.3" stroke="black" stroke-width="0.02" fill="none" />
    <rect id="tm-48" x="4.831" y="8.168" width="0.3" height="0.3" stroke="black" stroke-width="0.02" fill="none" />
    <rect id="tm-49" x="4.831" y="5.425" width="0.3" height="0.3" stroke="black" stroke-width="0.02" fill="none" />
    <rect id="tm-50" x="4.831" y="2.682" width="0.3" height="0.3" stroke="black" stroke-width="0.02" fill="none" />
    <rect id="tm-51" x="9.372" y="7.94" width="0.3" height="0.3" stroke="black" stroke-width="0.02" fill="none" />
    <rect id="tm-52" x="9.372" y="5.425" width="0.3" height="0.3" stroke="black" stroke-width="0.02" fill="none" />
    <rect id="tm-53" x="9.372" y="2.682" width="0.3" height="0.3" stroke="black" stroke-width="0.02" fill="none" />
    <rect id="tm-57" x="2.421" y="-9.576" width="0.3" height="0.3" stroke="black" stroke-width="0.02" fill="none" />
    <rect id="tm-58" x="8.009" y="-9.576" width="0.3" height="0.3" stroke="black" stroke-width="0.02" fill="none" />
    <rect id="tm-308" x="-11.073" y="-1.299" width="0.3" height="0.3" stroke="black" stroke-width="0.02" fill="none" />
    <rect id="tm-309" x="-10.87" y="-1.299" width="0.3" height="0.3" stroke="black" stroke-width="0.02" fill="none" />
    <rect id="tm-310" x="-10.87" y="-2.671" width="0.3" height="0.3" stroke="black" stroke-width="0.02" fill="none" />
    <rect id="tm-311" x="-10.87" y="0.072" width="0.3" height="0.3" stroke="black" stroke-width="0.02" fill="none" />
    <rect id="tm-314" x="-10.629" y="2.831" width="0.3" height="0.3" stroke="black" stroke-width="0.02" fill="none" />
    <rect id="tm-315" x="-10.832" y="2.831" width="0.3" height="0.3" stroke="black" stroke-width="0.02" fill="none" />
    <rect id="tm-316" x="-10.629" y="4.203" width="0.3" height="0.3" stroke="black" stroke-width="0.02" fill="none" />
    <rect id="tm-317" x="-10.832" y="4.203" width="0.3" height="0.3" stroke="black" stroke-width="0.02" fill="none" />
    <rect id="tm-318" x="-10.629" y="1.46" width="0.3" height="0.3" stroke="black" stroke-width="0.02" fill="none" />
    <rect id="tm-319" x="-10.832" y="1.46" width="0.3" height="0.3" stroke="black" stroke-width="0.02" fill="none" />
    <rect id="tm-320" x="-11.199" y="9.64" width="0.3" height="0.3" stroke="black" stroke-width="0.02" fill="none" />
    <rect id="tm-321" x="-11.199" y="7.447" width="0.3" height="0.3" stroke="black" stroke-width="0.02" fill="none" />
    <rect id="tm-322" x="-7.938" y="11.075" width="0.3" height="0.3" stroke="black" stroke-width="0.02" fill="none" />
    <rect id="tm-329" x="-5.19" y="4.406" width="0.3" height="0.3" stroke="black" stroke-width="0.02" fill="none" />
    <rect id="tm-330" x="-5.19" y="2.047" width="0.3" height="0.3" stroke="black" stroke-width="0.02" fill="none" />
    <rect id="tm-331" x="-2.915" y="3.355" width="0.3" height="0.3" stroke="black" stroke-width="0.02" fill="none" />
    <rect id="tm-332" x="-2.915" y="1.446" width="0.3" height="0.3" stroke="black" stroke-width="0.02" fill="none" />
    <rect id="tm-333" x="-3.091" y="7.049" width="0.3" height="0.3" stroke="black" stroke-width="0.02" fill="none" />
    <rect id="tm-334" x="-2.915" y="7.483" width="0.3" height="0.3" stroke="black" stroke-width="0.02" fill="none" />
    <rect id="tm-335" x="-3.008" y="11.075" width="0.3" height="0.3" stroke="black" stroke-width="0.02" fill="none" />
    <rect id="tm-337" x="-7.668" y="-8.785" width="0.3" height="0.3" stroke="black" stroke-width="0.02" fill="none" />
    <rect id="tm-338" x="6.289" y="-9.582" width="0.3" height="0.3" stroke="black" stroke-width="0.02" fill="none" />
    <rect id="tm-339" x="11.922" y="-9.582" width="0.3" height="0.3" stroke="black" stroke-width="0.02" fill="none" />
    <rect id="tm-489" x="-7.825" y="-1.674" width="0.3" height="0.3" stroke="black" stroke-width="0.02" fill="none" />
    <rect id="tm-490" x="-7.825" y="0.072" width="0.3" height="0.3" stroke="black" stroke-width="0.02" fill="none" />
    <rect id="tm-491" x="-7.825" y="-2.83" width="0.3" height="0.3" stroke="black" stroke-width="0.02" fill="none" />
    <rect id="tm-495" x="-8.825" y="11.082" width="0.3" height="0.3" stroke="black" stroke-width="0.02" fill="none" />
    <rect id="tm-496" x="-4.578" y="11.082" width="0.3" height="0.3" stroke="black" stroke-width="0.02" fill="none" />
    <rect id="tm-497" x="-5.315" y="6.977" width="0.3" height="0.3" stroke="black" stroke-width="0.02" fill="none" />
    <rect id="tm-498" x="-5.315" y="9.624" width="0.3" height="0.3" stroke="black" stroke-width="0.02" fill="none" />
    <rect id="tm-499" x="-4.464" y="6.052" width="0.3" height="0.3" stroke="black" stroke-width="0.02" fill="none" />
    <rect id="tm-500" x="-27.154" y="8.906" width="0.3" height="0.3" stroke="black" stroke-width="0.02" fill="none" />
    <rect id="tm-501" x="-27.154" y="10.505" width="0.3" height="0.3" stroke="black" stroke-width="0.02" fill="none" />
    <rect id="tm-502" x="-26.291" y="8.054" width="0.3" height="0.3" stroke="black" stroke-width="0.02" fill="none" />
    <rect id="tm-503" x="-23.199" y="8.054" width="0.3" height="0.3" stroke="black" stroke-width="0.02" fill="none" />
    <rect id="tm-504" x="-24.753" y="8.054" width="0.3" height="0.3" stroke="black" stroke-width="0.02" fill="none" />
    <rect id="tm-505" x="-24.818" y="11.203" width="0.3" height="0.3" stroke="black" stroke-width="0.02" fill="none" />
    <rect id="tm-506" x="-26.291" y="11.203" width="0.3" height="0.3" stroke="black" stroke-width="0.02" fill="none" />
    <rect id="tm-507" x="-23.199" y="11.203" width="0.3" height="0.3" stroke="black" stroke-width="0.02" fill="none" />
  </g>
</svg>