<?xml version="1.0" encoding="utf-8"?>
<svg xmlns="http://www.w3.org/2000/svg" viewBox="-33.918 -13.687 55.2 23.839">
  <g transform="scale(1,-1)">
    <rect id="tm-34" x="10.95" y="11.47" width="0.3" height="0.3" fill="black" transform="rotate(180,11.1,11.62)" />
    <rect id="tm-35" x="8.562" y="11.47" width="0.3" height="0.3" fill="black" transform="rotate(180,8.712,11.62)" />
    <rect id="tm-38" x="4.628" y="1.31" width="0.3" height="0.3" fill="black" transform="rotate(240,4.778,1.46)" />
    <rect id="tm-39" x="4.628" y="4.054" width="0.3" height="0.3" fill="black" transform="rotate(240,4.778,4.204)" />
    <rect id="tm-40" x="4.628" y="6.797" width="0.3" height="0.3" fill="black" transform="rotate(240,4.778,6.947)" />
    <rect id="tm-41" x="4.628" y="9.54" width="0.3" height="0.3" fill="black" transform="rotate(240,4.778,9.69)" />
    <rect id="tm-44" x="9.168" y="1.31" width="0.3" height="0.3" fill="black" transform="rotate(240,9.318,1.46)" />
    <rect id="tm-45" x="9.168" y="4.054" width="0.3" height="0.3" fill="black" transform="rotate(240,9.318,4.204)" />
    <rect id="tm-46" x="9.168" y="6.797" width="0.3" height="0.3" fill="black" transform="rotate(240,9.318,6.947)" />
    <rect id="tm-47" x="9.168" y="9.083" width="0.3" height="0.3" fill="black" transform="rotate(240,9.318,9.233)" />
    <rect id="tm-48" x="4.831" y="8.168" width="0.3" height="0.3" fill="black" transform="rotate(240,4.981,8.318)" />
    <rect id="tm-49" x="4.831" y="5.425" width="0.3" height="0.3" fill="black" transform="rotate(240,4.981,5.575)" />
    <rect id="tm-50" x="4.831" y="2.682" width="0.3" height="0.3" fill="black" transform="rotate(240,4.981,2.832)" />
    <rect id="tm-51" x="9.372" y="7.94" width="0.3" height="0.3" fill="black" transform="rotate(240,9.522,8.09)" />
    <rect id="tm-52" x="9.372" y="5.425" width="0.3" height="0.3" fill="black" transform="rotate(240,9.522,5.575)" />
    <rect id="tm-53" x="9.372" y="2.682" width="0.3" height="0.3" fill="black" transform="rotate(240,9.522,2.832)" />
    <rect id="tm-57" x="2.421" y="-9.576" width="0.3" height="0.3" fill="black" transform="rotate(90,2.571,-9.426)" />
    <rect id="tm-58" x="8.009" y="-9.576" width="0.3" height="0.3" fill="black" transform="rotate(90,8.159,-9.426)" />
    <rect id="tm-304" x="-9.6" y="-5.636" width="0.3" height="0.3" fill="black" transform="rotate(90,-9.45,-5.486)" />
    <rect id="tm-305" x="-9.6" y="-5.839" width="0.3" height="0.3" fill="black" transform="rotate(90,-9.45,-5.689)" />
    <rect id="tm-306" x="-11.073" y="0.072" width="0.3" height="0.3" fill="black" transform="rotate(240,-10.923,0.222)" />
    <rect id="tm-307" x="-11.073" y="-2.671" width="0.3" height="0.3" fill="black" transform="rotate(240,-10.923,-2.521)" />
    <rect id="tm-308" x="-11.073" y="-1.299" width="0.3" height="0.3" fill="black" transform="rotate(240,-10.923,-1.149)" />
    <rect id="tm-309" x="-10.87" y="-1.299" width="0.3" height="0.3" fill="black" transform="rotate(240,-10.72,-1.149)" />
    <rect id="tm-310" x="-10.87" y="-2.671" width="0.3" height="0.3" fill="black" transform="rotate(240,-10.72,-2.521)" />
    <rect id="tm-311" x="-10.87" y="0.072" width="0.3" height="0.3" fill="black" transform="rotate(240,-10.72,0.222)" />
    <rect id="tm-314" x="-10.629" y="2.831" width="0.3" height="0.3" fill="black" transform="rotate(120,-10.479,2.981)" />
    <rect id="tm-315" x="-10.832" y="2.831" width="0.3" height="0.3" fill="black" transform="rotate(120,-10.682,2.981)" />
    <rect id="tm-316" x="-10.629" y="4.203" width="0.3" height="0.3" fill="black" transform="rotate(120,-10.479,4.353)" />
    <rect id="tm-317" x="-10.832" y="4.203" width="0.3" height="0.3" fill="black" transform="rotate(120,-10.682,4.353)" />
    <rect id="tm-318" x="-10.629" y="1.46" width="0.3" height="0.3" fill="black" transform="rotate(120,-10.479,1.61)" />
    <rect id="tm-319" x="-10.832" y="1.46" width="0.3" height="0.3" fill="black" transform="rotate(120,-10.682,1.61)" />
    <rect id="tm-320" x="-11.199" y="9.64" width="0.3" height="0.3" fill="black" transform="rotate(180,-11.049,9.79)" />
    <rect id="tm-321" x="-11.199" y="7.447" width="0.3" height="0.3" fill="black" transform="rotate(180,-11.049,7.597)" />
    <rect id="tm-322" x="-7.938" y="11.075" width="0.3" height="0.3" fill="black" transform="rotate(180,-7.788,11.225)" />
    <rect id="tm-329" x="-5.19" y="4.406" width="0.3" height="0.3" fill="black" transform="rotate(180,-5.04,4.556)" />
    <rect id="tm-330" x="-5.19" y="2.047" width="0.3" height="0.3" fill="black" transform="rotate(180,-5.04,2.197)" />
    <rect id="tm-331" x="-2.915" y="3.355" width="0.3" height="0.3" fill="black" transform="rotate(255.522,-2.765,3.505)" />
    <rect id="tm-332" x="-2.915" y="1.446" width="0.3" height="0.3" fill="black" transform="rotate(104.478,-2.765,1.596)" />
    <rect id="tm-333" x="-3.091" y="7.049" width="0.3" height="0.3" fill="black" transform="rotate(104.478,-2.941,7.199)" />
    <rect id="tm-334" x="-2.915" y="7.483" width="0.3" height="0.3" fill="black" transform="rotate(104.478,-2.765,7.633)" />
    <rect id="tm-335" x="-3.008" y="11.075" width="0.3" height="0.3" fill="black" transform="rotate(180,-2.858,11.225)" />
    <rect id="tm-337" x="-7.668" y="-8.785" width="0.3" height="0.3" fill="black" transform="rotate(90,-7.518,-8.635)" />
    <rect id="tm-338" x="6.289" y="-9.582" width="0.3" height="0.3" fill="black" transform="rotate(270,6.439,-9.432)" />
    <rect id="tm-339" x="11.922" y="-9.582" width="0.3" height="0.3" fill="black" transform="rotate(90,12.072,-9.432)" />
    <rect id="tm-489" x="-7.825" y="-1.674" width="0.3" height="0.3" fill="black" transform="rotate(120,-7.675,-1.524)" />
    <rect id="tm-490" x="-7.825" y="0.072" width="0.3" height="0.3" fill="black" transform="rotate(120,-7.675,0.222)" />
    <rect id="tm-491" x="-7.825" y="-2.83" width="0.3" height="0.3" fill="black" transform="rotate(120,-7.675,-2.68)" />
    <rect id="tm-495" x="-8.825" y="11.082" width="0.3" height="0.3" fill="black" transform="rotate(180,-8.675,11.232)" />
    <rect id="tm-496" x="-4.578" y="11.082" width="0.3" height="0.3" fill="black" transform="rotate(180,-4.428,11.232)" />
    <rect id="tm-497" x="-5.315" y="6.977" width="0.3" height="0.3" fill="black" transform="rotate(240,-5.165,7.127)" />
    <rect id="tm-498" x="-5.315" y="9.624" width="0.3" height="0.3" fill="black" transform="rotate(240,-5.165,9.774)" />
    <rect id="tm-499" x="-4.464" y="6.052" width="0.3" height="0.3" fill="black" transform="rotate(90,-4.314,6.202)" />
    <rect id="tm-500" x="-27.154" y="8.906" width="0.3" height="0.3" fill="black" transform="rotate(240,-27.004,9.056)" />
    <rect id="tm-501" x="-27.154" y="10.505" width="0.3" height="0.3" fill="black" transform="rotate(240,-27.004,10.655)" />
    <rect id="tm-502" x="-26.291" y="8.054" width="0.3" height="0.3" fill="black" transform="rotate(270,-26.141,8.204)" />
    <rect id="tm-503" x="-23.199" y="8.054" width="0.3" height="0.3" fill="black" transform="rotate(270,-23.049,8.204)" />
    <rect id="tm-504" x="-24.753" y="8.054" width="0.3" height="0.3" fill="black" transform="rotate(270,-24.603,8.204)" />
    <rect id="tm-505" x="-24.818" y="11.203" width="0.3" height="0.3" fill="black" transform="rotate(180,-24.668,11.353)" />
    <rect id="tm-506" x="-26.291" y="11.203" width="0.3" height="0.3" fill="black" transform="rotate(180,-26.141,11.353)" />
    <rect id="tm-507" x="-23.199" y="11.203" width="0.3" height="0.3" fill="black" transform="rotate(180,-23.049,11.353)" />
  </g>
</svg>