<?xml version="1.0" encoding="utf-8"?>
<svg xmlns="http://www.w3.org/2000/svg" viewBox="-34.315 -23.322 56.245 32.983">
  <g transform="scale(1,-1)">
    <line id="co-199" x1="18.365" y1="10.563" x2="19.641" y2="0.803" stroke="black" stroke-width="0.1" stroke-linecap="square" />
    <line id="co-200" x1="18.313" y1="10.954" x2="18.313" y2="10.954" stroke="black" stroke-width="0.1" stroke-linecap="square" />
    <line id="co-201" x1="5.749" y1="5.88" x2="5.749" y2="12.389" stroke="black" stroke-width="0.1" stroke-linecap="square" />
    <line id="co-207" x1="17.995" y1="5.029" x2="-7.767" y2="5.029" stroke="black" stroke-width="0.1" stroke-linecap="square" />
    <line id="co-208" x1="18.608" y1="5.182" x2="-4.339" y2="5.182" stroke="black" stroke-width="0.1" stroke-linecap="square" />
    <line id="co-209" x1="18.255" y1="5.334" x2="-4.301" y2="5.334" stroke="black" stroke-width="0.1" stroke-linecap="square" />
    <line id="co-210" x1="-5.418" y1="7.558" x2="-5.329" y2="7.469" stroke="black" stroke-width="0.1" stroke-linecap="square" />
    <line id="co-211" x1="-5.177" y1="8.241" x2="-5.418" y2="8.473" stroke="black" stroke-width="0.1" stroke-linecap="square" />
    <line id="co-212" x1="-8.147" y1="5.187" x2="-8.453" y2="5.493" stroke="black" stroke-width="0.1" stroke-linecap="square" />
    <line id="co-213" x1="-5.172" y1="7.089" x2="-5.172" y2="6.015" stroke="black" stroke-width="0.1" stroke-linecap="square" />
    <line id="co-214" x1="-4.719" y1="5.339" x2="-5.015" y2="5.635" stroke="black" stroke-width="0.1" stroke-linecap="square" />
    <line id="co-215" x1="-5.02" y1="6.053" x2="-5.02" y2="7.861" stroke="black" stroke-width="0.1" stroke-linecap="square" />
    <line id="co-216" x1="-4.681" y1="5.492" x2="-4.862" y2="5.673" stroke="black" stroke-width="0.1" stroke-linecap="square" />
    <line id="co-271" x1="18.387" y1="5.487" x2="6.142" y2="5.487" stroke="black" stroke-width="0.1" stroke-linecap="square" />
    <line id="co-272" x1="19.012" y1="4.827" x2="19.54" y2="0.789" stroke="black" stroke-width="0.1" stroke-linecap="square" />
    <line id="co-273" x1="19.075" y1="5.131" x2="19.641" y2="0.802" stroke="black" stroke-width="0.1" stroke-linecap="square" />
    <line id="co-274" x1="18.993" y1="4.979" x2="19.54" y2="0.788" stroke="black" stroke-width="0.1" stroke-linecap="square" />
    <line id="co-275" x1="18.93" y1="4.674" x2="19.44" y2="0.775" stroke="black" stroke-width="0.1" stroke-linecap="square" />
    <line id="co-277" x1="-14.887" y1="4.877" x2="-25.601" y2="4.877" stroke="black" stroke-width="0.1" stroke-linecap="square" />
    <line id="co-278" x1="18.95" y1="4.522" x2="19.44" y2="0.774" stroke="black" stroke-width="0.1" stroke-linecap="square" />
    <line id="co-279" x1="-27.194" y1="8.663" x2="-26.655" y2="7.73" stroke="black" stroke-width="0.1" stroke-linecap="square" />
    <line id="co-280" x1="-26.565" y1="7.395" x2="-26.565" y2="5.841" stroke="black" stroke-width="0.1" stroke-linecap="square" />
    <line id="co-281" x1="-25.981" y1="5.034" x2="-26.408" y2="5.461" stroke="black" stroke-width="0.1" stroke-linecap="square" />
    <line id="co-282" x1="18.545" y1="4.877" x2="-13.307" y2="4.877" stroke="black" stroke-width="0.1" stroke-linecap="square" />
    <line id="co-283" x1="-13.643" y1="4.877" x2="-14.551" y2="4.877" stroke="black" stroke-width="0.1" stroke-linecap="square" />
    <line id="co-287" x1="0.277" y1="8.584" x2="0.277" y2="8.584" stroke="black" stroke-width="0.1" stroke-linecap="square" />
    <line id="co-288" x1="-28.651" y1="10.514" x2="-27.099" y2="10.514" stroke="black" stroke-width="0.1" stroke-linecap="square" />
    <line id="co-289" x1="-29.045" y1="10.514" x2="-29.045" y2="10.514" stroke="black" stroke-width="0.1" stroke-linecap="square" />
    <line id="co-290" x1="-26.694" y1="10.28" x2="-26.503" y2="9.949" stroke="black" stroke-width="0.1" stroke-linecap="square" />
    <line id="co-291" x1="-26.413" y1="5.904" x2="-26.413" y2="7.467" stroke="black" stroke-width="0.1" stroke-linecap="square" />
    <line id="co-292" x1="-26.413" y1="9.613" x2="-26.413" y2="8.987" stroke="black" stroke-width="0.1" stroke-linecap="square" />
    <line id="co-293" x1="-26.413" y1="7.682" x2="-26.413" y2="8.773" stroke="black" stroke-width="0.1" stroke-linecap="square" />
    <line id="co-294" x1="-25.918" y1="5.187" x2="-26.255" y2="5.524" stroke="black" stroke-width="0.1" stroke-linecap="square" />
    <line id="co-295" x1="-25.538" y1="5.029" x2="-14.887" y2="5.029" stroke="black" stroke-width="0.1" stroke-linecap="square" />
    <line id="co-296" x1="-13.818" y1="5.029" x2="-14.551" y2="5.029" stroke="black" stroke-width="0.1" stroke-linecap="square" />
    <line id="co-297" x1="-13.481" y1="5.029" x2="-6.241" y2="5.029" stroke="black" stroke-width="0.1" stroke-linecap="square" />
    <line id="co-298" x1="-5.37" y1="7.093" x2="-5.499" y2="7.317" stroke="black" stroke-width="0.1" stroke-linecap="square" />
    <line id="co-300" x1="-5.28" y1="6.757" x2="-5.28" y2="5.991" stroke="black" stroke-width="0.1" stroke-linecap="square" />
    <line id="co-301" x1="-5.861" y1="5.187" x2="-5.437" y2="5.611" stroke="black" stroke-width="0.1" stroke-linecap="square" />
    <line id="co-302" x1="9.877" y1="-5.525" x2="9.877" y2="-4.204" stroke="black" stroke-width="0.1" stroke-linecap="square" />
    <line id="co-303" x1="4.239" y1="-5.525" x2="4.239" y2="-4.204" stroke="black" stroke-width="0.1" stroke-linecap="square" />
    <line id="co-304" x1="9.877" y1="-0.892" x2="9.877" y2="0.165" stroke="black" stroke-width="0.1" stroke-linecap="square" />
    <line id="co-305" x1="9.877" y1="-2.06" x2="9.877" y2="-1.471" stroke="black" stroke-width="0.1" stroke-linecap="square" />
    <line id="co-306" x1="9.877" y1="-2.985" x2="9.877" y2="-2.639" stroke="black" stroke-width="0.1" stroke-linecap="square" />
    <line id="co-307" x1="9.877" y1="-2.448" x2="9.877" y2="-2.251" stroke="black" stroke-width="0.1" stroke-linecap="square" />
    <line id="co-308" x1="9.877" y1="-1.082" x2="9.877" y2="-1.28" stroke="black" stroke-width="0.1" stroke-linecap="square" />
    <line id="co-309" x1="4.239" y1="-0.892" x2="4.239" y2="0.165" stroke="black" stroke-width="0.1" stroke-linecap="square" />
    <line id="co-310" x1="4.239" y1="-2.06" x2="4.239" y2="-1.471" stroke="black" stroke-width="0.1" stroke-linecap="square" />
    <line id="co-311" x1="4.239" y1="-2.985" x2="4.239" y2="-2.639" stroke="black" stroke-width="0.1" stroke-linecap="square" />
    <line id="co-312" x1="4.239" y1="-2.448" x2="4.239" y2="-2.251" stroke="black" stroke-width="0.1" stroke-linecap="square" />
    <line id="co-313" x1="4.239" y1="-1.082" x2="4.239" y2="-1.28" stroke="black" stroke-width="0.1" stroke-linecap="square" />
    <line id="co-314" x1="-2.619" y1="-5.525" x2="-2.619" y2="-4.204" stroke="black" stroke-width="0.1" stroke-linecap="square" />
    <line id="co-315" x1="-2.619" y1="-0.892" x2="-2.619" y2="0.165" stroke="black" stroke-width="0.1" stroke-linecap="square" />
    <line id="co-316" x1="-2.619" y1="-2.06" x2="-2.619" y2="-1.471" stroke="black" stroke-width="0.1" stroke-linecap="square" />
    <line id="co-317" x1="-2.619" y1="-2.985" x2="-2.619" y2="-2.639" stroke="black" stroke-width="0.1" stroke-linecap="square" />
    <line id="co-318" x1="-2.619" y1="-2.448" x2="-2.619" y2="-2.251" stroke="black" stroke-width="0.1" stroke-linecap="square" />
    <line id="co-319" x1="-2.619" y1="-1.082" x2="-2.619" y2="-1.28" stroke="black" stroke-width="0.1" stroke-linecap="square" />
    <line id="co-320" x1="-8.458" y1="-5.525" x2="-8.458" y2="-4.204" stroke="black" stroke-width="0.1" stroke-linecap="square" />
    <line id="co-321" x1="-8.458" y1="-0.892" x2="-8.458" y2="0.165" stroke="black" stroke-width="0.1" stroke-linecap="square" />
    <line id="co-322" x1="-8.458" y1="-2.06" x2="-8.458" y2="-1.471" stroke="black" stroke-width="0.1" stroke-linecap="square" />
    <line id="co-323" x1="-8.458" y1="-2.985" x2="-8.458" y2="-2.639" stroke="black" stroke-width="0.1" stroke-linecap="square" />
    <line id="co-324" x1="-8.458" y1="-2.448" x2="-8.458" y2="-2.251" stroke="black" stroke-width="0.1" stroke-linecap="square" />
    <line id="co-325" x1="-8.458" y1="-1.082" x2="-8.458" y2="-1.28" stroke="black" stroke-width="0.1" stroke-linecap="square" />
    <line id="co-326" x1="-12.573" y1="-5.525" x2="-12.573" y2="-4.204" stroke="black" stroke-width="0.1" stroke-linecap="square" />
    <line id="co-327" x1="-12.573" y1="-0.892" x2="-12.573" y2="0.165" stroke="black" stroke-width="0.1" stroke-linecap="square" />
    <line id="co-328" x1="-12.573" y1="-2.06" x2="-12.573" y2="-1.471" stroke="black" stroke-width="0.1" stroke-linecap="square" />
    <line id="co-329" x1="-12.573" y1="-2.985" x2="-12.573" y2="-2.639" stroke="black" stroke-width="0.1" stroke-linecap="square" />
    <line id="co-330" x1="-12.573" y1="-2.448" x2="-12.573" y2="-2.251" stroke="black" stroke-width="0.1" stroke-linecap="square" />
    <line id="co-331" x1="-12.573" y1="-1.082" x2="-12.573" y2="-1.28" stroke="black" stroke-width="0.1" stroke-linecap="square" />
    <line id="co-332" x1="-3.839" y1="6.732" x2="-3.839" y2="7.074" stroke="black" stroke-width="0.1" stroke-linecap="square" />
    <line id="co-333" x1="-3.839" y1="5.563" x2="-3.839" y2="6.153" stroke="black" stroke-width="0.1" stroke-linecap="square" />
    <line id="co-334" x1="-3.839" y1="4.507" x2="-3.839" y2="4.984" stroke="black" stroke-width="0.1" stroke-linecap="square" />
    <line id="co-335" x1="-3.839" y1="5.175" x2="-3.839" y2="5.372" stroke="black" stroke-width="0.1" stroke-linecap="square" />
    <line id="co-336" x1="-3.839" y1="6.541" x2="-3.839" y2="6.343" stroke="black" stroke-width="0.1" stroke-linecap="square" />
    <line id="co-337" x1="-3.839" y1="8.293" x2="-3.839" y2="9.614" stroke="black" stroke-width="0.1" stroke-linecap="square" />
    <line id="co-338" x1="-2.623" y1="3.924" x2="-2.623" y2="4.129" stroke="black" stroke-width="0.1" stroke-linecap="square" />
    <line id="co-339" x1="-2.812" y1="4.318" x2="-3.65" y2="4.318" stroke="black" stroke-width="0.1" stroke-linecap="square" />
    <line id="co-340" x1="-2.416" y1="2.045" x2="-0.096" y2="2.045" stroke="black" stroke-width="0.1" stroke-linecap="square" />
    <line id="co-341" x1="-2.619" y1="2.207" x2="-2.619" y2="2.705" stroke="black" stroke-width="0.1" stroke-linecap="square" />
    <line id="co-342" x1="-2.619" y1="1.384" x2="-2.619" y2="1.902" stroke="black" stroke-width="0.1" stroke-linecap="square" />
    <line id="co-343" x1="-4.984" y1="2.045" x2="-2.823" y2="2.045" stroke="black" stroke-width="0.1" stroke-linecap="square" />
    <line id="co-344" x1="0.953" y1="2.045" x2="2.425" y2="2.045" stroke="black" stroke-width="0.1" stroke-linecap="square" />
    <line id="co-345" x1="0.284" y1="2.045" x2="0.573" y2="2.045" stroke="black" stroke-width="0.1" stroke-linecap="square" />
    <line id="co-346" x1="2.805" y1="2.045" x2="3.094" y2="2.045" stroke="black" stroke-width="0.1" stroke-linecap="square" />
    <line id="co-347" x1="3.474" y1="2.045" x2="4.035" y2="2.045" stroke="black" stroke-width="0.1" stroke-linecap="square" />
    <line id="co-348" x1="4.442" y1="2.045" x2="6.102" y2="2.045" stroke="black" stroke-width="0.1" stroke-linecap="square" />
    <line id="co-349" x1="7.055" y1="2.045" x2="7.524" y2="2.045" stroke="black" stroke-width="0.1" stroke-linecap="square" />
    <line id="co-350" x1="6.482" y1="2.045" x2="6.675" y2="2.045" stroke="black" stroke-width="0.1" stroke-linecap="square" />
    <line id="co-351" x1="7.904" y1="2.045" x2="8.098" y2="2.045" stroke="black" stroke-width="0.1" stroke-linecap="square" />
    <line id="co-352" x1="8.478" y1="2.045" x2="9.674" y2="2.045" stroke="black" stroke-width="0.1" stroke-linecap="square" />
    <line id="co-353" x1="-6.407" y1="2.045" x2="-5.938" y2="2.045" stroke="black" stroke-width="0.1" stroke-linecap="square" />
    <line id="co-354" x1="-6.98" y1="2.045" x2="-6.787" y2="2.045" stroke="black" stroke-width="0.1" stroke-linecap="square" />
    <line id="co-355" x1="-5.558" y1="2.045" x2="-5.364" y2="2.045" stroke="black" stroke-width="0.1" stroke-linecap="square" />
    <line id="co-356" x1="-7.36" y1="2.045" x2="-8.255" y2="2.045" stroke="black" stroke-width="0.1" stroke-linecap="square" />
    <line id="co-357" x1="-8.661" y1="2.045" x2="-12.37" y2="2.045" stroke="black" stroke-width="0.1" stroke-linecap="square" />
    <line id="co-358" x1="-14.218" y1="2.045" x2="-17.97" y2="2.045" stroke="black" stroke-width="0.1" stroke-linecap="square" />
    <line id="co-359" x1="-13.838" y1="2.045" x2="-13.391" y2="2.045" stroke="black" stroke-width="0.1" stroke-linecap="square" />
    <line id="co-360" x1="-13.011" y1="2.045" x2="-12.776" y2="2.045" stroke="black" stroke-width="0.1" stroke-linecap="square" />
    <line id="co-361" x1="-18.377" y1="2.045" x2="-20.161" y2="2.045" stroke="black" stroke-width="0.1" stroke-linecap="square" />
    <line id="co-362" x1="-21.571" y1="2.045" x2="-21.101" y2="2.045" stroke="black" stroke-width="0.1" stroke-linecap="square" />
    <line id="co-363" x1="-22.131" y1="2.045" x2="-21.951" y2="2.045" stroke="black" stroke-width="0.1" stroke-linecap="square" />
    <line id="co-364" x1="-20.541" y1="2.045" x2="-20.721" y2="2.045" stroke="black" stroke-width="0.1" stroke-linecap="square" />
    <line id="co-365" x1="-22.511" y1="2.045" x2="-24.301" y2="2.045" stroke="black" stroke-width="0.1" stroke-linecap="square" />
    <line id="co-366" x1="-24.714" y1="2.045" x2="-26.498" y2="2.045" stroke="black" stroke-width="0.1" stroke-linecap="square" />
    <line id="co-367" x1="-27.908" y1="2.045" x2="-27.439" y2="2.045" stroke="black" stroke-width="0.1" stroke-linecap="square" />
    <line id="co-368" x1="-28.468" y1="2.045" x2="-28.288" y2="2.045" stroke="black" stroke-width="0.1" stroke-linecap="square" />
    <line id="co-369" x1="-26.878" y1="2.045" x2="-27.059" y2="2.045" stroke="black" stroke-width="0.1" stroke-linecap="square" />
    <line id="co-370" x1="-28.848" y1="2.045" x2="-30.474" y2="2.045" stroke="black" stroke-width="0.1" stroke-linecap="square" />
    <line id="co-371" x1="-8.458" y1="2.207" x2="-8.458" y2="2.705" stroke="black" stroke-width="0.1" stroke-linecap="square" />
    <line id="co-372" x1="-8.458" y1="1.384" x2="-8.458" y2="1.902" stroke="black" stroke-width="0.1" stroke-linecap="square" />
    <line id="co-373" x1="-9.22" y1="6.732" x2="-9.22" y2="7.074" stroke="black" stroke-width="0.1" stroke-linecap="square" />
    <line id="co-374" x1="-9.22" y1="5.563" x2="-9.22" y2="6.153" stroke="black" stroke-width="0.1" stroke-linecap="square" />
    <line id="co-375" x1="-9.22" y1="4.507" x2="-9.22" y2="4.984" stroke="black" stroke-width="0.1" stroke-linecap="square" />
    <line id="co-376" x1="-9.22" y1="5.175" x2="-9.22" y2="5.372" stroke="black" stroke-width="0.1" stroke-linecap="square" />
    <line id="co-377" x1="-9.22" y1="6.541" x2="-9.22" y2="6.343" stroke="black" stroke-width="0.1" stroke-linecap="square" />
    <line id="co-378" x1="-8.462" y1="3.924" x2="-8.462" y2="4.129" stroke="black" stroke-width="0.1" stroke-linecap="square" />
    <line id="co-379" x1="-8.651" y1="4.318" x2="-9.031" y2="4.318" stroke="black" stroke-width="0.1" stroke-linecap="square" />
    <line id="co-380" x1="-9.22" y1="8.293" x2="-9.22" y2="9.614" stroke="black" stroke-width="0.1" stroke-linecap="square" />
    <line id="co-381" x1="-12.573" y1="2.207" x2="-12.573" y2="2.705" stroke="black" stroke-width="0.1" stroke-linecap="square" />
    <line id="co-382" x1="-12.573" y1="1.384" x2="-12.573" y2="1.902" stroke="black" stroke-width="0.1" stroke-linecap="square" />
    <line id="co-383" x1="-18.174" y1="6.732" x2="-18.174" y2="7.074" stroke="black" stroke-width="0.1" stroke-linecap="square" />
    <line id="co-384" x1="-18.174" y1="5.563" x2="-18.174" y2="6.153" stroke="black" stroke-width="0.1" stroke-linecap="square" />
    <line id="co-385" x1="-18.174" y1="3.924" x2="-18.174" y2="4.984" stroke="black" stroke-width="0.1" stroke-linecap="square" />
    <line id="co-386" x1="-18.174" y1="5.175" x2="-18.174" y2="5.372" stroke="black" stroke-width="0.1" stroke-linecap="square" />
    <line id="co-387" x1="-18.174" y1="6.541" x2="-18.174" y2="6.343" stroke="black" stroke-width="0.1" stroke-linecap="square" />
    <line id="co-388" x1="-18.174" y1="2.207" x2="-18.174" y2="2.705" stroke="black" stroke-width="0.1" stroke-linecap="square" />
    <line id="co-389" x1="-18.174" y1="1.384" x2="-18.174" y2="1.902" stroke="black" stroke-width="0.1" stroke-linecap="square" />
    <line id="co-390" x1="-18.174" y1="-0.888" x2="-18.174" y2="0.165" stroke="black" stroke-width="0.1" stroke-linecap="square" />
    <line id="co-391" x1="-18.174" y1="-2.057" x2="-18.174" y2="-1.467" stroke="black" stroke-width="0.1" stroke-linecap="square" />
    <line id="co-392" x1="-18.174" y1="-2.636" x2="-18.174" y2="-2.985" stroke="black" stroke-width="0.1" stroke-linecap="square" />
    <line id="co-393" x1="-18.174" y1="-2.445" x2="-18.174" y2="-2.248" stroke="black" stroke-width="0.1" stroke-linecap="square" />
    <line id="co-394" x1="-18.174" y1="-1.079" x2="-18.174" y2="-1.277" stroke="black" stroke-width="0.1" stroke-linecap="square" />
    <line id="co-395" x1="-18.174" y1="-4.204" x2="-18.174" y2="-5.525" stroke="black" stroke-width="0.1" stroke-linecap="square" />
    <line id="co-396" x1="-18.174" y1="8.293" x2="-18.174" y2="9.614" stroke="black" stroke-width="0.1" stroke-linecap="square" />
    <line id="co-397" x1="-24.505" y1="2.207" x2="-24.505" y2="2.705" stroke="black" stroke-width="0.1" stroke-linecap="square" />
    <line id="co-398" x1="-24.505" y1="1.384" x2="-24.505" y2="1.902" stroke="black" stroke-width="0.1" stroke-linecap="square" />
    <line id="co-399" x1="-30.677" y1="2.207" x2="-30.677" y2="2.705" stroke="black" stroke-width="0.1" stroke-linecap="square" />
    <line id="co-400" x1="-30.677" y1="1.384" x2="-30.677" y2="1.902" stroke="black" stroke-width="0.1" stroke-linecap="square" />
    <line id="co-401" x1="-24.505" y1="6.732" x2="-24.505" y2="7.074" stroke="black" stroke-width="0.1" stroke-linecap="square" />
    <line id="co-402" x1="-24.505" y1="5.563" x2="-24.505" y2="6.153" stroke="black" stroke-width="0.1" stroke-linecap="square" />
    <line id="co-403" x1="-24.505" y1="3.924" x2="-24.505" y2="4.984" stroke="black" stroke-width="0.1" stroke-linecap="square" />
    <line id="co-404" x1="-24.505" y1="5.175" x2="-24.505" y2="5.372" stroke="black" stroke-width="0.1" stroke-linecap="square" />
    <line id="co-405" x1="-24.505" y1="6.541" x2="-24.505" y2="6.343" stroke="black" stroke-width="0.1" stroke-linecap="square" />
    <line id="co-406" x1="-24.505" y1="8.293" x2="-24.505" y2="9.614" stroke="black" stroke-width="0.1" stroke-linecap="square" />
    <line id="co-407" x1="-24.505" y1="-0.888" x2="-24.505" y2="-0.643" stroke="black" stroke-width="0.1" stroke-linecap="square" />
    <line id="co-408" x1="-24.505" y1="-2.057" x2="-24.505" y2="-1.467" stroke="black" stroke-width="0.1" stroke-linecap="square" />
    <line id="co-409" x1="-24.505" y1="-2.636" x2="-24.505" y2="-2.985" stroke="black" stroke-width="0.1" stroke-linecap="square" />
    <line id="co-410" x1="-24.505" y1="-2.445" x2="-24.505" y2="-2.248" stroke="black" stroke-width="0.1" stroke-linecap="square" />
    <line id="co-411" x1="-24.505" y1="-1.079" x2="-24.505" y2="-1.277" stroke="black" stroke-width="0.1" stroke-linecap="square" />
    <line id="co-412" x1="-24.581" y1="-4.204" x2="-24.581" y2="-5.525" stroke="black" stroke-width="0.1" stroke-linecap="square" />
    <line id="co-413" x1="-30.677" y1="-0.888" x2="-30.677" y2="0.165" stroke="black" stroke-width="0.1" stroke-linecap="square" />
    <line id="co-414" x1="-30.677" y1="-2.057" x2="-30.677" y2="-1.467" stroke="black" stroke-width="0.1" stroke-linecap="square" />
    <line id="co-415" x1="-30.677" y1="-2.636" x2="-30.677" y2="-2.985" stroke="black" stroke-width="0.1" stroke-linecap="square" />
    <line id="co-416" x1="-30.677" y1="-2.445" x2="-30.677" y2="-2.248" stroke="black" stroke-width="0.1" stroke-linecap="square" />
    <line id="co-417" x1="-30.677" y1="-1.079" x2="-30.677" y2="-1.277" stroke="black" stroke-width="0.1" stroke-linecap="square" />
    <line id="co-418" x1="-30.677" y1="-4.204" x2="-30.677" y2="-5.525" stroke="black" stroke-width="0.1" stroke-linecap="square" />
    <line id="co-419" x1="4.239" y1="6.732" x2="4.239" y2="7.074" stroke="black" stroke-width="0.1" stroke-linecap="square" />
    <line id="co-420" x1="4.239" y1="5.563" x2="4.239" y2="6.153" stroke="black" stroke-width="0.1" stroke-linecap="square" />
    <line id="co-421" x1="4.239" y1="3.924" x2="4.239" y2="4.984" stroke="black" stroke-width="0.1" stroke-linecap="square" />
    <line id="co-422" x1="4.239" y1="5.175" x2="4.239" y2="5.372" stroke="black" stroke-width="0.1" stroke-linecap="square" />
    <line id="co-423" x1="4.239" y1="6.541" x2="4.239" y2="6.343" stroke="black" stroke-width="0.1" stroke-linecap="square" />
    <line id="co-424" x1="4.239" y1="2.207" x2="4.239" y2="2.705" stroke="black" stroke-width="0.1" stroke-linecap="square" />
    <line id="co-425" x1="4.239" y1="1.384" x2="4.239" y2="1.902" stroke="black" stroke-width="0.1" stroke-linecap="square" />
    <line id="co-426" x1="4.239" y1="8.293" x2="4.239" y2="9.614" stroke="black" stroke-width="0.1" stroke-linecap="square" />
    <line id="co-427" x1="9.877" y1="6.732" x2="9.877" y2="7.074" stroke="black" stroke-width="0.1" stroke-linecap="square" />
    <line id="co-428" x1="9.877" y1="5.563" x2="9.877" y2="6.153" stroke="black" stroke-width="0.1" stroke-linecap="square" />
    <line id="co-429" x1="9.877" y1="3.924" x2="9.877" y2="4.984" stroke="black" stroke-width="0.1" stroke-linecap="square" />
    <line id="co-430" x1="9.877" y1="5.175" x2="9.877" y2="5.372" stroke="black" stroke-width="0.1" stroke-linecap="square" />
    <line id="co-431" x1="9.877" y1="6.541" x2="9.877" y2="6.343" stroke="black" stroke-width="0.1" stroke-linecap="square" />
    <line id="co-432" x1="9.877" y1="2.207" x2="9.877" y2="2.705" stroke="black" stroke-width="0.1" stroke-linecap="square" />
    <line id="co-433" x1="9.877" y1="1.384" x2="9.877" y2="1.902" stroke="black" stroke-width="0.1" stroke-linecap="square" />
    <line id="co-434" x1="9.877" y1="8.293" x2="9.877" y2="9.614" stroke="black" stroke-width="0.1" stroke-linecap="square" />
    <line id="co-435" x1="12.706" y1="2.045" x2="10.081" y2="2.045" stroke="black" stroke-width="0.1" stroke-linecap="square" />
    <line id="co-436" x1="13.086" y1="2.045" x2="13.813" y2="2.045" stroke="black" stroke-width="0.1" stroke-linecap="square" />
    <line id="co-437" x1="14.193" y1="2.045" x2="14.351" y2="2.045" stroke="black" stroke-width="0.1" stroke-linecap="square" />
    <line id="co-438" x1="14.554" y1="2.197" x2="14.554" y2="2.705" stroke="black" stroke-width="0.1" stroke-linecap="square" />
    <line id="co-439" x1="17.158" y1="2.234" x2="17.158" y2="2.705" stroke="black" stroke-width="0.1" stroke-linecap="square" />
    <line id="co-440" x1="16.969" y1="2.045" x2="14.757" y2="2.045" stroke="black" stroke-width="0.1" stroke-linecap="square" />
    <line id="co-441" x1="14.554" y1="6.753" x2="14.554" y2="7.074" stroke="black" stroke-width="0.1" stroke-linecap="square" />
    <line id="co-442" x1="14.554" y1="5.585" x2="14.554" y2="6.131" stroke="black" stroke-width="0.1" stroke-linecap="square" />
    <line id="co-443" x1="14.554" y1="3.924" x2="14.554" y2="4.962" stroke="black" stroke-width="0.1" stroke-linecap="square" />
    <line id="co-444" x1="14.554" y1="5.19" x2="14.554" y2="5.357" stroke="black" stroke-width="0.1" stroke-linecap="square" />
    <line id="co-445" x1="14.554" y1="6.526" x2="14.554" y2="6.359" stroke="black" stroke-width="0.1" stroke-linecap="square" />
    <line id="co-446" x1="14.554" y1="8.293" x2="14.554" y2="9.614" stroke="black" stroke-width="0.1" stroke-linecap="square" />
    <line id="co-447" x1="16.956" y1="11.356" x2="14.743" y2="11.356" stroke="black" stroke-width="0.1" stroke-linecap="square" />
    <line id="co-448" x1="14.554" y1="10.833" x2="14.554" y2="11.168" stroke="black" stroke-width="0.1" stroke-linecap="square" />
    <line id="co-449" x1="17.145" y1="10.833" x2="17.145" y2="11.168" stroke="black" stroke-width="0.1" stroke-linecap="square" />
    <line id="co-450" x1="17.145" y1="8.293" x2="17.145" y2="9.614" stroke="black" stroke-width="0.1" stroke-linecap="square" />
    <line id="co-451" x1="14.554" y1="1.346" x2="14.554" y2="1.892" stroke="black" stroke-width="0.1" stroke-linecap="square" />
    <line id="co-452" x1="15.758" y1="-1.26" x2="15.758" y2="0.876" stroke="black" stroke-width="0.1" stroke-linecap="square" />
    <line id="co-453" x1="15.758" y1="-1.653" x2="15.758" y2="-1.653" stroke="black" stroke-width="0.1" stroke-linecap="square" />
    <line id="co-454" x1="14.554" y1="0.952" x2="14.554" y2="0.952" stroke="black" stroke-width="0.1" stroke-linecap="square" />
    <line id="co-455" x1="16.993" y1="-1.707" x2="16.993" y2="-1.547" stroke="black" stroke-width="0.1" stroke-linecap="square" />
    <line id="co-456" x1="16.993" y1="-1.356" x2="16.993" y2="-1.184" stroke="black" stroke-width="0.1" stroke-linecap="square" />
    <line id="co-457" x1="16.993" y1="-0.689" x2="16.993" y2="-0.993" stroke="black" stroke-width="0.1" stroke-linecap="square" />
    <line id="co-458" x1="16.993" y1="-2.175" x2="16.993" y2="-2.347" stroke="black" stroke-width="0.1" stroke-linecap="square" />
    <line id="co-459" x1="16.993" y1="-2.538" x2="16.993" y2="-2.823" stroke="black" stroke-width="0.1" stroke-linecap="square" />
    <line id="co-460" x1="16.993" y1="-3.127" x2="16.993" y2="-4.347" stroke="black" stroke-width="0.1" stroke-linecap="square" />
    <line id="co-461" x1="16.993" y1="-6.48" x2="16.993" y2="-4.651" stroke="black" stroke-width="0.1" stroke-linecap="square" />
    <line id="co-462" x1="15.758" y1="-2.003" x2="15.758" y2="-2.003" stroke="black" stroke-width="0.1" stroke-linecap="square" />
    <line id="co-463" x1="15.946" y1="-2.003" x2="16.091" y2="-2.003" stroke="black" stroke-width="0.1" stroke-linecap="square" />
    <line id="co-464" x1="-0.116" y1="8.584" x2="-4.987" y2="8.584" stroke="black" stroke-width="0.1" stroke-linecap="square" />
    <line id="co-466" x1="-5.381" y1="8.391" x2="-5.454" y2="8.299" stroke="black" stroke-width="0.1" stroke-linecap="square" />
    <line id="co-467" x1="-24.505" y1="10.833" x2="-24.505" y2="11.238" stroke="black" stroke-width="0.1" stroke-linecap="square" />
    <line id="co-468" x1="-24.694" y1="11.427" x2="-26.622" y2="11.427" stroke="black" stroke-width="0.1" stroke-linecap="square" />
    <line id="co-469" x1="-27.353" y1="11.427" x2="-27.766" y2="11.427" stroke="black" stroke-width="0.1" stroke-linecap="square" />
    <line id="co-470" x1="-26.813" y1="11.427" x2="-27.162" y2="11.427" stroke="black" stroke-width="0.1" stroke-linecap="square" />
    <line id="co-471" x1="-3.839" y1="10.833" x2="-3.839" y2="11.381" stroke="black" stroke-width="0.1" stroke-linecap="square" />
    <line id="co-472" x1="-3.65" y1="11.57" x2="-0.889" y2="11.57" stroke="black" stroke-width="0.1" stroke-linecap="square" />
    <line id="co-473" x1="-0.724" y1="9.723" x2="-0.724" y2="11.417" stroke="black" stroke-width="0.1" stroke-linecap="square" />
    <line id="co-474" x1="16.804" y1="-7.176" x2="14.567" y2="-7.176" stroke="black" stroke-width="0.1" stroke-linecap="square" />
    <line id="co-475" x1="16.993" y1="-6.987" x2="16.993" y2="-6.772" stroke="black" stroke-width="0.1" stroke-linecap="square" />
    <line id="co-476" x1="15.366" y1="21.692" x2="15.366" y2="21.692" stroke="black" stroke-width="0.1" stroke-linecap="square" />
    <line id="co-477" x1="15.079" y1="21.692" x2="15.079" y2="21.692" stroke="black" stroke-width="0.1" stroke-linecap="square" />
    <line id="co-478" x1="16.27" y1="-1.946" x2="16.447" y2="-1.822" stroke="black" stroke-width="0.1" stroke-linecap="square" />
    <line id="co-479" x1="16.935" y1="-1.765" x2="16.627" y2="-1.765" stroke="black" stroke-width="0.1" stroke-linecap="square" />
    <line id="co-480" x1="16.993" y1="-1.984" x2="16.993" y2="-1.823" stroke="black" stroke-width="0.1" stroke-linecap="square" />
    <line id="co-518" x1="-24.524" y1="-0.496" x2="-24.571" y2="-0.321" stroke="black" stroke-width="0.1" stroke-linecap="square" />
    <line id="co-519" x1="-24.59" y1="-0.175" x2="-24.59" y2="0.165" stroke="black" stroke-width="0.1" stroke-linecap="square" />
    <line id="co-520" x1="18.235" y1="5.029" x2="18.528" y2="5.029" stroke="black" stroke-width="0.1" stroke-linecap="square" />
    <line id="co-521" x1="18.509" y1="5.334" x2="18.593" y2="5.334" stroke="black" stroke-width="0.1" stroke-linecap="square" />
    <line id="co-522" x1="18.645" y1="5.487" x2="18.677" y2="5.487" stroke="black" stroke-width="0.1" stroke-linecap="square" />
    <line id="co-523" x1="20.147" y1="-5.22" x2="20.147" y2="-5.22" stroke="black" stroke-width="0.1" stroke-linecap="square" />
    <line id="co-524" x1="20.067" y1="-4.615" x2="20.067" y2="-4.615" stroke="black" stroke-width="0.1" stroke-linecap="square" />
    <line id="co-525" x1="18.189" y1="0.544" x2="19.774" y2="-3.81" stroke="black" stroke-width="0.1" stroke-linecap="square" />
    <line id="co-526" x1="18.403" y1="-2.73" x2="19.655" y2="-4.518" stroke="black" stroke-width="0.1" stroke-linecap="square" />
    <line id="co-527" x1="18.105" y1="0.889" x2="15.478" y2="20.842" stroke="black" stroke-width="0.1" stroke-linecap="square" />
    <line id="co-528" x1="18.205" y1="-2.22" x2="15.19" y2="20.842" stroke="black" stroke-width="0.1" stroke-linecap="square" />
    <line id="co-529" x1="-27.966" y1="11.427" x2="-28.1" y2="11.427" stroke="black" stroke-width="0.1" stroke-linecap="square" />
    <line id="co-530" x1="-28.301" y1="11.427" x2="-28.367" y2="11.427" stroke="black" stroke-width="0.1" stroke-linecap="square" />
  </g>
</svg>