<?xml version="1.0" encoding="utf-8"?>
<svg xmlns="http://www.w3.org/2000/svg" viewBox="-34.315 -23.322 56.245 32.983">
  <g transform="scale(1,-1)">
    <rect id="eq-39" x="-32.264" y="-3.479" width="0.3" height="0.3" fill="black" transform="rotate(114.55,-32.114,-3.329)" />
    <rect id="eq-40" x="-29.437" y="-4.399" width="0.3" height="0.3" fill="black" transform="rotate(114.55,-29.287,-4.249)" />
    <rect id="eq-41" x="-31.17" y="-3.616" width="0.3" height="0.3" fill="black" transform="rotate(114.55,-31.02,-3.466)" />
    <rect id="eq-45" x="-31.969" y="-2.87" width="0.3" height="0.3" fill="black" transform="rotate(114.55,-31.819,-2.72)" />
    <rect id="eq-46" x="-29.094" y="-3.809" width="0.3" height="0.3" fill="black" transform="rotate(114.55,-28.944,-3.659)" />
    <rect id="eq-47" x="-30.865" y="-3.003" width="0.3" height="0.3" fill="black" transform="rotate(114.55,-30.715,-2.853)" />
    <rect id="eq-50" x="-31.723" y="-2.23" width="0.3" height="0.3" fill="black" transform="rotate(114.55,-31.573,-2.08)" />
    <rect id="eq-51" x="-28.823" y="-3.187" width="0.3" height="0.3" fill="black" transform="rotate(114.55,-28.673,-3.037)" />
    <rect id="eq-52" x="-30.61" y="-2.374" width="0.3" height="0.3" fill="black" transform="rotate(114.55,-30.46,-2.224)" />
    <rect id="eq-55" x="-31.458" y="-1.606" width="0.3" height="0.3" fill="black" transform="rotate(114.55,-31.308,-1.456)" />
    <rect id="eq-61" x="-24.336" y="-2.951" width="0.3" height="0.3" fill="black" transform="rotate(114.55,-24.186,-2.801)" />
    <rect id="eq-62" x="-22.92" y="-4.713" width="0.3" height="0.3" fill="black" transform="rotate(114.55,-22.77,-4.563)" />
    <rect id="eq-63" x="-22.779" y="-4.415" width="0.3" height="0.3" fill="black" transform="rotate(114.55,-22.629,-4.265)" />
    <rect id="eq-64" x="-24.576" y="-3.598" width="0.3" height="0.3" fill="black" transform="rotate(114.55,-24.426,-3.448)" />
    <rect id="eq-70" x="-25.609" y="-3.483" width="0.3" height="0.3" fill="black" transform="rotate(114.55,-25.459,-3.333)" />
    <rect id="eq-71" x="-22.491" y="-3.805" width="0.3" height="0.3" fill="black" transform="rotate(114.55,-22.341,-3.655)" />
    <rect id="eq-72" x="-18.546" y="-2.211" width="0.3" height="0.3" fill="black" transform="rotate(116.173,-18.396,-2.061)" />
    <rect id="eq-78" x="-25.115" y="-2.224" width="0.3" height="0.3" fill="black" transform="rotate(114.55,-24.965,-2.074)" />
    <rect id="eq-79" x="-22.209" y="-3.19" width="0.3" height="0.3" fill="black" transform="rotate(114.55,-22.059,-3.04)" />
    <rect id="eq-80" x="-24.012" y="-2.364" width="0.3" height="0.3" fill="black" transform="rotate(114.55,-23.862,-2.214)" />
    <rect id="eq-86" x="-24.841" y="-1.604" width="0.3" height="0.3" fill="black" transform="rotate(114.55,-24.691,-1.454)" />
    <rect id="eq-87" x="-18.202" y="-1.633" width="0.3" height="0.3" fill="black" transform="rotate(114.55,-18.052,-1.483)" />
    <rect id="eq-93" x="-17.451" y="-2.334" width="0.3" height="0.3" fill="black" transform="rotate(114.55,-17.301,-2.184)" />
    <rect id="eq-94" x="-15.627" y="-3.163" width="0.3" height="0.3" fill="black" transform="rotate(114.55,-15.477,-3.013)" />
    <rect id="eq-95" x="-15.779" y="-3.473" width="0.3" height="0.3" fill="black" transform="rotate(114.55,-15.629,-3.323)" />
    <rect id="eq-96" x="-25.369" y="-2.864" width="0.3" height="0.3" fill="black" transform="rotate(153.176,-25.219,-2.714)" />
    <rect id="eq-101" x="-17.695" y="-2.972" width="0.3" height="0.3" fill="black" transform="rotate(114.55,-17.545,-2.822)" />
    <rect id="eq-102" x="-15.914" y="-3.789" width="0.3" height="0.3" fill="black" transform="rotate(114.55,-15.764,-3.639)" />
    <rect id="eq-103" x="-18.751" y="-2.877" width="0.3" height="0.3" fill="black" transform="rotate(114.55,-18.601,-2.727)" />
    <rect id="eq-108" x="-16.183" y="-4.414" width="0.3" height="0.3" fill="black" transform="rotate(114.55,-16.033,-4.264)" />
    <rect id="eq-109" x="-19.105" y="-3.427" width="0.3" height="0.3" fill="black" transform="rotate(114.55,-18.955,-3.277)" />
    <rect id="eq-111" x="-17.99" y="-3.586" width="0.3" height="0.3" fill="black" transform="rotate(114.55,-17.84,-3.436)" />
    <rect id="eq-121" x="-10.797" y="-2.273" width="0.3" height="0.3" fill="black" transform="rotate(114.55,-10.647,-2.123)" />
    <rect id="eq-122" x="-8.99" y="-3.089" width="0.3" height="0.3" fill="black" transform="rotate(114.55,-8.84,-2.939)" />
    <rect id="eq-123" x="-11.588" y="-1.522" width="0.3" height="0.3" fill="black" transform="rotate(114.55,-11.438,-1.372)" />
    <rect id="eq-158" x="0.127" y="8.372" width="0.3" height="0.3" fill="black" transform="rotate(180,0.277,8.522)" />
    <rect id="eq-172" x="19.63" y="-0.25" width="0.3" height="0.3" fill="black" transform="rotate(97.5,19.78,-0.1)" />
    <rect id="eq-177" x="-29.195" y="10.302" width="0.3" height="0.3" fill="black" transform="rotate(180,-29.045,10.452)" />
    <rect id="eq-178" x="15.535" y="-1.966" width="0.3" height="0.3" fill="black" transform="rotate(120,15.685,-1.816)" />
    <rect id="eq-179" x="-2.769" y="1.905" width="0.3" height="0.3" fill="black" />
    <rect id="eq-180" x="-8.608" y="1.905" width="0.3" height="0.3" fill="black" />
    <rect id="eq-181" x="4.089" y="1.905" width="0.3" height="0.3" fill="black" />
    <rect id="eq-182" x="9.727" y="1.905" width="0.3" height="0.3" fill="black" />
    <rect id="eq-183" x="-12.723" y="1.905" width="0.3" height="0.3" fill="black" />
    <rect id="eq-184" x="-18.324" y="1.905" width="0.3" height="0.3" fill="black" />
    <rect id="eq-185" x="-24.655" y="1.905" width="0.3" height="0.3" fill="black" />
    <rect id="eq-186" x="-30.827" y="1.905" width="0.3" height="0.3" fill="black" />
    <rect id="eq-187" x="14.404" y="1.895" width="0.3" height="0.3" fill="black" />
    <rect id="eq-188" x="15.014" y="0.879" width="0.3" height="0.3" fill="black" />
    <rect id="eq-189" x="15.535" y="-2.728" width="0.3" height="0.3" fill="black" transform="rotate(120,15.685,-2.578)" />
    <rect id="eq-190" x="20.483" y="-3.227" width="0.3" height="0.3" fill="black" transform="rotate(277.5,20.633,-3.077)" />
    <rect id="eq-191" x="20.832" y="-5.875" width="0.3" height="0.3" fill="black" transform="rotate(277.5,20.982,-5.725)" />
    <rect id="eq-192" x="20.287" y="-1.734" width="0.3" height="0.3" fill="black" transform="rotate(277.5,20.437,-1.584)" />
    <rect id="eq-193" x="20.327" y="-2.043" width="0.3" height="0.3" fill="black" transform="rotate(277.5,20.477,-1.893)" />
    <rect id="eq-194" x="20.906" y="-6.439" width="0.3" height="0.3" fill="black" transform="rotate(277.5,21.056,-6.289)" />
    <rect id="eq-195" x="20.947" y="-6.747" width="0.3" height="0.3" fill="black" transform="rotate(277.5,21.097,-6.597)" />
    <rect id="eq-196" x="20.987" y="-7.056" width="0.3" height="0.3" fill="black" transform="rotate(277.5,21.137,-6.906)" />
    <rect id="eq-197" x="20.426" y="-2.789" width="0.3" height="0.3" fill="black" transform="rotate(277.5,20.576,-2.639)" />
    <rect id="eq-198" x="20.368" y="-2.351" width="0.3" height="0.3" fill="black" transform="rotate(277.5,20.518,-2.201)" />
    <rect id="eq-199" x="20.593" y="-4.062" width="0.3" height="0.3" fill="black" transform="rotate(277.5,20.743,-3.912)" />
    <rect id="eq-200" x="20.168" y="-4.406" width="0.3" height="0.3" fill="black" transform="rotate(277.5,20.318,-4.256)" />
  </g>
</svg>