<?xml version="1.0" encoding="utf-8"?>
<svg xmlns="http://www.w3.org/2000/svg" viewBox="-34.315 -23.322 56.245 32.983">
  <g transform="scale(1,-1)">
    <rect id="tm-250" x="-15.009" y="11.963" width="0.3" height="0.3" fill="black" transform="rotate(240,-14.859,12.113)" />
    <rect id="tm-251" x="-15.009" y="6.772" width="0.3" height="0.3" fill="black" transform="rotate(240,-14.859,6.922)" />
    <rect id="tm-262" x="-12.456" y="11.963" width="0.3" height="0.3" fill="black" transform="rotate(240,-12.306,12.113)" />
    <rect id="tm-263" x="-12.456" y="6.772" width="0.3" height="0.3" fill="black" transform="rotate(240,-12.306,6.922)" />
    <rect id="tm-274" x="-33.373" y="11.963" width="0.3" height="0.3" fill="black" transform="rotate(240,-33.223,12.113)" />
    <rect id="tm-275" x="-33.373" y="6.518" width="0.3" height="0.3" fill="black" transform="rotate(240,-33.223,6.668)" />
    <rect id="tm-286" x="-30.821" y="11.963" width="0.3" height="0.3" fill="black" transform="rotate(240,-30.671,12.113)" />
    <rect id="tm-287" x="-30.821" y="6.518" width="0.3" height="0.3" fill="black" transform="rotate(240,-30.671,6.668)" />
    <rect id="tm-291" x="12.575" y="-5.217" width="0.3" height="0.3" fill="black" transform="rotate(120,12.725,-5.067)" />
    <rect id="tm-292" x="12.575" y="-0.239" width="0.3" height="0.3" fill="black" transform="rotate(120,12.725,-0.089)" />
    <rect id="tm-294" x="15.128" y="-5.217" width="0.3" height="0.3" fill="black" transform="rotate(120,15.278,-5.067)" />
    <rect id="tm-295" x="15.128" y="-0.239" width="0.3" height="0.3" fill="black" transform="rotate(120,15.278,-0.089)" />
    <rect id="tm-338" x="-18.476" y="3.165" width="0.3" height="0.3" fill="black" transform="rotate(180,-18.326,3.315)" />
    <rect id="tm-339" x="-18.476" y="0.625" width="0.3" height="0.3" fill="black" transform="rotate(180,-18.326,0.775)" />
    <rect id="tm-340" x="-24.807" y="3.165" width="0.3" height="0.3" fill="black" transform="rotate(180,-24.657,3.315)" />
    <rect id="tm-341" x="-24.807" y="0.625" width="0.3" height="0.3" fill="black" transform="rotate(180,-24.657,0.775)" />
    <rect id="tm-342" x="-30.979" y="3.165" width="0.3" height="0.3" fill="black" transform="rotate(180,-30.829,3.315)" />
    <rect id="tm-343" x="-30.979" y="0.625" width="0.3" height="0.3" fill="black" transform="rotate(180,-30.829,0.775)" />
    <rect id="tm-344" x="-18.476" y="10.074" width="0.3" height="0.3" fill="black" transform="rotate(180,-18.326,10.224)" />
    <rect id="tm-345" x="-18.476" y="7.534" width="0.3" height="0.3" fill="black" transform="rotate(180,-18.326,7.684)" />
    <rect id="tm-346" x="-24.807" y="10.074" width="0.3" height="0.3" fill="black" transform="rotate(180,-24.657,10.224)" />
    <rect id="tm-347" x="-24.807" y="7.534" width="0.3" height="0.3" fill="black" transform="rotate(180,-24.657,7.684)" />
    <rect id="tm-348" x="-18.476" y="-3.744" width="0.3" height="0.3" fill="black" transform="rotate(180,-18.326,-3.594)" />
    <rect id="tm-349" x="-18.476" y="-6.284" width="0.3" height="0.3" fill="black" transform="rotate(180,-18.326,-6.134)" />
    <rect id="tm-350" x="-24.807" y="-3.744" width="0.3" height="0.3" fill="black" transform="rotate(180,-24.657,-3.594)" />
    <rect id="tm-351" x="-24.807" y="-6.284" width="0.3" height="0.3" fill="black" transform="rotate(180,-24.657,-6.134)" />
    <rect id="tm-352" x="-30.979" y="-3.744" width="0.3" height="0.3" fill="black" transform="rotate(180,-30.829,-3.594)" />
    <rect id="tm-353" x="-30.979" y="-6.284" width="0.3" height="0.3" fill="black" transform="rotate(180,-30.829,-6.134)" />
    <rect id="tm-354" x="-12.875" y="3.165" width="0.3" height="0.3" fill="black" transform="rotate(180,-12.725,3.315)" />
    <rect id="tm-355" x="-8.761" y="3.165" width="0.3" height="0.3" fill="black" transform="rotate(180,-8.611,3.315)" />
    <rect id="tm-356" x="-12.875" y="0.625" width="0.3" height="0.3" fill="black" transform="rotate(180,-12.725,0.775)" />
    <rect id="tm-357" x="-8.761" y="0.625" width="0.3" height="0.3" fill="black" transform="rotate(180,-8.611,0.775)" />
    <rect id="tm-358" x="-9.523" y="7.534" width="0.3" height="0.3" fill="black" transform="rotate(180,-9.373,7.684)" />
    <rect id="tm-359" x="-9.523" y="10.074" width="0.3" height="0.3" fill="black" transform="rotate(180,-9.373,10.224)" />
    <rect id="tm-360" x="-12.875" y="-3.744" width="0.3" height="0.3" fill="black" transform="rotate(180,-12.725,-3.594)" />
    <rect id="tm-361" x="-8.761" y="-3.744" width="0.3" height="0.3" fill="black" transform="rotate(180,-8.611,-3.594)" />
    <rect id="tm-362" x="-12.875" y="-6.284" width="0.3" height="0.3" fill="black" transform="rotate(180,-12.725,-6.134)" />
    <rect id="tm-363" x="-8.761" y="-6.284" width="0.3" height="0.3" fill="black" transform="rotate(180,-8.611,-6.134)" />
    <rect id="tm-364" x="-2.922" y="-6.284" width="0.3" height="0.3" fill="black" transform="rotate(180,-2.772,-6.134)" />
    <rect id="tm-365" x="-2.922" y="0.625" width="0.3" height="0.3" fill="black" transform="rotate(180,-2.772,0.775)" />
    <rect id="tm-366" x="-2.922" y="3.165" width="0.3" height="0.3" fill="black" transform="rotate(180,-2.772,3.315)" />
    <rect id="tm-367" x="-4.141" y="7.534" width="0.3" height="0.3" fill="black" transform="rotate(180,-3.991,7.684)" />
    <rect id="tm-368" x="-4.141" y="10.074" width="0.3" height="0.3" fill="black" transform="rotate(180,-3.991,10.224)" />
    <rect id="tm-369" x="3.936" y="10.074" width="0.3" height="0.3" fill="black" transform="rotate(180,4.086,10.224)" />
    <rect id="tm-370" x="3.936" y="7.534" width="0.3" height="0.3" fill="black" transform="rotate(180,4.086,7.684)" />
    <rect id="tm-371" x="3.936" y="3.165" width="0.3" height="0.3" fill="black" transform="rotate(180,4.086,3.315)" />
    <rect id="tm-372" x="3.936" y="0.625" width="0.3" height="0.3" fill="black" transform="rotate(180,4.086,0.775)" />
    <rect id="tm-373" x="3.936" y="-6.284" width="0.3" height="0.3" fill="black" transform="rotate(180,4.086,-6.134)" />
    <rect id="tm-374" x="3.936" y="-3.744" width="0.3" height="0.3" fill="black" transform="rotate(180,4.086,-3.594)" />
    <rect id="tm-375" x="-2.922" y="-3.744" width="0.3" height="0.3" fill="black" transform="rotate(180,-2.772,-3.594)" />
    <rect id="tm-376" x="9.575" y="-6.284" width="0.3" height="0.3" fill="black" transform="rotate(180,9.725,-6.134)" />
    <rect id="tm-377" x="9.575" y="-3.744" width="0.3" height="0.3" fill="black" transform="rotate(180,9.725,-3.594)" />
    <rect id="tm-378" x="9.575" y="0.625" width="0.3" height="0.3" fill="black" transform="rotate(180,9.725,0.775)" />
    <rect id="tm-379" x="9.575" y="3.165" width="0.3" height="0.3" fill="black" transform="rotate(180,9.725,3.315)" />
    <rect id="tm-380" x="9.575" y="7.534" width="0.3" height="0.3" fill="black" transform="rotate(180,9.725,7.684)" />
    <rect id="tm-381" x="9.575" y="10.074" width="0.3" height="0.3" fill="black" transform="rotate(180,9.725,10.224)" />
    <rect id="tm-382" x="14.252" y="10.074" width="0.3" height="0.3" fill="black" transform="rotate(180,14.402,10.224)" />
    <rect id="tm-383" x="17.3" y="-6.63" width="0.3" height="0.3" fill="black" transform="rotate(180,17.45,-6.48)" />
    <rect id="tm-384" x="17.3" y="-4.497" width="0.3" height="0.3" fill="black" transform="rotate(180,17.45,-4.347)" />
    <rect id="tm-385" x="17.3" y="-2.973" width="0.3" height="0.3" fill="black" transform="rotate(180,17.45,-2.823)" />
    <rect id="tm-386" x="17.3" y="-0.534" width="0.3" height="0.3" fill="black" transform="rotate(180,17.45,-0.384)" />
    <rect id="tm-387" x="16.843" y="3.165" width="0.3" height="0.3" fill="black" transform="rotate(180,16.993,3.315)" />
    <rect id="tm-388" x="14.252" y="7.534" width="0.3" height="0.3" fill="black" transform="rotate(180,14.402,7.684)" />
    <rect id="tm-389" x="16.843" y="10.074" width="0.3" height="0.3" fill="black" transform="rotate(180,16.993,10.224)" />
    <rect id="tm-390" x="16.843" y="7.534" width="0.3" height="0.3" fill="black" transform="rotate(180,16.993,7.684)" />
    <rect id="tm-391" x="-0.429" y="9.281" width="0.3" height="0.3" fill="black" transform="rotate(180,-0.279,9.431)" />
    <rect id="tm-392" x="-0.429" y="11.267" width="0.3" height="0.3" fill="black" transform="rotate(180,-0.279,11.417)" />
    <rect id="tm-393" x="-29.144" y="11.124" width="0.3" height="0.3" fill="black" transform="rotate(180,-28.994,11.274)" />
    <rect id="tm-394" x="13.807" y="-7.478" width="0.3" height="0.3" fill="black" transform="rotate(180,13.957,-7.328)" />
    <rect id="tm-1090" x="13.591" y="4.233" width="0.3" height="0.3" fill="black" transform="rotate(120,13.741,4.383)" />
    <rect id="tm-1091" x="7.711" y="5.292" width="0.3" height="0.3" fill="black" transform="rotate(120,7.861,5.442)" />
    <rect id="tm-1092" x="13.591" y="4.233" width="0.3" height="0.3" fill="black" transform="rotate(120,13.741,4.383)" />
    <rect id="tm-1093" x="19.731" y="-1.576" width="0.3" height="0.3" fill="black" transform="rotate(240,19.881,-1.426)" />
    <rect id="tm-1094" x="17.303" y="-5.595" width="0.3" height="0.3" fill="black" transform="rotate(120,17.453,-5.445)" />
    <rect id="tm-1095" x="13.591" y="4.233" width="0.3" height="0.3" fill="black" transform="rotate(120,13.741,4.383)" />
    <rect id="tm-1096" x="7.711" y="5.292" width="0.3" height="0.3" fill="black" transform="rotate(120,7.861,5.442)" />
    <rect id="tm-1097" x="7.711" y="5.292" width="0.3" height="0.3" fill="black" transform="rotate(120,7.861,5.442)" />
    <rect id="tm-1098" x="-3.772" y="7.603" width="0.3" height="0.3" fill="black" transform="rotate(120,-3.622,7.753)" />
    <rect id="tm-1099" x="9.001" y="-5.595" width="0.3" height="0.3" fill="black" transform="rotate(120,9.151,-5.445)" />
    <rect id="tm-1100" x="4.461" y="-5.595" width="0.3" height="0.3" fill="black" transform="rotate(120,4.611,-5.445)" />
    <rect id="tm-1101" x="5.215" y="-2.316" width="0.3" height="0.3" fill="black" transform="rotate(240,5.365,-2.166)" />
    <rect id="tm-1102" x="5.215" y="-2.316" width="0.3" height="0.3" fill="black" transform="rotate(240,5.365,-2.166)" />
    <rect id="tm-1103" x="15.445" y="9.83" width="0.3" height="0.3" fill="black" transform="rotate(240,15.595,9.98)" />
    <rect id="tm-1104" x="19.731" y="-1.576" width="0.3" height="0.3" fill="black" transform="rotate(240,19.881,-1.426)" />
    <rect id="tm-1105" x="-11.041" y="-2.316" width="0.3" height="0.3" fill="black" transform="rotate(240,-10.891,-2.166)" />
    <rect id="tm-1106" x="-11.041" y="-2.316" width="0.3" height="0.3" fill="black" transform="rotate(240,-10.891,-2.166)" />
    <rect id="tm-1107" x="-10.758" y="-2.357" width="0.3" height="0.3" fill="black" transform="rotate(240,-10.608,-2.207)" />
    <rect id="tm-1108" x="-7.489" y="8.408" width="0.3" height="0.3" fill="black" transform="rotate(240,-7.339,8.558)" />
    <rect id="tm-1109" x="3.248" y="8.92" width="0.3" height="0.3" fill="black" transform="rotate(240,3.398,9.07)" />
    <rect id="tm-1110" x="-2.734" y="8.308" width="0.3" height="0.3" fill="black" transform="rotate(240,-2.584,8.458)" />
    <rect id="tm-1111" x="-20.586" y="10.222" width="0.3" height="0.3" fill="black" transform="rotate(240,-20.436,10.372)" />
    <rect id="tm-1112" x="-16.646" y="4.348" width="0.3" height="0.3" fill="black" transform="rotate(90,-16.496,4.498)" />
    <rect id="tm-1113" x="-18.728" y="9.877" width="0.3" height="0.3" fill="black" transform="rotate(240,-18.578,10.027)" />
    <rect id="tm-1114" x="-18.728" y="9.877" width="0.3" height="0.3" fill="black" transform="rotate(240,-18.578,10.027)" />
    <rect id="tm-1115" x="-18.728" y="9.877" width="0.3" height="0.3" fill="black" transform="rotate(240,-18.578,10.027)" />
    <rect id="tm-1116" x="-25.465" y="9.877" width="0.3" height="0.3" fill="black" transform="rotate(240,-25.315,10.027)" />
    <rect id="tm-1117" x="-25.465" y="9.877" width="0.3" height="0.3" fill="black" transform="rotate(240,-25.315,10.027)" />
    <rect id="tm-1118" x="-25.465" y="9.877" width="0.3" height="0.3" fill="black" transform="rotate(240,-25.315,10.027)" />
    <rect id="tm-1119" x="-27.435" y="11.628" width="0.3" height="0.3" fill="black" transform="rotate(90,-27.285,11.778)" />
    <rect id="tm-1120" x="-8.5" y="-6.384" width="0.3" height="0.3" fill="black" transform="rotate(120,-8.35,-6.234)" />
    <rect id="tm-1121" x="-10.662" y="4.257" width="0.3" height="0.3" fill="black" transform="rotate(120,-10.512,4.407)" />
    <rect id="tm-1122" x="-10.491" y="4.212" width="0.3" height="0.3" fill="black" transform="rotate(120,-10.341,4.362)" />
    <rect id="tm-1123" x="-1.344" y="-6.738" width="0.3" height="0.3" fill="black" transform="rotate(120,-1.194,-6.588)" />
    <rect id="tm-1124" x="-10.491" y="4.212" width="0.3" height="0.3" fill="black" transform="rotate(120,-10.341,4.362)" />
    <rect id="tm-1125" x="-3.772" y="7.603" width="0.3" height="0.3" fill="black" transform="rotate(120,-3.622,7.753)" />
    <rect id="tm-1126" x="-10.491" y="4.212" width="0.3" height="0.3" fill="black" transform="rotate(120,-10.341,4.362)" />
  </g>
</svg>