<?xml version="1.0" encoding="utf-8"?>
<svg xmlns="http://www.w3.org/2000/svg" viewBox="-34.485 -31.672 64.597 49.853">
  <g transform="scale(1,-1)">
    <rect id="c-34" x="19.395" y="5.55" width="0.61" height="0.61" fill="black" />
    <rect id="c-35" x="20.065" y="0.457" width="0.61" height="0.61" fill="black" />
    <rect id="c-36" x="20.675" y="-4.179" width="0.61" height="0.61" fill="black" />
    <rect id="c-37" x="18.502" y="12.331" width="0.61" height="0.61" fill="black" />
    <rect id="c-62" x="6.985" y="0.457" width="0.61" height="0.61" fill="black" />
    <rect id="c-63" x="6.985" y="12.331" width="0.61" height="0.61" fill="black" />
    <rect id="c-64" x="6.985" y="-8.7" width="0.61" height="0.61" fill="black" />
    <rect id="c-65" x="6.985" y="-4.179" width="0.61" height="0.61" fill="black" />
    <rect id="c-67" x="-6.477" y="12.332" width="0.61" height="0.61" fill="black" />
    <rect id="c-68" x="0.787" y="12.331" width="0.61" height="0.61" fill="black" />
    <rect id="c-69" x="-6.477" y="5.55" width="0.61" height="0.61" fill="black" />
    <rect id="c-76" x="-15.316" y="0.457" width="0.61" height="0.61" fill="black" />
    <rect id="c-80" x="-15.265" y="-4.179" width="0.508" height="0.61" fill="black" />
    <rect id="c-83" x="12.268" y="-8.7" width="0.61" height="0.61" fill="black" />
    <rect id="c-85" x="-33.985" y="0.356" width="0.61" height="0.813" fill="black" />
    <rect id="c-89" x="12.294" y="5.55" width="0.559" height="0.61" fill="black" />
    <rect id="c-90" x="12.268" y="12.331" width="0.61" height="0.61" fill="black" />
    <rect id="c-104" x="-27.978" y="12.332" width="0.61" height="0.61" fill="black" />
    <rect id="c-105" x="-21.641" y="12.332" width="0.61" height="0.61" fill="black" />
    <rect id="c-108" x="6.985" y="5.55" width="0.61" height="0.61" fill="black" />
  </g>
</svg>