<?xml version="1.0" encoding="utf-8"?>
<svg xmlns="http://www.w3.org/2000/svg" viewBox="-34.33 -13.287 55.96 22.332">
  <g transform="scale(1,-1)">
    <rect id="c-34" x="19.55" y="5.705" width="0.3" height="0.3" fill="black" />
    <rect id="c-35" x="20.22" y="0.612" width="0.3" height="0.3" fill="black" />
    <rect id="c-36" x="20.83" y="-4.024" width="0.3" height="0.3" fill="black" />
    <rect id="c-37" x="18.657" y="12.486" width="0.3" height="0.3" fill="black" />
    <rect id="c-62" x="7.14" y="0.612" width="0.3" height="0.3" fill="black" />
    <rect id="c-63" x="7.14" y="12.486" width="0.3" height="0.3" fill="black" />
    <rect id="c-64" x="7.14" y="-8.545" width="0.3" height="0.3" fill="black" />
    <rect id="c-65" x="7.14" y="-4.024" width="0.3" height="0.3" fill="black" />
    <rect id="c-67" x="-6.322" y="12.487" width="0.3" height="0.3" fill="black" />
    <rect id="c-68" x="0.942" y="12.486" width="0.3" height="0.3" fill="black" />
    <rect id="c-69" x="-6.322" y="5.705" width="0.3" height="0.3" fill="black" />
    <rect id="c-76" x="-15.161" y="0.612" width="0.3" height="0.3" fill="black" />
    <rect id="c-80" x="-15.161" y="-4.024" width="0.3" height="0.3" fill="black" />
    <rect id="c-83" x="12.423" y="-8.545" width="0.3" height="0.3" fill="black" />
    <rect id="c-85" x="-33.83" y="0.612" width="0.3" height="0.3" fill="black" />
    <rect id="c-89" x="12.423" y="5.705" width="0.3" height="0.3" fill="black" />
    <rect id="c-90" x="12.423" y="12.486" width="0.3" height="0.3" fill="black" />
    <rect id="c-104" x="-27.823" y="12.487" width="0.3" height="0.3" fill="black" />
    <rect id="c-105" x="-21.486" y="12.487" width="0.3" height="0.3" fill="black" />
    <rect id="c-108" x="7.14" y="5.705" width="0.3" height="0.3" fill="black" />
  </g>
</svg>