<?xml version="1.0" encoding="utf-8"?>
<svg xmlns="http://www.w3.org/2000/svg" viewBox="-34.485 -31.672 64.597 49.853">
  <g transform="scale(1,-1)">
    <line id="d-4" data-host="w-16" x1="-30.518" y1="6.212" x2="-30.518" y2="7.126" stroke="white" stroke-width="0.325" />
    <line id="d-9" data-host="w-414" x1="13.836" y1="0.724" x2="12.922" y2="0.724" stroke="white" stroke-width="0.325" />
    <line id="d-20" data-host="w-35" x1="-15.13" y1="2.162" x2="-15.13" y2="1.248" stroke="white" stroke-width="0.391" />
    <line id="d-22" data-host="w-836" x1="-10.935" y1="-0.629" x2="-10.021" y2="-0.629" stroke="white" stroke-width="0.204" />
    <line id="d-23" data-host="w-74" x1="-8.427" y1="0.76" x2="-9.341" y2="0.76" stroke="white" stroke-width="0.176" />
    <line id="d-29" data-host="w-838" x1="5.321" y1="-0.629" x2="6.235" y2="-0.629" stroke="white" stroke-width="0.204" />
    <line id="d-31" data-host="w-832" x1="8.251" y1="3.981" x2="7.337" y2="3.981" stroke="white" stroke-width="0.204" />
    <line id="d-34" data-host="w-84" x1="6.167" y1="2.745" x2="7.081" y2="2.745" stroke="white" stroke-width="0.176" />
    <line id="d-35" data-host="w-75" x1="8.345" y1="0.76" x2="9.259" y2="0.76" stroke="white" stroke-width="0.176" />
    <line id="d-41" data-host="w-76" x1="15.796" y1="0.76" x2="16.71" y2="0.76" stroke="white" stroke-width="0.176" />
    <line id="d-42" data-host="w-204" x1="17.127" y1="0.972" x2="17.127" y2="1.886" stroke="white" stroke-width="0.176" />
    <line id="d-49" data-host="w-71" x1="-7.899" y1="2.745" x2="-6.985" y2="2.745" stroke="white" stroke-width="0.176" />
    <line id="d-53" data-host="w-223" x1="-3.336" y1="4.713" x2="-2.422" y2="4.713" stroke="white" stroke-width="0.144" />
    <line id="d-66" data-host="w-250" x1="-13.425" y1="5.855" x2="-12.511" y2="5.855" stroke="white" stroke-width="0.325" />
    <line id="d-72" data-host="w-365" x1="1.092" y1="5.345" x2="1.092" y2="4.431" stroke="white" stroke-width="0.318" />
    <line id="d-78" data-host="w-282" x1="17.612" y1="-1.199" x2="17.612" y2="-2.113" stroke="white" stroke-width="0.204" />
    <line id="d-79" data-host="w-1029" x1="15.532" y1="4.518" x2="15.532" y2="5.432" stroke="white" stroke-width="0.204" />
    <line id="d-93" data-host="w-170" x1="6.772" y1="6.723" x2="6.772" y2="6.723" stroke="white" stroke-width="0.144" />
    <line id="d-98" data-host="w-1033" x1="-9.112" y1="4.518" x2="-9.112" y2="5.432" stroke="white" stroke-width="0.204" />
    <line id="d-101" data-host="w-468" x1="-12.068" y1="1.886" x2="-12.068" y2="0.972" stroke="white" stroke-width="0.16" />
    <line id="d-107" data-host="w-519" x1="-28.002" y1="11.579" x2="-28.002" y2="10.665" stroke="white" stroke-width="0.144" />
    <line id="d-118" data-host="w-103" x1="-9.306" y1="-3.37" x2="-9.306" y2="-3.37" stroke="white" stroke-width="0.144" />
    <line id="d-136" data-host="w-39" x1="-20.749" y1="12.87" x2="-19.835" y2="12.87" stroke="white" stroke-width="0.341" />
    <line id="d-137" data-host="w-706" x1="2.912" y1="12.87" x2="3.826" y2="12.87" stroke="white" stroke-width="0.341" />
  </g>
</svg>