<?xml version="1.0" encoding="utf-8"?>
<svg xmlns="http://www.w3.org/2000/svg" viewBox="-34.241 -14.749 56.308 24.25">
  <g transform="scale(1,-1)">
    <polygon id="sl-2" points="-32.099,7.861 -33.217,7.861 -33.217,6.013 -30.677,6.013 -30.677,6.16 -30.677,7.176 -30.677,7.83 -31.794,7.83 -31.794,7.296 -32.099,7.296" fill="rgba(128,128,128,0.2)" stroke="gray" stroke-width="0.05" />
    <polygon id="sl-14" points="-13.735,8.039 -14.853,8.039 -14.853,6.013 -13.475,6.013 -12.459,6.013 -12.313,6.013 -12.313,8.007 -13.43,8.007 -13.43,7.474 -13.735,7.474" fill="rgba(128,128,128,0.2)" stroke="gray" stroke-width="0.05" />
    <polygon id="sl-19" points="16.243,2.823 16.243,6.353 12.722,6.353 12.722,2.823" fill="rgba(128,128,128,0.2)" stroke="gray" stroke-width="0.05" />
    <polygon id="sl-30" points="-8.401,2.823 -8.401,6.353 -11.922,6.353 -11.922,2.823" fill="rgba(128,128,128,0.2)" stroke="gray" stroke-width="0.05" />
    <polygon id="sl-64" points="12.421,0.571 15.583,0.571 15.583,0.714 17.173,0.714 17.173,0.806 17.173,2.791 15.456,2.791 12.69,2.791 12.456,2.791 2.842,2.791 2.842,7.196 1.21,7.196 1.194,7.196 1.194,6.007 0.94,6.007 0.286,6.007 -0.946,6.007 -1.854,6.007 -1.902,6.007 -1.902,2.791 -6.055,2.791 -6.29,2.791 -9.188,2.791 -11.954,2.791 -11.954,6.007 -12.002,6.007 -12.459,6.007 -13.475,6.007 -14.859,6.007 -15.094,6.007 -15.094,0.714 -14.961,0.714 -14.945,0.714 -6.29,0.714 -5.845,0.714 -5.82,0.714 -5.82,0.578 -4.702,0.578 -4.702,0.635 -4.677,0.635 1.21,0.635 1.21,0.714 12.357,0.714 12.421,0.714" fill="rgba(128,128,128,0.2)" stroke="gray" stroke-width="0.05" />
    <polygon id="sl-67" points="-1.902,6.007 -1.854,6.007 -1.854,9.009 -4.216,9.487 -5.13,9.487 -5.13,8.573 -6.055,8.573 -6.055,2.791 -1.902,2.791" fill="rgba(128,128,128,0.2)" stroke="gray" stroke-width="0.05" />
    <polygon id="sl-78" points="14.154,-1.232 15.272,-1.232 15.272,0.565 13.894,0.565 12.878,0.565 12.732,0.565 12.732,-1.2 13.849,-1.2 13.849,-0.692 14.154,-0.692" fill="rgba(128,128,128,0.2)" stroke="gray" stroke-width="0.05" />
    <polygon id="sl-85" points="-19.68,14.249 -20.93,14.249 -20.93,13.03 -18.39,13.03 -18.39,14.249" fill="rgba(128,128,128,0.2)" stroke="gray" stroke-width="0.05" />
    <polygon id="sl-86" points="3.989,14.249 2.74,14.249 2.74,13.03 5.28,13.03 5.28,14.249" fill="rgba(128,128,128,0.2)" stroke="gray" stroke-width="0.05" />
    <polygon id="sl-107" points="-33.741,5.702 -33.741,0.254 -33.665,0.254 -32.45,0.254 -32.447,0.254 -32.172,0.129 -32.864,-1.389 -32.871,-1.404 -28.918,-3.205 -28.912,-3.19 -27.082,0.824 -26.805,0.697 -25.58,0.139 -25.707,-0.138 -26.272,-1.379 -26.278,-1.393 -22.326,-3.194 -22.319,-3.18 -20.49,0.834 -20.213,0.708 -18.988,0.15 -19.114,-0.128 -19.68,-1.368 -19.686,-1.383 -15.734,-3.184 -15.727,-3.169 -15.316,-2.267 -15.094,-2.267 -15.094,0.714 -15.094,5.702 -15.094,6.007 -15.094,12.725 -15.164,12.725 -19.787,12.725 -20.803,12.725 -30.366,12.725 -30.366,12.71 -30.366,10.531 -30.366,10.452 -27.572,10.452 -27.572,7.938 -28.48,7.938 -29.712,7.938 -30.366,7.938 -30.366,7.684 -30.366,7.176 -30.366,6.16 -30.366,5.702 -33.665,5.702" fill="rgba(128,128,128,0.2)" stroke="gray" stroke-width="0.05" />
    <polygon id="sl-108" points="-9.188,2.791 -6.29,2.791 -6.29,12.71 -6.29,12.725 -11.938,12.725 -11.938,12.71 -11.938,5.582 -9.188,5.582" fill="rgba(128,128,128,0.2)" stroke="gray" stroke-width="0.05" />
    <polygon id="sl-109" points="-9.188,2.791 -9.188,5.582 -11.938,5.582 -11.954,5.582 -11.954,2.791" fill="rgba(128,128,128,0.2)" stroke="gray" stroke-width="0.05" />
    <polygon id="sl-114" points="10.69,3.997 10.69,6.956 5.42,6.956 5.42,3.997" fill="rgba(128,128,128,0.2)" stroke="gray" stroke-width="0.05" />
    <polygon id="sl-116" points="-8.112,-3.578 -8.112,-0.645 -13.383,-0.645 -13.383,-3.578" fill="rgba(128,128,128,0.2)" stroke="gray" stroke-width="0.05" />
    <polygon id="sl-119" points="8.144,-3.578 8.144,-0.645 2.873,-0.645 2.873,-3.578" fill="rgba(128,128,128,0.2)" stroke="gray" stroke-width="0.05" />
    <polygon id="sl-121" points="17.019,0.714 17.019,0.683 17.019,-3.051 20.937,-3.051 20.442,0.714 20.426,0.714" fill="rgba(128,128,128,0.2)" stroke="gray" stroke-width="0.05" />
    <polygon id="sl-144" points="6.14,4.607 6.14,6.102 7.404,6.102 7.404,6.617 9.97,6.617 9.97,4.058 7.087,4.058 7.087,4.607" fill="rgba(128,128,128,0.2)" stroke="gray" stroke-width="0.05" />
    <polygon id="sl-145" points="6.14,6.102 6.14,4.607 7.087,4.607 7.087,4.058 9.97,4.058 9.97,6.617 7.404,6.617 7.404,6.102" fill="rgba(128,128,128,0.2)" stroke="gray" stroke-width="0.05" />
    <polygon id="sl-152" points="20.264,2.067 18.862,12.71 18.86,12.725 12.69,12.725 12.69,12.71 12.69,5.582 15.456,5.582 15.456,2.791 17.173,2.791 17.173,0.806 19.296,0.806 19.296,2.067" fill="rgba(128,128,128,0.2)" stroke="gray" stroke-width="0.05" />
    <polygon id="sl-153" points="12.69,2.791 15.456,2.791 15.456,5.582 12.69,5.582" fill="rgba(128,128,128,0.2)" stroke="gray" stroke-width="0.05" />
    <polygon id="sl-164" points="17.659,-2.261 17.659,0.714 17.173,0.714 15.583,0.714 15.583,0.571 15.583,-6.287 15.278,-6.287 12.725,-6.287 12.694,-6.287 12.694,-9.001 21.567,-7.833 20.833,-2.261" fill="rgba(128,128,128,0.2)" stroke="gray" stroke-width="0.05" />
    <polygon id="sl-165" points="17.659,0.714 17.659,-2.261 20.833,-2.261 20.442,0.714" fill="rgba(128,128,128,0.2)" stroke="gray" stroke-width="0.05" />
    <polygon id="sl-166" points="3.594,-3.264 3.594,-0.705 6.385,-0.705 6.385,-1.407 7.423,-1.407 7.423,-2.657 6.385,-2.657 6.385,-3.264" fill="rgba(128,128,128,0.2)" stroke="gray" stroke-width="0.05" />
    <polygon id="sl-167" points="3.594,-0.705 3.594,-3.264 6.385,-3.264 6.385,-2.657 7.423,-2.657 7.423,-1.407 6.385,-1.407 6.385,-0.705" fill="rgba(128,128,128,0.2)" stroke="gray" stroke-width="0.05" />
    <polygon id="sl-170" points="-14.961,0.714 -14.961,-8.435 -14.808,-8.435 -6.475,-8.435 -6.29,-8.435 -6.29,0.714" fill="rgba(128,128,128,0.2)" stroke="gray" stroke-width="0.05" />
    <polygon id="sl-171" points="-12.662,-3.264 -9.871,-3.264 -9.871,-2.657 -8.68,-2.657 -8.68,-1.314 -9.871,-1.314 -9.871,-0.705 -12.662,-0.705" fill="rgba(128,128,128,0.2)" stroke="gray" stroke-width="0.05" />
  </g>
</svg>