<?xml version="1.0" encoding="utf-8"?>
<svg xmlns="http://www.w3.org/2000/svg" viewBox="-34.165 -13.21 56.176 22.671">
  <g transform="scale(1,-1)">
    <polygon id="sp-20" points="-21.641,12.71 -27.368,12.71 -27.368,12.332 -27.94,12.332 -27.94,10.531 -27.464,10.531 -27.464,7.604 -30.286,7.604 -30.286,5.623 -33.665,5.623 -33.665,1.067 -33.376,1.067 -33.376,0.269 -32.091,0.269 -32.85,-1.396 -28.926,-3.184 -27.09,0.845 -26.799,0.712 -26.797,0.711 -25.559,0.147 -26.257,-1.385 -22.334,-3.173 -20.498,0.855 -20.206,0.722 -20.205,0.722 -18.967,0.158 -19.665,-1.375 -15.742,-3.163 -15.316,-2.229 -15.316,-2.208 -15.243,-2.208 -15.243,0.457 -15.316,0.457 -15.316,1.067 -15.243,1.067 -15.243,2.729 -15.243,5.663 -15.243,5.702 -15.243,12.71 -21.031,12.71 -21.031,12.332 -21.641,12.332" fill="rgba(0,0,255,0.1)" stroke="blue" stroke-width="0.05" />
    <polygon id="sp-21" points="-5.867,0.895 0.787,0.895 0.787,1.067 1.397,1.067 1.397,0.838 6.985,0.838 6.985,1.067 7.595,1.067 7.595,0.838 12.341,0.838 12.341,0.956 15.662,0.956 15.662,0.838 17.049,0.838 17.049,2.667 12.573,2.667 2.811,2.667 0.943,2.667 0.943,4.127 0.943,5.674 -1.778,5.674 -1.778,2.667 -6.172,2.667 -11.998,2.667 -11.998,0.838 -6.477,0.838 -6.477,1.067 -5.867,1.067" fill="rgba(0,0,255,0.1)" stroke="blue" stroke-width="0.05" />
    <polygon id="sp-22" points="-6.321,-3.569 -6.321,0.457 -6.477,0.457 -6.477,0.683 -12.068,0.683 -14.707,0.683 -14.707,0.457 -14.945,0.457 -14.945,-2.208 -14.945,-2.633 -14.945,-2.936 -14.945,-3.569 -14.707,-3.569 -14.707,-4.178 -14.945,-4.178 -14.945,-7.944 -14.7,-7.944 -14.7,-8.419 -6.477,-8.419 -6.477,-8.077 -6.321,-8.077 -6.321,-4.178 -6.477,-4.178 -6.477,-3.569" fill="rgba(0,0,255,0.1)" stroke="blue" stroke-width="0.05" />
    <polygon id="sp-23" points="-6.321,6.16 -6.321,12.332 -6.477,12.332 -6.477,12.71 -11.922,12.71 -11.922,5.663 -11.922,2.823 -6.321,2.823 -6.321,5.55 -6.477,5.55 -6.477,6.16" fill="rgba(0,0,255,0.1)" stroke="blue" stroke-width="0.05" />
    <polygon id="sp-24" points="1.241,0.457 1.241,-3.569 1.397,-3.569 1.397,-4.178 1.241,-4.178 1.241,-8.077 1.397,-8.077 1.397,-8.534 6.985,-8.534 6.985,-8.09 7.595,-8.09 7.595,-8.534 12.268,-8.534 12.268,-8.09 12.427,-8.09 12.427,-6.366 12.341,-6.366 12.341,0.683 7.595,0.683 7.595,0.457 6.985,0.457 6.985,0.683 1.397,0.683 1.397,0.457" fill="rgba(0,0,255,0.1)" stroke="blue" stroke-width="0.05" />
    <polygon id="sp-25" points="1.241,12.332 1.241,8.561 1.273,8.561 1.273,7.228 2.873,7.228 2.873,6.159 2.873,4.127 2.873,4.05 2.873,4.048 2.873,2.823 12.424,2.823 12.424,5.55 12.268,5.55 12.268,6.159 12.424,6.159 12.424,12.332 12.268,12.332 12.268,12.71 7.595,12.71 7.595,12.332 6.985,12.332 6.985,12.71 1.397,12.71 1.397,12.332" fill="rgba(0,0,255,0.1)" stroke="blue" stroke-width="0.05" />
    <polygon id="sp-26" points="21.511,-7.531 21.07,-4.178 20.676,-4.178 20.676,-3.569 20.989,-3.569 20.459,0.457 20.065,0.457 20.065,0.683 19.334,0.683 17.127,0.683 15.662,0.683 15.662,-6.366 12.725,-6.366 12.725,-8.09 12.878,-8.09 12.878,-8.7 12.725,-8.7 12.725,-8.822 12.878,-8.822 12.878,-8.961 21.237,-7.86 21.199,-7.572" fill="rgba(0,0,255,0.1)" stroke="blue" stroke-width="0.05" />
    <polygon id="sp-27" points="20.245,2.083 19.789,5.55 19.395,5.55 19.395,6.159 19.709,6.159 19.26,9.565 18.896,12.332 18.502,12.332 18.502,12.71 12.878,12.71 12.878,12.332 12.722,12.332 12.722,6.159 12.827,6.159 12.827,5.55 12.722,5.55 12.722,2.823 17.204,2.823 17.204,0.838 19.28,0.838 19.28,2.083" fill="rgba(0,0,255,0.1)" stroke="blue" stroke-width="0.05" />
  </g>
</svg>