<?xml version="1.0" encoding="utf-8"?>
<svg xmlns="http://www.w3.org/2000/svg" viewBox="-34.325 -13.37 56.341 22.955">
  <g transform="scale(1,-1)">
    <line id="w-70" x1="12.573" y1="0.724" x2="12.573" y2="-6.134" stroke="black" stroke-width="0.305" stroke-linecap="square" />
    <line id="w-71" x1="-12.03" y1="2.745" x2="-1.856" y2="2.745" stroke="black" stroke-width="0.156" stroke-linecap="square" />
    <line id="w-74" x1="-6.172" y1="0.76" x2="-15.094" y2="0.76" stroke="black" stroke-width="0.156" stroke-linecap="square" />
    <line id="w-75" x1="1.092" y1="0.76" x2="12.381" y2="0.76" stroke="black" stroke-width="0.156" stroke-linecap="square" />
    <line id="w-76" x1="15.623" y1="0.76" x2="20.581" y2="0.76" stroke="black" stroke-width="0.156" stroke-linecap="square" />
    <line id="w-81" x1="-1.856" y1="5.674" x2="-1.856" y2="2.745" stroke="black" stroke-width="0.156" stroke-linecap="square" />
    <line id="w-84" x1="1.092" y1="2.745" x2="17.127" y2="2.745" stroke="black" stroke-width="0.156" stroke-linecap="square" />
    <line id="w-101" x1="-13.491" y1="-0.598" x2="-12.738" y2="-0.598" stroke="black" stroke-width="0.124" stroke-linecap="square" />
    <line id="w-102" x1="-12.738" y1="-3.624" x2="-12.738" y2="-0.629" stroke="black" stroke-width="0.184" stroke-linecap="square" />
    <line id="w-103" x1="-8.757" y1="-3.37" x2="-9.825" y2="-3.37" stroke="black" stroke-width="0.124" stroke-linecap="square" />
    <line id="w-104" x1="-8.726" y1="-0.598" x2="-8.726" y2="-1.36" stroke="black" stroke-width="0.124" stroke-linecap="square" />
    <line id="w-105" x1="-13.491" y1="-3.624" x2="-12.738" y2="-3.624" stroke="black" stroke-width="0.124" stroke-linecap="square" />
    <line id="w-106" x1="-9.825" y1="-1.36" x2="-8.726" y2="-1.36" stroke="black" stroke-width="0.124" stroke-linecap="square" />
    <line id="w-107" x1="-8.757" y1="-3.624" x2="-8.004" y2="-3.624" stroke="black" stroke-width="0.124" stroke-linecap="square" />
    <line id="w-108" x1="-9.825" y1="-3.34" x2="-9.825" y2="-2.734" stroke="black" stroke-width="0.124" stroke-linecap="square" />
    <line id="w-109" x1="-12.738" y1="-1.535" x2="-11.935" y2="-1.535" stroke="black" stroke-width="0.124" stroke-linecap="square" />
    <line id="w-110" x1="-8.726" y1="-0.598" x2="-8.004" y2="-0.598" stroke="black" stroke-width="0.124" stroke-linecap="square" />
    <line id="w-111" x1="-9.825" y1="-0.598" x2="-8.726" y2="-0.598" stroke="black" stroke-width="0.124" stroke-linecap="square" />
    <line id="w-146" x1="2.765" y1="-0.598" x2="3.518" y2="-0.598" stroke="black" stroke-width="0.124" stroke-linecap="square" />
    <line id="w-147" x1="3.518" y1="-3.624" x2="3.518" y2="-0.629" stroke="black" stroke-width="0.184" stroke-linecap="square" />
    <line id="w-148" x1="7.499" y1="-3.37" x2="6.431" y2="-3.37" stroke="black" stroke-width="0.124" stroke-linecap="square" />
    <line id="w-149" x1="7.53" y1="-0.598" x2="7.53" y2="-1.36" stroke="black" stroke-width="0.124" stroke-linecap="square" />
    <line id="w-150" x1="2.765" y1="-3.624" x2="3.518" y2="-3.624" stroke="black" stroke-width="0.124" stroke-linecap="square" />
    <line id="w-151" x1="6.431" y1="-1.36" x2="7.53" y2="-1.36" stroke="black" stroke-width="0.124" stroke-linecap="square" />
    <line id="w-152" x1="7.499" y1="-3.624" x2="8.252" y2="-3.624" stroke="black" stroke-width="0.124" stroke-linecap="square" />
    <line id="w-153" x1="6.431" y1="-3.34" x2="6.431" y2="-2.734" stroke="black" stroke-width="0.124" stroke-linecap="square" />
    <line id="w-154" x1="3.518" y1="-1.535" x2="4.321" y2="-1.535" stroke="black" stroke-width="0.124" stroke-linecap="square" />
    <line id="w-155" x1="7.53" y1="-0.598" x2="8.252" y2="-0.598" stroke="black" stroke-width="0.124" stroke-linecap="square" />
    <line id="w-156" x1="6.431" y1="-0.598" x2="7.53" y2="-0.598" stroke="black" stroke-width="0.124" stroke-linecap="square" />
    <line id="w-168" x1="10.798" y1="3.951" x2="10.046" y2="3.951" stroke="black" stroke-width="0.124" stroke-linecap="square" />
    <line id="w-169" x1="10.046" y1="6.977" x2="10.046" y2="3.981" stroke="black" stroke-width="0.184" stroke-linecap="square" />
    <line id="w-170" x1="6.064" y1="6.723" x2="7.45" y2="6.723" stroke="black" stroke-width="0.124" stroke-linecap="square" />
    <line id="w-171" x1="6.034" y1="3.951" x2="6.034" y2="4.653" stroke="black" stroke-width="0.124" stroke-linecap="square" />
    <line id="w-172" x1="10.798" y1="6.977" x2="10.046" y2="6.977" stroke="black" stroke-width="0.124" stroke-linecap="square" />
    <line id="w-173" x1="7.133" y1="3.981" x2="7.133" y2="4.653" stroke="black" stroke-width="0.124" stroke-linecap="square" />
    <line id="w-174" x1="7.133" y1="4.653" x2="6.034" y2="4.653" stroke="black" stroke-width="0.124" stroke-linecap="square" />
    <line id="w-175" x1="6.064" y1="6.977" x2="5.312" y2="6.977" stroke="black" stroke-width="0.124" stroke-linecap="square" />
    <line id="w-176" x1="7.099" y1="6.09" x2="7.099" y2="5.661" stroke="black" stroke-width="0.057" stroke-linecap="square" />
    <line id="w-177" x1="10.046" y1="4.866" x2="9.242" y2="4.866" stroke="black" stroke-width="0.124" stroke-linecap="square" />
    <line id="w-178" x1="6.034" y1="3.951" x2="5.312" y2="3.951" stroke="black" stroke-width="0.124" stroke-linecap="square" />
    <line id="w-179" x1="7.133" y1="3.951" x2="6.034" y2="3.951" stroke="black" stroke-width="0.124" stroke-linecap="square" />
    <line id="w-204" x1="17.127" y1="0.76" x2="17.127" y2="2.745" stroke="black" stroke-width="0.156" stroke-linecap="square" />
    <line id="w-223" x1="-6.172" y1="4.713" x2="-1.856" y2="4.713" stroke="black" stroke-width="0.124" stroke-linecap="square" />
    <line id="w-224" x1="15.43" y1="-6.134" x2="15.431" y2="0.724" stroke="black" stroke-width="0.305" stroke-linecap="square" />
    <line id="w-263" x1="-13.911" y1="5.663" x2="-13.911" y2="2.729" stroke="black" stroke-width="0.184" stroke-linecap="square" />
    <line id="w-264" x1="-13.911" y1="2.729" x2="-15.094" y2="2.729" stroke="black" stroke-width="0.124" stroke-linecap="square" />
    <line id="w-282" x1="17.612" y1="0.76" x2="17.612" y2="-2.337" stroke="black" stroke-width="0.184" stroke-linecap="square" />
    <line id="w-283" x1="16.973" y1="0.76" x2="16.973" y2="-0.772" stroke="black" stroke-width="0.124" stroke-linecap="square" />
    <line id="w-284" x1="20.989" y1="-2.337" x2="16.973" y2="-2.337" stroke="black" stroke-width="0.184" stroke-linecap="square" />
    <line id="w-285" x1="16.973" y1="-2.337" x2="16.973" y2="-3.14" stroke="black" stroke-width="0.124" stroke-linecap="square" />
    <line id="w-286" x1="20.783" y1="-1.411" x2="19.64" y2="-1.411" stroke="black" stroke-width="0.124" stroke-linecap="square" />
    <line id="w-287" x1="20.73" y1="-0.373" x2="19.64" y2="-0.373" stroke="black" stroke-width="0.124" stroke-linecap="square" />
    <line id="w-288" x1="16.973" y1="-0.772" x2="17.612" y2="-0.772" stroke="black" stroke-width="0.184" stroke-linecap="square" />
    <line id="w-289" x1="15.532" y1="2.745" x2="15.532" y2="4.077" stroke="black" stroke-width="0.184" stroke-linecap="square" />
    <line id="w-290" x1="16.293" y1="2.745" x2="16.293" y2="4.077" stroke="black" stroke-width="0.124" stroke-linecap="square" />
    <line id="w-291" x1="12.573" y1="5.658" x2="16.293" y2="5.658" stroke="black" stroke-width="0.184" stroke-linecap="square" />
    <line id="w-292" x1="16.293" y1="5.658" x2="16.293" y2="6.48" stroke="black" stroke-width="0.124" stroke-linecap="square" />
    <line id="w-293" x1="12.573" y1="4.713" x2="13.637" y2="4.713" stroke="black" stroke-width="0.124" stroke-linecap="square" />
    <line id="w-294" x1="12.573" y1="3.675" x2="13.637" y2="3.675" stroke="black" stroke-width="0.124" stroke-linecap="square" />
    <line id="w-311" x1="-25.771" y1="0.068" x2="-26.865" y2="0.566" stroke="black" stroke-width="0.321" stroke-linecap="square" />
    <line id="w-316" x1="-19.179" y1="0.078" x2="-20.273" y2="0.576" stroke="black" stroke-width="0.321" stroke-linecap="square" />
    <line id="w-333" x1="-33.825" y1="0.109" x2="-32.34" y2="0.109" stroke="black" stroke-width="0.321" stroke-linecap="square" />
    <line id="w-338" x1="-28.909" y1="-3.533" x2="-33.27" y2="-1.546" stroke="black" stroke-width="0.622" stroke-linecap="square" />
    <line id="w-340" x1="-33.124" y1="-1.612" x2="-32.34" y2="0.109" stroke="black" stroke-width="0.321" stroke-linecap="square" />
    <line id="w-342" x1="-28.909" y1="-3.533" x2="-26.944" y2="0.778" stroke="black" stroke-width="0.321" stroke-linecap="square" />
    <line id="w-344" x1="-22.317" y1="-3.523" x2="-26.678" y2="-1.535" stroke="black" stroke-width="0.622" stroke-linecap="square" />
    <line id="w-346" x1="-26.532" y1="-1.602" x2="-25.771" y2="0.068" stroke="black" stroke-width="0.321" stroke-linecap="square" />
    <line id="w-348" x1="-22.317" y1="-3.523" x2="-20.352" y2="0.789" stroke="black" stroke-width="0.321" stroke-linecap="square" />
    <line id="w-350" x1="-15.725" y1="-3.512" x2="-20.086" y2="-1.525" stroke="black" stroke-width="0.622" stroke-linecap="square" />
    <line id="w-352" x1="-19.94" y1="-1.591" x2="-19.179" y2="0.078" stroke="black" stroke-width="0.321" stroke-linecap="square" />
    <line id="w-356" x1="1.092" y1="-9.082" x2="12.576" y2="-9.082" stroke="black" stroke-width="0.168" stroke-linecap="square" />
    <line id="w-375" x1="-15.011" y1="12.865" x2="-15.011" y2="5.634" stroke="black" stroke-width="0.305" stroke-linecap="square" />
    <line id="w-379" x1="-8.757" y1="-1.36" x2="-8.757" y2="-3.624" stroke="black" stroke-width="0.184" stroke-linecap="square" />
    <line id="w-382" x1="7.499" y1="-1.36" x2="7.499" y2="-3.624" stroke="black" stroke-width="0.184" stroke-linecap="square" />
    <line id="w-384" x1="6.064" y1="4.653" x2="6.064" y2="6.977" stroke="black" stroke-width="0.184" stroke-linecap="square" />
    <line id="w-390" x1="7.45" y1="6.723" x2="7.45" y2="6.09" stroke="black" stroke-width="0.124" stroke-linecap="square" />
    <line id="w-391" x1="7.099" y1="5.661" x2="7.483" y2="5.661" stroke="black" stroke-width="0.057" stroke-linecap="square" />
    <line id="w-403" x1="7.099" y1="6.09" x2="7.483" y2="6.09" stroke="black" stroke-width="0.057" stroke-linecap="square" />
    <line id="w-404" x1="7.483" y1="6.09" x2="7.483" y2="5.661" stroke="black" stroke-width="0.057" stroke-linecap="square" />
    <line id="w-405" x1="6.064" y1="6.026" x2="7.099" y2="6.026" stroke="black" stroke-width="0.184" stroke-linecap="square" />
    <line id="w-415" x1="15.431" y1="0.724" x2="12.573" y2="0.724" stroke="black" stroke-width="0.305" stroke-linecap="square" />
    <line id="w-450" x1="-9.112" y1="2.745" x2="-9.112" y2="4.077" stroke="black" stroke-width="0.184" stroke-linecap="square" />
    <line id="w-451" x1="-8.352" y1="2.745" x2="-8.352" y2="4.077" stroke="black" stroke-width="0.124" stroke-linecap="square" />
    <line id="w-452" x1="-12.154" y1="5.658" x2="-8.352" y2="5.658" stroke="black" stroke-width="0.184" stroke-linecap="square" />
    <line id="w-453" x1="-8.352" y1="5.658" x2="-8.352" y2="6.48" stroke="black" stroke-width="0.124" stroke-linecap="square" />
    <line id="w-454" x1="-12.03" y1="4.713" x2="-11.008" y2="4.713" stroke="black" stroke-width="0.124" stroke-linecap="square" />
    <line id="w-455" x1="-12.03" y1="3.675" x2="-11.008" y2="3.675" stroke="black" stroke-width="0.124" stroke-linecap="square" />
    <line id="w-468" x1="-12.068" y1="2.745" x2="-12.068" y2="0.76" stroke="black" stroke-width="0.14" stroke-linecap="square" />
    <line id="w-469" x1="-12.03" y1="2.745" x2="-12.03" y2="5.663" stroke="black" stroke-width="0.216" stroke-linecap="square" />
    <line id="w-470" x1="-11.962" y1="12.87" x2="-11.962" y2="5.663" stroke="black" stroke-width="0.079" stroke-linecap="square" />
    <line id="w-471" x1="-11.962" y1="5.663" x2="-15.203" y2="5.663" stroke="black" stroke-width="0.079" stroke-linecap="square" />
    <line id="w-481" x1="1.233" y1="8.561" x2="-1.894" y2="8.561" stroke="black" stroke-width="0.079" stroke-linecap="square" />
    <line id="w-482" x1="-1.894" y1="8.561" x2="-1.894" y2="5.713" stroke="black" stroke-width="0.079" stroke-linecap="square" />
    <line id="w-483" x1="1.233" y1="8.561" x2="1.233" y2="7.15" stroke="black" stroke-width="0.079" stroke-linecap="square" />
    <line id="w-484" x1="1.218" y1="5.713" x2="-1.894" y2="5.713" stroke="black" stroke-width="0.079" stroke-linecap="square" />
    <line id="w-485" x1="1.218" y1="5.713" x2="1.218" y2="6.159" stroke="black" stroke-width="0.048" stroke-linecap="square" />
    <line id="w-503" x1="7.45" y1="6.693" x2="10.046" y2="6.693" stroke="black" stroke-width="0.184" stroke-linecap="square" />
    <line id="w-513" x1="-30.326" y1="5.663" x2="-33.825" y2="5.663" stroke="black" stroke-width="0.079" stroke-linecap="square" />
    <line id="w-514" x1="-27.518" y1="10.492" x2="-30.282" y2="10.492" stroke="black" stroke-width="0.079" stroke-linecap="square" />
    <line id="w-515" x1="-30.282" y1="12.87" x2="-30.282" y2="10.492" stroke="black" stroke-width="0.168" stroke-linecap="square" />
    <line id="w-516" x1="-27.518" y1="7.644" x2="-30.326" y2="7.644" stroke="black" stroke-width="0.079" stroke-linecap="square" />
    <line id="w-517" x1="-27.518" y1="10.492" x2="-27.518" y2="7.644" stroke="black" stroke-width="0.108" stroke-linecap="square" />
    <line id="w-518" x1="-30.326" y1="7.644" x2="-30.326" y2="5.663" stroke="black" stroke-width="0.079" stroke-linecap="square" />
    <line id="w-519" x1="-28.002" y1="12.87" x2="-28.002" y2="10.492" stroke="black" stroke-width="0.124" stroke-linecap="square" />
    <line id="w-527" x1="-15.203" y1="12.87" x2="-15.203" y2="5.702" stroke="black" stroke-width="0.079" stroke-linecap="square" />
    <line id="w-541" x1="12.576" y1="-6.326" x2="12.576" y2="-9.082" stroke="black" stroke-width="0.298" stroke-linecap="square" />
    <line id="w-542" x1="12.381" y1="0.916" x2="12.381" y2="-6.326" stroke="black" stroke-width="0.079" stroke-linecap="square" />
    <line id="w-543" x1="15.623" y1="0.916" x2="15.623" y2="-6.326" stroke="black" stroke-width="0.079" stroke-linecap="square" />
    <line id="w-544" x1="15.623" y1="0.916" x2="12.341" y2="0.916" stroke="black" stroke-width="0.079" stroke-linecap="square" />
    <line id="w-545" x1="15.623" y1="-6.326" x2="12.381" y2="-6.326" stroke="black" stroke-width="0.079" stroke-linecap="square" />
    <line id="w-553" x1="-15.13" y1="-2.208" x2="-15.725" y2="-3.512" stroke="black" stroke-width="0.321" stroke-linecap="square" />
    <line id="w-554" x1="-15.13" y1="-2.208" x2="-15.13" y2="-7.998" stroke="black" stroke-width="0.371" stroke-linecap="square" />
    <line id="w-557" x1="-15.094" y1="5.855" x2="-15.094" y2="-2.633" stroke="black" stroke-width="0.298" stroke-linecap="square" />
    <line id="w-561" x1="-22.417" y1="-4.286" x2="-20.358" y2="0.233" stroke="black" stroke-width="0.025" stroke-linecap="square" />
    <line id="w-562" x1="-29.032" y1="-4.286" x2="-26.973" y2="0.233" stroke="black" stroke-width="0.025" stroke-linecap="square" />
    <line id="w-567" x1="7.025" y1="-3.632" x2="7.025" y2="-3.37" stroke="black" stroke-width="0.079" stroke-linecap="square" />
    <line id="w-569" x1="2.811" y1="4.05" x2="2.811" y2="2.745" stroke="black" stroke-width="0.124" stroke-linecap="square" />
    <line id="w-585" x1="-9.825" y1="-3.34" x2="-12.738" y2="-3.34" stroke="black" stroke-width="0.184" stroke-linecap="square" />
    <line id="w-587" x1="6.431" y1="-3.34" x2="3.518" y2="-3.34" stroke="black" stroke-width="0.184" stroke-linecap="square" />
    <line id="w-590" x1="-9.825" y1="-2.734" x2="-8.757" y2="-2.734" stroke="black" stroke-width="0.184" stroke-linecap="square" />
    <line id="w-592" x1="6.431" y1="-2.734" x2="7.499" y2="-2.734" stroke="black" stroke-width="0.184" stroke-linecap="square" />
    <line id="w-600" x1="-6.475" y1="-8.504" x2="-14.754" y2="-8.504" stroke="black" stroke-width="0.168" stroke-linecap="square" />
    <line id="w-601" x1="-15.13" y1="-7.998" x2="-14.754" y2="-7.998" stroke="black" stroke-width="0.108" stroke-linecap="square" />
    <line id="w-602" x1="-14.754" y1="-7.998" x2="-14.754" y2="-8.504" stroke="black" stroke-width="0.108" stroke-linecap="square" />
    <line id="w-607" x1="-14.754" y1="-3.874" x2="-6.477" y2="-3.874" stroke="black" stroke-width="0.267" stroke-linecap="square" />
    <line id="w-618" x1="-14.754" y1="-8.379" x2="-6.477" y2="-8.379" stroke="black" stroke-width="0.235" stroke-linecap="square" />
    <line id="w-659" x1="1.357" y1="-9.082" x2="1.357" y2="-8.585" stroke="black" stroke-width="0.079" stroke-linecap="square" />
    <line id="w-661" x1="12.838" y1="-8.966" x2="12.838" y2="-8.822" stroke="black" stroke-width="0.079" stroke-linecap="square" />
    <line id="w-662" x1="12.686" y1="-9.071" x2="21.327" y2="-7.933" stroke="black" stroke-width="0.168" stroke-linecap="square" />
    <line id="w-668" x1="21.516" y1="-7.57" x2="21.244" y2="-7.606" stroke="black" stroke-width="0.079" stroke-linecap="square" />
    <line id="w-669" x1="21.277" y1="-7.855" x2="21.244" y2="-7.606" stroke="black" stroke-width="0.079" stroke-linecap="square" />
    <line id="w-677" x1="1.092" y1="-8.401" x2="6.985" y2="-8.401" stroke="black" stroke-width="0.267" stroke-linecap="square" />
    <line id="w-678" x1="1.092" y1="-3.879" x2="6.985" y2="-3.879" stroke="black" stroke-width="0.267" stroke-linecap="square" />
    <line id="w-681" x1="-6.172" y1="0.762" x2="1.092" y2="0.762" stroke="black" stroke-width="0.267" stroke-linecap="square" />
    <line id="w-688" x1="-0.09" y1="-9.085" x2="-0.09" y2="-8.868" stroke="black" stroke-width="0.079" stroke-linecap="square" />
    <line id="w-689" x1="0.598" y1="-9.085" x2="0.598" y2="-8.868" stroke="black" stroke-width="0.079" stroke-linecap="square" />
    <line id="w-690" x1="-5.678" y1="-9.085" x2="-5.678" y2="-8.868" stroke="black" stroke-width="0.079" stroke-linecap="square" />
    <line id="w-691" x1="-4.99" y1="-9.085" x2="-4.99" y2="-8.868" stroke="black" stroke-width="0.079" stroke-linecap="square" />
    <line id="w-693" x1="-4.99" y1="-9.085" x2="-5.678" y2="-9.085" stroke="black" stroke-width="0.225" stroke-linecap="square" />
    <line id="w-694" x1="0.598" y1="-9.085" x2="-0.09" y2="-9.085" stroke="black" stroke-width="0.225" stroke-linecap="square" />
    <line id="w-704" x1="-33.812" y1="0.602" x2="-15.13" y2="0.602" stroke="black" stroke-width="0.321" stroke-linecap="square" />
    <line id="w-705" x1="-33.812" y1="0.922" x2="-15.13" y2="0.922" stroke="black" stroke-width="0.321" stroke-linecap="square" />
    <line id="w-718" x1="-33.825" y1="0.109" x2="-33.825" y2="5.702" stroke="black" stroke-width="0.321" stroke-linecap="square" />
    <line id="w-719" x1="-32.297" y1="0.203" x2="-32.116" y2="0.602" stroke="black" stroke-width="0.321" stroke-linecap="square" />
    <line id="w-720" x1="-25.705" y1="0.213" x2="-25.528" y2="0.602" stroke="black" stroke-width="0.321" stroke-linecap="square" />
    <line id="w-721" x1="-19.113" y1="0.224" x2="-18.941" y2="0.602" stroke="black" stroke-width="0.321" stroke-linecap="square" />
    <line id="w-723" x1="-14.945" y1="-8.138" x2="-14.945" y2="5.855" stroke="black" stroke-width="0.235" stroke-linecap="square" />
    <line id="w-726" x1="-11.962" y1="12.621" x2="-6.477" y2="12.621" stroke="black" stroke-width="0.235" stroke-linecap="square" />
    <line id="w-730" x1="15.43" y1="-6.134" x2="12.573" y2="-6.134" stroke="black" stroke-width="0.305" stroke-linecap="square" />
    <line id="w-735" x1="15.657" y1="-8.42" x2="21.254" y2="-7.683" stroke="black" stroke-width="0.235" stroke-linecap="square" />
    <line id="w-832" x1="10.046" y1="3.981" x2="7.133" y2="3.981" stroke="black" stroke-width="0.184" stroke-linecap="square" />
    <line id="w-836" x1="-12.738" y1="-0.629" x2="-9.825" y2="-0.629" stroke="black" stroke-width="0.184" stroke-linecap="square" />
    <line id="w-838" x1="3.518" y1="-0.629" x2="6.431" y2="-0.629" stroke="black" stroke-width="0.184" stroke-linecap="square" />
    <line id="w-841" x1="-11.922" y1="6.407" x2="-8.347" y2="6.407" stroke="black" stroke-width="0.108" stroke-linecap="square" />
    <line id="w-842" x1="-8.347" y1="6.407" x2="-8.347" y2="2.823" stroke="black" stroke-width="0.108" stroke-linecap="square" />
    <line id="w-847" x1="12.722" y1="6.407" x2="16.297" y2="6.407" stroke="black" stroke-width="0.108" stroke-linecap="square" />
    <line id="w-848" x1="16.297" y1="6.407" x2="16.297" y2="2.823" stroke="black" stroke-width="0.108" stroke-linecap="square" />
    <line id="w-878" x1="19.334" y1="0.76" x2="19.334" y2="2.029" stroke="black" stroke-width="0.108" stroke-linecap="square" />
    <line id="w-879" x1="19.334" y1="2.029" x2="20.414" y2="2.029" stroke="black" stroke-width="0.108" stroke-linecap="square" />
    <line id="w-883" x1="-11.962" y1="5.855" x2="-6.477" y2="5.855" stroke="black" stroke-width="0.267" stroke-linecap="square" />
    <line id="w-884" x1="-14.754" y1="0.76" x2="-6.477" y2="0.76" stroke="black" stroke-width="0.267" stroke-linecap="square" />
    <line id="w-887" x1="7.595" y1="-3.879" x2="12.229" y2="-3.879" stroke="black" stroke-width="0.267" stroke-linecap="square" />
    <line id="w-889" x1="7.595" y1="-8.401" x2="12.229" y2="-8.401" stroke="black" stroke-width="0.267" stroke-linecap="square" />
    <line id="w-890" x1="-6.172" y1="5.855" x2="-1.894" y2="5.855" stroke="black" stroke-width="0.267" stroke-linecap="square" />
    <line id="w-891" x1="-6.172" y1="8.42" x2="-1.894" y2="8.42" stroke="black" stroke-width="0.267" stroke-linecap="square" />
    <line id="w-901" x1="1.092" y1="0.756" x2="6.985" y2="0.756" stroke="black" stroke-width="0.267" stroke-linecap="square" />
    <line id="w-902" x1="1.218" y1="5.849" x2="7.071" y2="5.849" stroke="black" stroke-width="0.267" stroke-linecap="square" />
    <line id="w-903" x1="1.092" y1="12.646" x2="6.985" y2="12.646" stroke="black" stroke-width="0.235" stroke-linecap="square" />
    <line id="w-916" x1="15.623" y1="-3.879" x2="20.676" y2="-3.879" stroke="black" stroke-width="0.267" stroke-linecap="square" />
    <line id="w-917" x1="15.662" y1="0.756" x2="19.334" y2="0.756" stroke="black" stroke-width="0.267" stroke-linecap="square" />
    <line id="w-918" x1="12.878" y1="5.849" x2="19.395" y2="5.849" stroke="black" stroke-width="0.267" stroke-linecap="square" />
    <line id="w-919" x1="7.512" y1="5.849" x2="12.268" y2="5.849" stroke="black" stroke-width="0.267" stroke-linecap="square" />
    <line id="w-920" x1="7.595" y1="12.646" x2="12.268" y2="12.646" stroke="black" stroke-width="0.235" stroke-linecap="square" />
    <line id="w-921" x1="12.827" y1="12.646" x2="18.502" y2="12.646" stroke="black" stroke-width="0.235" stroke-linecap="square" />
    <line id="w-943" x1="5.366" y1="7.01" x2="10.744" y2="7.01" stroke="black" stroke-width="0.108" stroke-linecap="square" />
    <line id="w-944" x1="10.744" y1="7.01" x2="10.744" y2="3.943" stroke="black" stroke-width="0.108" stroke-linecap="square" />
    <line id="w-945" x1="10.744" y1="3.943" x2="5.366" y2="3.943" stroke="black" stroke-width="0.108" stroke-linecap="square" />
    <line id="w-946" x1="5.366" y1="3.943" x2="5.366" y2="7.01" stroke="black" stroke-width="0.108" stroke-linecap="square" />
    <line id="w-951" x1="-13.437" y1="-0.591" x2="-8.058" y2="-0.591" stroke="black" stroke-width="0.108" stroke-linecap="square" />
    <line id="w-952" x1="-8.058" y1="-0.591" x2="-8.058" y2="-3.632" stroke="black" stroke-width="0.108" stroke-linecap="square" />
    <line id="w-953" x1="-8.058" y1="-3.632" x2="-13.437" y2="-3.632" stroke="black" stroke-width="0.108" stroke-linecap="square" />
    <line id="w-954" x1="-13.437" y1="-3.632" x2="-13.437" y2="-0.591" stroke="black" stroke-width="0.108" stroke-linecap="square" />
    <line id="w-963" x1="2.819" y1="-0.591" x2="8.198" y2="-0.591" stroke="black" stroke-width="0.108" stroke-linecap="square" />
    <line id="w-964" x1="8.198" y1="-0.591" x2="8.198" y2="-3.632" stroke="black" stroke-width="0.108" stroke-linecap="square" />
    <line id="w-965" x1="8.198" y1="-3.632" x2="2.819" y2="-3.632" stroke="black" stroke-width="0.108" stroke-linecap="square" />
    <line id="w-966" x1="2.819" y1="-3.632" x2="2.819" y2="-0.591" stroke="black" stroke-width="0.108" stroke-linecap="square" />
    <line id="w-971" x1="20.926" y1="-3.105" x2="16.965" y2="-3.105" stroke="black" stroke-width="0.108" stroke-linecap="square" />
    <line id="w-972" x1="16.965" y1="-3.105" x2="16.965" y2="0.683" stroke="black" stroke-width="0.108" stroke-linecap="square" />
    <line id="w-979" x1="-5.867" y1="12.652" x2="0.787" y2="12.652" stroke="black" stroke-width="0.235" stroke-linecap="square" />
    <line id="w-1010" x1="-27.578" y1="5.855" x2="-21.641" y2="5.855" stroke="black" stroke-width="0.47" stroke-linecap="square" />
    <line id="w-1011" x1="-30.282" y1="12.631" x2="-27.924" y2="12.631" stroke="black" stroke-width="0.267" stroke-linecap="square" />
    <line id="w-1012" x1="-27.422" y1="12.631" x2="-21.587" y2="12.631" stroke="black" stroke-width="0.267" stroke-linecap="square" />
    <line id="w-1013" x1="-21.085" y1="12.631" x2="-17.961" y2="12.631" stroke="black" stroke-width="0.267" stroke-linecap="square" />
    <line id="w-1014" x1="-21.031" y1="5.855" x2="-15.37" y2="5.855" stroke="black" stroke-width="0.47" stroke-linecap="square" />
    <line id="w-1015" x1="-30.326" y1="5.855" x2="-27.978" y2="5.855" stroke="black" stroke-width="0.47" stroke-linecap="square" />
    <line id="w-1025" x1="7.595" y1="0.756" x2="12.229" y2="0.756" stroke="black" stroke-width="0.267" stroke-linecap="square" />
    <line id="w-1029" x1="15.532" y1="4.077" x2="15.532" y2="5.658" stroke="black" stroke-width="0.184" stroke-linecap="square" />
    <line id="w-1033" x1="-9.112" y1="4.077" x2="-9.112" y2="5.658" stroke="black" stroke-width="0.184" stroke-linecap="square" />
    <line id="w-1036" x1="15.532" y1="4.077" x2="16.293" y2="4.077" stroke="black" stroke-width="0.184" stroke-linecap="square" />
    <line id="w-1040" x1="-9.112" y1="4.077" x2="-8.352" y2="4.077" stroke="black" stroke-width="0.184" stroke-linecap="square" />
    <line id="w-1066" x1="-9.825" y1="-2.734" x2="-9.825" y2="-0.629" stroke="black" stroke-width="0.124" stroke-linecap="square" />
    <line id="w-1068" x1="6.431" y1="-2.734" x2="6.431" y2="-0.629" stroke="black" stroke-width="0.124" stroke-linecap="square" />
  </g>
</svg>