<?xml version="1.0" encoding="utf-8"?>
<svg xmlns="http://www.w3.org/2000/svg" viewBox="-34.485 -31.672 64.597 49.853">
  <g transform="scale(1,-1)">
    <line id="wn-13" data-host="w-706" x1="-8.066" y1="12.87" x2="-8.066" y2="12.87" stroke="white" stroke-width="0.341" />
    <line id="wn-14" data-host="w-706" x1="-4.254" y1="12.87" x2="-4.254" y2="12.87" stroke="white" stroke-width="0.341" />
    <line id="wn-15" data-host="w-706" x1="10.992" y1="12.87" x2="10.992" y2="12.87" stroke="white" stroke-width="0.341" />
    <line id="wn-16" data-host="w-706" x1="8.451" y1="12.87" x2="8.451" y2="12.87" stroke="white" stroke-width="0.341" />
    <line id="wn-17" data-host="w-706" x1="13.533" y1="12.87" x2="13.533" y2="12.87" stroke="white" stroke-width="0.341" />
    <line id="wn-18" data-host="w-706" x1="17.345" y1="12.87" x2="17.345" y2="12.87" stroke="white" stroke-width="0.341" />
    <line id="wn-30" data-host="w-39" x1="-24.1" y1="12.87" x2="-24.1" y2="12.87" stroke="white" stroke-width="0.341" />
    <line id="wn-41" data-host="w-338" x1="-31.909" y1="-2.166" x2="-31.909" y2="-2.166" stroke="white" stroke-width="0.642" />
    <line id="wn-42" data-host="w-338" x1="-30.104" y1="-2.989" x2="-30.104" y2="-2.989" stroke="white" stroke-width="0.642" />
    <line id="wn-45" data-host="w-344" x1="-25.317" y1="-2.155" x2="-25.317" y2="-2.155" stroke="white" stroke-width="0.642" />
    <line id="wn-46" data-host="w-344" x1="-23.512" y1="-2.978" x2="-23.512" y2="-2.978" stroke="white" stroke-width="0.642" />
    <line id="wn-49" data-host="w-350" x1="-18.725" y1="-2.145" x2="-18.725" y2="-2.145" stroke="white" stroke-width="0.642" />
    <line id="wn-50" data-host="w-350" x1="-16.92" y1="-2.968" x2="-16.92" y2="-2.968" stroke="white" stroke-width="0.642" />
    <line id="wn-53" data-host="w-356" x1="2.815" y1="-9.082" x2="2.815" y2="-9.082" stroke="white" stroke-width="0.188" />
    <line id="wn-54" data-host="w-356" x1="4.549" y1="-9.082" x2="4.549" y2="-9.082" stroke="white" stroke-width="0.188" />
    <line id="wn-61" data-host="w-600" x1="-7.212" y1="-8.504" x2="-8.304" y2="-8.504" stroke="white" stroke-width="0.188" />
    <line id="wn-62" data-host="w-600" x1="-9.191" y1="-8.504" x2="-10.283" y2="-8.504" stroke="white" stroke-width="0.188" />
    <line id="wn-63" data-host="w-600" x1="-11.17" y1="-8.504" x2="-12.262" y2="-8.504" stroke="white" stroke-width="0.188" />
    <line id="wn-64" data-host="w-600" x1="-13.157" y1="-8.504" x2="-14.249" y2="-8.504" stroke="white" stroke-width="0.188" />
    <line id="wn-82" data-host="w-356" x1="6.271" y1="-9.082" x2="6.271" y2="-9.082" stroke="white" stroke-width="0.188" />
    <line id="wn-83" data-host="w-356" x1="8.407" y1="-9.082" x2="8.407" y2="-9.082" stroke="white" stroke-width="0.188" />
    <line id="wn-84" data-host="w-356" x1="10.13" y1="-9.082" x2="10.13" y2="-9.082" stroke="white" stroke-width="0.188" />
    <line id="wn-85" data-host="w-356" x1="11.807" y1="-9.082" x2="11.807" y2="-9.082" stroke="white" stroke-width="0.188" />
    <line id="wn-92" data-host="w-662" x1="16.903" y1="-8.516" x2="16.903" y2="-8.516" stroke="white" stroke-width="0.188" />
    <line id="wn-93" data-host="w-662" x1="18.614" y1="-8.29" x2="18.614" y2="-8.29" stroke="white" stroke-width="0.188" />
    <line id="wn-94" data-host="w-662" x1="20.325" y1="-8.065" x2="20.325" y2="-8.065" stroke="white" stroke-width="0.188" />
    <line id="wn-95" data-host="w-662" x1="14.38" y1="-8.848" x2="14.38" y2="-8.848" stroke="white" stroke-width="0.188" />
    <line id="wn-101" data-host="w-653" x1="-0.051" y1="-8.784" x2="0.559" y2="-8.784" stroke="white" stroke-width="0.188" />
    <line id="wn-102" data-host="w-649" x1="-5.029" y1="-8.784" x2="-5.639" y2="-8.784" stroke="white" stroke-width="0.188" />
    <line id="wn-103" data-host="w-693" x1="-5.334" y1="-9.085" x2="-5.334" y2="-9.085" stroke="white" stroke-width="0.245" />
    <line id="wn-104" data-host="w-694" x1="0.254" y1="-9.085" x2="0.254" y2="-9.085" stroke="white" stroke-width="0.245" />
    <line id="wn-105" data-host="w-39" x1="-26.649" y1="12.87" x2="-26.649" y2="12.87" stroke="white" stroke-width="0.341" />
    <line id="wn-106" data-host="w-706" x1="-1.713" y1="12.87" x2="-1.713" y2="12.87" stroke="white" stroke-width="0.341" />
  </g>
</svg>