<?xml version="1.0" encoding="utf-8"?>
<svg xmlns="http://www.w3.org/2000/svg" viewBox="-34.485 -31.672 64.597 49.853">
  <g transform="scale(1,-1)">
    <line id="wn-13" data-host="w-706" x1="-8.701" y1="12.87" x2="-7.431" y2="12.87" stroke="white" stroke-width="0.341" />
    <line id="wn-14" data-host="w-706" x1="-4.889" y1="12.87" x2="-3.619" y2="12.87" stroke="white" stroke-width="0.341" />
    <line id="wn-15" data-host="w-706" x1="10.357" y1="12.87" x2="11.627" y2="12.87" stroke="white" stroke-width="0.341" />
    <line id="wn-16" data-host="w-706" x1="7.816" y1="12.87" x2="9.086" y2="12.87" stroke="white" stroke-width="0.341" />
    <line id="wn-17" data-host="w-706" x1="12.898" y1="12.87" x2="14.168" y2="12.87" stroke="white" stroke-width="0.341" />
    <line id="wn-18" data-host="w-706" x1="16.71" y1="12.87" x2="17.98" y2="12.87" stroke="white" stroke-width="0.341" />
    <line id="wn-30" data-host="w-39" x1="-24.735" y1="12.87" x2="-23.465" y2="12.87" stroke="white" stroke-width="0.341" />
    <line id="wn-41" data-host="w-338" x1="-31.458" y1="-2.371" x2="-32.36" y2="-1.96" stroke="white" stroke-width="0.642" />
    <line id="wn-42" data-host="w-338" x1="-29.653" y1="-3.194" x2="-30.555" y2="-2.783" stroke="white" stroke-width="0.642" />
    <line id="wn-45" data-host="w-344" x1="-24.867" y1="-2.361" x2="-25.768" y2="-1.95" stroke="white" stroke-width="0.642" />
    <line id="wn-46" data-host="w-344" x1="-23.061" y1="-3.184" x2="-23.963" y2="-2.773" stroke="white" stroke-width="0.642" />
    <line id="wn-49" data-host="w-350" x1="-18.274" y1="-2.35" x2="-19.176" y2="-1.939" stroke="white" stroke-width="0.642" />
    <line id="wn-50" data-host="w-350" x1="-16.469" y1="-3.173" x2="-17.371" y2="-2.762" stroke="white" stroke-width="0.642" />
    <line id="wn-53" data-host="w-356" x1="2.186" y1="-9.082" x2="3.443" y2="-9.082" stroke="white" stroke-width="0.188" />
    <line id="wn-54" data-host="w-356" x1="3.92" y1="-9.082" x2="5.177" y2="-9.082" stroke="white" stroke-width="0.188" />
    <line id="wn-61" data-host="w-600" x1="-7.212" y1="-8.504" x2="-8.304" y2="-8.504" stroke="white" stroke-width="0.188" />
    <line id="wn-62" data-host="w-600" x1="-9.191" y1="-8.504" x2="-10.283" y2="-8.504" stroke="white" stroke-width="0.188" />
    <line id="wn-63" data-host="w-600" x1="-11.17" y1="-8.504" x2="-12.262" y2="-8.504" stroke="white" stroke-width="0.188" />
    <line id="wn-64" data-host="w-600" x1="-13.157" y1="-8.504" x2="-14.249" y2="-8.504" stroke="white" stroke-width="0.188" />
    <line id="wn-82" data-host="w-356" x1="5.643" y1="-9.082" x2="6.9" y2="-9.082" stroke="white" stroke-width="0.188" />
    <line id="wn-83" data-host="w-356" x1="7.779" y1="-9.082" x2="9.036" y2="-9.082" stroke="white" stroke-width="0.188" />
    <line id="wn-84" data-host="w-356" x1="9.501" y1="-9.082" x2="10.758" y2="-9.082" stroke="white" stroke-width="0.188" />
    <line id="wn-85" data-host="w-356" x1="11.178" y1="-9.082" x2="12.435" y2="-9.082" stroke="white" stroke-width="0.188" />
    <line id="wn-92" data-host="w-662" x1="16.28" y1="-8.598" x2="17.526" y2="-8.434" stroke="white" stroke-width="0.188" />
    <line id="wn-93" data-host="w-662" x1="17.991" y1="-8.372" x2="19.237" y2="-8.208" stroke="white" stroke-width="0.188" />
    <line id="wn-94" data-host="w-662" x1="19.702" y1="-8.147" x2="20.948" y2="-7.983" stroke="white" stroke-width="0.188" />
    <line id="wn-95" data-host="w-662" x1="13.454" y1="-8.97" x2="15.305" y2="-8.726" stroke="white" stroke-width="0.188" />
    <line id="wn-101" data-host="w-653" x1="-0.051" y1="-8.784" x2="0.559" y2="-8.784" stroke="white" stroke-width="0.188" />
    <line id="wn-102" data-host="w-649" x1="-5.029" y1="-8.784" x2="-5.639" y2="-8.784" stroke="white" stroke-width="0.188" />
    <line id="wn-103" data-host="w-693" x1="-5.054" y1="-9.085" x2="-5.613" y2="-9.085" stroke="white" stroke-width="0.245" />
    <line id="wn-104" data-host="w-694" x1="0.534" y1="-9.085" x2="-0.026" y2="-9.085" stroke="white" stroke-width="0.245" />
    <line id="wn-105" data-host="w-39" x1="-27.284" y1="12.87" x2="-26.014" y2="12.87" stroke="white" stroke-width="0.341" />
    <line id="wn-106" data-host="w-706" x1="-2.348" y1="12.87" x2="-1.078" y2="12.87" stroke="white" stroke-width="0.341" />
  </g>
</svg>