<?xml version="1.0" encoding="utf-8"?>
<svg xmlns="http://www.w3.org/2000/svg" viewBox="-34.659 -14.009 50.916 20.970">
  <g transform="scale(1,-1)">
    <polygon id="ro-8" points="-33.68,13.03 -33.68,6.007 -30.671,6.007 -30.671,13.03" />
    <polygon id="ro-9" points="-14.859,13.03 -14.859,6.007 -12.306,6.007 -12.306,13.03" />
    <polygon id="ro-10" points="-30.366,10.198 -30.366,7.938 -27.826,7.938 -27.826,10.198" />
    <polygon id="ro-11" points="-17.342,10.766 -17.342,5.826 -15.164,5.826 -15.164,10.766" />
    <polygon id="ro-12" points="12.725,0.571 12.725,-5.982 15.278,-5.982 15.278,0.571" />
    <polygon id="ro-13" points="-8.299,8.398 -8.299,5.877 -1.854,5.877 -1.854,8.398" />
    <polygon id="ro-14" points="-1.6,8.268 -1.6,6.007 0.94,6.007 0.94,8.268" />
    <polygon id="ro-15" points="2.67,8.398 1.194,8.398 1.194,4.235 2.67,4.235" />
  </g>
</svg>