<?xml version="1.0" encoding="utf-8"?>
<svg xmlns="http://www.w3.org/2000/svg" viewBox="-134.847 188.218 26.744 32.359">
  <g transform="scale(1,-1)">
    <rect id="sc-1" x="-125.453" y="-201.629" width="0.254" height="0.254" fill="black" />
    <rect id="sc-2" x="-119.025" y="-201.629" width="0.254" height="0.254" fill="black" />
    <rect id="sc-3" x="-115.425" y="-208.506" width="0.254" height="0.254" fill="black" />
    <rect id="sc-4" x="-119.025" y="-208.506" width="0.254" height="0.254" fill="black" />
    <rect id="sc-5" x="-125.453" y="-189.335" width="0.254" height="0.254" fill="black" />
    <rect id="sc-6" x="-119.025" y="-189.335" width="0.254" height="0.254" fill="black" />
    <rect id="sc-7" x="-133.689" y="-189.335" width="0.254" height="0.254" fill="black" />
    <rect id="sc-8" x="-109.188" y="-208.506" width="0.254" height="0.254" fill="black" />
    <rect id="sc-9" x="-109.188" y="-219.955" width="0.254" height="0.254" fill="black" />
    <rect id="sc-10" x="-119.025" y="-219.955" width="0.254" height="0.254" fill="black" />
    <rect id="sc-11" x="-133.689" y="-208.506" width="0.254" height="0.254" fill="black" />
    <rect id="sc-12" x="-133.689" y="-201.629" width="0.254" height="0.254" fill="black" />
    <rect id="sc-13" x="-133.689" y="-195.285" width="0.254" height="0.254" fill="black" />
    <rect id="sc-47" x="-118.892" y="-216.701" width="0.254" height="0.254" fill="black" />
    <rect id="sc-48" x="-109.188" y="-216.701" width="0.254" height="0.254" fill="black" />
    <rect id="sc-49" x="-125.453" y="-208.506" width="0.254" height="0.254" fill="black" />
    <rect id="sc-50" x="-125.453" y="-216.701" width="0.254" height="0.254" fill="black" />
    <rect id="sc-51" x="-133.689" y="-212.739" width="0.254" height="0.254" fill="black" />
    <rect id="sc-53" x="-125.453" y="-204.982" width="0.254" height="0.254" fill="black" />
  </g>
</svg>