<?xml version="1.0" encoding="utf-8"?>
<svg xmlns="http://www.w3.org/2000/svg" viewBox="-15.661 -13.299 23.601 23.384">
  <g transform="scale(1,-1)">
    <rect id="c-1" x="-0.788" y="-9.585" width="0.3" height="0.3" fill="black" />
    <rect id="c-2" x="0.889" y="-9.585" width="0.3" height="0.3" fill="black" />
    <rect id="c-3" x="-4.593" y="-9.585" width="0.3" height="0.3" fill="black" />
    <rect id="c-4" x="-6.269" y="-9.585" width="0.3" height="0.3" fill="black" />
    <rect id="c-7" x="-6.322" y="5.705" width="0.3" height="0.3" fill="black" />
    <rect id="c-8" x="-6.322" y="0.612" width="0.3" height="0.3" fill="black" />
    <rect id="c-9" x="-6.322" y="-4.024" width="0.3" height="0.3" fill="black" />
    <rect id="c-12" x="7.14" y="0.612" width="0.3" height="0.3" fill="black" />
    <rect id="c-13" x="7.14" y="5.705" width="0.3" height="0.3" fill="black" />
    <rect id="c-14" x="7.14" y="12.486" width="0.3" height="0.3" fill="black" />
    <rect id="c-20" x="0.942" y="-4.024" width="0.3" height="0.3" fill="black" />
    <rect id="c-21" x="0.942" y="0.612" width="0.3" height="0.3" fill="black" />
    <rect id="c-73" x="-15.161" y="0.612" width="0.3" height="0.3" fill="black" />
    <rect id="c-74" x="-15.161" y="-4.024" width="0.3" height="0.3" fill="black" />
    <rect id="c-78" x="-6.322" y="-8.545" width="0.3" height="0.3" fill="black" />
    <rect id="c-82" x="0.942" y="-8.545" width="0.3" height="0.3" fill="black" />
    <rect id="c-86" x="0.942" y="12.499" width="0.3" height="0.3" fill="black" />
  </g>
</svg>