<?xml version="1.0" encoding="utf-8"?>
<svg xmlns="http://www.w3.org/2000/svg" viewBox="-34.485 -31.672 64.597 49.853">
  <g transform="scale(1,-1)">
    <line id="d-15" data-host="w-49" x1="-2.075" y1="5.766" x2="-2.989" y2="5.766" stroke="white" stroke-width="0.204" />
    <line id="d-16" data-host="w-21" x1="-7.442" y1="11.065" x2="-6.528" y2="11.065" stroke="white" stroke-width="0.341" />
    <line id="d-17" data-host="w-21" x1="-5.861" y1="11.065" x2="-4.947" y2="11.065" stroke="white" stroke-width="0.341" />
    <line id="d-18" data-host="w-19" x1="0.999" y1="12.293" x2="0.999" y2="11.379" stroke="white" stroke-width="0.341" />
    <line id="d-63" data-host="w-63" x1="10.117" y1="10.504" x2="11.031" y2="10.504" stroke="white" stroke-width="0.144" />
    <line id="d-109" data-host="w-21" x1="-2.514" y1="11.065" x2="-0.076" y2="11.065" stroke="white" stroke-width="0.341" />
    <line id="d-110" data-host="w-571" x1="-9.727" y1="8.404" x2="-9.727" y2="7.49" stroke="white" stroke-width="0.144" />
    <line id="d-111" data-host="w-571" x1="-9.727" y1="9.707" x2="-9.727" y2="8.793" stroke="white" stroke-width="0.144" />
    <line id="d-112" data-host="w-63" x1="8.815" y1="10.504" x2="9.729" y2="10.504" stroke="white" stroke-width="0.144" />
    <line id="d-115" data-host="w-580" x1="-3.827" y1="5.539" x2="-3.827" y2="4.625" stroke="white" stroke-width="0.144" />
    <line id="d-116" data-host="w-580" x1="-3.827" y1="2.125" x2="-3.827" y2="1.211" stroke="white" stroke-width="0.144" />
    <line id="d-122" data-host="w-650" x1="-3.53" y1="-8.755" x2="-1.55" y2="-8.755" stroke="white" stroke-width="0.245" />
    <line id="d-123" data-host="w-650" x1="-5.753" y1="-8.755" x2="-4.839" y2="-8.755" stroke="white" stroke-width="0.245" />
    <line id="d-124" data-host="w-650" x1="-0.241" y1="-8.755" x2="0.673" y2="-8.755" stroke="white" stroke-width="0.245" />
    <line id="d-125" data-host="w-683" x1="1.092" y1="5.324" x2="1.092" y2="4.41" stroke="white" stroke-width="0.318" />
  </g>
</svg>