<?xml version="1.0" encoding="utf-8"?>
<svg xmlns="http://www.w3.org/2000/svg" viewBox="-15.664 -13.53 28.854 24.57">
  <g transform="scale(1,-1)">
    <polygon id="sl-12" points="-12.313,6.013 -12.313,7.614 -13.43,7.614 -13.43,7.391 -13.735,7.391 -13.735,10.062 -14.853,10.062 -14.853,6.013" fill="rgba(128,128,128,0.2)" stroke="gray" stroke-width="0.05" />
    <polygon id="sl-23" points="0.94,-9.176 0.94,-8.811 -6.02,-8.811 -6.02,-9.176 -5.86,-9.176 -5.86,-9.695 -6.379,-9.695 -5.86,-10.54 0.779,-10.54 1.298,-9.695 0.779,-9.695 0.779,-9.176" fill="rgba(128,128,128,0.2)" stroke="gray" stroke-width="0.05" />
    <polygon id="sl-62" points="-12.052,6.285 -12.052,6.007 -14.859,6.007 -15.164,6.007 -15.164,-8.572 -14.402,-8.572 -12.135,-8.572 -12.135,-7.962 -9.354,-7.962 -9.354,-8.306 -9.354,-8.572 -6.29,-8.572 -6.29,-8.306 -6.29,10.92 -9.773,10.92 -9.773,6.285 -11.938,6.285" fill="rgba(128,128,128,0.2)" stroke="gray" stroke-width="0.05" />
    <polygon id="sl-69" points="7.235,-1.918 1.194,-1.918 1.194,-8.077 1.381,-8.077 1.381,-9.176 2.032,-9.176 2.032,-9.233 3.15,-9.233 3.15,-8.522 5.944,-8.522 5.944,-9.233 6.985,-9.233 6.985,-9.176 7.62,-9.176 7.62,-9.233 8.738,-9.233 8.738,-8.522 11.532,-8.522 11.532,-9.233 12.58,-9.233 12.507,-8.673 12.205,-8.673 12.205,-1.918 8.509,-1.918 8.509,-1.003 7.235,-1.003" fill="rgba(128,128,128,0.2)" stroke="gray" stroke-width="0.05" />
    <polygon id="sl-73" points="-6.055,-8.658 -6.02,-8.658 -5.804,-8.658 -4.788,-8.658 -3.537,-8.658 -1.543,-8.658 -0.292,-8.658 0.724,-8.658 0.94,-8.658 0.975,-8.658 0.975,0.152 -1.784,0.152 -1.784,0.972 -3.766,0.972 -6.023,0.972 -6.055,0.972 -6.055,-8.588" fill="rgba(128,128,128,0.2)" stroke="gray" stroke-width="0.05" />
    <polygon id="sl-127" points="-1.784,0.152 1.194,0.152 1.194,4.081 1.194,5.55 1.194,6.007 -1.854,6.007 -1.854,5.842 -3.873,5.842 -3.873,5.69 -3.873,1.064 -3.873,0.972 -1.784,0.972" fill="rgba(128,128,128,0.2)" stroke="gray" stroke-width="0.05" />
    <polygon id="sl-129" points="1.143,10.92 1.143,11.028 1.143,12.716 1.143,13.03 -12.002,13.03 -12.002,11.225 -12.002,10.92 -11.938,10.92 -9.773,10.92 -6.29,10.92 -6.055,10.92" fill="rgba(128,128,128,0.2)" stroke="gray" stroke-width="0.05" />
    <polygon id="sl-130" points="-11.938,10.92 -11.938,6.285 -9.773,6.285 -9.773,10.92" fill="rgba(128,128,128,0.2)" stroke="gray" stroke-width="0.05" />
    <polygon id="sl-131" points="1.194,4.081 2.842,4.081 2.842,11.028 1.143,11.028 1.143,10.92 -6.055,10.92 -6.055,5.674 -6.023,5.674 -3.889,5.674 -3.889,5.69 -3.889,5.842 -3.873,5.842 -1.854,5.842 -1.854,5.858 -1.854,6.007 -1.854,8.268 -1.854,8.522 0.94,8.522 1.194,8.522 1.194,6.007" fill="rgba(128,128,128,0.2)" stroke="gray" stroke-width="0.05" />
    <polygon id="sl-132" points="-3.873,1.064 -3.873,5.69 -3.889,5.69 -3.889,5.674 -6.055,5.674 -6.055,1.064" fill="rgba(128,128,128,0.2)" stroke="gray" stroke-width="0.05" />
    <polygon id="sl-133" points="7.61,10.551 12.236,10.551 12.236,12.421 12.236,12.725 7.61,12.725 7.61,12.716" fill="rgba(128,128,128,0.2)" stroke="gray" stroke-width="0.05" />
    <polygon id="sl-137" points="7.61,12.716 1.143,12.716 1.143,11.028 2.842,11.028 2.842,4.081 1.194,4.081 1.194,0.152 1.194,-1.918 1.194,-2.026 1.194,-2.222 12.268,-2.222 12.268,0.876 12.69,0.876 12.69,10.551 12.236,10.551 7.61,10.551" fill="rgba(128,128,128,0.2)" stroke="gray" stroke-width="0.05" />
  </g>
</svg>