<?xml version="1.0" encoding="utf-8"?>
<svg xmlns="http://www.w3.org/2000/svg" viewBox="-15.445 -13.53 18.663 22.449">
  <g transform="scale(1,-1)">
    <polygon id="sp-3" points="-14.859,13.03 -14.859,11.041 -14.859,6.007 -14.749,6.007 -12.306,6.007 -12.306,11.049 -12.306,13.03" fill="rgba(0,0,255,0.1)" stroke="blue" stroke-width="0.05" />
    <polygon id="sp-5" points="0.94,6.313 0.94,8.268 -1.6,8.268 -1.6,6.007 0.94,6.007" fill="rgba(0,0,255,0.1)" stroke="blue" stroke-width="0.05" />
    <polygon id="sp-10" points="-6.321,9.377 -6.321,10.905 -9.665,10.905 -9.665,8.598 -9.665,6.177 -11.922,6.177 -11.922,5.623 -14.749,5.623 -14.749,5.471 -14.858,5.471 -14.945,5.471 -14.945,2.905 -14.945,1.067 -14.656,1.067 -14.656,0.457 -14.945,0.457 -14.945,-3.569 -14.707,-3.569 -14.707,-4.178 -14.945,-4.178 -14.945,-7.972 -14.725,-7.972 -14.725,-8.419 -14.402,-8.419 -12.135,-8.419 -12.135,-7.962 -9.354,-7.962 -9.354,-8.419 -7.087,-8.419 -6.477,-8.419 -6.477,-8.077 -6.321,-8.077 -6.321,-4.178 -6.477,-4.178 -6.477,-3.569 -6.321,-3.569 -6.321,0.457 -6.477,0.457 -6.477,1.067 -6.321,1.067 -6.321,3.377 -6.321,5.55 -6.477,5.55 -6.477,6.16 -6.321,6.16 -6.321,7.047" fill="rgba(0,0,255,0.1)" stroke="blue" stroke-width="0.05" />
    <polygon id="sp-11" points="0.301,-7.93 0.301,0.299 -3.635,0.299 -3.635,0.171 -4.245,0.171 -4.245,0.299 -5.491,0.299 -5.491,-7.93" fill="rgba(0,0,255,0.1)" stroke="blue" stroke-width="0.05" />
    <polygon id="sp-12" points="-6.023,10.905 -6.023,9.431 -5.769,9.431 -5.769,6.993 -6.023,6.993 -6.023,6.16 -5.867,6.16 -5.867,5.858 -3.827,5.858 -1.934,5.858 -1.934,8.601 1.194,8.601 1.194,8.395 1.194,6.237 2.718,6.237 2.718,7.15 2.718,10.905 1.152,10.905 0.999,10.905" fill="rgba(0,0,255,0.1)" stroke="blue" stroke-width="0.05" />
  </g>
</svg>