<?xml version="1.0" encoding="utf-8"?>
<svg xmlns="http://www.w3.org/2000/svg" viewBox="-34.485 -31.672 64.597 49.853">
  <g transform="scale(1,-1)">
    <rect id="tm-167" x="-12.072" y="7.954" width="0.3" height="0.3" fill="black" transform="rotate(240,-11.922,8.104)" />
    <rect id="tm-168" x="-12.072" y="8.942" width="0.3" height="0.3" fill="black" transform="rotate(120,-11.922,9.092)" />
    <rect id="tm-169" x="-6.173" y="1.361" width="0.3" height="0.3" fill="black" transform="rotate(240,-6.023,1.511)" />
    <rect id="tm-170" x="-6.173" y="5.041" width="0.3" height="0.3" fill="black" transform="rotate(120,-6.023,5.191)" />
    <rect id="tm-173" x="9.262" y="12.56" width="0.3" height="0.3" fill="black" transform="rotate(180,9.412,12.71)" />
    <rect id="tm-174" x="10.25" y="12.56" width="0.3" height="0.3" fill="black" transform="rotate(90,10.4,12.71)" />
    <rect id="tm-234" x="-15.009" y="6.772" width="0.3" height="0.3" fill="black" transform="rotate(240,-14.859,6.922)" />
    <rect id="tm-246" x="-12.456" y="6.772" width="0.3" height="0.3" fill="black" transform="rotate(240,-12.306,6.922)" />
    <rect id="tm-257" x="-33.373" y="11.963" width="0.3" height="0.3" fill="black" transform="rotate(240,-33.223,12.113)" />
    <rect id="tm-258" x="-33.373" y="6.518" width="0.3" height="0.3" fill="black" transform="rotate(240,-33.223,6.668)" />
    <rect id="tm-269" x="-30.821" y="11.963" width="0.3" height="0.3" fill="black" transform="rotate(240,-30.671,12.113)" />
    <rect id="tm-281" x="9.262" y="12.56" width="0.3" height="0.3" fill="black" transform="rotate(90,9.412,12.71)" />
    <rect id="tm-282" x="10.267" y="12.56" width="0.3" height="0.3" fill="black" transform="rotate(90,10.417,12.71)" />
  </g>
</svg>