<?xml version="1.0" encoding="utf-8"?>
<svg xmlns="http://www.w3.org/2000/svg" viewBox="-34.485 -31.672 64.597 49.853">
  <g transform="scale(1,-1)">
    <line id="w-19" x1="0.999" y1="12.87" x2="0.999" y2="11.065" stroke="black" stroke-width="0.321" stroke-linecap="square" />
    <line id="w-20" x1="-6.172" y1="11.065" x2="-6.172" y2="-8.504" stroke="black" stroke-width="0.298" stroke-linecap="square" />
    <line id="w-21" x1="-11.962" y1="11.065" x2="0.999" y2="11.065" stroke="black" stroke-width="0.321" stroke-linecap="square" />
    <line id="w-24" x1="0.999" y1="12.87" x2="12.59" y2="12.87" stroke="black" stroke-width="0.321" stroke-linecap="square" />
    <line id="w-25" x1="1.067" y1="8.59" x2="1.067" y2="5.88" stroke="black" stroke-width="0.254" stroke-linecap="square" />
    <line id="w-35" x1="-15.13" y1="2.765" x2="-15.13" y2="-8.052" stroke="black" stroke-width="0.371" stroke-linecap="square" />
    <line id="w-49" x1="-1.727" y1="5.766" x2="-6.172" y2="5.766" stroke="black" stroke-width="0.184" stroke-linecap="square" />
    <line id="w-52" x1="-1.894" y1="5.88" x2="1.067" y2="5.88" stroke="black" stroke-width="0.254" stroke-linecap="square" />
    <line id="w-62" x1="9.923" y1="12.87" x2="9.923" y2="10.504" stroke="black" stroke-width="0.124" stroke-linecap="square" />
    <line id="w-63" x1="7.564" y1="10.504" x2="12.573" y2="10.504" stroke="black" stroke-width="0.124" stroke-linecap="square" />
    <line id="w-92" x1="1.067" y1="8.395" x2="-1.727" y2="8.395" stroke="black" stroke-width="0.254" stroke-linecap="square" />
    <line id="w-93" x1="-1.727" y1="5.685" x2="-1.727" y2="8.395" stroke="black" stroke-width="0.254" stroke-linecap="square" />
    <line id="w-246" x1="-15.011" y1="13.183" x2="-15.011" y2="11.041" stroke="black" stroke-width="0.305" stroke-linecap="square" />
    <line id="w-247" x1="-12.154" y1="5.855" x2="-12.154" y2="11.049" stroke="black" stroke-width="0.305" stroke-linecap="square" />
    <line id="w-248" x1="-12.154" y1="11.049" x2="-12.154" y2="13.183" stroke="black" stroke-width="0.305" stroke-linecap="square" />
    <line id="w-250" x1="-15.203" y1="5.855" x2="-12.154" y2="5.855" stroke="black" stroke-width="0.305" stroke-linecap="square" />
    <line id="w-251" x1="1.092" y1="4.127" x2="2.796" y2="4.127" stroke="black" stroke-width="0.156" stroke-linecap="square" />
    <line id="w-252" x1="2.796" y1="4.127" x2="2.796" y2="7.15" stroke="black" stroke-width="0.156" stroke-linecap="square" />
    <line id="w-253" x1="2.796" y1="10.982" x2="0.999" y2="10.982" stroke="black" stroke-width="0.156" stroke-linecap="square" />
    <line id="w-254" x1="1.218" y1="6.159" x2="2.796" y2="6.159" stroke="black" stroke-width="0.156" stroke-linecap="square" />
    <line id="w-255" x1="1.067" y1="7.15" x2="2.796" y2="7.15" stroke="black" stroke-width="0.156" stroke-linecap="square" />
    <line id="w-258" x1="2.796" y1="10.982" x2="2.796" y2="7.15" stroke="black" stroke-width="0.156" stroke-linecap="square" />
    <line id="w-304" x1="-15.011" y1="13.183" x2="-12.154" y2="13.183" stroke="black" stroke-width="0.305" stroke-linecap="square" />
    <line id="w-360" x1="0.827" y1="-8.755" x2="0.827" y2="-8.585" stroke="black" stroke-width="0.079" stroke-linecap="square" />
    <line id="w-367" x1="-15.011" y1="11.041" x2="-15.011" y2="5.634" stroke="black" stroke-width="0.305" stroke-linecap="square" />
    <line id="w-409" x1="1.194" y1="8.561" x2="-1.894" y2="8.561" stroke="black" stroke-width="0.079" stroke-linecap="square" />
    <line id="w-410" x1="-1.894" y1="8.561" x2="-1.894" y2="5.685" stroke="black" stroke-width="0.079" stroke-linecap="square" />
    <line id="w-417" x1="12.229" y1="0.916" x2="12.229" y2="-8.649" stroke="black" stroke-width="0.079" stroke-linecap="square" />
    <line id="w-419" x1="-11.962" y1="11.065" x2="-11.962" y2="5.663" stroke="black" stroke-width="0.079" stroke-linecap="square" />
    <line id="w-421" x1="1.218" y1="5.713" x2="-1.854" y2="5.713" stroke="black" stroke-width="0.079" stroke-linecap="square" />
    <line id="w-424" x1="12.573" y1="0.916" x2="12.229" y2="0.916" stroke="black" stroke-width="0.079" stroke-linecap="square" />
    <line id="w-438" x1="-11.962" y1="5.663" x2="-14.749" y2="5.663" stroke="black" stroke-width="0.079" stroke-linecap="square" />
    <line id="w-439" x1="1.218" y1="5.713" x2="1.218" y2="6.159" stroke="black" stroke-width="0.048" stroke-linecap="square" />
    <line id="w-558" x1="-14.749" y1="5.51" x2="-15.094" y2="5.51" stroke="black" stroke-width="0.079" stroke-linecap="square" />
    <line id="w-559" x1="-14.749" y1="5.51" x2="-14.749" y2="5.663" stroke="black" stroke-width="0.079" stroke-linecap="square" />
    <line id="w-560" x1="-15.094" y1="2.896" x2="-15.094" y2="5.855" stroke="black" stroke-width="0.298" stroke-linecap="square" />
    <line id="w-563" x1="1.357" y1="-9.172" x2="1.357" y2="-8.585" stroke="black" stroke-width="0.079" stroke-linecap="square" />
    <line id="w-571" x1="-9.727" y1="11.065" x2="-9.727" y2="6.239" stroke="black" stroke-width="0.124" stroke-linecap="square" />
    <line id="w-572" x1="-11.962" y1="6.239" x2="-9.727" y2="6.239" stroke="black" stroke-width="0.124" stroke-linecap="square" />
    <line id="w-573" x1="-11.962" y1="8.598" x2="-9.727" y2="8.598" stroke="black" stroke-width="0.124" stroke-linecap="square" />
    <line id="w-574" x1="7.564" y1="12.87" x2="7.564" y2="10.504" stroke="black" stroke-width="0.124" stroke-linecap="square" />
    <line id="w-575" x1="12.275" y1="12.87" x2="12.275" y2="10.504" stroke="black" stroke-width="0.108" stroke-linecap="square" />
    <line id="w-580" x1="-3.827" y1="5.766" x2="-3.827" y2="1.018" stroke="black" stroke-width="0.124" stroke-linecap="square" />
    <line id="w-581" x1="-6.172" y1="3.377" x2="-3.827" y2="3.377" stroke="black" stroke-width="0.124" stroke-linecap="square" />
    <line id="w-582" x1="-6.172" y1="1.018" x2="-3.827" y2="1.018" stroke="black" stroke-width="0.124" stroke-linecap="square" />
    <line id="w-595" x1="-14.765" y1="-8.504" x2="-6.172" y2="-8.504" stroke="black" stroke-width="0.168" stroke-linecap="square" />
    <line id="w-596" x1="-14.765" y1="-8.504" x2="-14.765" y2="-8.012" stroke="black" stroke-width="0.079" stroke-linecap="square" />
    <line id="w-597" x1="-14.765" y1="-8.012" x2="-15.13" y2="-8.012" stroke="black" stroke-width="0.079" stroke-linecap="square" />
    <line id="w-624" x1="-15.232" y1="11.041" x2="-15.232" y2="13.03" stroke="black" stroke-width="0.137" stroke-linecap="square" />
    <line id="w-625" x1="-11.933" y1="11.065" x2="-11.933" y2="13.03" stroke="black" stroke-width="0.137" stroke-linecap="square" />
    <line id="w-626" x1="-15.232" y1="13.403" x2="-11.933" y2="13.403" stroke="black" stroke-width="0.137" stroke-linecap="square" />
    <line id="w-627" x1="-15.232" y1="12.87" x2="-15.232" y2="13.403" stroke="black" stroke-width="0.137" stroke-linecap="square" />
    <line id="w-628" x1="-11.933" y1="12.87" x2="-11.933" y2="13.403" stroke="black" stroke-width="0.137" stroke-linecap="square" />
    <line id="w-647" x1="-5.907" y1="-8.755" x2="-5.907" y2="-8.585" stroke="black" stroke-width="0.079" stroke-linecap="square" />
    <line id="w-650" x1="-6.02" y1="-8.755" x2="0.94" y2="-8.755" stroke="black" stroke-width="0.225" stroke-linecap="square" />
    <line id="w-672" x1="6.985" y1="-9.244" x2="7.62" y2="-9.244" stroke="black" stroke-width="0.168" stroke-linecap="square" />
    <line id="w-673" x1="12.229" y1="-8.649" x2="12.427" y2="-8.649" stroke="black" stroke-width="0.079" stroke-linecap="square" />
    <line id="w-683" x1="1.092" y1="5.713" x2="1.092" y2="-8.385" stroke="black" stroke-width="0.298" stroke-linecap="square" />
    <line id="w-695" x1="1.397" y1="-9.244" x2="2.032" y2="-9.244" stroke="black" stroke-width="0.168" stroke-linecap="square" />
    <line id="w-697" x1="-15.011" y1="12.784" x2="-12.154" y2="12.784" stroke="black" stroke-width="0.108" stroke-linecap="square" />
    <line id="w-898" x1="-6.172" y1="7.047" x2="-5.823" y2="7.047" stroke="black" stroke-width="0.108" stroke-linecap="square" />
    <line id="w-899" x1="-5.823" y1="7.047" x2="-5.823" y2="9.377" stroke="black" stroke-width="0.108" stroke-linecap="square" />
    <line id="w-900" x1="-5.823" y1="9.377" x2="-6.172" y2="9.377" stroke="black" stroke-width="0.108" stroke-linecap="square" />
    <line id="w-984" x1="1.194" y1="-1.972" x2="7.289" y2="-1.972" stroke="black" stroke-width="0.108" stroke-linecap="square" />
    <line id="w-985" x1="8.455" y1="-1.972" x2="12.205" y2="-1.972" stroke="black" stroke-width="0.108" stroke-linecap="square" />
    <line id="w-986" x1="7.289" y1="-1.057" x2="8.455" y2="-1.057" stroke="black" stroke-width="0.108" stroke-linecap="square" />
    <line id="w-987" x1="7.289" y1="-1.972" x2="7.289" y2="-1.057" stroke="black" stroke-width="0.108" stroke-linecap="square" />
    <line id="w-988" x1="8.455" y1="-1.972" x2="8.455" y2="-1.057" stroke="black" stroke-width="0.108" stroke-linecap="square" />
    <line id="w-1063" x1="1.092" y1="3.67" x2="2.796" y2="3.67" stroke="black" stroke-width="0.156" stroke-linecap="square" />
    <line id="w-1064" x1="2.796" y1="3.67" x2="2.796" y2="4.081" stroke="black" stroke-width="0.156" stroke-linecap="square" />
  </g>
</svg>