<?xml version="1.0" encoding="utf-8"?>
<svg xmlns="http://www.w3.org/2000/svg" viewBox="-34.815 -14.165 51.228 21.282">
  <g transform="scale(1,-1)">
    <rect id="sc-55" x="-33.83" y="12.88" width="0.3" height="0.3" />
    <rect id="sc-56" x="-30.82" y="12.88" width="0.3" height="0.3" />
    <rect id="sc-57" x="-30.82" y="5.857" width="0.3" height="0.3" />
    <rect id="sc-58" x="-33.83" y="5.857" width="0.3" height="0.3" />
    <rect id="sc-59" x="-30.516" y="10.048" width="0.3" height="0.3" />
    <rect id="sc-60" x="-27.976" y="10.048" width="0.3" height="0.3" />
    <rect id="sc-61" x="-30.516" y="7.788" width="0.3" height="0.3" />
    <rect id="sc-62" x="-27.976" y="7.788" width="0.3" height="0.3" />
    <rect id="sc-63" x="-15.009" y="12.88" width="0.3" height="0.3" />
    <rect id="sc-64" x="-12.456" y="12.88" width="0.3" height="0.3" />
    <rect id="sc-65" x="-12.456" y="5.857" width="0.3" height="0.3" />
    <rect id="sc-66" x="-15.009" y="5.857" width="0.3" height="0.3" />
    <rect id="sc-67" x="12.575" y="0.421" width="0.3" height="0.3" />
    <rect id="sc-68" x="15.128" y="0.421" width="0.3" height="0.3" />
    <rect id="sc-69" x="15.128" y="-6.132" width="0.3" height="0.3" />
    <rect id="sc-70" x="12.575" y="-6.132" width="0.3" height="0.3" />
    <rect id="sc-71" x="-1.75" y="8.118" width="0.3" height="0.3" />
    <rect id="sc-72" x="0.79" y="8.118" width="0.3" height="0.3" />
    <rect id="sc-73" x="-1.75" y="5.857" width="0.3" height="0.3" />
    <rect id="sc-74" x="0.79" y="5.857" width="0.3" height="0.3" />
  </g>
</svg>