<?xml version="1.0" encoding="utf-8"?>
<svg xmlns="http://www.w3.org/2000/svg" viewBox="-34.485 -31.672 64.597 49.853">
  <g transform="scale(1,-1)">
    <line id="pi-19" x1="-4.861" y1="6.334" x2="-4.861" y2="6.334" stroke="black" stroke-width="0.102" stroke-linecap="square" />
    <line id="pi-74" x1="-4.353" y1="8.068" x2="-4.324" y2="8.068" stroke="black" stroke-width="0.013" stroke-linecap="square" />
    <line id="pi-75" x1="-4.185" y1="7.864" x2="-4.209" y2="7.864" stroke="black" stroke-width="0.013" stroke-linecap="square" />
    <line id="pi-76" x1="-6.728" y1="8.141" x2="-6.728" y2="8.141" stroke="black" stroke-width="0.013" stroke-linecap="square" />
    <line id="pi-77" x1="-6.714" y1="8.141" x2="-6.604" y2="8.141" stroke="black" stroke-width="0.013" stroke-linecap="square" />
    <line id="pi-78" x1="-6.59" y1="8.141" x2="-6.59" y2="8.141" stroke="black" stroke-width="0.013" stroke-linecap="square" />
    <line id="pi-79" x1="-6.59" y1="8.126" x2="-6.59" y2="5.818" stroke="black" stroke-width="0.013" stroke-linecap="square" />
    <line id="pi-80" x1="-6.575" y1="5.804" x2="-4.305" y2="5.804" stroke="black" stroke-width="0.013" stroke-linecap="square" />
    <line id="pi-81" x1="-4.291" y1="5.804" x2="-4.291" y2="5.804" stroke="black" stroke-width="0.013" stroke-linecap="square" />
    <line id="pi-82" x1="-4.291" y1="5.818" x2="-4.291" y2="7.738" stroke="black" stroke-width="0.013" stroke-linecap="square" />
    <line id="pi-83" x1="-4.291" y1="7.759" x2="-4.291" y2="7.759" stroke="black" stroke-width="0.013" stroke-linecap="square" />
    <line id="pi-84" x1="-4.283" y1="7.77" x2="-4.221" y2="7.858" stroke="black" stroke-width="0.013" stroke-linecap="square" />
    <line id="pi-85" x1="-4.291" y1="7.779" x2="-4.291" y2="8.026" stroke="black" stroke-width="0.013" stroke-linecap="square" />
    <line id="pi-86" x1="-4.314" y1="8.063" x2="-4.301" y2="8.051" stroke="black" stroke-width="0.013" stroke-linecap="square" />
    <line id="pi-87" x1="-4.291" y1="8.041" x2="-4.291" y2="8.041" stroke="black" stroke-width="0.013" stroke-linecap="square" />
    <line id="pi-88" x1="-4.353" y1="7.966" x2="-4.339" y2="7.966" stroke="black" stroke-width="0.051" stroke-linecap="square" />
    <line id="pi-89" x1="-4.261" y1="7.966" x2="-4.261" y2="7.966" stroke="black" stroke-width="0.051" stroke-linecap="square" />
    <line id="pi-90" x1="-4.207" y1="7.966" x2="-4.185" y2="7.966" stroke="black" stroke-width="0.051" stroke-linecap="square" />
    <line id="pi-91" x1="-4.718" y1="6.334" x2="-4.404" y2="6.334" stroke="black" stroke-width="0.102" stroke-linecap="square" />
    <line id="pi-377" x1="13.961" y1="5.646" x2="13.961" y2="5.646" stroke="black" stroke-width="0.051" stroke-linecap="square" />
    <line id="pi-378" x1="13.894" y1="5.645" x2="13.282" y2="5.639" stroke="black" stroke-width="0.051" stroke-linecap="square" />
    <line id="pi-1029" x1="-4.261" y1="7.844" x2="-4.261" y2="7.174" stroke="black" stroke-width="0.013" stroke-linecap="square" />
    <line id="pi-1030" x1="-4.261" y1="6.558" x2="-4.261" y2="7.139" stroke="black" stroke-width="0.013" stroke-linecap="square" />
    <line id="pi-1031" x1="-4.261" y1="7.153" x2="-4.261" y2="7.153" stroke="black" stroke-width="0.013" stroke-linecap="square" />
    <line id="pi-1391" x1="-6.728" y1="7.988" x2="-6.728" y2="7.988" stroke="black" stroke-width="0.013" stroke-linecap="square" />
    <line id="pi-1392" x1="-6.714" y1="7.988" x2="-6.604" y2="7.988" stroke="black" stroke-width="0.013" stroke-linecap="square" />
    <line id="pi-1393" x1="-6.59" y1="7.988" x2="-6.59" y2="7.988" stroke="black" stroke-width="0.013" stroke-linecap="square" />
    <line id="pi-1394" x1="-6.59" y1="7.974" x2="-6.59" y2="5.818" stroke="black" stroke-width="0.013" stroke-linecap="square" />
    <line id="pi-1395" x1="-6.575" y1="5.804" x2="-4.275" y2="5.804" stroke="black" stroke-width="0.013" stroke-linecap="square" />
    <line id="pi-1396" x1="-4.261" y1="5.804" x2="-4.261" y2="5.804" stroke="black" stroke-width="0.013" stroke-linecap="square" />
    <line id="pi-1397" x1="-4.261" y1="5.818" x2="-4.261" y2="7.133" stroke="black" stroke-width="0.013" stroke-linecap="square" />
    <line id="pi-1398" x1="-4.185" y1="8.068" x2="-4.247" y2="8.068" stroke="black" stroke-width="0.013" stroke-linecap="square" />
    <line id="pi-1399" x1="-4.261" y1="8.068" x2="-4.261" y2="8.068" stroke="black" stroke-width="0.013" stroke-linecap="square" />
    <line id="pi-1400" x1="-4.261" y1="8.053" x2="-4.261" y2="7.885" stroke="black" stroke-width="0.013" stroke-linecap="square" />
    <line id="pi-1401" x1="-4.353" y1="7.864" x2="-4.275" y2="7.864" stroke="black" stroke-width="0.013" stroke-linecap="square" />
    <line id="pi-1402" x1="-4.261" y1="7.864" x2="-4.261" y2="7.864" stroke="black" stroke-width="0.013" stroke-linecap="square" />
    <line id="pi-1403" x1="-4.353" y1="6.537" x2="-4.281" y2="6.537" stroke="black" stroke-width="0.013" stroke-linecap="square" />
    <line id="pi-1404" x1="-4.185" y1="6.131" x2="-4.247" y2="6.131" stroke="black" stroke-width="0.013" stroke-linecap="square" />
    <line id="pi-1405" x1="-4.261" y1="6.145" x2="-4.261" y2="6.517" stroke="black" stroke-width="0.013" stroke-linecap="square" />
    <line id="pi-2804" x1="-6.711" y1="7.658" x2="-6.711" y2="7.658" stroke="black" stroke-width="0.025" stroke-linecap="square" />
    <line id="pi-2805" x1="-6.711" y1="7.658" x2="-6.711" y2="7.658" stroke="black" stroke-width="0.025" stroke-linecap="square" />
    <line id="pi-2806" x1="-6.691" y1="7.658" x2="-6.61" y2="7.658" stroke="black" stroke-width="0.025" stroke-linecap="square" />
    <line id="pi-2807" x1="-6.61" y1="7.658" x2="-6.691" y2="7.658" stroke="black" stroke-width="0.025" stroke-linecap="square" />
    <line id="pi-2808" x1="-6.59" y1="7.961" x2="-6.59" y2="7.679" stroke="black" stroke-width="0.025" stroke-linecap="square" />
    <line id="pi-2809" x1="-6.59" y1="7.988" x2="-6.59" y2="7.988" stroke="black" stroke-width="0.013" stroke-linecap="square" />
  </g>
</svg>