<?xml version="1.0" encoding="utf-8"?>
<svg xmlns="http://www.w3.org/2000/svg" viewBox="-30.662 -13.336 15.445 18.068">
  <g transform="scale(1,-1)">
    <rect id="mn-240" x="-25.298" y="5.359" width="0.05" height="0.05" transform="rotate(180,-25.273,5.384)" />
    <rect id="mn-241" x="-15.615" y="5.359" width="0.05" height="0.05" transform="rotate(90,-15.59,5.384)" />
    <rect id="mn-242" x="-25.298" y="3.036" width="0.05" height="0.05" transform="rotate(180,-25.273,3.061)" />
    <rect id="mn-243" x="-21.238" y="9.717" width="0.05" height="0.05" transform="rotate(261.579,-21.213,9.742)" />
    <rect id="mn-244" x="-21.01" y="9.717" width="0.05" height="0.05" transform="rotate(261.579,-20.985,9.742)" />
    <rect id="mn-245" x="-20.197" y="9.717" width="0.05" height="0.05" transform="rotate(270,-20.172,9.742)" />
    <rect id="mn-246" x="-20.197" y="8.892" width="0.05" height="0.05" transform="rotate(270,-20.172,8.917)" />
    <rect id="mn-247" x="-23.799" y="12.036" width="0.05" height="0.05" transform="rotate(270,-23.774,12.061)" />
    <rect id="mn-248" x="-23.799" y="12.38" width="0.05" height="0.05" transform="rotate(240,-23.774,12.405)" />
    <rect id="mn-249" x="-23.799" y="12.38" width="0.05" height="0.05" transform="rotate(180,-23.774,12.405)" />
    <rect id="mn-250" x="-20.73" y="12.036" width="0.05" height="0.05" transform="rotate(90,-20.705,12.061)" />
    <rect id="mn-251" x="-20.73" y="12.036" width="0.05" height="0.05" transform="rotate(180,-20.705,12.061)" />
    <rect id="mn-252" x="-20.197" y="12.308" width="0.05" height="0.05" transform="rotate(90,-20.172,12.333)" />
    <rect id="mn-1475" x="-19.913" y="8.055" width="0.05" height="0.05" transform="rotate(180,-19.888,8.08)" />
    <rect id="mn-1476" x="-19.913" y="12.25" width="0.05" height="0.05" transform="rotate(179.156,-19.888,12.275)" />
    <rect id="mn-1477" x="-19.913" y="12.25" width="0.05" height="0.05" transform="rotate(180,-19.888,12.275)" />
    <rect id="mn-1478" x="-19.913" y="8.055" width="0.05" height="0.05" transform="rotate(270,-19.888,8.08)" />
    <rect id="mn-1479" x="-19.913" y="12.25" width="0.05" height="0.05" transform="rotate(180,-19.888,12.275)" />
    <rect id="mn-1480" x="-19.913" y="9.043" width="0.05" height="0.05" transform="rotate(239.309,-19.888,9.068)" />
    <rect id="mn-1481" x="-19.913" y="9.043" width="0.05" height="0.05" transform="rotate(180,-19.888,9.068)" />
    <rect id="mn-1482" x="-22.771" y="12.786" width="0.05" height="0.05" transform="rotate(120,-22.746,12.811)" />
    <rect id="mn-1483" x="-24.498" y="-4.355" width="0.05" height="0.05" transform="rotate(255.522,-24.473,-4.33)" />
    <rect id="mn-1484" x="-21.716" y="-1.736" width="0.05" height="0.05" transform="rotate(180,-21.691,-1.711)" />
    <rect id="mn-1485" x="-21.716" y="-1.736" width="0.05" height="0.05" transform="rotate(270,-21.691,-1.711)" />
    <rect id="mn-1486" x="-21.005" y="-1.736" width="0.05" height="0.05" transform="rotate(180,-20.98,-1.711)" />
    <rect id="mn-1487" x="-21.005" y="-1.412" width="0.05" height="0.05" transform="rotate(90,-20.98,-1.387)" />
    <rect id="mn-1488" x="-19.621" y="-4.384" width="0.05" height="0.05" transform="rotate(93.262,-19.596,-4.359)" />
    <rect id="mn-1489" x="-20.783" y="-2.162" width="0.05" height="0.05" transform="rotate(137.414,-20.758,-2.137)" />
    <rect id="mn-1490" x="-20.783" y="-2.162" width="0.05" height="0.05" transform="rotate(93.262,-20.758,-2.137)" />
    <rect id="mn-1491" x="-20.889" y="-1.959" width="0.05" height="0.05" transform="rotate(137.414,-20.864,-1.934)" />
    <rect id="mn-1492" x="-27.887" y="10.306" width="0.05" height="0.05" transform="rotate(240,-27.862,10.331)" />
    <rect id="mn-1493" x="-27.887" y="10.306" width="0.05" height="0.05" transform="rotate(98.421,-27.862,10.331)" />
    <rect id="mn-1494" x="-28.927" y="11.346" width="0.05" height="0.05" transform="rotate(270,-28.902,11.371)" />
    <rect id="mn-1495" x="-28.927" y="12.939" width="0.05" height="0.05" transform="rotate(120,-28.902,12.964)" />
    <rect id="mn-1496" x="-28.927" y="11.77" width="0.05" height="0.05" transform="rotate(240,-28.902,11.795)" />
    <rect id="mn-1497" x="-28.927" y="12.939" width="0.05" height="0.05" transform="rotate(180,-28.902,12.964)" />
    <rect id="mn-1498" x="-30.057" y="10.916" width="0.05" height="0.05" transform="rotate(240,-30.032,10.941)" />
    <rect id="mn-1499" x="-28.763" y="11.182" width="0.05" height="0.05" transform="rotate(315,-28.738,11.207)" />
    <rect id="mn-1500" x="-29.029" y="10.916" width="0.05" height="0.05" />
    <rect id="mn-1501" x="-28.927" y="12.25" width="0.05" height="0.05" transform="rotate(179.156,-28.902,12.275)" />
    <rect id="mn-1502" x="-28.927" y="12.25" width="0.05" height="0.05" transform="rotate(90,-28.902,12.275)" />
    <rect id="mn-1503" x="-28.927" y="12.25" width="0.05" height="0.05" transform="rotate(240,-28.902,12.275)" />
    <rect id="mn-1504" x="-28.927" y="12.25" width="0.05" height="0.05" transform="rotate(90,-28.902,12.275)" />
    <rect id="mn-1505" x="-22.771" y="12.786" width="0.05" height="0.05" transform="rotate(180,-22.746,12.811)" />
    <rect id="mn-1506" x="-22.771" y="12.25" width="0.05" height="0.05" transform="rotate(179.156,-22.746,12.275)" />
    <rect id="mn-1507" x="-22.771" y="12.25" width="0.05" height="0.05" transform="rotate(90,-22.746,12.275)" />
    <rect id="mn-1508" x="-22.771" y="12.25" width="0.05" height="0.05" transform="rotate(240,-22.746,12.275)" />
    <rect id="mn-1509" x="-22.771" y="12.25" width="0.05" height="0.05" transform="rotate(90,-22.746,12.275)" />
    <rect id="mn-1510" x="-22.771" y="11.77" width="0.05" height="0.05" transform="rotate(270,-22.746,11.795)" />
    <rect id="mn-1511" x="-20.523" y="12.777" width="0.05" height="0.05" transform="rotate(180,-20.498,12.802)" />
    <rect id="mn-1512" x="-20.523" y="12.334" width="0.05" height="0.05" transform="rotate(240,-20.498,12.359)" />
    <rect id="mn-1513" x="-20.523" y="12.334" width="0.05" height="0.05" transform="rotate(180,-20.498,12.359)" />
    <rect id="mn-1514" x="-20.523" y="6.466" width="0.05" height="0.05" transform="rotate(240,-20.498,6.491)" />
    <rect id="mn-1515" x="-20.523" y="6.136" width="0.05" height="0.05" transform="rotate(211.4,-20.498,6.161)" />
    <rect id="mn-1516" x="-20.523" y="5.523" width="0.05" height="0.05" transform="rotate(240,-20.498,5.548)" />
    <rect id="mn-1517" x="-20.523" y="5.193" width="0.05" height="0.05" transform="rotate(211.4,-20.498,5.218)" />
    <rect id="mn-1518" x="-28.248" y="5.741" width="0.05" height="0.05" transform="rotate(120,-28.223,5.766)" />
    <rect id="mn-1519" x="-28.248" y="5.741" width="0.05" height="0.05" transform="rotate(180,-28.223,5.766)" />
    <rect id="mn-1520" x="-28.248" y="5.411" width="0.05" height="0.05" transform="rotate(240,-28.223,5.436)" />
    <rect id="mn-1521" x="-17.17" y="10.948" width="0.05" height="0.05" transform="rotate(180,-17.145,10.973)" />
    <rect id="mn-1522" x="-20.523" y="3.979" width="0.05" height="0.05" transform="rotate(180,-20.498,4.004)" />
    <rect id="mn-1523" x="-20.523" y="12.608" width="0.05" height="0.05" transform="rotate(90,-20.498,12.633)" />
    <rect id="mn-1524" x="-19.913" y="10.186" width="0.05" height="0.05" transform="rotate(180,-19.888,10.211)" />
    <rect id="mn-1525" x="-19.913" y="6.506" width="0.05" height="0.05" transform="rotate(180,-19.888,6.531)" />
    <rect id="mn-1526" x="-19.913" y="6.506" width="0.05" height="0.05" transform="rotate(90,-19.888,6.531)" />
    <rect id="mn-1527" x="-19.913" y="9.144" width="0.05" height="0.05" transform="rotate(120,-19.888,9.169)" />
    <rect id="mn-1528" x="-19.913" y="9.144" width="0.05" height="0.05" transform="rotate(240,-19.888,9.169)" />
    <rect id="mn-1529" x="-19.913" y="8.157" width="0.05" height="0.05" transform="rotate(240,-19.888,8.182)" />
    <rect id="mn-1530" x="-19.913" y="8.157" width="0.05" height="0.05" transform="rotate(240,-19.888,8.182)" />
    <rect id="mn-1531" x="-19.913" y="8.941" width="0.05" height="0.05" transform="rotate(180,-19.888,8.966)" />
    <rect id="mn-1532" x="-19.913" y="8.941" width="0.05" height="0.05" transform="rotate(120,-19.888,8.966)" />
    <rect id="mn-1533" x="-19.913" y="7.954" width="0.05" height="0.05" transform="rotate(180,-19.888,7.979)" />
    <rect id="mn-1534" x="-19.913" y="7.954" width="0.05" height="0.05" transform="rotate(90,-19.888,7.979)" />
    <rect id="mn-1535" x="-19.913" y="10.186" width="0.05" height="0.05" transform="rotate(120,-19.888,10.211)" />
    <rect id="mn-1536" x="-19.913" y="10.948" width="0.05" height="0.05" transform="rotate(180,-19.888,10.973)" />
    <rect id="mn-1537" x="-19.913" y="10.948" width="0.05" height="0.05" transform="rotate(180,-19.888,10.973)" />
    <rect id="mn-1538" x="-17.246" y="10.948" width="0.05" height="0.05" transform="rotate(90,-17.221,10.973)" />
    <rect id="mn-1539" x="-17.322" y="10.948" width="0.05" height="0.05" transform="rotate(90,-17.297,10.973)" />
    <rect id="mn-1540" x="-17.322" y="10.948" width="0.05" height="0.05" transform="rotate(180,-17.297,10.973)" />
    <rect id="mn-1541" x="-17.17" y="10.78" width="0.05" height="0.05" transform="rotate(180,-17.145,10.805)" />
    <rect id="mn-1542" x="-17.17" y="10.807" width="0.05" height="0.05" transform="rotate(90,-17.145,10.832)" />
    <rect id="mn-1543" x="-17.246" y="10.948" width="0.05" height="0.05" transform="rotate(240,-17.221,10.973)" />
    <rect id="mn-1544" x="-17.17" y="10.948" width="0.05" height="0.05" transform="rotate(90,-17.145,10.973)" />
    <rect id="mn-1545" x="-17.17" y="10.948" width="0.05" height="0.05" transform="rotate(180,-17.145,10.973)" />
    <rect id="mn-1546" x="-17.17" y="10.78" width="0.05" height="0.05" transform="rotate(270,-17.145,10.805)" />
    <rect id="mn-1547" x="-20.523" y="12.777" width="0.05" height="0.05" transform="rotate(180,-20.498,12.802)" />
    <rect id="mn-1548" x="-20.523" y="12.608" width="0.05" height="0.05" transform="rotate(240,-20.498,12.633)" />
    <rect id="mn-1549" x="-20.523" y="12.608" width="0.05" height="0.05" transform="rotate(180,-20.498,12.633)" />
    <rect id="mn-1550" x="-20.523" y="12.635" width="0.05" height="0.05" transform="rotate(90,-20.498,12.66)" />
    <rect id="mn-1551" x="-20.523" y="12.818" width="0.05" height="0.05" transform="rotate(90,-20.498,12.843)" />
    <rect id="mn-1552" x="-20.599" y="12.818" width="0.05" height="0.05" transform="rotate(180,-20.574,12.843)" />
    <rect id="mn-1553" x="-20.599" y="12.818" width="0.05" height="0.05" transform="rotate(120,-20.574,12.843)" />
    <rect id="mn-1554" x="-28.825" y="12.818" width="0.05" height="0.05" transform="rotate(180,-28.8,12.843)" />
    <rect id="mn-1555" x="-22.669" y="12.818" width="0.05" height="0.05" transform="rotate(180,-22.644,12.843)" />
    <rect id="mn-1556" x="-22.669" y="12.818" width="0.05" height="0.05" transform="rotate(180,-22.644,12.843)" />
    <rect id="mn-1557" x="-28.689" y="12.818" width="0.05" height="0.05" transform="rotate(180,-28.664,12.843)" />
    <rect id="mn-1558" x="-28.689" y="12.818" width="0.05" height="0.05" transform="rotate(120,-28.664,12.843)" />
    <rect id="mn-1559" x="-29.029" y="12.818" width="0.05" height="0.05" transform="rotate(180,-29.004,12.843)" />
    <rect id="mn-1560" x="-22.872" y="12.818" width="0.05" height="0.05" />
    <rect id="mn-1561" x="-22.763" y="12.818" width="0.05" height="0.05" transform="rotate(90,-22.738,12.843)" />
    <rect id="mn-1562" x="-22.763" y="12.818" width="0.05" height="0.05" transform="rotate(240,-22.738,12.843)" />
    <rect id="mn-1563" x="-20.675" y="12.818" width="0.05" height="0.05" transform="rotate(90,-20.65,12.843)" />
    <rect id="mn-1564" x="-20.675" y="12.818" width="0.05" height="0.05" transform="rotate(120,-20.65,12.843)" />
    <rect id="mn-1565" x="-29.029" y="12.818" width="0.05" height="0.05" transform="rotate(180,-29.004,12.843)" />
    <rect id="mn-1566" x="-30.21" y="12.818" width="0.05" height="0.05" transform="rotate(180,-30.185,12.843)" />
    <rect id="mn-1567" x="-28.825" y="12.818" width="0.05" height="0.05" transform="rotate(180,-28.8,12.843)" />
    <rect id="mn-1568" x="-30.21" y="12.818" width="0.05" height="0.05" transform="rotate(180,-30.185,12.843)" />
    <rect id="mn-1569" x="-30.315" y="10.473" width="0.05" height="0.05" transform="rotate(270,-30.29,10.498)" />
    <rect id="mn-1570" x="-30.315" y="10.473" width="0.05" height="0.05" transform="rotate(270,-30.29,10.498)" />
    <rect id="mn-1571" x="-30.21" y="12.139" width="0.05" height="0.05" />
    <rect id="mn-1572" x="-30.315" y="12.139" width="0.05" height="0.05" transform="rotate(180,-30.29,12.164)" />
    <rect id="mn-1573" x="-30.21" y="12.139" width="0.05" height="0.05" />
    <rect id="mn-1574" x="-30.315" y="12.139" width="0.05" height="0.05" transform="rotate(180,-30.29,12.164)" />
    <rect id="mn-1575" x="-27.989" y="10.473" width="0.05" height="0.05" transform="rotate(90,-27.964,10.498)" />
    <rect id="mn-1576" x="-27.786" y="10.473" width="0.05" height="0.05" transform="rotate(270,-27.761,10.498)" />
    <rect id="mn-1577" x="-27.989" y="10.473" width="0.05" height="0.05" transform="rotate(90,-27.964,10.498)" />
    <rect id="mn-1578" x="-27.786" y="10.473" width="0.05" height="0.05" transform="rotate(90,-27.761,10.498)" />
    <rect id="mn-1579" x="-30.315" y="11.018" width="0.05" height="0.05" transform="rotate(180,-30.29,11.043)" />
    <rect id="mn-1580" x="-30.262" y="11.018" width="0.05" height="0.05" transform="rotate(180,-30.237,11.043)" />
    <rect id="mn-1581" x="-30.262" y="11.018" width="0.05" height="0.05" transform="rotate(90,-30.237,11.043)" />
    <rect id="mn-1582" x="-30.315" y="10.814" width="0.05" height="0.05" transform="rotate(240,-30.29,10.839)" />
    <rect id="mn-1583" x="-30.315" y="10.814" width="0.05" height="0.05" transform="rotate(240,-30.29,10.839)" />
    <rect id="mn-3799" x="-27.416" y="8.979" width="0.05" height="0.05" transform="rotate(201.091,-27.391,9.004)" />
  </g>
</svg>