<?xml version="1.0" encoding="utf-8"?>
<svg xmlns="http://www.w3.org/2000/svg" viewBox="-30.636 -13.310 13.838 18.016">
  <g transform="scale(1,-1)">
    <path id="pi-493" d="M -19.796,8.08 L -19.81,8.08" />
    <path id="pi-494" d="M -19.796,9.068 L -19.81,9.068" />
    <path id="pi-495" d="M -19.888,9.068 L -19.888,9.068" />
    <path id="pi-496" d="M -19.888,9.013 L -19.888,8.158" />
    <path id="pi-497" d="M -19.888,12.275 L -19.888,12.275" />
    <path id="pi-498" d="M -19.888,8.08 L -19.888,8.08" />
    <path id="pi-499" d="M -19.888,12.197 L -19.888,9.146" />
    <path id="pi-500" d="M -30.032,10.941 L -30.032,10.941" />
    <path id="pi-501" d="M -28.902,12.71 L -28.902,12.886" />
    <path id="pi-502" d="M -28.902,12.964 L -28.902,12.964" />
    <path id="pi-503" d="M -27.862,10.56 L -27.862,10.409" />
    <path id="pi-504" d="M -27.862,10.331 L -27.862,10.331" />
    <path id="pi-505" d="M -22.746,12.71 L -22.746,12.733" />
    <path id="pi-506" d="M -22.746,12.811 L -22.746,12.811" />
    <path id="pi-507" d="M -28.902,11.795 L -28.902,11.795" />
    <path id="pi-508" d="M -22.746,11.795 L -22.746,11.795" />
    <path id="pi-509" d="M -24.473,-4.33 L -24.473,-4.33" />
    <path id="pi-510" d="M -21.691,-1.711 L -21.691,-1.711" />
    <path id="pi-511" d="M -21.691,-1.634 L -21.691,-1.465" />
    <path id="pi-512" d="M -21.613,-1.387 L -21.058,-1.387" />
    <path id="pi-513" d="M -20.98,-1.634 L -20.98,-1.465" />
    <path id="pi-514" d="M -19.596,-4.359 L -19.596,-4.359" />
    <path id="pi-515" d="M -19.632,-4.29 L -20.722,-2.206" />
    <path id="pi-516" d="M -20.758,-2.137 L -20.758,-2.137" />
    <path id="pi-517" d="M -20.794,-2.068 L -20.838,-1.985" />
    <path id="pi-518" d="M -20.883,-1.898 L -20.947,-1.775" />
    <path id="pi-519" d="M -28.793,11.262 L -28.862,11.331" />
    <path id="pi-520" d="M -28.902,11.741 L -28.902,11.428" />
    <path id="pi-521" d="M -28.902,12.886 L -28.902,12.353" />
    <path id="pi-522" d="M -29.955,10.941 L -29.061,10.941" />
    <path id="pi-523" d="M -28.793,11.152 L -28.963,10.981" />
    <path id="pi-524" d="M -27.917,10.386 L -28.7,11.169" />
    <path id="pi-525" d="M -28.902,12.275 L -28.902,12.275" />
    <path id="pi-526" d="M -28.902,12.197 L -28.902,11.873" />
    <path id="pi-527" d="M -28.902,12.275 L -28.902,12.275" />
    <path id="pi-528" d="M -22.746,12.733 L -22.746,12.353" />
    <path id="pi-529" d="M -22.746,12.275 L -22.746,12.275" />
    <path id="pi-530" d="M -22.746,12.197 L -22.746,11.873" />
    <path id="pi-531" d="M -22.746,12.275 L -22.746,12.275" />
    <path id="pi-532" d="M -19.796,10.211 L -19.874,10.211" />
    <path id="pi-533" d="M -19.796,8.966 L -19.874,8.966" />
    <path id="pi-534" d="M -19.796,7.979 L -19.874,7.979" />
    <path id="pi-535" d="M -17.145,10.973 L -17.145,10.973" />
    <path id="pi-536" d="M -17.145,10.805 L -17.145,10.805" />
    <path id="pi-537" d="M -20.498,12.633 L -20.498,12.633" />
    <path id="pi-538" d="M -20.498,12.802 L -20.498,12.802" />
    <path id="pi-539" d="M -20.498,12.781 L -20.498,12.379" />
    <path id="pi-540" d="M -20.498,12.359 L -20.498,12.359" />
    <path id="pi-541" d="M -20.498,12.338 L -20.498,6.5" />
    <path id="pi-542" d="M -20.498,6.485 L -20.498,6.167" />
    <path id="pi-543" d="M -20.498,6.152 L -20.498,5.557" />
    <path id="pi-544" d="M -20.498,5.542 L -20.498,5.224" />
    <path id="pi-545" d="M -20.498,5.21 L -20.498,4.031" />
    <path id="pi-546" d="M -28.223,5.566 L -28.223,5.752" />
    <path id="pi-547" d="M -28.223,5.766 L -28.223,5.766" />
    <path id="pi-548" d="M -28.223,5.752 L -28.223,5.45" />
    <path id="pi-549" d="M -28.223,5.436 L -28.223,5.436" />
    <path id="pi-550" d="M -19.888,10.211 L -19.888,10.211" />
    <path id="pi-551" d="M -19.888,6.531 L -19.888,6.531" />
    <path id="pi-552" d="M -19.796,6.531 L -19.874,6.531" />
    <path id="pi-553" d="M -19.888,8.161 L -19.888,6.545" />
    <path id="pi-554" d="M -19.796,9.169 L -19.874,9.169" />
    <path id="pi-555" d="M -19.888,9.169 L -19.888,9.169" />
    <path id="pi-556" d="M -19.888,10.19 L -19.888,9.19" />
    <path id="pi-557" d="M -19.796,8.182 L -19.874,8.182" />
    <path id="pi-558" d="M -19.888,8.182 L -19.888,8.182" />
    <path id="pi-559" d="M -19.888,9.149 L -19.888,8.203" />
    <path id="pi-560" d="M -19.888,8.966 L -19.888,8.966" />
    <path id="pi-561" d="M -19.888,8.987 L -19.888,10.959" />
    <path id="pi-562" d="M -19.888,8.946 L -19.888,7.993" />
    <path id="pi-563" d="M -19.888,7.979 L -19.888,7.979" />
    <path id="pi-564" d="M -19.888,10.231 L -19.888,10.959" />
    <path id="pi-565" d="M -19.874,10.973 L -17.312,10.973" />
    <path id="pi-566" d="M -19.874,10.973 L -17.235,10.973" />
    <path id="pi-567" d="M -17.145,10.805 L -17.145,10.805" />
    <path id="pi-568" d="M -17.221,10.973 L -17.221,10.973" />
    <path id="pi-569" d="M -17.207,10.973 L -17.159,10.973" />
    <path id="pi-570" d="M -17.297,10.959 L -17.297,10.819" />
    <path id="pi-571" d="M -17.297,10.973 L -17.297,10.973" />
    <path id="pi-572" d="M -17.145,10.839 L -17.145,10.959" />
    <path id="pi-573" d="M -17.145,10.805 L -17.145,10.805" />
    <path id="pi-574" d="M -17.145,10.952 L -17.145,10.825" />
    <path id="pi-575" d="M -20.498,12.633 L -20.498,12.633" />
    <path id="pi-576" d="M -20.498,12.781 L -20.498,12.654" />
    <path id="pi-577" d="M -20.498,12.667 L -20.498,12.829" />
    <path id="pi-578" d="M -20.498,12.633 L -20.498,12.633" />
    <path id="pi-579" d="M -20.512,12.843 L -20.56,12.843" />
    <path id="pi-580" d="M -20.574,12.843 L -20.574,12.843" />
    <path id="pi-581" d="M -28.8,12.71 L -28.8,12.829" />
    <path id="pi-582" d="M -28.8,12.843 L -28.8,12.843" />
    <path id="pi-583" d="M -22.665,12.843 L -28.78,12.843" />
    <path id="pi-584" d="M -22.644,12.71 L -22.644,12.829" />
    <path id="pi-585" d="M -22.644,12.843 L -22.644,12.843" />
    <path id="pi-586" d="M -20.588,12.843 L -22.623,12.843" />
    <path id="pi-587" d="M -22.847,12.71 L -22.847,12.822" />
    <path id="pi-588" d="M -22.868,12.843 L -28.65,12.843" />
    <path id="pi-589" d="M -28.664,12.843 L -28.664,12.843" />
    <path id="pi-590" d="M -29.004,12.71 L -29.004,12.829" />
    <path id="pi-591" d="M -29.004,12.843 L -29.004,12.843" />
    <path id="pi-592" d="M -28.678,12.843 L -28.983,12.843" />
    <path id="pi-593" d="M -22.827,12.843 L -22.752,12.843" />
    <path id="pi-594" d="M -22.723,12.843 L -20.664,12.843" />
    <path id="pi-595" d="M -22.738,12.843 L -22.738,12.843" />
    <path id="pi-596" d="M -20.65,12.648 L -20.65,12.829" />
    <path id="pi-597" d="M -20.65,12.843 L -20.65,12.843" />
    <path id="pi-598" d="M -29.024,12.843 L -30.17,12.843" />
    <path id="pi-599" d="M -30.29,10.819 L -30.29,10.512" />
    <path id="pi-600" d="M -28.821,12.843 L -30.17,12.843" />
    <path id="pi-601" d="M -30.29,11.022 L -30.29,10.512" />
    <path id="pi-602" d="M -30.185,12.829 L -30.185,12.179" />
    <path id="pi-603" d="M -30.185,12.829 L -30.185,12.179" />
    <path id="pi-604" d="M -30.199,12.164 L -30.275,12.164" />
    <path id="pi-605" d="M -30.199,12.164 L -30.275,12.164" />
    <path id="pi-606" d="M -27.964,10.56 L -27.964,10.512" />
    <path id="pi-607" d="M -27.964,10.498 L -27.964,10.498" />
    <path id="pi-608" d="M -30.275,10.498 L -27.978,10.498" />
    <path id="pi-609" d="M -27.761,10.56 L -27.761,10.512" />
    <path id="pi-610" d="M -27.761,10.498 L -27.761,10.498" />
    <path id="pi-611" d="M -30.275,10.498 L -27.775,10.498" />
    <path id="pi-612" d="M -30.185,11.043 L -30.223,11.043" />
    <path id="pi-613" d="M -30.269,11.043 L -30.251,11.043" />
    <path id="pi-614" d="M -30.29,12.15 L -30.29,11.063" />
    <path id="pi-615" d="M -30.237,11.043 L -30.237,11.043" />
    <path id="pi-616" d="M -30.185,10.839 L -30.275,10.839" />
    <path id="pi-617" d="M -30.29,10.839 L -30.29,10.839" />
    <path id="pi-618" d="M -30.29,12.15 L -30.29,10.86" />
  </g>
</svg>