<?xml version="1.0" encoding="utf-8"?>
<svg xmlns="http://www.w3.org/2000/svg" viewBox="-33.617 -13.881 36.448 22.513">
  <g transform="scale(1,-1)">
    <rect id="tm-254" x="-29.101" y="6.525" width="0.3" height="0.3" transform="rotate(180,-28.951,6.675)" />
    <rect id="tm-255" x="1.83" y="4.993" width="0.3" height="0.3" transform="rotate(180,1.98,5.143)" />
    <rect id="tm-256" x="1.83" y="4.993" width="0.3" height="0.3" transform="rotate(180,1.98,5.143)" />
    <rect id="tm-257" x="1.83" y="4.993" width="0.3" height="0.3" transform="rotate(180,1.98,5.143)" />
    <rect id="tm-258" x="1.83" y="4.993" width="0.3" height="0.3" transform="rotate(180,1.98,5.143)" />
    <rect id="tm-259" x="1.83" y="4.993" width="0.3" height="0.3" transform="rotate(180,1.98,5.143)" />
    <rect id="tm-260" x="-30.821" y="6.518" width="0.3" height="0.3" transform="rotate(240,-30.671,6.668)" />
    <rect id="tm-261" x="-4.344" y="9.535" width="0.3" height="0.3" transform="rotate(180,-4.194,9.685)" />
    <rect id="tm-262" x="-4.344" y="6.927" width="0.3" height="0.3" transform="rotate(180,-4.194,7.077)" />
    <rect id="tm-263" x="-0.785" y="9.535" width="0.3" height="0.3" transform="rotate(180,-0.635,9.685)" />
    <rect id="tm-264" x="1.653" y="9.535" width="0.3" height="0.3" transform="rotate(180,1.803,9.685)" />
    <rect id="tm-588" x="-25.144" y="5.132" width="0.3" height="0.3" transform="rotate(90,-24.994,5.282)" />
    <rect id="tm-589" x="-23.315" y="5.132" width="0.3" height="0.3" transform="rotate(90,-23.165,5.282)" />
    <rect id="tm-590" x="-21.486" y="5.132" width="0.3" height="0.3" transform="rotate(90,-21.336,5.282)" />
    <rect id="tm-591" x="-19.657" y="5.132" width="0.3" height="0.3" transform="rotate(90,-19.507,5.282)" />
    <rect id="tm-592" x="-17.828" y="5.132" width="0.3" height="0.3" transform="rotate(90,-17.678,5.282)" />
    <rect id="tm-593" x="-23.924" y="12.88" width="0.3" height="0.3" transform="rotate(180,-23.774,13.03)" />
    <rect id="tm-594" x="-20.732" y="3.012" width="0.3" height="0.3" transform="rotate(90,-20.582,3.162)" />
    <rect id="tm-595" x="-24.906" y="3.012" width="0.3" height="0.3" transform="rotate(90,-24.756,3.162)" />
    <rect id="tm-596" x="-16.533" y="3.012" width="0.3" height="0.3" transform="rotate(90,-16.383,3.162)" />
    <rect id="tm-597" x="-18.667" y="3.012" width="0.3" height="0.3" transform="rotate(90,-18.517,3.162)" />
    <rect id="tm-598" x="-22.86" y="3.012" width="0.3" height="0.3" transform="rotate(90,-22.71,3.162)" />
    <rect id="tm-599" x="-20.322" y="11.708" width="0.3" height="0.3" transform="rotate(270,-20.172,11.858)" />
    <rect id="tm-600" x="-20.322" y="10.353" width="0.3" height="0.3" transform="rotate(270,-20.172,10.503)" />
    <rect id="tm-601" x="-20.322" y="9.16" width="0.3" height="0.3" transform="rotate(90,-20.172,9.31)" />
    <rect id="tm-602" x="-26.24" y="12.88" width="0.3" height="0.3" transform="rotate(180,-26.09,13.03)" />
    <rect id="tm-967" x="-16.635" y="12.88" width="0.3" height="0.3" transform="rotate(180,-16.485,13.03)" />
    <rect id="tm-1186" x="-31.583" y="-3.052" width="0.3" height="0.3" transform="rotate(315,-31.433,-2.902)" />
    <rect id="tm-1187" x="-26.707" y="-3.053" width="0.3" height="0.3" transform="rotate(315,-26.557,-2.903)" />
    <rect id="tm-1188" x="-21.831" y="-3.054" width="0.3" height="0.3" transform="rotate(315,-21.681,-2.904)" />
    <rect id="tm-1189" x="-16.955" y="-3.055" width="0.3" height="0.3" transform="rotate(315,-16.805,-2.905)" />
    <rect id="tm-1190" x="-24.269" y="-5.491" width="0.3" height="0.3" transform="rotate(315,-24.119,-5.341)" />
    <rect id="tm-1191" x="-19.394" y="-5.492" width="0.3" height="0.3" transform="rotate(315,-19.244,-5.342)" />
    <rect id="tm-1192" x="-16.955" y="-7.931" width="0.3" height="0.3" transform="rotate(315,-16.805,-7.781)" />
    <rect id="tm-1193" x="-21.831" y="-7.93" width="0.3" height="0.3" transform="rotate(315,-21.681,-7.78)" />
    <rect id="tm-1194" x="-26.707" y="-7.929" width="0.3" height="0.3" transform="rotate(315,-26.557,-7.779)" />
    <rect id="tm-1195" x="-31.583" y="-7.928" width="0.3" height="0.3" transform="rotate(315,-31.433,-7.778)" />
    <rect id="tm-1196" x="-4.344" y="9.535" width="0.3" height="0.3" transform="rotate(180,-4.194,9.685)" />
    <rect id="tm-1197" x="-4.344" y="6.927" width="0.3" height="0.3" transform="rotate(180,-4.194,7.077)" />
    <rect id="tm-1198" x="-0.785" y="9.535" width="0.3" height="0.3" transform="rotate(180,-0.635,9.685)" />
    <rect id="tm-1199" x="1.653" y="9.535" width="0.3" height="0.3" transform="rotate(180,1.803,9.685)" />
    <rect id="tm-1200" x="-19.946" y="9.439" width="0.3" height="0.3" transform="rotate(120,-19.796,9.589)" />
    <rect id="tm-1201" x="-19.946" y="7.483" width="0.3" height="0.3" transform="rotate(120,-19.796,7.633)" />
    <rect id="tm-1202" x="-18.997" y="8.486" width="0.3" height="0.3" transform="rotate(180,-18.847,8.636)" />
    <rect id="tm-1203" x="-19.001" y="8.362" width="0.3" height="0.3" transform="rotate(90,-18.851,8.512)" />
    <rect id="tm-1204" x="-22.854" y="7.607" width="0.3" height="0.3" transform="rotate(180,-22.704,7.757)" />
    <rect id="tm-1205" x="-22.028" y="7.607" width="0.3" height="0.3" transform="rotate(180,-21.878,7.757)" />
    <rect id="tm-1206" x="-22.432" y="10.645" width="0.3" height="0.3" transform="rotate(90,-22.282,10.795)" />
    <rect id="tm-1207" x="-23.981" y="10.643" width="0.3" height="0.3" transform="rotate(180,-23.831,10.793)" />
    <rect id="tm-1208" x="-25.229" y="10.643" width="0.3" height="0.3" transform="rotate(180,-25.079,10.793)" />
    <rect id="tm-1209" x="-26.177" y="10.643" width="0.3" height="0.3" transform="rotate(180,-26.027,10.793)" />
    <rect id="tm-1210" x="-18.921" y="6.003" width="0.3" height="0.3" transform="rotate(90,-18.771,6.153)" />
    <rect id="tm-1211" x="-15.466" y="4.232" width="0.3" height="0.3" transform="rotate(240,-15.316,4.382)" />
    <rect id="tm-1212" x="-27.598" y="5.095" width="0.3" height="0.3" transform="rotate(120,-27.448,5.245)" />
    <rect id="tm-1213" x="-26.078" y="2.65" width="0.3" height="0.3" transform="rotate(180,-25.928,2.8)" />
    <rect id="tm-1214" x="-23.047" y="2.65" width="0.3" height="0.3" transform="rotate(180,-22.897,2.8)" />
    <rect id="tm-1215" x="-20.015" y="2.65" width="0.3" height="0.3" transform="rotate(180,-19.865,2.8)" />
    <rect id="tm-1216" x="-16.984" y="2.65" width="0.3" height="0.3" transform="rotate(180,-16.834,2.8)" />
    <rect id="tm-1217" x="-27.053" y="5.73" width="0.3" height="0.3" transform="rotate(180,-26.903,5.88)" />
    <rect id="tm-1218" x="-26.3" y="5.73" width="0.3" height="0.3" transform="rotate(180,-26.15,5.88)" />
    <rect id="tm-1219" x="-24.74" y="7.483" width="0.3" height="0.3" transform="rotate(90,-24.59,7.633)" />
    <rect id="tm-1220" x="-23.308" y="7.483" width="0.3" height="0.3" transform="rotate(90,-23.158,7.633)" />
    <rect id="tm-1221" x="-24.566" y="7.607" width="0.3" height="0.3" transform="rotate(180,-24.416,7.757)" />
    <rect id="tm-1222" x="-25.68" y="7.616" width="0.3" height="0.3" transform="rotate(90,-25.53,7.766)" />
    <rect id="tm-1223" x="-24.948" y="12.56" width="0.3" height="0.3" transform="rotate(90,-24.798,12.71)" />
    <rect id="tm-1224" x="-26.495" y="12.56" width="0.3" height="0.3" transform="rotate(90,-26.345,12.71)" />
    <rect id="tm-1225" x="-27.858" y="3.05" width="0.3" height="0.3" transform="rotate(240,-27.708,3.2)" />
    <rect id="tm-1226" x="-15.466" y="1.399" width="0.3" height="0.3" transform="rotate(240,-15.316,1.549)" />
    <rect id="tm-1227" x="-32.916" y="5.416" width="0.3" height="0.3" transform="rotate(90,-32.766,5.566)" />
    <rect id="tm-1228" x="-19.946" y="9.948" width="0.3" height="0.3" transform="rotate(120,-19.796,10.098)" />
    <rect id="tm-1229" x="-19.946" y="6.883" width="0.3" height="0.3" transform="rotate(120,-19.796,7.033)" />
    <rect id="tm-1230" x="-18.286" y="11.051" width="0.3" height="0.3" transform="rotate(180,-18.136,11.201)" />
    <rect id="tm-1231" x="-21.003" y="12.56" width="0.3" height="0.3" transform="rotate(90,-20.853,12.71)" />
    <rect id="tm-1232" x="-16.914" y="10.731" width="0.3" height="0.3" transform="rotate(90,-16.764,10.881)" />
  </g>
</svg>