<?xml version="1.0" encoding="utf-8"?>
<svg xmlns="http://www.w3.org/2000/svg" viewBox="-34.429 -13.847 19.863 23.111">
  <g transform="scale(1,-1)">
    <path id="w-1" d="M -33.812,-0.051 L -33.812,5.634" />
    <path id="w-2" d="M -33.833,13.183 L -30.518,13.183" />
    <path id="w-11" d="M -30.518,5.855 L -30.518,12.87" />
    <path id="w-12" d="M -33.833,5.855 L -30.518,5.855" />
    <path id="w-31" d="M -33.833,5.855 L -33.833,13.183" />
    <path id="w-32" d="M -30.518,12.87 L -15.164,12.87" />
    <path id="w-43" d="M -27.526,7.644 L -27.526,5.818" />
    <path id="w-44" d="M -27.578,2.765 L -15.13,2.765" />
    <path id="w-45" d="M -15.011,11.041 L -19.82,11.041" />
    <path id="w-46" d="M -19.82,11.041 L -19.82,12.87" />
    <path id="w-643" d="M -16.581,11.041 L -16.581,6.558" />
    <path id="w-47" d="M -19.888,11.041 L -19.888,6.215" />
    <path id="w-48" d="M -27.572,7.695 L -21.433,7.695" />
    <path id="w-49" d="M -21.433,7.695 L -21.433,8.761" />
    <path id="w-50" d="M -21.433,8.761 L -19.888,8.761" />
    <path id="w-67" d="M -27.699,7.811 L -27.699,10.325" />
    <path id="w-68" d="M -27.699,10.325 L -30.518,10.325" />
    <path id="w-69" d="M -30.518,7.811 L -27.699,7.811" />
    <path id="w-644" d="M -27.578,5.818 L -25.706,5.818" />
    <path id="w-645" d="M -25.706,5.818 L -25.706,6.718" />
    <path id="w-126" d="M -26.451,10.857 L -21.574,10.857" />
    <path id="w-131" d="M -30.518,12.87 L -30.518,13.183" />
    <path id="w-133" d="M -17.607,11.041 L -17.607,6.215" />
    <path id="w-134" d="M -19.888,6.215 L -17.607,6.215" />
    <path id="w-135" d="M -19.888,8.574 L -17.607,8.574" />
    <path id="w-136" d="M -17.607,10.174 L -16.581,10.174" />
    <path id="w-137" d="M -30.518,5.696 L -27.578,5.696" />
    <path id="w-138" d="M -27.578,5.696 L -27.578,2.765" />
    <path id="w-139" d="M -15.37,12.144 L -15.37,2.945" />
    <path id="w-141" d="M -15.323,-8.153 L -15.323,-8.74" />
    <path id="w-142" d="M -15.323,-8.74 L -15.164,-8.74" />
    <path id="w-155" d="M -30.326,5.634 L -33.812,5.634" />
    <path id="w-167" d="M -27.518,10.506 L -30.282,10.506" />
    <path id="w-168" d="M -30.282,12.87 L -30.282,10.506" />
    <path id="w-169" d="M -27.526,7.644 L -30.326,7.644" />
    <path id="w-170" d="M -27.518,10.506 L -27.518,7.695" />
    <path id="w-171" d="M -30.326,7.644 L -30.326,5.718" />
    <path id="w-172" d="M -15.323,-8.153 L -15.164,-8.153" />
    <path id="w-646" d="M -28.342,-8.819 L -15.323,-8.819" />
    <path id="w-647" d="M -28.342,-2.51 L -28.342,-4.501" />
    <path id="w-648" d="M -28.342,-2.51 L -15.294,-2.51" />
    <path id="w-649" d="M -30.364,-2.51 L -30.364,-8.819" />
    <path id="w-650" d="M -30.364,-2.51 L -33.985,-2.51" />
    <path id="w-651" d="M -28.342,-6.828 L -28.342,-8.819" />
    <path id="w-234" d="M -33.985,13.403 L -30.297,13.403" />
    <path id="w-235" d="M -30.297,12.87 L -30.297,13.403" />
    <path id="w-652" d="M -33.277,12.784 L -30.518,12.784" />
    <path id="w-279" d="M -27.408,6.526 L -27.526,6.526" />
    <path id="w-280" d="M -27.408,6.526 L -27.408,6.145" />
    <path id="w-295" d="M -15.094,2.945 L -15.37,2.945" />
    <path id="w-653" d="M -28.342,-4.501 L -27.146,-4.501" />
    <path id="w-654" d="M -28.342,-6.828 L -27.146,-6.828" />
    <path id="w-655" d="M -30.364,-8.819 L -33.985,-8.819" />
  </g>
</svg>