<?xml version="1.0" encoding="utf-8"?>
<svg xmlns="http://www.w3.org/2000/svg" viewBox="-34.527 -13.585 56.082 16.709">
  <g transform="scale(1,-1)">
    <polygon id="sl-42" points="-8.407,5.769 -1.854,5.769 -1.854,5.877 -1.854,8.398 -1.854,8.506 -8.299,8.506 -8.407,8.506 -8.407,5.877" />
    <polygon id="sl-43" points="-29.197,5.566 -29.197,4.372 -25.692,4.372 -25.692,5.753 -27.978,5.753 -27.978,7.547 -30.229,7.547 -30.229,5.566" />
    <polygon id="sl-44" points="-13.818,4.372 -13.818,4.016 -6.055,4.016 -6.055,1.674 0.972,1.674 0.972,2.502 5.918,2.502 5.918,3.721 0.718,3.721 0.718,4.178 0.972,4.178 0.972,5.753 -0.997,5.753 -0.997,5.236 -8.56,5.236 -8.56,9.039 -6.458,9.039 -6.458,8.658 -5.239,8.658 -5.239,9.039 -3.124,9.039 -3.124,8.658 -1.905,8.658 -1.905,10.258 -10.77,10.258 -10.77,5.236 -12.002,5.236 -12.002,5.566 -17.602,5.566 -17.602,11.027 -19.761,11.027 -19.761,4.372" />
    <polygon id="sl-45" points="15.583,0.876 15.583,1.013 15.583,2.497 19.986,2.497 19.825,3.716 13.64,3.716 13.64,2.502 12.421,2.502 12.421,1.013 12.421,0.876" />
    <polygon id="sl-46" points="-25.692,4.039 -25.692,3.835 -19.761,3.835 -19.761,4.039" />
    <polygon id="sl-47" points="-19.761,4.039 -19.761,11.913 -19.964,11.913 -19.964,4.039" />
    <polygon id="sl-48" points="5.918,2.705 5.918,2.502 13.64,2.502 13.64,2.705" />
    <polygon id="sl-49" points="13.64,2.705 13.64,12.506 13.437,12.506 13.437,2.705" />
    <polygon id="sl-50" points="-33.449,5.566 -33.449,0.485 -33.152,0.485 -32.16,2.662 -30.595,4.982 -30.242,5.049 -30.242,5.566" />
    <polygon id="sl-51" points="13.277,2.783 10.368,6.234 8.845,3.57" />
    <polygon id="sl-52" points="13.64,3.721 18.78,3.721 18.78,11.653 18.668,12.506 13.64,12.506" />
    <polygon id="sl-53" points="18.793,11.46 18.793,3.728 19.811,3.728" />
    <polygon id="sl-54" points="16.985,-0.606 20.146,-2.046 20.476,-1.322 19.975,2.484 15.596,2.484 15.596,1.013 15.719,1.013 15.719,-0.606" />
    <polygon id="sl-55" points="-25.489,4.039 -23.641,5.769 -23.008,6.363 -22.727,6.626 -22.727,10.17 -25.489,12.506 -25.489,11.913 -25.489,11.278" />
    <polygon id="sl-56" points="-19.964,11.913 -19.329,11.913 -19.329,12.506 -19.964,12.506" />
    <polygon id="sl-57" points="-21.812,4.534 -21.812,6.363 -23.641,6.363 -23.641,4.534" />
    <polygon id="sl-58" points="-27.435,7.547 -27.965,7.547 -27.965,5.766 -25.705,5.766 -25.705,10.576 -27.435,10.576" />
    <polygon id="sl-59" points="-26.124,11.913 -26.124,12.506 -30.229,12.506 -30.229,10.589 -25.692,10.589 -25.692,11.913" />
    <polygon id="sl-60" points="-15.164,11.027 -15.164,12.506 -19.329,12.506 -19.329,11.913 -19.761,11.913 -19.761,11.027" />
    <polygon id="sl-61" points="-8.058,0.609 -10.225,2.533 -11.376,3.712 -11.376,4.016 -13.818,4.016 -13.818,4.372 -19.761,4.372 -19.761,3.835 -25.692,3.835 -25.692,4.372 -29.197,4.372 -29.197,5.566 -30.229,5.566 -30.229,5.039 -30.592,4.97 -32.145,2.657 -33.013,0.752 -28.329,-1.382 -27.191,1.114 -21.736,-1.372 -20.599,1.124 -15.144,-1.361 -14.006,1.135 -8.552,-1.351 -8.058,-0.268" />
    <polygon id="sl-62" points="3.235,8.522 3.235,3.721 5.918,3.721 5.918,12.506 -1.397,12.506 -1.397,8.658 -1.397,8.522 0.94,8.522" />
    <polygon id="sl-63" points="-10.77,10.258 -6.426,10.258 -6.426,12.506 -10.77,12.506" />
    <polygon id="sl-64" points="-11.989,5.248 -10.782,5.248 -10.782,12.494 -11.865,12.494 -11.865,5.566 -11.989,5.566" />
    <polygon id="sl-65" points="12.408,1.013 12.408,2.489 7.168,2.489 9.531,-0.352 11.475,-1.238 11.763,-0.606 12.284,-0.606 12.284,1.013" />
    <polygon id="sl-66" points="9.522,-0.362 7.135,2.502 3.34,2.502 3.921,0.794 6.332,-0.304 6.859,0.852" />
    <polygon id="sl-67" points="-3.226,1.975 -3.226,2.052 -3.229,2.051 -6.055,1.674 -6.055,1.595" />
    <polygon id="sl-68" points="0.972,1.596 0.972,1.674 -6.055,1.674 -6.055,1.595" />
  </g>
</svg>