<?xml version="1.0" encoding="utf-8"?>
<svg xmlns="http://www.w3.org/2000/svg" viewBox="-34.534 -13.579 56.094 16.712">
  <g transform="scale(1,-1)">
    <path id="w-390" d="M -30.236,5.634 L -30.236,5.044" />
    <path id="w-393" d="M -32.153,2.661 L -33.148,0.479" />
    <path id="w-394" d="M -33.148,0.479 L -33.455,0.479" />
    <path id="w-395" d="M -33.455,0.479 L -33.455,5.634" />
    <path id="w-398" d="M -8.052,0.613 L -8.052,-0.168" />
    <path id="w-399" d="M -8.052,-0.168 L -6.171,-0.168" />
    <path id="w-400" d="M -6.061,4.005 L -11.37,4.005" />
    <path id="w-401" d="M -6.061,1.698 L -6.061,4.005" />
    <path id="w-402" d="M -11.37,4.005 L -11.37,3.715" />
    <path id="w-403" d="M -27.972,7.615 L -27.972,5.759" />
    <path id="w-404" d="M -27.972,5.759 L -25.698,5.759" />
    <path id="w-405" d="M -25.698,5.759 L -25.698,10.582" />
    <path id="w-406" d="M -25.698,10.582 L -27.503,10.582" />
    <path id="w-407" d="M -8.553,8.658 L -8.553,9.033" />
    <path id="w-408" d="M -8.553,9.033 L -6.464,9.033" />
    <path id="w-409" d="M -6.464,9.033 L -6.464,8.658" />
    <path id="w-410" d="M -5.232,8.658 L -5.232,9.033" />
    <path id="w-411" d="M -5.232,9.033 L -3.131,9.033" />
    <path id="w-412" d="M -3.131,9.033 L -3.131,8.658" />
    <path id="w-413" d="M -8.553,5.242 L -8.553,5.617" />
    <path id="w-414" d="M -1.003,5.242 L -8.553,5.242" />
    <path id="w-415" d="M -1.003,5.617 L -1.003,5.242" />
    <path id="w-416" d="M 0.724,4.172 L 0.972,4.172" />
    <path id="w-417" d="M 0.724,3.727 L 0.724,4.172" />
    <path id="w-418" d="M 3.229,3.727 L 0.724,3.727" />
    <path id="w-419" d="M 3.229,8.652 L 3.229,3.727" />
    <path id="w-420" d="M 2.931,8.652 L 3.229,8.652" />
    <path id="w-421" d="M -10.776,5.242 L -11.995,5.242" />
    <path id="w-422" d="M -10.776,12.5 L -10.776,5.242" />
    <path id="w-423" d="M -11.865,12.5 L -10.776,12.5" />
    <path id="w-424" d="M -11.995,5.242 L -11.995,5.566" />
    <path id="w-425" d="M -6.42,10.265 L -6.42,12.5" />
    <path id="w-426" d="M -5.925,10.265 L -6.42,10.265" />
    <path id="w-427" d="M -5.925,12.5 L -5.925,10.265" />
    <path id="w-428" d="M -6.42,12.5 L -5.925,12.5" />
    <path id="w-429" d="M -1.899,12.5 L -1.403,12.5" />
    <path id="w-430" d="M -1.899,8.658 L -1.899,12.5" />
    <path id="w-431" d="M -1.403,12.5 L -1.403,8.658" />
    <path id="w-432" d="M 18.787,11.556 L 19.818,3.722" />
    <path id="w-433" d="M 19.818,3.722 L 18.787,3.722" />
    <path id="w-434" d="M 18.787,3.722 L 18.787,11.556" />
    <path id="w-435" d="M 11.478,-1.246 L 9.526,-0.357" />
    <path id="w-437" d="M 7.152,2.496 L 12.414,2.496" />
    <path id="w-438" d="M 12.414,2.496 L 12.414,1.013" />
    <path id="w-439" d="M 11.767,-0.613 L 11.478,-1.246" />
    <path id="w-440" d="M 12.284,-0.613 L 11.767,-0.613" />
    <path id="w-441" d="M 0.978,1.699 L 0.978,2.496" />
    <path id="w-442" d="M 3.333,2.496 L 0.978,2.496" />
    <path id="w-443" d="M 2.117,-0.229 L 1.264,-0.229" />
    <path id="w-444" d="M 2.816,1.305 L 2.117,-0.229" />
    <path id="w-445" d="M 3.899,0.812 L 2.816,1.305" />
    <path id="w-447" d="M 19.98,2.49 L 20.482,-1.323" />
    <path id="w-448" d="M 15.589,2.49 L 19.98,2.49" />
    <path id="w-449" d="M 15.589,1.013 L 15.589,2.49" />
    <path id="w-450" d="M 16.984,-0.613 L 15.719,-0.613" />
    <path id="w-451" d="M 20.149,-2.055 L 16.984,-0.613" />
    <path id="w-452" d="M 20.482,-1.323 L 20.149,-2.055" />
  </g>
</svg>