<?xml version="1.0" encoding="utf-8"?>
<svg xmlns="http://www.w3.org/2000/svg" viewBox="-16.763 -31.192 73.836 56.08">
  <g transform="scale(1,-1)">
    <path id="w-124" d="M 1.177,9.62 L 4.074,9.62" />
    <path id="w-125" d="M 1.177,17.652 L 1.177,9.62" />
    <path id="w-126" d="M 4.074,17.652 L 1.177,17.652" />
    <path id="w-127" d="M 4.074,9.62 L 4.074,17.652" />
    <path id="w-128" d="M 1.157,-1.353 L 4.084,-1.353" />
    <path id="w-129" d="M 1.157,6.679 L 1.157,-1.353" />
    <path id="w-130" d="M 4.084,6.679 L 1.157,6.679" />
    <path id="w-131" d="M 4.084,-1.353 L 4.084,6.679" />
    <path id="w-132" d="M 1.157,-12.326 L 4.084,-12.326" />
    <path id="w-133" d="M 1.157,-4.293 L 1.157,-12.326" />
    <path id="w-134" d="M 4.084,-4.293 L 1.157,-4.293" />
    <path id="w-135" d="M 4.084,-12.326 L 4.084,-4.293" />
    <path id="w-136" d="M 27.367,19.618 L 27.367,30.647" />
    <path id="w-137" d="M 27.367,30.647 L -9.855,30.647" />
    <path id="w-138" d="M -9.855,30.647 L -9.855,-23.339" />
    <path id="w-139" d="M -9.855,-23.339 L 56.528,-23.339" />
    <path id="w-140" d="M 56.528,-23.339 L 56.528,-12.335" />
    <path id="w-141" d="M 56.528,-12.335 L 7.245,-12.335" />
    <path id="w-142" d="M 7.245,-12.335 L 7.245,19.618" />
    <path id="w-143" d="M 7.245,19.618 L 27.367,19.618" />
  </g>
</svg>