<?xml version="1.0" encoding="utf-8"?>
<svg xmlns="http://www.w3.org/2000/svg" viewBox="-30.829 -13.68 52.812 25.292">
  <g transform="scale(1,-1)">
    <line id="du-1" x1="17.345" y1="13.037" x2="17.345" y2="6.811" stroke="black" stroke-width="0.102" stroke-linecap="square" />
    <line id="du-2" x1="5.915" y1="13.037" x2="5.915" y2="7.447" stroke="black" stroke-width="0.102" stroke-linecap="square" />
    <line id="du-3" x1="6.52" y1="4.45" x2="6.52" y2="4.45" stroke="black" stroke-width="0.102" stroke-linecap="square" />
    <line id="du-4" x1="-8.879" y1="3.542" x2="-8.879" y2="6.547" stroke="black" stroke-width="0.102" stroke-linecap="square" />
    <line id="du-5" x1="-8.879" y1="3.389" x2="-8.879" y2="3.389" stroke="black" stroke-width="0.102" stroke-linecap="square" />
    <line id="du-6" x1="-9.031" y1="6.7" x2="-10.443" y2="6.7" stroke="black" stroke-width="0.102" stroke-linecap="square" />
    <line id="du-7" x1="15.765" y1="3.814" x2="15.765" y2="6.507" stroke="black" stroke-width="0.102" stroke-linecap="square" />
    <line id="du-8" x1="17.193" y1="6.659" x2="15.918" y2="6.659" stroke="black" stroke-width="0.102" stroke-linecap="square" />
    <line id="du-9" x1="6.52" y1="4.602" x2="6.52" y2="7.142" stroke="black" stroke-width="0.102" stroke-linecap="square" />
    <line id="du-10" x1="6.067" y1="7.295" x2="6.367" y2="7.295" stroke="black" stroke-width="0.102" stroke-linecap="square" />
    <line id="du-11" x1="-10.595" y1="6.852" x2="-10.595" y2="13.037" stroke="black" stroke-width="0.102" stroke-linecap="square" />
    <line id="du-32" x1="-15.37" y1="11.468" x2="-15.37" y2="12.018" stroke="black" stroke-width="0.102" stroke-linecap="square" />
    <line id="du-33" x1="-15.37" y1="11.316" x2="-15.37" y2="11.316" stroke="black" stroke-width="0.102" stroke-linecap="square" />
    <line id="du-34" x1="-15.786" y1="12.433" x2="-16.332" y2="12.433" stroke="black" stroke-width="0.102" stroke-linecap="square" />
    <line id="du-35" x1="-16.485" y1="12.586" x2="-16.485" y2="13.037" stroke="black" stroke-width="0.102" stroke-linecap="square" />
    <line id="du-96" x1="6.909" y1="-1.157" x2="6.909" y2="-1.157" stroke="black" stroke-width="0.102" stroke-linecap="square" />
    <line id="du-97" x1="5.347" y1="-4.559" x2="5.347" y2="-4.13" stroke="black" stroke-width="0.102" stroke-linecap="square" />
    <line id="du-98" x1="5.347" y1="-4.023" x2="5.347" y2="-3.298" stroke="black" stroke-width="0.102" stroke-linecap="square" />
    <line id="du-99" x1="5.391" y1="-3.19" x2="6.864" y2="-1.717" stroke="black" stroke-width="0.102" stroke-linecap="square" />
    <line id="du-100" x1="6.909" y1="-1.31" x2="6.909" y2="-1.61" stroke="black" stroke-width="0.102" stroke-linecap="square" />
    <line id="du-102" x1="-9.299" y1="-1.17" x2="-9.3" y2="-1.157" stroke="black" stroke-width="0.102" stroke-linecap="square" />
    <line id="du-103" x1="-6.996" y1="-1.172" x2="-9.146" y2="-1.172" stroke="black" stroke-width="0.102" stroke-linecap="square" />
    <line id="du-104" x1="-6.844" y1="-8.256" x2="-6.844" y2="-8.899" stroke="black" stroke-width="0.102" stroke-linecap="square" />
    <line id="du-113" x1="-6.844" y1="-1.324" x2="-6.844" y2="-3.235" stroke="black" stroke-width="0.102" stroke-linecap="square" />
    <line id="du-114" x1="-6.844" y1="-3.367" x2="-6.844" y2="-3.604" stroke="black" stroke-width="0.102" stroke-linecap="square" />
    <line id="du-115" x1="-6.844" y1="-3.736" x2="-6.844" y2="-4.008" stroke="black" stroke-width="0.102" stroke-linecap="square" />
    <line id="du-116" x1="-6.844" y1="-4.509" x2="-6.844" y2="-7.787" stroke="black" stroke-width="0.102" stroke-linecap="square" />
    <line id="du-117" x1="-6.844" y1="-4.14" x2="-6.844" y2="-4.377" stroke="black" stroke-width="0.102" stroke-linecap="square" />
    <line id="du-118" x1="-6.844" y1="-7.919" x2="-6.844" y2="-8.124" stroke="black" stroke-width="0.102" stroke-linecap="square" />
    <line id="du-125" x1="17.712" y1="-4.487" x2="17.712" y2="-7.555" stroke="black" stroke-width="0.102" stroke-linecap="square" />
    <line id="du-126" x1="17.712" y1="-4.355" x2="17.712" y2="-4.143" stroke="black" stroke-width="0.102" stroke-linecap="square" />
    <line id="du-127" x1="17.712" y1="-4.011" x2="17.712" y2="-3.736" stroke="black" stroke-width="0.102" stroke-linecap="square" />
    <line id="du-128" x1="17.712" y1="-3.604" x2="17.712" y2="-3.391" stroke="black" stroke-width="0.102" stroke-linecap="square" />
    <line id="du-133" x1="17.712" y1="-7.708" x2="17.712" y2="-7.708" stroke="black" stroke-width="0.102" stroke-linecap="square" />
    <line id="du-134" x1="17.712" y1="-7.86" x2="17.712" y2="-7.903" stroke="black" stroke-width="0.102" stroke-linecap="square" />
    <line id="du-135" x1="17.721" y1="-7.955" x2="17.805" y2="-8.185" stroke="black" stroke-width="0.102" stroke-linecap="square" />
    <line id="du-138" x1="5.347" y1="-8.188" x2="5.347" y2="-8.188" stroke="black" stroke-width="0.102" stroke-linecap="square" />
    <line id="du-139" x1="5.347" y1="-4.667" x2="5.347" y2="-8.036" stroke="black" stroke-width="0.102" stroke-linecap="square" />
    <line id="du-157" x1="5.347" y1="-9.508" x2="5.347" y2="-8.34" stroke="black" stroke-width="0.102" stroke-linecap="square" />
    <line id="du-160" x1="17.892" y1="-8.811" x2="17.813" y2="-8.217" stroke="black" stroke-width="0.102" stroke-linecap="square" />
    <line id="du-161" x1="17.712" y1="-3.259" x2="17.712" y2="-1.679" stroke="black" stroke-width="0.102" stroke-linecap="square" />
    <line id="du-162" x1="17.708" y1="-1.642" x2="17.386" y2="-0.326" stroke="black" stroke-width="0.102" stroke-linecap="square" />
    <line id="du-163" x1="17.35" y1="-0.178" x2="17.35" y2="-0.178" stroke="black" stroke-width="0.102" stroke-linecap="square" />
    <line id="du-164" x1="15.765" y1="3.662" x2="15.765" y2="3.662" stroke="black" stroke-width="0.102" stroke-linecap="square" />
    <line id="du-165" x1="-4.408" y1="3.79" x2="-4.408" y2="6.635" stroke="black" stroke-width="0.102" stroke-linecap="square" />
    <line id="du-166" x1="-3.127" y1="6.787" x2="-4.256" y2="6.787" stroke="black" stroke-width="0.102" stroke-linecap="square" />
    <line id="du-167" x1="-4.408" y1="3.637" x2="-4.408" y2="3.637" stroke="black" stroke-width="0.102" stroke-linecap="square" />
    <line id="du-168" x1="-2.975" y1="13.037" x2="-2.975" y2="6.939" stroke="black" stroke-width="0.102" stroke-linecap="square" />
    <line id="du-170" x1="-15.415" y1="12.126" x2="-15.678" y2="12.389" stroke="black" stroke-width="0.102" stroke-linecap="square" />
    <line id="du-173" x1="-1.335" y1="-1.157" x2="-1.335" y2="-1.157" stroke="black" stroke-width="0.102" stroke-linecap="square" />
    <line id="du-174" x1="-1.335" y1="-1.31" x2="-1.335" y2="-3.418" stroke="black" stroke-width="0.102" stroke-linecap="square" />
    <line id="du-175" x1="-1.487" y1="-3.57" x2="-5.751" y2="-3.57" stroke="black" stroke-width="0.102" stroke-linecap="square" />
    <line id="du-176" x1="-5.904" y1="-3.57" x2="-5.904" y2="-3.57" stroke="black" stroke-width="0.102" stroke-linecap="square" />
    <line id="du-177" x1="-5.904" y1="-3.723" x2="-5.904" y2="-7.797" stroke="black" stroke-width="0.102" stroke-linecap="square" />
  </g>
</svg>