<?xml version="1.0" encoding="utf-8"?>
<svg xmlns="http://www.w3.org/2000/svg" viewBox="-34.485 -31.672 64.597 49.853">
  <g transform="scale(1,-1)">
    <line id="d-5" data-host="w-16" x1="-30.518" y1="6.212" x2="-30.518" y2="7.126" stroke="white" stroke-width="0.325" />
    <line id="d-10" data-host="w-415" x1="13.836" y1="0.724" x2="12.922" y2="0.724" stroke="white" stroke-width="0.325" />
    <line id="d-21" data-host="w-616" x1="15.584" y1="1.619" x2="15.584" y2="2.533" stroke="white" stroke-width="0.176" />
    <line id="d-33" data-host="w-834" x1="8.251" y1="3.981" x2="7.337" y2="3.981" stroke="white" stroke-width="0.204" />
    <line id="d-38" data-host="w-86" x1="6.166" y1="2.745" x2="7.08" y2="2.745" stroke="white" stroke-width="0.176" />
    <line id="d-51" data-host="w-73" x1="-7.746" y1="2.745" x2="-6.832" y2="2.745" stroke="white" stroke-width="0.176" />
    <line id="d-67" data-host="w-250" x1="-13.425" y1="5.855" x2="-12.511" y2="5.855" stroke="white" stroke-width="0.325" />
    <line id="d-74" data-host="w-365" x1="1.092" y1="5.345" x2="1.092" y2="4.431" stroke="white" stroke-width="0.318" />
    <line id="d-80" data-host="w-1032" x1="15.532" y1="4.518" x2="15.532" y2="5.432" stroke="white" stroke-width="0.204" />
    <line id="d-82" data-host="w-320" x1="-9.221" y1="-1.57" x2="-10.007" y2="-1.211" stroke="white" stroke-width="0.567" />
    <line id="d-83" data-host="w-322" x1="5.73" y1="-0.498" x2="4.944" y2="-0.14" stroke="white" stroke-width="0.567" />
    <line id="d-84" data-host="w-335" x1="19.484" y1="-2.283" x2="18.698" y2="-1.925" stroke="white" stroke-width="0.567" />
    <line id="d-86" data-host="w-362" x1="-3.336" y1="4.713" x2="-2.422" y2="4.713" stroke="white" stroke-width="0.144" />
    <line id="d-91" data-host="w-194" x1="6.772" y1="6.723" x2="6.772" y2="6.723" stroke="white" stroke-width="0.144" />
    <line id="d-100" data-host="w-1035" x1="-9.112" y1="4.518" x2="-9.112" y2="5.432" stroke="white" stroke-width="0.204" />
    <line id="d-103" data-host="w-476" x1="-11.138" y1="2.534" x2="-11.138" y2="1.62" stroke="white" stroke-width="0.16" />
    <line id="d-105" data-host="w-332" x1="-13.954" y1="1.948" x2="-13.954" y2="1.034" stroke="white" stroke-width="0.318" />
    <line id="d-106" data-host="w-512" x1="-28.002" y1="11.579" x2="-28.002" y2="10.665" stroke="white" stroke-width="0.144" />
    <line id="d-133" data-host="w-706" x1="-9.793" y1="12.87" x2="-8.879" y2="12.87" stroke="white" stroke-width="0.341" />
    <line id="d-140" data-host="w-706" x1="7.994" y1="12.87" x2="8.908" y2="12.87" stroke="white" stroke-width="0.341" />
  </g>
</svg>