<?xml version="1.0" encoding="utf-8"?>
<svg xmlns="http://www.w3.org/2000/svg" viewBox="-34.485 -31.672 64.597 49.853">
  <g transform="scale(1,-1)">
    <line id="d-5" data-host="w-16" x1="-30.518" y1="6.669" x2="-30.518" y2="6.669" stroke="white" stroke-width="0.325" />
    <line id="d-10" data-host="w-415" x1="13.379" y1="0.724" x2="13.379" y2="0.724" stroke="white" stroke-width="0.325" />
    <line id="d-21" data-host="w-616" x1="15.584" y1="2.076" x2="15.584" y2="2.076" stroke="white" stroke-width="0.176" />
    <line id="d-33" data-host="w-834" x1="7.794" y1="3.981" x2="7.794" y2="3.981" stroke="white" stroke-width="0.204" />
    <line id="d-38" data-host="w-86" x1="6.623" y1="2.745" x2="6.623" y2="2.745" stroke="white" stroke-width="0.176" />
    <line id="d-51" data-host="w-73" x1="-7.289" y1="2.745" x2="-7.289" y2="2.745" stroke="white" stroke-width="0.176" />
    <line id="d-67" data-host="w-250" x1="-12.968" y1="5.855" x2="-12.968" y2="5.855" stroke="white" stroke-width="0.325" />
    <line id="d-74" data-host="w-365" x1="1.092" y1="4.888" x2="1.092" y2="4.888" stroke="white" stroke-width="0.318" />
    <line id="d-80" data-host="w-1032" x1="15.532" y1="4.975" x2="15.532" y2="4.975" stroke="white" stroke-width="0.204" />
    <line id="d-82" data-host="w-320" x1="-9.614" y1="-1.391" x2="-9.614" y2="-1.391" stroke="white" stroke-width="0.567" />
    <line id="d-83" data-host="w-322" x1="5.337" y1="-0.319" x2="5.337" y2="-0.319" stroke="white" stroke-width="0.567" />
    <line id="d-84" data-host="w-335" x1="19.091" y1="-2.104" x2="19.091" y2="-2.104" stroke="white" stroke-width="0.567" />
    <line id="d-86" data-host="w-362" x1="-2.879" y1="4.713" x2="-2.879" y2="4.713" stroke="white" stroke-width="0.144" />
    <line id="d-91" data-host="w-194" x1="6.772" y1="6.723" x2="6.772" y2="6.723" stroke="white" stroke-width="0.144" />
    <line id="d-100" data-host="w-1035" x1="-9.112" y1="4.975" x2="-9.112" y2="4.975" stroke="white" stroke-width="0.204" />
    <line id="d-103" data-host="w-476" x1="-11.138" y1="2.077" x2="-11.138" y2="2.077" stroke="white" stroke-width="0.16" />
    <line id="d-105" data-host="w-332" x1="-13.954" y1="1.491" x2="-13.954" y2="1.491" stroke="white" stroke-width="0.318" />
    <line id="d-106" data-host="w-512" x1="-28.002" y1="11.122" x2="-28.002" y2="11.122" stroke="white" stroke-width="0.144" />
    <line id="d-133" data-host="w-706" x1="-9.336" y1="12.87" x2="-9.336" y2="12.87" stroke="white" stroke-width="0.341" />
    <line id="d-140" data-host="w-706" x1="8.451" y1="12.87" x2="8.451" y2="12.87" stroke="white" stroke-width="0.341" />
  </g>
</svg>