<?xml version="1.0" encoding="utf-8"?>
<svg xmlns="http://www.w3.org/2000/svg" viewBox="-34.241 -14.749 56.334 24.473">
  <g transform="scale(1,-1)">
    <polygon id="sl-4" points="-32.099,7.861 -33.217,7.861 -33.217,6.013 -30.677,6.013 -30.677,6.16 -30.677,7.176 -30.677,7.83 -31.794,7.83 -31.794,7.296 -32.099,7.296" fill="rgba(128,128,128,0.2)" stroke="gray" stroke-width="0.05" />
    <polygon id="sl-16" points="-13.735,7.868 -14.853,7.868 -14.853,6.013 -13.475,6.013 -12.459,6.013 -12.313,6.013 -12.313,8.287 -13.43,8.287 -13.43,7.398 -13.735,7.398" fill="rgba(128,128,128,0.2)" stroke="gray" stroke-width="0.05" />
    <polygon id="sl-20" points="16.243,2.823 16.243,6.353 12.722,6.353 12.722,2.823" fill="rgba(128,128,128,0.2)" stroke="gray" stroke-width="0.05" />
    <polygon id="sl-32" points="-8.401,2.823 -8.401,6.353 -11.922,6.353 -11.922,2.823" fill="rgba(128,128,128,0.2)" stroke="gray" stroke-width="0.05" />
    <polygon id="sl-54" points="-11.83,-6.521 -12.034,-6.286 -12.198,-6.007 -12.273,-5.816 -12.34,-5.536 -12.813,-5.698 -12.597,-5.911 -12.44,-6.103 -12.229,-6.434 -12.098,-6.718" fill="rgba(128,128,128,0.2)" stroke="gray" stroke-width="0.05" />
    <polygon id="sl-55" points="1.264,-8.029 1.505,-8.029 1.505,-8.969 4.285,-8.969 1.264,-4.145" fill="rgba(128,128,128,0.2)" stroke="gray" stroke-width="0.05" />
    <polygon id="sl-56" points="-8.755,-3.061 -8.253,-3.996 -6.344,-6.009 -6.344,-0.699 -7.679,-0.699" fill="rgba(128,128,128,0.2)" stroke="gray" stroke-width="0.05" />
    <polygon id="sl-57" points="12.491,-6.423 13.895,-7.258 16.59,-8.425 21.049,-7.838 20.995,-7.429 15.719,-2.734 15.719,-6.423" fill="rgba(128,128,128,0.2)" stroke="gray" stroke-width="0.05" />
    <polygon id="sl-58" points="3.815,-4.328 4.522,-4.634 5.082,-5.125 5.446,-5.713 6.176,-5.345 5.323,-4.462 5.077,-3.931 4.937,-3.362 4.697,-2.933 4.232,-2.775 3.605,-3.058 3.364,-3.835 3.516,-4.149" fill="rgba(128,128,128,0.2)" stroke="gray" stroke-width="0.05" />
    <polygon id="sl-59" points="21.111,-7.485 21.297,-7.461 20.618,-2.304 19.933,-3.807" fill="rgba(128,128,128,0.2)" stroke="gray" stroke-width="0.05" />
    <polygon id="sl-60" points="12.558,-8.969 16.588,-8.438 13.891,-7.27 12.472,-6.423 12.284,-6.423 12.284,-6.236 11.294,-4.351 11.281,-3.052 7.638,-1.401 8.178,-0.209 7.207,0.231 6.497,-1.337 9.099,-5.48 11.872,-8.969" fill="rgba(128,128,128,0.2)" stroke="gray" stroke-width="0.05" />
    <polygon id="sl-61" points="-14.78,-2.194 -11.08,-4.861 -7.156,-8.441 -6.585,-8.441 -6.585,-8.029 -6.344,-8.029 -6.344,-6.023 -8.264,-4 -8.703,-3.168 -13.2,-1.119 -13.178,-1.071 -12.706,-0.034 -12.799,0.009 -13.747,0.441 -14.78,-1.825" fill="rgba(128,128,128,0.2)" stroke="gray" stroke-width="0.05" />
    <polygon id="sl-66" points="12.421,-0.842 12.421,0.571 12.87,0.571 13.886,0.571 15.583,0.571 15.583,0.876 15.631,0.876 15.631,2.791 15.456,2.791 12.69,2.791 12.456,2.791 2.842,2.791 2.842,7.196 1.21,7.196 1.194,7.196 1.194,6.007 0.94,6.007 0.286,6.007 -0.946,6.007 -1.854,6.007 -1.902,6.007 -1.902,2.791 -6.055,2.791 -6.29,2.791 -9.188,2.791 -11.954,2.791 -11.954,6.007 -12.002,6.007 -12.459,6.007 -13.475,6.007 -14.859,6.007 -15.094,6.007 -15.094,2.816 -13.954,2.816 -13.954,0.87 -8.443,-1.641 -7.875,-0.394 -6.163,-0.394 -6.163,0.838 -6.023,0.838 0.943,0.838 1.083,0.838 1.083,-0.394 2.233,-0.394 2.902,1.074 6.462,-0.548 6.967,0.561 11.59,-1.545 11.91,-0.842" fill="rgba(128,128,128,0.2)" stroke="gray" stroke-width="0.05" />
    <polygon id="sl-70" points="-1.902,2.791 -1.902,6.007 -1.854,6.007 -1.854,8.522 -1.905,8.522 -1.905,9.03 -4.216,9.487 -5.13,9.487 -5.13,8.573 -6.055,8.573 -6.055,2.791" fill="rgba(128,128,128,0.2)" stroke="gray" stroke-width="0.05" />
    <polygon id="sl-80" points="14.154,-1.232 15.272,-1.232 15.272,0.565 13.894,0.565 12.878,0.565 12.732,0.565 12.732,-1.48 13.849,-1.48 13.849,-0.692 14.154,-0.692" fill="rgba(128,128,128,0.2)" stroke="gray" stroke-width="0.05" />
    <polygon id="sl-81" points="-8.711,14.249 -9.96,14.249 -9.96,13.03 -7.42,13.03 -7.42,14.249" fill="rgba(128,128,128,0.2)" stroke="gray" stroke-width="0.05" />
    <polygon id="sl-115" points="10.69,3.997 10.69,6.956 5.42,6.956 5.42,3.997" fill="rgba(128,128,128,0.2)" stroke="gray" stroke-width="0.05" />
    <polygon id="sl-124" points="9.069,14.249 7.82,14.249 7.82,13.03 10.36,13.03 10.36,14.249" fill="rgba(128,128,128,0.2)" stroke="gray" stroke-width="0.05" />
    <polygon id="sl-126" points="-33.741,5.702 -33.741,0.269 -33.665,0.269 -32.481,0.269 -32.45,0.255 -32.172,0.129 -32.567,-0.737 -32.768,-1.179 -28.816,-2.98 -28.615,-2.538 -27.093,0.801 -25.868,0.242 -25.591,0.116 -25.707,-0.138 -25.975,-0.727 -26.176,-1.168 -22.223,-2.969 -22.022,-2.528 -20.501,0.811 -19.276,0.253 -18.998,0.127 -19.114,-0.128 -19.382,-0.716 -19.584,-1.158 -15.646,-2.952 -15.631,-2.959 -15.243,-2.107 -14.945,-1.452 -13.954,0.722 -13.954,0.87 -13.954,2.816 -14.945,2.816 -15.094,2.816 -15.094,5.663 -15.094,5.702 -15.094,6.007 -15.094,12.725 -15.164,12.725 -30.366,12.725 -30.366,12.71 -30.366,10.531 -30.366,10.452 -27.572,10.452 -27.572,7.938 -28.48,7.938 -29.712,7.938 -30.366,7.938 -30.366,7.684 -30.366,7.176 -30.366,6.16 -30.366,5.702 -33.665,5.702" fill="rgba(128,128,128,0.2)" stroke="gray" stroke-width="0.05" />
    <polygon id="sl-148" points="6.14,6.102 7.404,6.102 7.404,6.617 9.97,6.617 9.97,4.058 7.087,4.058 7.087,4.607 6.14,4.607" fill="rgba(128,128,128,0.2)" stroke="gray" stroke-width="0.05" />
    <polygon id="sl-149" points="6.14,6.102 6.14,4.607 7.087,4.607 7.087,4.058 9.97,4.058 9.97,6.617 7.404,6.617 7.404,6.102" fill="rgba(128,128,128,0.2)" stroke="gray" stroke-width="0.05" />
    <polygon id="sl-150" points="18.86,12.725 12.69,12.725 12.69,12.71 12.69,5.582 15.456,5.582 15.456,2.791 15.631,2.791 15.631,0.876 15.583,0.876 15.583,0.571 15.583,-0.838 16.935,-0.838 20.26,-2.353 20.714,-1.357 20.473,0.473 19.296,0.473 19.296,0.683 19.296,0.838 19.296,1.813 19.388,1.813 20.297,1.813 18.862,12.71" fill="rgba(128,128,128,0.2)" stroke="gray" stroke-width="0.05" />
    <polygon id="sl-151" points="12.69,2.791 15.456,2.791 15.456,5.582 12.69,5.582" fill="rgba(128,128,128,0.2)" stroke="gray" stroke-width="0.05" />
    <polygon id="sl-160" points="-6.29,2.791 -6.29,12.71 -6.29,12.725 -8.817,12.725 -9.833,12.725 -11.938,12.725 -11.938,12.71 -11.938,5.582 -9.188,5.582 -9.188,2.791" fill="rgba(128,128,128,0.2)" stroke="gray" stroke-width="0.05" />
    <polygon id="sl-161" points="-9.188,2.791 -9.188,5.582 -11.938,5.582 -11.954,5.582 -11.954,2.791" fill="rgba(128,128,128,0.2)" stroke="gray" stroke-width="0.05" />
    <polygon id="sl-182" points="-14.78,-4.993 -14.78,-8.372 -12.271,-8.372" fill="rgba(128,128,128,0.2)" stroke="gray" stroke-width="0.05" />
    <polygon id="sl-184" points="0.975,-4.991 0.975,0.66 0.943,0.66 -6.023,0.66 -6.055,0.66 -6.055,-3.751 -5.972,-3.751 -0.048,-3.751 -0.048,-4.007 -0.048,-4.991" fill="rgba(128,128,128,0.2)" stroke="gray" stroke-width="0.05" />
    <polygon id="sl-193" points="21.593,-8.03 20.752,-1.642 19.772,-3.793 16.36,-2.238 16.928,-0.991 15.583,-0.991 15.583,-6.287 12.421,-6.287 12.421,-0.995 12.008,-0.995 11.104,-2.978 7.63,-1.395 8.191,-0.164 7.228,0.275 6.161,-2.066 2.546,-0.419 2.416,-0.36 2.331,-0.546 1.111,-0.546 1.111,-9.224 12.528,-9.224" fill="rgba(128,128,128,0.2)" stroke="gray" stroke-width="0.05" />
    <polygon id="sl-194" points="-15.011,-8.55 -14.808,-8.55 -6.475,-8.55 -6.191,-8.55 -6.191,-0.546 -7.777,-0.546 -8.926,-3.067 -13.202,-1.118 -12.644,0.106 -13.822,0.643 -15.011,-1.966" fill="rgba(128,128,128,0.2)" stroke="gray" stroke-width="0.05" />
    <polygon id="sl-209" points="-15.011,-1.966 -15.011,-5.502 -12.119,-4.286" fill="rgba(128,128,128,0.2)" stroke="gray" stroke-width="0.05" />
    <polygon id="sl-210" points="9.138,-7.026 6.161,-9.224 12.421,-9.224 9.443,-7.026" fill="rgba(128,128,128,0.2)" stroke="gray" stroke-width="0.05" />
  </g>
</svg>