<?xml version="1.0" encoding="utf-8"?>
<svg xmlns="http://www.w3.org/2000/svg" viewBox="-34.165 -13.21 56.15 22.691">
  <g transform="scale(1,-1)">
    <polygon id="sp-37" points="-21.641,12.71 -27.368,12.71 -27.368,12.332 -27.94,12.332 -27.94,10.531 -27.464,10.531 -27.464,7.604 -30.286,7.604 -30.286,5.623 -33.665,5.623 -33.665,1.067 -33.376,1.067 -33.376,0.269 -32.59,0.269 -32.443,0.269 -32.427,0.262 -32.427,0.269 -32.34,0.269 -32.34,0.222 -28.228,-1.651 -27.09,0.845 -26.799,0.712 -25.851,0.28 -21.636,-1.641 -20.498,0.855 -20.206,0.722 -19.259,0.291 -15.043,-1.63 -14.103,0.432 -14.103,0.818 -14.103,2.667 -15.243,2.667 -15.243,5.634 -15.243,12.71 -21.031,12.71 -21.031,12.332 -21.641,12.332" fill="rgba(0,0,255,0.1)" stroke="blue" stroke-width="0.05" />
    <polygon id="sp-38" points="11.9,-0.826 12.341,-0.826 12.341,0.956 15.507,0.956 15.507,2.667 12.573,2.667 2.811,2.667 0.943,2.667 0.943,4.127 0.943,5.674 -1.778,5.674 -1.778,2.667 -6.172,2.667 -11.068,2.667 -11.068,1.401 -11.758,-0.113 -8.451,-1.62 -7.885,-0.378 -6.344,-0.378 -6.344,0.457 -6.477,0.457 -6.477,1.067 -5.867,1.067 -5.867,0.845 0.787,0.845 0.787,1.067 1.397,1.067 1.397,0.457 1.264,0.457 1.264,-0.378 2.223,-0.378 2.894,1.095 6.454,-0.527 6.893,0.437 6.959,0.583 7.183,1.074 7.653,0.86 7.429,0.369 8.261,-0.011 11.582,-1.524 11.823,-0.996" fill="rgba(0,0,255,0.1)" stroke="blue" stroke-width="0.05" />
    <polygon id="sp-39" points="-6.344,-6.023 -8.264,-4.001 -8.704,-3.169 -13.294,-1.077 -12.799,0.009 -13.747,0.441 -14.752,-1.763 -14.994,-2.295 -14.996,-2.295 -14.996,-2.637 -11.498,-5.015 -9.597,-7.524 -7.631,-8.242 -6.585,-8.242 -6.585,-8.029 -6.344,-8.029 -6.344,-7.671" fill="rgba(0,0,255,0.1)" stroke="blue" stroke-width="0.05" />
    <polygon id="sp-40" points="-11.922,2.823 -11.138,2.823 -6.321,2.823 -6.321,5.55 -6.477,5.55 -6.477,6.16 -6.321,6.16 -6.321,12.332 -6.477,12.332 -6.477,12.71 -11.922,12.71 -11.922,5.663" fill="rgba(0,0,255,0.1)" stroke="blue" stroke-width="0.05" />
    <polygon id="sp-41" points="1.264,-4.131 4.298,-8.981 12.461,-8.981 16.588,-8.438 13.891,-7.27 12.472,-6.423 12.284,-6.423 12.284,-6.236 11.294,-4.351 11.281,-3.051 7.633,-1.389 8.128,-0.302 7.247,0.099 7.164,0.137 6.792,-0.681 6.164,-2.059 2.558,-0.416 2.429,-0.699 1.264,-0.699 1.264,-1.208 1.264,-2.294" fill="rgba(0,0,255,0.1)" stroke="blue" stroke-width="0.05" />
    <polygon id="sp-42" points="1.241,12.332 1.241,8.561 1.273,8.561 1.273,7.228 2.873,7.228 2.873,6.159 2.873,4.127 2.873,4.05 2.873,4.048 2.873,2.823 12.424,2.823 12.424,5.55 12.268,5.55 12.268,6.159 12.424,6.159 12.424,12.332 12.268,12.332 12.268,12.71 7.595,12.71 7.595,12.332 6.985,12.332 6.985,12.71 1.397,12.71 1.397,12.332" fill="rgba(0,0,255,0.1)" stroke="blue" stroke-width="0.05" />
    <polygon id="sp-43" points="20.698,-1.355 20.459,0.457 19.28,0.457 19.28,1.829 20.279,1.829 19.789,5.55 19.395,5.55 19.395,6.159 19.709,6.159 19.26,9.565 18.896,12.332 18.502,12.332 18.502,12.71 12.878,12.71 12.878,12.332 12.722,12.332 12.722,6.159 12.827,6.159 12.827,5.55 12.722,5.55 12.722,2.823 15.505,2.823 15.532,2.823 15.532,2.791 15.584,2.791 16.293,2.791 16.293,2.667 15.662,2.667 15.662,2.665 15.662,0.916 15.662,-0.822 16.792,-0.822 16.939,-0.822 20.252,-2.332" fill="rgba(0,0,255,0.1)" stroke="blue" stroke-width="0.05" />
    <polygon id="sp-54" points="21.485,-7.331 20.777,-1.955 20.544,-2.465 19.916,-3.843 16.311,-2.2 16.792,-1.143 15.719,-1.143 15.719,-2.727 15.734,-2.741 15.935,-3.494 20.897,-7.408 21.12,-7.379" fill="rgba(0,0,255,0.1)" stroke="blue" stroke-width="0.05" />
  </g>
</svg>