<?xml version="1.0" encoding="utf-8"?>
<svg xmlns="http://www.w3.org/2000/svg" viewBox="-34.485 -31.672 64.597 49.853">
  <g transform="scale(1,-1)">
    <rect id="tm-95" x="5.568" y="5.176" width="0.3" height="0.3" fill="black" transform="rotate(90,5.718,5.326)" />
    <rect id="tm-96" x="5.568" y="6.471" width="0.3" height="0.3" fill="black" transform="rotate(90,5.718,6.621)" />
    <rect id="tm-97" x="5.568" y="5.824" width="0.3" height="0.3" fill="black" transform="rotate(90,5.718,5.974)" />
    <rect id="tm-107" x="15.776" y="5.854" width="0.3" height="0.3" fill="black" transform="rotate(180,15.926,6.004)" />
    <rect id="tm-108" x="14.48" y="5.854" width="0.3" height="0.3" fill="black" transform="rotate(180,14.63,6.004)" />
    <rect id="tm-109" x="15.128" y="5.854" width="0.3" height="0.3" fill="black" transform="rotate(180,15.278,6.004)" />
    <rect id="tm-116" x="-8.869" y="5.854" width="0.3" height="0.3" fill="black" transform="rotate(180,-8.719,6.004)" />
    <rect id="tm-117" x="-10.164" y="5.854" width="0.3" height="0.3" fill="black" transform="rotate(180,-10.014,6.004)" />
    <rect id="tm-118" x="-9.516" y="5.854" width="0.3" height="0.3" fill="black" transform="rotate(180,-9.366,6.004)" />
    <rect id="tm-182" x="1.83" y="4.844" width="0.3" height="0.3" fill="black" transform="rotate(180,1.98,4.994)" />
    <rect id="tm-219" x="12.575" y="-0.239" width="0.3" height="0.3" fill="black" transform="rotate(120,12.725,-0.089)" />
    <rect id="tm-220" x="12.575" y="-5.217" width="0.3" height="0.3" fill="black" transform="rotate(120,12.725,-5.067)" />
    <rect id="tm-221" x="15.128" y="-0.239" width="0.3" height="0.3" fill="black" transform="rotate(120,15.278,-0.089)" />
    <rect id="tm-222" x="15.128" y="-5.217" width="0.3" height="0.3" fill="black" transform="rotate(120,15.278,-5.067)" />
    <rect id="tm-231" x="-15.009" y="6.772" width="0.3" height="0.3" fill="black" transform="rotate(240,-14.859,6.922)" />
    <rect id="tm-232" x="-15.009" y="11.963" width="0.3" height="0.3" fill="black" transform="rotate(240,-14.859,12.113)" />
    <rect id="tm-243" x="-12.456" y="6.772" width="0.3" height="0.3" fill="black" transform="rotate(240,-12.306,6.922)" />
    <rect id="tm-244" x="-12.456" y="11.963" width="0.3" height="0.3" fill="black" transform="rotate(240,-12.306,12.113)" />
    <rect id="tm-255" x="-33.373" y="6.518" width="0.3" height="0.3" fill="black" transform="rotate(240,-33.223,6.668)" />
    <rect id="tm-256" x="-33.373" y="11.963" width="0.3" height="0.3" fill="black" transform="rotate(240,-33.223,12.113)" />
    <rect id="tm-267" x="-30.821" y="6.518" width="0.3" height="0.3" fill="black" transform="rotate(240,-30.671,6.668)" />
    <rect id="tm-268" x="-30.821" y="11.963" width="0.3" height="0.3" fill="black" transform="rotate(240,-30.671,12.113)" />
    <rect id="tm-306" x="8.076" y="-2.973" width="0.3" height="0.3" fill="black" />
    <rect id="tm-307" x="9.986" y="-6.284" width="0.3" height="0.3" fill="black" />
    <rect id="tm-308" x="12.134" y="-8.713" width="0.3" height="0.3" fill="black" />
  </g>
</svg>