<?xml version="1.0" encoding="utf-8"?>
<svg xmlns="http://www.w3.org/2000/svg" viewBox="-34.485 -31.672 64.597 49.853">
  <g transform="scale(1,-1)">
    <line id="w-40" x1="-15.094" y1="5.855" x2="-15.094" y2="2.816" stroke="black" stroke-width="0.298" stroke-linecap="square" />
    <line id="w-41" x1="21.663" y1="-7.459" x2="20.863" y2="-1.379" stroke="black" stroke-width="0.321" stroke-linecap="square" />
    <line id="w-42" x1="20.863" y1="-1.379" x2="18.987" y2="12.87" stroke="black" stroke-width="0.321" stroke-linecap="square" />
    <line id="w-73" x1="-12.03" y1="2.745" x2="-1.856" y2="2.745" stroke="black" stroke-width="0.156" stroke-linecap="square" />
    <line id="w-83" x1="-1.856" y1="5.674" x2="-1.856" y2="2.745" stroke="black" stroke-width="0.156" stroke-linecap="square" />
    <line id="w-86" x1="1.092" y1="2.745" x2="15.532" y2="2.745" stroke="black" stroke-width="0.156" stroke-linecap="square" />
    <line id="w-87" x1="-6.183" y1="-8.395" x2="-6.183" y2="-0.533" stroke="black" stroke-width="0.321" stroke-linecap="square" />
    <line id="w-88" x1="1.103" y1="-8.395" x2="1.103" y2="-0.533" stroke="black" stroke-width="0.321" stroke-linecap="square" />
    <line id="w-99" x1="12.573" y1="2.745" x2="12.573" y2="12.87" stroke="black" stroke-width="0.298" stroke-linecap="square" />
    <line id="w-100" x1="-6.172" y1="2.745" x2="-6.172" y2="12.87" stroke="black" stroke-width="0.298" stroke-linecap="square" />
    <line id="w-192" x1="10.798" y1="3.951" x2="10.046" y2="3.951" stroke="black" stroke-width="0.124" stroke-linecap="square" />
    <line id="w-193" x1="10.046" y1="6.977" x2="10.046" y2="3.981" stroke="black" stroke-width="0.184" stroke-linecap="square" />
    <line id="w-194" x1="6.064" y1="6.723" x2="7.45" y2="6.723" stroke="black" stroke-width="0.124" stroke-linecap="square" />
    <line id="w-195" x1="6.034" y1="3.951" x2="6.034" y2="4.653" stroke="black" stroke-width="0.124" stroke-linecap="square" />
    <line id="w-196" x1="10.798" y1="6.977" x2="10.046" y2="6.977" stroke="black" stroke-width="0.124" stroke-linecap="square" />
    <line id="w-197" x1="7.133" y1="3.981" x2="7.133" y2="4.653" stroke="black" stroke-width="0.124" stroke-linecap="square" />
    <line id="w-198" x1="7.133" y1="4.653" x2="6.034" y2="4.653" stroke="black" stroke-width="0.124" stroke-linecap="square" />
    <line id="w-199" x1="6.064" y1="6.977" x2="5.312" y2="6.977" stroke="black" stroke-width="0.124" stroke-linecap="square" />
    <line id="w-200" x1="7.099" y1="6.09" x2="7.099" y2="5.661" stroke="black" stroke-width="0.057" stroke-linecap="square" />
    <line id="w-201" x1="10.046" y1="4.866" x2="9.242" y2="4.866" stroke="black" stroke-width="0.124" stroke-linecap="square" />
    <line id="w-202" x1="6.034" y1="3.951" x2="5.312" y2="3.951" stroke="black" stroke-width="0.124" stroke-linecap="square" />
    <line id="w-203" x1="7.133" y1="3.951" x2="6.034" y2="3.951" stroke="black" stroke-width="0.124" stroke-linecap="square" />
    <line id="w-242" x1="-6.172" y1="0.737" x2="1.092" y2="0.737" stroke="black" stroke-width="0.216" stroke-linecap="square" />
    <line id="w-267" x1="-13.897" y1="5.663" x2="-13.897" y2="2.816" stroke="black" stroke-width="0.184" stroke-linecap="square" />
    <line id="w-268" x1="-13.954" y1="2.816" x2="-15.094" y2="2.816" stroke="black" stroke-width="0.298" stroke-linecap="square" />
    <line id="w-295" x1="15.532" y1="2.729" x2="15.532" y2="4.077" stroke="black" stroke-width="0.184" stroke-linecap="square" />
    <line id="w-296" x1="16.293" y1="2.729" x2="16.293" y2="4.077" stroke="black" stroke-width="0.124" stroke-linecap="square" />
    <line id="w-297" x1="12.573" y1="5.658" x2="16.293" y2="5.658" stroke="black" stroke-width="0.184" stroke-linecap="square" />
    <line id="w-298" x1="16.293" y1="5.658" x2="16.293" y2="6.48" stroke="black" stroke-width="0.124" stroke-linecap="square" />
    <line id="w-299" x1="12.573" y1="4.713" x2="13.637" y2="4.713" stroke="black" stroke-width="0.124" stroke-linecap="square" />
    <line id="w-300" x1="12.573" y1="3.675" x2="13.637" y2="3.675" stroke="black" stroke-width="0.124" stroke-linecap="square" />
    <line id="w-301" x1="-15.156" y1="-8.153" x2="-15.156" y2="-1.921" stroke="black" stroke-width="0.321" stroke-linecap="square" />
    <line id="w-305" x1="-6.344" y1="-0.538" x2="-7.782" y2="-0.538" stroke="black" stroke-width="0.321" stroke-linecap="square" />
    <line id="w-307" x1="1.264" y1="-0.538" x2="2.326" y2="-0.538" stroke="black" stroke-width="0.321" stroke-linecap="square" />
    <line id="w-309" x1="-28.211" y1="-2.001" x2="-32.572" y2="-0.013" stroke="black" stroke-width="0.622" stroke-linecap="square" />
    <line id="w-310" x1="-28.211" y1="-2.001" x2="-26.944" y2="0.778" stroke="black" stroke-width="0.321" stroke-linecap="square" />
    <line id="w-312" x1="-21.619" y1="-1.99" x2="-25.98" y2="-0.003" stroke="black" stroke-width="0.622" stroke-linecap="square" />
    <line id="w-313" x1="-21.619" y1="-1.99" x2="-20.352" y2="0.789" stroke="black" stroke-width="0.321" stroke-linecap="square" />
    <line id="w-314" x1="-15.026" y1="-1.98" x2="-19.387" y2="0.008" stroke="black" stroke-width="0.622" stroke-linecap="square" />
    <line id="w-315" x1="-15.026" y1="-1.98" x2="-13.76" y2="0.799" stroke="black" stroke-width="0.321" stroke-linecap="square" />
    <line id="w-320" x1="-8.419" y1="-1.935" x2="-12.78" y2="0.052" stroke="black" stroke-width="0.547" stroke-linecap="square" />
    <line id="w-321" x1="-8.419" y1="-1.935" x2="-7.782" y2="-0.538" stroke="black" stroke-width="0.321" stroke-linecap="square" />
    <line id="w-322" x1="6.509" y1="-0.853" x2="3.073" y2="0.713" stroke="black" stroke-width="0.547" stroke-linecap="square" />
    <line id="w-323" x1="6.509" y1="-0.853" x2="7.062" y2="0.36" stroke="black" stroke-width="0.371" stroke-linecap="square" />
    <line id="w-324" x1="11.615" y1="-1.839" x2="8.147" y2="-0.259" stroke="black" stroke-width="0.547" stroke-linecap="square" />
    <line id="w-325" x1="11.615" y1="-1.839" x2="11.968" y2="-1.063" stroke="black" stroke-width="0.321" stroke-linecap="square" />
    <line id="w-326" x1="8.194" y1="-0.156" x2="7.062" y2="0.36" stroke="black" stroke-width="0.321" stroke-linecap="square" />
    <line id="w-328" x1="2.326" y1="-0.538" x2="3.04" y2="1.029" stroke="black" stroke-width="0.321" stroke-linecap="square" />
    <line id="w-330" x1="12.421" y1="-0.987" x2="12.003" y2="-0.987" stroke="black" stroke-width="0.321" stroke-linecap="square" />
    <line id="w-332" x1="-13.954" y1="2.816" x2="-13.954" y2="0.429" stroke="black" stroke-width="0.298" stroke-linecap="square" />
    <line id="w-334" x1="16.939" y1="-0.983" x2="15.651" y2="-0.983" stroke="black" stroke-width="0.321" stroke-linecap="square" />
    <line id="w-335" x1="20.285" y1="-2.648" x2="16.825" y2="-1.071" stroke="black" stroke-width="0.547" stroke-linecap="square" />
    <line id="w-336" x1="20.285" y1="-2.648" x2="20.863" y2="-1.379" stroke="black" stroke-width="0.321" stroke-linecap="square" />
    <line id="w-355" x1="-12.733" y1="0.155" x2="-13.681" y2="0.587" stroke="black" stroke-width="0.321" stroke-linecap="square" />
    <line id="w-362" x1="-6.172" y1="4.713" x2="-1.856" y2="4.713" stroke="black" stroke-width="0.124" stroke-linecap="square" />
    <line id="w-386" x1="6.064" y1="4.653" x2="6.064" y2="6.977" stroke="black" stroke-width="0.184" stroke-linecap="square" />
    <line id="w-394" x1="7.45" y1="6.723" x2="7.45" y2="6.09" stroke="black" stroke-width="0.124" stroke-linecap="square" />
    <line id="w-395" x1="7.099" y1="5.661" x2="7.483" y2="5.661" stroke="black" stroke-width="0.057" stroke-linecap="square" />
    <line id="w-396" x1="2.811" y1="4.05" x2="2.811" y2="2.745" stroke="black" stroke-width="0.124" stroke-linecap="square" />
    <line id="w-397" x1="7.099" y1="6.09" x2="7.483" y2="6.09" stroke="black" stroke-width="0.057" stroke-linecap="square" />
    <line id="w-398" x1="7.483" y1="6.09" x2="7.483" y2="5.661" stroke="black" stroke-width="0.057" stroke-linecap="square" />
    <line id="w-399" x1="6.064" y1="6.026" x2="7.099" y2="6.026" stroke="black" stroke-width="0.184" stroke-linecap="square" />
    <line id="w-462" x1="-9.112" y1="2.745" x2="-9.112" y2="4.077" stroke="black" stroke-width="0.184" stroke-linecap="square" />
    <line id="w-463" x1="-8.352" y1="2.745" x2="-8.352" y2="4.077" stroke="black" stroke-width="0.124" stroke-linecap="square" />
    <line id="w-464" x1="-12.154" y1="5.658" x2="-8.352" y2="5.658" stroke="black" stroke-width="0.184" stroke-linecap="square" />
    <line id="w-465" x1="-8.352" y1="5.658" x2="-8.352" y2="6.48" stroke="black" stroke-width="0.124" stroke-linecap="square" />
    <line id="w-466" x1="-12.03" y1="4.713" x2="-11.008" y2="4.713" stroke="black" stroke-width="0.124" stroke-linecap="square" />
    <line id="w-467" x1="-12.03" y1="3.675" x2="-11.008" y2="3.675" stroke="black" stroke-width="0.124" stroke-linecap="square" />
    <line id="w-476" x1="-11.138" y1="2.745" x2="-11.138" y2="1.416" stroke="black" stroke-width="0.14" stroke-linecap="square" />
    <line id="w-477" x1="-12.03" y1="2.745" x2="-12.03" y2="5.663" stroke="black" stroke-width="0.216" stroke-linecap="square" />
    <line id="w-478" x1="-11.962" y1="12.87" x2="-11.962" y2="5.663" stroke="black" stroke-width="0.079" stroke-linecap="square" />
    <line id="w-479" x1="-11.962" y1="5.663" x2="-15.203" y2="5.663" stroke="black" stroke-width="0.079" stroke-linecap="square" />
    <line id="w-480" x1="-11.138" y1="1.416" x2="-11.935" y2="-0.333" stroke="black" stroke-width="0.14" stroke-linecap="square" />
    <line id="w-491" x1="1.233" y1="8.561" x2="-1.894" y2="8.561" stroke="black" stroke-width="0.079" stroke-linecap="square" />
    <line id="w-492" x1="-1.894" y1="8.561" x2="-1.894" y2="5.713" stroke="black" stroke-width="0.079" stroke-linecap="square" />
    <line id="w-493" x1="1.233" y1="8.561" x2="1.233" y2="7.15" stroke="black" stroke-width="0.079" stroke-linecap="square" />
    <line id="w-494" x1="1.218" y1="5.713" x2="-1.894" y2="5.713" stroke="black" stroke-width="0.079" stroke-linecap="square" />
    <line id="w-495" x1="1.218" y1="5.713" x2="1.218" y2="6.159" stroke="black" stroke-width="0.048" stroke-linecap="square" />
    <line id="w-505" x1="7.45" y1="6.693" x2="10.046" y2="6.693" stroke="black" stroke-width="0.184" stroke-linecap="square" />
    <line id="w-506" x1="-30.326" y1="5.663" x2="-33.825" y2="5.663" stroke="black" stroke-width="0.079" stroke-linecap="square" />
    <line id="w-507" x1="-27.518" y1="10.492" x2="-30.282" y2="10.492" stroke="black" stroke-width="0.079" stroke-linecap="square" />
    <line id="w-508" x1="-30.282" y1="12.87" x2="-30.282" y2="10.492" stroke="black" stroke-width="0.168" stroke-linecap="square" />
    <line id="w-509" x1="-27.518" y1="7.644" x2="-30.326" y2="7.644" stroke="black" stroke-width="0.079" stroke-linecap="square" />
    <line id="w-510" x1="-27.518" y1="10.492" x2="-27.518" y2="7.644" stroke="black" stroke-width="0.108" stroke-linecap="square" />
    <line id="w-511" x1="-30.326" y1="7.644" x2="-30.326" y2="5.663" stroke="black" stroke-width="0.079" stroke-linecap="square" />
    <line id="w-512" x1="-28.002" y1="12.87" x2="-28.002" y2="10.492" stroke="black" stroke-width="0.124" stroke-linecap="square" />
    <line id="w-529" x1="-15.203" y1="12.87" x2="-15.203" y2="5.634" stroke="black" stroke-width="0.079" stroke-linecap="square" />
    <line id="w-535" x1="-6.483" y1="-8.131" x2="-6.483" y2="-8.74" stroke="black" stroke-width="0.203" stroke-linecap="square" />
    <line id="w-536" x1="-6.483" y1="-8.74" x2="-6.02" y2="-8.74" stroke="black" stroke-width="0.203" stroke-linecap="square" />
    <line id="w-537" x1="-6.483" y1="-8.131" x2="-6.172" y2="-8.131" stroke="black" stroke-width="0.203" stroke-linecap="square" />
    <line id="w-538" x1="1.403" y1="-8.131" x2="1.403" y2="-8.74" stroke="black" stroke-width="0.203" stroke-linecap="square" />
    <line id="w-539" x1="1.403" y1="-8.74" x2="0.939" y2="-8.74" stroke="black" stroke-width="0.203" stroke-linecap="square" />
    <line id="w-540" x1="1.403" y1="-8.131" x2="1.103" y2="-8.131" stroke="black" stroke-width="0.203" stroke-linecap="square" />
    <line id="w-550" x1="12.381" y1="0.916" x2="12.381" y2="-0.987" stroke="black" stroke-width="0.079" stroke-linecap="square" />
    <line id="w-551" x1="15.623" y1="0.916" x2="15.623" y2="-0.983" stroke="black" stroke-width="0.079" stroke-linecap="square" />
    <line id="w-552" x1="15.623" y1="0.916" x2="12.381" y2="0.916" stroke="black" stroke-width="0.079" stroke-linecap="square" />
    <line id="w-564" x1="21.139" y1="-7.528" x2="21.206" y2="-8.035" stroke="black" stroke-width="0.26" stroke-linecap="square" />
    <line id="w-565" x1="21.139" y1="-7.528" x2="21.663" y2="-7.459" stroke="black" stroke-width="0.26" stroke-linecap="square" />
    <line id="w-609" x1="-14.754" y1="-3.874" x2="-6.477" y2="-3.874" stroke="black" stroke-width="0.267" stroke-linecap="square" />
    <line id="w-616" x1="15.584" y1="0.916" x2="15.584" y2="2.729" stroke="black" stroke-width="0.156" stroke-linecap="square" />
    <line id="w-617" x1="16.293" y1="2.729" x2="15.532" y2="2.729" stroke="black" stroke-width="0.124" stroke-linecap="square" />
    <line id="w-621" x1="-14.754" y1="-8.379" x2="-6.477" y2="-8.379" stroke="black" stroke-width="0.235" stroke-linecap="square" />
    <line id="w-643" x1="12.352" y1="-0.838" x2="12.352" y2="-6.355" stroke="black" stroke-width="0.137" stroke-linecap="square" />
    <line id="w-644" x1="12.352" y1="-6.355" x2="15.651" y2="-6.355" stroke="black" stroke-width="0.137" stroke-linecap="square" />
    <line id="w-645" x1="15.651" y1="-6.355" x2="15.651" y2="-0.983" stroke="black" stroke-width="0.137" stroke-linecap="square" />
    <line id="w-702" x1="-33.825" y1="0.762" x2="-15.094" y2="0.762" stroke="black" stroke-width="0.47" stroke-linecap="square" />
    <line id="w-709" x1="6.942" y1="0.414" x2="7.21" y2="1.002" stroke="black" stroke-width="0.108" stroke-linecap="square" />
    <line id="w-710" x1="7.21" y1="1.002" x2="7.581" y2="0.833" stroke="black" stroke-width="0.108" stroke-linecap="square" />
    <line id="w-711" x1="7.581" y1="0.833" x2="7.313" y2="0.245" stroke="black" stroke-width="0.108" stroke-linecap="square" />
    <line id="w-712" x1="1.092" y1="-0.533" x2="1.092" y2="0.483" stroke="black" stroke-width="0.298" stroke-linecap="square" />
    <line id="w-713" x1="1.235" y1="-0.533" x2="1.235" y2="0.483" stroke="black" stroke-width="0.057" stroke-linecap="square" />
    <line id="w-714" x1="-6.172" y1="-0.533" x2="-6.172" y2="0.483" stroke="black" stroke-width="0.298" stroke-linecap="square" />
    <line id="w-715" x1="-6.315" y1="-0.533" x2="-6.315" y2="0.483" stroke="black" stroke-width="0.057" stroke-linecap="square" />
    <line id="w-725" x1="-14.945" y1="-8.138" x2="-14.945" y2="5.663" stroke="black" stroke-width="0.235" stroke-linecap="square" />
    <line id="w-728" x1="-11.962" y1="12.621" x2="-6.477" y2="12.621" stroke="black" stroke-width="0.235" stroke-linecap="square" />
    <line id="w-731" x1="-5.972" y1="-3.874" x2="0.892" y2="-3.874" stroke="black" stroke-width="0.267" stroke-linecap="square" />
    <line id="w-734" x1="1.092" y1="-8.401" x2="12.576" y2="-8.401" stroke="black" stroke-width="0.267" stroke-linecap="square" />
    <line id="w-737" x1="15.661" y1="-8.45" x2="21.258" y2="-7.713" stroke="black" stroke-width="0.286" stroke-linecap="square" />
    <line id="w-803" x1="16.589" y1="-8.432" x2="21.05" y2="-7.844" stroke="black" stroke-width="0.013" stroke-linecap="square" />
    <line id="w-808" x1="1.264" y1="-8.975" x2="4.292" y2="-8.975" stroke="black" stroke-width="0.013" stroke-linecap="square" />
    <line id="w-811" x1="-8.763" y1="-3.062" x2="-8.713" y2="-2.952" stroke="black" stroke-width="0.013" stroke-linecap="square" />
    <line id="w-834" x1="10.046" y1="3.981" x2="7.133" y2="3.981" stroke="black" stroke-width="0.184" stroke-linecap="square" />
    <line id="w-849" x1="12.722" y1="6.407" x2="16.297" y2="6.407" stroke="black" stroke-width="0.108" stroke-linecap="square" />
    <line id="w-850" x1="16.297" y1="6.407" x2="16.297" y2="2.823" stroke="black" stroke-width="0.108" stroke-linecap="square" />
    <line id="w-853" x1="-11.922" y1="6.407" x2="-8.347" y2="6.407" stroke="black" stroke-width="0.108" stroke-linecap="square" />
    <line id="w-854" x1="-8.347" y1="6.407" x2="-8.347" y2="2.823" stroke="black" stroke-width="0.108" stroke-linecap="square" />
    <line id="w-857" x1="-14.754" y1="0.762" x2="-6.477" y2="0.762" stroke="black" stroke-width="0.267" stroke-linecap="square" />
    <line id="w-858" x1="-11.962" y1="5.855" x2="-6.477" y2="5.855" stroke="black" stroke-width="0.267" stroke-linecap="square" />
    <line id="w-873" x1="20.614" y1="0.511" x2="19.334" y2="0.511" stroke="black" stroke-width="0.108" stroke-linecap="square" />
    <line id="w-874" x1="19.334" y1="0.511" x2="19.334" y2="1.775" stroke="black" stroke-width="0.108" stroke-linecap="square" />
    <line id="w-875" x1="19.334" y1="1.775" x2="20.448" y2="1.775" stroke="black" stroke-width="0.108" stroke-linecap="square" />
    <line id="w-894" x1="-6.172" y1="0.762" x2="1.092" y2="0.762" stroke="black" stroke-width="0.267" stroke-linecap="square" />
    <line id="w-895" x1="-5.867" y1="5.855" x2="-1.894" y2="5.855" stroke="black" stroke-width="0.267" stroke-linecap="square" />
    <line id="w-896" x1="-6.172" y1="8.42" x2="-1.894" y2="8.42" stroke="black" stroke-width="0.267" stroke-linecap="square" />
    <line id="w-906" x1="1.092" y1="-3.879" x2="6.985" y2="-3.879" stroke="black" stroke-width="0.267" stroke-linecap="square" />
    <line id="w-907" x1="1.092" y1="0.756" x2="12.573" y2="0.756" stroke="black" stroke-width="0.267" stroke-linecap="square" />
    <line id="w-908" x1="1.218" y1="5.849" x2="7.071" y2="5.849" stroke="black" stroke-width="0.267" stroke-linecap="square" />
    <line id="w-909" x1="1.092" y1="12.646" x2="6.985" y2="12.646" stroke="black" stroke-width="0.235" stroke-linecap="square" />
    <line id="w-924" x1="7.512" y1="5.849" x2="12.573" y2="5.849" stroke="black" stroke-width="0.267" stroke-linecap="square" />
    <line id="w-925" x1="7.595" y1="-3.879" x2="12.573" y2="-3.879" stroke="black" stroke-width="0.267" stroke-linecap="square" />
    <line id="w-947" x1="5.366" y1="7.01" x2="10.744" y2="7.01" stroke="black" stroke-width="0.108" stroke-linecap="square" />
    <line id="w-948" x1="10.744" y1="7.01" x2="10.744" y2="3.943" stroke="black" stroke-width="0.108" stroke-linecap="square" />
    <line id="w-949" x1="10.744" y1="3.943" x2="5.366" y2="3.943" stroke="black" stroke-width="0.108" stroke-linecap="square" />
    <line id="w-950" x1="5.366" y1="3.943" x2="5.366" y2="7.01" stroke="black" stroke-width="0.108" stroke-linecap="square" />
    <line id="w-1003" x1="-32.297" y1="0.203" x2="-32.042" y2="0.762" stroke="black" stroke-width="0.321" stroke-linecap="square" />
    <line id="w-1004" x1="-25.705" y1="0.213" x2="-25.455" y2="0.762" stroke="black" stroke-width="0.321" stroke-linecap="square" />
    <line id="w-1005" x1="-19.113" y1="0.224" x2="-18.868" y2="0.762" stroke="black" stroke-width="0.321" stroke-linecap="square" />
    <line id="w-1022" x1="-5.867" y1="12.652" x2="0.787" y2="12.652" stroke="black" stroke-width="0.235" stroke-linecap="square" />
    <line id="w-1023" x1="7.595" y1="12.646" x2="12.573" y2="12.646" stroke="black" stroke-width="0.235" stroke-linecap="square" />
    <line id="w-1024" x1="12.573" y1="12.621" x2="19.02" y2="12.621" stroke="black" stroke-width="0.235" stroke-linecap="square" />
    <line id="w-1026" x1="-14.786" y1="-4.983" x2="-14.786" y2="-8.378" stroke="black" stroke-width="0.013" stroke-linecap="square" />
    <line id="w-1028" x1="-14.786" y1="-8.378" x2="-12.264" y2="-8.378" stroke="black" stroke-width="0.013" stroke-linecap="square" />
    <line id="w-1032" x1="15.532" y1="4.077" x2="15.532" y2="5.658" stroke="black" stroke-width="0.184" stroke-linecap="square" />
    <line id="w-1035" x1="-9.112" y1="4.077" x2="-9.112" y2="5.658" stroke="black" stroke-width="0.184" stroke-linecap="square" />
    <line id="w-1039" x1="15.532" y1="4.077" x2="16.293" y2="4.077" stroke="black" stroke-width="0.184" stroke-linecap="square" />
    <line id="w-1042" x1="-9.112" y1="4.077" x2="-8.352" y2="4.077" stroke="black" stroke-width="0.184" stroke-linecap="square" />
    <line id="w-1043" x1="12.573" y1="5.855" x2="19.395" y2="5.855" stroke="black" stroke-width="0.267" stroke-linecap="square" />
    <line id="w-1049" x1="-30.282" y1="12.631" x2="-27.924" y2="12.631" stroke="black" stroke-width="0.267" stroke-linecap="square" />
    <line id="w-1050" x1="-30.326" y1="5.855" x2="-15.203" y2="5.855" stroke="black" stroke-width="0.47" stroke-linecap="square" />
    <line id="w-1057" x1="-27.368" y1="12.631" x2="-21.641" y2="12.631" stroke="black" stroke-width="0.267" stroke-linecap="square" />
    <line id="w-1058" x1="-21.031" y1="12.631" x2="-15.203" y2="12.631" stroke="black" stroke-width="0.267" stroke-linecap="square" />
    <line id="w-1059" x1="15.623" y1="-3.874" x2="20.676" y2="-3.874" stroke="black" stroke-width="0.267" stroke-linecap="square" />
    <line id="w-1061" x1="15.662" y1="0.756" x2="20.065" y2="0.756" stroke="black" stroke-width="0.267" stroke-linecap="square" />
  </g>
</svg>