<?xml version="1.0" encoding="utf-8"?>
<svg xmlns="http://www.w3.org/2000/svg" viewBox="-31.711 -13.37 49.556 22.965">
  <g transform="scale(1,-1)">
    <line id="wn-7" data-host="w-706" x1="-4.254" y1="12.87" x2="-4.254" y2="12.87" stroke="white" stroke-width="0.341" />
    <line id="wn-8" data-host="w-706" x1="-1.713" y1="12.87" x2="-1.713" y2="12.87" stroke="white" stroke-width="0.341" />
    <line id="wn-9" data-host="w-706" x1="2.099" y1="12.87" x2="2.099" y2="12.87" stroke="white" stroke-width="0.341" />
    <line id="wn-10" data-host="w-706" x1="4.64" y1="12.87" x2="4.64" y2="12.87" stroke="white" stroke-width="0.341" />
    <line id="wn-11" data-host="w-706" x1="14.804" y1="12.87" x2="14.804" y2="12.87" stroke="white" stroke-width="0.341" />
    <line id="wn-12" data-host="w-706" x1="17.345" y1="12.87" x2="17.345" y2="12.87" stroke="white" stroke-width="0.341" />
    <line id="wn-25" data-host="w-39" x1="-22.841" y1="12.87" x2="-22.841" y2="12.87" stroke="white" stroke-width="0.341" />
    <line id="wn-26" data-host="w-39" x1="-19.018" y1="12.87" x2="-19.018" y2="12.87" stroke="white" stroke-width="0.341" />
    <line id="wn-27" data-host="w-39" x1="-25.374" y1="12.87" x2="-25.374" y2="12.87" stroke="white" stroke-width="0.341" />
    <line id="wn-33" data-host="w-309" x1="-29.406" y1="-1.456" x2="-29.406" y2="-1.456" stroke="white" stroke-width="0.642" />
    <line id="wn-34" data-host="w-309" x1="-31.211" y1="-0.633" x2="-31.211" y2="-0.633" stroke="white" stroke-width="0.642" />
    <line id="wn-35" data-host="w-320" x1="-11.419" y1="-0.568" x2="-11.419" y2="-0.568" stroke="white" stroke-width="0.567" />
    <line id="wn-36" data-host="w-324" x1="9.506" y1="-0.878" x2="9.506" y2="-0.878" stroke="white" stroke-width="0.567" />
    <line id="wn-37" data-host="w-312" x1="-22.814" y1="-1.446" x2="-22.814" y2="-1.446" stroke="white" stroke-width="0.642" />
    <line id="wn-38" data-host="w-312" x1="-24.619" y1="-0.623" x2="-24.619" y2="-0.623" stroke="white" stroke-width="0.642" />
    <line id="wn-39" data-host="w-314" x1="-16.221" y1="-1.435" x2="-16.221" y2="-1.435" stroke="white" stroke-width="0.642" />
    <line id="wn-40" data-host="w-314" x1="-18.026" y1="-0.612" x2="-18.026" y2="-0.612" stroke="white" stroke-width="0.642" />
    <line id="wn-78" data-host="w-656" x1="-0.148" y1="-9.095" x2="0.398" y2="-9.095" stroke="white" stroke-width="0.188" />
    <line id="wn-79" data-host="w-656" x1="-1.464" y1="-9.095" x2="-0.918" y2="-9.095" stroke="white" stroke-width="0.188" />
    <line id="wn-80" data-host="w-656" x1="-4.159" y1="-9.095" x2="-3.613" y2="-9.095" stroke="white" stroke-width="0.188" />
    <line id="wn-81" data-host="w-656" x1="-5.482" y1="-9.095" x2="-4.936" y2="-9.095" stroke="white" stroke-width="0.188" />
  </g>
</svg>