<?xml version="1.0" encoding="utf-8"?>
<svg xmlns="http://www.w3.org/2000/svg" viewBox="-34.485 -31.672 64.597 49.853">
  <g transform="scale(1,-1)">
    <line id="wn-7" data-host="w-706" x1="-4.889" y1="12.87" x2="-3.619" y2="12.87" stroke="white" stroke-width="0.341" />
    <line id="wn-8" data-host="w-706" x1="-2.348" y1="12.87" x2="-1.078" y2="12.87" stroke="white" stroke-width="0.341" />
    <line id="wn-9" data-host="w-706" x1="1.464" y1="12.87" x2="2.734" y2="12.87" stroke="white" stroke-width="0.341" />
    <line id="wn-10" data-host="w-706" x1="4.005" y1="12.87" x2="5.275" y2="12.87" stroke="white" stroke-width="0.341" />
    <line id="wn-11" data-host="w-706" x1="14.169" y1="12.87" x2="15.439" y2="12.87" stroke="white" stroke-width="0.341" />
    <line id="wn-12" data-host="w-706" x1="16.71" y1="12.87" x2="17.98" y2="12.87" stroke="white" stroke-width="0.341" />
    <line id="wn-25" data-host="w-39" x1="-23.476" y1="12.87" x2="-22.206" y2="12.87" stroke="white" stroke-width="0.341" />
    <line id="wn-26" data-host="w-39" x1="-19.653" y1="12.87" x2="-18.383" y2="12.87" stroke="white" stroke-width="0.341" />
    <line id="wn-27" data-host="w-39" x1="-26.009" y1="12.87" x2="-24.739" y2="12.87" stroke="white" stroke-width="0.341" />
    <line id="wn-33" data-host="w-309" x1="-28.955" y1="-1.662" x2="-29.857" y2="-1.251" stroke="white" stroke-width="0.642" />
    <line id="wn-34" data-host="w-309" x1="-30.761" y1="-0.839" x2="-31.662" y2="-0.428" stroke="white" stroke-width="0.642" />
    <line id="wn-35" data-host="w-320" x1="-10.968" y1="-0.773" x2="-11.87" y2="-0.362" stroke="white" stroke-width="0.567" />
    <line id="wn-36" data-host="w-324" x1="9.957" y1="-1.084" x2="9.056" y2="-0.673" stroke="white" stroke-width="0.567" />
    <line id="wn-37" data-host="w-312" x1="-22.363" y1="-1.651" x2="-23.265" y2="-1.24" stroke="white" stroke-width="0.642" />
    <line id="wn-38" data-host="w-312" x1="-24.168" y1="-0.828" x2="-25.07" y2="-0.417" stroke="white" stroke-width="0.642" />
    <line id="wn-39" data-host="w-314" x1="-15.77" y1="-1.641" x2="-16.672" y2="-1.23" stroke="white" stroke-width="0.642" />
    <line id="wn-40" data-host="w-314" x1="-17.576" y1="-0.818" x2="-18.477" y2="-0.407" stroke="white" stroke-width="0.642" />
    <line id="wn-78" data-host="w-656" x1="-0.148" y1="-9.095" x2="0.398" y2="-9.095" stroke="white" stroke-width="0.188" />
    <line id="wn-79" data-host="w-656" x1="-1.464" y1="-9.095" x2="-0.918" y2="-9.095" stroke="white" stroke-width="0.188" />
    <line id="wn-80" data-host="w-656" x1="-4.159" y1="-9.095" x2="-3.613" y2="-9.095" stroke="white" stroke-width="0.188" />
    <line id="wn-81" data-host="w-656" x1="-5.482" y1="-9.095" x2="-4.936" y2="-9.095" stroke="white" stroke-width="0.188" />
  </g>
</svg>