<?xml version="1.0" encoding="utf-8"?>
<svg xmlns="http://www.w3.org/2000/svg" viewBox="-35.327 -14.677 38.066 10.469">
  <g transform="scale(1,-1)">
    <polygon id="f-10" points="2.007,4.94 2.007,9.131 -2.464,9.131 -2.464,4.94" />
    <polygon id="f-11" points="-29.756,7.074 -26.759,7.074 -26.759,11.062 -29.756,11.062 -29.756,13.945 -34.595,13.945 -34.595,4.94 -29.756,4.94" />
    <rect id="f-12" x="-1.928" y="8.296" width="0.3" height="0.3" transform="rotate(360,-1.778,8.446)" />
    <rect id="f-13" x="1.171" y="8.296" width="0.3" height="0.3" transform="rotate(180,1.321,8.446)" />
    <rect id="f-14" x="1.171" y="5.476" width="0.3" height="0.3" transform="rotate(180,1.321,5.626)" />
    <rect id="f-15" x="-1.928" y="5.476" width="0.3" height="0.3" />
    <rect id="f-16" x="-27.798" y="7.61" width="0.3" height="0.3" transform="rotate(360,-27.648,7.76)" />
    <rect id="f-17" x="-27.798" y="10.226" width="0.3" height="0.3" transform="rotate(360,-27.648,10.376)" />
    <rect id="f-18" x="-30.592" y="5.476" width="0.3" height="0.3" transform="rotate(360,-30.442,5.626)" />
    <rect id="f-19" x="-30.592" y="13.109" width="0.3" height="0.3" transform="rotate(360,-30.442,13.259)" />
    <rect id="f-20" x="-34.059" y="5.476" width="0.3" height="0.3" transform="rotate(180,-33.909,5.626)" />
    <rect id="f-21" x="-34.059" y="13.109" width="0.3" height="0.3" transform="rotate(180,-33.909,13.259)" />
    <rect id="f-22" x="-34.059" y="9.292" width="0.3" height="0.3" transform="rotate(180,-33.909,9.442)" />
    <rect id="f-23" x="-30.592" y="9.292" width="0.3" height="0.3" transform="rotate(180,-30.442,9.442)" />
    <rect id="f-24" x="-32.325" y="11.201" width="0.3" height="0.3" transform="rotate(180,-32.175,11.351)" />
    <rect id="f-25" x="-32.325" y="7.384" width="0.3" height="0.3" transform="rotate(180,-32.175,7.534)" />
  </g>
</svg>