<?xml version="1.0" encoding="utf-8"?>
<svg xmlns="http://www.w3.org/2000/svg" viewBox="-134.847 188.218 26.744 34.612">
  <g transform="scale(1,-1)">
    <line id="w-11" x1="-109.094" y1="-189.208" x2="-133.681" y2="-189.208" stroke="black" stroke-width="0.371" stroke-linecap="square" />
    <line id="w-12" x1="-109.094" y1="-189.208" x2="-109.094" y2="-211.896" stroke="black" stroke-width="0.371" stroke-linecap="square" />
    <line id="w-13" x1="-133.681" y1="-189.208" x2="-133.681" y2="-205.972" stroke="black" stroke-width="0.371" stroke-linecap="square" />
    <line id="w-22" x1="-111.64" y1="-201.502" x2="-125.326" y2="-201.502" stroke="black" stroke-width="0.114" stroke-linecap="square" />
    <line id="w-29" x1="-125.326" y1="-204.633" x2="-125.326" y2="-201.502" stroke="black" stroke-width="0.114" stroke-linecap="square" />
    <line id="w-58" x1="-111.64" y1="-189.208" x2="-111.64" y2="-195.158" stroke="black" stroke-width="0.114" stroke-linecap="square" />
    <line id="w-59" x1="-111.64" y1="-195.158" x2="-115.298" y2="-195.158" stroke="black" stroke-width="0.114" stroke-linecap="square" />
    <line id="w-60" x1="-115.298" y1="-195.158" x2="-115.298" y2="-189.208" stroke="black" stroke-width="0.114" stroke-linecap="square" />
    <line id="w-61" x1="-115.298" y1="-195.158" x2="-115.298" y2="-201.502" stroke="black" stroke-width="0.114" stroke-linecap="square" />
    <line id="w-62" x1="-115.298" y1="-199.12" x2="-111.64" y2="-199.12" stroke="black" stroke-width="0.114" stroke-linecap="square" />
    <line id="w-63" x1="-111.64" y1="-195.158" x2="-111.64" y2="-199.12" stroke="black" stroke-width="0.114" stroke-linecap="square" />
    <line id="w-64" x1="-111.64" y1="-199.12" x2="-111.64" y2="-201.502" stroke="black" stroke-width="0.114" stroke-linecap="square" />
    <line id="w-65" x1="-111.64" y1="-201.502" x2="-115.298" y2="-201.502" stroke="black" stroke-width="0.114" stroke-linecap="square" />
    <line id="w-66" x1="-112.612" y1="-199.12" x2="-112.612" y2="-201.502" stroke="black" stroke-width="0.114" stroke-linecap="square" />
    <line id="w-79" x1="-117.374" y1="-209.196" x2="-111.64" y2="-204.033" stroke="black" stroke-width="0.114" stroke-linecap="square" />
    <line id="w-80" x1="-111.64" y1="-204.033" x2="-109.094" y2="-204.033" stroke="black" stroke-width="0.114" stroke-linecap="square" />
    <line id="w-81" x1="-125.326" y1="-201.502" x2="-125.326" y2="-199.209" stroke="black" stroke-width="0.114" stroke-linecap="square" />
    <line id="w-82" x1="-125.326" y1="-199.209" x2="-133.681" y2="-199.209" stroke="black" stroke-width="0.114" stroke-linecap="square" />
  </g>
</svg>