<?xml version="1.0" encoding="utf-8"?>
<svg xmlns="http://www.w3.org/2000/svg" viewBox="-32.349 -14.406 53.517 20.189">
  <g transform="scale(1,-1)">
    <rect id="eq-80" x="-15.466" y="6.314" width="0.3" height="0.3" transform="rotate(270,-15.316,6.464)" />
    <rect id="eq-81" x="-15.466" y="7.229" width="0.3" height="0.3" transform="rotate(270,-15.316,7.379)" />
    <rect id="eq-82" x="-15.466" y="9.058" width="0.3" height="0.3" transform="rotate(270,-15.316,9.208)" />
    <rect id="eq-83" x="-15.466" y="9.972" width="0.3" height="0.3" transform="rotate(270,-15.316,10.122)" />
    <rect id="eq-84" x="-15.466" y="8.143" width="0.3" height="0.3" transform="rotate(270,-15.316,8.293)" />
    <rect id="eq-85" x="-29.331" y="-1.367" width="0.3" height="0.3" transform="rotate(162.743,-29.181,-1.217)" />
    <rect id="eq-86" x="-28.824" y="-1.598" width="0.3" height="0.3" transform="rotate(162.743,-28.674,-1.448)" />
    <rect id="eq-87" x="-22.112" y="-1.642" width="0.3" height="0.3" transform="rotate(162.743,-21.962,-1.492)" />
    <rect id="eq-88" x="-22.567" y="-1.435" width="0.3" height="0.3" transform="rotate(162.743,-22.417,-1.285)" />
    <rect id="eq-89" x="-15.531" y="-1.627" width="0.3" height="0.3" transform="rotate(162.743,-15.381,-1.477)" />
    <rect id="eq-90" x="-16.028" y="-1.4" width="0.3" height="0.3" transform="rotate(162.743,-15.878,-1.25)" />
    <rect id="eq-91" x="-30.459" y="-2.073" width="0.3" height="0.3" transform="rotate(114.55,-30.309,-1.923)" />
    <rect id="eq-92" x="-30.748" y="-2.692" width="0.3" height="0.3" transform="rotate(114.55,-30.598,-2.542)" />
    <rect id="eq-93" x="-31.032" y="-3.304" width="0.3" height="0.3" transform="rotate(114.55,-30.882,-3.154)" />
    <rect id="eq-94" x="-31.32" y="-3.921" width="0.3" height="0.3" transform="rotate(114.55,-31.17,-3.771)" />
    <rect id="eq-95" x="-13.651" y="13.077" width="0.3" height="0.3" transform="rotate(180,-13.501,13.227)" />
    <rect id="eq-96" x="-29.494" y="-4.754" width="0.3" height="0.3" transform="rotate(114.55,-29.344,-4.604)" />
    <rect id="eq-97" x="-30.402" y="-4.344" width="0.3" height="0.3" transform="rotate(114.55,-30.252,-4.194)" />
    <rect id="eq-98" x="-30.122" y="-3.717" width="0.3" height="0.3" transform="rotate(114.55,-29.972,-3.567)" />
    <rect id="eq-99" x="-29.243" y="-4.114" width="0.3" height="0.3" transform="rotate(114.55,-29.093,-3.964)" />
    <rect id="eq-100" x="-29.836" y="-3.1" width="0.3" height="0.3" transform="rotate(114.55,-29.686,-2.95)" />
    <rect id="eq-101" x="-28.932" y="-3.514" width="0.3" height="0.3" transform="rotate(114.55,-28.782,-3.364)" />
    <rect id="eq-102" x="-29.579" y="-2.464" width="0.3" height="0.3" transform="rotate(114.55,-29.429,-2.314)" />
    <rect id="eq-103" x="-28.674" y="-2.878" width="0.3" height="0.3" transform="rotate(114.55,-28.524,-2.728)" />
    <rect id="eq-104" x="-8.97" y="-1.602" width="0.3" height="0.3" transform="rotate(162.743,-8.82,-1.452)" />
    <rect id="eq-105" x="-9.479" y="-1.37" width="0.3" height="0.3" transform="rotate(162.743,-9.329,-1.22)" />
    <rect id="eq-106" x="-26.51" y="-3.081" width="0.3" height="0.3" transform="rotate(114.55,-26.36,-2.931)" />
    <rect id="eq-107" x="-24.703" y="-3.903" width="0.3" height="0.3" transform="rotate(114.55,-24.553,-3.753)" />
    <rect id="eq-108" x="-23.807" y="-4.31" width="0.3" height="0.3" transform="rotate(114.55,-23.657,-4.16)" />
    <rect id="eq-109" x="-26.376" y="-2.781" width="0.3" height="0.3" transform="rotate(114.55,-26.226,-2.631)" />
    <rect id="eq-110" x="-26.223" y="-2.479" width="0.3" height="0.3" transform="rotate(114.55,-26.073,-2.329)" />
    <rect id="eq-111" x="-24.429" y="-3.294" width="0.3" height="0.3" transform="rotate(114.55,-24.279,-3.144)" />
    <rect id="eq-112" x="-23.524" y="-3.706" width="0.3" height="0.3" transform="rotate(114.55,-23.374,-3.556)" />
    <rect id="eq-113" x="-22.648" y="-4.099" width="0.3" height="0.3" transform="rotate(114.55,-22.498,-3.949)" />
    <rect id="eq-114" x="-26.079" y="-2.173" width="0.3" height="0.3" transform="rotate(114.55,-25.929,-2.023)" />
    <rect id="eq-115" x="-25.936" y="-1.862" width="0.3" height="0.3" transform="rotate(114.55,-25.786,-1.712)" />
    <rect id="eq-116" x="-24.14" y="-2.676" width="0.3" height="0.3" transform="rotate(114.55,-23.99,-2.526)" />
    <rect id="eq-117" x="-23.228" y="-3.094" width="0.3" height="0.3" transform="rotate(114.55,-23.078,-2.944)" />
    <rect id="eq-118" x="-22.35" y="-3.497" width="0.3" height="0.3" transform="rotate(114.55,-22.2,-3.347)" />
    <rect id="eq-119" x="-25.807" y="-1.549" width="0.3" height="0.3" transform="rotate(114.55,-25.657,-1.399)" />
    <rect id="eq-120" x="-25.667" y="-1.237" width="0.3" height="0.3" transform="rotate(114.55,-25.517,-1.087)" />
    <rect id="eq-121" x="-23.859" y="-2.057" width="0.3" height="0.3" transform="rotate(114.55,-23.709,-1.907)" />
    <rect id="eq-122" x="-22.954" y="-2.477" width="0.3" height="0.3" transform="rotate(114.55,-22.804,-2.327)" />
    <rect id="eq-123" x="-22.051" y="-2.879" width="0.3" height="0.3" transform="rotate(114.55,-21.901,-2.729)" />
    <rect id="eq-124" x="-15.49" y="-2.858" width="0.3" height="0.3" transform="rotate(114.55,-15.34,-2.708)" />
    <rect id="eq-125" x="-16.376" y="-2.457" width="0.3" height="0.3" transform="rotate(114.55,-16.226,-2.307)" />
    <rect id="eq-126" x="-17.33" y="-2.018" width="0.3" height="0.3" transform="rotate(114.55,-17.18,-1.868)" />
    <rect id="eq-127" x="-19.101" y="-1.212" width="0.3" height="0.3" transform="rotate(114.55,-18.951,-1.062)" />
    <rect id="eq-128" x="-19.244" y="-1.523" width="0.3" height="0.3" transform="rotate(114.55,-19.094,-1.373)" />
    <rect id="eq-129" x="-16.679" y="-3.062" width="0.3" height="0.3" transform="rotate(114.55,-16.529,-2.912)" />
    <rect id="eq-130" x="-17.566" y="-2.665" width="0.3" height="0.3" transform="rotate(114.55,-17.416,-2.515)" />
    <rect id="eq-131" x="-19.362" y="-1.846" width="0.3" height="0.3" transform="rotate(114.55,-19.212,-1.696)" />
    <rect id="eq-132" x="-19.513" y="-2.148" width="0.3" height="0.3" transform="rotate(114.55,-19.363,-1.998)" />
    <rect id="eq-133" x="-16.054" y="-4.102" width="0.3" height="0.3" transform="rotate(114.55,-15.904,-3.952)" />
    <rect id="eq-134" x="-16.957" y="-3.689" width="0.3" height="0.3" transform="rotate(114.55,-16.807,-3.539)" />
    <rect id="eq-135" x="-17.843" y="-3.285" width="0.3" height="0.3" transform="rotate(114.55,-17.693,-3.135)" />
    <rect id="eq-136" x="-19.648" y="-2.46" width="0.3" height="0.3" transform="rotate(114.55,-19.498,-2.31)" />
    <rect id="eq-137" x="-16.331" y="-4.696" width="0.3" height="0.3" transform="rotate(114.55,-16.181,-4.546)" />
    <rect id="eq-138" x="-17.235" y="-4.291" width="0.3" height="0.3" transform="rotate(114.55,-17.085,-4.141)" />
    <rect id="eq-139" x="-18.121" y="-3.889" width="0.3" height="0.3" transform="rotate(114.55,-17.971,-3.739)" />
    <rect id="eq-140" x="-19.909" y="-3.075" width="0.3" height="0.3" transform="rotate(114.55,-19.759,-2.925)" />
    <rect id="eq-141" x="-19.772" y="-2.774" width="0.3" height="0.3" transform="rotate(114.55,-19.622,-2.624)" />
    <rect id="eq-142" x="-8.83" y="-2.794" width="0.3" height="0.3" transform="rotate(114.55,-8.68,-2.644)" />
    <rect id="eq-143" x="-9.741" y="-2.38" width="0.3" height="0.3" transform="rotate(114.55,-9.591,-2.23)" />
    <rect id="eq-144" x="-10.659" y="-1.961" width="0.3" height="0.3" transform="rotate(114.55,-10.509,-1.811)" />
    <rect id="eq-145" x="-12.445" y="-1.146" width="0.3" height="0.3" transform="rotate(114.55,-12.295,-0.996)" />
    <rect id="eq-146" x="-12.603" y="-1.446" width="0.3" height="0.3" transform="rotate(114.55,-12.453,-1.296)" />
    <rect id="eq-147" x="5.945" y="-0.514" width="0.3" height="0.3" transform="rotate(162.743,6.095,-0.364)" />
    <rect id="eq-148" x="10.936" y="-1.448" width="0.3" height="0.3" transform="rotate(162.743,11.086,-1.298)" />
    <rect id="eq-149" x="16.833" y="-0.992" width="0.3" height="0.3" transform="rotate(162.743,16.983,-0.842)" />
    <rect id="eq-150" x="5.419" y="-0.274" width="0.3" height="0.3" transform="rotate(162.743,5.569,-0.124)" />
    <rect id="eq-151" x="10.427" y="-1.216" width="0.3" height="0.3" transform="rotate(162.743,10.577,-1.066)" />
    <rect id="eq-152" x="16.362" y="-0.778" width="0.3" height="0.3" transform="rotate(162.743,16.512,-0.628)" />
    <rect id="eq-153" x="-15.771" y="8.143" width="0.3" height="0.3" transform="rotate(90,-15.621,8.293)" />
    <rect id="eq-154" x="3.257" y="-0.797" width="0.3" height="0.3" transform="rotate(114.55,3.407,-0.647)" />
    <rect id="eq-155" x="4.16" y="-1.208" width="0.3" height="0.3" transform="rotate(114.55,4.31,-1.058)" />
    <rect id="eq-156" x="4.297" y="-0.89" width="0.3" height="0.3" transform="rotate(114.55,4.447,-0.74)" />
    <rect id="eq-157" x="3.398" y="-0.484" width="0.3" height="0.3" transform="rotate(114.55,3.548,-0.334)" />
    <rect id="eq-158" x="5.194" y="-1.308" width="0.3" height="0.3" transform="rotate(114.55,5.344,-1.158)" />
    <rect id="eq-159" x="6.098" y="-1.711" width="0.3" height="0.3" transform="rotate(114.55,6.248,-1.561)" />
    <rect id="eq-160" x="5.919" y="-2.005" width="0.3" height="0.3" transform="rotate(114.55,6.069,-1.855)" />
    <rect id="eq-161" x="8.459" y="-1.451" width="0.3" height="0.3" transform="rotate(114.55,8.609,-1.301)" />
    <rect id="eq-162" x="9.358" y="-1.859" width="0.3" height="0.3" transform="rotate(114.55,9.508,-1.709)" />
    <rect id="eq-163" x="10.261" y="-2.273" width="0.3" height="0.3" transform="rotate(114.55,10.411,-2.123)" />
    <rect id="eq-164" x="11.181" y="-2.692" width="0.3" height="0.3" transform="rotate(114.55,11.331,-2.542)" />
    <rect id="eq-165" x="11.052" y="-3.005" width="0.3" height="0.3" transform="rotate(114.55,11.202,-2.855)" />
    <rect id="eq-166" x="10.104" y="-2.573" width="0.3" height="0.3" transform="rotate(114.55,10.254,-2.423)" />
    <rect id="eq-167" x="8.32" y="-1.76" width="0.3" height="0.3" transform="rotate(114.55,8.47,-1.61)" />
    <rect id="eq-168" x="19.715" y="-3.816" width="0.3" height="0.3" transform="rotate(114.55,19.865,-3.666)" />
    <rect id="eq-169" x="19.839" y="-3.495" width="0.3" height="0.3" transform="rotate(114.55,19.989,-3.345)" />
    <rect id="eq-170" x="18.93" y="-3.083" width="0.3" height="0.3" transform="rotate(114.55,19.08,-2.933)" />
    <rect id="eq-171" x="18.05" y="-2.688" width="0.3" height="0.3" transform="rotate(114.55,18.2,-2.538)" />
    <rect id="eq-172" x="17.883" y="-2.984" width="0.3" height="0.3" transform="rotate(114.55,18.033,-2.834)" />
    <rect id="eq-173" x="-7.694" y="8.248" width="0.3" height="0.3" transform="rotate(90,-7.544,8.398)" />
  </g>
</svg>