<?xml version="1.0" encoding="utf-8"?>
<svg xmlns="http://www.w3.org/2000/svg" viewBox="-29.583 -11.292 47.535 13.657">
  <g transform="scale(1,-1)">
    <rect id="mn-1063" x="-6.804" y="7.963" width="0.05" height="0.05" transform="rotate(90,-6.779,7.988)" />
    <rect id="mn-1064" x="-6.753" y="8.116" width="0.05" height="0.05" transform="rotate(240,-6.728,8.141)" />
    <rect id="mn-1065" x="-6.615" y="8.116" width="0.05" height="0.05" transform="rotate(90,-6.59,8.141)" />
    <rect id="mn-1066" x="-4.316" y="5.779" width="0.05" height="0.05" transform="rotate(90,-4.291,5.804)" />
    <rect id="mn-1067" x="-4.316" y="5.779" width="0.05" height="0.05" transform="rotate(270,-4.291,5.804)" />
    <rect id="mn-1068" x="-4.242" y="7.839" width="0.05" height="0.05" transform="rotate(180,-4.217,7.864)" />
    <rect id="mn-1069" x="-4.316" y="7.734" width="0.05" height="0.05" transform="rotate(264.812,-4.291,7.759)" />
    <rect id="mn-1070" x="-4.316" y="7.734" width="0.05" height="0.05" transform="rotate(120,-4.291,7.759)" />
    <rect id="mn-1071" x="-4.343" y="8.043" width="0.05" height="0.05" transform="rotate(135,-4.318,8.068)" />
    <rect id="mn-1072" x="-4.316" y="8.016" width="0.05" height="0.05" transform="rotate(120,-4.291,8.041)" />
    <rect id="mn-1073" x="-4.316" y="8.016" width="0.05" height="0.05" transform="rotate(98.421,-4.291,8.041)" />
    <rect id="mn-1074" x="-4.286" y="7.941" width="0.05" height="0.05" transform="rotate(90,-4.261,7.966)" />
    <rect id="mn-1075" x="-4.886" y="6.309" width="0.05" height="0.05" transform="rotate(240,-4.861,6.334)" />
    <rect id="mn-1076" x="-4.286" y="6.309" width="0.05" height="0.05" transform="rotate(180,-4.261,6.334)" />
    <rect id="mn-1077" x="-4.286" y="7.941" width="0.05" height="0.05" transform="rotate(180,-4.261,7.966)" />
    <rect id="mn-1078" x="13.936" y="5.621" width="0.05" height="0.05" transform="rotate(93.981,13.961,5.646)" />
    <rect id="mn-1079" x="13.936" y="5.621" width="0.05" height="0.05" transform="rotate(180,13.961,5.646)" />
    <rect id="mn-1080" x="-6.753" y="7.963" width="0.05" height="0.05" transform="rotate(240,-6.728,7.988)" />
    <rect id="mn-1081" x="-6.615" y="7.963" width="0.05" height="0.05" transform="rotate(90,-6.59,7.988)" />
    <rect id="mn-1082" x="-4.286" y="5.779" width="0.05" height="0.05" transform="rotate(90,-4.261,5.804)" />
    <rect id="mn-1083" x="-4.286" y="5.779" width="0.05" height="0.05" transform="rotate(270,-4.261,5.804)" />
    <rect id="mn-1084" x="-4.286" y="8.043" width="0.05" height="0.05" transform="rotate(180,-4.261,8.068)" />
    <rect id="mn-1085" x="-4.286" y="8.043" width="0.05" height="0.05" transform="rotate(180,-4.261,8.068)" />
    <rect id="mn-1086" x="-4.286" y="7.839" width="0.05" height="0.05" transform="rotate(90,-4.261,7.864)" />
    <rect id="mn-1087" x="-4.286" y="6.106" width="0.05" height="0.05" transform="rotate(270,-4.261,6.131)" />
    <rect id="mn-1088" x="-4.286" y="7.839" width="0.05" height="0.05" transform="rotate(120,-4.261,7.864)" />
    <rect id="mn-1089" x="-4.286" y="7.128" width="0.05" height="0.05" transform="rotate(240,-4.261,7.153)" />
    <rect id="mn-1090" x="-4.286" y="6.512" width="0.05" height="0.05" transform="rotate(270,-4.261,6.537)" />
    <rect id="mn-1091" x="13.189" y="5.614" width="0.05" height="0.05" transform="rotate(201.475,13.214,5.639)" />
    <rect id="mn-1092" x="13.189" y="5.614" width="0.05" height="0.05" transform="rotate(120.321,13.214,5.639)" />
    <rect id="mn-1093" x="-6.736" y="7.633" width="0.05" height="0.05" transform="rotate(240,-6.711,7.658)" />
    <rect id="mn-1094" x="-6.736" y="7.633" width="0.05" height="0.05" transform="rotate(240,-6.711,7.658)" />
    <rect id="mn-1095" x="-6.615" y="7.633" width="0.05" height="0.05" />
    <rect id="mn-1096" x="-6.615" y="7.963" width="0.05" height="0.05" transform="rotate(270,-6.59,7.988)" />
    <rect id="mn-1097" x="-6.615" y="7.963" width="0.05" height="0.05" transform="rotate(120,-6.59,7.988)" />
    <rect id="mn-1098" x="-6.615" y="5.779" width="0.05" height="0.05" transform="rotate(270,-6.59,5.804)" />
    <rect id="mn-1099" x="-6.615" y="8.116" width="0.05" height="0.05" transform="rotate(180,-6.59,8.141)" />
    <rect id="mn-1100" x="-6.615" y="5.779" width="0.05" height="0.05" transform="rotate(270,-6.59,5.804)" />
    <rect id="mn-1101" x="-6.615" y="7.633" width="0.05" height="0.05" transform="rotate(90,-6.59,7.658)" />
    <rect id="mn-1102" x="-6.615" y="7.963" width="0.05" height="0.05" transform="rotate(120,-6.59,7.988)" />
    <rect id="mn-1103" x="-6.615" y="7.963" width="0.05" height="0.05" transform="rotate(120,-6.59,7.988)" />
    <rect id="mn-1104" x="-4.286" y="7.128" width="0.05" height="0.05" transform="rotate(180,-4.261,7.153)" />
    <rect id="mn-3921" x="-28.669" y="-1.407" width="0.05" height="0.05" transform="rotate(270,-28.644,-1.382)" />
    <rect id="mn-3922" x="-28.669" y="2.156" width="0.05" height="0.05" transform="rotate(180,-28.644,2.181)" />
    <rect id="mn-3923" x="-17.087" y="2.156" width="0.05" height="0.05" />
    <rect id="mn-3924" x="-21.957" y="-1.451" width="0.05" height="0.05" transform="rotate(270,-21.932,-1.426)" />
    <rect id="mn-3925" x="-21.957" y="2.055" width="0.05" height="0.05" transform="rotate(180,-21.932,2.08)" />
    <rect id="mn-3926" x="-15.375" y="-1.435" width="0.05" height="0.05" transform="rotate(270,-15.35,-1.41)" />
    <rect id="mn-3927" x="-15.375" y="2.055" width="0.05" height="0.05" transform="rotate(90,-15.35,2.08)" />
    <rect id="mn-3928" x="-16.884" y="2.055" width="0.05" height="0.05" transform="rotate(270,-16.859,2.08)" />
    <rect id="mn-3929" x="-16.985" y="2.055" width="0.05" height="0.05" />
    <rect id="mn-3930" x="-8.815" y="-1.41" width="0.05" height="0.05" transform="rotate(270,-8.79,-1.385)" />
    <rect id="mn-3931" x="-8.815" y="2.184" width="0.05" height="0.05" transform="rotate(90,-8.79,2.209)" />
    <rect id="mn-3932" x="-16.782" y="2.184" width="0.05" height="0.05" transform="rotate(270,-16.757,2.209)" />
    <rect id="mn-3933" x="16.988" y="-0.801" width="0.05" height="0.05" transform="rotate(270,17.013,-0.776)" />
    <rect id="mn-3934" x="11.092" y="-1.257" width="0.05" height="0.05" transform="rotate(270,11.117,-1.232)" />
    <rect id="mn-3935" x="6.101" y="-0.322" width="0.05" height="0.05" transform="rotate(270,6.126,-0.297)" />
    <rect id="mn-3936" x="-16.68" y="2.286" width="0.05" height="0.05" transform="rotate(270,-16.655,2.311)" />
    <rect id="mn-3937" x="6.101" y="2.286" width="0.05" height="0.05" transform="rotate(90,6.126,2.311)" />
    <rect id="mn-3938" x="-16.579" y="2.387" width="0.05" height="0.05" transform="rotate(270,-16.554,2.412)" />
    <rect id="mn-3939" x="11.092" y="2.387" width="0.05" height="0.05" transform="rotate(90,11.117,2.412)" />
    <rect id="mn-3940" x="-16.477" y="2.489" width="0.05" height="0.05" transform="rotate(270,-16.452,2.514)" />
    <rect id="mn-3941" x="16.988" y="2.489" width="0.05" height="0.05" transform="rotate(90,17.013,2.514)" />
    <rect id="mn-3942" x="-17.087" y="10.328" width="0.05" height="0.05" transform="rotate(180,-17.062,10.353)" />
    <rect id="mn-3943" x="-16.985" y="9.522" width="0.05" height="0.05" transform="rotate(180,-16.96,9.547)" />
    <rect id="mn-3944" x="-16.884" y="7.693" width="0.05" height="0.05" transform="rotate(180,-16.859,7.718)" />
    <rect id="mn-3945" x="-16.782" y="7.571" width="0.05" height="0.05" transform="rotate(180,-16.757,7.596)" />
    <rect id="mn-3946" x="-16.477" y="6.325" width="0.05" height="0.05" transform="rotate(180,-16.452,6.35)" />
    <rect id="mn-3947" x="-16.579" y="6.427" width="0.05" height="0.05" transform="rotate(180,-16.554,6.452)" />
    <rect id="mn-3948" x="-16.68" y="6.528" width="0.05" height="0.05" transform="rotate(180,-16.655,6.553)" />
    <rect id="mn-3949" x="-21.957" y="1.457" width="0.05" height="0.05" transform="rotate(240,-21.932,1.482)" />
    <rect id="mn-3950" x="-21.957" y="0.017" width="0.05" height="0.05" transform="rotate(120,-21.932,0.042)" />
    <rect id="mn-3951" x="-28.669" y="0.017" width="0.05" height="0.05" transform="rotate(120,-28.644,0.042)" />
    <rect id="mn-3952" x="-28.669" y="1.457" width="0.05" height="0.05" transform="rotate(240,-28.644,1.482)" />
    <rect id="mn-3953" x="-15.375" y="0.017" width="0.05" height="0.05" transform="rotate(120,-15.35,0.042)" />
    <rect id="mn-3954" x="-15.375" y="1.457" width="0.05" height="0.05" transform="rotate(240,-15.35,1.482)" />
    <rect id="mn-3955" x="-21.957" y="0.929" width="0.05" height="0.05" transform="rotate(221.41,-21.932,0.954)" />
    <rect id="mn-3956" x="-21.957" y="0.545" width="0.05" height="0.05" transform="rotate(104.478,-21.932,0.57)" />
    <rect id="mn-3957" x="-28.669" y="0.929" width="0.05" height="0.05" transform="rotate(221.41,-28.644,0.954)" />
    <rect id="mn-3958" x="-28.669" y="0.545" width="0.05" height="0.05" transform="rotate(104.478,-28.644,0.57)" />
    <rect id="mn-3959" x="-15.375" y="0.929" width="0.05" height="0.05" transform="rotate(221.41,-15.35,0.954)" />
    <rect id="mn-3960" x="-15.375" y="0.545" width="0.05" height="0.05" transform="rotate(104.478,-15.35,0.57)" />
    <rect id="mn-3961" x="-7.569" y="8.3" width="0.05" height="0.05" transform="rotate(180,-7.544,8.325)" />
  </g>
</svg>