<?xml version="1.0" encoding="utf-8"?>
<svg xmlns="http://www.w3.org/2000/svg" viewBox="-7.142 -8.555 21.517 3.330">
  <g transform="scale(1,-1)">
    <path id="pi-67" d="M -4.861,6.334 L -4.861,6.334" />
    <path id="pi-68" d="M -4.353,8.068 L -4.324,8.068" />
    <path id="pi-69" d="M -4.185,7.864 L -4.209,7.864" />
    <path id="pi-70" d="M -6.728,8.141 L -6.728,8.141" />
    <path id="pi-71" d="M -6.714,8.141 L -6.604,8.141" />
    <path id="pi-72" d="M -6.59,8.141 L -6.59,8.141" />
    <path id="pi-73" d="M -6.59,8.126 L -6.59,5.818" />
    <path id="pi-74" d="M -6.575,5.804 L -4.305,5.804" />
    <path id="pi-75" d="M -4.291,5.804 L -4.291,5.804" />
    <path id="pi-76" d="M -4.291,5.818 L -4.291,7.738" />
    <path id="pi-77" d="M -4.291,7.759 L -4.291,7.759" />
    <path id="pi-78" d="M -4.283,7.77 L -4.221,7.858" />
    <path id="pi-79" d="M -4.291,7.779 L -4.291,8.026" />
    <path id="pi-80" d="M -4.314,8.063 L -4.301,8.051" />
    <path id="pi-81" d="M -4.291,8.041 L -4.291,8.041" />
    <path id="pi-82" d="M -4.353,7.966 L -4.339,7.966" />
    <path id="pi-83" d="M -4.261,7.966 L -4.261,7.966" />
    <path id="pi-84" d="M -4.207,7.966 L -4.185,7.966" />
    <path id="pi-85" d="M -4.718,6.334 L -4.404,6.334" />
    <path id="pi-86" d="M 13.961,5.646 L 13.961,5.646" />
    <path id="pi-87" d="M 13.894,5.645 L 13.282,5.639" />
    <path id="pi-88" d="M -4.261,7.844 L -4.261,7.174" />
    <path id="pi-89" d="M -4.261,6.558 L -4.261,7.139" />
    <path id="pi-90" d="M -4.261,7.153 L -4.261,7.153" />
    <path id="pi-91" d="M -6.728,7.988 L -6.728,7.988" />
    <path id="pi-92" d="M -6.714,7.988 L -6.604,7.988" />
    <path id="pi-93" d="M -6.59,7.988 L -6.59,7.988" />
    <path id="pi-94" d="M -6.59,7.974 L -6.59,5.818" />
    <path id="pi-95" d="M -6.575,5.804 L -4.275,5.804" />
    <path id="pi-96" d="M -4.261,5.804 L -4.261,5.804" />
    <path id="pi-97" d="M -4.261,5.818 L -4.261,7.133" />
    <path id="pi-98" d="M -4.185,8.068 L -4.247,8.068" />
    <path id="pi-99" d="M -4.261,8.068 L -4.261,8.068" />
    <path id="pi-100" d="M -4.261,8.053 L -4.261,7.885" />
    <path id="pi-101" d="M -4.353,7.864 L -4.275,7.864" />
    <path id="pi-102" d="M -4.261,7.864 L -4.261,7.864" />
    <path id="pi-103" d="M -4.353,6.537 L -4.281,6.537" />
    <path id="pi-104" d="M -4.185,6.131 L -4.247,6.131" />
    <path id="pi-105" d="M -4.261,6.145 L -4.261,6.517" />
    <path id="pi-106" d="M -6.711,7.658 L -6.711,7.658" />
    <path id="pi-107" d="M -6.711,7.658 L -6.711,7.658" />
    <path id="pi-108" d="M -6.691,7.658 L -6.61,7.658" />
    <path id="pi-109" d="M -6.61,7.658 L -6.691,7.658" />
    <path id="pi-110" d="M -6.59,7.961 L -6.59,7.679" />
    <path id="pi-111" d="M -6.59,7.988 L -6.59,7.988" />
  </g>
</svg>