<?xml version="1.0" encoding="utf-8"?>
<svg xmlns="http://www.w3.org/2000/svg" viewBox="-34.830 -13.814 56.633 17.256">
  <g transform="scale(1,-1)">
    <polygon id="ro-1" points="-15.164,12.725 -15.215,12.725 -30.315,12.725 -30.366,12.725 -30.366,12.71 -30.366,10.589 -30.366,10.452 -27.572,10.452 -27.572,7.684 -30.366,7.684 -30.366,5.702 -33.665,5.702 -33.741,5.702 -33.741,5.652 -33.741,0.254 -32.447,0.254 -28.22,-1.672 -27.082,0.824 -21.628,-1.662 -20.49,0.834 -15.035,-1.651 -13.898,0.845 -8.443,-1.641 -7.875,-0.394 -7.54,-0.394 -6.344,-0.394 -6.207,-0.394 -6.207,1.549 1.127,1.549 1.127,-0.394 2.233,-0.394 2.902,1.074 6.462,-0.548 6.967,0.561 11.59,-1.545 11.91,-0.842 12.37,-0.842 12.421,-0.842 12.421,0.876 15.583,0.876 15.583,-0.838 15.634,-0.838 16.935,-0.838 20.26,-2.353 20.714,-1.357 18.86,12.725 -11.951,12.725 -12.002,12.725 -12.002,12.71 -12.002,5.702 -15.164,5.702 -15.164,5.826 -15.164,10.766 -15.164,11.027 -15.164,12.71" />
    <polygon id="ro-2" points="-9.693,9.792 -8.474,8.573 -8.299,8.573 -1.854,8.572 0.94,8.572 2.845,8.572 2.845,9.792" />
    <polygon id="ro-3" points="-18.736,4.483 -11.951,4.483 -11.951,5.652 -12.002,5.652 -15.164,5.652 -17.516,5.652 -17.602,5.569" />
    <polygon id="ro-4" points="-29.096,6.414 -27.521,6.414 -27.521,7.547 -27.521,7.633 -30.229,7.633 -30.315,7.633" />
    <polygon id="ro-5" points="19.221,9.792 15.57,6.985 19.975,4.061" />
    <polygon id="ro-6" points="15.634,0.927 15.634,2.146 12.37,2.146 12.37,0.927" />
  </g>
</svg>