<?xml version="1.0" encoding="utf-8"?>
<svg xmlns="http://www.w3.org/2000/svg" viewBox="-34.474 -32.429 65.342 34.606">
  <g transform="scale(1,-1)">
    <polygon id="sl-10" points="-33.217,7.83 -33.217,6.013 -30.677,6.013 -30.677,6.16 -30.677,7.176 -30.677,7.83" />
    <polygon id="sl-11" points="15.272,-0.667 15.272,0.565 13.894,0.565 12.878,0.565 12.732,0.565 12.732,-0.921 13.849,-0.921 13.849,-0.667" />
    <polygon id="sl-12" points="-14.853,7.836 -14.853,6.013 -13.475,6.013 -12.459,6.013 -12.313,6.013 -12.313,7.836 -13.437,7.836" />
    <polygon id="sl-13" points="-6.02,0.368 -3.226,0.755 -3.226,1.366 -6.02,0.994" />
    <polygon id="sl-14" points="-3.226,1.365 -3.226,1.975 -6.02,1.603 -6.02,0.978" />
    <polygon id="sl-15" points="0.94,0.368 0.94,0.994 -6.02,0.994 -6.02,0.368" />
    <polygon id="sl-16" points="0.94,0.978 0.94,1.603 -6.02,1.603 -6.02,0.978" />
    <polygon id="sl-17" points="29.612,31.172 28.088,31.172 28.088,29.648 29.612,29.648" />
    <polygon id="sl-18" points="29.612,28.733 28.088,28.733 28.088,27.209 29.612,27.209" />
    <polygon id="sl-19" points="29.612,26.295 28.088,26.295 28.088,24.771 29.612,24.771" />
    <polygon id="sl-20" points="29.612,23.857 28.088,23.857 28.088,22.333 29.612,22.333" />
    <polygon id="sl-21" points="29.612,21.418 28.088,21.418 28.088,19.894 29.612,19.894" />
    <polygon id="sl-22" points="29.612,18.98 28.088,18.98 28.088,17.456 29.612,17.456" />
  </g>
</svg>