<?xml version="1.0" encoding="utf-8"?>
<svg xmlns="http://www.w3.org/2000/svg" viewBox="-34.901 -13.959 56.892 17.756">
  <g transform="scale(1,-1)">
    <polygon id="ss-15" points="-27.661,12.814 -30.366,12.814 -30.366,10.452 -27.572,10.452 -27.572,7.684 -30.366,7.684 -30.366,5.702 -33.807,5.702 -33.807,0.102 -32.295,0.102 -32.559,-0.477 -28.375,-2.384 -26.977,0.685 -25.707,0.106 -26.002,-0.541 -21.818,-2.447 -20.388,0.691 -19.118,0.113 -19.378,-0.458 -15.203,-2.36 -13.808,0.701 -12.504,0.107 -12.768,-0.471 -8.584,-2.378 -7.778,-0.61 -6.045,-0.61 -6.045,1.549 0.965,1.549 0.965,-0.66 2.333,-0.66 2.778,0.316 6.383,-1.327 7.289,0.661 8.365,0.171 8.102,-0.407 11.661,-2.029 12.421,-0.363 12.421,0.876 15.583,0.876 15.583,-0.61 16.479,-0.61 16.36,-0.869 20.384,-2.703 20.897,-1.578 20.589,0.762 19.919,5.855 18.996,12.865 12.573,12.865 7.29,12.865 1.143,12.865 -6.172,12.865 -12.001,12.865 -12.001,5.702 -15.164,5.702 -15.164,12.814 -21.336,12.814" />
  </g>
</svg>