<?xml version="1.0" encoding="utf-8"?>
<svg xmlns="http://www.w3.org/2000/svg" viewBox="-34.413 -13.370 54.069 14.641">
  <g transform="scale(1,-1)">
    <rect id="tm-175" x="12.474" y="0.863" width="0.3" height="0.3" transform="rotate(180,12.624,1.013)" />
    <rect id="tm-176" x="-33.373" y="6.518" width="0.3" height="0.3" transform="rotate(240,-33.223,6.668)" />
    <rect id="tm-177" x="-30.821" y="6.518" width="0.3" height="0.3" transform="rotate(240,-30.671,6.668)" />
    <rect id="tm-178" x="-1.388" y="5.467" width="0.3" height="0.3" transform="rotate(90,-1.238,5.617)" />
    <rect id="tm-179" x="-8.71" y="5.695" width="0.3" height="0.3" transform="rotate(240,-8.56,5.845)" />
    <rect id="tm-180" x="-8.71" y="8.28" width="0.3" height="0.3" transform="rotate(240,-8.56,8.43)" />
    <rect id="tm-181" x="-7.23" y="8.508" width="0.3" height="0.3" transform="rotate(180,-7.08,8.658)" />
    <rect id="tm-182" x="-3.709" y="8.508" width="0.3" height="0.3" transform="rotate(180,-3.559,8.658)" />
    <rect id="tm-183" x="1.168" y="8.508" width="0.3" height="0.3" transform="rotate(180,1.318,8.658)" />
    <rect id="tm-184" x="-14.133" y="5.416" width="0.3" height="0.3" transform="rotate(90,-13.983,5.566)" />
    <rect id="tm-185" x="-17.752" y="5.644" width="0.3" height="0.3" transform="rotate(240,-17.602,5.794)" />
    <rect id="tm-186" x="-17.752" y="10.648" width="0.3" height="0.3" transform="rotate(240,-17.602,10.798)" />
    <rect id="tm-187" x="-28.331" y="7.397" width="0.3" height="0.3" transform="rotate(90,-28.181,7.547)" />
    <rect id="tm-188" x="-30.379" y="5.771" width="0.3" height="0.3" transform="rotate(120,-30.229,5.921)" />
    <rect id="tm-962" x="-6.929" y="8.508" width="0.3" height="0.3" transform="rotate(180,-6.779,8.658)" />
    <rect id="tm-1932" x="12.474" y="0.863" width="0.3" height="0.3" transform="rotate(180,12.624,1.013)" />
    <rect id="tm-1933" x="-33.373" y="6.518" width="0.3" height="0.3" transform="rotate(240,-33.223,6.668)" />
    <rect id="tm-1934" x="-30.821" y="6.518" width="0.3" height="0.3" transform="rotate(240,-30.671,6.668)" />
    <rect id="tm-1935" x="-1.388" y="5.467" width="0.3" height="0.3" transform="rotate(90,-1.238,5.617)" />
    <rect id="tm-1936" x="-8.71" y="5.695" width="0.3" height="0.3" transform="rotate(240,-8.56,5.845)" />
    <rect id="tm-1937" x="-8.71" y="8.28" width="0.3" height="0.3" transform="rotate(240,-8.56,8.43)" />
    <rect id="tm-1938" x="-7.23" y="8.508" width="0.3" height="0.3" transform="rotate(180,-7.08,8.658)" />
    <rect id="tm-1939" x="-3.709" y="8.508" width="0.3" height="0.3" transform="rotate(180,-3.559,8.658)" />
    <rect id="tm-1940" x="1.168" y="8.508" width="0.3" height="0.3" transform="rotate(180,1.318,8.658)" />
    <rect id="tm-1941" x="-14.133" y="5.416" width="0.3" height="0.3" transform="rotate(90,-13.983,5.566)" />
    <rect id="tm-1942" x="-17.752" y="5.644" width="0.3" height="0.3" transform="rotate(240,-17.602,5.794)" />
    <rect id="tm-1943" x="-17.752" y="10.648" width="0.3" height="0.3" transform="rotate(240,-17.602,10.798)" />
    <rect id="tm-1944" x="-28.331" y="7.397" width="0.3" height="0.3" transform="rotate(90,-28.181,7.547)" />
    <rect id="tm-1945" x="-30.379" y="5.771" width="0.3" height="0.3" transform="rotate(120,-30.229,5.921)" />
    <rect id="tm-1946" x="-22.877" y="4.638" width="0.3" height="0.3" />
    <rect id="tm-1947" x="-20.475" y="12.03" width="0.3" height="0.3" />
    <rect id="tm-1948" x="-25.301" y="12.03" width="0.3" height="0.3" />
    <rect id="tm-1949" x="-27.492" y="1.939" width="0.3" height="0.3" transform="rotate(65.501,-27.342,2.089)" />
    <rect id="tm-1950" x="-20.876" y="1.939" width="0.3" height="0.3" transform="rotate(65.501,-20.726,2.089)" />
    <rect id="tm-1951" x="-14.261" y="1.939" width="0.3" height="0.3" transform="rotate(65.501,-14.111,2.089)" />
    <rect id="tm-1952" x="4.378" y="2.011" width="0.3" height="0.3" />
    <rect id="tm-1953" x="6.08" y="2.011" width="0.3" height="0.3" />
    <rect id="tm-1954" x="13.82" y="5.095" width="0.3" height="0.3" />
    <rect id="tm-1955" x="18.316" y="5.095" width="0.3" height="0.3" />
    <rect id="tm-1956" x="-4.503" y="7.381" width="0.3" height="0.3" transform="rotate(240,-4.353,7.531)" />
    <rect id="tm-1957" x="-4.319" y="7.381" width="0.3" height="0.3" transform="rotate(120,-4.169,7.531)" />
    <rect id="tm-1958" x="2.52" y="4.909" width="0.3" height="0.3" transform="rotate(240,2.67,5.059)" />
    <rect id="tm-1959" x="-6.802" y="7.381" width="0.3" height="0.3" transform="rotate(240,-6.652,7.531)" />
    <rect id="tm-1960" x="-16.838" y="10.616" width="0.3" height="0.3" transform="rotate(90,-16.688,10.766)" />
    <rect id="tm-1961" x="-16.838" y="5.705" width="0.3" height="0.3" transform="rotate(180,-16.688,5.855)" />
    <rect id="tm-1962" x="-27.662" y="-0.231" width="0.3" height="0.3" transform="rotate(224.981,-27.512,-0.081)" />
    <rect id="tm-1963" x="-21.053" y="-0.183" width="0.3" height="0.3" transform="rotate(224.981,-20.903,-0.033)" />
    <rect id="tm-1964" x="-14.468" y="-0.188" width="0.3" height="0.3" transform="rotate(224.981,-14.318,-0.038)" />
  </g>
</svg>