<?xml version="1.0" encoding="utf-8"?>
<svg xmlns="http://www.w3.org/2000/svg" viewBox="-35.053 -14.471 55.515 16.605">
  <g transform="scale(1,-1)">
    <path id="w-62" d="M -1.727,5.747 L -8.43,5.747" />
    <path id="w-63" d="M -8.43,5.747 L -8.43,8.528" />
    <path id="w-64" d="M -8.43,8.528 L -1.727,8.528" />
    <path id="w-74" d="M -4.261,5.747 L -4.261,8.528" />
    <path id="w-75" d="M -6.59,5.747 L -6.59,8.528" />
    <path id="w-76" d="M -15.011,5.696 L -17.472,5.696" />
    <path id="w-77" d="M -17.472,5.696 L -17.472,10.897" />
    <path id="w-78" d="M -17.472,10.897 L -15.011,10.897" />
    <path id="w-93" d="M 1.102,5.88 L 1.102,4.105" />
    <path id="w-94" d="M 1.067,8.528 L 2.8,8.528" />
    <path id="w-193" d="M 2.8,4.105 L 2.8,8.528" />
    <path id="w-194" d="M 1.102,4.105 L 2.8,4.105" />
    <path id="w-195" d="M 1.067,6.159 L 2.8,6.159" />
    <path id="w-196" d="M 1.067,7.15 L 2.8,7.15" />
    <path id="w-197" d="M 1.218,5.753 L 1.218,6.159" />
    <path id="w-228" d="M -1.894,5.685 L -1.894,8.528" />
    <path id="w-241" d="M -15.232,10.897 L -15.232,13.403" />
    <path id="w-242" d="M -11.933,5.634 L -11.933,13.403" />
    <path id="w-243" d="M -11.933,5.634 L -15.203,5.634" />
    <path id="w-244" d="M -33.985,5.634 L -30.297,5.634" />
    <path id="w-245" d="M -30.297,5.634 L -30.297,7.615" />
    <path id="w-246" d="M -30.297,7.615 L -27.503,7.615" />
    <path id="w-247" d="M -27.503,7.615 L -27.503,10.582" />
    <path id="w-248" d="M -27.503,10.52 L -30.297,10.52" />
    <path id="w-249" d="M -30.297,13.03 L -30.297,10.52" />
    <path id="w-250" d="M -1.854,8.59 L 1.067,8.59" />
    <path id="w-251" d="M -1.894,5.685 L 1.102,5.685" />
    <path id="w-252" d="M 12.352,0.945 L 15.651,0.945" />
    <path id="w-253" d="M 15.651,0.945 L 15.651,-1.067" />
    <path id="w-254" d="M 12.352,-0.838 L 12.352,0.945" />
    <path id="w-333" d="M -33.825,0.762 L -15.094,0.762" />
    <path id="w-334" d="M -11.962,12.621 L -6.477,12.621" />
    <path id="w-339" d="M -13.954,0.762 L -6.477,0.762" />
    <path id="w-340" d="M -11.962,5.855 L -6.477,5.855" />
    <path id="w-341" d="M -5.867,5.855 L -1.894,5.855" />
    <path id="w-342" d="M 1.091,0.756 L 12.573,0.756" />
    <path id="w-343" d="M 1.218,5.849 L 7.071,5.849" />
    <path id="w-344" d="M 1.397,12.646 L 6.985,12.646" />
    <path id="w-345" d="M 7.512,5.849 L 12.573,5.849" />
    <path id="w-346" d="M 12.827,5.849 L 19.395,5.849" />
    <path id="w-347" d="M 7.595,12.646 L 12.268,12.646" />
    <path id="w-348" d="M -5.867,12.646 L 0.787,12.646" />
    <path id="w-349" d="M 12.878,12.646 L 18.502,12.646" />
    <path id="w-350" d="M -32.297,0.203 L -32.042,0.762" />
    <path id="w-351" d="M -25.705,0.213 L -25.455,0.762" />
    <path id="w-352" d="M -19.113,0.224 L -18.868,0.762" />
    <path id="w-353" d="M -30.282,12.631 L -27.924,12.631" />
    <path id="w-354" d="M -30.326,5.855 L -15.203,5.855" />
    <path id="w-355" d="M -27.368,12.631 L -21.641,12.631" />
    <path id="w-356" d="M -21.031,12.631 L -15.203,12.631" />
    <path id="w-357" d="M 15.662,0.756 L 19.334,0.756" />
  </g>
</svg>