<?xml version="1.0" encoding="utf-8"?>
<svg xmlns="http://www.w3.org/2000/svg" viewBox="-35.095 -14.445 57.541 61.213">
  <g transform="scale(1,-1)">
    <rect id="sc-14" x="12.388" y="12.454" width="0.371" height="0.363" fill="black" transform="rotate(180,12.573,12.636)" />
    <rect id="sc-15" x="18.66" y="12.454" width="0.371" height="0.363" fill="black" transform="rotate(90,18.846,12.636)" />
    <rect id="sc-20" x="12.446" y="5.728" width="0.254" height="0.254" fill="black" transform="rotate(90,12.573,5.855)" />
    <rect id="sc-21" x="19.554" y="5.674" width="0.371" height="0.363" fill="black" transform="rotate(90,19.739,5.855)" />
    <rect id="sc-27" x="20.224" y="0.58" width="0.371" height="0.363" fill="black" transform="rotate(90,20.41,0.762)" />
    <rect id="sc-33" x="12.388" y="-8.576" width="0.371" height="0.363" fill="black" transform="rotate(180,12.573,-8.395)" />
    <rect id="sc-34" x="21.357" y="-8.03" width="0.371" height="0.363" fill="black" transform="rotate(97.5,21.543,-7.849)" />
    <rect id="sc-36" x="20.834" y="-4.056" width="0.371" height="0.363" fill="black" transform="rotate(90,21.02,-3.874)" />
    <rect id="sc-37" x="9.065" y="2.711" width="12.832" height="0" fill="black" transform="rotate(90,15.481,2.711)" />
  </g>
</svg>