<?xml version="1.0" encoding="utf-8"?>
<svg xmlns="http://www.w3.org/2000/svg" viewBox="11.923 -13.286 10.27 22.331">
  <g transform="scale(1,-1)">
    <rect id="sc-14" x="12.423" y="12.486" width="0.3" height="0.3" fill="black" transform="rotate(180,12.573,12.636)" />
    <rect id="sc-15" x="18.696" y="12.486" width="0.3" height="0.3" fill="black" transform="rotate(90,18.846,12.636)" />
    <rect id="sc-20" x="12.423" y="5.705" width="0.3" height="0.3" fill="black" transform="rotate(90,12.573,5.855)" />
    <rect id="sc-21" x="19.589" y="5.705" width="0.3" height="0.3" fill="black" transform="rotate(90,19.739,5.855)" />
    <rect id="sc-27" x="20.26" y="0.612" width="0.3" height="0.3" fill="black" transform="rotate(90,20.41,0.762)" />
    <rect id="sc-33" x="12.423" y="-8.545" width="0.3" height="0.3" fill="black" transform="rotate(180,12.573,-8.395)" />
    <rect id="sc-34" x="21.393" y="-7.999" width="0.3" height="0.3" fill="black" transform="rotate(97.5,21.543,-7.849)" />
    <rect id="sc-36" x="20.87" y="-4.024" width="0.3" height="0.3" fill="black" transform="rotate(90,21.02,-3.874)" />
    <rect id="sc-37" x="15.331" y="2.561" width="0.3" height="0.3" fill="black" transform="rotate(90,15.481,2.711)" />
  </g>
</svg>