<?xml version="1.0" encoding="utf-8"?>
<svg xmlns="http://www.w3.org/2000/svg" viewBox="-34.333 -13.683 50.264 60.451">
  <g transform="scale(1,-1)">
    <line id="sw-12" x1="-30.518" y1="13.183" x2="-33.833" y2="13.183" stroke="black" stroke-width="0.305" stroke-linecap="square" />
    <line id="sw-13" x1="-33.833" y1="13.183" x2="-33.833" y2="5.855" stroke="black" stroke-width="0.305" stroke-linecap="square" />
    <line id="sw-14" x1="-12.154" y1="5.855" x2="-12.154" y2="13.183" stroke="black" stroke-width="0.305" stroke-linecap="square" />
    <line id="sw-15" x1="-12.154" y1="13.183" x2="-15.011" y2="13.183" stroke="black" stroke-width="0.305" stroke-linecap="square" />
    <line id="sw-16" x1="-15.011" y1="13.183" x2="-15.011" y2="5.855" stroke="black" stroke-width="0.305" stroke-linecap="square" />
    <line id="sw-23" x1="15.431" y1="-6.134" x2="12.573" y2="-6.134" stroke="black" stroke-width="0.305" stroke-linecap="square" />
    <line id="sw-24" x1="15.431" y1="0.724" x2="12.573" y2="0.724" stroke="black" stroke-width="0.305" stroke-linecap="square" />
    <line id="sw-25" x1="15.431" y1="-6.134" x2="15.431" y2="0.724" stroke="black" stroke-width="0.305" stroke-linecap="square" />
    <line id="sw-26" x1="12.573" y1="0.724" x2="12.573" y2="-6.134" stroke="black" stroke-width="0.305" stroke-linecap="square" />
    <line id="sw-51" x1="-14.768" y1="-46.268" x2="-18.199" y2="-46.268" stroke="black" stroke-width="0.457" stroke-linecap="square" />
    <line id="sw-54" x1="-27.724" y1="-21.505" x2="-27.724" y2="-36.743" stroke="black" stroke-width="0.457" stroke-linecap="square" />
    <line id="sw-55" x1="-19.647" y1="-21.74" x2="-19.647" y2="-34.305" stroke="black" stroke-width="0.457" stroke-linecap="square" />
    <line id="sw-56" x1="-27.724" y1="-21.505" x2="-19.647" y2="-21.74" stroke="black" stroke-width="0.61" stroke-linecap="square" />
    <line id="sw-57" x1="-27.724" y1="-8.611" x2="-27.724" y2="-21.505" stroke="black" stroke-width="0.457" stroke-linecap="square" />
    <line id="sw-58" x1="-19.647" y1="-8.611" x2="-19.647" y2="-21.74" stroke="black" stroke-width="0.457" stroke-linecap="square" />
  </g>
</svg>