<?xml version="1.0" encoding="utf-8"?>
<svg xmlns="http://www.w3.org/2000/svg" viewBox="-30.829 -13.68 52.812 25.292">
  <g transform="scale(1,-1)">
    <line id="pi-2862" x1="18.421" y1="12.238" x2="18.421" y2="12.238" stroke="black" stroke-width="0.1" stroke-linecap="square" />
    <line id="pi-2880" x1="18.446" y1="12.238" x2="18.676" y2="12.238" stroke="black" stroke-width="0.1" stroke-linecap="square" />
    <line id="pi-2881" x1="12.038" y1="10.347" x2="12.34" y2="12.127" stroke="black" stroke-width="0.1" stroke-linecap="square" />
    <line id="pi-2883" x1="12.024" y1="10.265" x2="12.024" y2="10.265" stroke="black" stroke-width="0.1" stroke-linecap="square" />
    <line id="pi-2884" x1="0.756" y1="12.176" x2="-0.522" y2="11.452" stroke="black" stroke-width="0.1" stroke-linecap="square" />
    <line id="pi-2885" x1="-0.595" y1="11.411" x2="-0.595" y2="11.411" stroke="black" stroke-width="0.1" stroke-linecap="square" />
    <line id="pi-2886" x1="-11.782" y1="12.217" x2="-11.782" y2="12.217" stroke="black" stroke-width="0.1" stroke-linecap="square" />
    <line id="pi-2887" x1="0.829" y1="10.777" x2="0.829" y2="12.134" stroke="black" stroke-width="0.1" stroke-linecap="square" />
    <line id="pi-2888" x1="0.829" y1="10.693" x2="0.829" y2="10.693" stroke="black" stroke-width="0.1" stroke-linecap="square" />
    <line id="pi-2889" x1="0.829" y1="12.217" x2="0.829" y2="12.217" stroke="black" stroke-width="0.1" stroke-linecap="square" />
    <line id="pi-2890" x1="0.804" y1="10.693" x2="0.66" y2="10.693" stroke="black" stroke-width="0.1" stroke-linecap="square" />
    <line id="pi-2891" x1="0.635" y1="10.693" x2="0.635" y2="10.693" stroke="black" stroke-width="0.1" stroke-linecap="square" />
    <line id="pi-2892" x1="-11.777" y1="12.217" x2="-11.732" y2="12.217" stroke="black" stroke-width="0.1" stroke-linecap="square" />
    <line id="pi-2893" x1="-11.727" y1="12.217" x2="-11.727" y2="12.217" stroke="black" stroke-width="0.1" stroke-linecap="square" />
    <line id="pi-2894" x1="-6.946" y1="11.423" x2="-11.7" y2="12.203" stroke="black" stroke-width="0.1" stroke-linecap="square" />
    <line id="pi-2895" x1="-6.864" y1="11.41" x2="-6.864" y2="11.41" stroke="black" stroke-width="0.1" stroke-linecap="square" />
    <line id="pi-2898" x1="0.635" y1="10.778" x2="0.635" y2="11.724" stroke="black" stroke-width="0.1" stroke-linecap="square" />
    <line id="pi-2899" x1="-27.476" y1="12.195" x2="-27.476" y2="11.952" stroke="black" stroke-width="0.1" stroke-linecap="square" />
    <line id="pi-2904" x1="-27.386" y1="11.927" x2="-21.896" y2="11.927" stroke="black" stroke-width="0.1" stroke-linecap="square" />
    <line id="pi-2905" x1="-21.837" y1="11.927" x2="-21.582" y2="11.927" stroke="black" stroke-width="0.1" stroke-linecap="square" />
    <line id="pi-2906" x1="-16.299" y1="11.927" x2="-21.524" y2="11.927" stroke="black" stroke-width="0.1" stroke-linecap="square" />
    <line id="pi-2907" x1="-15.995" y1="11.927" x2="-16.224" y2="11.927" stroke="black" stroke-width="0.1" stroke-linecap="square" />
    <line id="pi-2908" x1="-27.476" y1="11.927" x2="-27.476" y2="11.927" stroke="black" stroke-width="0.1" stroke-linecap="square" />
    <line id="pi-2909" x1="-15.554" y1="11.927" x2="-15.74" y2="11.927" stroke="black" stroke-width="0.1" stroke-linecap="square" />
    <line id="pi-2910" x1="-27.567" y1="11.927" x2="-27.757" y2="11.927" stroke="black" stroke-width="0.1" stroke-linecap="square" />
    <line id="pi-2911" x1="-16.067" y1="11.927" x2="-16.213" y2="11.927" stroke="black" stroke-width="0.1" stroke-linecap="square" />
    <line id="pi-2912" x1="18.394" y1="10.83" x2="18.288" y2="10.816" stroke="black" stroke-width="0.1" stroke-linecap="square" />
    <line id="pi-2913" x1="18.802" y1="9.673" x2="18.802" y2="9.673" stroke="black" stroke-width="0.1" stroke-linecap="square" />
    <line id="pi-2914" x1="18.679" y1="10.611" x2="18.769" y2="9.925" stroke="black" stroke-width="0.1" stroke-linecap="square" />
    <line id="pi-2915" x1="18.546" y1="11.622" x2="18.539" y2="11.676" stroke="black" stroke-width="0.1" stroke-linecap="square" />
    <line id="pi-2916" x1="18.252" y1="11.927" x2="12.322" y2="11.927" stroke="black" stroke-width="0.1" stroke-linecap="square" />
    <line id="pi-2921" x1="18.538" y1="11.602" x2="18.458" y2="12.038" stroke="black" stroke-width="0.1" stroke-linecap="square" />
    <line id="pi-2922" x1="18.575" y1="11.402" x2="18.575" y2="11.402" stroke="black" stroke-width="0.1" stroke-linecap="square" />
    <line id="pi-2923" x1="18.694" y1="9.659" x2="18.536" y2="9.638" stroke="black" stroke-width="0.1" stroke-linecap="square" />
    <line id="pi-2924" x1="18.462" y1="9.372" x2="21.14" y2="-10.975" stroke="black" stroke-width="0.1" stroke-linecap="square" />
    <line id="pi-2925" x1="18.428" y1="9.624" x2="18.428" y2="9.624" stroke="black" stroke-width="0.1" stroke-linecap="square" />
    <line id="pi-2926" x1="18.7" y1="12.238" x2="18.7" y2="12.238" stroke="black" stroke-width="0.1" stroke-linecap="square" />
    <line id="pi-2927" x1="18.503" y1="12.19" x2="16.031" y2="11.584" stroke="black" stroke-width="0.1" stroke-linecap="square" />
    <line id="pi-2928" x1="15.113" y1="6.985" x2="15.113" y2="6.985" stroke="black" stroke-width="0.1" stroke-linecap="square" />
    <line id="pi-2929" x1="15.113" y1="7.188" x2="15.113" y2="10.159" stroke="black" stroke-width="0.1" stroke-linecap="square" />
    <line id="pi-2930" x1="15.178" y1="10.399" x2="15.688" y2="11.284" stroke="black" stroke-width="0.1" stroke-linecap="square" />
    <line id="pi-2931" x1="15.137" y1="11.365" x2="15.137" y2="11.365" stroke="black" stroke-width="0.1" stroke-linecap="square" />
    <line id="pi-2932" x1="15.334" y1="11.413" x2="15.551" y2="11.466" stroke="black" stroke-width="0.1" stroke-linecap="square" />
    <line id="pi-2933" x1="9.581" y1="11.417" x2="9.908" y2="11.417" stroke="black" stroke-width="0.1" stroke-linecap="square" />
    <line id="pi-2934" x1="9.581" y1="7.29" x2="9.873" y2="7.29" stroke="black" stroke-width="0.1" stroke-linecap="square" />
    <line id="pi-2935" x1="10.076" y1="7.493" x2="10.076" y2="11.214" stroke="black" stroke-width="0.1" stroke-linecap="square" />
    <line id="pi-2936" x1="12.354" y1="12.209" x2="12.354" y2="12.209" stroke="black" stroke-width="0.1" stroke-linecap="square" />
    <line id="pi-2937" x1="12.211" y1="12.066" x2="11.653" y2="11.508" stroke="black" stroke-width="0.1" stroke-linecap="square" />
    <line id="pi-2938" x1="11.433" y1="11.417" x2="10.279" y2="11.417" stroke="black" stroke-width="0.1" stroke-linecap="square" />
    <line id="pi-2941" x1="5.044" y1="11.417" x2="5.044" y2="11.417" stroke="black" stroke-width="0.1" stroke-linecap="square" />
    <line id="pi-2942" x1="5.247" y1="11.417" x2="9.208" y2="11.417" stroke="black" stroke-width="0.1" stroke-linecap="square" />
    <line id="pi-2945" x1="18.575" y1="11.402" x2="18.575" y2="11.402" stroke="black" stroke-width="0.1" stroke-linecap="square" />
    <line id="pi-2946" x1="18.617" y1="11.081" x2="18.608" y2="11.151" stroke="black" stroke-width="0.1" stroke-linecap="square" />
    <line id="pi-2952" x1="-27.476" y1="12.219" x2="-27.476" y2="12.219" stroke="black" stroke-width="0.1" stroke-linecap="square" />
    <line id="pi-2953" x1="-27.332" y1="12.076" x2="-27.259" y2="12.002" stroke="black" stroke-width="0.1" stroke-linecap="square" />
    <line id="pi-2954" x1="-27.168" y1="11.783" x2="-27.168" y2="11.62" stroke="black" stroke-width="0.1" stroke-linecap="square" />
    <line id="pi-2955" x1="-28.785" y1="3.47" x2="-28.785" y2="3.47" stroke="black" stroke-width="0.1" stroke-linecap="square" />
    <line id="pi-2956" x1="-28.641" y1="3.614" x2="-27.259" y2="4.996" stroke="black" stroke-width="0.1" stroke-linecap="square" />
    <line id="pi-2957" x1="-27.168" y1="5.215" x2="-27.168" y2="11.249" stroke="black" stroke-width="0.1" stroke-linecap="square" />
    <line id="pi-2958" x1="-28.785" y1="11.417" x2="-28.785" y2="11.417" stroke="black" stroke-width="0.1" stroke-linecap="square" />
    <line id="pi-2959" x1="-28.581" y1="11.417" x2="-27.371" y2="11.417" stroke="black" stroke-width="0.1" stroke-linecap="square" />
    <line id="pi-2964" x1="-23.304" y1="8.607" x2="-23.304" y2="8.607" stroke="black" stroke-width="0.1" stroke-linecap="square" />
    <line id="pi-2965" x1="-23.1" y1="8.607" x2="-20.232" y2="8.607" stroke="black" stroke-width="0.1" stroke-linecap="square" />
    <line id="pi-2966" x1="-20.012" y1="8.698" x2="-19.491" y2="9.219" stroke="black" stroke-width="0.1" stroke-linecap="square" />
  </g>
</svg>