<?xml version="1.0" encoding="utf-8"?>
<svg xmlns="http://www.w3.org/2000/svg" viewBox="-133.85 188.888 22.611 13.501">
  <g transform="scale(1,-1)">
    <rect id="mn-621" x="-111.825" y="-196.758" width="0.05" height="0.05" fill="black" transform="rotate(180,-111.8,-196.733)" />
    <rect id="mn-622" x="-111.825" y="-196.783" width="0.05" height="0.05" fill="black" transform="rotate(270,-111.8,-196.758)" />
    <rect id="mn-623" x="-111.842" y="-199.329" width="0.05" height="0.05" fill="black" transform="rotate(180,-111.817,-199.304)" />
    <rect id="mn-624" x="-111.842" y="-199.224" width="0.05" height="0.05" fill="black" transform="rotate(90,-111.817,-199.199)" />
    <rect id="mn-625" x="-111.842" y="-197.723" width="0.05" height="0.05" fill="black" transform="rotate(120,-111.817,-197.698)" />
    <rect id="mn-626" x="-111.842" y="-197.723" width="0.05" height="0.05" fill="black" transform="rotate(240,-111.817,-197.698)" />
    <rect id="mn-627" x="-111.842" y="-198.536" width="0.05" height="0.05" fill="black" transform="rotate(120,-111.817,-198.511)" />
    <rect id="mn-628" x="-111.842" y="-198.536" width="0.05" height="0.05" fill="black" transform="rotate(240,-111.817,-198.511)" />
    <rect id="mn-629" x="-111.842" y="-198.986" width="0.05" height="0.05" fill="black" transform="rotate(180,-111.817,-198.961)" />
    <rect id="mn-630" x="-113.128" y="-198.986" width="0.05" height="0.05" fill="black" transform="rotate(90,-113.103,-198.961)" />
    <rect id="mn-631" x="-113.128" y="-198.986" width="0.05" height="0.05" fill="black" transform="rotate(240,-113.103,-198.961)" />
    <rect id="mn-632" x="-115.193" y="-198.986" width="0.05" height="0.05" fill="black" transform="rotate(240,-115.168,-198.961)" />
    <rect id="mn-633" x="-115.193" y="-198.986" width="0.05" height="0.05" fill="black" transform="rotate(240,-115.168,-198.961)" />
    <rect id="mn-634" x="-115.193" y="-198.163" width="0.05" height="0.05" fill="black" transform="rotate(120,-115.168,-198.138)" />
    <rect id="mn-635" x="-115.193" y="-198.163" width="0.05" height="0.05" fill="black" transform="rotate(270,-115.168,-198.138)" />
    <rect id="mn-636" x="-115.193" y="-198.163" width="0.05" height="0.05" fill="black" transform="rotate(240,-115.168,-198.138)" />
    <rect id="mn-637" x="-115.193" y="-189.438" width="0.05" height="0.05" fill="black" transform="rotate(180,-115.168,-189.413)" />
    <rect id="mn-638" x="-111.789" y="-189.438" width="0.05" height="0.05" fill="black" transform="rotate(90,-111.764,-189.413)" />
    <rect id="mn-639" x="-111.789" y="-193.73" width="0.05" height="0.05" fill="black" transform="rotate(270,-111.764,-193.705)" />
    <rect id="mn-640" x="-111.789" y="-193.373" width="0.05" height="0.05" fill="black" transform="rotate(240,-111.764,-193.348)" />
    <rect id="mn-641" x="-111.789" y="-193.373" width="0.05" height="0.05" fill="black" transform="rotate(180,-111.764,-193.348)" />
    <rect id="mn-642" x="-111.789" y="-193.373" width="0.05" height="0.05" fill="black" transform="rotate(120,-111.764,-193.348)" />
    <rect id="mn-643" x="-111.789" y="-192.23" width="0.05" height="0.05" fill="black" transform="rotate(240,-111.764,-192.205)" />
    <rect id="mn-644" x="-111.789" y="-192.23" width="0.05" height="0.05" fill="black" transform="rotate(180,-111.764,-192.205)" />
    <rect id="mn-645" x="-111.789" y="-192.23" width="0.05" height="0.05" fill="black" transform="rotate(120,-111.764,-192.205)" />
    <rect id="mn-646" x="-111.789" y="-191.087" width="0.05" height="0.05" fill="black" transform="rotate(240,-111.764,-191.062)" />
    <rect id="mn-647" x="-111.789" y="-191.087" width="0.05" height="0.05" fill="black" transform="rotate(180,-111.764,-191.062)" />
    <rect id="mn-648" x="-111.789" y="-191.087" width="0.05" height="0.05" fill="black" transform="rotate(120,-111.764,-191.062)" />
    <rect id="mn-649" x="-111.789" y="-189.944" width="0.05" height="0.05" fill="black" transform="rotate(240,-111.764,-189.919)" />
    <rect id="mn-650" x="-111.789" y="-189.944" width="0.05" height="0.05" fill="black" transform="rotate(180,-111.764,-189.919)" />
    <rect id="mn-651" x="-111.789" y="-189.944" width="0.05" height="0.05" fill="black" transform="rotate(120,-111.764,-189.919)" />
    <rect id="mn-652" x="-115.193" y="-189.944" width="0.05" height="0.05" fill="black" transform="rotate(120,-115.168,-189.919)" />
    <rect id="mn-653" x="-115.193" y="-189.944" width="0.05" height="0.05" fill="black" transform="rotate(270,-115.168,-189.919)" />
    <rect id="mn-654" x="-115.193" y="-189.944" width="0.05" height="0.05" fill="black" transform="rotate(240,-115.168,-189.919)" />
    <rect id="mn-655" x="-115.193" y="-191.087" width="0.05" height="0.05" fill="black" transform="rotate(120,-115.168,-191.062)" />
    <rect id="mn-656" x="-115.193" y="-191.087" width="0.05" height="0.05" fill="black" transform="rotate(270,-115.168,-191.062)" />
    <rect id="mn-657" x="-115.193" y="-191.087" width="0.05" height="0.05" fill="black" transform="rotate(240,-115.168,-191.062)" />
    <rect id="mn-658" x="-115.193" y="-192.23" width="0.05" height="0.05" fill="black" transform="rotate(120,-115.168,-192.205)" />
    <rect id="mn-659" x="-115.193" y="-192.23" width="0.05" height="0.05" fill="black" transform="rotate(270,-115.168,-192.205)" />
    <rect id="mn-660" x="-115.193" y="-192.23" width="0.05" height="0.05" fill="black" transform="rotate(240,-115.168,-192.205)" />
    <rect id="mn-661" x="-115.193" y="-193.373" width="0.05" height="0.05" fill="black" transform="rotate(120,-115.168,-193.348)" />
    <rect id="mn-662" x="-115.193" y="-193.373" width="0.05" height="0.05" fill="black" transform="rotate(270,-115.168,-193.348)" />
    <rect id="mn-663" x="-115.193" y="-193.373" width="0.05" height="0.05" fill="black" transform="rotate(240,-115.168,-193.348)" />
    <rect id="mn-664" x="-115.193" y="-197.02" width="0.05" height="0.05" fill="black" transform="rotate(120,-115.168,-196.995)" />
    <rect id="mn-665" x="-115.193" y="-197.02" width="0.05" height="0.05" fill="black" transform="rotate(270,-115.168,-196.995)" />
    <rect id="mn-666" x="-115.193" y="-197.02" width="0.05" height="0.05" fill="black" transform="rotate(240,-115.168,-196.995)" />
    <rect id="mn-667" x="-115.193" y="-195.299" width="0.05" height="0.05" fill="black" transform="rotate(90,-115.168,-195.274)" />
    <rect id="mn-668" x="-113.009" y="-195.299" width="0.05" height="0.05" fill="black" />
    <rect id="mn-669" x="-114.688" y="-195.299" width="0.05" height="0.05" fill="black" transform="rotate(120,-114.663,-195.274)" />
    <rect id="mn-670" x="-114.688" y="-195.299" width="0.05" height="0.05" fill="black" transform="rotate(90,-114.663,-195.274)" />
    <rect id="mn-671" x="-114.688" y="-195.299" width="0.05" height="0.05" fill="black" transform="rotate(120,-114.663,-195.274)" />
    <rect id="mn-672" x="-113.85" y="-195.299" width="0.05" height="0.05" fill="black" transform="rotate(90,-113.825,-195.274)" />
    <rect id="mn-673" x="-113.85" y="-195.299" width="0.05" height="0.05" fill="black" transform="rotate(240,-113.825,-195.274)" />
    <rect id="mn-674" x="-113.85" y="-195.299" width="0.05" height="0.05" fill="black" transform="rotate(180,-113.825,-195.274)" />
    <rect id="mn-675" x="-113.088" y="-195.299" width="0.05" height="0.05" fill="black" transform="rotate(90,-113.063,-195.274)" />
    <rect id="mn-676" x="-113.088" y="-195.299" width="0.05" height="0.05" fill="black" transform="rotate(240,-113.063,-195.274)" />
    <rect id="mn-677" x="-113.088" y="-195.299" width="0.05" height="0.05" fill="black" transform="rotate(180,-113.063,-195.274)" />
    <rect id="mn-678" x="-115.193" y="-195.058" width="0.05" height="0.05" fill="black" transform="rotate(90,-115.168,-195.033)" />
    <rect id="mn-679" x="-112.983" y="-195.058" width="0.05" height="0.05" fill="black" />
    <rect id="mn-680" x="-114.891" y="-195.058" width="0.05" height="0.05" fill="black" transform="rotate(240,-114.866,-195.033)" />
    <rect id="mn-681" x="-114.891" y="-195.058" width="0.05" height="0.05" fill="black" transform="rotate(90,-114.866,-195.033)" />
    <rect id="mn-682" x="-114.891" y="-195.058" width="0.05" height="0.05" fill="black" transform="rotate(120,-114.866,-195.033)" />
    <rect id="mn-683" x="-114.053" y="-195.058" width="0.05" height="0.05" fill="black" transform="rotate(90,-114.028,-195.033)" />
    <rect id="mn-684" x="-114.053" y="-195.058" width="0.05" height="0.05" fill="black" transform="rotate(120,-114.028,-195.033)" />
    <rect id="mn-685" x="-114.053" y="-195.058" width="0.05" height="0.05" fill="black" transform="rotate(270,-114.028,-195.033)" />
    <rect id="mn-686" x="-113.291" y="-195.058" width="0.05" height="0.05" fill="black" transform="rotate(90,-113.266,-195.033)" />
    <rect id="mn-687" x="-113.291" y="-195.058" width="0.05" height="0.05" fill="black" transform="rotate(120,-113.266,-195.033)" />
    <rect id="mn-688" x="-113.291" y="-195.058" width="0.05" height="0.05" fill="black" transform="rotate(270,-113.266,-195.033)" />
    <rect id="mn-689" x="-111.989" y="-199.33" width="0.05" height="0.05" fill="black" transform="rotate(180,-111.964,-199.305)" />
    <rect id="mn-690" x="-111.989" y="-199.225" width="0.05" height="0.05" fill="black" transform="rotate(90,-111.964,-199.2)" />
    <rect id="mn-691" x="-111.989" y="-199" width="0.05" height="0.05" fill="black" transform="rotate(90,-111.964,-198.975)" />
    <rect id="mn-692" x="-115.215" y="-199" width="0.05" height="0.05" fill="black" transform="rotate(270,-115.19,-198.975)" />
    <rect id="mn-693" x="-115.215" y="-194.986" width="0.05" height="0.05" fill="black" transform="rotate(180,-115.19,-194.961)" />
    <rect id="mn-694" x="-113.088" y="-194.986" width="0.05" height="0.05" fill="black" transform="rotate(90,-113.063,-194.961)" />
    <rect id="mn-695" x="-113.153" y="-194.986" width="0.05" height="0.05" fill="black" />
    <rect id="mn-696" x="-113.088" y="-194.986" width="0.05" height="0.05" fill="black" transform="rotate(270,-113.063,-194.961)" />
    <rect id="mn-697" x="-113.85" y="-194.986" width="0.05" height="0.05" fill="black" transform="rotate(90,-113.825,-194.961)" />
    <rect id="mn-698" x="-113.85" y="-194.986" width="0.05" height="0.05" fill="black" transform="rotate(120,-113.825,-194.961)" />
    <rect id="mn-699" x="-113.85" y="-194.986" width="0.05" height="0.05" fill="black" transform="rotate(270,-113.825,-194.961)" />
    <rect id="mn-700" x="-114.688" y="-194.986" width="0.05" height="0.05" fill="black" transform="rotate(240,-114.663,-194.961)" />
    <rect id="mn-701" x="-114.688" y="-194.986" width="0.05" height="0.05" fill="black" transform="rotate(90,-114.663,-194.961)" />
    <rect id="mn-702" x="-114.688" y="-194.986" width="0.05" height="0.05" fill="black" transform="rotate(120,-114.663,-194.961)" />
    <rect id="mn-703" x="-115.215" y="-195.353" width="0.05" height="0.05" fill="black" transform="rotate(90,-115.19,-195.328)" />
    <rect id="mn-704" x="-113.291" y="-195.353" width="0.05" height="0.05" fill="black" transform="rotate(90,-113.266,-195.328)" />
    <rect id="mn-705" x="-113.357" y="-195.353" width="0.05" height="0.05" fill="black" />
    <rect id="mn-706" x="-113.291" y="-195.353" width="0.05" height="0.05" fill="black" transform="rotate(180,-113.266,-195.328)" />
    <rect id="mn-707" x="-114.053" y="-195.353" width="0.05" height="0.05" fill="black" transform="rotate(120,-114.028,-195.328)" />
    <rect id="mn-708" x="-114.053" y="-195.353" width="0.05" height="0.05" fill="black" transform="rotate(90,-114.028,-195.328)" />
    <rect id="mn-709" x="-114.053" y="-195.353" width="0.05" height="0.05" fill="black" transform="rotate(120,-114.028,-195.328)" />
    <rect id="mn-710" x="-114.891" y="-195.353" width="0.05" height="0.05" fill="black" transform="rotate(120,-114.866,-195.328)" />
    <rect id="mn-711" x="-114.891" y="-195.353" width="0.05" height="0.05" fill="black" transform="rotate(90,-114.866,-195.328)" />
    <rect id="mn-712" x="-114.891" y="-195.353" width="0.05" height="0.05" fill="black" transform="rotate(120,-114.866,-195.328)" />
    <rect id="mn-713" x="-113.128" y="-199.02" width="0.05" height="0.05" fill="black" transform="rotate(270,-113.103,-198.995)" />
    <rect id="mn-714" x="-113.128" y="-198.723" width="0.05" height="0.05" fill="black" />
    <rect id="mn-715" x="-113.128" y="-198.828" width="0.05" height="0.05" fill="black" transform="rotate(270,-113.103,-198.803)" />
    <rect id="mn-716" x="-115.138" y="-198.723" width="0.05" height="0.05" fill="black" transform="rotate(270,-115.113,-198.698)" />
    <rect id="mn-717" x="-114.725" y="-198.163" width="0.05" height="0.05" fill="black" transform="rotate(120,-114.7,-198.138)" />
    <rect id="mn-718" x="-115.138" y="-198.163" width="0.05" height="0.05" fill="black" transform="rotate(180,-115.113,-198.138)" />
    <rect id="mn-719" x="-114.725" y="-197.02" width="0.05" height="0.05" fill="black" transform="rotate(120,-114.7,-196.995)" />
    <rect id="mn-720" x="-115.138" y="-197.02" width="0.05" height="0.05" fill="black" transform="rotate(180,-115.113,-196.995)" />
    <rect id="mn-721" x="-114.725" y="-193.373" width="0.05" height="0.05" fill="black" transform="rotate(120,-114.7,-193.348)" />
    <rect id="mn-722" x="-115.138" y="-193.373" width="0.05" height="0.05" fill="black" transform="rotate(180,-115.113,-193.348)" />
    <rect id="mn-723" x="-114.725" y="-192.23" width="0.05" height="0.05" fill="black" transform="rotate(120,-114.7,-192.205)" />
    <rect id="mn-724" x="-115.138" y="-192.23" width="0.05" height="0.05" fill="black" transform="rotate(180,-115.113,-192.205)" />
    <rect id="mn-725" x="-114.725" y="-191.087" width="0.05" height="0.05" fill="black" transform="rotate(120,-114.7,-191.062)" />
    <rect id="mn-726" x="-115.138" y="-191.087" width="0.05" height="0.05" fill="black" transform="rotate(180,-115.113,-191.062)" />
    <rect id="mn-727" x="-114.725" y="-189.944" width="0.05" height="0.05" fill="black" transform="rotate(120,-114.7,-189.919)" />
    <rect id="mn-728" x="-115.138" y="-189.944" width="0.05" height="0.05" fill="black" transform="rotate(180,-115.113,-189.919)" />
    <rect id="mn-729" x="-115.138" y="-189.626" width="0.05" height="0.05" fill="black" transform="rotate(90,-115.113,-189.601)" />
    <rect id="mn-730" x="-115.138" y="-194.548" width="0.05" height="0.05" fill="black" transform="rotate(90,-115.113,-194.523)" />
    <rect id="mn-731" x="-112.878" y="-194.548" width="0.05" height="0.05" fill="black" />
    <rect id="mn-732" x="-114.79" y="-194.796" width="0.05" height="0.05" fill="black" transform="rotate(270,-114.765,-194.771)" />
    <rect id="mn-733" x="-114.79" y="-194.548" width="0.05" height="0.05" fill="black" />
    <rect id="mn-734" x="-114.79" y="-194.653" width="0.05" height="0.05" fill="black" transform="rotate(270,-114.765,-194.628)" />
    <rect id="mn-735" x="-113.951" y="-194.796" width="0.05" height="0.05" fill="black" transform="rotate(270,-113.926,-194.771)" />
    <rect id="mn-736" x="-113.951" y="-194.548" width="0.05" height="0.05" fill="black" />
    <rect id="mn-737" x="-113.951" y="-194.653" width="0.05" height="0.05" fill="black" transform="rotate(270,-113.926,-194.628)" />
    <rect id="mn-738" x="-113.189" y="-194.796" width="0.05" height="0.05" fill="black" transform="rotate(270,-113.164,-194.771)" />
    <rect id="mn-739" x="-113.189" y="-194.548" width="0.05" height="0.05" fill="black" />
    <rect id="mn-740" x="-113.189" y="-194.653" width="0.05" height="0.05" fill="black" transform="rotate(270,-113.164,-194.628)" />
    <rect id="mn-741" x="-115.138" y="-195.842" width="0.05" height="0.05" fill="black" transform="rotate(90,-115.113,-195.817)" />
    <rect id="mn-742" x="-112.878" y="-195.842" width="0.05" height="0.05" fill="black" />
    <rect id="mn-743" x="-114.79" y="-195.57" width="0.05" height="0.05" fill="black" transform="rotate(180,-114.765,-195.545)" />
    <rect id="mn-744" x="-114.79" y="-195.842" width="0.05" height="0.05" fill="black" transform="rotate(180,-114.765,-195.817)" />
    <rect id="mn-745" x="-114.79" y="-195.737" width="0.05" height="0.05" fill="black" transform="rotate(90,-114.765,-195.712)" />
    <rect id="mn-746" x="-113.189" y="-195.57" width="0.05" height="0.05" fill="black" transform="rotate(180,-113.164,-195.545)" />
    <rect id="mn-747" x="-113.189" y="-195.842" width="0.05" height="0.05" fill="black" transform="rotate(180,-113.164,-195.817)" />
    <rect id="mn-748" x="-113.189" y="-195.737" width="0.05" height="0.05" fill="black" transform="rotate(90,-113.164,-195.712)" />
    <rect id="mn-749" x="-113.951" y="-195.57" width="0.05" height="0.05" fill="black" transform="rotate(180,-113.926,-195.545)" />
    <rect id="mn-750" x="-113.951" y="-195.842" width="0.05" height="0.05" fill="black" transform="rotate(180,-113.926,-195.817)" />
    <rect id="mn-751" x="-113.951" y="-195.737" width="0.05" height="0.05" fill="black" transform="rotate(90,-113.926,-195.712)" />
    <rect id="mn-752" x="-112.136" y="-199.329" width="0.05" height="0.05" fill="black" transform="rotate(180,-112.111,-199.304)" />
    <rect id="mn-753" x="-111.791" y="-198.536" width="0.05" height="0.05" fill="black" transform="rotate(120,-111.766,-198.511)" />
    <rect id="mn-754" x="-112.136" y="-198.536" width="0.05" height="0.05" fill="black" transform="rotate(180,-112.111,-198.511)" />
    <rect id="mn-755" x="-112.031" y="-198.536" width="0.05" height="0.05" fill="black" transform="rotate(90,-112.006,-198.511)" />
    <rect id="mn-756" x="-111.791" y="-197.723" width="0.05" height="0.05" fill="black" transform="rotate(120,-111.766,-197.698)" />
    <rect id="mn-757" x="-112.136" y="-197.723" width="0.05" height="0.05" fill="black" transform="rotate(180,-112.111,-197.698)" />
    <rect id="mn-758" x="-112.031" y="-197.723" width="0.05" height="0.05" fill="black" transform="rotate(90,-112.006,-197.698)" />
    <rect id="mn-759" x="-111.791" y="-196.758" width="0.05" height="0.05" fill="black" transform="rotate(120,-111.766,-196.733)" />
    <rect id="mn-760" x="-112.136" y="-196.758" width="0.05" height="0.05" fill="black" transform="rotate(180,-112.111,-196.733)" />
    <rect id="mn-761" x="-112.031" y="-196.758" width="0.05" height="0.05" fill="black" transform="rotate(90,-112.006,-196.733)" />
    <rect id="mn-762" x="-112.49" y="-198.723" width="0.05" height="0.05" fill="black" transform="rotate(90,-112.465,-198.698)" />
    <rect id="mn-763" x="-112.136" y="-198.977" width="0.05" height="0.05" fill="black" transform="rotate(270,-112.111,-198.952)" />
    <rect id="mn-764" x="-112.49" y="-198.977" width="0.05" height="0.05" fill="black" transform="rotate(270,-112.465,-198.952)" />
    <rect id="mn-765" x="-112.136" y="-194.087" width="0.05" height="0.05" fill="black" transform="rotate(180,-112.111,-194.062)" />
    <rect id="mn-766" x="-111.831" y="-194.087" width="0.05" height="0.05" fill="black" />
    <rect id="mn-767" x="-111.831" y="-189.668" width="0.05" height="0.05" fill="black" transform="rotate(90,-111.806,-189.643)" />
    <rect id="mn-768" x="-112.284" y="-193.373" width="0.05" height="0.05" fill="black" transform="rotate(240,-112.259,-193.348)" />
    <rect id="mn-769" x="-111.831" y="-193.373" width="0.05" height="0.05" fill="black" transform="rotate(180,-111.806,-193.348)" />
    <rect id="mn-770" x="-112.284" y="-192.23" width="0.05" height="0.05" fill="black" transform="rotate(240,-112.259,-192.205)" />
    <rect id="mn-771" x="-111.831" y="-192.23" width="0.05" height="0.05" fill="black" transform="rotate(180,-111.806,-192.205)" />
    <rect id="mn-772" x="-112.284" y="-191.087" width="0.05" height="0.05" fill="black" transform="rotate(240,-112.259,-191.062)" />
    <rect id="mn-773" x="-111.831" y="-191.087" width="0.05" height="0.05" fill="black" transform="rotate(180,-111.806,-191.062)" />
    <rect id="mn-774" x="-112.284" y="-189.944" width="0.05" height="0.05" fill="black" transform="rotate(240,-112.259,-189.919)" />
    <rect id="mn-775" x="-111.831" y="-189.944" width="0.05" height="0.05" fill="black" transform="rotate(180,-111.806,-189.919)" />
  </g>
</svg>