<?xml version="1.0" encoding="utf-8"?>
<svg xmlns="http://www.w3.org/2000/svg" viewBox="-133.85 188.888 22.611 13.501">
  <g transform="scale(1,-1)">
    <line id="pi-645" x1="-115.168" y1="-198.202" x2="-115.168" y2="-198.91" stroke="black" stroke-width="0.051" stroke-linecap="square" />
    <line id="pi-646" x1="-111.8" y1="-196.733" x2="-111.8" y2="-196.733" stroke="black" stroke-width="0.025" stroke-linecap="square" />
    <line id="pi-647" x1="-111.8" y1="-197.698" x2="-111.8" y2="-197.698" stroke="black" stroke-width="0.025" stroke-linecap="square" />
    <line id="pi-648" x1="-111.817" y1="-196.834" x2="-111.817" y2="-197.634" stroke="black" stroke-width="0.051" stroke-linecap="square" />
    <line id="pi-649" x1="-111.8" y1="-198.511" x2="-111.8" y2="-198.511" stroke="black" stroke-width="0.025" stroke-linecap="square" />
    <line id="pi-650" x1="-111.817" y1="-199.025" x2="-111.817" y2="-199.097" stroke="black" stroke-width="0.051" stroke-linecap="square" />
    <line id="pi-651" x1="-111.817" y1="-197.762" x2="-111.817" y2="-198.447" stroke="black" stroke-width="0.051" stroke-linecap="square" />
    <line id="pi-652" x1="-111.817" y1="-198.575" x2="-111.817" y2="-198.897" stroke="black" stroke-width="0.051" stroke-linecap="square" />
    <line id="pi-653" x1="-113.103" y1="-198.961" x2="-113.103" y2="-198.961" stroke="black" stroke-width="0.025" stroke-linecap="square" />
    <line id="pi-654" x1="-113.167" y1="-198.961" x2="-115.117" y2="-198.961" stroke="black" stroke-width="0.051" stroke-linecap="square" />
    <line id="pi-655" x1="-111.881" y1="-198.961" x2="-113.039" y2="-198.961" stroke="black" stroke-width="0.051" stroke-linecap="square" />
    <line id="pi-656" x1="-115.168" y1="-198.961" x2="-115.168" y2="-198.961" stroke="black" stroke-width="0.051" stroke-linecap="square" />
    <line id="pi-657" x1="-115.073" y1="-198.138" x2="-115.153" y2="-198.138" stroke="black" stroke-width="0.013" stroke-linecap="square" />
    <line id="pi-658" x1="-115.168" y1="-198.138" x2="-115.168" y2="-198.138" stroke="black" stroke-width="0.013" stroke-linecap="square" />
    <line id="pi-659" x1="-115.168" y1="-189.855" x2="-115.168" y2="-189.464" stroke="black" stroke-width="0.051" stroke-linecap="square" />
    <line id="pi-660" x1="-115.117" y1="-189.413" x2="-111.815" y2="-189.413" stroke="black" stroke-width="0.051" stroke-linecap="square" />
    <line id="pi-661" x1="-111.764" y1="-193.412" x2="-111.764" y2="-193.705" stroke="black" stroke-width="0.051" stroke-linecap="square" />
    <line id="pi-662" x1="-111.886" y1="-193.348" x2="-111.779" y2="-193.348" stroke="black" stroke-width="0.013" stroke-linecap="square" />
    <line id="pi-663" x1="-111.764" y1="-193.348" x2="-111.764" y2="-193.348" stroke="black" stroke-width="0.013" stroke-linecap="square" />
    <line id="pi-664" x1="-111.764" y1="-192.269" x2="-111.764" y2="-193.284" stroke="black" stroke-width="0.051" stroke-linecap="square" />
    <line id="pi-665" x1="-111.886" y1="-192.205" x2="-111.779" y2="-192.205" stroke="black" stroke-width="0.013" stroke-linecap="square" />
    <line id="pi-666" x1="-111.764" y1="-192.205" x2="-111.764" y2="-192.205" stroke="black" stroke-width="0.013" stroke-linecap="square" />
    <line id="pi-667" x1="-111.764" y1="-191.126" x2="-111.764" y2="-192.141" stroke="black" stroke-width="0.051" stroke-linecap="square" />
    <line id="pi-668" x1="-111.886" y1="-191.062" x2="-111.779" y2="-191.062" stroke="black" stroke-width="0.013" stroke-linecap="square" />
    <line id="pi-669" x1="-111.764" y1="-191.062" x2="-111.764" y2="-191.062" stroke="black" stroke-width="0.013" stroke-linecap="square" />
    <line id="pi-670" x1="-111.764" y1="-189.983" x2="-111.764" y2="-190.998" stroke="black" stroke-width="0.051" stroke-linecap="square" />
    <line id="pi-671" x1="-111.886" y1="-189.919" x2="-111.779" y2="-189.919" stroke="black" stroke-width="0.013" stroke-linecap="square" />
    <line id="pi-672" x1="-111.764" y1="-189.919" x2="-111.764" y2="-189.919" stroke="black" stroke-width="0.013" stroke-linecap="square" />
    <line id="pi-673" x1="-111.764" y1="-189.464" x2="-111.764" y2="-189.855" stroke="black" stroke-width="0.051" stroke-linecap="square" />
    <line id="pi-674" x1="-115.073" y1="-189.919" x2="-115.153" y2="-189.919" stroke="black" stroke-width="0.013" stroke-linecap="square" />
    <line id="pi-675" x1="-115.168" y1="-189.919" x2="-115.168" y2="-189.919" stroke="black" stroke-width="0.013" stroke-linecap="square" />
    <line id="pi-676" x1="-115.168" y1="-190.998" x2="-115.168" y2="-189.983" stroke="black" stroke-width="0.051" stroke-linecap="square" />
    <line id="pi-677" x1="-115.073" y1="-191.062" x2="-115.153" y2="-191.062" stroke="black" stroke-width="0.013" stroke-linecap="square" />
    <line id="pi-678" x1="-115.168" y1="-191.062" x2="-115.168" y2="-191.062" stroke="black" stroke-width="0.013" stroke-linecap="square" />
    <line id="pi-679" x1="-115.168" y1="-192.141" x2="-115.168" y2="-191.126" stroke="black" stroke-width="0.051" stroke-linecap="square" />
    <line id="pi-680" x1="-115.073" y1="-192.205" x2="-115.153" y2="-192.205" stroke="black" stroke-width="0.013" stroke-linecap="square" />
    <line id="pi-681" x1="-115.168" y1="-192.205" x2="-115.168" y2="-192.205" stroke="black" stroke-width="0.013" stroke-linecap="square" />
    <line id="pi-682" x1="-115.168" y1="-193.284" x2="-115.168" y2="-192.269" stroke="black" stroke-width="0.051" stroke-linecap="square" />
    <line id="pi-683" x1="-115.073" y1="-193.348" x2="-115.153" y2="-193.348" stroke="black" stroke-width="0.013" stroke-linecap="square" />
    <line id="pi-684" x1="-115.168" y1="-193.348" x2="-115.168" y2="-193.348" stroke="black" stroke-width="0.013" stroke-linecap="square" />
    <line id="pi-685" x1="-115.168" y1="-194.969" x2="-115.168" y2="-193.412" stroke="black" stroke-width="0.051" stroke-linecap="square" />
    <line id="pi-686" x1="-115.073" y1="-196.995" x2="-115.153" y2="-196.995" stroke="black" stroke-width="0.013" stroke-linecap="square" />
    <line id="pi-687" x1="-115.168" y1="-196.995" x2="-115.168" y2="-196.995" stroke="black" stroke-width="0.013" stroke-linecap="square" />
    <line id="pi-688" x1="-115.168" y1="-198.074" x2="-115.168" y2="-197.059" stroke="black" stroke-width="0.051" stroke-linecap="square" />
    <line id="pi-689" x1="-112.999" y1="-195.274" x2="-112.984" y2="-195.274" stroke="black" stroke-width="0.051" stroke-linecap="square" />
    <line id="pi-690" x1="-115.168" y1="-196.931" x2="-115.168" y2="-195.338" stroke="black" stroke-width="0.051" stroke-linecap="square" />
    <line id="pi-691" x1="-114.663" y1="-195.418" x2="-114.663" y2="-195.289" stroke="black" stroke-width="0.013" stroke-linecap="square" />
    <line id="pi-692" x1="-114.663" y1="-195.274" x2="-114.663" y2="-195.274" stroke="black" stroke-width="0.013" stroke-linecap="square" />
    <line id="pi-693" x1="-115.104" y1="-195.274" x2="-114.727" y2="-195.274" stroke="black" stroke-width="0.051" stroke-linecap="square" />
    <line id="pi-694" x1="-113.825" y1="-195.418" x2="-113.825" y2="-195.289" stroke="black" stroke-width="0.013" stroke-linecap="square" />
    <line id="pi-695" x1="-113.825" y1="-195.274" x2="-113.825" y2="-195.274" stroke="black" stroke-width="0.013" stroke-linecap="square" />
    <line id="pi-696" x1="-114.599" y1="-195.274" x2="-113.889" y2="-195.274" stroke="black" stroke-width="0.051" stroke-linecap="square" />
    <line id="pi-697" x1="-113.063" y1="-195.418" x2="-113.063" y2="-195.289" stroke="black" stroke-width="0.013" stroke-linecap="square" />
    <line id="pi-698" x1="-113.063" y1="-195.274" x2="-113.063" y2="-195.274" stroke="black" stroke-width="0.013" stroke-linecap="square" />
    <line id="pi-699" x1="-113.761" y1="-195.274" x2="-113.127" y2="-195.274" stroke="black" stroke-width="0.051" stroke-linecap="square" />
    <line id="pi-700" x1="-113.202" y1="-195.033" x2="-112.958" y2="-195.033" stroke="black" stroke-width="0.051" stroke-linecap="square" />
    <line id="pi-701" x1="-115.168" y1="-195.21" x2="-115.168" y2="-195.097" stroke="black" stroke-width="0.051" stroke-linecap="square" />
    <line id="pi-702" x1="-114.866" y1="-194.898" x2="-114.866" y2="-195.019" stroke="black" stroke-width="0.013" stroke-linecap="square" />
    <line id="pi-703" x1="-114.866" y1="-195.033" x2="-114.866" y2="-195.033" stroke="black" stroke-width="0.013" stroke-linecap="square" />
    <line id="pi-704" x1="-115.104" y1="-195.033" x2="-114.93" y2="-195.033" stroke="black" stroke-width="0.051" stroke-linecap="square" />
    <line id="pi-705" x1="-114.028" y1="-194.898" x2="-114.028" y2="-195.019" stroke="black" stroke-width="0.013" stroke-linecap="square" />
    <line id="pi-706" x1="-114.028" y1="-195.033" x2="-114.028" y2="-195.033" stroke="black" stroke-width="0.013" stroke-linecap="square" />
    <line id="pi-707" x1="-114.802" y1="-195.033" x2="-114.092" y2="-195.033" stroke="black" stroke-width="0.051" stroke-linecap="square" />
    <line id="pi-708" x1="-113.266" y1="-194.898" x2="-113.266" y2="-195.019" stroke="black" stroke-width="0.013" stroke-linecap="square" />
    <line id="pi-709" x1="-113.266" y1="-195.033" x2="-113.266" y2="-195.033" stroke="black" stroke-width="0.013" stroke-linecap="square" />
    <line id="pi-710" x1="-113.964" y1="-195.033" x2="-113.33" y2="-195.033" stroke="black" stroke-width="0.051" stroke-linecap="square" />
    <line id="pi-711" x1="-111.964" y1="-199.098" x2="-111.964" y2="-199" stroke="black" stroke-width="0.025" stroke-linecap="square" />
    <line id="pi-712" x1="-111.989" y1="-198.975" x2="-115.165" y2="-198.975" stroke="black" stroke-width="0.025" stroke-linecap="square" />
    <line id="pi-713" x1="-115.19" y1="-195.29" x2="-115.19" y2="-194.986" stroke="black" stroke-width="0.025" stroke-linecap="square" />
    <line id="pi-714" x1="-113.787" y1="-194.961" x2="-113.128" y2="-194.961" stroke="black" stroke-width="0.025" stroke-linecap="square" />
    <line id="pi-715" x1="-113.063" y1="-194.898" x2="-113.063" y2="-194.947" stroke="black" stroke-width="0.013" stroke-linecap="square" />
    <line id="pi-716" x1="-113.063" y1="-194.961" x2="-113.063" y2="-194.961" stroke="black" stroke-width="0.013" stroke-linecap="square" />
    <line id="pi-717" x1="-113.825" y1="-194.898" x2="-113.825" y2="-194.947" stroke="black" stroke-width="0.013" stroke-linecap="square" />
    <line id="pi-718" x1="-113.825" y1="-194.961" x2="-113.825" y2="-194.961" stroke="black" stroke-width="0.013" stroke-linecap="square" />
    <line id="pi-719" x1="-114.625" y1="-194.961" x2="-113.863" y2="-194.961" stroke="black" stroke-width="0.025" stroke-linecap="square" />
    <line id="pi-720" x1="-114.663" y1="-194.898" x2="-114.663" y2="-194.947" stroke="black" stroke-width="0.013" stroke-linecap="square" />
    <line id="pi-721" x1="-114.663" y1="-194.961" x2="-114.663" y2="-194.961" stroke="black" stroke-width="0.013" stroke-linecap="square" />
    <line id="pi-722" x1="-115.165" y1="-194.961" x2="-114.701" y2="-194.961" stroke="black" stroke-width="0.025" stroke-linecap="square" />
    <line id="pi-723" x1="-113.99" y1="-195.328" x2="-113.332" y2="-195.328" stroke="black" stroke-width="0.025" stroke-linecap="square" />
    <line id="pi-724" x1="-115.19" y1="-198.95" x2="-115.19" y2="-195.366" stroke="black" stroke-width="0.025" stroke-linecap="square" />
    <line id="pi-725" x1="-113.266" y1="-195.418" x2="-113.266" y2="-195.343" stroke="black" stroke-width="0.013" stroke-linecap="square" />
    <line id="pi-726" x1="-113.266" y1="-195.328" x2="-113.266" y2="-195.328" stroke="black" stroke-width="0.013" stroke-linecap="square" />
    <line id="pi-727" x1="-114.028" y1="-195.418" x2="-114.028" y2="-195.343" stroke="black" stroke-width="0.013" stroke-linecap="square" />
    <line id="pi-728" x1="-114.028" y1="-195.328" x2="-114.028" y2="-195.328" stroke="black" stroke-width="0.013" stroke-linecap="square" />
    <line id="pi-729" x1="-114.828" y1="-195.328" x2="-114.066" y2="-195.328" stroke="black" stroke-width="0.025" stroke-linecap="square" />
    <line id="pi-730" x1="-114.866" y1="-195.418" x2="-114.866" y2="-195.343" stroke="black" stroke-width="0.013" stroke-linecap="square" />
    <line id="pi-731" x1="-114.866" y1="-195.328" x2="-114.866" y2="-195.328" stroke="black" stroke-width="0.013" stroke-linecap="square" />
    <line id="pi-732" x1="-115.152" y1="-195.328" x2="-114.904" y2="-195.328" stroke="black" stroke-width="0.025" stroke-linecap="square" />
    <line id="pi-733" x1="-113.103" y1="-198.995" x2="-113.103" y2="-198.995" stroke="black" stroke-width="0.051" stroke-linecap="square" />
    <line id="pi-734" x1="-113.103" y1="-198.944" x2="-113.103" y2="-198.905" stroke="black" stroke-width="0.051" stroke-linecap="square" />
    <line id="pi-735" x1="-113.208" y1="-198.698" x2="-115.011" y2="-198.698" stroke="black" stroke-width="0.102" stroke-linecap="square" />
    <line id="pi-736" x1="-112.998" y1="-198.698" x2="-112.567" y2="-198.698" stroke="black" stroke-width="0.102" stroke-linecap="square" />
    <line id="pi-737" x1="-114.7" y1="-198.138" x2="-114.7" y2="-198.138" stroke="black" stroke-width="0.102" stroke-linecap="square" />
    <line id="pi-738" x1="-114.802" y1="-198.138" x2="-115.008" y2="-198.138" stroke="black" stroke-width="0.102" stroke-linecap="square" />
    <line id="pi-739" x1="-115.113" y1="-198.596" x2="-115.113" y2="-198.243" stroke="black" stroke-width="0.102" stroke-linecap="square" />
    <line id="pi-740" x1="-114.7" y1="-196.995" x2="-114.7" y2="-196.995" stroke="black" stroke-width="0.102" stroke-linecap="square" />
    <line id="pi-741" x1="-114.802" y1="-196.995" x2="-115.008" y2="-196.995" stroke="black" stroke-width="0.102" stroke-linecap="square" />
    <line id="pi-742" x1="-115.113" y1="-198.033" x2="-115.113" y2="-197.1" stroke="black" stroke-width="0.102" stroke-linecap="square" />
    <line id="pi-743" x1="-114.7" y1="-193.348" x2="-114.7" y2="-193.348" stroke="black" stroke-width="0.102" stroke-linecap="square" />
    <line id="pi-744" x1="-114.802" y1="-193.348" x2="-115.008" y2="-193.348" stroke="black" stroke-width="0.102" stroke-linecap="square" />
    <line id="pi-745" x1="-115.113" y1="-194.418" x2="-115.113" y2="-193.453" stroke="black" stroke-width="0.102" stroke-linecap="square" />
    <line id="pi-746" x1="-114.7" y1="-192.205" x2="-114.7" y2="-192.205" stroke="black" stroke-width="0.102" stroke-linecap="square" />
    <line id="pi-747" x1="-114.802" y1="-192.205" x2="-115.008" y2="-192.205" stroke="black" stroke-width="0.102" stroke-linecap="square" />
    <line id="pi-748" x1="-115.113" y1="-193.243" x2="-115.113" y2="-192.31" stroke="black" stroke-width="0.102" stroke-linecap="square" />
    <line id="pi-749" x1="-114.7" y1="-191.062" x2="-114.7" y2="-191.062" stroke="black" stroke-width="0.102" stroke-linecap="square" />
    <line id="pi-750" x1="-114.802" y1="-191.062" x2="-115.008" y2="-191.062" stroke="black" stroke-width="0.102" stroke-linecap="square" />
    <line id="pi-751" x1="-115.113" y1="-192.1" x2="-115.113" y2="-191.167" stroke="black" stroke-width="0.102" stroke-linecap="square" />
    <line id="pi-752" x1="-114.7" y1="-189.919" x2="-114.7" y2="-189.919" stroke="black" stroke-width="0.102" stroke-linecap="square" />
    <line id="pi-753" x1="-114.802" y1="-189.919" x2="-115.008" y2="-189.919" stroke="black" stroke-width="0.102" stroke-linecap="square" />
    <line id="pi-754" x1="-115.113" y1="-189.814" x2="-115.113" y2="-189.601" stroke="black" stroke-width="0.102" stroke-linecap="square" />
    <line id="pi-755" x1="-115.113" y1="-190.957" x2="-115.113" y2="-190.024" stroke="black" stroke-width="0.102" stroke-linecap="square" />
    <line id="pi-756" x1="-113.059" y1="-194.523" x2="-112.853" y2="-194.523" stroke="black" stroke-width="0.102" stroke-linecap="square" />
    <line id="pi-757" x1="-115.113" y1="-195.712" x2="-115.113" y2="-194.628" stroke="black" stroke-width="0.102" stroke-linecap="square" />
    <line id="pi-758" x1="-114.765" y1="-194.771" x2="-114.765" y2="-194.771" stroke="black" stroke-width="0.038" stroke-linecap="square" />
    <line id="pi-759" x1="-114.765" y1="-194.733" x2="-114.765" y2="-194.73" stroke="black" stroke-width="0.038" stroke-linecap="square" />
    <line id="pi-760" x1="-115.008" y1="-194.523" x2="-114.87" y2="-194.523" stroke="black" stroke-width="0.102" stroke-linecap="square" />
    <line id="pi-761" x1="-113.926" y1="-194.771" x2="-113.926" y2="-194.771" stroke="black" stroke-width="0.038" stroke-linecap="square" />
    <line id="pi-762" x1="-113.926" y1="-194.733" x2="-113.926" y2="-194.73" stroke="black" stroke-width="0.038" stroke-linecap="square" />
    <line id="pi-763" x1="-114.66" y1="-194.523" x2="-114.031" y2="-194.523" stroke="black" stroke-width="0.102" stroke-linecap="square" />
    <line id="pi-764" x1="-113.164" y1="-194.771" x2="-113.164" y2="-194.771" stroke="black" stroke-width="0.038" stroke-linecap="square" />
    <line id="pi-765" x1="-113.164" y1="-194.733" x2="-113.164" y2="-194.73" stroke="black" stroke-width="0.038" stroke-linecap="square" />
    <line id="pi-766" x1="-113.821" y1="-194.523" x2="-113.269" y2="-194.523" stroke="black" stroke-width="0.102" stroke-linecap="square" />
    <line id="pi-767" x1="-113.059" y1="-195.817" x2="-112.853" y2="-195.817" stroke="black" stroke-width="0.102" stroke-linecap="square" />
    <line id="pi-768" x1="-115.113" y1="-196.89" x2="-115.113" y2="-195.922" stroke="black" stroke-width="0.102" stroke-linecap="square" />
    <line id="pi-769" x1="-114.765" y1="-195.545" x2="-114.765" y2="-195.545" stroke="black" stroke-width="0.038" stroke-linecap="square" />
    <line id="pi-770" x1="-114.765" y1="-195.583" x2="-114.765" y2="-195.61" stroke="black" stroke-width="0.038" stroke-linecap="square" />
    <line id="pi-771" x1="-115.008" y1="-195.817" x2="-114.87" y2="-195.817" stroke="black" stroke-width="0.102" stroke-linecap="square" />
    <line id="pi-772" x1="-113.164" y1="-195.545" x2="-113.164" y2="-195.545" stroke="black" stroke-width="0.038" stroke-linecap="square" />
    <line id="pi-773" x1="-113.164" y1="-195.583" x2="-113.164" y2="-195.61" stroke="black" stroke-width="0.038" stroke-linecap="square" />
    <line id="pi-774" x1="-113.821" y1="-195.817" x2="-113.269" y2="-195.817" stroke="black" stroke-width="0.102" stroke-linecap="square" />
    <line id="pi-775" x1="-113.926" y1="-195.545" x2="-113.926" y2="-195.545" stroke="black" stroke-width="0.038" stroke-linecap="square" />
    <line id="pi-776" x1="-113.926" y1="-195.583" x2="-113.926" y2="-195.61" stroke="black" stroke-width="0.038" stroke-linecap="square" />
    <line id="pi-777" x1="-114.66" y1="-195.817" x2="-114.031" y2="-195.817" stroke="black" stroke-width="0.102" stroke-linecap="square" />
    <line id="pi-778" x1="-111.766" y1="-198.511" x2="-111.766" y2="-198.511" stroke="black" stroke-width="0.051" stroke-linecap="square" />
    <line id="pi-779" x1="-111.817" y1="-198.511" x2="-111.904" y2="-198.511" stroke="black" stroke-width="0.051" stroke-linecap="square" />
    <line id="pi-780" x1="-112.111" y1="-198.847" x2="-112.111" y2="-198.616" stroke="black" stroke-width="0.102" stroke-linecap="square" />
    <line id="pi-781" x1="-111.766" y1="-197.698" x2="-111.766" y2="-197.698" stroke="black" stroke-width="0.051" stroke-linecap="square" />
    <line id="pi-782" x1="-111.817" y1="-197.698" x2="-111.904" y2="-197.698" stroke="black" stroke-width="0.051" stroke-linecap="square" />
    <line id="pi-783" x1="-112.111" y1="-198.406" x2="-112.111" y2="-197.803" stroke="black" stroke-width="0.102" stroke-linecap="square" />
    <line id="pi-784" x1="-111.766" y1="-196.733" x2="-111.766" y2="-196.733" stroke="black" stroke-width="0.051" stroke-linecap="square" />
    <line id="pi-785" x1="-111.817" y1="-196.733" x2="-111.904" y2="-196.733" stroke="black" stroke-width="0.051" stroke-linecap="square" />
    <line id="pi-786" x1="-112.111" y1="-196.628" x2="-112.111" y2="-194.164" stroke="black" stroke-width="0.102" stroke-linecap="square" />
    <line id="pi-787" x1="-112.111" y1="-197.593" x2="-112.111" y2="-196.838" stroke="black" stroke-width="0.102" stroke-linecap="square" />
    <line id="pi-788" x1="-112.465" y1="-198.8" x2="-112.465" y2="-198.85" stroke="black" stroke-width="0.102" stroke-linecap="square" />
    <line id="pi-789" x1="-112.216" y1="-198.952" x2="-112.363" y2="-198.952" stroke="black" stroke-width="0.102" stroke-linecap="square" />
    <line id="pi-790" x1="-112.111" y1="-199.199" x2="-112.111" y2="-199.057" stroke="black" stroke-width="0.102" stroke-linecap="square" />
    <line id="pi-791" x1="-112.009" y1="-194.062" x2="-111.908" y2="-194.062" stroke="black" stroke-width="0.102" stroke-linecap="square" />
    <line id="pi-792" x1="-111.806" y1="-189.814" x2="-111.806" y2="-189.643" stroke="black" stroke-width="0.102" stroke-linecap="square" />
    <line id="pi-793" x1="-112.259" y1="-193.348" x2="-112.259" y2="-193.348" stroke="black" stroke-width="0.102" stroke-linecap="square" />
    <line id="pi-794" x1="-112.157" y1="-193.348" x2="-111.911" y2="-193.348" stroke="black" stroke-width="0.102" stroke-linecap="square" />
    <line id="pi-795" x1="-111.806" y1="-193.96" x2="-111.806" y2="-193.453" stroke="black" stroke-width="0.102" stroke-linecap="square" />
    <line id="pi-796" x1="-112.259" y1="-192.205" x2="-112.259" y2="-192.205" stroke="black" stroke-width="0.102" stroke-linecap="square" />
    <line id="pi-797" x1="-112.157" y1="-192.205" x2="-111.911" y2="-192.205" stroke="black" stroke-width="0.102" stroke-linecap="square" />
    <line id="pi-798" x1="-111.806" y1="-193.243" x2="-111.806" y2="-192.31" stroke="black" stroke-width="0.102" stroke-linecap="square" />
    <line id="pi-799" x1="-112.259" y1="-191.062" x2="-112.259" y2="-191.062" stroke="black" stroke-width="0.102" stroke-linecap="square" />
    <line id="pi-800" x1="-112.157" y1="-191.062" x2="-111.911" y2="-191.062" stroke="black" stroke-width="0.102" stroke-linecap="square" />
    <line id="pi-801" x1="-111.806" y1="-192.1" x2="-111.806" y2="-191.167" stroke="black" stroke-width="0.102" stroke-linecap="square" />
    <line id="pi-802" x1="-112.259" y1="-189.919" x2="-112.259" y2="-189.919" stroke="black" stroke-width="0.102" stroke-linecap="square" />
    <line id="pi-803" x1="-112.157" y1="-189.919" x2="-111.911" y2="-189.919" stroke="black" stroke-width="0.102" stroke-linecap="square" />
    <line id="pi-804" x1="-111.806" y1="-190.957" x2="-111.806" y2="-190.024" stroke="black" stroke-width="0.102" stroke-linecap="square" />
  </g>
</svg>