<?xml version="1.0" encoding="utf-8"?>
<svg xmlns="http://www.w3.org/2000/svg" viewBox="-30.829 -13.68 52.812 25.292">
  <g transform="scale(1,-1)">
    <line id="pi-1" x1="11.763" y1="12.217" x2="11.763" y2="12.217" stroke="black" stroke-width="0.102" stroke-linecap="square" />
    <line id="pi-20" x1="8.084" y1="12.217" x2="8.084" y2="12.217" stroke="black" stroke-width="0.102" stroke-linecap="square" />
    <line id="pi-21" x1="-5.545" y1="3.886" x2="-5.545" y2="3.886" stroke="black" stroke-width="0.102" stroke-linecap="square" />
    <line id="pi-22" x1="-11.43" y1="6.758" x2="-11.43" y2="6.758" stroke="black" stroke-width="0.102" stroke-linecap="square" />
    <line id="pi-23" x1="-11.43" y1="10.438" x2="-11.43" y2="10.438" stroke="black" stroke-width="0.102" stroke-linecap="square" />
    <line id="pi-24" x1="-19.288" y1="10.414" x2="-19.288" y2="10.414" stroke="black" stroke-width="0.102" stroke-linecap="square" />
    <line id="pi-250" x1="8.084" y1="12.275" x2="8.084" y2="12.275" stroke="black" stroke-width="0.102" stroke-linecap="square" />
    <line id="pi-252" x1="11.764" y1="12.275" x2="11.764" y2="12.275" stroke="black" stroke-width="0.102" stroke-linecap="square" />
    <line id="pi-254" x1="8.084" y1="12.265" x2="8.084" y2="12.227" stroke="black" stroke-width="0.102" stroke-linecap="square" />
    <line id="pi-255" x1="11.763" y1="12.23" x2="11.763" y2="12.262" stroke="black" stroke-width="0.102" stroke-linecap="square" />
    <line id="pi-256" x1="-11.501" y1="10.438" x2="-11.641" y2="10.438" stroke="black" stroke-width="0.102" stroke-linecap="square" />
    <line id="pi-257" x1="-11.501" y1="6.758" x2="-11.641" y2="6.758" stroke="black" stroke-width="0.102" stroke-linecap="square" />
    <line id="pi-258" x1="-11.712" y1="12.132" x2="-11.712" y2="10.581" stroke="black" stroke-width="0.102" stroke-linecap="square" />
    <line id="pi-259" x1="-11.712" y1="10.438" x2="-11.712" y2="10.438" stroke="black" stroke-width="0.102" stroke-linecap="square" />
    <line id="pi-260" x1="-11.712" y1="6.758" x2="-11.712" y2="6.758" stroke="black" stroke-width="0.102" stroke-linecap="square" />
    <line id="pi-261" x1="-11.712" y1="9.234" x2="-11.712" y2="10.328" stroke="black" stroke-width="0.102" stroke-linecap="square" />
    <line id="pi-262" x1="-11.712" y1="12.275" x2="-11.712" y2="12.275" stroke="black" stroke-width="0.102" stroke-linecap="square" />
    <line id="pi-264" x1="-5.546" y1="5.083" x2="-5.545" y2="4.029" stroke="black" stroke-width="0.102" stroke-linecap="square" />
    <line id="pi-265" x1="-5.545" y1="2.848" x2="-5.545" y2="2.848" stroke="black" stroke-width="0.102" stroke-linecap="square" />
    <line id="pi-266" x1="-5.545" y1="2.991" x2="-5.545" y2="3.776" stroke="black" stroke-width="0.102" stroke-linecap="square" />
    <line id="pi-267" x1="-5.546" y1="12.275" x2="-5.546" y2="12.275" stroke="black" stroke-width="0.102" stroke-linecap="square" />
    <line id="pi-269" x1="-19.288" y1="6.734" x2="-19.288" y2="6.734" stroke="black" stroke-width="0.102" stroke-linecap="square" />
    <line id="pi-270" x1="-19.288" y1="10.557" x2="-19.288" y2="12.132" stroke="black" stroke-width="0.102" stroke-linecap="square" />
    <line id="pi-271" x1="-19.288" y1="6.877" x2="-19.288" y2="10.304" stroke="black" stroke-width="0.102" stroke-linecap="square" />
    <line id="pi-272" x1="-19.288" y1="12.275" x2="-19.288" y2="12.275" stroke="black" stroke-width="0.102" stroke-linecap="square" />
    <line id="pi-274" x1="-6.039" y1="1.511" x2="-6.069" y2="1.511" stroke="black" stroke-width="0.051" stroke-linecap="square" />
    <line id="pi-275" x1="-6.102" y1="1.511" x2="-6.102" y2="1.511" stroke="black" stroke-width="0.051" stroke-linecap="square" />
    <line id="pi-283" x1="-11.938" y1="9.092" x2="-11.987" y2="9.092" stroke="black" stroke-width="0.051" stroke-linecap="square" />
    <line id="pi-284" x1="-12.065" y1="9.092" x2="-12.065" y2="9.092" stroke="black" stroke-width="0.051" stroke-linecap="square" />
    <line id="pi-285" x1="-11.987" y1="8.104" x2="-11.938" y2="8.104" stroke="black" stroke-width="0.051" stroke-linecap="square" />
    <line id="pi-286" x1="-12.065" y1="8.104" x2="-12.065" y2="8.104" stroke="black" stroke-width="0.051" stroke-linecap="square" />
    <line id="pi-287" x1="-12.025" y1="9.092" x2="-11.752" y2="9.092" stroke="black" stroke-width="0.051" stroke-linecap="square" />
    <line id="pi-288" x1="-11.712" y1="9.092" x2="-11.712" y2="9.092" stroke="black" stroke-width="0.051" stroke-linecap="square" />
    <line id="pi-289" x1="-12.025" y1="8.104" x2="-11.752" y2="8.104" stroke="black" stroke-width="0.051" stroke-linecap="square" />
    <line id="pi-290" x1="-11.712" y1="8.104" x2="-11.712" y2="8.104" stroke="black" stroke-width="0.051" stroke-linecap="square" />
    <line id="pi-291" x1="-11.712" y1="8.247" x2="-11.712" y2="8.981" stroke="black" stroke-width="0.102" stroke-linecap="square" />
    <line id="pi-292" x1="-11.712" y1="6.901" x2="-11.712" y2="7.994" stroke="black" stroke-width="0.102" stroke-linecap="square" />
    <line id="pi-293" x1="-6.025" y1="1.511" x2="-5.875" y2="1.511" stroke="black" stroke-width="0.051" stroke-linecap="square" />
    <line id="pi-294" x1="-5.798" y1="1.511" x2="-5.798" y2="1.511" stroke="black" stroke-width="0.051" stroke-linecap="square" />
    <line id="pi-295" x1="-5.798" y1="5.115" x2="-5.798" y2="1.589" stroke="black" stroke-width="0.051" stroke-linecap="square" />
    <line id="pi-296" x1="-6.102" y1="5.193" x2="-6.102" y2="5.193" stroke="black" stroke-width="0.051" stroke-linecap="square" />
    <line id="pi-297" x1="-6.025" y1="5.193" x2="-5.875" y2="5.193" stroke="black" stroke-width="0.051" stroke-linecap="square" />
    <line id="pi-298" x1="-5.798" y1="5.193" x2="-5.798" y2="5.193" stroke="black" stroke-width="0.051" stroke-linecap="square" />
    <line id="pi-299" x1="-5.798" y1="5.193" x2="-5.798" y2="5.193" stroke="black" stroke-width="0.051" stroke-linecap="square" />
    <line id="pi-300" x1="-5.757" y1="5.193" x2="-5.719" y2="5.193" stroke="black" stroke-width="0.051" stroke-linecap="square" />
    <line id="pi-301" x1="-5.546" y1="12.132" x2="-5.546" y2="5.336" stroke="black" stroke-width="0.102" stroke-linecap="square" />
    <line id="pi-302" x1="9.43" y1="12.71" x2="9.43" y2="12.73" stroke="black" stroke-width="0.051" stroke-linecap="square" />
    <line id="pi-303" x1="9.43" y1="12.808" x2="9.43" y2="12.808" stroke="black" stroke-width="0.051" stroke-linecap="square" />
    <line id="pi-304" x1="9.43" y1="12.768" x2="9.43" y2="12.579" stroke="black" stroke-width="0.051" stroke-linecap="square" />
    <line id="pi-305" x1="9.43" y1="12.539" x2="9.43" y2="12.539" stroke="black" stroke-width="0.051" stroke-linecap="square" />
    <line id="pi-306" x1="9.43" y1="12.498" x2="9.43" y2="12.315" stroke="black" stroke-width="0.051" stroke-linecap="square" />
    <line id="pi-307" x1="9.43" y1="12.275" x2="9.43" y2="12.275" stroke="black" stroke-width="0.051" stroke-linecap="square" />
    <line id="pi-309" x1="10.417" y1="12.73" x2="10.417" y2="12.71" stroke="black" stroke-width="0.051" stroke-linecap="square" />
    <line id="pi-310" x1="10.417" y1="12.808" x2="10.417" y2="12.808" stroke="black" stroke-width="0.051" stroke-linecap="square" />
    <line id="pi-311" x1="9.508" y1="12.808" x2="10.339" y2="12.808" stroke="black" stroke-width="0.051" stroke-linecap="square" />
    <line id="pi-312" x1="9.43" y1="12.808" x2="9.43" y2="12.808" stroke="black" stroke-width="0.051" stroke-linecap="square" />
    <line id="pi-458" x1="-3.526" y1="3.507" x2="-3.231" y2="4.579" stroke="black" stroke-width="0.051" stroke-linecap="square" />
    <line id="pi-459" x1="-2.734" y1="4.732" x2="-2.734" y2="5.49" stroke="black" stroke-width="0.051" stroke-linecap="square" />
    <line id="pi-460" x1="-3.132" y1="4.654" x2="-2.788" y2="4.654" stroke="black" stroke-width="0.051" stroke-linecap="square" />
    <line id="pi-462" x1="-1.593" y1="4.682" x2="-1.588" y2="4.685" stroke="black" stroke-width="0.051" stroke-linecap="square" />
    <line id="pi-463" x1="-2.096" y1="4.654" x2="-2.096" y2="4.654" stroke="black" stroke-width="0.051" stroke-linecap="square" />
    <line id="pi-464" x1="-2.174" y1="4.654" x2="-2.656" y2="4.654" stroke="black" stroke-width="0.051" stroke-linecap="square" />
    <line id="pi-466" x1="-1.7" y1="4.654" x2="-2.042" y2="4.654" stroke="black" stroke-width="0.051" stroke-linecap="square" />
    <line id="pi-628" x1="-11.712" y1="5.531" x2="-11.712" y2="6.648" stroke="black" stroke-width="0.102" stroke-linecap="square" />
    <line id="pi-732" x1="-5.545" y1="-2.604" x2="-5.545" y2="2.738" stroke="black" stroke-width="0.102" stroke-linecap="square" />
    <line id="pi-841" x1="-6.069" y1="5.193" x2="-6.023" y2="5.193" stroke="black" stroke-width="0.051" stroke-linecap="square" />
    <line id="pi-868" x1="-11.938" y1="10.235" x2="-11.952" y2="10.235" stroke="black" stroke-width="0.013" stroke-linecap="square" />
    <line id="pi-872" x1="-11.938" y1="6.555" x2="-11.952" y2="6.555" stroke="black" stroke-width="0.013" stroke-linecap="square" />
    <line id="pi-873" x1="-6.023" y1="5.294" x2="-6.08" y2="5.294" stroke="black" stroke-width="0.013" stroke-linecap="square" />
    <line id="pi-874" x1="-6.023" y1="5.091" x2="-6.047" y2="5.091" stroke="black" stroke-width="0.013" stroke-linecap="square" />
    <line id="pi-875" x1="-6.039" y1="1.613" x2="-6.086" y2="1.613" stroke="black" stroke-width="0.013" stroke-linecap="square" />
    <line id="pi-876" x1="-6.039" y1="1.41" x2="-6.086" y2="1.41" stroke="black" stroke-width="0.013" stroke-linecap="square" />
    <line id="pi-877" x1="-11.967" y1="8.185" x2="-11.967" y2="6.569" stroke="black" stroke-width="0.013" stroke-linecap="square" />
    <line id="pi-878" x1="-11.967" y1="6.555" x2="-11.967" y2="6.555" stroke="black" stroke-width="0.013" stroke-linecap="square" />
    <line id="pi-879" x1="-11.967" y1="10.235" x2="-11.967" y2="10.235" stroke="black" stroke-width="0.013" stroke-linecap="square" />
    <line id="pi-989" x1="10.316" y1="12.71" x2="10.316" y2="12.825" stroke="black" stroke-width="0.013" stroke-linecap="square" />
    <line id="pi-990" x1="9.308" y1="12.84" x2="6.509" y2="12.84" stroke="black" stroke-width="0.013" stroke-linecap="square" />
    <line id="pi-991" x1="9.328" y1="12.819" x2="9.328" y2="12.71" stroke="black" stroke-width="0.013" stroke-linecap="square" />
    <line id="pi-992" x1="10.301" y1="12.84" x2="9.349" y2="12.84" stroke="black" stroke-width="0.013" stroke-linecap="square" />
    <line id="pi-993" x1="6.494" y1="12.84" x2="6.494" y2="12.84" stroke="black" stroke-width="0.013" stroke-linecap="square" />
    <line id="pi-996" x1="6.48" y1="12.84" x2="6.288" y2="12.84" stroke="black" stroke-width="0.013" stroke-linecap="square" />
    <line id="pi-1443" x1="-9.22" y1="10.992" x2="-9.22" y2="10.992" stroke="black" stroke-width="0.025" stroke-linecap="square" />
    <line id="pi-1445" x1="-17.145" y1="10.805" x2="-17.145" y2="10.805" stroke="black" stroke-width="0.013" stroke-linecap="square" />
    <line id="pi-1448" x1="-9.22" y1="10.828" x2="-9.22" y2="10.828" stroke="black" stroke-width="0.025" stroke-linecap="square" />
    <line id="pi-1450" x1="-20.498" y1="12.633" x2="-20.498" y2="12.633" stroke="black" stroke-width="0.013" stroke-linecap="square" />
    <line id="pi-1473" x1="-3.734" y1="10.828" x2="-3.734" y2="10.828" stroke="black" stroke-width="0.013" stroke-linecap="square" />
    <line id="pi-1474" x1="-3.602" y1="10.828" x2="-3.713" y2="10.828" stroke="black" stroke-width="0.025" stroke-linecap="square" />
    <line id="pi-1475" x1="-3.581" y1="10.828" x2="-3.581" y2="10.828" stroke="black" stroke-width="0.025" stroke-linecap="square" />
    <line id="pi-1476" x1="-3.581" y1="10.946" x2="-3.581" y2="10.946" stroke="black" stroke-width="0.025" stroke-linecap="square" />
    <line id="pi-1559" x1="6.426" y1="12.633" x2="6.426" y2="12.633" stroke="black" stroke-width="0.025" stroke-linecap="square" />
    <line id="pi-1560" x1="11.56" y1="12.725" x2="11.56" y2="12.825" stroke="black" stroke-width="0.013" stroke-linecap="square" />
    <line id="pi-1561" x1="11.546" y1="12.84" x2="10.539" y2="12.84" stroke="black" stroke-width="0.013" stroke-linecap="square" />
    <line id="pi-1562" x1="7.88" y1="12.725" x2="7.88" y2="12.819" stroke="black" stroke-width="0.013" stroke-linecap="square" />
    <line id="pi-1563" x1="10.519" y1="12.71" x2="10.519" y2="12.825" stroke="black" stroke-width="0.013" stroke-linecap="square" />
    <line id="pi-1564" x1="10.519" y1="12.84" x2="10.519" y2="12.84" stroke="black" stroke-width="0.013" stroke-linecap="square" />
    <line id="pi-1565" x1="9.531" y1="12.71" x2="9.531" y2="12.825" stroke="black" stroke-width="0.013" stroke-linecap="square" />
    <line id="pi-1566" x1="9.531" y1="12.84" x2="9.531" y2="12.84" stroke="black" stroke-width="0.013" stroke-linecap="square" />
    <line id="pi-1567" x1="6.426" y1="12.633" x2="6.426" y2="12.633" stroke="black" stroke-width="0.025" stroke-linecap="square" />
    <line id="pi-1568" x1="6.426" y1="12.633" x2="6.426" y2="12.633" stroke="black" stroke-width="0.025" stroke-linecap="square" />
    <line id="pi-1569" x1="-6.101" y1="2.624" x2="-6.101" y2="1.627" stroke="black" stroke-width="0.013" stroke-linecap="square" />
    <line id="pi-1570" x1="-6.053" y1="2.645" x2="-6.086" y2="2.645" stroke="black" stroke-width="0.013" stroke-linecap="square" />
    <line id="pi-1571" x1="-6.101" y1="2.645" x2="-6.101" y2="2.645" stroke="black" stroke-width="0.013" stroke-linecap="square" />
    <line id="pi-1572" x1="-6.101" y1="3.662" x2="-6.101" y2="2.665" stroke="black" stroke-width="0.013" stroke-linecap="square" />
    <line id="pi-1573" x1="-6.053" y1="3.683" x2="-6.086" y2="3.683" stroke="black" stroke-width="0.013" stroke-linecap="square" />
    <line id="pi-1574" x1="-6.101" y1="3.683" x2="-6.101" y2="3.683" stroke="black" stroke-width="0.013" stroke-linecap="square" />
    <line id="pi-1575" x1="-6.101" y1="5.274" x2="-6.101" y2="3.704" stroke="black" stroke-width="0.013" stroke-linecap="square" />
    <line id="pi-1576" x1="-6.101" y1="5.112" x2="-6.101" y2="5.604" stroke="black" stroke-width="0.013" stroke-linecap="square" />
    <line id="pi-1577" x1="-6.101" y1="1.41" x2="-6.101" y2="1.41" stroke="black" stroke-width="0.013" stroke-linecap="square" />
    <line id="pi-1578" x1="-6.08" y1="5.091" x2="-6.075" y2="5.091" stroke="black" stroke-width="0.013" stroke-linecap="square" />
    <line id="pi-1579" x1="-6.061" y1="5.091" x2="-6.061" y2="5.091" stroke="black" stroke-width="0.013" stroke-linecap="square" />
    <line id="pi-1580" x1="-6.101" y1="1.424" x2="-6.101" y2="5.071" stroke="black" stroke-width="0.013" stroke-linecap="square" />
    <line id="pi-1581" x1="-6.086" y1="5.618" x2="-5.988" y2="5.618" stroke="black" stroke-width="0.013" stroke-linecap="square" />
    <line id="pi-1582" x1="-5.974" y1="5.632" x2="-5.974" y2="6.036" stroke="black" stroke-width="0.013" stroke-linecap="square" />
    <line id="pi-1583" x1="-5.988" y1="6.05" x2="-6.086" y2="6.05" stroke="black" stroke-width="0.013" stroke-linecap="square" />
    <line id="pi-1584" x1="-6.101" y1="6.064" x2="-6.101" y2="10.957" stroke="black" stroke-width="0.013" stroke-linecap="square" />
    <line id="pi-1585" x1="-6.086" y1="10.971" x2="-3.9" y2="10.971" stroke="black" stroke-width="0.013" stroke-linecap="square" />
    <line id="pi-1586" x1="-6.101" y1="10.971" x2="-6.101" y2="10.971" stroke="black" stroke-width="0.013" stroke-linecap="square" />
    <line id="pi-1587" x1="-3.886" y1="10.957" x2="-3.886" y2="10.843" stroke="black" stroke-width="0.013" stroke-linecap="square" />
    <line id="pi-1588" x1="-3.886" y1="10.971" x2="-3.886" y2="10.971" stroke="black" stroke-width="0.013" stroke-linecap="square" />
    <line id="pi-1590" x1="-6.101" y1="5.315" x2="-6.101" y2="5.604" stroke="black" stroke-width="0.013" stroke-linecap="square" />
    <line id="pi-1591" x1="-6.086" y1="5.618" x2="-5.988" y2="5.618" stroke="black" stroke-width="0.013" stroke-linecap="square" />
    <line id="pi-1592" x1="-5.974" y1="5.632" x2="-5.974" y2="6.036" stroke="black" stroke-width="0.013" stroke-linecap="square" />
    <line id="pi-1593" x1="-5.988" y1="6.05" x2="-6.086" y2="6.05" stroke="black" stroke-width="0.013" stroke-linecap="square" />
    <line id="pi-1594" x1="-6.101" y1="6.064" x2="-6.101" y2="10.957" stroke="black" stroke-width="0.013" stroke-linecap="square" />
    <line id="pi-1595" x1="-3.581" y1="10.925" x2="-3.581" y2="10.849" stroke="black" stroke-width="0.025" stroke-linecap="square" />
    <line id="pi-1596" x1="-3.581" y1="10.828" x2="-3.581" y2="10.828" stroke="black" stroke-width="0.025" stroke-linecap="square" />
    <line id="pi-1597" x1="-3.581" y1="10.862" x2="-3.581" y2="10.957" stroke="black" stroke-width="0.013" stroke-linecap="square" />
    <line id="pi-1598" x1="-3.581" y1="10.971" x2="-3.581" y2="10.971" stroke="black" stroke-width="0.013" stroke-linecap="square" />
    <line id="pi-1599" x1="-3.912" y1="10.971" x2="-3.596" y2="10.971" stroke="black" stroke-width="0.013" stroke-linecap="square" />
    <line id="pi-1600" x1="-3.581" y1="10.828" x2="-3.581" y2="10.828" stroke="black" stroke-width="0.025" stroke-linecap="square" />
    <line id="pi-1601" x1="-11.938" y1="8.99" x2="-11.952" y2="8.99" stroke="black" stroke-width="0.013" stroke-linecap="square" />
    <line id="pi-1602" x1="-11.967" y1="8.99" x2="-11.967" y2="8.99" stroke="black" stroke-width="0.013" stroke-linecap="square" />
    <line id="pi-1603" x1="-11.967" y1="9.011" x2="-11.968" y2="10.978" stroke="black" stroke-width="0.013" stroke-linecap="square" />
    <line id="pi-1604" x1="-11.967" y1="8.969" x2="-11.967" y2="8.017" stroke="black" stroke-width="0.013" stroke-linecap="square" />
    <line id="pi-1605" x1="-11.967" y1="8.003" x2="-11.967" y2="8.003" stroke="black" stroke-width="0.013" stroke-linecap="square" />
    <line id="pi-1606" x1="-11.952" y1="8.003" x2="-11.938" y2="8.003" stroke="black" stroke-width="0.013" stroke-linecap="square" />
    <line id="pi-1607" x1="-11.938" y1="9.193" x2="-11.952" y2="9.193" stroke="black" stroke-width="0.013" stroke-linecap="square" />
    <line id="pi-1608" x1="-11.967" y1="9.193" x2="-11.967" y2="9.193" stroke="black" stroke-width="0.013" stroke-linecap="square" />
    <line id="pi-1609" x1="-11.967" y1="10.214" x2="-11.967" y2="9.214" stroke="black" stroke-width="0.013" stroke-linecap="square" />
    <line id="pi-1610" x1="-11.938" y1="8.206" x2="-11.952" y2="8.206" stroke="black" stroke-width="0.013" stroke-linecap="square" />
    <line id="pi-1611" x1="-11.967" y1="8.206" x2="-11.967" y2="8.206" stroke="black" stroke-width="0.013" stroke-linecap="square" />
    <line id="pi-1612" x1="-11.967" y1="9.173" x2="-11.967" y2="8.226" stroke="black" stroke-width="0.013" stroke-linecap="square" />
    <line id="pi-1613" x1="-11.967" y1="10.255" x2="-11.967" y2="10.978" stroke="black" stroke-width="0.013" stroke-linecap="square" />
    <line id="pi-1614" x1="-11.952" y1="10.992" x2="-9.311" y2="10.992" stroke="black" stroke-width="0.013" stroke-linecap="square" />
    <line id="pi-1615" x1="-9.22" y1="10.828" x2="-9.22" y2="10.828" stroke="black" stroke-width="0.025" stroke-linecap="square" />
    <line id="pi-1616" x1="-9.22" y1="10.971" x2="-9.22" y2="10.849" stroke="black" stroke-width="0.025" stroke-linecap="square" />
    <line id="pi-1617" x1="-9.22" y1="10.862" x2="-9.22" y2="10.978" stroke="black" stroke-width="0.013" stroke-linecap="square" />
    <line id="pi-1618" x1="-9.22" y1="10.828" x2="-9.22" y2="10.828" stroke="black" stroke-width="0.025" stroke-linecap="square" />
    <line id="pi-1619" x1="-9.234" y1="10.992" x2="-9.282" y2="10.992" stroke="black" stroke-width="0.013" stroke-linecap="square" />
    <line id="pi-1620" x1="-9.296" y1="10.992" x2="-9.296" y2="10.992" stroke="black" stroke-width="0.013" stroke-linecap="square" />
    <line id="pi-1621" x1="-9.387" y1="10.992" x2="-11.954" y2="10.992" stroke="black" stroke-width="0.013" stroke-linecap="square" />
    <line id="pi-1622" x1="-9.373" y1="10.843" x2="-9.373" y2="10.978" stroke="black" stroke-width="0.013" stroke-linecap="square" />
    <line id="pi-1624" x1="-9.373" y1="10.992" x2="-9.373" y2="10.992" stroke="black" stroke-width="0.013" stroke-linecap="square" />
    <line id="pi-1645" x1="-17.297" y1="10.805" x2="-17.297" y2="10.805" stroke="black" stroke-width="0.013" stroke-linecap="square" />
    <line id="pi-1672" x1="-20.65" y1="12.633" x2="-20.65" y2="12.633" stroke="black" stroke-width="0.013" stroke-linecap="square" />
    <line id="pi-1696" x1="-3.94" y1="10.971" x2="-6.042" y2="10.971" stroke="black" stroke-width="0.013" stroke-linecap="square" />
    <line id="pi-1697" x1="-3.926" y1="10.971" x2="-3.926" y2="10.971" stroke="black" stroke-width="0.013" stroke-linecap="square" />
    <line id="pi-1698" x1="-6.056" y1="10.971" x2="-6.056" y2="10.971" stroke="black" stroke-width="0.013" stroke-linecap="square" />
    <line id="pi-1699" x1="-6.086" y1="10.971" x2="-6.071" y2="10.971" stroke="black" stroke-width="0.013" stroke-linecap="square" />
    <line id="pi-2996" x1="-2.812" y1="5.625" x2="-2.774" y2="5.588" stroke="black" stroke-width="0.051" stroke-linecap="square" />
  </g>
</svg>