<?xml version="1.0" encoding="utf-8"?>
<svg xmlns="http://www.w3.org/2000/svg" viewBox="-30.829 -13.68 52.812 25.292">
  <g transform="scale(1,-1)">
    <line id="du-46" x1="5.712" y1="12.063" x2="5.712" y2="12.192" stroke="black" stroke-width="0.102" stroke-linecap="square" />
    <line id="du-47" x1="6.469" y1="4.45" x2="6.469" y2="4.45" stroke="black" stroke-width="0.102" stroke-linecap="square" />
    <line id="du-48" x1="6.317" y1="4.45" x2="5.864" y2="4.45" stroke="black" stroke-width="0.102" stroke-linecap="square" />
    <line id="du-49" x1="5.712" y1="6.564" x2="5.712" y2="11.632" stroke="black" stroke-width="0.102" stroke-linecap="square" />
    <line id="du-50" x1="5.712" y1="5.659" x2="5.712" y2="6.139" stroke="black" stroke-width="0.102" stroke-linecap="square" />
    <line id="du-51" x1="5.712" y1="11.955" x2="5.712" y2="11.74" stroke="black" stroke-width="0.102" stroke-linecap="square" />
    <line id="du-52" x1="5.712" y1="4.602" x2="5.712" y2="5.379" stroke="black" stroke-width="0.102" stroke-linecap="square" />
    <line id="du-53" x1="5.712" y1="5.456" x2="5.712" y2="5.583" stroke="black" stroke-width="0.102" stroke-linecap="square" />
    <line id="du-54" x1="5.712" y1="6.456" x2="5.712" y2="6.247" stroke="black" stroke-width="0.102" stroke-linecap="square" />
    <line id="du-55" x1="5.915" y1="13.037" x2="5.915" y2="12.522" stroke="black" stroke-width="0.102" stroke-linecap="square" />
    <line id="du-56" x1="5.87" y1="12.414" x2="5.756" y2="12.3" stroke="black" stroke-width="0.102" stroke-linecap="square" />
    <line id="du-57" x1="-8.879" y1="3.389" x2="-8.879" y2="3.389" stroke="black" stroke-width="0.102" stroke-linecap="square" />
    <line id="du-58" x1="-4.408" y1="3.637" x2="-4.408" y2="3.637" stroke="black" stroke-width="0.102" stroke-linecap="square" />
    <line id="du-59" x1="-4.408" y1="3.79" x2="-4.408" y2="5.923" stroke="black" stroke-width="0.102" stroke-linecap="square" />
    <line id="du-60" x1="-4.256" y1="6.075" x2="-2.184" y2="6.075" stroke="black" stroke-width="0.102" stroke-linecap="square" />
    <line id="du-61" x1="-2.032" y1="6.227" x2="-2.032" y2="8.539" stroke="black" stroke-width="0.102" stroke-linecap="square" />
    <line id="du-62" x1="-0.511" y1="13.037" x2="-0.511" y2="12.63" stroke="black" stroke-width="0.102" stroke-linecap="square" />
    <line id="du-63" x1="-0.359" y1="12.478" x2="0.533" y2="12.478" stroke="black" stroke-width="0.102" stroke-linecap="square" />
    <line id="du-64" x1="-1.88" y1="8.691" x2="0.699" y2="8.691" stroke="black" stroke-width="0.102" stroke-linecap="square" />
    <line id="du-65" x1="0.851" y1="8.691" x2="0.851" y2="8.691" stroke="black" stroke-width="0.102" stroke-linecap="square" />
    <line id="du-66" x1="0.851" y1="8.844" x2="0.851" y2="12.164" stroke="black" stroke-width="0.102" stroke-linecap="square" />
    <line id="du-67" x1="0.749" y1="12.265" x2="0.737" y2="12.265" stroke="black" stroke-width="0.102" stroke-linecap="square" />
    <line id="du-68" x1="0.635" y1="12.376" x2="0.635" y2="12.367" stroke="black" stroke-width="0.102" stroke-linecap="square" />
    <line id="du-69" x1="-9.35" y1="6.839" x2="-9.35" y2="11.856" stroke="black" stroke-width="0.102" stroke-linecap="square" />
    <line id="du-70" x1="-9.031" y1="6.687" x2="-9.198" y2="6.687" stroke="black" stroke-width="0.102" stroke-linecap="square" />
    <line id="du-71" x1="-8.879" y1="3.542" x2="-8.879" y2="5.257" stroke="black" stroke-width="0.102" stroke-linecap="square" />
    <line id="du-72" x1="-8.879" y1="5.364" x2="-8.879" y2="5.471" stroke="black" stroke-width="0.102" stroke-linecap="square" />
    <line id="du-73" x1="-8.879" y1="5.578" x2="-8.879" y2="6.112" stroke="black" stroke-width="0.102" stroke-linecap="square" />
    <line id="du-74" x1="-8.879" y1="6.22" x2="-8.879" y2="6.326" stroke="black" stroke-width="0.102" stroke-linecap="square" />
    <line id="du-75" x1="-8.879" y1="6.434" x2="-8.879" y2="6.534" stroke="black" stroke-width="0.102" stroke-linecap="square" />
    <line id="du-76" x1="-9.35" y1="11.964" x2="-9.35" y2="12.179" stroke="black" stroke-width="0.102" stroke-linecap="square" />
    <line id="du-77" x1="-9.35" y1="12.287" x2="-9.35" y2="13.037" stroke="black" stroke-width="0.102" stroke-linecap="square" />
    <line id="du-82" x1="-9.3" y1="-1.172" x2="-9.3" y2="-1.172" stroke="black" stroke-width="0.102" stroke-linecap="square" />
    <line id="du-83" x1="-9.148" y1="-1.172" x2="-6.996" y2="-1.172" stroke="black" stroke-width="0.102" stroke-linecap="square" />
    <line id="du-84" x1="-6.844" y1="-1.324" x2="-6.844" y2="-3.243" stroke="black" stroke-width="0.102" stroke-linecap="square" />
    <line id="du-85" x1="-6.844" y1="-8.257" x2="-6.844" y2="-8.899" stroke="black" stroke-width="0.102" stroke-linecap="square" />
    <line id="du-86" x1="-6.844" y1="-3.375" x2="-6.844" y2="-3.604" stroke="black" stroke-width="0.102" stroke-linecap="square" />
    <line id="du-87" x1="-6.844" y1="-4.011" x2="-6.844" y2="-3.736" stroke="black" stroke-width="0.102" stroke-linecap="square" />
    <line id="du-88" x1="-6.844" y1="-4.504" x2="-6.844" y2="-7.796" stroke="black" stroke-width="0.102" stroke-linecap="square" />
    <line id="du-89" x1="-6.844" y1="-7.928" x2="-6.844" y2="-8.125" stroke="black" stroke-width="0.102" stroke-linecap="square" />
    <line id="du-112" x1="-6.844" y1="-4.372" x2="-6.844" y2="-4.143" stroke="black" stroke-width="0.102" stroke-linecap="square" />
    <line id="du-144" x1="-16.485" y1="13.037" x2="-16.485" y2="12.554" stroke="black" stroke-width="0.102" stroke-linecap="square" />
    <line id="du-145" x1="-16.637" y1="12.402" x2="-16.993" y2="12.402" stroke="black" stroke-width="0.102" stroke-linecap="square" />
    <line id="du-154" x1="15.699" y1="12.735" x2="15.699" y2="13.037" stroke="black" stroke-width="0.102" stroke-linecap="square" />
  </g>
</svg>