<?xml version="1.0" encoding="utf-8"?>
<svg xmlns="http://www.w3.org/2000/svg" viewBox="-133.85 188.888 22.611 13.501">
  <g transform="scale(1,-1)">
    <rect id="mn-1" x="-111.825" y="-196.758" width="0.05" height="0.05" fill="black" transform="rotate(180,-111.8,-196.733)" />
    <rect id="mn-2" x="-111.825" y="-196.783" width="0.05" height="0.05" fill="black" transform="rotate(270,-111.8,-196.758)" />
    <rect id="mn-3" x="-111.842" y="-199.329" width="0.05" height="0.05" fill="black" transform="rotate(180,-111.817,-199.304)" />
    <rect id="mn-4" x="-111.842" y="-199.224" width="0.05" height="0.05" fill="black" transform="rotate(90,-111.817,-199.199)" />
    <rect id="mn-5" x="-111.842" y="-197.723" width="0.05" height="0.05" fill="black" transform="rotate(120,-111.817,-197.698)" />
    <rect id="mn-6" x="-111.842" y="-197.723" width="0.05" height="0.05" fill="black" transform="rotate(240,-111.817,-197.698)" />
    <rect id="mn-7" x="-111.842" y="-198.536" width="0.05" height="0.05" fill="black" transform="rotate(120,-111.817,-198.511)" />
    <rect id="mn-8" x="-111.842" y="-198.536" width="0.05" height="0.05" fill="black" transform="rotate(240,-111.817,-198.511)" />
    <rect id="mn-9" x="-111.842" y="-198.986" width="0.05" height="0.05" fill="black" transform="rotate(180,-111.817,-198.961)" />
    <rect id="mn-10" x="-113.128" y="-198.986" width="0.05" height="0.05" fill="black" transform="rotate(90,-113.103,-198.961)" />
    <rect id="mn-11" x="-113.128" y="-198.986" width="0.05" height="0.05" fill="black" transform="rotate(240,-113.103,-198.961)" />
    <rect id="mn-12" x="-115.193" y="-198.986" width="0.05" height="0.05" fill="black" transform="rotate(240,-115.168,-198.961)" />
    <rect id="mn-13" x="-115.193" y="-198.986" width="0.05" height="0.05" fill="black" transform="rotate(240,-115.168,-198.961)" />
    <rect id="mn-14" x="-115.193" y="-198.163" width="0.05" height="0.05" fill="black" transform="rotate(120,-115.168,-198.138)" />
    <rect id="mn-15" x="-115.193" y="-198.163" width="0.05" height="0.05" fill="black" transform="rotate(270,-115.168,-198.138)" />
    <rect id="mn-16" x="-115.193" y="-198.163" width="0.05" height="0.05" fill="black" transform="rotate(240,-115.168,-198.138)" />
    <rect id="mn-17" x="-115.193" y="-189.438" width="0.05" height="0.05" fill="black" transform="rotate(180,-115.168,-189.413)" />
    <rect id="mn-18" x="-111.789" y="-189.438" width="0.05" height="0.05" fill="black" transform="rotate(90,-111.764,-189.413)" />
    <rect id="mn-19" x="-111.789" y="-193.73" width="0.05" height="0.05" fill="black" transform="rotate(270,-111.764,-193.705)" />
    <rect id="mn-20" x="-111.789" y="-193.373" width="0.05" height="0.05" fill="black" transform="rotate(240,-111.764,-193.348)" />
    <rect id="mn-21" x="-111.789" y="-193.373" width="0.05" height="0.05" fill="black" transform="rotate(180,-111.764,-193.348)" />
    <rect id="mn-22" x="-111.789" y="-193.373" width="0.05" height="0.05" fill="black" transform="rotate(120,-111.764,-193.348)" />
    <rect id="mn-23" x="-111.789" y="-192.23" width="0.05" height="0.05" fill="black" transform="rotate(240,-111.764,-192.205)" />
    <rect id="mn-24" x="-111.789" y="-192.23" width="0.05" height="0.05" fill="black" transform="rotate(180,-111.764,-192.205)" />
    <rect id="mn-25" x="-111.789" y="-192.23" width="0.05" height="0.05" fill="black" transform="rotate(120,-111.764,-192.205)" />
    <rect id="mn-26" x="-111.789" y="-191.087" width="0.05" height="0.05" fill="black" transform="rotate(240,-111.764,-191.062)" />
    <rect id="mn-27" x="-111.789" y="-191.087" width="0.05" height="0.05" fill="black" transform="rotate(180,-111.764,-191.062)" />
    <rect id="mn-28" x="-111.789" y="-191.087" width="0.05" height="0.05" fill="black" transform="rotate(120,-111.764,-191.062)" />
    <rect id="mn-29" x="-111.789" y="-189.944" width="0.05" height="0.05" fill="black" transform="rotate(240,-111.764,-189.919)" />
    <rect id="mn-30" x="-111.789" y="-189.944" width="0.05" height="0.05" fill="black" transform="rotate(180,-111.764,-189.919)" />
    <rect id="mn-31" x="-111.789" y="-189.944" width="0.05" height="0.05" fill="black" transform="rotate(120,-111.764,-189.919)" />
    <rect id="mn-32" x="-115.193" y="-189.944" width="0.05" height="0.05" fill="black" transform="rotate(120,-115.168,-189.919)" />
    <rect id="mn-33" x="-115.193" y="-189.944" width="0.05" height="0.05" fill="black" transform="rotate(270,-115.168,-189.919)" />
    <rect id="mn-34" x="-115.193" y="-189.944" width="0.05" height="0.05" fill="black" transform="rotate(240,-115.168,-189.919)" />
    <rect id="mn-35" x="-115.193" y="-191.087" width="0.05" height="0.05" fill="black" transform="rotate(120,-115.168,-191.062)" />
    <rect id="mn-36" x="-115.193" y="-191.087" width="0.05" height="0.05" fill="black" transform="rotate(270,-115.168,-191.062)" />
    <rect id="mn-37" x="-115.193" y="-191.087" width="0.05" height="0.05" fill="black" transform="rotate(240,-115.168,-191.062)" />
    <rect id="mn-38" x="-115.193" y="-192.23" width="0.05" height="0.05" fill="black" transform="rotate(120,-115.168,-192.205)" />
    <rect id="mn-39" x="-115.193" y="-192.23" width="0.05" height="0.05" fill="black" transform="rotate(270,-115.168,-192.205)" />
    <rect id="mn-40" x="-115.193" y="-192.23" width="0.05" height="0.05" fill="black" transform="rotate(240,-115.168,-192.205)" />
    <rect id="mn-41" x="-115.193" y="-193.373" width="0.05" height="0.05" fill="black" transform="rotate(120,-115.168,-193.348)" />
    <rect id="mn-42" x="-115.193" y="-193.373" width="0.05" height="0.05" fill="black" transform="rotate(270,-115.168,-193.348)" />
    <rect id="mn-43" x="-115.193" y="-193.373" width="0.05" height="0.05" fill="black" transform="rotate(240,-115.168,-193.348)" />
    <rect id="mn-44" x="-115.193" y="-197.02" width="0.05" height="0.05" fill="black" transform="rotate(120,-115.168,-196.995)" />
    <rect id="mn-45" x="-115.193" y="-197.02" width="0.05" height="0.05" fill="black" transform="rotate(270,-115.168,-196.995)" />
    <rect id="mn-46" x="-115.193" y="-197.02" width="0.05" height="0.05" fill="black" transform="rotate(240,-115.168,-196.995)" />
    <rect id="mn-47" x="-115.193" y="-195.299" width="0.05" height="0.05" fill="black" transform="rotate(90,-115.168,-195.274)" />
    <rect id="mn-48" x="-113.009" y="-195.299" width="0.05" height="0.05" fill="black" />
    <rect id="mn-49" x="-114.688" y="-195.299" width="0.05" height="0.05" fill="black" transform="rotate(120,-114.663,-195.274)" />
    <rect id="mn-50" x="-114.688" y="-195.299" width="0.05" height="0.05" fill="black" transform="rotate(90,-114.663,-195.274)" />
    <rect id="mn-51" x="-114.688" y="-195.299" width="0.05" height="0.05" fill="black" transform="rotate(120,-114.663,-195.274)" />
    <rect id="mn-52" x="-113.85" y="-195.299" width="0.05" height="0.05" fill="black" transform="rotate(90,-113.825,-195.274)" />
    <rect id="mn-53" x="-113.85" y="-195.299" width="0.05" height="0.05" fill="black" transform="rotate(240,-113.825,-195.274)" />
    <rect id="mn-54" x="-113.85" y="-195.299" width="0.05" height="0.05" fill="black" transform="rotate(180,-113.825,-195.274)" />
    <rect id="mn-55" x="-113.088" y="-195.299" width="0.05" height="0.05" fill="black" transform="rotate(90,-113.063,-195.274)" />
    <rect id="mn-56" x="-113.088" y="-195.299" width="0.05" height="0.05" fill="black" transform="rotate(240,-113.063,-195.274)" />
    <rect id="mn-57" x="-113.088" y="-195.299" width="0.05" height="0.05" fill="black" transform="rotate(180,-113.063,-195.274)" />
    <rect id="mn-58" x="-115.193" y="-195.058" width="0.05" height="0.05" fill="black" transform="rotate(90,-115.168,-195.033)" />
    <rect id="mn-59" x="-112.983" y="-195.058" width="0.05" height="0.05" fill="black" />
    <rect id="mn-60" x="-114.891" y="-195.058" width="0.05" height="0.05" fill="black" transform="rotate(240,-114.866,-195.033)" />
    <rect id="mn-61" x="-114.891" y="-195.058" width="0.05" height="0.05" fill="black" transform="rotate(90,-114.866,-195.033)" />
    <rect id="mn-62" x="-114.891" y="-195.058" width="0.05" height="0.05" fill="black" transform="rotate(120,-114.866,-195.033)" />
    <rect id="mn-63" x="-114.053" y="-195.058" width="0.05" height="0.05" fill="black" transform="rotate(90,-114.028,-195.033)" />
    <rect id="mn-64" x="-114.053" y="-195.058" width="0.05" height="0.05" fill="black" transform="rotate(120,-114.028,-195.033)" />
    <rect id="mn-65" x="-114.053" y="-195.058" width="0.05" height="0.05" fill="black" transform="rotate(270,-114.028,-195.033)" />
    <rect id="mn-66" x="-113.291" y="-195.058" width="0.05" height="0.05" fill="black" transform="rotate(90,-113.266,-195.033)" />
    <rect id="mn-67" x="-113.291" y="-195.058" width="0.05" height="0.05" fill="black" transform="rotate(120,-113.266,-195.033)" />
    <rect id="mn-68" x="-113.291" y="-195.058" width="0.05" height="0.05" fill="black" transform="rotate(270,-113.266,-195.033)" />
    <rect id="mn-69" x="-111.989" y="-199.33" width="0.05" height="0.05" fill="black" transform="rotate(180,-111.964,-199.305)" />
    <rect id="mn-70" x="-111.989" y="-199.225" width="0.05" height="0.05" fill="black" transform="rotate(90,-111.964,-199.2)" />
    <rect id="mn-71" x="-111.989" y="-199" width="0.05" height="0.05" fill="black" transform="rotate(90,-111.964,-198.975)" />
    <rect id="mn-72" x="-115.215" y="-199" width="0.05" height="0.05" fill="black" transform="rotate(270,-115.19,-198.975)" />
    <rect id="mn-73" x="-115.215" y="-194.986" width="0.05" height="0.05" fill="black" transform="rotate(180,-115.19,-194.961)" />
    <rect id="mn-74" x="-113.088" y="-194.986" width="0.05" height="0.05" fill="black" transform="rotate(90,-113.063,-194.961)" />
    <rect id="mn-75" x="-113.153" y="-194.986" width="0.05" height="0.05" fill="black" />
    <rect id="mn-76" x="-113.088" y="-194.986" width="0.05" height="0.05" fill="black" transform="rotate(270,-113.063,-194.961)" />
    <rect id="mn-77" x="-113.85" y="-194.986" width="0.05" height="0.05" fill="black" transform="rotate(90,-113.825,-194.961)" />
    <rect id="mn-78" x="-113.85" y="-194.986" width="0.05" height="0.05" fill="black" transform="rotate(120,-113.825,-194.961)" />
    <rect id="mn-79" x="-113.85" y="-194.986" width="0.05" height="0.05" fill="black" transform="rotate(270,-113.825,-194.961)" />
    <rect id="mn-80" x="-114.688" y="-194.986" width="0.05" height="0.05" fill="black" transform="rotate(240,-114.663,-194.961)" />
    <rect id="mn-81" x="-114.688" y="-194.986" width="0.05" height="0.05" fill="black" transform="rotate(90,-114.663,-194.961)" />
    <rect id="mn-82" x="-114.688" y="-194.986" width="0.05" height="0.05" fill="black" transform="rotate(120,-114.663,-194.961)" />
    <rect id="mn-83" x="-115.215" y="-195.353" width="0.05" height="0.05" fill="black" transform="rotate(90,-115.19,-195.328)" />
    <rect id="mn-84" x="-113.291" y="-195.353" width="0.05" height="0.05" fill="black" transform="rotate(90,-113.266,-195.328)" />
    <rect id="mn-85" x="-113.357" y="-195.353" width="0.05" height="0.05" fill="black" />
    <rect id="mn-86" x="-113.291" y="-195.353" width="0.05" height="0.05" fill="black" transform="rotate(180,-113.266,-195.328)" />
    <rect id="mn-87" x="-114.053" y="-195.353" width="0.05" height="0.05" fill="black" transform="rotate(120,-114.028,-195.328)" />
    <rect id="mn-88" x="-114.053" y="-195.353" width="0.05" height="0.05" fill="black" transform="rotate(90,-114.028,-195.328)" />
    <rect id="mn-89" x="-114.053" y="-195.353" width="0.05" height="0.05" fill="black" transform="rotate(120,-114.028,-195.328)" />
    <rect id="mn-90" x="-114.891" y="-195.353" width="0.05" height="0.05" fill="black" transform="rotate(120,-114.866,-195.328)" />
    <rect id="mn-91" x="-114.891" y="-195.353" width="0.05" height="0.05" fill="black" transform="rotate(90,-114.866,-195.328)" />
    <rect id="mn-92" x="-114.891" y="-195.353" width="0.05" height="0.05" fill="black" transform="rotate(120,-114.866,-195.328)" />
    <rect id="mn-93" x="-113.128" y="-199.02" width="0.05" height="0.05" fill="black" transform="rotate(270,-113.103,-198.995)" />
    <rect id="mn-94" x="-113.128" y="-198.723" width="0.05" height="0.05" fill="black" />
    <rect id="mn-95" x="-113.128" y="-198.828" width="0.05" height="0.05" fill="black" transform="rotate(270,-113.103,-198.803)" />
    <rect id="mn-96" x="-115.138" y="-198.723" width="0.05" height="0.05" fill="black" transform="rotate(270,-115.113,-198.698)" />
    <rect id="mn-97" x="-114.725" y="-198.163" width="0.05" height="0.05" fill="black" transform="rotate(120,-114.7,-198.138)" />
    <rect id="mn-98" x="-115.138" y="-198.163" width="0.05" height="0.05" fill="black" transform="rotate(180,-115.113,-198.138)" />
    <rect id="mn-99" x="-114.725" y="-197.02" width="0.05" height="0.05" fill="black" transform="rotate(120,-114.7,-196.995)" />
    <rect id="mn-100" x="-115.138" y="-197.02" width="0.05" height="0.05" fill="black" transform="rotate(180,-115.113,-196.995)" />
    <rect id="mn-101" x="-114.725" y="-193.373" width="0.05" height="0.05" fill="black" transform="rotate(120,-114.7,-193.348)" />
    <rect id="mn-102" x="-115.138" y="-193.373" width="0.05" height="0.05" fill="black" transform="rotate(180,-115.113,-193.348)" />
    <rect id="mn-103" x="-114.725" y="-192.23" width="0.05" height="0.05" fill="black" transform="rotate(120,-114.7,-192.205)" />
    <rect id="mn-104" x="-115.138" y="-192.23" width="0.05" height="0.05" fill="black" transform="rotate(180,-115.113,-192.205)" />
    <rect id="mn-105" x="-114.725" y="-191.087" width="0.05" height="0.05" fill="black" transform="rotate(120,-114.7,-191.062)" />
    <rect id="mn-106" x="-115.138" y="-191.087" width="0.05" height="0.05" fill="black" transform="rotate(180,-115.113,-191.062)" />
    <rect id="mn-107" x="-114.725" y="-189.944" width="0.05" height="0.05" fill="black" transform="rotate(120,-114.7,-189.919)" />
    <rect id="mn-108" x="-115.138" y="-189.944" width="0.05" height="0.05" fill="black" transform="rotate(180,-115.113,-189.919)" />
    <rect id="mn-109" x="-115.138" y="-189.626" width="0.05" height="0.05" fill="black" transform="rotate(90,-115.113,-189.601)" />
    <rect id="mn-110" x="-115.138" y="-194.548" width="0.05" height="0.05" fill="black" transform="rotate(90,-115.113,-194.523)" />
    <rect id="mn-111" x="-112.878" y="-194.548" width="0.05" height="0.05" fill="black" />
    <rect id="mn-112" x="-114.79" y="-194.796" width="0.05" height="0.05" fill="black" transform="rotate(270,-114.765,-194.771)" />
    <rect id="mn-113" x="-114.79" y="-194.548" width="0.05" height="0.05" fill="black" />
    <rect id="mn-114" x="-114.79" y="-194.653" width="0.05" height="0.05" fill="black" transform="rotate(270,-114.765,-194.628)" />
    <rect id="mn-115" x="-113.951" y="-194.796" width="0.05" height="0.05" fill="black" transform="rotate(270,-113.926,-194.771)" />
    <rect id="mn-116" x="-113.951" y="-194.548" width="0.05" height="0.05" fill="black" />
    <rect id="mn-117" x="-113.951" y="-194.653" width="0.05" height="0.05" fill="black" transform="rotate(270,-113.926,-194.628)" />
    <rect id="mn-118" x="-113.189" y="-194.796" width="0.05" height="0.05" fill="black" transform="rotate(270,-113.164,-194.771)" />
    <rect id="mn-119" x="-113.189" y="-194.548" width="0.05" height="0.05" fill="black" />
    <rect id="mn-120" x="-113.189" y="-194.653" width="0.05" height="0.05" fill="black" transform="rotate(270,-113.164,-194.628)" />
    <rect id="mn-121" x="-115.138" y="-195.842" width="0.05" height="0.05" fill="black" transform="rotate(90,-115.113,-195.817)" />
    <rect id="mn-122" x="-112.878" y="-195.842" width="0.05" height="0.05" fill="black" />
    <rect id="mn-123" x="-114.79" y="-195.57" width="0.05" height="0.05" fill="black" transform="rotate(180,-114.765,-195.545)" />
    <rect id="mn-124" x="-114.79" y="-195.842" width="0.05" height="0.05" fill="black" transform="rotate(180,-114.765,-195.817)" />
    <rect id="mn-125" x="-114.79" y="-195.737" width="0.05" height="0.05" fill="black" transform="rotate(90,-114.765,-195.712)" />
    <rect id="mn-126" x="-113.189" y="-195.57" width="0.05" height="0.05" fill="black" transform="rotate(180,-113.164,-195.545)" />
    <rect id="mn-127" x="-113.189" y="-195.842" width="0.05" height="0.05" fill="black" transform="rotate(180,-113.164,-195.817)" />
    <rect id="mn-128" x="-113.189" y="-195.737" width="0.05" height="0.05" fill="black" transform="rotate(90,-113.164,-195.712)" />
    <rect id="mn-129" x="-113.951" y="-195.57" width="0.05" height="0.05" fill="black" transform="rotate(180,-113.926,-195.545)" />
    <rect id="mn-130" x="-113.951" y="-195.842" width="0.05" height="0.05" fill="black" transform="rotate(180,-113.926,-195.817)" />
    <rect id="mn-131" x="-113.951" y="-195.737" width="0.05" height="0.05" fill="black" transform="rotate(90,-113.926,-195.712)" />
    <rect id="mn-132" x="-112.136" y="-199.329" width="0.05" height="0.05" fill="black" transform="rotate(180,-112.111,-199.304)" />
    <rect id="mn-133" x="-111.791" y="-198.536" width="0.05" height="0.05" fill="black" transform="rotate(120,-111.766,-198.511)" />
    <rect id="mn-134" x="-112.136" y="-198.536" width="0.05" height="0.05" fill="black" transform="rotate(180,-112.111,-198.511)" />
    <rect id="mn-135" x="-112.031" y="-198.536" width="0.05" height="0.05" fill="black" transform="rotate(90,-112.006,-198.511)" />
    <rect id="mn-136" x="-111.791" y="-197.723" width="0.05" height="0.05" fill="black" transform="rotate(120,-111.766,-197.698)" />
    <rect id="mn-137" x="-112.136" y="-197.723" width="0.05" height="0.05" fill="black" transform="rotate(180,-112.111,-197.698)" />
    <rect id="mn-138" x="-112.031" y="-197.723" width="0.05" height="0.05" fill="black" transform="rotate(90,-112.006,-197.698)" />
    <rect id="mn-139" x="-111.791" y="-196.758" width="0.05" height="0.05" fill="black" transform="rotate(120,-111.766,-196.733)" />
    <rect id="mn-140" x="-112.136" y="-196.758" width="0.05" height="0.05" fill="black" transform="rotate(180,-112.111,-196.733)" />
    <rect id="mn-141" x="-112.031" y="-196.758" width="0.05" height="0.05" fill="black" transform="rotate(90,-112.006,-196.733)" />
    <rect id="mn-142" x="-112.49" y="-198.723" width="0.05" height="0.05" fill="black" transform="rotate(90,-112.465,-198.698)" />
    <rect id="mn-143" x="-112.136" y="-198.977" width="0.05" height="0.05" fill="black" transform="rotate(270,-112.111,-198.952)" />
    <rect id="mn-144" x="-112.49" y="-198.977" width="0.05" height="0.05" fill="black" transform="rotate(270,-112.465,-198.952)" />
    <rect id="mn-145" x="-112.136" y="-194.087" width="0.05" height="0.05" fill="black" transform="rotate(180,-112.111,-194.062)" />
    <rect id="mn-146" x="-111.831" y="-194.087" width="0.05" height="0.05" fill="black" />
    <rect id="mn-147" x="-111.831" y="-189.668" width="0.05" height="0.05" fill="black" transform="rotate(90,-111.806,-189.643)" />
    <rect id="mn-148" x="-112.284" y="-193.373" width="0.05" height="0.05" fill="black" transform="rotate(240,-112.259,-193.348)" />
    <rect id="mn-149" x="-111.831" y="-193.373" width="0.05" height="0.05" fill="black" transform="rotate(180,-111.806,-193.348)" />
    <rect id="mn-150" x="-112.284" y="-192.23" width="0.05" height="0.05" fill="black" transform="rotate(240,-112.259,-192.205)" />
    <rect id="mn-151" x="-111.831" y="-192.23" width="0.05" height="0.05" fill="black" transform="rotate(180,-111.806,-192.205)" />
    <rect id="mn-152" x="-112.284" y="-191.087" width="0.05" height="0.05" fill="black" transform="rotate(240,-112.259,-191.062)" />
    <rect id="mn-153" x="-111.831" y="-191.087" width="0.05" height="0.05" fill="black" transform="rotate(180,-111.806,-191.062)" />
    <rect id="mn-154" x="-112.284" y="-189.944" width="0.05" height="0.05" fill="black" transform="rotate(240,-112.259,-189.919)" />
    <rect id="mn-155" x="-111.831" y="-189.944" width="0.05" height="0.05" fill="black" transform="rotate(180,-111.806,-189.919)" />
    <rect id="mn-805" x="-132.72" y="-201.889" width="0.05" height="0.05" fill="black" transform="rotate(270,-132.695,-201.864)" />
    <rect id="mn-806" x="-132.72" y="-201.315" width="0.05" height="0.05" fill="black" transform="rotate(180,-132.695,-201.29)" />
    <rect id="mn-807" x="-132.72" y="-201.42" width="0.05" height="0.05" fill="black" transform="rotate(270,-132.695,-201.395)" />
    <rect id="mn-808" x="-133.235" y="-201.889" width="0.05" height="0.05" fill="black" transform="rotate(270,-133.21,-201.864)" />
    <rect id="mn-809" x="-133.235" y="-201.315" width="0.05" height="0.05" fill="black" transform="rotate(180,-133.21,-201.29)" />
    <rect id="mn-810" x="-133.235" y="-201.42" width="0.05" height="0.05" fill="black" transform="rotate(270,-133.21,-201.395)" />
    <rect id="mn-811" x="-131.646" y="-201.889" width="0.05" height="0.05" fill="black" transform="rotate(270,-131.621,-201.864)" />
    <rect id="mn-812" x="-131.646" y="-201.315" width="0.05" height="0.05" fill="black" transform="rotate(180,-131.621,-201.29)" />
    <rect id="mn-813" x="-131.646" y="-201.42" width="0.05" height="0.05" fill="black" transform="rotate(270,-131.621,-201.395)" />
    <rect id="mn-814" x="-132.16" y="-201.889" width="0.05" height="0.05" fill="black" transform="rotate(270,-132.135,-201.864)" />
    <rect id="mn-815" x="-132.16" y="-201.315" width="0.05" height="0.05" fill="black" transform="rotate(180,-132.135,-201.29)" />
    <rect id="mn-816" x="-132.16" y="-201.42" width="0.05" height="0.05" fill="black" transform="rotate(270,-132.135,-201.395)" />
  </g>
</svg>