<?xml version="1.0" encoding="utf-8"?>
<svg xmlns="http://www.w3.org/2000/svg" viewBox="-133.85 188.888 22.611 13.501">
  <g transform="scale(1,-1)">
    <line id="pi-1" x1="-111.817" y1="-199.304" x2="-111.817" y2="-199.304" stroke="black" stroke-width="0.102" stroke-linecap="square" />
    <line id="pi-2" x1="-111.964" y1="-199.305" x2="-111.964" y2="-199.305" stroke="black" stroke-width="0.102" stroke-linecap="square" />
    <line id="pi-3" x1="-112.111" y1="-199.304" x2="-112.111" y2="-199.304" stroke="black" stroke-width="0.102" stroke-linecap="square" />
    <line id="pi-4" x1="-115.168" y1="-198.202" x2="-115.168" y2="-198.91" stroke="black" stroke-width="0.051" stroke-linecap="square" />
    <line id="pi-5" x1="-111.8" y1="-196.733" x2="-111.8" y2="-196.733" stroke="black" stroke-width="0.025" stroke-linecap="square" />
    <line id="pi-6" x1="-111.8" y1="-197.698" x2="-111.8" y2="-197.698" stroke="black" stroke-width="0.025" stroke-linecap="square" />
    <line id="pi-7" x1="-111.817" y1="-196.834" x2="-111.817" y2="-197.634" stroke="black" stroke-width="0.051" stroke-linecap="square" />
    <line id="pi-8" x1="-111.8" y1="-198.511" x2="-111.8" y2="-198.511" stroke="black" stroke-width="0.025" stroke-linecap="square" />
    <line id="pi-9" x1="-111.817" y1="-199.025" x2="-111.817" y2="-199.097" stroke="black" stroke-width="0.051" stroke-linecap="square" />
    <line id="pi-10" x1="-111.817" y1="-197.762" x2="-111.817" y2="-198.447" stroke="black" stroke-width="0.051" stroke-linecap="square" />
    <line id="pi-11" x1="-111.817" y1="-198.575" x2="-111.817" y2="-198.897" stroke="black" stroke-width="0.051" stroke-linecap="square" />
    <line id="pi-12" x1="-113.103" y1="-198.961" x2="-113.103" y2="-198.961" stroke="black" stroke-width="0.025" stroke-linecap="square" />
    <line id="pi-13" x1="-113.167" y1="-198.961" x2="-115.117" y2="-198.961" stroke="black" stroke-width="0.051" stroke-linecap="square" />
    <line id="pi-14" x1="-111.881" y1="-198.961" x2="-113.039" y2="-198.961" stroke="black" stroke-width="0.051" stroke-linecap="square" />
    <line id="pi-15" x1="-115.168" y1="-198.961" x2="-115.168" y2="-198.961" stroke="black" stroke-width="0.051" stroke-linecap="square" />
    <line id="pi-16" x1="-115.073" y1="-198.138" x2="-115.153" y2="-198.138" stroke="black" stroke-width="0.013" stroke-linecap="square" />
    <line id="pi-17" x1="-115.168" y1="-198.138" x2="-115.168" y2="-198.138" stroke="black" stroke-width="0.013" stroke-linecap="square" />
    <line id="pi-18" x1="-115.168" y1="-189.855" x2="-115.168" y2="-189.464" stroke="black" stroke-width="0.051" stroke-linecap="square" />
    <line id="pi-19" x1="-115.117" y1="-189.413" x2="-111.815" y2="-189.413" stroke="black" stroke-width="0.051" stroke-linecap="square" />
    <line id="pi-20" x1="-111.764" y1="-193.412" x2="-111.764" y2="-193.705" stroke="black" stroke-width="0.051" stroke-linecap="square" />
    <line id="pi-21" x1="-111.886" y1="-193.348" x2="-111.779" y2="-193.348" stroke="black" stroke-width="0.013" stroke-linecap="square" />
    <line id="pi-22" x1="-111.764" y1="-193.348" x2="-111.764" y2="-193.348" stroke="black" stroke-width="0.013" stroke-linecap="square" />
    <line id="pi-23" x1="-111.764" y1="-192.269" x2="-111.764" y2="-193.284" stroke="black" stroke-width="0.051" stroke-linecap="square" />
    <line id="pi-24" x1="-111.886" y1="-192.205" x2="-111.779" y2="-192.205" stroke="black" stroke-width="0.013" stroke-linecap="square" />
    <line id="pi-25" x1="-111.764" y1="-192.205" x2="-111.764" y2="-192.205" stroke="black" stroke-width="0.013" stroke-linecap="square" />
    <line id="pi-26" x1="-111.764" y1="-191.126" x2="-111.764" y2="-192.141" stroke="black" stroke-width="0.051" stroke-linecap="square" />
    <line id="pi-27" x1="-111.886" y1="-191.062" x2="-111.779" y2="-191.062" stroke="black" stroke-width="0.013" stroke-linecap="square" />
    <line id="pi-28" x1="-111.764" y1="-191.062" x2="-111.764" y2="-191.062" stroke="black" stroke-width="0.013" stroke-linecap="square" />
    <line id="pi-29" x1="-111.764" y1="-189.983" x2="-111.764" y2="-190.998" stroke="black" stroke-width="0.051" stroke-linecap="square" />
    <line id="pi-30" x1="-111.886" y1="-189.919" x2="-111.779" y2="-189.919" stroke="black" stroke-width="0.013" stroke-linecap="square" />
    <line id="pi-31" x1="-111.764" y1="-189.919" x2="-111.764" y2="-189.919" stroke="black" stroke-width="0.013" stroke-linecap="square" />
    <line id="pi-32" x1="-111.764" y1="-189.464" x2="-111.764" y2="-189.855" stroke="black" stroke-width="0.051" stroke-linecap="square" />
    <line id="pi-33" x1="-115.073" y1="-189.919" x2="-115.153" y2="-189.919" stroke="black" stroke-width="0.013" stroke-linecap="square" />
    <line id="pi-34" x1="-115.168" y1="-189.919" x2="-115.168" y2="-189.919" stroke="black" stroke-width="0.013" stroke-linecap="square" />
    <line id="pi-35" x1="-115.168" y1="-190.998" x2="-115.168" y2="-189.983" stroke="black" stroke-width="0.051" stroke-linecap="square" />
    <line id="pi-36" x1="-115.073" y1="-191.062" x2="-115.153" y2="-191.062" stroke="black" stroke-width="0.013" stroke-linecap="square" />
    <line id="pi-37" x1="-115.168" y1="-191.062" x2="-115.168" y2="-191.062" stroke="black" stroke-width="0.013" stroke-linecap="square" />
    <line id="pi-38" x1="-115.168" y1="-192.141" x2="-115.168" y2="-191.126" stroke="black" stroke-width="0.051" stroke-linecap="square" />
    <line id="pi-39" x1="-115.073" y1="-192.205" x2="-115.153" y2="-192.205" stroke="black" stroke-width="0.013" stroke-linecap="square" />
    <line id="pi-40" x1="-115.168" y1="-192.205" x2="-115.168" y2="-192.205" stroke="black" stroke-width="0.013" stroke-linecap="square" />
    <line id="pi-41" x1="-115.168" y1="-193.284" x2="-115.168" y2="-192.269" stroke="black" stroke-width="0.051" stroke-linecap="square" />
    <line id="pi-42" x1="-115.073" y1="-193.348" x2="-115.153" y2="-193.348" stroke="black" stroke-width="0.013" stroke-linecap="square" />
    <line id="pi-43" x1="-115.168" y1="-193.348" x2="-115.168" y2="-193.348" stroke="black" stroke-width="0.013" stroke-linecap="square" />
    <line id="pi-44" x1="-115.168" y1="-194.969" x2="-115.168" y2="-193.412" stroke="black" stroke-width="0.051" stroke-linecap="square" />
    <line id="pi-45" x1="-115.073" y1="-196.995" x2="-115.153" y2="-196.995" stroke="black" stroke-width="0.013" stroke-linecap="square" />
    <line id="pi-46" x1="-115.168" y1="-196.995" x2="-115.168" y2="-196.995" stroke="black" stroke-width="0.013" stroke-linecap="square" />
    <line id="pi-47" x1="-115.168" y1="-198.074" x2="-115.168" y2="-197.059" stroke="black" stroke-width="0.051" stroke-linecap="square" />
    <line id="pi-48" x1="-112.999" y1="-195.274" x2="-112.984" y2="-195.274" stroke="black" stroke-width="0.051" stroke-linecap="square" />
    <line id="pi-49" x1="-115.168" y1="-196.931" x2="-115.168" y2="-195.338" stroke="black" stroke-width="0.051" stroke-linecap="square" />
    <line id="pi-50" x1="-114.663" y1="-195.418" x2="-114.663" y2="-195.289" stroke="black" stroke-width="0.013" stroke-linecap="square" />
    <line id="pi-51" x1="-114.663" y1="-195.274" x2="-114.663" y2="-195.274" stroke="black" stroke-width="0.013" stroke-linecap="square" />
    <line id="pi-52" x1="-115.104" y1="-195.274" x2="-114.727" y2="-195.274" stroke="black" stroke-width="0.051" stroke-linecap="square" />
    <line id="pi-53" x1="-113.825" y1="-195.418" x2="-113.825" y2="-195.289" stroke="black" stroke-width="0.013" stroke-linecap="square" />
    <line id="pi-54" x1="-113.825" y1="-195.274" x2="-113.825" y2="-195.274" stroke="black" stroke-width="0.013" stroke-linecap="square" />
    <line id="pi-55" x1="-114.599" y1="-195.274" x2="-113.889" y2="-195.274" stroke="black" stroke-width="0.051" stroke-linecap="square" />
    <line id="pi-56" x1="-113.063" y1="-195.418" x2="-113.063" y2="-195.289" stroke="black" stroke-width="0.013" stroke-linecap="square" />
    <line id="pi-57" x1="-113.063" y1="-195.274" x2="-113.063" y2="-195.274" stroke="black" stroke-width="0.013" stroke-linecap="square" />
    <line id="pi-58" x1="-113.761" y1="-195.274" x2="-113.127" y2="-195.274" stroke="black" stroke-width="0.051" stroke-linecap="square" />
    <line id="pi-59" x1="-113.202" y1="-195.033" x2="-112.958" y2="-195.033" stroke="black" stroke-width="0.051" stroke-linecap="square" />
    <line id="pi-60" x1="-115.168" y1="-195.21" x2="-115.168" y2="-195.097" stroke="black" stroke-width="0.051" stroke-linecap="square" />
    <line id="pi-61" x1="-114.866" y1="-194.898" x2="-114.866" y2="-195.019" stroke="black" stroke-width="0.013" stroke-linecap="square" />
    <line id="pi-62" x1="-114.866" y1="-195.033" x2="-114.866" y2="-195.033" stroke="black" stroke-width="0.013" stroke-linecap="square" />
    <line id="pi-63" x1="-115.104" y1="-195.033" x2="-114.93" y2="-195.033" stroke="black" stroke-width="0.051" stroke-linecap="square" />
    <line id="pi-64" x1="-114.028" y1="-194.898" x2="-114.028" y2="-195.019" stroke="black" stroke-width="0.013" stroke-linecap="square" />
    <line id="pi-65" x1="-114.028" y1="-195.033" x2="-114.028" y2="-195.033" stroke="black" stroke-width="0.013" stroke-linecap="square" />
    <line id="pi-66" x1="-114.802" y1="-195.033" x2="-114.092" y2="-195.033" stroke="black" stroke-width="0.051" stroke-linecap="square" />
    <line id="pi-67" x1="-113.266" y1="-194.898" x2="-113.266" y2="-195.019" stroke="black" stroke-width="0.013" stroke-linecap="square" />
    <line id="pi-68" x1="-113.266" y1="-195.033" x2="-113.266" y2="-195.033" stroke="black" stroke-width="0.013" stroke-linecap="square" />
    <line id="pi-69" x1="-113.964" y1="-195.033" x2="-113.33" y2="-195.033" stroke="black" stroke-width="0.051" stroke-linecap="square" />
    <line id="pi-70" x1="-111.964" y1="-199.098" x2="-111.964" y2="-199" stroke="black" stroke-width="0.025" stroke-linecap="square" />
    <line id="pi-71" x1="-111.989" y1="-198.975" x2="-115.165" y2="-198.975" stroke="black" stroke-width="0.025" stroke-linecap="square" />
    <line id="pi-72" x1="-115.19" y1="-195.29" x2="-115.19" y2="-194.986" stroke="black" stroke-width="0.025" stroke-linecap="square" />
    <line id="pi-73" x1="-113.787" y1="-194.961" x2="-113.128" y2="-194.961" stroke="black" stroke-width="0.025" stroke-linecap="square" />
    <line id="pi-74" x1="-113.063" y1="-194.898" x2="-113.063" y2="-194.947" stroke="black" stroke-width="0.013" stroke-linecap="square" />
    <line id="pi-75" x1="-113.063" y1="-194.961" x2="-113.063" y2="-194.961" stroke="black" stroke-width="0.013" stroke-linecap="square" />
    <line id="pi-76" x1="-113.825" y1="-194.898" x2="-113.825" y2="-194.947" stroke="black" stroke-width="0.013" stroke-linecap="square" />
    <line id="pi-77" x1="-113.825" y1="-194.961" x2="-113.825" y2="-194.961" stroke="black" stroke-width="0.013" stroke-linecap="square" />
    <line id="pi-78" x1="-114.625" y1="-194.961" x2="-113.863" y2="-194.961" stroke="black" stroke-width="0.025" stroke-linecap="square" />
    <line id="pi-79" x1="-114.663" y1="-194.898" x2="-114.663" y2="-194.947" stroke="black" stroke-width="0.013" stroke-linecap="square" />
    <line id="pi-80" x1="-114.663" y1="-194.961" x2="-114.663" y2="-194.961" stroke="black" stroke-width="0.013" stroke-linecap="square" />
    <line id="pi-81" x1="-115.165" y1="-194.961" x2="-114.701" y2="-194.961" stroke="black" stroke-width="0.025" stroke-linecap="square" />
    <line id="pi-82" x1="-113.99" y1="-195.328" x2="-113.332" y2="-195.328" stroke="black" stroke-width="0.025" stroke-linecap="square" />
    <line id="pi-83" x1="-115.19" y1="-198.95" x2="-115.19" y2="-195.366" stroke="black" stroke-width="0.025" stroke-linecap="square" />
    <line id="pi-84" x1="-113.266" y1="-195.418" x2="-113.266" y2="-195.343" stroke="black" stroke-width="0.013" stroke-linecap="square" />
    <line id="pi-85" x1="-113.266" y1="-195.328" x2="-113.266" y2="-195.328" stroke="black" stroke-width="0.013" stroke-linecap="square" />
    <line id="pi-86" x1="-114.028" y1="-195.418" x2="-114.028" y2="-195.343" stroke="black" stroke-width="0.013" stroke-linecap="square" />
    <line id="pi-87" x1="-114.028" y1="-195.328" x2="-114.028" y2="-195.328" stroke="black" stroke-width="0.013" stroke-linecap="square" />
    <line id="pi-88" x1="-114.828" y1="-195.328" x2="-114.066" y2="-195.328" stroke="black" stroke-width="0.025" stroke-linecap="square" />
    <line id="pi-89" x1="-114.866" y1="-195.418" x2="-114.866" y2="-195.343" stroke="black" stroke-width="0.013" stroke-linecap="square" />
    <line id="pi-90" x1="-114.866" y1="-195.328" x2="-114.866" y2="-195.328" stroke="black" stroke-width="0.013" stroke-linecap="square" />
    <line id="pi-91" x1="-115.152" y1="-195.328" x2="-114.904" y2="-195.328" stroke="black" stroke-width="0.025" stroke-linecap="square" />
    <line id="pi-92" x1="-113.103" y1="-198.995" x2="-113.103" y2="-198.995" stroke="black" stroke-width="0.051" stroke-linecap="square" />
    <line id="pi-93" x1="-113.103" y1="-198.944" x2="-113.103" y2="-198.905" stroke="black" stroke-width="0.051" stroke-linecap="square" />
    <line id="pi-94" x1="-113.208" y1="-198.698" x2="-115.011" y2="-198.698" stroke="black" stroke-width="0.102" stroke-linecap="square" />
    <line id="pi-95" x1="-112.998" y1="-198.698" x2="-112.567" y2="-198.698" stroke="black" stroke-width="0.102" stroke-linecap="square" />
    <line id="pi-96" x1="-114.7" y1="-198.138" x2="-114.7" y2="-198.138" stroke="black" stroke-width="0.102" stroke-linecap="square" />
    <line id="pi-97" x1="-114.802" y1="-198.138" x2="-115.008" y2="-198.138" stroke="black" stroke-width="0.102" stroke-linecap="square" />
    <line id="pi-98" x1="-115.113" y1="-198.596" x2="-115.113" y2="-198.243" stroke="black" stroke-width="0.102" stroke-linecap="square" />
    <line id="pi-99" x1="-114.7" y1="-196.995" x2="-114.7" y2="-196.995" stroke="black" stroke-width="0.102" stroke-linecap="square" />
    <line id="pi-100" x1="-114.802" y1="-196.995" x2="-115.008" y2="-196.995" stroke="black" stroke-width="0.102" stroke-linecap="square" />
    <line id="pi-101" x1="-115.113" y1="-198.033" x2="-115.113" y2="-197.1" stroke="black" stroke-width="0.102" stroke-linecap="square" />
    <line id="pi-102" x1="-114.7" y1="-193.348" x2="-114.7" y2="-193.348" stroke="black" stroke-width="0.102" stroke-linecap="square" />
    <line id="pi-103" x1="-114.802" y1="-193.348" x2="-115.008" y2="-193.348" stroke="black" stroke-width="0.102" stroke-linecap="square" />
    <line id="pi-104" x1="-115.113" y1="-194.418" x2="-115.113" y2="-193.453" stroke="black" stroke-width="0.102" stroke-linecap="square" />
    <line id="pi-105" x1="-114.7" y1="-192.205" x2="-114.7" y2="-192.205" stroke="black" stroke-width="0.102" stroke-linecap="square" />
    <line id="pi-106" x1="-114.802" y1="-192.205" x2="-115.008" y2="-192.205" stroke="black" stroke-width="0.102" stroke-linecap="square" />
    <line id="pi-107" x1="-115.113" y1="-193.243" x2="-115.113" y2="-192.31" stroke="black" stroke-width="0.102" stroke-linecap="square" />
    <line id="pi-108" x1="-114.7" y1="-191.062" x2="-114.7" y2="-191.062" stroke="black" stroke-width="0.102" stroke-linecap="square" />
    <line id="pi-109" x1="-114.802" y1="-191.062" x2="-115.008" y2="-191.062" stroke="black" stroke-width="0.102" stroke-linecap="square" />
    <line id="pi-110" x1="-115.113" y1="-192.1" x2="-115.113" y2="-191.167" stroke="black" stroke-width="0.102" stroke-linecap="square" />
    <line id="pi-111" x1="-114.7" y1="-189.919" x2="-114.7" y2="-189.919" stroke="black" stroke-width="0.102" stroke-linecap="square" />
    <line id="pi-112" x1="-114.802" y1="-189.919" x2="-115.008" y2="-189.919" stroke="black" stroke-width="0.102" stroke-linecap="square" />
    <line id="pi-113" x1="-115.113" y1="-189.814" x2="-115.113" y2="-189.601" stroke="black" stroke-width="0.102" stroke-linecap="square" />
    <line id="pi-114" x1="-115.113" y1="-190.957" x2="-115.113" y2="-190.024" stroke="black" stroke-width="0.102" stroke-linecap="square" />
    <line id="pi-115" x1="-113.059" y1="-194.523" x2="-112.853" y2="-194.523" stroke="black" stroke-width="0.102" stroke-linecap="square" />
    <line id="pi-116" x1="-115.113" y1="-195.712" x2="-115.113" y2="-194.628" stroke="black" stroke-width="0.102" stroke-linecap="square" />
    <line id="pi-117" x1="-114.765" y1="-194.771" x2="-114.765" y2="-194.771" stroke="black" stroke-width="0.038" stroke-linecap="square" />
    <line id="pi-118" x1="-114.765" y1="-194.733" x2="-114.765" y2="-194.73" stroke="black" stroke-width="0.038" stroke-linecap="square" />
    <line id="pi-119" x1="-115.008" y1="-194.523" x2="-114.87" y2="-194.523" stroke="black" stroke-width="0.102" stroke-linecap="square" />
    <line id="pi-120" x1="-113.926" y1="-194.771" x2="-113.926" y2="-194.771" stroke="black" stroke-width="0.038" stroke-linecap="square" />
    <line id="pi-121" x1="-113.926" y1="-194.733" x2="-113.926" y2="-194.73" stroke="black" stroke-width="0.038" stroke-linecap="square" />
    <line id="pi-122" x1="-114.66" y1="-194.523" x2="-114.031" y2="-194.523" stroke="black" stroke-width="0.102" stroke-linecap="square" />
    <line id="pi-123" x1="-113.164" y1="-194.771" x2="-113.164" y2="-194.771" stroke="black" stroke-width="0.038" stroke-linecap="square" />
    <line id="pi-124" x1="-113.164" y1="-194.733" x2="-113.164" y2="-194.73" stroke="black" stroke-width="0.038" stroke-linecap="square" />
    <line id="pi-125" x1="-113.821" y1="-194.523" x2="-113.269" y2="-194.523" stroke="black" stroke-width="0.102" stroke-linecap="square" />
    <line id="pi-126" x1="-113.059" y1="-195.817" x2="-112.853" y2="-195.817" stroke="black" stroke-width="0.102" stroke-linecap="square" />
    <line id="pi-127" x1="-115.113" y1="-196.89" x2="-115.113" y2="-195.922" stroke="black" stroke-width="0.102" stroke-linecap="square" />
    <line id="pi-128" x1="-114.765" y1="-195.545" x2="-114.765" y2="-195.545" stroke="black" stroke-width="0.038" stroke-linecap="square" />
    <line id="pi-129" x1="-114.765" y1="-195.583" x2="-114.765" y2="-195.61" stroke="black" stroke-width="0.038" stroke-linecap="square" />
    <line id="pi-130" x1="-115.008" y1="-195.817" x2="-114.87" y2="-195.817" stroke="black" stroke-width="0.102" stroke-linecap="square" />
    <line id="pi-131" x1="-113.164" y1="-195.545" x2="-113.164" y2="-195.545" stroke="black" stroke-width="0.038" stroke-linecap="square" />
    <line id="pi-132" x1="-113.164" y1="-195.583" x2="-113.164" y2="-195.61" stroke="black" stroke-width="0.038" stroke-linecap="square" />
    <line id="pi-133" x1="-113.821" y1="-195.817" x2="-113.269" y2="-195.817" stroke="black" stroke-width="0.102" stroke-linecap="square" />
    <line id="pi-134" x1="-113.926" y1="-195.545" x2="-113.926" y2="-195.545" stroke="black" stroke-width="0.038" stroke-linecap="square" />
    <line id="pi-135" x1="-113.926" y1="-195.583" x2="-113.926" y2="-195.61" stroke="black" stroke-width="0.038" stroke-linecap="square" />
    <line id="pi-136" x1="-114.66" y1="-195.817" x2="-114.031" y2="-195.817" stroke="black" stroke-width="0.102" stroke-linecap="square" />
    <line id="pi-137" x1="-112.111" y1="-199.304" x2="-112.111" y2="-199.304" stroke="black" stroke-width="0.102" stroke-linecap="square" />
    <line id="pi-138" x1="-111.766" y1="-198.511" x2="-111.766" y2="-198.511" stroke="black" stroke-width="0.051" stroke-linecap="square" />
    <line id="pi-139" x1="-111.817" y1="-198.511" x2="-111.904" y2="-198.511" stroke="black" stroke-width="0.051" stroke-linecap="square" />
    <line id="pi-140" x1="-112.111" y1="-198.847" x2="-112.111" y2="-198.616" stroke="black" stroke-width="0.102" stroke-linecap="square" />
    <line id="pi-141" x1="-111.766" y1="-197.698" x2="-111.766" y2="-197.698" stroke="black" stroke-width="0.051" stroke-linecap="square" />
    <line id="pi-142" x1="-111.817" y1="-197.698" x2="-111.904" y2="-197.698" stroke="black" stroke-width="0.051" stroke-linecap="square" />
    <line id="pi-143" x1="-112.111" y1="-198.406" x2="-112.111" y2="-197.803" stroke="black" stroke-width="0.102" stroke-linecap="square" />
    <line id="pi-144" x1="-111.766" y1="-196.733" x2="-111.766" y2="-196.733" stroke="black" stroke-width="0.051" stroke-linecap="square" />
    <line id="pi-145" x1="-111.817" y1="-196.733" x2="-111.904" y2="-196.733" stroke="black" stroke-width="0.051" stroke-linecap="square" />
    <line id="pi-146" x1="-112.111" y1="-196.628" x2="-112.111" y2="-194.164" stroke="black" stroke-width="0.102" stroke-linecap="square" />
    <line id="pi-147" x1="-112.111" y1="-197.593" x2="-112.111" y2="-196.838" stroke="black" stroke-width="0.102" stroke-linecap="square" />
    <line id="pi-148" x1="-112.465" y1="-198.8" x2="-112.465" y2="-198.85" stroke="black" stroke-width="0.102" stroke-linecap="square" />
    <line id="pi-149" x1="-112.216" y1="-198.952" x2="-112.363" y2="-198.952" stroke="black" stroke-width="0.102" stroke-linecap="square" />
    <line id="pi-150" x1="-112.111" y1="-199.199" x2="-112.111" y2="-199.057" stroke="black" stroke-width="0.102" stroke-linecap="square" />
    <line id="pi-151" x1="-112.009" y1="-194.062" x2="-111.908" y2="-194.062" stroke="black" stroke-width="0.102" stroke-linecap="square" />
    <line id="pi-152" x1="-111.806" y1="-189.814" x2="-111.806" y2="-189.643" stroke="black" stroke-width="0.102" stroke-linecap="square" />
    <line id="pi-153" x1="-112.259" y1="-193.348" x2="-112.259" y2="-193.348" stroke="black" stroke-width="0.102" stroke-linecap="square" />
    <line id="pi-154" x1="-112.157" y1="-193.348" x2="-111.911" y2="-193.348" stroke="black" stroke-width="0.102" stroke-linecap="square" />
    <line id="pi-155" x1="-111.806" y1="-193.96" x2="-111.806" y2="-193.453" stroke="black" stroke-width="0.102" stroke-linecap="square" />
    <line id="pi-156" x1="-112.259" y1="-192.205" x2="-112.259" y2="-192.205" stroke="black" stroke-width="0.102" stroke-linecap="square" />
    <line id="pi-157" x1="-112.157" y1="-192.205" x2="-111.911" y2="-192.205" stroke="black" stroke-width="0.102" stroke-linecap="square" />
    <line id="pi-158" x1="-111.806" y1="-193.243" x2="-111.806" y2="-192.31" stroke="black" stroke-width="0.102" stroke-linecap="square" />
    <line id="pi-159" x1="-112.259" y1="-191.062" x2="-112.259" y2="-191.062" stroke="black" stroke-width="0.102" stroke-linecap="square" />
    <line id="pi-160" x1="-112.157" y1="-191.062" x2="-111.911" y2="-191.062" stroke="black" stroke-width="0.102" stroke-linecap="square" />
    <line id="pi-161" x1="-111.806" y1="-192.1" x2="-111.806" y2="-191.167" stroke="black" stroke-width="0.102" stroke-linecap="square" />
    <line id="pi-162" x1="-112.259" y1="-189.919" x2="-112.259" y2="-189.919" stroke="black" stroke-width="0.102" stroke-linecap="square" />
    <line id="pi-163" x1="-112.157" y1="-189.919" x2="-111.911" y2="-189.919" stroke="black" stroke-width="0.102" stroke-linecap="square" />
    <line id="pi-164" x1="-111.806" y1="-190.957" x2="-111.806" y2="-190.024" stroke="black" stroke-width="0.102" stroke-linecap="square" />
    <line id="pi-836" x1="-132.695" y1="-201.864" x2="-132.695" y2="-201.864" stroke="black" stroke-width="0.038" stroke-linecap="square" />
    <line id="pi-837" x1="-132.695" y1="-201.826" x2="-132.695" y2="-201.497" stroke="black" stroke-width="0.038" stroke-linecap="square" />
    <line id="pi-839" x1="-133.21" y1="-201.864" x2="-133.21" y2="-201.864" stroke="black" stroke-width="0.038" stroke-linecap="square" />
    <line id="pi-840" x1="-133.21" y1="-201.826" x2="-133.21" y2="-201.497" stroke="black" stroke-width="0.038" stroke-linecap="square" />
    <line id="pi-842" x1="-131.621" y1="-201.864" x2="-131.621" y2="-201.864" stroke="black" stroke-width="0.038" stroke-linecap="square" />
    <line id="pi-843" x1="-131.621" y1="-201.826" x2="-131.621" y2="-201.497" stroke="black" stroke-width="0.038" stroke-linecap="square" />
    <line id="pi-845" x1="-132.135" y1="-201.864" x2="-132.135" y2="-201.864" stroke="black" stroke-width="0.038" stroke-linecap="square" />
    <line id="pi-846" x1="-132.135" y1="-201.826" x2="-132.135" y2="-201.497" stroke="black" stroke-width="0.038" stroke-linecap="square" />
    <line id="pi-859" x1="-111.964" y1="-199.305" x2="-111.964" y2="-199.305" stroke="black" stroke-width="0.102" stroke-linecap="square" />
    <line id="pi-864" x1="-111.817" y1="-199.304" x2="-111.817" y2="-199.304" stroke="black" stroke-width="0.102" stroke-linecap="square" />
  </g>
</svg>