<?xml version="1.0" encoding="utf-8"?>
<svg xmlns="http://www.w3.org/2000/svg" viewBox="-6.159 -0.895 7.238 3.104">
  <g transform="scale(1,-1)">
    <polygon id="sl-184" points="-3.226,-1.683 -3.226,-1.073 -6.02,-1.445 -6.02,-2.07" />
    <polygon id="sl-185" points="-3.226,-1.073 -3.226,-0.463 -6.02,-0.835 -6.02,-1.461" />
    <polygon id="sl-186" points="-3.226,-0.464 -3.226,0.146 -6.02,-0.225 -6.02,-0.851" />
    <polygon id="sl-187" points="-3.226,0.146 -3.226,0.756 -6.02,0.384 -6.02,-0.241" />
    <polygon id="sl-188" points="0.94,-2.07 0.94,-1.445 -6.02,-1.445 -6.02,-2.07" />
    <polygon id="sl-189" points="0.94,-1.461 0.94,-0.835 -6.02,-0.835 -6.02,-1.461" />
    <polygon id="sl-190" points="0.94,-0.851 0.94,-0.225 -6.02,-0.225 -6.02,-0.851" />
    <polygon id="sl-191" points="0.94,-0.241 0.94,0.384 -6.02,0.384 -6.02,-0.241" />
  </g>
</svg>