<?xml version="1.0" encoding="utf-8"?>
<svg xmlns="http://www.w3.org/2000/svg" viewBox="-34.485 -31.672 64.597 49.853">
  <g transform="scale(1,-1)">
    <polygon id="sp-13" points="7.595,0.714 12.189,0.714 12.189,0.956 12.424,0.956 12.424,2.769 12.424,5.55 12.268,5.55 12.268,6.159 12.424,6.159 12.424,8.044 12.424,10.443 12.275,10.443 9.923,10.443 7.503,10.443 7.503,12.332 6.985,12.332 6.985,12.71 1.372,12.71 1.372,12.357 1.21,12.357 1.21,11.06 2.873,11.06 2.873,7.15 2.873,6.159 2.873,4.127 2.873,4.081 2.873,4.048 2.873,3.593 1.241,3.593 1.241,1.067 1.397,1.067 1.397,0.714 6.985,0.714 6.985,1.067 7.595,1.067" fill="rgba(0,0,255,0.1)" stroke="blue" stroke-width="0.05" />
    <polygon id="sp-14" points="21.511,-7.531 21.07,-4.178 20.676,-4.178 20.676,-3.569 20.989,-3.569 20.593,-0.559 19.28,-0.559 19.28,1.067 20.379,1.067 19.789,5.55 19.395,5.55 19.395,6.159 19.709,6.159 19.26,9.565 19.087,10.881 16.462,10.881 16.462,12.71 15.138,12.71 15.138,10.403 15.138,7.982 12.827,7.982 12.722,7.982 12.722,6.159 12.878,6.159 12.878,5.55 12.722,5.55 12.722,2.823 15.662,2.823 15.662,0.876 15.662,-8.114 15.662,-8.115 15.785,-8.163 15.832,-8.515 17.239,-8.33 17.188,-7.944 19.958,-7.58 20.009,-7.965 21.23,-7.805 21.199,-7.572" fill="rgba(0,0,255,0.1)" stroke="blue" stroke-width="0.05" />
  </g>
</svg>