<?xml version="1.0" encoding="utf-8"?>
<svg xmlns="http://www.w3.org/2000/svg" viewBox="-34.485 -31.672 64.597 49.853">
  <g transform="scale(1,-1)">
    <rect id="tm-48" x="-2.69" y="1.603" width="0.3" height="0.3" fill="black" />
    <rect id="tm-49" x="-2.69" y="4.244" width="0.3" height="0.3" fill="black" />
    <rect id="tm-52" x="-0.48" y="4.244" width="0.3" height="0.3" fill="black" transform="rotate(180,-0.33,4.394)" />
    <rect id="tm-53" x="-0.48" y="1.603" width="0.3" height="0.3" fill="black" transform="rotate(180,-0.33,1.753)" />
    <rect id="tm-171" x="12.731" y="10.747" width="0.3" height="0.3" fill="black" transform="rotate(240,12.881,10.897)" />
    <rect id="tm-172" x="12.731" y="9.759" width="0.3" height="0.3" fill="black" transform="rotate(120,12.881,9.909)" />
    <rect id="tm-204" x="12.575" y="-7.275" width="0.3" height="0.3" fill="black" transform="rotate(120,12.725,-7.125)" />
    <rect id="tm-205" x="15.128" y="-7.275" width="0.3" height="0.3" fill="black" transform="rotate(120,15.278,-7.125)" />
    <rect id="tm-223" x="12.575" y="-5.217" width="0.3" height="0.3" fill="black" transform="rotate(120,12.725,-5.067)" />
    <rect id="tm-224" x="15.128" y="-5.217" width="0.3" height="0.3" fill="black" transform="rotate(120,15.278,-5.067)" />
    <rect id="tm-233" x="-15.009" y="11.963" width="0.3" height="0.3" fill="black" transform="rotate(240,-14.859,12.113)" />
    <rect id="tm-245" x="-12.456" y="11.963" width="0.3" height="0.3" fill="black" transform="rotate(240,-12.306,12.113)" />
    <rect id="tm-275" x="12.575" y="-0.239" width="0.3" height="0.3" fill="black" transform="rotate(120,12.725,-0.089)" />
    <rect id="tm-278" x="15.128" y="-0.239" width="0.3" height="0.3" fill="black" transform="rotate(120,15.278,-0.089)" />
  </g>
</svg>