<?xml version="1.0" encoding="utf-8"?>
<svg xmlns="http://www.w3.org/2000/svg" viewBox="-34.485 -31.672 64.597 49.853">
  <g transform="scale(1,-1)">
    <line id="w-3" x1="21.68" y1="-7.588" x2="19.419" y2="9.586" stroke="black" stroke-width="0.321" stroke-linecap="square" />
    <line id="w-18" x1="12.573" y1="12.87" x2="12.573" y2="0.876" stroke="black" stroke-width="0.298" stroke-linecap="square" />
    <line id="w-22" x1="19.228" y1="11.041" x2="16.623" y2="11.041" stroke="black" stroke-width="0.321" stroke-linecap="square" />
    <line id="w-23" x1="16.623" y1="11.041" x2="16.623" y2="12.87" stroke="black" stroke-width="0.321" stroke-linecap="square" />
    <line id="w-27" x1="15.43" y1="-7.963" x2="15.431" y2="0.724" stroke="black" stroke-width="0.305" stroke-linecap="square" />
    <line id="w-30" x1="12.581" y1="-9.241" x2="13.153" y2="-9.166" stroke="black" stroke-width="0.168" stroke-linecap="square" />
    <line id="w-31" x1="12.573" y1="-7.963" x2="15.43" y2="-7.963" stroke="black" stroke-width="0.305" stroke-linecap="square" />
    <line id="w-32" x1="13.153" y1="-9.166" x2="13.153" y2="-7.963" stroke="black" stroke-width="0.137" stroke-linecap="square" />
    <line id="w-364" x1="12.573" y1="0.724" x2="12.573" y2="-7.963" stroke="black" stroke-width="0.305" stroke-linecap="square" />
    <line id="w-413" x1="12.576" y1="-8.115" x2="12.576" y2="-9.16" stroke="black" stroke-width="0.298" stroke-linecap="square" />
    <line id="w-414" x1="15.431" y1="0.724" x2="12.573" y2="0.724" stroke="black" stroke-width="0.305" stroke-linecap="square" />
    <line id="w-418" x1="15.623" y1="0.876" x2="15.623" y2="-8.115" stroke="black" stroke-width="0.079" stroke-linecap="square" />
    <line id="w-422" x1="15.608" y1="2.769" x2="12.573" y2="2.769" stroke="black" stroke-width="0.108" stroke-linecap="square" />
    <line id="w-423" x1="15.608" y1="0.724" x2="15.608" y2="2.769" stroke="black" stroke-width="0.108" stroke-linecap="square" />
    <line id="w-576" x1="15.076" y1="12.87" x2="15.076" y2="8.044" stroke="black" stroke-width="0.124" stroke-linecap="square" />
    <line id="w-577" x1="12.573" y1="8.044" x2="15.076" y2="8.044" stroke="black" stroke-width="0.124" stroke-linecap="square" />
    <line id="w-578" x1="12.827" y1="10.403" x2="15.076" y2="10.403" stroke="black" stroke-width="0.124" stroke-linecap="square" />
    <line id="w-579" x1="12.827" y1="12.87" x2="12.827" y2="8.044" stroke="black" stroke-width="0.108" stroke-linecap="square" />
    <line id="w-670" x1="21.516" y1="-7.57" x2="21.244" y2="-7.606" stroke="black" stroke-width="0.079" stroke-linecap="square" />
    <line id="w-671" x1="21.297" y1="-8.007" x2="21.244" y2="-7.606" stroke="black" stroke-width="0.079" stroke-linecap="square" />
    <line id="w-674" x1="13.153" y1="-8.184" x2="15.626" y2="-8.184" stroke="black" stroke-width="0.137" stroke-linecap="square" />
    <line id="w-675" x1="15.711" y1="-8.827" x2="16.169" y2="-8.767" stroke="black" stroke-width="0.168" stroke-linecap="square" />
    <line id="w-676" x1="21.155" y1="-8.111" x2="21.347" y2="-8.085" stroke="black" stroke-width="0.168" stroke-linecap="square" />
    <line id="w-700" x1="15.711" y1="-8.827" x2="15.626" y2="-8.184" stroke="black" stroke-width="0.321" stroke-linecap="square" />
    <line id="w-707" x1="19.419" y1="9.586" x2="18.987" y2="12.87" stroke="black" stroke-width="0.321" stroke-linecap="square" />
    <line id="w-708" x1="12.573" y1="12.87" x2="18.987" y2="12.87" stroke="black" stroke-width="0.321" stroke-linecap="square" />
    <line id="w-880" x1="19.334" y1="-0.505" x2="19.334" y2="1.013" stroke="black" stroke-width="0.108" stroke-linecap="square" />
    <line id="w-881" x1="19.334" y1="1.013" x2="20.548" y2="1.013" stroke="black" stroke-width="0.108" stroke-linecap="square" />
    <line id="w-882" x1="19.334" y1="-0.505" x2="20.748" y2="-0.505" stroke="black" stroke-width="0.108" stroke-linecap="square" />
  </g>
</svg>