<?xml version="1.0" encoding="utf-8"?>
<svg xmlns="http://www.w3.org/2000/svg" viewBox="-16.763 -31.192 73.836 56.08">
  <g transform="scale(1,-1)">
    <path id="bm-1" d="M -15.856,8.674 L -15.856,6.829" />
    <path id="bm-2" d="M -10.37,21.455 L -10.37,6.829" />
    <path id="bm-3" d="M -15.556,20.749 L -10.329,20.749" />
    <path id="bm-4" d="M -15.109,20.139 L -10.329,20.139" />
    <path id="bm-5" d="M -14.732,19.53 L -10.329,19.53" />
    <path id="bm-6" d="M -14.414,18.921 L -10.329,18.921" />
    <path id="bm-7" d="M -14.15,18.311 L -10.329,18.311" />
    <path id="bm-8" d="M -13.935,17.702 L -10.329,17.702" />
    <path id="bm-9" d="M -13.766,17.093 L -10.329,17.093" />
    <path id="bm-10" d="M -13.639,16.483 L -10.329,16.483" />
    <path id="bm-11" d="M -13.553,15.874 L -10.329,15.874" />
    <path id="bm-12" d="M -13.508,15.265 L -10.329,15.265" />
    <path id="bm-13" d="M -13.502,14.656 L -10.329,14.656" />
    <path id="bm-14" d="M -13.535,14.046 L -10.329,14.046" />
    <path id="bm-15" d="M -13.608,13.437 L -10.329,13.437" />
    <path id="bm-16" d="M -13.722,12.828 L -10.329,12.828" />
    <path id="bm-17" d="M -13.878,12.218 L -10.329,12.218" />
    <path id="bm-18" d="M -14.079,11.609 L -10.329,11.609" />
    <path id="bm-19" d="M -14.328,11 L -10.329,11" />
    <path id="bm-20" d="M -14.628,10.39 L -10.329,10.39" />
    <path id="bm-21" d="M -14.986,9.781 L -10.329,9.781" />
    <path id="bm-22" d="M -15.41,9.172 L -10.329,9.172" />
    <path id="bm-23" d="M -15.815,8.562 L -10.329,8.562" />
    <path id="bm-24" d="M -15.815,7.953 L -10.329,7.953" />
    <path id="bm-25" d="M -15.815,7.344 L -10.329,7.344" />
    <path id="bm-26" d="M -9.75,-23.234 L 56.423,-23.234" />
    <path id="bm-27" d="M 56.423,-23.234 L 56.423,-12.282" />
    <path id="bm-28" d="M 56.423,-12.282 L 7.298,-12.282" />
    <path id="bm-29" d="M 7.298,-12.282 L 7.298,-6.737" />
    <path id="bm-30" d="M 7.298,-6.737 L 14.162,-6.737" />
    <path id="bm-31" d="M 14.162,-6.737 L 14.162,-0.636" />
    <path id="bm-32" d="M 14.162,-0.636 L 7.298,-0.636" />
    <path id="bm-33" d="M 7.298,-0.636 L 7.298,19.565" />
    <path id="bm-34" d="M 7.298,19.565 L 27.262,19.565" />
    <path id="bm-35" d="M 27.262,19.565 L 27.262,30.542" />
    <path id="bm-36" d="M 27.262,30.542 L -9.75,30.542" />
    <path id="bm-37" d="M -9.75,30.542 L -9.75,-23.234" />
  </g>
</svg>