<?xml version="1.0" encoding="utf-8"?>
<svg xmlns="http://www.w3.org/2000/svg" viewBox="-16.763 -31.192 73.836 56.08">
  <g transform="scale(1,-1)">
    <path id="cw-1" d="M -9.797,-23.281 L -1.486,-23.281" />
    <path id="cw-2" d="M -9.797,30.589 L -9.797,22.332" />
    <path id="cw-3" d="M 27.36,19.618 L 27.36,22.339" />
    <path id="cw-4" d="M 56.47,-12.335 L 7.245,-12.335" />
    <path id="cw-5" d="M 7.245,-12.335 L 7.245,-6.684" />
    <path id="cw-6" d="M 7.245,19.618 L 27.36,19.618" />
    <path id="cw-7" d="M 14.109,-0.689 L 7.848,-0.689" />
    <path id="cw-8" d="M 14.109,-6.684 L 14.109,-0.689" />
    <path id="cw-9" d="M 7.848,-6.684 L 14.109,-6.684" />
    <path id="cw-12" d="M 6.648,30.589 L -9.797,30.589" />
    <path id="cw-13" d="M 8.223,22.255 L -1.378,22.255" />
    <path id="cw-14" d="M -9.797,2.33 L -9.797,-23.281" />
    <path id="cw-16" d="M 12.647,-23.281 L 53.63,-23.281" />
    <path id="cw-18" d="M 56.47,-14.931 L 56.47,-12.335" />
    <path id="cw-19" d="M 7.245,-6.684 L 7.245,-0.689" />
    <path id="cw-20" d="M 7.245,-0.689 L 7.245,9.911" />
    <path id="cw-21" d="M 7.245,9.911 L 7.245,17.674" />
    <path id="cw-22" d="M 7.245,17.674 L 7.245,19.618" />
    <path id="cw-32" d="M 53.63,-23.281 L 56.521,-23.281" />
    <path id="cw-33" d="M 24.469,30.589 L 27.36,30.589" />
  </g>
</svg>