<?xml version="1.0" encoding="utf-8"?>
<svg xmlns="http://www.w3.org/2000/svg" viewBox="-16.763 -31.192 73.836 56.08">
  <g transform="scale(1,-1)">
    <path id="w-1" d="M 56.521,-23.333 L 56.521,-14.931" />
    <path id="w-2" d="M 27.36,30.641 L 6.648,30.641" />
    <path id="w-5" d="M 8.223,30.641 L 8.223,22.255" />
    <path id="w-8" d="M 24.469,30.641 L 24.469,22.255" />
    <path id="w-16" d="M -9.849,22.332 L -9.849,2.33" />
    <path id="w-24" d="M -1.486,-14.931 L -1.486,-23.333" />
    <path id="w-25" d="M -1.486,-23.333 L 12.647,-23.333" />
    <path id="w-26" d="M 1.354,-23.333 L 1.354,-15" />
    <path id="w-41" d="M 53.63,-23.333 L 53.63,-15" />
    <path id="w-42" d="M 53.63,-23.333 L 56.521,-23.333" />
    <path id="w-43" d="M 7.848,-6.684 L 6.448,-6.684" />
    <path id="w-44" d="M 7.848,-0.689 L 6.448,-0.689" />
    <path id="w-45" d="M 7.848,9.911 L 6.448,9.911" />
    <path id="w-46" d="M 7.848,17.674 L 6.448,17.674" />
    <path id="w-145" d="M 27.36,22.339 L 27.36,30.641" />
  </g>
</svg>