<?xml version="1.0" encoding="utf-8"?>
<svg xmlns="http://www.w3.org/2000/svg" viewBox="-33.918 -13.687 55.2 23.839">
  <g transform="scale(1,-1)">
    <line id="du-1" x1="-10.877" y1="-2.863" x2="-10.877" y2="-2.964" stroke="black" stroke-width="0.203" stroke-linecap="square" />
    <line id="du-2" x1="-11.385" y1="-2.507" x2="-11.385" y2="-2.66" stroke="black" stroke-width="0.203" stroke-linecap="square" />
    <line id="du-3" x1="-10.877" y1="-2.507" x2="-10.877" y2="-2.609" stroke="black" stroke-width="0.203" stroke-linecap="square" />
    <line id="du-4" x1="-12.735" y1="-3.046" x2="-12.735" y2="-3.046" stroke="black" stroke-width="0.356" stroke-linecap="square" />
    <line id="du-5" x1="-12.659" y1="-3.046" x2="-11.973" y2="-3.046" stroke="black" stroke-width="0.356" stroke-linecap="square" />
    <line id="du-6" x1="-10.724" y1="3.194" x2="-10.724" y2="5.258" stroke="black" stroke-width="0.102" stroke-linecap="square" />
    <line id="du-7" x1="-10.91" y1="3.057" x2="-10.91" y2="5.141" stroke="black" stroke-width="0.102" stroke-linecap="square" />
    <line id="du-8" x1="-9.735" y1="4.707" x2="-9.735" y2="5.166" stroke="black" stroke-width="0.203" stroke-linecap="square" />
    <line id="du-9" x1="-11.109" y1="6.136" x2="-11.109" y2="6.239" stroke="black" stroke-width="0.102" stroke-linecap="square" />
    <line id="du-10" x1="-11.383" y1="6.149" x2="-11.659" y2="6.308" stroke="black" stroke-width="0.102" stroke-linecap="square" />
    <line id="du-11" x1="-11.251" y1="6.072" x2="-11.251" y2="6.072" stroke="black" stroke-width="0.102" stroke-linecap="square" />
    <line id="du-12" x1="-11.109" y1="6.382" x2="-11.109" y2="11.3" stroke="black" stroke-width="0.102" stroke-linecap="square" />
    <line id="du-13" x1="-11.109" y1="11.398" x2="-11.109" y2="11.525" stroke="black" stroke-width="0.102" stroke-linecap="square" />
    <line id="du-14" x1="-11.109" y1="12.219" x2="-11.109" y2="11.623" stroke="black" stroke-width="0.102" stroke-linecap="square" />
    <line id="du-15" x1="-6.76" y1="12.524" x2="-6.76" y2="13.037" stroke="black" stroke-width="0.102" stroke-linecap="square" />
    <line id="du-16" x1="-6.76" y1="12.371" x2="-6.76" y2="12.371" stroke="black" stroke-width="0.102" stroke-linecap="square" />
    <line id="du-17" x1="-6.912" y1="12.371" x2="-10.957" y2="12.371" stroke="black" stroke-width="0.102" stroke-linecap="square" />
    <line id="du-18" x1="-11.735" y1="6.44" x2="-11.735" y2="11.64" stroke="black" stroke-width="0.102" stroke-linecap="square" />
    <line id="du-19" x1="-11.704" y1="11.787" x2="-11.592" y2="11.899" stroke="black" stroke-width="0.102" stroke-linecap="square" />
    <line id="du-20" x1="-11.251" y1="5.92" x2="-11.251" y2="5.654" stroke="black" stroke-width="0.102" stroke-linecap="square" />
    <line id="du-21" x1="-11.223" y1="5.536" x2="-11.216" y2="5.524" stroke="black" stroke-width="0.102" stroke-linecap="square" />
    <line id="du-22" x1="-11.149" y1="5.442" x2="-10.955" y2="5.248" stroke="black" stroke-width="0.102" stroke-linecap="square" />
    <line id="du-23" x1="-10.769" y1="5.366" x2="-10.917" y2="5.514" stroke="black" stroke-width="0.102" stroke-linecap="square" />
    <line id="du-24" x1="-10.959" y1="5.556" x2="-11.063" y2="5.661" stroke="black" stroke-width="0.102" stroke-linecap="square" />
    <line id="du-25" x1="-11.109" y1="5.776" x2="-11.109" y2="5.993" stroke="black" stroke-width="0.102" stroke-linecap="square" />
    <line id="du-26" x1="-9.735" y1="3.149" x2="-9.735" y2="3.019" stroke="black" stroke-width="0.102" stroke-linecap="square" />
    <line id="du-27" x1="-9.887" y1="2.905" x2="-10.758" y2="2.905" stroke="black" stroke-width="0.102" stroke-linecap="square" />
    <line id="du-28" x1="-10.572" y1="3.042" x2="-10.491" y2="3.042" stroke="black" stroke-width="0.102" stroke-linecap="square" />
    <line id="du-29" x1="-10.362" y1="3.042" x2="-10.325" y2="3.042" stroke="black" stroke-width="0.102" stroke-linecap="square" />
    <line id="du-30" x1="-9.735" y1="3.277" x2="-9.735" y2="3.251" stroke="black" stroke-width="0.102" stroke-linecap="square" />
    <line id="du-31" x1="-10.728" y1="-8.144" x2="-10.728" y2="-8.041" stroke="black" stroke-width="0.102" stroke-linecap="square" />
    <line id="du-32" x1="-10.728" y1="-7.909" x2="-10.728" y2="-7.554" stroke="black" stroke-width="0.102" stroke-linecap="square" />
    <line id="du-33" x1="-10.684" y1="-7.446" x2="-10.303" y2="-7.066" stroke="black" stroke-width="0.102" stroke-linecap="square" />
    <line id="du-34" x1="-10.258" y1="-6.958" x2="-10.258" y2="-4.367" stroke="black" stroke-width="0.102" stroke-linecap="square" />
    <line id="du-35" x1="-10.258" y1="-4.235" x2="-10.258" y2="-4.133" stroke="black" stroke-width="0.102" stroke-linecap="square" />
    <line id="du-36" x1="-10.258" y1="-4.001" x2="-10.258" y2="-3.707" stroke="black" stroke-width="0.102" stroke-linecap="square" />
    <line id="du-37" x1="-10.258" y1="-3.575" x2="-10.258" y2="-3.502" stroke="black" stroke-width="0.102" stroke-linecap="square" />
    <line id="du-38" x1="-10.258" y1="-3.37" x2="-10.258" y2="-1.364" stroke="black" stroke-width="0.102" stroke-linecap="square" />
    <line id="du-39" x1="-10.258" y1="-1.257" x2="-10.258" y2="-1.193" stroke="black" stroke-width="0.102" stroke-linecap="square" />
    <line id="du-40" x1="-10.258" y1="-1.086" x2="-10.258" y2="-0.946" stroke="black" stroke-width="0.102" stroke-linecap="square" />
    <line id="du-41" x1="-10.411" y1="-0.793" x2="-10.725" y2="-0.793" stroke="black" stroke-width="0.102" stroke-linecap="square" />
    <line id="du-42" x1="-10.877" y1="-0.948" x2="-10.877" y2="-0.92" stroke="black" stroke-width="0.102" stroke-linecap="square" />
    <line id="du-43" x1="-10.728" y1="-8.899" x2="-10.728" y2="-8.276" stroke="black" stroke-width="0.102" stroke-linecap="square" />
    <line id="du-44" x1="-12.71" y1="-8.899" x2="-12.71" y2="-8.276" stroke="black" stroke-width="0.102" stroke-linecap="square" />
    <line id="du-45" x1="-12.71" y1="-8.144" x2="-12.71" y2="-8.041" stroke="black" stroke-width="0.102" stroke-linecap="square" />
    <line id="du-46" x1="-12.71" y1="-7.909" x2="-12.71" y2="-7.842" stroke="black" stroke-width="0.102" stroke-linecap="square" />
    <line id="du-47" x1="-12.665" y1="-7.735" x2="-12.043" y2="-7.113" stroke="black" stroke-width="0.102" stroke-linecap="square" />
    <line id="du-48" x1="-11.998" y1="-7.005" x2="-11.998" y2="-4.367" stroke="black" stroke-width="0.102" stroke-linecap="square" />
    <line id="du-49" x1="-11.998" y1="-4.235" x2="-11.998" y2="-4.133" stroke="black" stroke-width="0.102" stroke-linecap="square" />
    <line id="du-50" x1="-11.998" y1="-4.001" x2="-11.998" y2="-3.707" stroke="black" stroke-width="0.102" stroke-linecap="square" />
    <line id="du-51" x1="-11.998" y1="-3.575" x2="-11.998" y2="-3.502" stroke="black" stroke-width="0.102" stroke-linecap="square" />
    <line id="du-52" x1="-11.998" y1="-3.37" x2="-11.998" y2="-1.273" stroke="black" stroke-width="0.102" stroke-linecap="square" />
    <line id="du-53" x1="-11.998" y1="-1.166" x2="-11.998" y2="-1.103" stroke="black" stroke-width="0.102" stroke-linecap="square" />
    <line id="du-54" x1="-11.998" y1="-0.995" x2="-11.998" y2="-0.945" stroke="black" stroke-width="0.102" stroke-linecap="square" />
    <line id="du-55" x1="-8.629" y1="5.632" x2="-8.629" y2="5.632" stroke="black" stroke-width="0.356" stroke-linecap="square" />
    <line id="du-56" x1="-10.243" y1="4.891" x2="-10.243" y2="4.707" stroke="black" stroke-width="0.203" stroke-linecap="square" />
    <line id="du-57" x1="-10.243" y1="5.723" x2="-10.243" y2="6.091" stroke="black" stroke-width="0.61" stroke-linecap="square" />
    <line id="du-58" x1="-10.243" y1="5.647" x2="-10.243" y2="5.647" stroke="black" stroke-width="0.61" stroke-linecap="square" />
    <line id="du-59" x1="-10.243" y1="6.167" x2="-10.243" y2="6.167" stroke="black" stroke-width="0.61" stroke-linecap="square" />
    <line id="du-60" x1="-10.243" y1="6.596" x2="-10.243" y2="11.615" stroke="black" stroke-width="0.203" stroke-linecap="square" />
    <line id="du-61" x1="-10.243" y1="6.167" x2="-10.243" y2="6.167" stroke="black" stroke-width="0.61" stroke-linecap="square" />
    <line id="du-62" x1="-10.243" y1="5.647" x2="-10.243" y2="5.647" stroke="black" stroke-width="0.61" stroke-linecap="square" />
    <line id="du-63" x1="-10.09" y1="5.018" x2="-10.039" y2="5.018" stroke="black" stroke-width="0.152" stroke-linecap="square" />
    <line id="du-64" x1="-10.243" y1="5.328" x2="-10.243" y2="5.145" stroke="black" stroke-width="0.203" stroke-linecap="square" />
    <line id="du-87" x1="-5.406" y1="6.944" x2="-3.089" y2="6.944" stroke="black" stroke-width="0.203" stroke-linecap="square" />
    <line id="du-88" x1="-5.904" y1="6.283" x2="-5.904" y2="6.283" stroke="black" stroke-width="0.203" stroke-linecap="square" />
    <line id="du-89" x1="-5.803" y1="6.459" x2="-5.582" y2="6.842" stroke="black" stroke-width="0.203" stroke-linecap="square" />
    <line id="du-90" x1="-2.886" y1="6.679" x2="-2.886" y2="6.41" stroke="black" stroke-width="0.152" stroke-linecap="square" />
    <line id="du-91" x1="-2.886" y1="6.302" x2="-2.886" y2="6.176" stroke="black" stroke-width="0.152" stroke-linecap="square" />
    <line id="du-92" x1="-2.886" y1="6.068" x2="-2.886" y2="5.71" stroke="black" stroke-width="0.152" stroke-linecap="square" />
    <line id="du-93" x1="-2.886" y1="5.596" x2="-2.886" y2="5.504" stroke="black" stroke-width="0.152" stroke-linecap="square" />
    <line id="du-94" x1="-2.886" y1="5.39" x2="-2.886" y2="4.968" stroke="black" stroke-width="0.152" stroke-linecap="square" />
    <line id="du-95" x1="2.621" y1="8.77" x2="2.621" y2="7.399" stroke="black" stroke-width="0.203" stroke-linecap="square" />
    <line id="du-96" x1="3.129" y1="10.2" x2="3.129" y2="11.724" stroke="black" stroke-width="0.102" stroke-linecap="square" />
    <line id="du-97" x1="9.16" y1="7.926" x2="9.16" y2="6.837" stroke="black" stroke-width="0.203" stroke-linecap="square" />
    <line id="du-98" x1="9.007" y1="8.078" x2="3.434" y2="8.078" stroke="black" stroke-width="0.203" stroke-linecap="square" />
    <line id="du-99" x1="9.16" y1="6.614" x2="9.16" y2="6.3" stroke="black" stroke-width="0.152" stroke-linecap="square" />
    <line id="du-100" x1="9.16" y1="6.192" x2="9.16" y2="5.855" stroke="black" stroke-width="0.152" stroke-linecap="square" />
    <line id="du-101" x1="2.621" y1="10.2" x2="2.621" y2="11.792" stroke="black" stroke-width="0.102" stroke-linecap="square" />
    <line id="du-102" x1="2.545" y1="11.924" x2="2.237" y2="12.102" stroke="black" stroke-width="0.102" stroke-linecap="square" />
    <line id="du-103" x1="2.105" y1="12.178" x2="2.105" y2="12.178" stroke="black" stroke-width="0.102" stroke-linecap="square" />
    <line id="du-104" x1="4.645" y1="12.405" x2="4.645" y2="13.037" stroke="black" stroke-width="0.102" stroke-linecap="square" />
    <line id="du-105" x1="4.619" y1="12.285" x2="4.42" y2="11.942" stroke="black" stroke-width="0.102" stroke-linecap="square" />
    <line id="du-106" x1="4.278" y1="11.877" x2="3.281" y2="11.877" stroke="black" stroke-width="0.102" stroke-linecap="square" />
    <line id="du-107" x1="17.345" y1="13.037" x2="17.345" y2="12.558" stroke="black" stroke-width="0.102" stroke-linecap="square" />
    <line id="du-108" x1="15.326" y1="8.989" x2="15.326" y2="4.213" stroke="black" stroke-width="0.203" stroke-linecap="square" />
    <line id="du-109" x1="14.818" y1="4.854" x2="14.818" y2="9.68" stroke="black" stroke-width="0.203" stroke-linecap="square" />
    <line id="du-110" x1="15.326" y1="9.141" x2="15.326" y2="9.141" stroke="black" stroke-width="0.203" stroke-linecap="square" />
    <line id="du-111" x1="15.326" y1="9.23" x2="15.326" y2="9.569" stroke="black" stroke-width="0.203" stroke-linecap="square" />
    <line id="du-112" x1="15.326" y1="9.785" x2="15.326" y2="10.141" stroke="black" stroke-width="0.203" stroke-linecap="square" />
    <line id="du-113" x1="14.364" y1="10.344" x2="15.123" y2="10.344" stroke="black" stroke-width="0.203" stroke-linecap="square" />
    <line id="du-114" x1="13.421" y1="10.344" x2="13.665" y2="10.344" stroke="black" stroke-width="0.203" stroke-linecap="square" />
    <line id="du-115" x1="13.919" y1="10.344" x2="14.11" y2="10.344" stroke="black" stroke-width="0.203" stroke-linecap="square" />
    <line id="du-116" x1="17.193" y1="12.406" x2="15.479" y2="12.406" stroke="black" stroke-width="0.102" stroke-linecap="square" />
    <line id="du-117" x1="14.666" y1="12.406" x2="13.687" y2="12.406" stroke="black" stroke-width="0.102" stroke-linecap="square" />
    <line id="du-118" x1="14.818" y1="12.253" x2="14.818" y2="11.11" stroke="black" stroke-width="0.102" stroke-linecap="square" />
    <line id="du-119" x1="18.23" y1="-5.145" x2="18.23" y2="-4.387" stroke="black" stroke-width="0.203" stroke-linecap="square" />
    <line id="du-120" x1="16.677" y1="-8.394" x2="16.661" y2="-8.272" stroke="black" stroke-width="0.102" stroke-linecap="square" />
    <line id="du-121" x1="20.552" y1="-7.759" x2="20.57" y2="-7.9" stroke="black" stroke-width="0.102" stroke-linecap="square" />
    <line id="du-122" x1="16.69" y1="-8.494" x2="16.69" y2="-8.494" stroke="black" stroke-width="0.102" stroke-linecap="square" />
    <line id="du-123" x1="16.703" y1="-8.595" x2="16.742" y2="-8.885" stroke="black" stroke-width="0.102" stroke-linecap="square" />
    <line id="du-124" x1="20.583" y1="-8.001" x2="20.583" y2="-8.001" stroke="black" stroke-width="0.102" stroke-linecap="square" />
    <line id="du-125" x1="18.918" y1="-7.872" x2="20.438" y2="-7.672" stroke="black" stroke-width="0.102" stroke-linecap="square" />
    <line id="du-126" x1="16.748" y1="-8.158" x2="17.634" y2="-8.041" stroke="black" stroke-width="0.102" stroke-linecap="square" />
    <line id="du-127" x1="18.274" y1="-7.313" x2="18.79" y2="-7.829" stroke="black" stroke-width="0.102" stroke-linecap="square" />
    <line id="du-129" x1="18.535" y1="-4.082" x2="20.516" y2="-4.082" stroke="black" stroke-width="0.203" stroke-linecap="square" />
    <line id="du-130" x1="17.633" y1="-3.967" x2="17.129" y2="-3.463" stroke="black" stroke-width="0.203" stroke-linecap="square" />
    <line id="du-131" x1="17.039" y1="-3.248" x2="17.039" y2="0.608" stroke="black" stroke-width="0.203" stroke-linecap="square" />
    <line id="du-132" x1="4.88" y1="-5.145" x2="4.88" y2="-0.395" stroke="black" stroke-width="0.203" stroke-linecap="square" />
    <line id="du-133" x1="4.88" y1="-0.179" x2="4.88" y2="0.227" stroke="black" stroke-width="0.203" stroke-linecap="square" />
    <line id="du-134" x1="4.88" y1="0.316" x2="4.88" y2="0.316" stroke="black" stroke-width="0.203" stroke-linecap="square" />
    <line id="du-136" x1="9.42" y1="-5.145" x2="9.42" y2="-0.395" stroke="black" stroke-width="0.203" stroke-linecap="square" />
    <line id="du-137" x1="9.42" y1="0.316" x2="9.42" y2="0.316" stroke="black" stroke-width="0.203" stroke-linecap="square" />
    <line id="du-143" x1="9.42" y1="0.227" x2="9.42" y2="-0.179" stroke="black" stroke-width="0.203" stroke-linecap="square" />
    <line id="du-144" x1="9.928" y1="-5.145" x2="9.928" y2="-4.84" stroke="black" stroke-width="0.203" stroke-linecap="square" />
    <line id="du-145" x1="10.233" y1="-4.536" x2="11.478" y2="-4.536" stroke="black" stroke-width="0.203" stroke-linecap="square" />
    <line id="du-146" x1="11.693" y1="-4.446" x2="11.964" y2="-4.175" stroke="black" stroke-width="0.203" stroke-linecap="square" />
    <line id="du-147" x1="12.054" y1="-3.96" x2="12.054" y2="0.334" stroke="black" stroke-width="0.203" stroke-linecap="square" />
    <line id="du-148" x1="5.388" y1="-5.145" x2="5.388" y2="-4.84" stroke="black" stroke-width="0.203" stroke-linecap="square" />
    <line id="du-149" x1="2.618" y1="-4.536" x2="4.851" y2="-4.536" stroke="black" stroke-width="0.203" stroke-linecap="square" />
    <line id="du-150" x1="5.172" y1="-4.536" x2="5.067" y2="-4.536" stroke="black" stroke-width="0.203" stroke-linecap="square" />
    <line id="du-151" x1="2.403" y1="-4.446" x2="1.612" y2="-3.655" stroke="black" stroke-width="0.203" stroke-linecap="square" />
    <line id="du-152" x1="1.522" y1="-3.439" x2="1.522" y2="0.32" stroke="black" stroke-width="0.203" stroke-linecap="square" />
    <line id="du-153" x1="4.88" y1="-6.575" x2="4.88" y2="-8.62" stroke="black" stroke-width="0.102" stroke-linecap="square" />
    <line id="du-154" x1="4.88" y1="-8.836" x2="4.88" y2="-8.836" stroke="black" stroke-width="0.102" stroke-linecap="square" />
    <line id="du-155" x1="2.571" y1="-9.171" x2="2.571" y2="-9.432" stroke="black" stroke-width="0.102" stroke-linecap="square" />
    <line id="du-156" x1="8.159" y1="-9.223" x2="8.159" y2="-9.432" stroke="black" stroke-width="0.102" stroke-linecap="square" />
    <line id="du-157" x1="4.685" y1="-8.836" x2="2.996" y2="-8.836" stroke="black" stroke-width="0.102" stroke-linecap="square" />
    <line id="du-158" x1="2.639" y1="-9.044" x2="2.911" y2="-8.862" stroke="black" stroke-width="0.102" stroke-linecap="square" />
    <line id="du-159" x1="4.88" y1="-8.728" x2="4.88" y2="-8.791" stroke="black" stroke-width="0.102" stroke-linecap="square" />
    <line id="du-160" x1="5.388" y1="-6.575" x2="5.388" y2="-8.569" stroke="black" stroke-width="0.102" stroke-linecap="square" />
    <line id="du-161" x1="5.558" y1="-8.836" x2="5.986" y2="-8.836" stroke="black" stroke-width="0.102" stroke-linecap="square" />
    <line id="du-162" x1="5.417" y1="-8.836" x2="5.486" y2="-8.836" stroke="black" stroke-width="0.102" stroke-linecap="square" />
    <line id="du-163" x1="5.388" y1="-8.791" x2="5.388" y2="-8.677" stroke="black" stroke-width="0.102" stroke-linecap="square" />
    <line id="du-164" x1="5.388" y1="-8.836" x2="5.388" y2="-8.836" stroke="black" stroke-width="0.102" stroke-linecap="square" />
    <line id="du-165" x1="6.094" y1="-8.88" x2="6.394" y2="-9.18" stroke="black" stroke-width="0.102" stroke-linecap="square" />
    <line id="du-166" x1="4.757" y1="-8.836" x2="4.85" y2="-8.836" stroke="black" stroke-width="0.102" stroke-linecap="square" />
    <line id="du-167" x1="9.42" y1="-6.575" x2="9.42" y2="-8.62" stroke="black" stroke-width="0.102" stroke-linecap="square" />
    <line id="du-168" x1="9.229" y1="-8.836" x2="8.521" y2="-8.836" stroke="black" stroke-width="0.102" stroke-linecap="square" />
    <line id="du-169" x1="9.928" y1="-6.575" x2="9.928" y2="-8.62" stroke="black" stroke-width="0.102" stroke-linecap="square" />
    <line id="du-170" x1="9.42" y1="-8.728" x2="9.42" y2="-8.791" stroke="black" stroke-width="0.102" stroke-linecap="square" />
    <line id="du-171" x1="9.42" y1="-8.836" x2="9.42" y2="-8.836" stroke="black" stroke-width="0.102" stroke-linecap="square" />
    <line id="du-172" x1="9.301" y1="-8.836" x2="9.39" y2="-8.836" stroke="black" stroke-width="0.102" stroke-linecap="square" />
    <line id="du-173" x1="8.396" y1="-8.898" x2="8.204" y2="-9.09" stroke="black" stroke-width="0.102" stroke-linecap="square" />
    <line id="du-174" x1="9.928" y1="-8.836" x2="9.928" y2="-8.836" stroke="black" stroke-width="0.102" stroke-linecap="square" />
    <line id="du-175" x1="9.972" y1="-8.836" x2="10.032" y2="-8.836" stroke="black" stroke-width="0.102" stroke-linecap="square" />
    <line id="du-176" x1="10.14" y1="-8.836" x2="11.626" y2="-8.836" stroke="black" stroke-width="0.102" stroke-linecap="square" />
    <line id="du-177" x1="9.928" y1="-8.728" x2="9.928" y2="-8.791" stroke="black" stroke-width="0.102" stroke-linecap="square" />
    <line id="du-178" x1="11.734" y1="-8.88" x2="12.027" y2="-9.174" stroke="black" stroke-width="0.102" stroke-linecap="square" />
    <line id="du-331" x1="-26.985" y1="11.001" x2="-26.528" y2="11.001" stroke="black" stroke-width="0.203" stroke-linecap="square" />
    <line id="du-332" x1="-26.223" y1="10.696" x2="-26.223" y2="7.648" stroke="black" stroke-width="0.203" stroke-linecap="square" />
    <line id="du-333" x1="-26.985" y1="11.509" x2="-18.146" y2="11.509" stroke="black" stroke-width="0.203" stroke-linecap="square" />
    <line id="du-334" x1="-28.415" y1="11.509" x2="-28.568" y2="11.509" stroke="black" stroke-width="0.102" stroke-linecap="square" />
    <line id="du-335" x1="-28.72" y1="11.662" x2="-28.72" y2="11.814" stroke="black" stroke-width="0.102" stroke-linecap="square" />
    <line id="du-336" x1="-28.568" y1="11.966" x2="-24.257" y2="11.966" stroke="black" stroke-width="0.102" stroke-linecap="square" />
    <line id="du-337" x1="-24.105" y1="12.119" x2="-24.105" y2="13.037" stroke="black" stroke-width="0.102" stroke-linecap="square" />
    <line id="du-338" x1="-28.415" y1="11.001" x2="-29.032" y2="11.001" stroke="black" stroke-width="0.102" stroke-linecap="square" />
    <line id="du-339" x1="-25.803" y1="3.025" x2="-25.803" y2="2.667" stroke="black" stroke-width="0.102" stroke-linecap="square" />
    <line id="du-340" x1="-19.525" y1="3.177" x2="-25.651" y2="3.177" stroke="black" stroke-width="0.102" stroke-linecap="square" />
    <line id="du-342" x1="-15.59" y1="5.384" x2="-15.59" y2="5.384" stroke="black" stroke-width="0.203" stroke-linecap="square" />
    <line id="du-343" x1="-16.196" y1="4.229" x2="-15.895" y2="4.229" stroke="black" stroke-width="0.203" stroke-linecap="square" />
    <line id="du-344" x1="-15.59" y1="4.534" x2="-15.59" y2="5.079" stroke="black" stroke-width="0.203" stroke-linecap="square" />
    <line id="du-345" x1="-16.196" y1="3.721" x2="-15.891" y2="3.721" stroke="black" stroke-width="0.203" stroke-linecap="square" />
    <line id="du-346" x1="-15.587" y1="3.416" x2="-15.587" y2="3.365" stroke="black" stroke-width="0.203" stroke-linecap="square" />
    <line id="du-347" x1="-17.626" y1="4.229" x2="-18.84" y2="4.229" stroke="black" stroke-width="0.102" stroke-linecap="square" />
    <line id="du-348" x1="-17.626" y1="3.721" x2="-17.778" y2="3.721" stroke="black" stroke-width="0.102" stroke-linecap="square" />
    <line id="du-349" x1="-18.978" y1="4.141" x2="-19.386" y2="3.265" stroke="black" stroke-width="0.102" stroke-linecap="square" />
    <line id="du-350" x1="-17.916" y1="3.632" x2="-18.17" y2="3.077" stroke="black" stroke-width="0.102" stroke-linecap="square" />
    <line id="du-351" x1="-15.587" y1="3.061" x2="-15.587" y2="3.061" stroke="black" stroke-width="0.203" stroke-linecap="square" />
    <line id="du-928" x1="-5.891" y1="-4.307" x2="-5.891" y2="-4.307" stroke="black" stroke-width="0.203" stroke-linecap="square" />
    <line id="du-931" x1="0.832" y1="-4.307" x2="0.832" y2="-4.307" stroke="black" stroke-width="0.203" stroke-linecap="square" />
    <line id="du-1000" x1="20.633" y1="-8.38" x2="20.597" y2="-8.102" stroke="black" stroke-width="0.102" stroke-linecap="square" />
    <line id="du-1001" x1="15.326" y1="12.253" x2="15.326" y2="11.11" stroke="black" stroke-width="0.102" stroke-linecap="square" />
    <line id="du-1002" x1="13.535" y1="13.037" x2="13.535" y2="12.558" stroke="black" stroke-width="0.102" stroke-linecap="square" />
    <line id="du-1003" x1="2.105" y1="13.037" x2="2.105" y2="12.33" stroke="black" stroke-width="0.102" stroke-linecap="square" />
    <line id="du-1005" x1="-11.56" y1="13.037" x2="-11.56" y2="12.045" stroke="black" stroke-width="0.102" stroke-linecap="square" />
    <line id="du-1006" x1="-29.185" y1="13.037" x2="-29.185" y2="11.154" stroke="black" stroke-width="0.102" stroke-linecap="square" />
    <line id="du-1008" x1="-11.846" y1="-0.793" x2="-11.655" y2="-0.793" stroke="black" stroke-width="0.102" stroke-linecap="square" />
    <line id="du-1009" x1="-11.581" y1="-0.793" x2="-11.518" y2="-0.793" stroke="black" stroke-width="0.102" stroke-linecap="square" />
    <line id="du-1051" x1="11.206" y1="8.078" x2="9.312" y2="8.078" stroke="black" stroke-width="0.203" stroke-linecap="square" />
    <line id="du-1052" x1="3.129" y1="8.77" x2="3.129" y2="8.383" stroke="black" stroke-width="0.203" stroke-linecap="square" />
    <line id="du-1053" x1="15.326" y1="9.68" x2="15.326" y2="9.293" stroke="black" stroke-width="0.203" stroke-linecap="square" />
  </g>
</svg>