<?xml version="1.0" encoding="utf-8"?>
<svg xmlns="http://www.w3.org/2000/svg" viewBox="-132.909 190.877 21.419 23.638">
  <g transform="scale(1,-1)">
    <rect id="mn-1" x="-129.313" y="-195.183" width="0.05" height="0.05" fill="black" transform="rotate(240,-129.288,-195.158)" />
    <rect id="mn-2" x="-126.418" y="-195.335" width="0.05" height="0.05" fill="black" transform="rotate(180,-126.393,-195.31)" />
    <rect id="mn-3" x="-121.674" y="-195.183" width="0.05" height="0.05" fill="black" transform="rotate(120,-121.649,-195.158)" />
    <rect id="mn-4" x="-112.165" y="-197.774" width="0.05" height="0.05" fill="black" transform="rotate(240,-112.14,-197.749)" />
    <rect id="mn-5" x="-112.927" y="-195.031" width="0.05" height="0.05" fill="black" transform="rotate(180,-112.902,-195.006)" />
    <rect id="mn-6" x="-112.927" y="-193.38" width="0.05" height="0.05" fill="black" transform="rotate(120,-112.902,-193.355)" />
    <rect id="mn-7" x="-112.317" y="-204.88" width="0.05" height="0.05" fill="black" transform="rotate(180,-112.292,-204.855)" />
    <rect id="mn-8" x="-113.494" y="-204.88" width="0.05" height="0.05" fill="black" transform="rotate(180,-113.469,-204.855)" />
    <rect id="mn-9" x="-126.418" y="-210.537" width="0.05" height="0.05" fill="black" transform="rotate(240,-126.393,-210.512)" />
    <rect id="mn-10" x="-113.494" y="-210.69" width="0.05" height="0.05" fill="black" transform="rotate(180,-113.469,-210.665)" />
    <rect id="mn-11" x="-113.494" y="-213.89" width="0.05" height="0.05" fill="black" transform="rotate(240,-113.469,-213.865)" />
    <rect id="mn-12" x="-112.165" y="-210.537" width="0.05" height="0.05" fill="black" />
    <rect id="mn-13" x="-112.165" y="-201.105" width="0.05" height="0.05" fill="black" transform="rotate(240,-112.14,-201.08)" />
    <rect id="mn-14" x="-112.165" y="-195.183" width="0.05" height="0.05" fill="black" transform="rotate(90,-112.14,-195.158)" />
    <rect id="mn-15" x="-112.165" y="-200.597" width="0.05" height="0.05" fill="black" transform="rotate(120,-112.14,-200.572)" />
    <rect id="mn-73" x="-112.161" y="-200.851" width="0.05" height="0.05" fill="black" transform="rotate(120,-112.136,-200.826)" />
    <rect id="mn-74" x="-112.923" y="-200.851" width="0.05" height="0.05" fill="black" transform="rotate(180,-112.898,-200.826)" />
  </g>
</svg>