<?xml version="1.0" encoding="utf-8"?>
<svg xmlns="http://www.w3.org/2000/svg" viewBox="-33.918 -13.687 55.2 23.839">
  <g transform="scale(1,-1)">
    <rect id="tm-1" x="-10.878" y="-9.043" width="0.3" height="0.3" fill="black" transform="rotate(270,-10.728,-8.893)" />
    <rect id="tm-2" x="-11.178" y="-3.652" width="0.3" height="0.3" fill="black" transform="rotate(180,-11.028,-3.502)" />
    <rect id="tm-3" x="-10.408" y="-2.182" width="0.3" height="0.3" fill="black" transform="rotate(180,-10.258,-2.032)" />
    <rect id="tm-4" x="-6.91" y="12.88" width="0.3" height="0.3" fill="black" transform="rotate(180,-6.76,13.03)" />
    <rect id="tm-5" x="-10.393" y="4.13" width="0.3" height="0.3" fill="black" transform="rotate(180,-10.243,4.28)" />
    <rect id="tm-6" x="-12.936" y="-3.196" width="0.3" height="0.3" fill="black" transform="rotate(90,-12.786,-3.046)" />
    <rect id="tm-7" x="-8.779" y="5.432" width="0.3" height="0.3" fill="black" transform="rotate(120,-8.629,5.582)" />
    <rect id="tm-8" x="-10.494" y="10.886" width="0.3" height="0.3" fill="black" transform="rotate(240,-10.344,11.036)" />
    <rect id="tm-9" x="-10.291" y="9.347" width="0.3" height="0.3" fill="black" transform="rotate(240,-10.141,9.497)" />
    <rect id="tm-10" x="-10.494" y="7.727" width="0.3" height="0.3" fill="black" transform="rotate(240,-10.344,7.877)" />
    <rect id="tm-17" x="-3.579" y="4.397" width="0.3" height="0.3" fill="black" transform="rotate(180,-3.429,4.547)" />
    <rect id="tm-18" x="2.573" y="7.925" width="0.3" height="0.3" fill="black" transform="rotate(120,2.723,8.075)" />
    <rect id="tm-19" x="8.359" y="5.4" width="0.3" height="0.3" fill="black" transform="rotate(180,8.509,5.55)" />
    <rect id="tm-20" x="4.066" y="8.03" width="0.3" height="0.3" fill="black" transform="rotate(180,4.216,8.18)" />
    <rect id="tm-21" x="6.429" y="8.03" width="0.3" height="0.3" fill="black" transform="rotate(180,6.579,8.18)" />
    <rect id="tm-22" x="4.495" y="12.88" width="0.3" height="0.3" fill="black" transform="rotate(180,4.645,13.03)" />
    <rect id="tm-23" x="17.195" y="12.88" width="0.3" height="0.3" fill="black" transform="rotate(180,17.345,13.03)" />
    <rect id="tm-26" x="15.278" y="4.876" width="0.3" height="0.3" fill="black" transform="rotate(120,15.428,5.026)" />
    <rect id="tm-27" x="14.567" y="8.991" width="0.3" height="0.3" fill="black" transform="rotate(240,14.717,9.141)" />
    <rect id="tm-28" x="15.278" y="7.619" width="0.3" height="0.3" fill="black" transform="rotate(120,15.428,7.769)" />
    <rect id="tm-30" x="16.788" y="0.167" width="0.3" height="0.3" fill="black" transform="rotate(240,16.938,0.317)" />
    <rect id="tm-31" x="16.788" y="-2.576" width="0.3" height="0.3" fill="black" transform="rotate(240,16.938,-2.426)" />
    <rect id="tm-32" x="16.991" y="-1.204" width="0.3" height="0.3" fill="black" transform="rotate(240,17.141,-1.054)" />
    <rect id="tm-33" x="17.303" y="-3.794" width="0.3" height="0.3" fill="black" transform="rotate(98.421,17.453,-3.644)" />
    <rect id="tm-36" x="4.628" y="-4.176" width="0.3" height="0.3" fill="black" transform="rotate(240,4.778,-4.026)" />
    <rect id="tm-37" x="4.628" y="-1.433" width="0.3" height="0.3" fill="black" transform="rotate(240,4.778,-1.283)" />
    <rect id="tm-42" x="9.168" y="-4.176" width="0.3" height="0.3" fill="black" transform="rotate(240,9.318,-4.026)" />
    <rect id="tm-43" x="9.168" y="-1.433" width="0.3" height="0.3" fill="black" transform="rotate(240,9.318,-1.283)" />
    <rect id="tm-54" x="4.831" y="-2.804" width="0.3" height="0.3" fill="black" transform="rotate(240,4.981,-2.654)" />
    <rect id="tm-55" x="9.372" y="-2.804" width="0.3" height="0.3" fill="black" transform="rotate(240,9.522,-2.654)" />
    <rect id="tm-56" x="1.474" y="-0.324" width="0.3" height="0.3" fill="black" transform="rotate(240,1.624,-0.174)" />
    <rect id="tm-340" x="20.482" y="-8.523" width="0.3" height="0.3" fill="black" transform="rotate(90.245,20.632,-8.373)" />
    <rect id="tm-341" x="19.906" y="-4.13" width="0.3" height="0.3" fill="black" transform="rotate(180,20.056,-3.98)" />
    <rect id="tm-342" x="18.827" y="-4.333" width="0.3" height="0.3" fill="black" transform="rotate(180,18.977,-4.183)" />
    <rect id="tm-343" x="11.802" y="-1.963" width="0.3" height="0.3" fill="black" transform="rotate(240,11.952,-1.813)" />
    <rect id="tm-344" x="11.802" y="-0.722" width="0.3" height="0.3" fill="black" transform="rotate(240,11.952,-0.572)" />
    <rect id="tm-345" x="11.802" y="-3.312" width="0.3" height="0.3" fill="black" transform="rotate(240,11.952,-3.162)" />
    <rect id="tm-346" x="10.705" y="-4.787" width="0.3" height="0.3" fill="black" transform="rotate(180,10.855,-4.637)" />
    <rect id="tm-347" x="1.474" y="-1.71" width="0.3" height="0.3" fill="black" transform="rotate(240,1.624,-1.56)" />
    <rect id="tm-348" x="1.474" y="-3.084" width="0.3" height="0.3" fill="black" transform="rotate(240,1.624,-2.934)" />
    <rect id="tm-349" x="3.585" y="-4.787" width="0.3" height="0.3" fill="black" transform="rotate(180,3.735,-4.637)" />
    <rect id="tm-350" x="13.385" y="12.88" width="0.3" height="0.3" fill="black" transform="rotate(180,13.535,13.03)" />
    <rect id="tm-351" x="14.567" y="6.314" width="0.3" height="0.3" fill="black" transform="rotate(240,14.717,6.464)" />
    <rect id="tm-352" x="1.955" y="12.88" width="0.3" height="0.3" fill="black" transform="rotate(180,2.105,13.03)" />
    <rect id="tm-353" x="-11.71" y="12.88" width="0.3" height="0.3" fill="black" transform="rotate(180,-11.56,13.03)" />
    <rect id="tm-355" x="-12.86" y="-9.043" width="0.3" height="0.3" fill="black" transform="rotate(90,-12.71,-8.893)" />
    <rect id="tm-379" x="0.58" y="-4.457" width="0.3" height="0.3" fill="black" transform="rotate(90,0.73,-4.307)" />
    <rect id="tm-380" x="0.58" y="-4.457" width="0.3" height="0.3" fill="black" transform="rotate(90,0.73,-4.307)" />
    <rect id="tm-381" x="0.58" y="-4.457" width="0.3" height="0.3" fill="black" transform="rotate(90,0.73,-4.307)" />
    <rect id="tm-382" x="0.58" y="-4.457" width="0.3" height="0.3" fill="black" transform="rotate(90,0.73,-4.307)" />
    <rect id="tm-509" x="10.109" y="8.03" width="0.3" height="0.3" fill="black" transform="rotate(90,10.259,8.18)" />
  </g>
</svg>