<?xml version="1.0" encoding="utf-8"?>
<svg xmlns="http://www.w3.org/2000/svg" viewBox="-35.095 -14.445 57.541 61.213">
  <g transform="scale(1,-1)">
    <polygon id="ss-21" points="-12.001,5.702 -15.011,5.702 -15.011,-2.527 -15.126,-2.527 -15.126,-8.573 -6.172,-8.573 -6.172,-9.068 12.573,-9.068 12.573,-9.069 21.712,-7.866 18.983,12.865 -6.172,12.865 -12.001,12.865" fill="rgba(128,128,128,0.2)" stroke="gray" stroke-width="0.05" />
    <polygon id="ss-23" points="-26.936,0.778 -25.7,0.215 -26.632,-1.831 -22.379,-3.769 -20.312,0.768 -19.145,0.236 -20.077,-1.81 -15.778,-3.769 -15.011,-2.087 -15.011,5.702 -15.164,5.702 -15.164,12.865 -21.336,12.865 -27.661,12.865 -30.366,12.865 -30.366,10.452 -27.572,10.452 -27.572,7.684 -30.366,7.684 -30.366,5.702 -33.845,5.702 -33.845,0.559 -32.2,0.559 -33.28,-1.81 -29.004,-3.758" fill="rgba(128,128,128,0.2)" stroke="gray" stroke-width="0.05" />
  </g>
</svg>