<?xml version="1.0" encoding="utf-8"?>
<svg xmlns="http://www.w3.org/2000/svg" viewBox="-34.485 -31.672 64.597 49.853">
  <g transform="scale(1,-1)">
    <polygon id="sl-6" points="-33.217,7.83 -33.217,6.013 -30.677,6.013 -30.677,6.16 -30.677,7.176 -30.677,7.83" fill="rgba(128,128,128,0.2)" stroke="gray" stroke-width="0.05" />
    <polygon id="sl-8" points="15.272,-0.667 15.272,0.565 13.894,0.565 12.878,0.565 12.732,0.565 12.732,-0.921 13.849,-0.921 13.849,-0.667" fill="rgba(128,128,128,0.2)" stroke="gray" stroke-width="0.05" />
    <polygon id="sl-17" points="-14.853,7.836 -14.853,6.013 -13.475,6.013 -12.459,6.013 -12.313,6.013 -12.313,7.836 -13.437,7.836" fill="rgba(128,128,128,0.2)" stroke="gray" stroke-width="0.05" />
    <polygon id="sl-96" points="0.94,0.368 0.94,0.994 -1.854,1.366 -1.854,0.755" fill="rgba(128,128,128,0.2)" stroke="gray" stroke-width="0.05" />
    <polygon id="sl-97" points="-3.226,1.365 -3.226,1.975 -6.02,1.603 -6.02,0.978" fill="rgba(128,128,128,0.2)" stroke="gray" stroke-width="0.05" />
    <polygon id="sl-105" points="0.94,0.368 0.94,0.994 -6.02,0.994 -6.02,0.368" fill="rgba(128,128,128,0.2)" stroke="gray" stroke-width="0.05" />
    <polygon id="sl-106" points="0.94,0.978 0.94,1.603 -6.02,1.603 -6.02,0.978" fill="rgba(128,128,128,0.2)" stroke="gray" stroke-width="0.05" />
    <polygon id="sl-185" points="29.612,31.172 28.088,31.172 28.088,29.648 29.612,29.648" fill="rgba(128,128,128,0.2)" stroke="gray" stroke-width="0.05" />
    <polygon id="sl-186" points="29.612,28.733 28.088,28.733 28.088,27.209 29.612,27.209" fill="rgba(128,128,128,0.2)" stroke="gray" stroke-width="0.05" />
    <polygon id="sl-187" points="29.612,26.295 28.088,26.295 28.088,24.771 29.612,24.771" fill="rgba(128,128,128,0.2)" stroke="gray" stroke-width="0.05" />
    <polygon id="sl-188" points="29.612,23.857 28.088,23.857 28.088,22.333 29.612,22.333" fill="rgba(128,128,128,0.2)" stroke="gray" stroke-width="0.05" />
    <polygon id="sl-189" points="29.612,21.418 28.088,21.418 28.088,19.894 29.612,19.894" fill="rgba(128,128,128,0.2)" stroke="gray" stroke-width="0.05" />
    <polygon id="sl-190" points="29.612,18.98 28.088,18.98 28.088,17.456 29.612,17.456" fill="rgba(128,128,128,0.2)" stroke="gray" stroke-width="0.05" />
    <polygon id="sl-192" points="2.121,6.642 1.486,6.642" fill="rgba(128,128,128,0.2)" stroke="gray" stroke-width="0.05" />
    <polygon id="sl-204" points="-9.693,9.792 -8.474,8.573 -8.299,8.573 -1.854,8.572 0.94,8.572 2.845,8.572 2.845,9.792" fill="rgba(128,128,128,0.2)" stroke="gray" stroke-width="0.05" />
    <polygon id="sl-205" points="-18.736,4.483 -11.951,4.483 -11.951,5.652 -12.002,5.652 -15.164,5.652 -17.516,5.652 -17.602,5.569" fill="rgba(128,128,128,0.2)" stroke="gray" stroke-width="0.05" />
    <polygon id="sl-206" points="-29.096,6.414 -27.521,6.414 -27.521,7.547 -27.521,7.633 -30.229,7.633 -30.315,7.633" fill="rgba(128,128,128,0.2)" stroke="gray" stroke-width="0.05" />
    <polygon id="sl-207" points="19.221,9.792 15.57,6.985 19.975,4.061" fill="rgba(128,128,128,0.2)" stroke="gray" stroke-width="0.05" />
    <polygon id="sl-208" points="15.634,0.927 15.634,2.146 12.37,2.146 12.37,0.927" fill="rgba(128,128,128,0.2)" stroke="gray" stroke-width="0.05" />
  </g>
</svg>