<?xml version="1.0" encoding="utf-8"?>
<svg xmlns="http://www.w3.org/2000/svg" viewBox="-34.485 -31.672 64.597 49.853">
  <g transform="scale(1,-1)">
    <rect id="tm-208" x="12.474" y="0.863" width="0.3" height="0.3" fill="black" transform="rotate(180,12.624,1.013)" />
    <rect id="tm-273" x="-33.373" y="6.518" width="0.3" height="0.3" fill="black" transform="rotate(240,-33.223,6.668)" />
    <rect id="tm-274" x="-30.821" y="6.518" width="0.3" height="0.3" fill="black" transform="rotate(240,-30.671,6.668)" />
    <rect id="tm-285" x="-1.388" y="5.467" width="0.3" height="0.3" fill="black" transform="rotate(90,-1.238,5.617)" />
    <rect id="tm-286" x="-8.71" y="5.695" width="0.3" height="0.3" fill="black" transform="rotate(240,-8.56,5.845)" />
    <rect id="tm-287" x="-8.71" y="8.28" width="0.3" height="0.3" fill="black" transform="rotate(240,-8.56,8.43)" />
    <rect id="tm-288" x="-7.23" y="8.508" width="0.3" height="0.3" fill="black" transform="rotate(180,-7.08,8.658)" />
    <rect id="tm-289" x="-3.709" y="8.508" width="0.3" height="0.3" fill="black" transform="rotate(180,-3.559,8.658)" />
    <rect id="tm-290" x="1.168" y="8.508" width="0.3" height="0.3" fill="black" transform="rotate(180,1.318,8.658)" />
    <rect id="tm-291" x="-14.133" y="5.416" width="0.3" height="0.3" fill="black" transform="rotate(90,-13.983,5.566)" />
    <rect id="tm-292" x="-17.752" y="5.644" width="0.3" height="0.3" fill="black" transform="rotate(240,-17.602,5.794)" />
    <rect id="tm-293" x="-17.752" y="10.648" width="0.3" height="0.3" fill="black" transform="rotate(240,-17.602,10.798)" />
    <rect id="tm-294" x="-28.331" y="7.397" width="0.3" height="0.3" fill="black" transform="rotate(90,-28.181,7.547)" />
    <rect id="tm-295" x="-30.379" y="5.771" width="0.3" height="0.3" fill="black" transform="rotate(120,-30.229,5.921)" />
  </g>
</svg>