<?xml version="1.0" encoding="utf-8"?>
<svg xmlns="http://www.w3.org/2000/svg" viewBox="-34.485 -13.903 54.38 15.47">
  <g transform="scale(1,-1)">
    <line id="w-89" x1="-1.727" y1="5.747" x2="-8.43" y2="5.747" stroke="black" stroke-width="0.26" stroke-linecap="square" />
    <line id="w-90" x1="-8.43" y1="5.747" x2="-8.43" y2="8.528" stroke="black" stroke-width="0.26" stroke-linecap="square" />
    <line id="w-91" x1="-8.43" y1="8.528" x2="-1.727" y2="8.528" stroke="black" stroke-width="0.26" stroke-linecap="square" />
    <line id="w-226" x1="-4.261" y1="5.747" x2="-4.261" y2="8.528" stroke="black" stroke-width="0.184" stroke-linecap="square" />
    <line id="w-227" x1="-6.59" y1="5.747" x2="-6.59" y2="8.528" stroke="black" stroke-width="0.124" stroke-linecap="square" />
    <line id="w-228" x1="-15.011" y1="5.696" x2="-17.472" y2="5.696" stroke="black" stroke-width="0.26" stroke-linecap="square" />
    <line id="w-229" x1="-17.472" y1="5.696" x2="-17.472" y2="10.897" stroke="black" stroke-width="0.26" stroke-linecap="square" />
    <line id="w-230" x1="-17.472" y1="10.897" x2="-15.011" y2="10.897" stroke="black" stroke-width="0.26" stroke-linecap="square" />
    <line id="w-256" x1="1.102" y1="5.88" x2="1.102" y2="4.105" stroke="black" stroke-width="0.26" stroke-linecap="square" />
    <line id="w-257" x1="1.067" y1="8.528" x2="2.8" y2="8.528" stroke="black" stroke-width="0.26" stroke-linecap="square" />
    <line id="w-530" x1="2.8" y1="4.105" x2="2.8" y2="8.528" stroke="black" stroke-width="0.26" stroke-linecap="square" />
    <line id="w-531" x1="1.102" y1="4.105" x2="2.8" y2="4.105" stroke="black" stroke-width="0.26" stroke-linecap="square" />
    <line id="w-532" x1="1.067" y1="6.159" x2="2.8" y2="6.159" stroke="black" stroke-width="0.156" stroke-linecap="square" />
    <line id="w-533" x1="1.067" y1="7.15" x2="2.8" y2="7.15" stroke="black" stroke-width="0.156" stroke-linecap="square" />
    <line id="w-534" x1="1.218" y1="5.753" x2="1.218" y2="6.159" stroke="black" stroke-width="0.048" stroke-linecap="square" />
    <line id="w-583" x1="-1.894" y1="5.685" x2="-1.894" y2="8.528" stroke="black" stroke-width="0.079" stroke-linecap="square" />
    <line id="w-629" x1="-15.232" y1="10.897" x2="-15.232" y2="13.403" stroke="black" stroke-width="0.137" stroke-linecap="square" />
    <line id="w-630" x1="-11.933" y1="5.634" x2="-11.933" y2="13.403" stroke="black" stroke-width="0.137" stroke-linecap="square" />
    <line id="w-631" x1="-11.933" y1="5.634" x2="-15.203" y2="5.634" stroke="black" stroke-width="0.137" stroke-linecap="square" />
    <line id="w-632" x1="-33.985" y1="5.634" x2="-30.297" y2="5.634" stroke="black" stroke-width="0.137" stroke-linecap="square" />
    <line id="w-633" x1="-30.297" y1="5.634" x2="-30.297" y2="7.615" stroke="black" stroke-width="0.137" stroke-linecap="square" />
    <line id="w-634" x1="-30.297" y1="7.615" x2="-27.503" y2="7.615" stroke="black" stroke-width="0.137" stroke-linecap="square" />
    <line id="w-635" x1="-27.503" y1="7.615" x2="-27.503" y2="10.582" stroke="black" stroke-width="0.137" stroke-linecap="square" />
    <line id="w-636" x1="-27.503" y1="10.52" x2="-30.297" y2="10.52" stroke="black" stroke-width="0.137" stroke-linecap="square" />
    <line id="w-637" x1="-30.297" y1="13.03" x2="-30.297" y2="10.52" stroke="black" stroke-width="0.137" stroke-linecap="square" />
    <line id="w-638" x1="-1.854" y1="8.59" x2="1.067" y2="8.59" stroke="black" stroke-width="0.137" stroke-linecap="square" />
    <line id="w-639" x1="-1.894" y1="5.685" x2="1.102" y2="5.685" stroke="black" stroke-width="0.137" stroke-linecap="square" />
    <line id="w-640" x1="12.352" y1="0.945" x2="15.651" y2="0.945" stroke="black" stroke-width="0.137" stroke-linecap="square" />
    <line id="w-641" x1="15.651" y1="0.945" x2="15.651" y2="-1.067" stroke="black" stroke-width="0.137" stroke-linecap="square" />
    <line id="w-642" x1="12.352" y1="-0.838" x2="12.352" y2="0.945" stroke="black" stroke-width="0.137" stroke-linecap="square" />
    <line id="w-703" x1="-33.825" y1="0.762" x2="-15.094" y2="0.762" stroke="black" stroke-width="0.47" stroke-linecap="square" />
    <line id="w-729" x1="-11.962" y1="12.621" x2="-6.477" y2="12.621" stroke="black" stroke-width="0.235" stroke-linecap="square" />
    <line id="w-859" x1="-13.954" y1="0.762" x2="-6.477" y2="0.762" stroke="black" stroke-width="0.267" stroke-linecap="square" />
    <line id="w-860" x1="-11.962" y1="5.855" x2="-6.477" y2="5.855" stroke="black" stroke-width="0.267" stroke-linecap="square" />
    <line id="w-897" x1="-5.867" y1="5.855" x2="-1.894" y2="5.855" stroke="black" stroke-width="0.267" stroke-linecap="square" />
    <line id="w-910" x1="1.091" y1="0.756" x2="12.573" y2="0.756" stroke="black" stroke-width="0.267" stroke-linecap="square" />
    <line id="w-911" x1="1.218" y1="5.849" x2="7.071" y2="5.849" stroke="black" stroke-width="0.267" stroke-linecap="square" />
    <line id="w-912" x1="1.397" y1="12.646" x2="6.985" y2="12.646" stroke="black" stroke-width="0.235" stroke-linecap="square" />
    <line id="w-926" x1="7.512" y1="5.849" x2="12.573" y2="5.849" stroke="black" stroke-width="0.267" stroke-linecap="square" />
    <line id="w-927" x1="12.827" y1="5.849" x2="19.395" y2="5.849" stroke="black" stroke-width="0.267" stroke-linecap="square" />
    <line id="w-928" x1="7.595" y1="12.646" x2="12.268" y2="12.646" stroke="black" stroke-width="0.235" stroke-linecap="square" />
    <line id="w-929" x1="-5.867" y1="12.646" x2="0.787" y2="12.646" stroke="black" stroke-width="0.235" stroke-linecap="square" />
    <line id="w-930" x1="12.878" y1="12.646" x2="18.502" y2="12.646" stroke="black" stroke-width="0.235" stroke-linecap="square" />
    <line id="w-1006" x1="-32.297" y1="0.203" x2="-32.042" y2="0.762" stroke="black" stroke-width="0.321" stroke-linecap="square" />
    <line id="w-1007" x1="-25.705" y1="0.213" x2="-25.455" y2="0.762" stroke="black" stroke-width="0.321" stroke-linecap="square" />
    <line id="w-1008" x1="-19.113" y1="0.224" x2="-18.868" y2="0.762" stroke="black" stroke-width="0.321" stroke-linecap="square" />
    <line id="w-1051" x1="-30.282" y1="12.631" x2="-27.924" y2="12.631" stroke="black" stroke-width="0.267" stroke-linecap="square" />
    <line id="w-1052" x1="-30.326" y1="5.855" x2="-15.203" y2="5.855" stroke="black" stroke-width="0.47" stroke-linecap="square" />
    <line id="w-1055" x1="-27.368" y1="12.631" x2="-21.641" y2="12.631" stroke="black" stroke-width="0.267" stroke-linecap="square" />
    <line id="w-1056" x1="-21.031" y1="12.631" x2="-15.203" y2="12.631" stroke="black" stroke-width="0.267" stroke-linecap="square" />
    <line id="w-1062" x1="15.662" y1="0.756" x2="19.334" y2="0.756" stroke="black" stroke-width="0.267" stroke-linecap="square" />
  </g>
</svg>