<?xml version="1.0" encoding="utf-8"?>
<svg xmlns="http://www.w3.org/2000/svg" viewBox="-29.763 -13.216 49.542 10.723">
  <g transform="scale(1,-1)">
    <rect id="mn-3741" x="18.675" y="12.213" width="0.05" height="0.05" transform="rotate(120,18.7,12.238)" />
    <rect id="mn-3742" x="11.999" y="10.24" width="0.05" height="0.05" transform="rotate(269.595,12.024,10.265)" />
    <rect id="mn-3743" x="12.329" y="12.184" width="0.05" height="0.05" transform="rotate(173.186,12.354,12.209)" />
    <rect id="mn-3744" x="11.999" y="10.24" width="0.05" height="0.05" transform="rotate(269.99,12.024,10.265)" />
    <rect id="mn-3745" x="-0.62" y="11.386" width="0.05" height="0.05" transform="rotate(255.315,-0.595,11.411)" />
    <rect id="mn-3746" x="0.804" y="12.192" width="0.05" height="0.05" transform="rotate(138.288,0.829,12.217)" />
    <rect id="mn-3747" x="0.804" y="12.192" width="0.05" height="0.05" transform="rotate(180,0.829,12.217)" />
    <rect id="mn-3748" x="0.804" y="10.668" width="0.05" height="0.05" transform="rotate(90,0.829,10.693)" />
    <rect id="mn-3749" x="0.804" y="10.668" width="0.05" height="0.05" transform="rotate(120,0.829,10.693)" />
    <rect id="mn-3750" x="0.61" y="10.668" width="0.05" height="0.05" transform="rotate(211.4,0.635,10.693)" />
    <rect id="mn-3751" x="-11.807" y="12.192" width="0.05" height="0.05" transform="rotate(240,-11.782,12.217)" />
    <rect id="mn-3752" x="-11.752" y="12.192" width="0.05" height="0.05" transform="rotate(109.207,-11.727,12.217)" />
    <rect id="mn-3753" x="-6.889" y="11.385" width="0.05" height="0.05" transform="rotate(114.774,-6.864,11.41)" />
    <rect id="mn-3754" x="-11.807" y="12.192" width="0.05" height="0.05" transform="rotate(173.836,-11.782,12.217)" />
    <rect id="mn-3755" x="-11.752" y="12.192" width="0.05" height="0.05" transform="rotate(211.4,-11.727,12.217)" />
    <rect id="mn-3756" x="0.61" y="10.668" width="0.05" height="0.05" transform="rotate(270,0.635,10.693)" />
    <rect id="mn-3757" x="-27.501" y="12.194" width="0.05" height="0.05" transform="rotate(180,-27.476,12.219)" />
    <rect id="mn-3758" x="-27.501" y="11.902" width="0.05" height="0.05" transform="rotate(261.579,-27.476,11.927)" />
    <rect id="mn-3759" x="-21.886" y="11.902" width="0.05" height="0.05" transform="rotate(90.002,-21.861,11.927)" />
    <rect id="mn-3760" x="-21.583" y="11.902" width="0.05" height="0.05" transform="rotate(261.579,-21.558,11.927)" />
    <rect id="mn-3761" x="-16.271" y="11.902" width="0.05" height="0.05" transform="rotate(90.002,-16.246,11.927)" />
    <rect id="mn-3762" x="-15.929" y="11.902" width="0.05" height="0.05" transform="rotate(179.578,-15.904,11.927)" />
    <rect id="mn-3763" x="-15.998" y="11.902" width="0.05" height="0.05" transform="rotate(180,-15.973,11.927)" />
    <rect id="mn-3764" x="-27.501" y="11.902" width="0.05" height="0.05" transform="rotate(179.578,-27.476,11.927)" />
    <rect id="mn-3765" x="-27.782" y="11.902" width="0.05" height="0.05" transform="rotate(180,-27.757,11.927)" />
    <rect id="mn-3766" x="-16.238" y="11.902" width="0.05" height="0.05" transform="rotate(180,-16.213,11.927)" />
    <rect id="mn-3767" x="18.621" y="10.838" width="0.05" height="0.05" transform="rotate(179.426,18.646,10.863)" />
    <rect id="mn-3768" x="18.263" y="10.791" width="0.05" height="0.05" transform="rotate(187.504,18.288,10.816)" />
    <rect id="mn-3769" x="18.481" y="11.902" width="0.05" height="0.05" transform="rotate(97.505,18.506,11.927)" />
    <rect id="mn-3770" x="18.396" y="12.213" width="0.05" height="0.05" transform="rotate(211.4,18.421,12.238)" />
    <rect id="mn-3771" x="18.55" y="11.377" width="0.05" height="0.05" transform="rotate(90.473,18.575,11.402)" />
    <rect id="mn-3772" x="18.396" y="12.213" width="0.05" height="0.05" transform="rotate(187.367,18.421,12.238)" />
    <rect id="mn-3773" x="18.777" y="9.648" width="0.05" height="0.05" transform="rotate(244.559,18.802,9.673)" />
    <rect id="mn-3774" x="18.777" y="9.648" width="0.05" height="0.05" transform="rotate(124.421,18.802,9.673)" />
    <rect id="mn-3775" x="18.403" y="9.599" width="0.05" height="0.05" transform="rotate(216.45,18.428,9.624)" />
    <rect id="mn-3776" x="18.403" y="9.599" width="0.05" height="0.05" transform="rotate(185.301,18.428,9.624)" />
    <rect id="mn-3777" x="18.675" y="12.213" width="0.05" height="0.05" transform="rotate(128.243,18.7,12.238)" />
    <rect id="mn-3778" x="15.088" y="6.96" width="0.05" height="0.05" transform="rotate(270,15.113,6.985)" />
    <rect id="mn-3779" x="15.088" y="10.263" width="0.05" height="0.05" transform="rotate(240,15.113,10.288)" />
    <rect id="mn-3780" x="15.112" y="11.34" width="0.05" height="0.05" transform="rotate(247.604,15.137,11.365)" />
    <rect id="mn-3781" x="15.809" y="11.51" width="0.05" height="0.05" transform="rotate(180.562,15.834,11.535)" />
    <rect id="mn-3782" x="10.051" y="7.265" width="0.05" height="0.05" transform="rotate(0.844,10.076,7.29)" />
    <rect id="mn-3783" x="12.329" y="12.184" width="0.05" height="0.05" transform="rotate(148.6,12.354,12.209)" />
    <rect id="mn-3784" x="11.537" y="11.392" width="0.05" height="0.05" transform="rotate(0.646,11.562,11.417)" />
    <rect id="mn-3785" x="5.019" y="11.392" width="0.05" height="0.05" transform="rotate(240,5.044,11.417)" />
    <rect id="mn-3786" x="9.352" y="11.392" width="0.05" height="0.05" transform="rotate(179.578,9.377,11.417)" />
    <rect id="mn-3787" x="10.051" y="11.392" width="0.05" height="0.05" transform="rotate(179.403,10.076,11.417)" />
    <rect id="mn-3788" x="18.55" y="11.377" width="0.05" height="0.05" transform="rotate(124.062,18.575,11.402)" />
    <rect id="mn-3789" x="18.55" y="11.377" width="0.05" height="0.05" transform="rotate(90.245,18.575,11.402)" />
    <rect id="mn-3790" x="0.61" y="11.902" width="0.05" height="0.05" transform="rotate(120,0.635,11.927)" />
    <rect id="mn-3791" x="-27.501" y="12.194" width="0.05" height="0.05" transform="rotate(211.4,-27.476,12.219)" />
    <rect id="mn-3792" x="-27.193" y="11.886" width="0.05" height="0.05" transform="rotate(90.003,-27.168,11.911)" />
    <rect id="mn-3793" x="-28.81" y="3.445" width="0.05" height="0.05" transform="rotate(261.579,-28.785,3.47)" />
    <rect id="mn-3794" x="-27.193" y="5.062" width="0.05" height="0.05" transform="rotate(45.006,-27.168,5.087)" />
    <rect id="mn-3795" x="-28.81" y="11.392" width="0.05" height="0.05" transform="rotate(240,-28.785,11.417)" />
    <rect id="mn-3796" x="-27.193" y="11.392" width="0.05" height="0.05" transform="rotate(269.994,-27.168,11.417)" />
    <rect id="mn-3797" x="-23.329" y="8.582" width="0.05" height="0.05" transform="rotate(240,-23.304,8.607)" />
    <rect id="mn-3798" x="-20.128" y="8.582" width="0.05" height="0.05" transform="rotate(0.646,-20.103,8.607)" />
  </g>
</svg>