<?xml version="1.0" encoding="utf-8"?>
<svg xmlns="http://www.w3.org/2000/svg" viewBox="-29.784 -13.236 51.922 25.210">
  <g transform="scale(1,-1)">
    <path id="pi-2988" d="M 18.421,12.238 L 18.421,12.238" />
    <path id="pi-2989" d="M 18.446,12.238 L 18.676,12.238" />
    <path id="pi-2990" d="M 12.038,10.347 L 12.34,12.127" />
    <path id="pi-2991" d="M 12.024,10.265 L 12.024,10.265" />
    <path id="pi-2992" d="M 0.756,12.176 L -0.522,11.452" />
    <path id="pi-2993" d="M -0.595,11.411 L -0.595,11.411" />
    <path id="pi-2994" d="M -11.782,12.217 L -11.782,12.217" />
    <path id="pi-2995" d="M 0.829,10.777 L 0.829,12.134" />
    <path id="pi-2996" d="M 0.829,10.693 L 0.829,10.693" />
    <path id="pi-2997" d="M 0.829,12.217 L 0.829,12.217" />
    <path id="pi-2998" d="M 0.804,10.693 L 0.66,10.693" />
    <path id="pi-2999" d="M 0.635,10.693 L 0.635,10.693" />
    <path id="pi-3000" d="M -11.777,12.217 L -11.732,12.217" />
    <path id="pi-3001" d="M -11.727,12.217 L -11.727,12.217" />
    <path id="pi-3002" d="M -6.946,11.423 L -11.7,12.203" />
    <path id="pi-3003" d="M -6.864,11.41 L -6.864,11.41" />
    <path id="pi-3004" d="M 0.635,10.778 L 0.635,11.724" />
    <path id="pi-3005" d="M -27.476,12.195 L -27.476,11.952" />
    <path id="pi-3006" d="M -27.386,11.927 L -21.896,11.927" />
    <path id="pi-3007" d="M -21.837,11.927 L -21.582,11.927" />
    <path id="pi-3008" d="M -16.299,11.927 L -21.524,11.927" />
    <path id="pi-3009" d="M -15.995,11.927 L -16.224,11.927" />
    <path id="pi-3010" d="M -27.476,11.927 L -27.476,11.927" />
    <path id="pi-3011" d="M -15.554,11.927 L -15.74,11.927" />
    <path id="pi-3012" d="M -27.567,11.927 L -27.757,11.927" />
    <path id="pi-3013" d="M -16.067,11.927 L -16.213,11.927" />
    <path id="pi-3014" d="M 18.394,10.83 L 18.288,10.816" />
    <path id="pi-3015" d="M 18.802,9.673 L 18.802,9.673" />
    <path id="pi-3016" d="M 18.679,10.611 L 18.769,9.925" />
    <path id="pi-3017" d="M 18.546,11.622 L 18.539,11.676" />
    <path id="pi-3018" d="M 18.252,11.927 L 12.322,11.927" />
    <path id="pi-3019" d="M 18.538,11.602 L 18.458,12.038" />
    <path id="pi-3020" d="M 18.575,11.402 L 18.575,11.402" />
    <path id="pi-3021" d="M 18.694,9.659 L 18.536,9.638" />
    <path id="pi-3022" d="M 18.462,9.372 L 21.14,-10.975" />
    <path id="pi-3023" d="M 18.428,9.624 L 18.428,9.624" />
    <path id="pi-3024" d="M 18.7,12.238 L 18.7,12.238" />
    <path id="pi-3025" d="M 18.503,12.19 L 16.031,11.584" />
    <path id="pi-3026" d="M 15.113,6.985 L 15.113,6.985" />
    <path id="pi-3027" d="M 15.113,7.188 L 15.113,10.159" />
    <path id="pi-3028" d="M 15.178,10.399 L 15.688,11.284" />
    <path id="pi-3029" d="M 15.137,11.365 L 15.137,11.365" />
    <path id="pi-3030" d="M 15.334,11.413 L 15.551,11.466" />
    <path id="pi-3031" d="M 9.581,11.417 L 9.908,11.417" />
    <path id="pi-3032" d="M 9.581,7.29 L 9.873,7.29" />
    <path id="pi-3033" d="M 10.076,7.493 L 10.076,11.214" />
    <path id="pi-3034" d="M 12.354,12.209 L 12.354,12.209" />
    <path id="pi-3035" d="M 12.211,12.066 L 11.653,11.508" />
    <path id="pi-3036" d="M 11.433,11.417 L 10.279,11.417" />
    <path id="pi-3037" d="M 5.044,11.417 L 5.044,11.417" />
    <path id="pi-3038" d="M 5.247,11.417 L 9.208,11.417" />
    <path id="pi-3039" d="M 18.575,11.402 L 18.575,11.402" />
    <path id="pi-3040" d="M 18.617,11.081 L 18.608,11.151" />
    <path id="pi-3041" d="M -27.476,12.219 L -27.476,12.219" />
    <path id="pi-3042" d="M -27.332,12.076 L -27.259,12.002" />
    <path id="pi-3043" d="M -27.168,11.783 L -27.168,11.62" />
    <path id="pi-3044" d="M -28.785,3.47 L -28.785,3.47" />
    <path id="pi-3045" d="M -28.641,3.614 L -27.259,4.996" />
    <path id="pi-3046" d="M -27.168,5.215 L -27.168,11.249" />
    <path id="pi-3047" d="M -28.785,11.417 L -28.785,11.417" />
    <path id="pi-3048" d="M -28.581,11.417 L -27.371,11.417" />
    <path id="pi-3049" d="M -23.304,8.607 L -23.304,8.607" />
    <path id="pi-3050" d="M -23.1,8.607 L -20.232,8.607" />
    <path id="pi-3051" d="M -20.012,8.698 L -19.491,9.219" />
  </g>
</svg>