<?xml version="1.0" encoding="utf-8"?>
<svg xmlns="http://www.w3.org/2000/svg" viewBox="-6.173 1.532 7.267 7.815">
  <g transform="scale(1,-1)">
    <polygon id="sl-36" points="-6.023,-5.007 -6.023,-7.84 -4.71,-7.84 -4.71,-9.196 -0.37,-9.196 -0.37,-7.84 0.943,-7.84 0.943,-5.007" />
    <polygon id="sl-37" points="-6.023,-5.06 0.943,-5.06 0.943,-3.29 0.94,-3.289 -1.854,-2.902 -3.226,-2.902 -6.02,-3.289 -6.023,-3.29" />
    <polygon id="sl-38" points="-3.226,-2.902 -3.226,-2.292 -6.02,-2.664 -6.02,-3.289" />
    <polygon id="sl-39" points="-3.226,-2.293 -3.226,-1.682 -6.02,-2.054 -6.02,-2.68" />
    <polygon id="sl-40" points="0.94,-3.289 0.94,-2.664 -6.02,-2.664 -6.02,-3.289" />
    <polygon id="sl-41" points="0.94,-2.68 0.94,-2.054 -6.02,-2.054 -6.02,-2.68" />
  </g>
</svg>