<?xml version="1.0" encoding="utf-8"?>
<svg xmlns="http://www.w3.org/2000/svg" viewBox="-134.847 188.218 26.744 34.612">
  <g transform="scale(1,-1)">
    <line id="w-8" x1="-109.094" y1="-189.208" x2="-133.681" y2="-189.208" stroke="black" stroke-width="0.371" stroke-linecap="square" />
    <line id="w-9" x1="-109.094" y1="-189.208" x2="-109.094" y2="-216.64" stroke="black" stroke-width="0.371" stroke-linecap="square" />
    <line id="w-10" x1="-133.681" y1="-189.208" x2="-133.681" y2="-208.156" stroke="black" stroke-width="0.371" stroke-linecap="square" />
    <line id="w-25" x1="-115.298" y1="-201.502" x2="-133.681" y2="-201.502" stroke="black" stroke-width="0.114" stroke-linecap="square" />
    <line id="w-26" x1="-125.326" y1="-204.633" x2="-125.326" y2="-201.502" stroke="black" stroke-width="0.114" stroke-linecap="square" />
    <line id="w-27" x1="-109.094" y1="-208.379" x2="-118.898" y2="-208.379" stroke="black" stroke-width="0.114" stroke-linecap="square" />
    <line id="w-31" x1="-111.64" y1="-189.208" x2="-111.64" y2="-195.158" stroke="black" stroke-width="0.114" stroke-linecap="square" />
    <line id="w-32" x1="-111.64" y1="-195.158" x2="-115.298" y2="-195.158" stroke="black" stroke-width="0.114" stroke-linecap="square" />
    <line id="w-33" x1="-115.298" y1="-195.158" x2="-115.298" y2="-189.208" stroke="black" stroke-width="0.114" stroke-linecap="square" />
    <line id="w-34" x1="-115.298" y1="-195.158" x2="-115.298" y2="-201.502" stroke="black" stroke-width="0.114" stroke-linecap="square" />
    <line id="w-35" x1="-115.298" y1="-199.12" x2="-111.64" y2="-199.12" stroke="black" stroke-width="0.114" stroke-linecap="square" />
    <line id="w-36" x1="-111.64" y1="-195.158" x2="-111.64" y2="-199.12" stroke="black" stroke-width="0.114" stroke-linecap="square" />
    <line id="w-37" x1="-111.64" y1="-199.12" x2="-111.64" y2="-201.502" stroke="black" stroke-width="0.114" stroke-linecap="square" />
    <line id="w-38" x1="-111.64" y1="-201.502" x2="-115.298" y2="-201.502" stroke="black" stroke-width="0.114" stroke-linecap="square" />
    <line id="w-39" x1="-112.612" y1="-199.12" x2="-112.612" y2="-201.502" stroke="black" stroke-width="0.114" stroke-linecap="square" />
  </g>
</svg>