<?xml version="1.0" encoding="utf-8"?>
<svg xmlns="http://www.w3.org/2000/svg" viewBox="-134.847 188.218 26.744 34.612">
  <g transform="scale(1,-1)">
    <line id="wn-5" data-host="w-8" x1="-129.182" y1="-189.208" x2="-132.23" y2="-189.208" stroke="white" stroke-width="0.391" />
    <line id="wn-6" data-host="w-8" x1="-125.125" y1="-189.208" x2="-128.173" y2="-189.208" stroke="white" stroke-width="0.391" />
    <line id="wn-7" data-host="w-8" x1="-121.044" y1="-189.208" x2="-124.092" y2="-189.208" stroke="white" stroke-width="0.391" />
    <line id="wn-8" data-host="w-8" x1="-116.987" y1="-189.208" x2="-120.035" y2="-189.208" stroke="white" stroke-width="0.391" />
    <line id="wn-18" data-host="w-8" x1="-112.766" y1="-189.208" x2="-113.782" y2="-189.208" stroke="white" stroke-width="0.391" />
    <line id="wn-22" data-host="w-8" x1="-109.993" y1="-189.208" x2="-110.653" y2="-189.208" stroke="white" stroke-width="0.391" />
    <line id="wn-24" data-host="w-10" x1="-133.681" y1="-201.808" x2="-133.681" y2="-204.348" stroke="white" stroke-width="0.391" />
    <line id="wn-25" data-host="w-10" x1="-133.681" y1="-196.218" x2="-133.681" y2="-198.758" stroke="white" stroke-width="0.391" />
    <line id="wn-26" data-host="w-10" x1="-133.681" y1="-191.784" x2="-133.681" y2="-194.324" stroke="white" stroke-width="0.391" />
    <line id="wn-27" data-host="w-9" x1="-109.094" y1="-196.82" x2="-109.094" y2="-197.836" stroke="white" stroke-width="0.391" />
    <line id="wn-28" data-host="w-9" x1="-109.094" y1="-202.69" x2="-109.094" y2="-203.706" stroke="white" stroke-width="0.391" />
    <line id="wn-29" data-host="w-9" x1="-109.094" y1="-205.626" x2="-109.094" y2="-206.642" stroke="white" stroke-width="0.391" />
    <line id="wn-30" data-host="w-9" x1="-109.094" y1="-209.987" x2="-109.094" y2="-211.003" stroke="white" stroke-width="0.391" />
    <line id="wn-51" data-host="w-25" x1="-119.269" y1="-201.502" x2="-124.857" y2="-201.502" stroke="white" stroke-width="0.134" />
    <line id="wn-54" data-host="w-9" x1="-109.094" y1="-213.224" x2="-109.094" y2="-214.24" stroke="white" stroke-width="0.391" />
  </g>
</svg>