<?xml version="1.0" encoding="utf-8"?>
<svg xmlns="http://www.w3.org/2000/svg" viewBox="-33.918 -13.687 55.2 23.839">
  <g transform="scale(1,-1)">
    <line id="du-65" x1="-3.353" y1="8.479" x2="-3.353" y2="11.711" stroke="black" stroke-width="0.203" stroke-linecap="square" />
    <line id="du-66" x1="-2.845" y1="8.053" x2="-2.845" y2="8.815" stroke="black" stroke-width="0.203" stroke-linecap="square" />
    <line id="du-67" x1="-2.54" y1="9.12" x2="0.356" y2="9.12" stroke="black" stroke-width="0.203" stroke-linecap="square" />
    <line id="du-68" x1="-3.505" y1="6.166" x2="-4.093" y2="6.166" stroke="black" stroke-width="0.102" stroke-linecap="square" />
    <line id="du-69" x1="-4.245" y1="6.318" x2="-4.245" y2="13.037" stroke="black" stroke-width="0.102" stroke-linecap="square" />
    <line id="du-70" x1="-2.845" y1="6.623" x2="-2.845" y2="6.318" stroke="black" stroke-width="0.102" stroke-linecap="square" />
    <line id="du-71" x1="-2.692" y1="6.166" x2="-2.388" y2="6.166" stroke="black" stroke-width="0.102" stroke-linecap="square" />
    <line id="du-72" x1="-2.235" y1="8.278" x2="-2.235" y2="6.318" stroke="black" stroke-width="0.102" stroke-linecap="square" />
    <line id="du-73" x1="-2.235" y1="8.41" x2="-2.235" y2="8.439" stroke="black" stroke-width="0.102" stroke-linecap="square" />
    <line id="du-74" x1="-0.435" y1="12.37" x2="-0.435" y2="12.255" stroke="black" stroke-width="0.102" stroke-linecap="square" />
    <line id="du-75" x1="-0.435" y1="12.123" x2="-0.435" y2="10.013" stroke="black" stroke-width="0.102" stroke-linecap="square" />
    <line id="du-76" x1="-2.235" y1="8.571" x2="-2.235" y2="8.636" stroke="black" stroke-width="0.102" stroke-linecap="square" />
    <line id="du-77" x1="-2.083" y1="8.788" x2="-0.927" y2="8.788" stroke="black" stroke-width="0.102" stroke-linecap="square" />
    <line id="du-78" x1="-0.819" y1="8.833" x2="-0.48" y2="9.172" stroke="black" stroke-width="0.102" stroke-linecap="square" />
    <line id="du-79" x1="-0.435" y1="9.28" x2="-0.435" y2="9.517" stroke="black" stroke-width="0.102" stroke-linecap="square" />
    <line id="du-80" x1="-0.435" y1="9.649" x2="-0.435" y2="9.881" stroke="black" stroke-width="0.102" stroke-linecap="square" />
    <line id="du-81" x1="-3.505" y1="8.327" x2="-3.532" y2="8.327" stroke="black" stroke-width="0.203" stroke-linecap="square" />
    <line id="du-82" x1="-3.353" y1="8.053" x2="-3.353" y2="8.175" stroke="black" stroke-width="0.203" stroke-linecap="square" />
    <line id="du-83" x1="-4.086" y1="8.327" x2="-5.157" y2="8.327" stroke="black" stroke-width="0.203" stroke-linecap="square" />
    <line id="du-84" x1="-5.372" y1="8.238" x2="-5.815" y2="7.795" stroke="black" stroke-width="0.203" stroke-linecap="square" />
    <line id="du-85" x1="-5.904" y1="7.58" x2="-5.904" y2="6.588" stroke="black" stroke-width="0.203" stroke-linecap="square" />
    <line id="du-86" x1="-3.822" y1="8.327" x2="-3.796" y2="8.327" stroke="black" stroke-width="0.203" stroke-linecap="square" />
    <line id="du-179" x1="-10.072" y1="3.232" x2="-10.072" y2="3.149" stroke="black" stroke-width="0.102" stroke-linecap="square" />
    <line id="du-180" x1="-10.174" y1="3.048" x2="-10.631" y2="3.048" stroke="black" stroke-width="0.102" stroke-linecap="square" />
    <line id="du-181" x1="-9.564" y1="3.232" x2="-9.564" y2="3.003" stroke="black" stroke-width="0.102" stroke-linecap="square" />
    <line id="du-182" x1="-9.666" y1="2.902" x2="-10.796" y2="2.902" stroke="black" stroke-width="0.102" stroke-linecap="square" />
    <line id="du-183" x1="-10.733" y1="3.149" x2="-10.733" y2="5.246" stroke="black" stroke-width="0.102" stroke-linecap="square" />
    <line id="du-184" x1="-10.898" y1="3.003" x2="-10.898" y2="4.998" stroke="black" stroke-width="0.102" stroke-linecap="square" />
    <line id="du-185" x1="-10.733" y1="5.378" x2="-10.733" y2="5.518" stroke="black" stroke-width="0.102" stroke-linecap="square" />
    <line id="du-186" x1="-10.733" y1="5.65" x2="-10.733" y2="5.982" stroke="black" stroke-width="0.102" stroke-linecap="square" />
    <line id="du-187" x1="-10.733" y1="6.114" x2="-10.733" y2="6.331" stroke="black" stroke-width="0.102" stroke-linecap="square" />
    <line id="du-188" x1="-10.733" y1="6.463" x2="-10.733" y2="11.9" stroke="black" stroke-width="0.102" stroke-linecap="square" />
    <line id="du-189" x1="-11.311" y1="6.476" x2="-11.311" y2="12.103" stroke="black" stroke-width="0.102" stroke-linecap="square" />
    <line id="du-190" x1="-11.311" y1="6.344" x2="-11.311" y2="6.13" stroke="black" stroke-width="0.102" stroke-linecap="square" />
    <line id="du-191" x1="-11.311" y1="5.998" x2="-11.311" y2="5.711" stroke="black" stroke-width="0.102" stroke-linecap="square" />
    <line id="du-192" x1="-10.943" y1="5.105" x2="-11.195" y2="5.358" stroke="black" stroke-width="0.102" stroke-linecap="square" />
    <line id="du-193" x1="-11.279" y1="5.442" x2="-11.295" y2="5.458" stroke="black" stroke-width="0.102" stroke-linecap="square" />
    <line id="du-194" x1="-11.311" y1="5.492" x2="-11.311" y2="5.579" stroke="black" stroke-width="0.102" stroke-linecap="square" />
    <line id="du-195" x1="-11.159" y1="12.256" x2="-10.967" y2="12.256" stroke="black" stroke-width="0.102" stroke-linecap="square" />
    <line id="du-196" x1="-10.833" y1="12.256" x2="-10.669" y2="12.256" stroke="black" stroke-width="0.102" stroke-linecap="square" />
    <line id="du-197" x1="-10.688" y1="12.008" x2="-10.485" y2="12.211" stroke="black" stroke-width="0.102" stroke-linecap="square" />
    <line id="du-198" x1="-10.377" y1="12.256" x2="-7.336" y2="12.256" stroke="black" stroke-width="0.102" stroke-linecap="square" />
    <line id="du-199" x1="-7.228" y1="12.256" x2="-6.893" y2="12.256" stroke="black" stroke-width="0.102" stroke-linecap="square" />
    <line id="du-200" x1="-6.785" y1="12.408" x2="-6.785" y2="13.037" stroke="black" stroke-width="0.102" stroke-linecap="square" />
    <line id="du-201" x1="-10.072" y1="6.54" x2="-10.072" y2="11.851" stroke="black" stroke-width="0.203" stroke-linecap="square" />
    <line id="du-202" x1="-10.072" y1="4.759" x2="-10.072" y2="4.662" stroke="black" stroke-width="0.203" stroke-linecap="square" />
    <line id="du-203" x1="-10.072" y1="5.424" x2="-10.072" y2="5.512" stroke="black" stroke-width="0.203" stroke-linecap="square" />
    <line id="du-204" x1="-10.072" y1="5.776" x2="-10.072" y2="5.924" stroke="black" stroke-width="0.203" stroke-linecap="square" />
    <line id="du-205" x1="-10.072" y1="6.276" x2="-10.072" y2="6.188" stroke="black" stroke-width="0.203" stroke-linecap="square" />
    <line id="du-206" x1="-10.072" y1="4.911" x2="-10.072" y2="4.911" stroke="black" stroke-width="0.203" stroke-linecap="square" />
    <line id="du-207" x1="-10.072" y1="5.16" x2="-10.072" y2="5.063" stroke="black" stroke-width="0.203" stroke-linecap="square" />
    <line id="du-208" x1="-9.564" y1="6.643" x2="-9.564" y2="6.581" stroke="black" stroke-width="0.203" stroke-linecap="square" />
    <line id="du-209" x1="-9.26" y1="6.948" x2="-7.278" y2="6.948" stroke="black" stroke-width="0.203" stroke-linecap="square" />
    <line id="du-210" x1="-6.974" y1="7.253" x2="-6.974" y2="11.851" stroke="black" stroke-width="0.203" stroke-linecap="square" />
    <line id="du-211" x1="-9.564" y1="4.662" x2="-9.564" y2="5.16" stroke="black" stroke-width="0.203" stroke-linecap="square" />
    <line id="du-212" x1="-9.564" y1="5.776" x2="-9.564" y2="6.153" stroke="black" stroke-width="0.203" stroke-linecap="square" />
    <line id="du-213" x1="-9.564" y1="5.424" x2="-9.564" y2="5.512" stroke="black" stroke-width="0.203" stroke-linecap="square" />
    <line id="du-214" x1="-9.564" y1="6.428" x2="-9.564" y2="6.306" stroke="black" stroke-width="0.203" stroke-linecap="square" />
    <line id="du-215" x1="8.638" y1="6.92" x2="8.638" y2="5.742" stroke="black" stroke-width="0.203" stroke-linecap="square" />
    <line id="du-216" x1="8.13" y1="6.358" x2="8.13" y2="6.721" stroke="black" stroke-width="0.203" stroke-linecap="square" />
    <line id="du-217" x1="8.13" y1="4.312" x2="8.13" y2="4.287" stroke="black" stroke-width="0.102" stroke-linecap="square" />
    <line id="du-218" x1="8.638" y1="4.312" x2="8.638" y2="4.287" stroke="black" stroke-width="0.102" stroke-linecap="square" />
    <line id="du-219" x1="7.978" y1="4.134" x2="7.063" y2="4.134" stroke="black" stroke-width="0.102" stroke-linecap="square" />
    <line id="du-220" x1="6.911" y1="4.287" x2="6.911" y2="7.119" stroke="black" stroke-width="0.102" stroke-linecap="square" />
    <line id="du-221" x1="8.791" y1="4.134" x2="9.146" y2="4.134" stroke="black" stroke-width="0.102" stroke-linecap="square" />
    <line id="du-222" x1="9.299" y1="4.287" x2="9.299" y2="7.234" stroke="black" stroke-width="0.102" stroke-linecap="square" />
    <line id="du-223" x1="2.034" y1="7.767" x2="5.756" y2="7.767" stroke="black" stroke-width="0.102" stroke-linecap="square" />
    <line id="du-224" x1="6.866" y1="7.227" x2="6.378" y2="7.715" stroke="black" stroke-width="0.102" stroke-linecap="square" />
    <line id="du-225" x1="9.705" y1="9.857" x2="8.283" y2="9.857" stroke="black" stroke-width="0.203" stroke-linecap="square" />
    <line id="du-226" x1="8.943" y1="7.767" x2="10.595" y2="7.767" stroke="black" stroke-width="0.203" stroke-linecap="square" />
    <line id="du-227" x1="8.638" y1="7.462" x2="8.638" y2="7.416" stroke="black" stroke-width="0.203" stroke-linecap="square" />
    <line id="du-228" x1="8.638" y1="7.2" x2="8.638" y2="7.135" stroke="black" stroke-width="0.203" stroke-linecap="square" />
    <line id="du-229" x1="9.767" y1="12.41" x2="10.024" y2="12.153" stroke="black" stroke-width="0.102" stroke-linecap="square" />
    <line id="du-230" x1="10.066" y1="12.016" x2="10.066" y2="7.539" stroke="black" stroke-width="0.102" stroke-linecap="square" />
    <line id="du-231" x1="9.947" y1="7.387" x2="9.418" y2="7.387" stroke="black" stroke-width="0.102" stroke-linecap="square" />
    <line id="du-232" x1="11.422" y1="8.593" x2="11.422" y2="11.577" stroke="black" stroke-width="0.203" stroke-linecap="square" />
    <line id="du-233" x1="11.332" y1="8.378" x2="10.81" y2="7.856" stroke="black" stroke-width="0.203" stroke-linecap="square" />
    <line id="du-234" x1="8.13" y1="6.936" x2="8.13" y2="6.986" stroke="black" stroke-width="0.203" stroke-linecap="square" />
    <line id="du-235" x1="8.13" y1="9.705" x2="8.13" y2="7.202" stroke="black" stroke-width="0.203" stroke-linecap="square" />
    <line id="du-236" x1="1.882" y1="7.919" x2="1.882" y2="12.078" stroke="black" stroke-width="0.102" stroke-linecap="square" />
    <line id="du-237" x1="6.262" y1="7.767" x2="5.827" y2="7.767" stroke="black" stroke-width="0.102" stroke-linecap="square" />
    <line id="du-238" x1="1.882" y1="12.186" x2="1.882" y2="12.376" stroke="black" stroke-width="0.102" stroke-linecap="square" />
    <line id="du-239" x1="4.133" y1="9.401" x2="4.133" y2="3.057" stroke="black" stroke-width="0.203" stroke-linecap="square" />
    <line id="du-240" x1="4.286" y1="9.857" x2="7.978" y2="9.857" stroke="black" stroke-width="0.203" stroke-linecap="square" />
    <line id="du-241" x1="2.644" y1="9.857" x2="3.981" y2="9.857" stroke="black" stroke-width="0.203" stroke-linecap="square" />
    <line id="du-242" x1="4.133" y1="9.554" x2="4.133" y2="9.725" stroke="black" stroke-width="0.203" stroke-linecap="square" />
    <line id="du-243" x1="8.13" y1="6.231" x2="8.13" y2="6.231" stroke="black" stroke-width="0.152" stroke-linecap="square" />
    <line id="du-244" x1="8.13" y1="5.742" x2="8.13" y2="6.104" stroke="black" stroke-width="0.203" stroke-linecap="square" />
    <line id="du-245" x1="8.13" y1="6.079" x2="8.13" y2="5.927" stroke="black" stroke-width="0.152" stroke-linecap="square" />
    <line id="du-246" x1="14.518" y1="4.683" x2="14.518" y2="5.984" stroke="black" stroke-width="0.203" stroke-linecap="square" />
    <line id="du-247" x1="14.01" y1="5.681" x2="14.01" y2="12.151" stroke="black" stroke-width="0.203" stroke-linecap="square" />
    <line id="du-248" x1="14.518" y1="3.253" x2="14.518" y2="3.119" stroke="black" stroke-width="0.102" stroke-linecap="square" />
    <line id="du-249" x1="14.01" y1="3.253" x2="14.01" y2="3.119" stroke="black" stroke-width="0.102" stroke-linecap="square" />
    <line id="du-250" x1="18.059" y1="6.289" x2="15.03" y2="6.289" stroke="black" stroke-width="0.203" stroke-linecap="square" />
    <line id="du-251" x1="18.274" y1="6.378" x2="19.019" y2="7.122" stroke="black" stroke-width="0.203" stroke-linecap="square" />
    <line id="du-252" x1="19.105" y1="7.378" x2="18.497" y2="11.998" stroke="black" stroke-width="0.203" stroke-linecap="square" />
    <line id="du-253" x1="14.795" y1="6.289" x2="14.903" y2="6.289" stroke="black" stroke-width="0.203" stroke-linecap="square" />
    <line id="du-254" x1="14.01" y1="5.554" x2="14.01" y2="5.554" stroke="black" stroke-width="0.152" stroke-linecap="square" />
    <line id="du-255" x1="14.01" y1="5.125" x2="14.01" y2="5.427" stroke="black" stroke-width="0.203" stroke-linecap="square" />
    <line id="du-256" x1="14.01" y1="5.325" x2="14.01" y2="4.995" stroke="black" stroke-width="0.152" stroke-linecap="square" />
    <line id="du-257" x1="14.449" y1="4.998" x2="16.044" y2="4.998" stroke="black" stroke-width="0.152" stroke-linecap="square" />
    <line id="du-258" x1="16.272" y1="4.77" x2="16.272" y2="3.525" stroke="black" stroke-width="0.152" stroke-linecap="square" />
    <line id="du-259" x1="13.857" y1="2.966" x2="13.146" y2="2.966" stroke="black" stroke-width="0.102" stroke-linecap="square" />
    <line id="du-260" x1="12.994" y1="6.229" x2="12.994" y2="6.016" stroke="black" stroke-width="0.102" stroke-linecap="square" />
    <line id="du-261" x1="12.994" y1="3.074" x2="12.994" y2="3.2" stroke="black" stroke-width="0.102" stroke-linecap="square" />
    <line id="du-262" x1="12.994" y1="5.872" x2="12.994" y2="3.307" stroke="black" stroke-width="0.102" stroke-linecap="square" />
    <line id="du-263" x1="12.994" y1="6.372" x2="12.994" y2="11.961" stroke="black" stroke-width="0.102" stroke-linecap="square" />
    <line id="du-264" x1="13.062" y1="12.102" x2="13.467" y2="12.336" stroke="black" stroke-width="0.102" stroke-linecap="square" />
    <line id="du-265" x1="13.535" y1="12.476" x2="13.535" y2="13.037" stroke="black" stroke-width="0.102" stroke-linecap="square" />
    <line id="du-266" x1="14.67" y1="2.966" x2="17.193" y2="2.966" stroke="black" stroke-width="0.102" stroke-linecap="square" />
    <line id="du-267" x1="17.345" y1="6.776" x2="17.345" y2="12.027" stroke="black" stroke-width="0.102" stroke-linecap="square" />
    <line id="du-268" x1="17.345" y1="3.119" x2="17.345" y2="6.307" stroke="black" stroke-width="0.102" stroke-linecap="square" />
    <line id="du-269" x1="17.345" y1="12.159" x2="17.345" y2="12.364" stroke="black" stroke-width="0.102" stroke-linecap="square" />
    <line id="du-270" x1="17.345" y1="6.439" x2="17.345" y2="6.645" stroke="black" stroke-width="0.102" stroke-linecap="square" />
    <line id="du-271" x1="-18.847" y1="5.048" x2="-18.847" y2="2.939" stroke="black" stroke-width="0.203" stroke-linecap="square" />
    <line id="du-272" x1="-26.096" y1="5.049" x2="-26.096" y2="2.939" stroke="black" stroke-width="0.203" stroke-linecap="square" />
    <line id="du-273" x1="-18.847" y1="9.727" x2="-18.847" y2="6.659" stroke="black" stroke-width="0.203" stroke-linecap="square" />
    <line id="du-274" x1="-18.847" y1="6" x2="-18.847" y2="5.706" stroke="black" stroke-width="0.203" stroke-linecap="square" />
    <line id="du-275" x1="-18.847" y1="6.443" x2="-18.847" y2="6.216" stroke="black" stroke-width="0.203" stroke-linecap="square" />
    <line id="du-276" x1="-18.847" y1="5.491" x2="-18.847" y2="5.263" stroke="black" stroke-width="0.203" stroke-linecap="square" />
    <line id="du-277" x1="-25.584" y1="9.727" x2="-25.584" y2="7.477" stroke="black" stroke-width="0.203" stroke-linecap="square" />
    <line id="du-278" x1="-26.096" y1="6.001" x2="-26.096" y2="5.708" stroke="black" stroke-width="0.203" stroke-linecap="square" />
    <line id="du-279" x1="-26.096" y1="6.394" x2="-26.096" y2="6.217" stroke="black" stroke-width="0.203" stroke-linecap="square" />
    <line id="du-280" x1="-26.096" y1="5.492" x2="-26.096" y2="5.265" stroke="black" stroke-width="0.203" stroke-linecap="square" />
    <line id="du-281" x1="-26.096" y1="6.61" x2="-26.096" y2="6.713" stroke="black" stroke-width="0.203" stroke-linecap="square" />
    <line id="du-282" x1="-25.673" y1="7.262" x2="-26.007" y2="6.928" stroke="black" stroke-width="0.203" stroke-linecap="square" />
    <line id="du-283" x1="-29.373" y1="1.497" x2="-31.735" y2="1.497" stroke="black" stroke-width="0.203" stroke-linecap="square" />
    <line id="du-284" x1="-25.146" y1="1.497" x2="-22.667" y2="1.497" stroke="black" stroke-width="0.203" stroke-linecap="square" />
    <line id="du-285" x1="-17.44" y1="1.497" x2="-18.72" y2="1.497" stroke="black" stroke-width="0.203" stroke-linecap="square" />
    <line id="du-286" x1="-26.096" y1="2.724" x2="-26.096" y2="2.496" stroke="black" stroke-width="0.203" stroke-linecap="square" />
    <line id="du-287" x1="-26.096" y1="2.28" x2="-26.096" y2="2.107" stroke="black" stroke-width="0.203" stroke-linecap="square" />
    <line id="du-288" x1="-26.491" y1="1.586" x2="-26.185" y2="1.892" stroke="black" stroke-width="0.203" stroke-linecap="square" />
    <line id="du-289" x1="-18.847" y1="2.724" x2="-18.847" y2="2.496" stroke="black" stroke-width="0.203" stroke-linecap="square" />
    <line id="du-290" x1="-18.847" y1="2.28" x2="-18.847" y2="2.107" stroke="black" stroke-width="0.203" stroke-linecap="square" />
    <line id="du-291" x1="-18.981" y1="1.847" x2="-18.936" y2="1.892" stroke="black" stroke-width="0.203" stroke-linecap="square" />
    <line id="du-292" x1="-18.936" y1="1.586" x2="-18.981" y2="1.631" stroke="black" stroke-width="0.203" stroke-linecap="square" />
    <line id="du-293" x1="-19.241" y1="1.586" x2="-19.196" y2="1.631" stroke="black" stroke-width="0.203" stroke-linecap="square" />
    <line id="du-294" x1="-29.221" y1="1.389" x2="-29.221" y2="1.191" stroke="black" stroke-width="0.203" stroke-linecap="square" />
    <line id="du-295" x1="-26.706" y1="1.497" x2="-29.068" y2="1.497" stroke="black" stroke-width="0.203" stroke-linecap="square" />
    <line id="du-296" x1="-29.221" y1="0.976" x2="-29.221" y2="0.089" stroke="black" stroke-width="0.203" stroke-linecap="square" />
    <line id="du-297" x1="-29.248" y1="-0.038" x2="-29.853" y2="-1.364" stroke="black" stroke-width="0.203" stroke-linecap="square" />
    <line id="du-298" x1="-22.515" y1="1.389" x2="-22.515" y2="1.191" stroke="black" stroke-width="0.203" stroke-linecap="square" />
    <line id="du-299" x1="-22.515" y1="0.976" x2="-22.515" y2="0.356" stroke="black" stroke-width="0.203" stroke-linecap="square" />
    <line id="du-300" x1="-22.543" y1="0.229" x2="-23.248" y2="-1.318" stroke="black" stroke-width="0.203" stroke-linecap="square" />
    <line id="du-301" x1="-19.457" y1="1.497" x2="-22.363" y2="1.497" stroke="black" stroke-width="0.203" stroke-linecap="square" />
    <line id="du-302" x1="-17.135" y1="1.282" x2="-17.135" y2="1.191" stroke="black" stroke-width="0.203" stroke-linecap="square" />
    <line id="du-303" x1="-17.135" y1="0.976" x2="-17.135" y2="0.356" stroke="black" stroke-width="0.203" stroke-linecap="square" />
    <line id="du-304" x1="-17.162" y1="0.229" x2="-17.868" y2="-1.318" stroke="black" stroke-width="0.203" stroke-linecap="square" />
    <line id="du-305" x1="-27.263" y1="6.001" x2="-27.263" y2="5.834" stroke="black" stroke-width="0.203" stroke-linecap="square" />
    <line id="du-306" x1="-27.263" y1="6.394" x2="-27.263" y2="6.217" stroke="black" stroke-width="0.203" stroke-linecap="square" />
    <line id="du-307" x1="-27.263" y1="7.957" x2="-27.263" y2="6.61" stroke="black" stroke-width="0.203" stroke-linecap="square" />
    <line id="du-308" x1="-15.725" y1="8.326" x2="-15.725" y2="1.137" stroke="black" stroke-width="0.203" stroke-linecap="square" />
    <line id="du-309" x1="-19.355" y1="9.727" x2="-19.355" y2="9.701" stroke="black" stroke-width="0.203" stroke-linecap="square" />
    <line id="du-310" x1="-16.796" y1="9.397" x2="-18.822" y2="9.397" stroke="black" stroke-width="0.203" stroke-linecap="square" />
    <line id="du-311" x1="-16.581" y1="9.307" x2="-15.815" y2="8.541" stroke="black" stroke-width="0.203" stroke-linecap="square" />
    <line id="du-312" x1="-19.139" y1="9.397" x2="-19.038" y2="9.397" stroke="black" stroke-width="0.203" stroke-linecap="square" />
    <line id="du-313" x1="-26.092" y1="9.727" x2="-26.092" y2="9.38" stroke="black" stroke-width="0.203" stroke-linecap="square" />
    <line id="du-314" x1="-27.174" y1="8.172" x2="-26.181" y2="9.164" stroke="black" stroke-width="0.203" stroke-linecap="square" />
    <line id="du-315" x1="-27.352" y1="5.619" x2="-27.497" y2="5.474" stroke="black" stroke-width="0.203" stroke-linecap="square" />
    <line id="du-316" x1="-27.712" y1="5.385" x2="-32.489" y2="5.385" stroke="black" stroke-width="0.203" stroke-linecap="square" />
    <line id="du-317" x1="-32.705" y1="5.295" x2="-33.28" y2="4.72" stroke="black" stroke-width="0.203" stroke-linecap="square" />
    <line id="du-318" x1="-33.37" y1="4.504" x2="-33.37" y2="1.735" stroke="black" stroke-width="0.203" stroke-linecap="square" />
    <line id="du-319" x1="-26.092" y1="11.157" x2="-26.092" y2="11.892" stroke="black" stroke-width="0.102" stroke-linecap="square" />
    <line id="du-320" x1="-25.584" y1="11.157" x2="-25.584" y2="12.019" stroke="black" stroke-width="0.102" stroke-linecap="square" />
    <line id="du-321" x1="-19.355" y1="11.157" x2="-19.355" y2="12.019" stroke="black" stroke-width="0.102" stroke-linecap="square" />
    <line id="du-322" x1="-18.847" y1="11.157" x2="-18.847" y2="12.019" stroke="black" stroke-width="0.102" stroke-linecap="square" />
    <line id="du-323" x1="-17.907" y1="12.171" x2="-18.472" y2="12.171" stroke="black" stroke-width="0.102" stroke-linecap="square" />
    <line id="du-324" x1="-18.748" y1="12.171" x2="-18.588" y2="12.171" stroke="black" stroke-width="0.102" stroke-linecap="square" />
    <line id="du-325" x1="-21.565" y1="12.171" x2="-19.687" y2="12.171" stroke="black" stroke-width="0.102" stroke-linecap="square" />
    <line id="du-326" x1="-19.443" y1="12.171" x2="-19.563" y2="12.171" stroke="black" stroke-width="0.102" stroke-linecap="square" />
    <line id="du-327" x1="-24.257" y1="12.171" x2="-25.216" y2="12.171" stroke="black" stroke-width="0.102" stroke-linecap="square" />
    <line id="du-328" x1="-25.324" y1="12.171" x2="-25.476" y2="12.171" stroke="black" stroke-width="0.102" stroke-linecap="square" />
    <line id="du-329" x1="-28.067" y1="12.044" x2="-26.46" y2="12.044" stroke="black" stroke-width="0.102" stroke-linecap="square" />
    <line id="du-330" x1="-26.352" y1="12.044" x2="-26.2" y2="12.044" stroke="black" stroke-width="0.102" stroke-linecap="square" />
    <line id="du-353" x1="-11.668" y1="-2.466" x2="-11.668" y2="-3.923" stroke="black" stroke-width="0.203" stroke-linecap="square" />
    <line id="du-354" x1="-11.16" y1="-1.036" x2="-11.16" y2="-0.427" stroke="black" stroke-width="0.102" stroke-linecap="square" />
    <line id="du-355" x1="-11.668" y1="-1.036" x2="-11.668" y2="-0.427" stroke="black" stroke-width="0.102" stroke-linecap="square" />
    <line id="du-356" x1="-11.16" y1="-4.204" x2="-11.16" y2="-4.381" stroke="black" stroke-width="0.203" stroke-linecap="square" />
    <line id="du-357" x1="-11.16" y1="-4.51" x2="-11.16" y2="-7.237" stroke="black" stroke-width="0.203" stroke-linecap="square" />
    <line id="du-358" x1="-10.455" y1="-7.942" x2="-7.96" y2="-7.942" stroke="black" stroke-width="0.203" stroke-linecap="square" />
    <line id="du-359" x1="-11.236" y1="-7.942" x2="-13.294" y2="-7.942" stroke="black" stroke-width="0.203" stroke-linecap="square" />
    <line id="du-360" x1="-10.953" y1="-7.57" x2="-11.071" y2="-7.452" stroke="black" stroke-width="0.203" stroke-linecap="square" />
    <line id="du-361" x1="-10.953" y1="-7.786" x2="-11.02" y2="-7.853" stroke="black" stroke-width="0.203" stroke-linecap="square" />
    <line id="du-362" x1="-10.67" y1="-7.853" x2="-10.737" y2="-7.786" stroke="black" stroke-width="0.203" stroke-linecap="square" />
    <line id="du-363" x1="-11.973" y1="-4.227" x2="-14.031" y2="-4.227" stroke="black" stroke-width="0.203" stroke-linecap="square" />
    <line id="du-364" x1="-14.247" y1="-4.317" x2="-14.544" y2="-4.614" stroke="black" stroke-width="0.203" stroke-linecap="square" />
    <line id="du-365" x1="-14.634" y1="-4.83" x2="-14.634" y2="-7.852" stroke="black" stroke-width="0.203" stroke-linecap="square" />
    <line id="du-366" x1="-11.16" y1="-2.777" x2="-11.16" y2="-2.777" stroke="black" stroke-width="0.152" stroke-linecap="square" />
    <line id="du-367" x1="-11.16" y1="-2.466" x2="-11.16" y2="-2.65" stroke="black" stroke-width="0.203" stroke-linecap="square" />
    <line id="du-368" x1="-11.16" y1="-2.625" x2="-11.16" y2="-2.447" stroke="black" stroke-width="0.152" stroke-linecap="square" />
    <line id="du-369" x1="-11.008" y1="-3.329" x2="-8.48" y2="-3.329" stroke="black" stroke-width="0.203" stroke-linecap="square" />
    <line id="du-370" x1="-11.16" y1="-2.904" x2="-11.16" y2="-3.177" stroke="black" stroke-width="0.203" stroke-linecap="square" />
    <line id="du-371" x1="-8.087" y1="-2.936" x2="-8.087" y2="-0.749" stroke="black" stroke-width="0.203" stroke-linecap="square" />
    <line id="du-372" x1="-13.068" y1="-3.608" x2="-13.319" y2="-3.358" stroke="black" stroke-width="0.203" stroke-linecap="square" />
    <line id="du-373" x1="-13.408" y1="-3.142" x2="-13.408" y2="-0.749" stroke="black" stroke-width="0.203" stroke-linecap="square" />
    <line id="du-374" x1="-8.176" y1="-3.152" x2="-8.264" y2="-3.24" stroke="black" stroke-width="0.203" stroke-linecap="square" />
    <line id="du-375" x1="-11.821" y1="-0.274" x2="-14.107" y2="-0.274" stroke="black" stroke-width="0.102" stroke-linecap="square" />
    <line id="du-376" x1="-14.259" y1="-4.331" x2="-14.259" y2="-7.996" stroke="black" stroke-width="0.102" stroke-linecap="square" />
    <line id="du-377" x1="-11.008" y1="-0.274" x2="-10.398" y2="-0.274" stroke="black" stroke-width="0.102" stroke-linecap="square" />
    <line id="du-378" x1="-10.246" y1="-0.427" x2="-10.246" y2="-4.084" stroke="black" stroke-width="0.102" stroke-linecap="square" />
    <line id="du-379" x1="-14.259" y1="-0.427" x2="-14.259" y2="-3.92" stroke="black" stroke-width="0.102" stroke-linecap="square" />
    <line id="du-380" x1="-14.259" y1="-4.199" x2="-14.259" y2="-4.052" stroke="black" stroke-width="0.102" stroke-linecap="square" />
    <line id="du-381" x1="-12.862" y1="-8.148" x2="-13.84" y2="-8.148" stroke="black" stroke-width="0.102" stroke-linecap="square" />
    <line id="du-382" x1="-14.151" y1="-8.148" x2="-13.948" y2="-8.148" stroke="black" stroke-width="0.102" stroke-linecap="square" />
    <line id="du-383" x1="-8.747" y1="-8.899" x2="-8.747" y2="-8.301" stroke="black" stroke-width="0.102" stroke-linecap="square" />
    <line id="du-384" x1="-10.093" y1="-4.237" x2="-7.972" y2="-4.237" stroke="black" stroke-width="0.102" stroke-linecap="square" />
    <line id="du-385" x1="-7.503" y1="-4.389" x2="-7.503" y2="-7.996" stroke="black" stroke-width="0.102" stroke-linecap="square" />
    <line id="du-386" x1="-7.61" y1="-4.237" x2="-7.864" y2="-4.237" stroke="black" stroke-width="0.102" stroke-linecap="square" />
    <line id="du-387" x1="-7.61" y1="-8.148" x2="-7.813" y2="-8.148" stroke="black" stroke-width="0.102" stroke-linecap="square" />
    <line id="du-388" x1="-8.595" y1="-8.148" x2="-7.921" y2="-8.148" stroke="black" stroke-width="0.102" stroke-linecap="square" />
    <line id="du-389" x1="5.096" y1="-3.749" x2="5.096" y2="-4.075" stroke="black" stroke-width="0.203" stroke-linecap="square" />
    <line id="du-390" x1="4.588" y1="-2.466" x2="4.588" y2="-3.923" stroke="black" stroke-width="0.203" stroke-linecap="square" />
    <line id="du-391" x1="5.096" y1="-1.036" x2="5.096" y2="-0.572" stroke="black" stroke-width="0.102" stroke-linecap="square" />
    <line id="du-392" x1="4.588" y1="-1.036" x2="4.588" y2="-0.572" stroke="black" stroke-width="0.102" stroke-linecap="square" />
    <line id="du-393" x1="5.096" y1="-4.204" x2="5.096" y2="-4.381" stroke="black" stroke-width="0.203" stroke-linecap="square" />
    <line id="du-394" x1="5.096" y1="-4.51" x2="5.096" y2="-7.237" stroke="black" stroke-width="0.203" stroke-linecap="square" />
    <line id="du-395" x1="5.801" y1="-7.942" x2="10.592" y2="-7.942" stroke="black" stroke-width="0.203" stroke-linecap="square" />
    <line id="du-396" x1="5.02" y1="-7.942" x2="2.962" y2="-7.942" stroke="black" stroke-width="0.203" stroke-linecap="square" />
    <line id="du-397" x1="5.303" y1="-7.57" x2="5.185" y2="-7.452" stroke="black" stroke-width="0.203" stroke-linecap="square" />
    <line id="du-398" x1="5.303" y1="-7.786" x2="5.236" y2="-7.853" stroke="black" stroke-width="0.203" stroke-linecap="square" />
    <line id="du-399" x1="5.586" y1="-7.853" x2="5.519" y2="-7.786" stroke="black" stroke-width="0.203" stroke-linecap="square" />
    <line id="du-400" x1="4.283" y1="-4.227" x2="2.225" y2="-4.227" stroke="black" stroke-width="0.203" stroke-linecap="square" />
    <line id="du-401" x1="2.009" y1="-4.317" x2="1.712" y2="-4.614" stroke="black" stroke-width="0.203" stroke-linecap="square" />
    <line id="du-402" x1="1.622" y1="-4.83" x2="1.622" y2="-7.852" stroke="black" stroke-width="0.203" stroke-linecap="square" />
    <line id="du-403" x1="5.096" y1="-2.777" x2="5.096" y2="-2.777" stroke="black" stroke-width="0.152" stroke-linecap="square" />
    <line id="du-404" x1="5.096" y1="-2.466" x2="5.096" y2="-2.65" stroke="black" stroke-width="0.203" stroke-linecap="square" />
    <line id="du-405" x1="5.096" y1="-2.625" x2="5.096" y2="-2.447" stroke="black" stroke-width="0.152" stroke-linecap="square" />
    <line id="du-406" x1="5.248" y1="-3.228" x2="7.776" y2="-3.228" stroke="black" stroke-width="0.203" stroke-linecap="square" />
    <line id="du-407" x1="5.096" y1="-2.904" x2="5.096" y2="-3.075" stroke="black" stroke-width="0.203" stroke-linecap="square" />
    <line id="du-408" x1="8.169" y1="-2.835" x2="8.169" y2="-0.749" stroke="black" stroke-width="0.203" stroke-linecap="square" />
    <line id="du-409" x1="3.302" y1="-3.596" x2="4.691" y2="-3.596" stroke="black" stroke-width="0.203" stroke-linecap="square" />
    <line id="du-410" x1="3.086" y1="-3.507" x2="2.937" y2="-3.358" stroke="black" stroke-width="0.203" stroke-linecap="square" />
    <line id="du-411" x1="2.848" y1="-3.142" x2="2.848" y2="-0.749" stroke="black" stroke-width="0.203" stroke-linecap="square" />
    <line id="du-412" x1="8.08" y1="-3.05" x2="7.992" y2="-3.139" stroke="black" stroke-width="0.203" stroke-linecap="square" />
    <line id="du-413" x1="4.435" y1="-0.419" x2="2.149" y2="-0.419" stroke="black" stroke-width="0.102" stroke-linecap="square" />
    <line id="du-414" x1="1.997" y1="-4.331" x2="1.997" y2="-7.996" stroke="black" stroke-width="0.102" stroke-linecap="square" />
    <line id="du-415" x1="5.248" y1="-0.419" x2="5.858" y2="-0.419" stroke="black" stroke-width="0.102" stroke-linecap="square" />
    <line id="du-416" x1="6.01" y1="-0.572" x2="6.01" y2="-4.084" stroke="black" stroke-width="0.102" stroke-linecap="square" />
    <line id="du-417" x1="1.997" y1="-0.572" x2="1.997" y2="-3.92" stroke="black" stroke-width="0.102" stroke-linecap="square" />
    <line id="du-418" x1="1.997" y1="-4.199" x2="1.997" y2="-4.052" stroke="black" stroke-width="0.102" stroke-linecap="square" />
    <line id="du-419" x1="3.531" y1="-8.148" x2="2.632" y2="-8.148" stroke="black" stroke-width="0.102" stroke-linecap="square" />
    <line id="du-420" x1="2.105" y1="-8.148" x2="2.524" y2="-8.148" stroke="black" stroke-width="0.102" stroke-linecap="square" />
    <line id="du-421" x1="6.163" y1="-4.237" x2="11.561" y2="-4.237" stroke="black" stroke-width="0.102" stroke-linecap="square" />
    <line id="du-422" x1="12.03" y1="-4.389" x2="12.03" y2="-7.996" stroke="black" stroke-width="0.102" stroke-linecap="square" />
    <line id="du-423" x1="11.922" y1="-4.237" x2="11.668" y2="-4.237" stroke="black" stroke-width="0.102" stroke-linecap="square" />
    <line id="du-424" x1="11.922" y1="-8.148" x2="11.503" y2="-8.148" stroke="black" stroke-width="0.102" stroke-linecap="square" />
    <line id="du-425" x1="11.122" y1="-8.148" x2="11.395" y2="-8.148" stroke="black" stroke-width="0.102" stroke-linecap="square" />
    <line id="du-426" x1="10.973" y1="-9.508" x2="10.97" y2="-8.301" stroke="black" stroke-width="0.102" stroke-linecap="square" />
    <line id="du-427" x1="19.104" y1="-1.726" x2="19.104" y2="-3.061" stroke="black" stroke-width="0.203" stroke-linecap="square" />
    <line id="du-428" x1="19.612" y1="-2.657" x2="19.612" y2="-7.011" stroke="black" stroke-width="0.203" stroke-linecap="square" />
    <line id="du-429" x1="19.347" y1="-7.313" x2="13.87" y2="-8.034" stroke="black" stroke-width="0.203" stroke-linecap="square" />
    <line id="du-430" x1="18.799" y1="-3.366" x2="16.31" y2="-3.366" stroke="black" stroke-width="0.203" stroke-linecap="square" />
    <line id="du-431" x1="16.005" y1="-3.67" x2="16.005" y2="-6.349" stroke="black" stroke-width="0.203" stroke-linecap="square" />
    <line id="du-432" x1="19.612" y1="-2.53" x2="19.612" y2="-2.53" stroke="black" stroke-width="0.152" stroke-linecap="square" />
    <line id="du-433" x1="19.612" y1="-1.726" x2="19.612" y2="-2.403" stroke="black" stroke-width="0.203" stroke-linecap="square" />
    <line id="du-434" x1="19.612" y1="-2.301" x2="19.612" y2="-1.946" stroke="black" stroke-width="0.152" stroke-linecap="square" />
    <line id="du-435" x1="19.612" y1="-0.296" x2="19.612" y2="0.009" stroke="black" stroke-width="0.102" stroke-linecap="square" />
    <line id="du-436" x1="19.764" y1="0.161" x2="19.891" y2="0.161" stroke="black" stroke-width="0.102" stroke-linecap="square" />
    <line id="du-437" x1="20.043" y1="0.009" x2="20.043" y2="-0.868" stroke="black" stroke-width="0.102" stroke-linecap="square" />
    <line id="du-438" x1="20.088" y1="-0.976" x2="20.39" y2="-1.277" stroke="black" stroke-width="0.102" stroke-linecap="square" />
    <line id="du-439" x1="20.434" y1="-1.385" x2="20.434" y2="-7.411" stroke="black" stroke-width="0.102" stroke-linecap="square" />
    <line id="du-440" x1="18.951" y1="0.161" x2="15.903" y2="0.161" stroke="black" stroke-width="0.102" stroke-linecap="square" />
    <line id="du-441" x1="15.751" y1="0.009" x2="15.751" y2="-7.361" stroke="black" stroke-width="0.102" stroke-linecap="square" />
    <line id="du-442" x1="20.302" y1="-7.562" x2="19.556" y2="-7.661" stroke="black" stroke-width="0.102" stroke-linecap="square" />
    <line id="du-443" x1="19.423" y1="-7.822" x2="19.455" y2="-8.06" stroke="black" stroke-width="0.102" stroke-linecap="square" />
    <line id="du-444" x1="19.525" y1="-8.596" x2="19.462" y2="-8.113" stroke="black" stroke-width="0.102" stroke-linecap="square" />
    <line id="du-445" x1="15.751" y1="-7.639" x2="15.751" y2="-8.328" stroke="black" stroke-width="0.102" stroke-linecap="square" />
    <line id="du-446" x1="15.751" y1="-7.468" x2="15.751" y2="-7.532" stroke="black" stroke-width="0.102" stroke-linecap="square" />
    <line id="du-876" x1="-8.081" y1="-5.934" x2="-8.081" y2="-5.892" stroke="black" stroke-width="0.203" stroke-linecap="square" />
    <line id="du-879" x1="-8.081" y1="-7.364" x2="-8.081" y2="-7.91" stroke="black" stroke-width="0.102" stroke-linecap="square" />
    <line id="du-880" x1="-8.234" y1="-8.062" x2="-12.319" y2="-8.062" stroke="black" stroke-width="0.102" stroke-linecap="square" />
    <line id="du-881" x1="-7.573" y1="-7.364" x2="-7.573" y2="-7.72" stroke="black" stroke-width="0.102" stroke-linecap="square" />
    <line id="du-883" x1="-10.822" y1="-5.283" x2="-10.822" y2="-4.609" stroke="black" stroke-width="0.203" stroke-linecap="square" />
    <line id="du-890" x1="-7.573" y1="-5.934" x2="-7.573" y2="-4.666" stroke="black" stroke-width="0.203" stroke-linecap="square" />
    <line id="du-892" x1="-7.913" y1="7.394" x2="-9.946" y2="7.394" stroke="black" stroke-width="0.203" stroke-linecap="square" />
    <line id="du-894" x1="-10.58" y1="6.76" x2="-10.58" y2="6.678" stroke="black" stroke-width="0.203" stroke-linecap="square" />
    <line id="du-897" x1="-7.57" y1="5.103" x2="-7.57" y2="0.974" stroke="black" stroke-width="0.203" stroke-linecap="square" />
    <line id="du-898" x1="-8.116" y1="8.258" x2="-8.116" y2="8.141" stroke="black" stroke-width="0.203" stroke-linecap="square" />
    <line id="du-899" x1="-7.57" y1="5.367" x2="-7.57" y2="5.457" stroke="black" stroke-width="0.203" stroke-linecap="square" />
    <line id="du-900" x1="-7.57" y1="6.329" x2="-7.57" y2="5.721" stroke="black" stroke-width="0.203" stroke-linecap="square" />
    <line id="du-901" x1="-8.116" y1="7.877" x2="-8.116" y2="7.775" stroke="black" stroke-width="0.203" stroke-linecap="square" />
    <line id="du-904" x1="-10.58" y1="6.463" x2="-10.58" y2="6.159" stroke="black" stroke-width="0.203" stroke-linecap="square" />
    <line id="du-905" x1="-10.58" y1="9.023" x2="-10.58" y2="8.307" stroke="black" stroke-width="0.203" stroke-linecap="square" />
    <line id="du-919" x1="-0.417" y1="-7.718" x2="-0.417" y2="-8.023" stroke="black" stroke-width="0.102" stroke-linecap="square" />
    <line id="du-920" x1="-0.925" y1="-7.718" x2="-0.925" y2="-8.023" stroke="black" stroke-width="0.102" stroke-linecap="square" />
    <line id="du-921" x1="-1.077" y1="-8.175" x2="-4.731" y2="-8.175" stroke="black" stroke-width="0.102" stroke-linecap="square" />
    <line id="du-922" x1="-0.265" y1="-8.175" x2="-0.124" y2="-8.175" stroke="black" stroke-width="0.102" stroke-linecap="square" />
    <line id="du-923" x1="0.211" y1="-8.175" x2="0.022" y2="-8.175" stroke="black" stroke-width="0.102" stroke-linecap="square" />
    <line id="du-924" x1="-5.258" y1="-8.175" x2="-4.863" y2="-8.175" stroke="black" stroke-width="0.102" stroke-linecap="square" />
    <line id="du-925" x1="-5.334" y1="-8.874" x2="-5.334" y2="-8.327" stroke="black" stroke-width="0.102" stroke-linecap="square" />
    <line id="du-926" x1="-0.925" y1="-6.288" x2="-0.925" y2="-4.611" stroke="black" stroke-width="0.203" stroke-linecap="square" />
    <line id="du-927" x1="-1.41" y1="-4.307" x2="-5.586" y2="-4.307" stroke="black" stroke-width="0.203" stroke-linecap="square" />
    <line id="du-929" x1="-0.417" y1="-6.288" x2="-0.417" y2="-4.611" stroke="black" stroke-width="0.203" stroke-linecap="square" />
    <line id="du-930" x1="0.068" y1="-4.307" x2="0.527" y2="-4.307" stroke="black" stroke-width="0.203" stroke-linecap="square" />
    <line id="du-932" x1="-1.141" y1="-4.307" x2="-1.195" y2="-4.307" stroke="black" stroke-width="0.203" stroke-linecap="square" />
    <line id="du-933" x1="-0.201" y1="-4.307" x2="-0.147" y2="-4.307" stroke="black" stroke-width="0.203" stroke-linecap="square" />
    <line id="du-966" x1="1.882" y1="13.037" x2="1.882" y2="12.484" stroke="black" stroke-width="0.102" stroke-linecap="square" />
    <line id="du-969" x1="-17.755" y1="13.037" x2="-17.755" y2="12.324" stroke="black" stroke-width="0.102" stroke-linecap="square" />
    <line id="du-970" x1="-24.105" y1="13.037" x2="-24.105" y2="12.324" stroke="black" stroke-width="0.102" stroke-linecap="square" />
    <line id="du-971" x1="-12.853" y1="-3.698" x2="-11.616" y2="-3.698" stroke="black" stroke-width="0.203" stroke-linecap="square" />
    <line id="du-972" x1="-11.16" y1="-3.482" x2="-11.16" y2="-3.545" stroke="black" stroke-width="0.203" stroke-linecap="square" />
    <line id="du-973" x1="-11.16" y1="-4.075" x2="-11.16" y2="-3.85" stroke="black" stroke-width="0.203" stroke-linecap="square" />
    <line id="du-974" x1="-11.292" y1="-3.698" x2="-11.463" y2="-3.698" stroke="black" stroke-width="0.203" stroke-linecap="square" />
    <line id="du-981" x1="14.318" y1="4.998" x2="14.134" y2="4.998" stroke="black" stroke-width="0.152" stroke-linecap="square" />
    <line id="du-982" x1="14.01" y1="4.683" x2="14.01" y2="4.871" stroke="black" stroke-width="0.203" stroke-linecap="square" />
    <line id="du-989" x1="4.866" y1="-3.596" x2="4.971" y2="-3.596" stroke="black" stroke-width="0.203" stroke-linecap="square" />
    <line id="du-990" x1="5.096" y1="-3.38" x2="5.096" y2="-3.444" stroke="black" stroke-width="0.203" stroke-linecap="square" />
    <line id="du-995" x1="-7.564" y1="-7.852" x2="-7.544" y2="-7.943" stroke="black" stroke-width="0.102" stroke-linecap="square" />
    <line id="du-996" x1="-7.539" y1="-7.976" x2="-7.522" y2="-8.148" stroke="black" stroke-width="0.102" stroke-linecap="square" />
    <line id="du-1011" x1="-28.219" y1="13.037" x2="-28.219" y2="12.197" stroke="black" stroke-width="0.102" stroke-linecap="square" />
    <line id="du-1012" x1="-21.717" y1="13.037" x2="-21.717" y2="12.324" stroke="black" stroke-width="0.102" stroke-linecap="square" />
    <line id="du-1013" x1="-10.595" y1="13.037" x2="-10.595" y2="12.408" stroke="black" stroke-width="0.102" stroke-linecap="square" />
    <line id="du-1015" x1="-0.435" y1="13.037" x2="-0.435" y2="12.502" stroke="black" stroke-width="0.102" stroke-linecap="square" />
    <line id="du-1016" x1="9.725" y1="13.037" x2="9.725" y2="12.547" stroke="black" stroke-width="0.102" stroke-linecap="square" />
    <line id="du-1017" x1="17.345" y1="13.037" x2="17.345" y2="12.496" stroke="black" stroke-width="0.102" stroke-linecap="square" />
    <line id="du-1019" x1="15.849" y1="-9.08" x2="15.752" y2="-8.348" stroke="black" stroke-width="0.102" stroke-linecap="square" />
    <line id="du-1020" x1="3.683" y1="-9.508" x2="3.683" y2="-8.301" stroke="black" stroke-width="0.102" stroke-linecap="square" />
    <line id="du-1021" x1="0.254" y1="-8.874" x2="0.254" y2="-8.327" stroke="black" stroke-width="0.102" stroke-linecap="square" />
    <line id="du-1022" x1="-12.71" y1="-8.899" x2="-12.71" y2="-8.301" stroke="black" stroke-width="0.102" stroke-linecap="square" />
  </g>
</svg>