<?xml version="1.0" encoding="utf-8"?>
<svg xmlns="http://www.w3.org/2000/svg" viewBox="-33.918 -13.687 55.2 23.839">
  <g transform="scale(1,-1)">
    <rect id="tm-11" x="-4.395" y="12.88" width="0.3" height="0.3" fill="black" transform="rotate(180,-4.245,13.03)" />
    <rect id="tm-12" x="-3.503" y="8.638" width="0.3" height="0.3" fill="black" transform="rotate(270,-3.353,8.788)" />
    <rect id="tm-13" x="-3.503" y="9.731" width="0.3" height="0.3" fill="black" transform="rotate(270,-3.353,9.881)" />
    <rect id="tm-14" x="-3.503" y="10.838" width="0.3" height="0.3" fill="black" transform="rotate(270,-3.353,10.988)" />
    <rect id="tm-15" x="-3.528" y="6.895" width="0.3" height="0.3" fill="black" transform="rotate(180,-3.378,7.045)" />
    <rect id="tm-16" x="-4.824" y="6.895" width="0.3" height="0.3" fill="black" transform="rotate(180,-4.674,7.045)" />
    <rect id="tm-59" x="-6.935" y="12.88" width="0.3" height="0.3" fill="black" transform="rotate(180,-6.785,13.03)" />
    <rect id="tm-60" x="-10.386" y="4.044" width="0.3" height="0.3" fill="black" transform="rotate(180,-10.236,4.194)" />
    <rect id="tm-61" x="-10.121" y="11.14" width="0.3" height="0.3" fill="black" transform="rotate(240,-9.971,11.29)" />
    <rect id="tm-62" x="-10.121" y="7.381" width="0.3" height="0.3" fill="black" transform="rotate(240,-9.971,7.531)" />
    <rect id="tm-63" x="-10.121" y="9.21" width="0.3" height="0.3" fill="black" transform="rotate(240,-9.971,9.36)" />
    <rect id="tm-64" x="-10.324" y="9.21" width="0.3" height="0.3" fill="black" transform="rotate(240,-10.174,9.36)" />
    <rect id="tm-65" x="2.822" y="9.605" width="0.3" height="0.3" fill="black" transform="rotate(90,2.972,9.755)" />
    <rect id="tm-66" x="2.822" y="9.809" width="0.3" height="0.3" fill="black" transform="rotate(90,2.972,9.959)" />
    <rect id="tm-67" x="4.907" y="9.605" width="0.3" height="0.3" fill="black" transform="rotate(90,5.057,9.755)" />
    <rect id="tm-68" x="4.907" y="9.809" width="0.3" height="0.3" fill="black" transform="rotate(90,5.057,9.959)" />
    <rect id="tm-69" x="6.937" y="9.809" width="0.3" height="0.3" fill="black" transform="rotate(90,7.087,9.959)" />
    <rect id="tm-70" x="6.937" y="9.605" width="0.3" height="0.3" fill="black" transform="rotate(90,7.087,9.755)" />
    <rect id="tm-71" x="9.098" y="9.809" width="0.3" height="0.3" fill="black" transform="rotate(270,9.248,9.959)" />
    <rect id="tm-72" x="9.098" y="9.605" width="0.3" height="0.3" fill="black" transform="rotate(90,9.248,9.755)" />
    <rect id="tm-73" x="1.732" y="12.88" width="0.3" height="0.3" fill="black" transform="rotate(180,1.882,13.03)" />
    <rect id="tm-74" x="4.085" y="7.728" width="0.3" height="0.3" fill="black" transform="rotate(240,4.235,7.878)" />
    <rect id="tm-75" x="4.085" y="4.282" width="0.3" height="0.3" fill="black" transform="rotate(120,4.235,4.432)" />
    <rect id="tm-76" x="7.8" y="5.174" width="0.3" height="0.3" fill="black" transform="rotate(180,7.95,5.324)" />
    <rect id="tm-77" x="13.961" y="6.855" width="0.3" height="0.3" fill="black" transform="rotate(240,14.111,7.005)" />
    <rect id="tm-78" x="13.961" y="8.531" width="0.3" height="0.3" fill="black" transform="rotate(240,14.111,8.681)" />
    <rect id="tm-79" x="13.961" y="9.903" width="0.3" height="0.3" fill="black" transform="rotate(240,14.111,10.053)" />
    <rect id="tm-80" x="13.961" y="11.579" width="0.3" height="0.3" fill="black" transform="rotate(240,14.111,11.729)" />
    <rect id="tm-81" x="14.249" y="4.044" width="0.3" height="0.3" fill="black" transform="rotate(180,14.399,4.194)" />
    <rect id="tm-82" x="16.198" y="3.693" width="0.3" height="0.3" fill="black" transform="rotate(120,16.348,3.843)" />
    <rect id="tm-83" x="13.385" y="12.88" width="0.3" height="0.3" fill="black" transform="rotate(180,13.535,13.03)" />
    <rect id="tm-84" x="-29.608" y="-0.893" width="0.3" height="0.3" fill="black" transform="rotate(107.017,-29.458,-0.743)" />
    <rect id="tm-85" x="-29.793" y="-0.809" width="0.3" height="0.3" fill="black" transform="rotate(107.017,-29.643,-0.659)" />
    <rect id="tm-86" x="-30.704" y="1.449" width="0.3" height="0.3" fill="black" transform="rotate(90,-30.554,1.599)" />
    <rect id="tm-87" x="-28.037" y="1.449" width="0.3" height="0.3" fill="black" transform="rotate(90,-27.887,1.599)" />
    <rect id="tm-88" x="-26.348" y="3.114" width="0.3" height="0.3" fill="black" transform="rotate(120,-26.198,3.264)" />
    <rect id="tm-89" x="-26.348" y="4.562" width="0.3" height="0.3" fill="black" transform="rotate(120,-26.198,4.712)" />
    <rect id="tm-90" x="-26.145" y="3.844" width="0.3" height="0.3" fill="black" transform="rotate(120,-25.995,3.994)" />
    <rect id="tm-91" x="-25.836" y="8.804" width="0.3" height="0.3" fill="black" transform="rotate(120,-25.686,8.954)" />
    <rect id="tm-92" x="-25.632" y="8.169" width="0.3" height="0.3" fill="black" transform="rotate(120,-25.482,8.319)" />
    <rect id="tm-93" x="-17.572" y="-0.737" width="0.3" height="0.3" fill="black" transform="rotate(107.017,-17.422,-0.587)" />
    <rect id="tm-94" x="-17.757" y="-0.652" width="0.3" height="0.3" fill="black" transform="rotate(107.017,-17.607,-0.502)" />
    <rect id="tm-95" x="-23.138" y="-0.652" width="0.3" height="0.3" fill="black" transform="rotate(107.017,-22.988,-0.502)" />
    <rect id="tm-96" x="-22.953" y="-0.737" width="0.3" height="0.3" fill="black" transform="rotate(107.017,-22.803,-0.587)" />
    <rect id="tm-97" x="-24.057" y="1.449" width="0.3" height="0.3" fill="black" transform="rotate(180,-23.907,1.599)" />
    <rect id="tm-98" x="-21.06" y="1.449" width="0.3" height="0.3" fill="black" transform="rotate(90,-20.91,1.599)" />
    <rect id="tm-99" x="-18.23" y="1.449" width="0.3" height="0.3" fill="black" transform="rotate(90,-18.08,1.599)" />
    <rect id="tm-100" x="-19.098" y="3.114" width="0.3" height="0.3" fill="black" transform="rotate(120,-18.948,3.264)" />
    <rect id="tm-101" x="-19.098" y="4.562" width="0.3" height="0.3" fill="black" transform="rotate(120,-18.948,4.712)" />
    <rect id="tm-102" x="-18.895" y="3.843" width="0.3" height="0.3" fill="black" transform="rotate(120,-18.745,3.993)" />
    <rect id="tm-103" x="-19.098" y="8.804" width="0.3" height="0.3" fill="black" transform="rotate(120,-18.948,8.954)" />
    <rect id="tm-104" x="-18.895" y="8.168" width="0.3" height="0.3" fill="black" transform="rotate(120,-18.745,8.318)" />
    <rect id="tm-105" x="-15.977" y="7.264" width="0.3" height="0.3" fill="black" transform="rotate(120,-15.827,7.414)" />
    <rect id="tm-106" x="-15.977" y="5.938" width="0.3" height="0.3" fill="black" transform="rotate(120,-15.827,6.088)" />
    <rect id="tm-107" x="-15.977" y="4.565" width="0.3" height="0.3" fill="black" transform="rotate(120,-15.827,4.715)" />
    <rect id="tm-108" x="-15.977" y="3.244" width="0.3" height="0.3" fill="black" transform="rotate(120,-15.827,3.394)" />
    <rect id="tm-109" x="-15.977" y="1.85" width="0.3" height="0.3" fill="black" transform="rotate(120,-15.827,2)" />
    <rect id="tm-110" x="-18.057" y="9.348" width="0.3" height="0.3" fill="black" transform="rotate(90,-17.907,9.498)" />
    <rect id="tm-111" x="-24.255" y="12.88" width="0.3" height="0.3" fill="black" transform="rotate(180,-24.105,13.03)" />
    <rect id="tm-112" x="-17.905" y="12.88" width="0.3" height="0.3" fill="black" transform="rotate(180,-17.755,13.03)" />
    <rect id="tm-126" x="-12.875" y="-7.991" width="0.3" height="0.3" fill="black" transform="rotate(90,-12.725,-7.841)" />
    <rect id="tm-127" x="-8.608" y="-7.991" width="0.3" height="0.3" fill="black" transform="rotate(180,-8.458,-7.841)" />
    <rect id="tm-128" x="-9.827" y="-7.991" width="0.3" height="0.3" fill="black" transform="rotate(180,-9.677,-7.841)" />
    <rect id="tm-129" x="-11.656" y="-7.991" width="0.3" height="0.3" fill="black" transform="rotate(90,-11.506,-7.841)" />
    <rect id="tm-130" x="-11.209" y="-6.792" width="0.3" height="0.3" fill="black" transform="rotate(120,-11.059,-6.642)" />
    <rect id="tm-131" x="-11.209" y="-5.446" width="0.3" height="0.3" fill="black" transform="rotate(120,-11.059,-5.296)" />
    <rect id="tm-132" x="-11.412" y="-5.446" width="0.3" height="0.3" fill="black" transform="rotate(120,-11.262,-5.296)" />
    <rect id="tm-133" x="-11.412" y="-6.792" width="0.3" height="0.3" fill="black" transform="rotate(120,-11.262,-6.642)" />
    <rect id="tm-134" x="-10.758" y="-2.182" width="0.3" height="0.3" fill="black" transform="rotate(180,-10.608,-2.032)" />
    <rect id="tm-135" x="-8.135" y="-2.728" width="0.3" height="0.3" fill="black" transform="rotate(240,-7.985,-2.578)" />
    <rect id="tm-136" x="-8.135" y="-1.331" width="0.3" height="0.3" fill="black" transform="rotate(240,-7.985,-1.181)" />
    <rect id="tm-137" x="-13.66" y="-2.775" width="0.3" height="0.3" fill="black" transform="rotate(240,-13.51,-2.625)" />
    <rect id="tm-138" x="-13.66" y="-1.186" width="0.3" height="0.3" fill="black" transform="rotate(240,-13.51,-1.036)" />
    <rect id="tm-140" x="3.381" y="-7.991" width="0.3" height="0.3" fill="black" transform="rotate(90,3.531,-7.841)" />
    <rect id="tm-141" x="7.648" y="-7.991" width="0.3" height="0.3" fill="black" transform="rotate(180,7.798,-7.841)" />
    <rect id="tm-142" x="6.429" y="-7.991" width="0.3" height="0.3" fill="black" transform="rotate(180,6.579,-7.841)" />
    <rect id="tm-143" x="4.6" y="-7.991" width="0.3" height="0.3" fill="black" transform="rotate(90,4.75,-7.841)" />
    <rect id="tm-144" x="5.047" y="-6.792" width="0.3" height="0.3" fill="black" transform="rotate(120,5.197,-6.642)" />
    <rect id="tm-145" x="5.047" y="-5.446" width="0.3" height="0.3" fill="black" transform="rotate(120,5.197,-5.296)" />
    <rect id="tm-146" x="4.844" y="-5.446" width="0.3" height="0.3" fill="black" transform="rotate(120,4.994,-5.296)" />
    <rect id="tm-147" x="4.844" y="-6.792" width="0.3" height="0.3" fill="black" transform="rotate(120,4.994,-6.642)" />
    <rect id="tm-148" x="5.514" y="-2.195" width="0.3" height="0.3" fill="black" transform="rotate(180,5.664,-2.045)" />
    <rect id="tm-149" x="8.121" y="-2.728" width="0.3" height="0.3" fill="black" transform="rotate(240,8.271,-2.578)" />
    <rect id="tm-150" x="8.121" y="-1.331" width="0.3" height="0.3" fill="black" transform="rotate(240,8.271,-1.181)" />
    <rect id="tm-151" x="2.596" y="-2.775" width="0.3" height="0.3" fill="black" transform="rotate(240,2.746,-2.625)" />
    <rect id="tm-152" x="2.596" y="-1.186" width="0.3" height="0.3" fill="black" transform="rotate(240,2.746,-1.036)" />
    <rect id="tm-153" x="10.06" y="-7.991" width="0.3" height="0.3" fill="black" transform="rotate(180,10.21,-7.841)" />
    <rect id="tm-154" x="10.823" y="-9.652" width="0.3" height="0.3" fill="black" transform="rotate(90,10.973,-9.502)" />
    <rect id="tm-155" x="18.728" y="-1.042" width="0.3" height="0.3" fill="black" transform="rotate(180,18.878,-0.892)" />
    <rect id="tm-156" x="16.445" y="-7.722" width="0.3" height="0.3" fill="black" transform="rotate(269.755,16.595,-7.572)" />
    <rect id="tm-157" x="14.323" y="-8.002" width="0.3" height="0.3" fill="black" transform="rotate(269.755,14.473,-7.852)" />
    <rect id="tm-158" x="18.402" y="-7.465" width="0.3" height="0.3" fill="black" transform="rotate(269.755,18.552,-7.315)" />
    <rect id="tm-159" x="19.36" y="-6.551" width="0.3" height="0.3" fill="black" transform="rotate(120,19.51,-6.401)" />
    <rect id="tm-160" x="19.36" y="-5.243" width="0.3" height="0.3" fill="black" transform="rotate(120,19.51,-5.093)" />
    <rect id="tm-161" x="19.36" y="-3.566" width="0.3" height="0.3" fill="black" transform="rotate(120,19.51,-3.416)" />
    <rect id="tm-162" x="19.374" y="-8.74" width="0.3" height="0.3" fill="black" transform="rotate(90.245,19.524,-8.59)" />
    <rect id="tm-312" x="-11.073" y="-5.096" width="0.3" height="0.3" fill="black" transform="rotate(240,-10.923,-4.946)" />
    <rect id="tm-313" x="-10.87" y="-5.096" width="0.3" height="0.3" fill="black" transform="rotate(240,-10.72,-4.946)" />
    <rect id="tm-323" x="-5.484" y="-9.018" width="0.3" height="0.3" fill="black" transform="rotate(270,-5.334,-8.868)" />
    <rect id="tm-324" x="-5.94" y="-4.457" width="0.3" height="0.3" fill="black" transform="rotate(90,-5.79,-4.307)" />
    <rect id="tm-325" x="-5.94" y="-4.457" width="0.3" height="0.3" fill="black" transform="rotate(90,-5.79,-4.307)" />
    <rect id="tm-326" x="-5.94" y="-4.457" width="0.3" height="0.3" fill="black" transform="rotate(90,-5.79,-4.307)" />
    <rect id="tm-327" x="-5.94" y="-4.457" width="0.3" height="0.3" fill="black" transform="rotate(90,-5.79,-4.307)" />
    <rect id="tm-336" x="-13.258" y="-8.766" width="0.3" height="0.3" fill="black" transform="rotate(270,-13.108,-8.616)" />
    <rect id="tm-356" x="-28.369" y="12.88" width="0.3" height="0.3" fill="black" transform="rotate(180,-28.219,13.03)" />
    <rect id="tm-357" x="-21.867" y="12.88" width="0.3" height="0.3" fill="black" transform="rotate(180,-21.717,13.03)" />
    <rect id="tm-358" x="-10.745" y="12.88" width="0.3" height="0.3" fill="black" transform="rotate(180,-10.595,13.03)" />
    <rect id="tm-359" x="-0.585" y="12.88" width="0.3" height="0.3" fill="black" transform="rotate(180,-0.435,13.03)" />
    <rect id="tm-360" x="9.575" y="12.88" width="0.3" height="0.3" fill="black" transform="rotate(180,9.725,13.03)" />
    <rect id="tm-361" x="17.195" y="12.88" width="0.3" height="0.3" fill="black" transform="rotate(180,17.345,13.03)" />
    <rect id="tm-362" x="15.698" y="-9.224" width="0.3" height="0.3" fill="black" transform="rotate(90.245,15.848,-9.074)" />
    <rect id="tm-363" x="3.533" y="-9.652" width="0.3" height="0.3" fill="black" transform="rotate(90,3.683,-9.502)" />
    <rect id="tm-364" x="0.104" y="-9.018" width="0.3" height="0.3" fill="black" transform="rotate(90,0.254,-8.868)" />
    <rect id="tm-365" x="-12.86" y="-9.043" width="0.3" height="0.3" fill="black" transform="rotate(90,-12.71,-8.893)" />
    <rect id="tm-366" x="-26.899" y="8.59" width="0.3" height="0.3" fill="black" transform="rotate(211.4,-26.749,8.74)" />
    <rect id="tm-367" x="-27.311" y="7.133" width="0.3" height="0.3" fill="black" transform="rotate(120,-27.161,7.283)" />
    <rect id="tm-368" x="-28.636" y="5.133" width="0.3" height="0.3" fill="black" transform="rotate(90,-28.486,5.283)" />
    <rect id="tm-369" x="-30.251" y="5.133" width="0.3" height="0.3" fill="black" transform="rotate(90,-30.101,5.283)" />
    <rect id="tm-370" x="-31.913" y="5.133" width="0.3" height="0.3" fill="black" transform="rotate(90,-31.763,5.283)" />
    <rect id="tm-371" x="-33.071" y="4.786" width="0.3" height="0.3" fill="black" transform="rotate(98.421,-32.921,4.936)" />
    <rect id="tm-372" x="-33.418" y="3.723" width="0.3" height="0.3" fill="black" transform="rotate(120,-33.268,3.873)" />
    <rect id="tm-373" x="-33.418" y="2.13" width="0.3" height="0.3" fill="black" transform="rotate(120,-33.268,2.28)" />
    <rect id="tm-374" x="-14.682" y="-6.491" width="0.3" height="0.3" fill="black" transform="rotate(120,-14.532,-6.341)" />
    <rect id="tm-375" x="-14.682" y="-7.656" width="0.3" height="0.3" fill="black" transform="rotate(120,-14.532,-7.506)" />
    <rect id="tm-376" x="-14.682" y="-5.319" width="0.3" height="0.3" fill="black" transform="rotate(120,-14.532,-5.169)" />
    <rect id="tm-377" x="-13.714" y="-4.479" width="0.3" height="0.3" fill="black" transform="rotate(90,-13.564,-4.329)" />
    <rect id="tm-378" x="-12.498" y="-4.479" width="0.3" height="0.3" fill="black" transform="rotate(90,-12.348,-4.329)" />
    <rect id="tm-383" x="1.574" y="-7.387" width="0.3" height="0.3" fill="black" transform="rotate(120,1.724,-7.237)" />
    <rect id="tm-384" x="1.574" y="-5.573" width="0.3" height="0.3" fill="black" transform="rotate(120,1.724,-5.423)" />
    <rect id="tm-385" x="3.104" y="-4.479" width="0.3" height="0.3" fill="black" transform="rotate(90,3.254,-4.329)" />
    <rect id="tm-386" x="15.956" y="-6.005" width="0.3" height="0.3" fill="black" transform="rotate(120,16.106,-5.855)" />
    <rect id="tm-387" x="15.956" y="-4.328" width="0.3" height="0.3" fill="black" transform="rotate(120,16.106,-4.178)" />
    <rect id="tm-388" x="17.404" y="-3.617" width="0.3" height="0.3" fill="black" transform="rotate(90,17.554,-3.467)" />
    <rect id="tm-389" x="16.843" y="6.241" width="0.3" height="0.3" fill="black" transform="rotate(270,16.993,6.391)" />
    <rect id="tm-390" x="18.425" y="6.672" width="0.3" height="0.3" fill="black" transform="rotate(211.4,18.575,6.822)" />
    <rect id="tm-391" x="18.773" y="7.831" width="0.3" height="0.3" fill="black" transform="rotate(244.231,18.923,7.981)" />
    <rect id="tm-392" x="18.334" y="11.169" width="0.3" height="0.3" fill="black" transform="rotate(244.231,18.484,11.319)" />
    <rect id="tm-393" x="18.55" y="9.525" width="0.3" height="0.3" fill="black" transform="rotate(244.231,18.7,9.675)" />
    <rect id="tm-394" x="9.619" y="7.718" width="0.3" height="0.3" fill="black" transform="rotate(180,9.769,7.868)" />
    <rect id="tm-395" x="10.849" y="8.039" width="0.3" height="0.3" fill="black" transform="rotate(98.421,10.999,8.189)" />
    <rect id="tm-396" x="11.17" y="9.136" width="0.3" height="0.3" fill="black" transform="rotate(240,11.32,9.286)" />
    <rect id="tm-397" x="11.17" y="10.681" width="0.3" height="0.3" fill="black" transform="rotate(240,11.32,10.831)" />
    <rect id="tm-398" x="-2.233" y="8.97" width="0.3" height="0.3" fill="black" transform="rotate(180,-2.083,9.12)" />
    <rect id="tm-399" x="-0.277" y="8.97" width="0.3" height="0.3" fill="black" transform="rotate(180,-0.127,9.12)" />
    <rect id="tm-400" x="-8.419" y="6.899" width="0.3" height="0.3" fill="black" transform="rotate(180,-8.269,7.049)" />
    <rect id="tm-401" x="-7.225" y="7.617" width="0.3" height="0.3" fill="black" transform="rotate(240,-7.075,7.767)" />
    <rect id="tm-402" x="-7.225" y="11.115" width="0.3" height="0.3" fill="black" transform="rotate(240,-7.075,11.265)" />
    <rect id="tm-403" x="-7.225" y="9.402" width="0.3" height="0.3" fill="black" transform="rotate(240,-7.075,9.552)" />
    <rect id="tm-488" x="-7.825" y="-5.45" width="0.3" height="0.3" fill="black" transform="rotate(240,-7.675,-5.3)" />
    <rect id="tm-492" x="-7.822" y="2.889" width="0.3" height="0.3" fill="black" transform="rotate(120,-7.672,3.039)" />
    <rect id="tm-493" x="-7.822" y="4.52" width="0.3" height="0.3" fill="black" transform="rotate(120,-7.672,4.67)" />
    <rect id="tm-494" x="-7.822" y="1.285" width="0.3" height="0.3" fill="black" transform="rotate(120,-7.672,1.435)" />
  </g>
</svg>