<?xml version="1.0" encoding="utf-8"?>
<svg xmlns="http://www.w3.org/2000/svg" viewBox="-30.829 -13.68 52.812 25.292">
  <g transform="scale(1,-1)">
    <line id="du-12" x1="15.765" y1="3.814" x2="15.765" y2="7.997" stroke="black" stroke-width="0.102" stroke-linecap="square" />
    <line id="du-13" x1="15.765" y1="3.662" x2="15.765" y2="3.662" stroke="black" stroke-width="0.102" stroke-linecap="square" />
    <line id="du-14" x1="15.918" y1="8.15" x2="15.923" y2="8.15" stroke="black" stroke-width="0.102" stroke-linecap="square" />
    <line id="du-15" x1="16.075" y1="8.302" x2="16.075" y2="13.037" stroke="black" stroke-width="0.102" stroke-linecap="square" />
    <line id="du-16" x1="6.571" y1="4.602" x2="6.571" y2="7.193" stroke="black" stroke-width="0.102" stroke-linecap="square" />
    <line id="du-17" x1="6.571" y1="4.45" x2="6.571" y2="4.45" stroke="black" stroke-width="0.102" stroke-linecap="square" />
    <line id="du-18" x1="5.915" y1="7.498" x2="5.915" y2="13.037" stroke="black" stroke-width="0.102" stroke-linecap="square" />
    <line id="du-19" x1="6.418" y1="7.345" x2="6.067" y2="7.345" stroke="black" stroke-width="0.102" stroke-linecap="square" />
    <line id="du-20" x1="-8.879" y1="3.542" x2="-8.879" y2="6.49" stroke="black" stroke-width="0.102" stroke-linecap="square" />
    <line id="du-21" x1="-8.879" y1="3.389" x2="-8.879" y2="3.389" stroke="black" stroke-width="0.102" stroke-linecap="square" />
    <line id="du-22" x1="-9.031" y1="6.643" x2="-10.443" y2="6.643" stroke="black" stroke-width="0.102" stroke-linecap="square" />
    <line id="du-23" x1="-10.595" y1="6.795" x2="-10.595" y2="13.037" stroke="black" stroke-width="0.102" stroke-linecap="square" />
    <line id="du-24" x1="-15.37" y1="11.468" x2="-15.37" y2="12.018" stroke="black" stroke-width="0.102" stroke-linecap="square" />
    <line id="du-25" x1="-15.37" y1="11.316" x2="-15.37" y2="11.316" stroke="black" stroke-width="0.102" stroke-linecap="square" />
    <line id="du-26" x1="-16.332" y1="12.433" x2="-15.786" y2="12.433" stroke="black" stroke-width="0.102" stroke-linecap="square" />
    <line id="du-27" x1="-16.485" y1="13.037" x2="-16.485" y2="12.586" stroke="black" stroke-width="0.102" stroke-linecap="square" />
    <line id="du-169" x1="-15.415" y1="12.126" x2="-15.678" y2="12.389" stroke="black" stroke-width="0.102" stroke-linecap="square" />
    <line id="du-178" x1="-5.883" y1="-7.873" x2="-5.634" y2="-8.305" stroke="black" stroke-width="0.102" stroke-linecap="square" />
    <line id="du-179" x1="-5.613" y1="-8.381" x2="-5.613" y2="-8.623" stroke="black" stroke-width="0.102" stroke-linecap="square" />
    <line id="du-180" x1="-5.613" y1="-8.92" x2="-5.613" y2="-8.755" stroke="black" stroke-width="0.102" stroke-linecap="square" />
  </g>
</svg>