<?xml version="1.0" encoding="utf-8"?>
<svg xmlns="http://www.w3.org/2000/svg" viewBox="-30.829 -13.68 52.812 25.292">
  <g transform="scale(1,-1)">
    <line id="pi-12" x1="9.461" y1="5.29" x2="9.461" y2="5.29" stroke="black" stroke-width="0.1" stroke-linecap="square" />
    <line id="pi-13" x1="6.694" y1="5.324" x2="6.694" y2="5.324" stroke="black" stroke-width="0.1" stroke-linecap="square" />
    <line id="pi-18" x1="-3.677" y1="6.334" x2="-3.677" y2="6.334" stroke="black" stroke-width="0.1" stroke-linecap="square" />
    <line id="pi-92" x1="-4.261" y1="5.359" x2="-4.261" y2="5.689" stroke="black" stroke-width="0.1" stroke-linecap="square" />
    <line id="pi-93" x1="-4.261" y1="6.191" x2="-4.261" y2="6.015" stroke="black" stroke-width="0.1" stroke-linecap="square" />
    <line id="pi-94" x1="-1.856" y1="5.217" x2="-1.856" y2="5.217" stroke="black" stroke-width="0.1" stroke-linecap="square" />
    <line id="pi-95" x1="-1.999" y1="5.217" x2="-4.118" y2="5.217" stroke="black" stroke-width="0.1" stroke-linecap="square" />
    <line id="pi-96" x1="-1.563" y1="5.217" x2="-1.785" y2="5.217" stroke="black" stroke-width="0.1" stroke-linecap="square" />
    <line id="pi-97" x1="-4.261" y1="7.888" x2="-4.261" y2="6.534" stroke="black" stroke-width="0.1" stroke-linecap="square" />
    <line id="pi-191" x1="-15.319" y1="11.468" x2="-15.319" y2="11.468" stroke="black" stroke-width="0.1" stroke-linecap="square" />
    <line id="pi-192" x1="-15.305" y1="11.468" x2="-15.283" y2="11.468" stroke="black" stroke-width="0.1" stroke-linecap="square" />
    <line id="pi-193" x1="-15.269" y1="11.066" x2="-15.269" y2="11.066" stroke="black" stroke-width="0.1" stroke-linecap="square" />
    <line id="pi-194" x1="-15.269" y1="11.081" x2="-15.269" y2="11.382" stroke="black" stroke-width="0.1" stroke-linecap="square" />
    <line id="pi-195" x1="-15.269" y1="11.454" x2="-15.269" y2="11.081" stroke="black" stroke-width="0.1" stroke-linecap="square" />
    <line id="pi-196" x1="-15.283" y1="11.397" x2="-30.315" y2="11.397" stroke="black" stroke-width="0.1" stroke-linecap="square" />
    <line id="pi-197" x1="-30.213" y1="10.862" x2="-30.315" y2="10.862" stroke="black" stroke-width="0.1" stroke-linecap="square" />
    <line id="pi-198" x1="-30.329" y1="10.876" x2="-30.329" y2="11.382" stroke="black" stroke-width="0.1" stroke-linecap="square" />
    <line id="pi-199" x1="-30.329" y1="11.397" x2="-30.329" y2="11.397" stroke="black" stroke-width="0.1" stroke-linecap="square" />
    <line id="pi-227" x1="-29.705" y1="12.243" x2="-29.705" y2="12.243" stroke="black" stroke-width="0.1" stroke-linecap="square" />
    <line id="pi-233" x1="-30.282" y1="10.997" x2="-30.282" y2="12.361" stroke="black" stroke-width="0.1" stroke-linecap="square" />
    <line id="pi-329" x1="9.604" y1="5.29" x2="9.903" y2="5.29" stroke="black" stroke-width="0.1" stroke-linecap="square" />
    <line id="pi-333" x1="10.222" y1="5.29" x2="10.189" y2="5.29" stroke="black" stroke-width="0.1" stroke-linecap="square" />
    <line id="pi-334" x1="12.798" y1="5.29" x2="12.798" y2="5.29" stroke="black" stroke-width="0.1" stroke-linecap="square" />
    <line id="pi-335" x1="10.046" y1="5.29" x2="10.046" y2="5.29" stroke="black" stroke-width="0.1" stroke-linecap="square" />
    <line id="pi-336" x1="12.868" y1="5.29" x2="12.907" y2="5.29" stroke="black" stroke-width="0.1" stroke-linecap="square" />
    <line id="pi-337" x1="12.798" y1="5.29" x2="12.798" y2="5.29" stroke="black" stroke-width="0.1" stroke-linecap="square" />
    <line id="pi-340" x1="13.214" y1="5.496" x2="13.214" y2="5.309" stroke="black" stroke-width="0.1" stroke-linecap="square" />
    <line id="pi-341" x1="13.214" y1="5.639" x2="13.214" y2="5.639" stroke="black" stroke-width="0.1" stroke-linecap="square" />
    <line id="pi-342" x1="13.214" y1="5.503" x2="13.214" y2="5.568" stroke="black" stroke-width="0.1" stroke-linecap="square" />
    <line id="pi-343" x1="12.931" y1="5.326" x2="13.081" y2="5.366" stroke="black" stroke-width="0.1" stroke-linecap="square" />
    <line id="pi-344" x1="12.978" y1="5.29" x2="12.978" y2="5.29" stroke="black" stroke-width="0.1" stroke-linecap="square" />
    <line id="pi-347" x1="12.978" y1="11.671" x2="12.978" y2="5.433" stroke="black" stroke-width="0.1" stroke-linecap="square" />
    <line id="pi-363" x1="13.214" y1="5.639" x2="13.214" y2="5.639" stroke="black" stroke-width="0.1" stroke-linecap="square" />
    <line id="pi-364" x1="15.508" y1="3.731" x2="15.508" y2="3.731" stroke="black" stroke-width="0.1" stroke-linecap="square" />
    <line id="pi-365" x1="15.202" y1="5.639" x2="15.202" y2="5.639" stroke="black" stroke-width="0.1" stroke-linecap="square" />
    <line id="pi-366" x1="13.322" y1="5.639" x2="13.87" y2="5.639" stroke="black" stroke-width="0.1" stroke-linecap="square" />
    <line id="pi-367" x1="15.508" y1="3.764" x2="15.508" y2="5.605" stroke="black" stroke-width="0.1" stroke-linecap="square" />
    <line id="pi-368" x1="15.474" y1="5.639" x2="15.376" y2="5.639" stroke="black" stroke-width="0.1" stroke-linecap="square" />
    <line id="pi-369" x1="15.165" y1="5.639" x2="15.097" y2="5.639" stroke="black" stroke-width="0.1" stroke-linecap="square" />
    <line id="pi-370" x1="15.085" y1="5.639" x2="13.893" y2="5.639" stroke="black" stroke-width="0.1" stroke-linecap="square" />
    <line id="pi-371" x1="15.365" y1="5.639" x2="15.239" y2="5.639" stroke="black" stroke-width="0.1" stroke-linecap="square" />
    <line id="pi-372" x1="12.643" y1="4.47" x2="12.643" y2="4.47" stroke="black" stroke-width="0.1" stroke-linecap="square" />
    <line id="pi-374" x1="12.644" y1="3.57" x2="12.643" y2="4.437" stroke="black" stroke-width="0.1" stroke-linecap="square" />
    <line id="pi-375" x1="15.202" y1="5.731" x2="15.202" y2="5.672" stroke="black" stroke-width="0.1" stroke-linecap="square" />
    <line id="pi-376" x1="15.456" y1="3.731" x2="15.474" y2="3.731" stroke="black" stroke-width="0.1" stroke-linecap="square" />
    <line id="pi-379" x1="9.36" y1="5.29" x2="6.837" y2="5.323" stroke="black" stroke-width="0.1" stroke-linecap="square" />
    <line id="pi-383" x1="5.972" y1="5.925" x2="5.986" y2="5.925" stroke="black" stroke-width="0.1" stroke-linecap="square" />
    <line id="pi-384" x1="7.968" y1="6.593" x2="7.968" y2="6.637" stroke="black" stroke-width="0.1" stroke-linecap="square" />
    <line id="pi-385" x1="8.806" y1="6.593" x2="8.806" y2="6.637" stroke="black" stroke-width="0.1" stroke-linecap="square" />
    <line id="pi-386" x1="6.064" y1="6.002" x2="6.064" y2="6.637" stroke="black" stroke-width="0.1" stroke-linecap="square" />
    <line id="pi-387" x1="7.26" y1="6.715" x2="7.89" y2="6.715" stroke="black" stroke-width="0.1" stroke-linecap="square" />
    <line id="pi-388" x1="7.968" y1="6.715" x2="7.968" y2="6.715" stroke="black" stroke-width="0.1" stroke-linecap="square" />
    <line id="pi-389" x1="8.728" y1="6.715" x2="8.022" y2="6.715" stroke="black" stroke-width="0.1" stroke-linecap="square" />
    <line id="pi-390" x1="8.806" y1="6.715" x2="8.806" y2="6.715" stroke="black" stroke-width="0.1" stroke-linecap="square" />
    <line id="pi-391" x1="10.046" y1="5.049" x2="10.046" y2="4.746" stroke="black" stroke-width="0.1" stroke-linecap="square" />
    <line id="pi-392" x1="9.968" y1="6.715" x2="8.86" y2="6.715" stroke="black" stroke-width="0.1" stroke-linecap="square" />
    <line id="pi-403" x1="10.046" y1="5.29" x2="10.046" y2="5.29" stroke="black" stroke-width="0.1" stroke-linecap="square" />
    <line id="pi-404" x1="10.046" y1="5.29" x2="10.046" y2="5.29" stroke="black" stroke-width="0.1" stroke-linecap="square" />
    <line id="pi-405" x1="10.046" y1="6.637" x2="10.046" y2="5.629" stroke="black" stroke-width="0.1" stroke-linecap="square" />
    <line id="pi-406" x1="6.142" y1="6.715" x2="6.882" y2="6.715" stroke="black" stroke-width="0.1" stroke-linecap="square" />
    <line id="pi-407" x1="6.989" y1="6.715" x2="7.154" y2="6.715" stroke="black" stroke-width="0.1" stroke-linecap="square" />
    <line id="pi-412" x1="10.046" y1="5.29" x2="10.046" y2="5.29" stroke="black" stroke-width="0.1" stroke-linecap="square" />
    <line id="pi-420" x1="10.046" y1="5.29" x2="10.046" y2="5.29" stroke="black" stroke-width="0.1" stroke-linecap="square" />
    <line id="pi-427" x1="10.046" y1="5.29" x2="10.046" y2="5.29" stroke="black" stroke-width="0.1" stroke-linecap="square" />
    <line id="pi-439" x1="10.046" y1="5.29" x2="10.046" y2="5.29" stroke="black" stroke-width="0.1" stroke-linecap="square" />
    <line id="pi-440" x1="10.046" y1="5.29" x2="10.046" y2="5.29" stroke="black" stroke-width="0.1" stroke-linecap="square" />
    <line id="pi-444" x1="12.655" y1="5.29" x2="10.474" y2="5.29" stroke="black" stroke-width="0.1" stroke-linecap="square" />
    <line id="pi-467" x1="-11.414" y1="5.166" x2="-11.414" y2="5.166" stroke="black" stroke-width="0.1" stroke-linecap="square" />
    <line id="pi-468" x1="-11.421" y1="5.023" x2="-11.458" y2="4.319" stroke="black" stroke-width="0.1" stroke-linecap="square" />
    <line id="pi-469" x1="-11.465" y1="4.177" x2="-11.465" y2="4.177" stroke="black" stroke-width="0.1" stroke-linecap="square" />
    <line id="pi-471" x1="-11.414" y1="5.166" x2="-11.414" y2="5.166" stroke="black" stroke-width="0.1" stroke-linecap="square" />
    <line id="pi-490" x1="-12.001" y1="3.182" x2="-12.001" y2="2.823" stroke="black" stroke-width="0.1" stroke-linecap="square" />
    <line id="pi-491" x1="-11.923" y1="2.745" x2="-9.188" y2="2.745" stroke="black" stroke-width="0.1" stroke-linecap="square" />
    <line id="pi-492" x1="-12.001" y1="2.745" x2="-12.001" y2="2.745" stroke="black" stroke-width="0.1" stroke-linecap="square" />
    <line id="pi-493" x1="-9.111" y1="3.808" x2="-9.111" y2="5.559" stroke="black" stroke-width="0.1" stroke-linecap="square" />
    <line id="pi-494" x1="-9.111" y1="3.731" x2="-9.111" y2="3.731" stroke="black" stroke-width="0.1" stroke-linecap="square" />
    <line id="pi-495" x1="-9.111" y1="2.823" x2="-9.111" y2="3.677" stroke="black" stroke-width="0.1" stroke-linecap="square" />
    <line id="pi-496" x1="-9.442" y1="5.637" x2="-9.442" y2="5.637" stroke="black" stroke-width="0.1" stroke-linecap="square" />
    <line id="pi-497" x1="-9.188" y1="5.637" x2="-9.365" y2="5.637" stroke="black" stroke-width="0.1" stroke-linecap="square" />
    <line id="pi-498" x1="-9.496" y1="5.637" x2="-11.274" y2="5.637" stroke="black" stroke-width="0.1" stroke-linecap="square" />
    <line id="pi-499" x1="-11.516" y1="5.639" x2="-11.516" y2="5.639" stroke="black" stroke-width="0.1" stroke-linecap="square" />
    <line id="pi-527" x1="-11.516" y1="5.639" x2="-11.516" y2="5.639" stroke="black" stroke-width="0.1" stroke-linecap="square" />
    <line id="pi-528" x1="-11.821" y1="5.639" x2="-11.821" y2="5.639" stroke="black" stroke-width="0.1" stroke-linecap="square" />
    <line id="pi-529" x1="-11.516" y1="5.639" x2="-11.516" y2="5.639" stroke="black" stroke-width="0.1" stroke-linecap="square" />
    <line id="pi-530" x1="-11.556" y1="5.639" x2="-11.78" y2="5.639" stroke="black" stroke-width="0.1" stroke-linecap="square" />
    <line id="pi-756" x1="-29.705" y1="12.243" x2="-29.705" y2="12.243" stroke="black" stroke-width="0.1" stroke-linecap="square" />
    <line id="pi-833" x1="-9.442" y1="5.728" x2="-9.442" y2="5.715" stroke="black" stroke-width="0.1" stroke-linecap="square" />
    <line id="pi-834" x1="-9.188" y1="3.731" x2="-9.204" y2="3.731" stroke="black" stroke-width="0.1" stroke-linecap="square" />
    <line id="pi-1223" x1="1.256" y1="2.565" x2="2.153" y2="2.565" stroke="black" stroke-width="0.1" stroke-linecap="square" />
    <line id="pi-1238" x1="2.051" y1="4.024" x2="0.963" y2="4.024" stroke="black" stroke-width="0.1" stroke-linecap="square" />
    <line id="pi-1239" x1="0.948" y1="4.024" x2="0.833" y2="4.024" stroke="black" stroke-width="0.1" stroke-linecap="square" />
    <line id="pi-1240" x1="0.818" y1="4.024" x2="-5.764" y2="4.024" stroke="black" stroke-width="0.1" stroke-linecap="square" />
    <line id="pi-1241" x1="-5.785" y1="4.045" x2="-5.785" y2="5.519" stroke="black" stroke-width="0.1" stroke-linecap="square" />
    <line id="pi-1242" x1="-5.785" y1="5.534" x2="-5.785" y2="5.649" stroke="black" stroke-width="0.1" stroke-linecap="square" />
    <line id="pi-1243" x1="-5.785" y1="5.663" x2="-5.785" y2="6.053" stroke="black" stroke-width="0.1" stroke-linecap="square" />
    <line id="pi-1244" x1="-5.785" y1="6.067" x2="-5.785" y2="6.182" stroke="black" stroke-width="0.1" stroke-linecap="square" />
    <line id="pi-1245" x1="-5.785" y1="6.197" x2="-5.785" y2="7.637" stroke="black" stroke-width="0.1" stroke-linecap="square" />
    <line id="pi-1246" x1="-6.59" y1="7.658" x2="-6.59" y2="7.658" stroke="black" stroke-width="0.1" stroke-linecap="square" />
    <line id="pi-1388" x1="15.532" y1="2.586" x2="15.532" y2="3.281" stroke="black" stroke-width="0.1" stroke-linecap="square" />
    <line id="pi-1389" x1="6.896" y1="4.632" x2="6.896" y2="2.637" stroke="black" stroke-width="0.1" stroke-linecap="square" />
    <line id="pi-1390" x1="-9.112" y1="2.586" x2="-9.112" y2="3.646" stroke="black" stroke-width="0.1" stroke-linecap="square" />
    <line id="pi-1420" x1="-15.319" y1="11.316" x2="-15.319" y2="11.316" stroke="black" stroke-width="0.1" stroke-linecap="square" />
    <line id="pi-1421" x1="-15.305" y1="11.316" x2="-15.283" y2="11.316" stroke="black" stroke-width="0.1" stroke-linecap="square" />
    <line id="pi-1422" x1="-15.269" y1="11.294" x2="-15.269" y2="10.994" stroke="black" stroke-width="0.1" stroke-linecap="square" />
    <line id="pi-1423" x1="-15.269" y1="10.973" x2="-15.269" y2="10.973" stroke="black" stroke-width="0.1" stroke-linecap="square" />
    <line id="pi-1424" x1="-30.213" y1="11.065" x2="-30.229" y2="11.065" stroke="black" stroke-width="0.1" stroke-linecap="square" />
    <line id="pi-1425" x1="-30.243" y1="11.079" x2="-30.243" y2="11.333" stroke="black" stroke-width="0.1" stroke-linecap="square" />
    <line id="pi-1426" x1="-30.213" y1="12.04" x2="-30.229" y2="12.04" stroke="black" stroke-width="0.1" stroke-linecap="square" />
    <line id="pi-1427" x1="-30.243" y1="12.025" x2="-30.243" y2="11.368" stroke="black" stroke-width="0.1" stroke-linecap="square" />
    <line id="pi-1428" x1="-30.243" y1="11.354" x2="-30.243" y2="11.354" stroke="black" stroke-width="0.1" stroke-linecap="square" />
    <line id="pi-1905" x1="6.054" y1="5.823" x2="5.972" y2="5.823" stroke="black" stroke-width="0.1" stroke-linecap="square" />
    <line id="pi-1906" x1="6.047" y1="6.026" x2="5.972" y2="6.026" stroke="black" stroke-width="0.1" stroke-linecap="square" />
    <line id="pi-1907" x1="7.448" y1="6.094" x2="7.448" y2="6.672" stroke="black" stroke-width="0.1" stroke-linecap="square" />
    <line id="pi-1908" x1="7.846" y1="6.686" x2="7.588" y2="6.686" stroke="black" stroke-width="0.1" stroke-linecap="square" />
    <line id="pi-1909" x1="6.068" y1="5.844" x2="6.068" y2="6.014" stroke="black" stroke-width="0.1" stroke-linecap="square" />
    <line id="pi-1910" x1="6.072" y1="6.024" x2="6.123" y2="6.076" stroke="black" stroke-width="0.1" stroke-linecap="square" />
    <line id="pi-1911" x1="6.765" y1="6.08" x2="7.46" y2="6.08" stroke="black" stroke-width="0.1" stroke-linecap="square" />
    <line id="pi-1912" x1="7.474" y1="6.094" x2="7.474" y2="6.645" stroke="black" stroke-width="0.1" stroke-linecap="square" />
    <line id="pi-1913" x1="6.068" y1="5.823" x2="6.068" y2="5.823" stroke="black" stroke-width="0.1" stroke-linecap="square" />
    <line id="pi-1914" x1="6.068" y1="4.667" x2="6.068" y2="5.802" stroke="black" stroke-width="0.1" stroke-linecap="square" />
    <line id="pi-1915" x1="7.488" y1="6.659" x2="7.561" y2="6.659" stroke="black" stroke-width="0.1" stroke-linecap="square" />
    <line id="pi-1916" x1="7.575" y1="6.659" x2="7.575" y2="6.659" stroke="black" stroke-width="0.1" stroke-linecap="square" />
    <line id="pi-1917" x1="8.07" y1="6.645" x2="8.07" y2="6.593" stroke="black" stroke-width="0.1" stroke-linecap="square" />
    <line id="pi-1918" x1="8.07" y1="6.659" x2="8.07" y2="6.659" stroke="black" stroke-width="0.1" stroke-linecap="square" />
    <line id="pi-1919" x1="7.59" y1="6.659" x2="8.049" y2="6.659" stroke="black" stroke-width="0.1" stroke-linecap="square" />
    <line id="pi-1920" x1="8.908" y1="6.645" x2="8.908" y2="6.593" stroke="black" stroke-width="0.1" stroke-linecap="square" />
    <line id="pi-1921" x1="8.908" y1="6.659" x2="8.908" y2="6.659" stroke="black" stroke-width="0.1" stroke-linecap="square" />
    <line id="pi-1922" x1="8.09" y1="6.659" x2="8.887" y2="6.659" stroke="black" stroke-width="0.1" stroke-linecap="square" />
    <line id="pi-1923" x1="7.56" y1="6.686" x2="7.463" y2="6.686" stroke="black" stroke-width="0.1" stroke-linecap="square" />
    <line id="pi-1924" x1="7.574" y1="6.686" x2="7.574" y2="6.686" stroke="black" stroke-width="0.1" stroke-linecap="square" />
    <line id="pi-1925" x1="7.867" y1="6.672" x2="7.867" y2="6.593" stroke="black" stroke-width="0.1" stroke-linecap="square" />
    <line id="pi-1926" x1="7.867" y1="6.686" x2="7.867" y2="6.686" stroke="black" stroke-width="0.1" stroke-linecap="square" />
    <line id="pi-1927" x1="8.684" y1="6.686" x2="7.887" y2="6.686" stroke="black" stroke-width="0.1" stroke-linecap="square" />
    <line id="pi-1928" x1="8.704" y1="6.672" x2="8.704" y2="6.593" stroke="black" stroke-width="0.1" stroke-linecap="square" />
    <line id="pi-1929" x1="8.704" y1="6.686" x2="8.704" y2="6.686" stroke="black" stroke-width="0.1" stroke-linecap="square" />
    <line id="pi-1930" x1="8.725" y1="6.686" x2="10.082" y2="6.686" stroke="black" stroke-width="0.1" stroke-linecap="square" />
    <line id="pi-1931" x1="8.928" y1="6.659" x2="10.082" y2="6.659" stroke="black" stroke-width="0.1" stroke-linecap="square" />
    <line id="pi-1932" x1="10.097" y1="6.645" x2="10.097" y2="5.607" stroke="black" stroke-width="0.1" stroke-linecap="square" />
    <line id="pi-1933" x1="10.097" y1="6.672" x2="10.097" y2="5.659" stroke="black" stroke-width="0.1" stroke-linecap="square" />
    <line id="pi-1934" x1="10.097" y1="5.645" x2="10.097" y2="5.645" stroke="black" stroke-width="0.1" stroke-linecap="square" />
    <line id="pi-1935" x1="10.097" y1="5.631" x2="10.097" y2="4.72" stroke="black" stroke-width="0.1" stroke-linecap="square" />
    <line id="pi-1936" x1="10.097" y1="4.705" x2="10.097" y2="4.705" stroke="black" stroke-width="0.1" stroke-linecap="square" />
    <line id="pi-1937" x1="10.096" y1="5.593" x2="10.097" y2="5.593" stroke="black" stroke-width="0.1" stroke-linecap="square" />
    <line id="pi-1938" x1="10.097" y1="5.578" x2="10.097" y2="4.769" stroke="black" stroke-width="0.1" stroke-linecap="square" />
    <line id="pi-1939" x1="10.097" y1="4.754" x2="10.097" y2="4.754" stroke="black" stroke-width="0.1" stroke-linecap="square" />
    <line id="pi-1940" x1="10.097" y1="4.691" x2="10.097" y2="4.588" stroke="black" stroke-width="0.1" stroke-linecap="square" />
    <line id="pi-1941" x1="10.097" y1="4.74" x2="10.097" y2="4.527" stroke="black" stroke-width="0.1" stroke-linecap="square" />
    <line id="pi-1942" x1="10.097" y1="4.513" x2="10.097" y2="4.513" stroke="black" stroke-width="0.1" stroke-linecap="square" />
    <line id="pi-1943" x1="10.046" y1="4.513" x2="10.046" y2="4.513" stroke="black" stroke-width="0.1" stroke-linecap="square" />
    <line id="pi-1944" x1="10.05" y1="4.513" x2="10.092" y2="4.513" stroke="black" stroke-width="0.1" stroke-linecap="square" />
    <line id="pi-1945" x1="10.082" y1="4.573" x2="10.06" y2="4.573" stroke="black" stroke-width="0.1" stroke-linecap="square" />
    <line id="pi-1946" x1="10.046" y1="4.573" x2="10.046" y2="4.573" stroke="black" stroke-width="0.1" stroke-linecap="square" />
    <line id="pi-1947" x1="10.082" y1="5.493" x2="9.969" y2="5.493" stroke="black" stroke-width="0.1" stroke-linecap="square" />
    <line id="pi-1948" x1="10.097" y1="5.508" x2="10.097" y2="5.572" stroke="black" stroke-width="0.1" stroke-linecap="square" />
    <line id="pi-1949" x1="10.097" y1="5.593" x2="10.096" y2="5.593" stroke="black" stroke-width="0.1" stroke-linecap="square" />
    <line id="pi-1950" x1="6.643" y1="6.009" x2="6.643" y2="5.94" stroke="black" stroke-width="0.1" stroke-linecap="square" />
    <line id="pi-1951" x1="6.643" y1="6.023" x2="6.643" y2="6.023" stroke="black" stroke-width="0.1" stroke-linecap="square" />
    <line id="pi-1952" x1="6.664" y1="6.08" x2="7.434" y2="6.08" stroke="black" stroke-width="0.1" stroke-linecap="square" />
    <line id="pi-1953" x1="6.744" y1="6.066" x2="6.744" y2="5.94" stroke="black" stroke-width="0.1" stroke-linecap="square" />
    <line id="pi-1954" x1="6.744" y1="6.08" x2="6.744" y2="6.08" stroke="black" stroke-width="0.1" stroke-linecap="square" />
    <line id="pi-1955" x1="6.134" y1="6.08" x2="6.724" y2="6.08" stroke="black" stroke-width="0.1" stroke-linecap="square" />
    <line id="pi-1956" x1="6.082" y1="6.08" x2="6.622" y2="6.08" stroke="black" stroke-width="0.1" stroke-linecap="square" />
    <line id="pi-1957" x1="6.643" y1="6.059" x2="6.643" y2="6.037" stroke="black" stroke-width="0.1" stroke-linecap="square" />
    <line id="pi-1958" x1="6.571" y1="4.501" x2="6.571" y2="4.501" stroke="black" stroke-width="0.1" stroke-linecap="square" />
    <line id="pi-1959" x1="6.418" y1="4.501" x2="6.418" y2="4.501" stroke="black" stroke-width="0.1" stroke-linecap="square" />
    <line id="pi-1960" x1="6.068" y1="6.006" x2="6.068" y2="5.928" stroke="black" stroke-width="0.1" stroke-linecap="square" />
    <line id="pi-1961" x1="6.068" y1="5.899" x2="6.068" y2="4.64" stroke="black" stroke-width="0.1" stroke-linecap="square" />
    <line id="pi-1962" x1="6.068" y1="5.913" x2="6.068" y2="5.913" stroke="black" stroke-width="0.1" stroke-linecap="square" />
    <line id="pi-1963" x1="6.082" y1="4.626" x2="6.404" y2="4.626" stroke="black" stroke-width="0.1" stroke-linecap="square" />
    <line id="pi-1964" x1="6.418" y1="4.626" x2="6.418" y2="4.626" stroke="black" stroke-width="0.1" stroke-linecap="square" />
    <line id="pi-1965" x1="6.418" y1="4.612" x2="6.418" y2="4.515" stroke="black" stroke-width="0.1" stroke-linecap="square" />
    <line id="pi-1966" x1="6.875" y1="4.653" x2="6.591" y2="4.653" stroke="black" stroke-width="0.1" stroke-linecap="square" />
    <line id="pi-1967" x1="6.571" y1="4.522" x2="6.571" y2="4.531" stroke="black" stroke-width="0.1" stroke-linecap="square" />
    <line id="pi-1968" x1="6.571" y1="4.653" x2="6.571" y2="4.653" stroke="black" stroke-width="0.1" stroke-linecap="square" />
    <line id="pi-1969" x1="6.068" y1="4.653" x2="6.068" y2="4.653" stroke="black" stroke-width="0.1" stroke-linecap="square" />
    <line id="pi-1970" x1="6.571" y1="4.551" x2="6.571" y2="4.551" stroke="black" stroke-width="0.1" stroke-linecap="square" />
    <line id="pi-1971" x1="6.571" y1="4.551" x2="6.571" y2="4.551" stroke="black" stroke-width="0.1" stroke-linecap="square" />
    <line id="pi-1972" x1="6.571" y1="4.572" x2="6.571" y2="4.632" stroke="black" stroke-width="0.1" stroke-linecap="square" />
    <line id="pi-1973" x1="6.571" y1="4.551" x2="6.571" y2="4.551" stroke="black" stroke-width="0.1" stroke-linecap="square" />
    <line id="pi-1974" x1="6.082" y1="4.653" x2="6.556" y2="4.653" stroke="black" stroke-width="0.1" stroke-linecap="square" />
    <line id="pi-1975" x1="6.571" y1="4.632" x2="6.571" y2="4.578" stroke="black" stroke-width="0.1" stroke-linecap="square" />
    <line id="pi-1976" x1="10.046" y1="5.29" x2="10.046" y2="5.29" stroke="black" stroke-width="0.1" stroke-linecap="square" />
    <line id="pi-1978" x1="10.046" y1="5.29" x2="10.046" y2="5.29" stroke="black" stroke-width="0.1" stroke-linecap="square" />
    <line id="pi-2371" x1="15.532" y1="3.302" x2="15.532" y2="3.302" stroke="black" stroke-width="0.1" stroke-linecap="square" />
    <line id="pi-2372" x1="15.715" y1="3.662" x2="15.715" y2="3.662" stroke="black" stroke-width="0.1" stroke-linecap="square" />
    <line id="pi-2373" x1="15.715" y1="3.509" x2="15.715" y2="3.509" stroke="black" stroke-width="0.1" stroke-linecap="square" />
    <line id="pi-2374" x1="15.684" y1="3.302" x2="15.684" y2="3.302" stroke="black" stroke-width="0.1" stroke-linecap="square" />
    <line id="pi-2375" x1="15.532" y1="3.662" x2="15.532" y2="3.662" stroke="black" stroke-width="0.1" stroke-linecap="square" />
    <line id="pi-2376" x1="15.7" y1="3.662" x2="15.546" y2="3.662" stroke="black" stroke-width="0.1" stroke-linecap="square" />
    <line id="pi-2377" x1="15.532" y1="3.336" x2="15.532" y2="3.648" stroke="black" stroke-width="0.1" stroke-linecap="square" />
    <line id="pi-2378" x1="15.532" y1="3.302" x2="15.532" y2="3.302" stroke="black" stroke-width="0.1" stroke-linecap="square" />
    <line id="pi-2379" x1="15.532" y1="3.302" x2="15.532" y2="3.302" stroke="black" stroke-width="0.1" stroke-linecap="square" />
    <line id="pi-2380" x1="15.684" y1="3.302" x2="15.684" y2="3.302" stroke="black" stroke-width="0.1" stroke-linecap="square" />
    <line id="pi-2381" x1="15.664" y1="3.302" x2="15.553" y2="3.302" stroke="black" stroke-width="0.1" stroke-linecap="square" />
    <line id="pi-2382" x1="15.553" y1="3.302" x2="15.664" y2="3.302" stroke="black" stroke-width="0.1" stroke-linecap="square" />
    <line id="pi-2383" x1="15.456" y1="3.629" x2="15.48" y2="3.629" stroke="black" stroke-width="0.1" stroke-linecap="square" />
    <line id="pi-2384" x1="15.494" y1="3.608" x2="15.494" y2="3.323" stroke="black" stroke-width="0.1" stroke-linecap="square" />
    <line id="pi-2385" x1="15.494" y1="3.629" x2="15.494" y2="3.629" stroke="black" stroke-width="0.1" stroke-linecap="square" />
    <line id="pi-2386" x1="15.456" y1="3.832" x2="15.48" y2="3.832" stroke="black" stroke-width="0.1" stroke-linecap="square" />
    <line id="pi-2387" x1="15.494" y1="3.53" x2="15.494" y2="3.812" stroke="black" stroke-width="0.1" stroke-linecap="square" />
    <line id="pi-2388" x1="15.494" y1="3.832" x2="15.494" y2="3.832" stroke="black" stroke-width="0.1" stroke-linecap="square" />
    <line id="pi-2389" x1="15.494" y1="3.509" x2="15.494" y2="3.509" stroke="black" stroke-width="0.1" stroke-linecap="square" />
    <line id="pi-2390" x1="15.7" y1="3.509" x2="15.508" y2="3.509" stroke="black" stroke-width="0.1" stroke-linecap="square" />
    <line id="pi-2391" x1="15.518" y1="3.302" x2="15.515" y2="3.302" stroke="black" stroke-width="0.1" stroke-linecap="square" />
    <line id="pi-2392" x1="15.494" y1="3.281" x2="15.494" y2="2.74" stroke="black" stroke-width="0.1" stroke-linecap="square" />
    <line id="pi-2393" x1="13.786" y1="2.726" x2="12.658" y2="2.726" stroke="black" stroke-width="0.1" stroke-linecap="square" />
    <line id="pi-2394" x1="15.494" y1="3.489" x2="15.494" y2="2.74" stroke="black" stroke-width="0.1" stroke-linecap="square" />
    <line id="pi-2395" x1="13.84" y1="2.726" x2="12.658" y2="2.726" stroke="black" stroke-width="0.1" stroke-linecap="square" />
    <line id="pi-2396" x1="12.644" y1="3.134" x2="12.644" y2="3.134" stroke="black" stroke-width="0.1" stroke-linecap="square" />
    <line id="pi-2397" x1="12.644" y1="3.119" x2="12.644" y2="2.74" stroke="black" stroke-width="0.1" stroke-linecap="square" />
    <line id="pi-2398" x1="12.644" y1="3.194" x2="12.644" y2="3.194" stroke="black" stroke-width="0.1" stroke-linecap="square" />
    <line id="pi-2399" x1="12.644" y1="3.18" x2="12.644" y2="2.74" stroke="black" stroke-width="0.1" stroke-linecap="square" />
    <line id="pi-2400" x1="15.494" y1="3.853" x2="15.494" y2="4.308" stroke="black" stroke-width="0.1" stroke-linecap="square" />
    <line id="pi-2401" x1="15.494" y1="4.323" x2="15.494" y2="4.323" stroke="black" stroke-width="0.1" stroke-linecap="square" />
    <line id="pi-2402" x1="15.494" y1="3.65" x2="15.494" y2="4.258" stroke="black" stroke-width="0.1" stroke-linecap="square" />
    <line id="pi-2403" x1="15.494" y1="4.272" x2="15.494" y2="4.272" stroke="black" stroke-width="0.1" stroke-linecap="square" />
    <line id="pi-2404" x1="15.494" y1="4.337" x2="15.494" y2="5.61" stroke="black" stroke-width="0.1" stroke-linecap="square" />
    <line id="pi-2405" x1="15.494" y1="4.286" x2="15.494" y2="5.642" stroke="black" stroke-width="0.1" stroke-linecap="square" />
    <line id="pi-2406" x1="15.303" y1="5.731" x2="15.303" y2="5.639" stroke="black" stroke-width="0.1" stroke-linecap="square" />
    <line id="pi-2407" x1="15.48" y1="5.625" x2="15.318" y2="5.625" stroke="black" stroke-width="0.1" stroke-linecap="square" />
    <line id="pi-2408" x1="15.494" y1="5.625" x2="15.494" y2="5.625" stroke="black" stroke-width="0.1" stroke-linecap="square" />
    <line id="pi-2409" x1="15.1" y1="5.731" x2="15.1" y2="5.671" stroke="black" stroke-width="0.1" stroke-linecap="square" />
    <line id="pi-2410" x1="15.48" y1="5.656" x2="15.115" y2="5.656" stroke="black" stroke-width="0.1" stroke-linecap="square" />
    <line id="pi-2411" x1="15.1" y1="5.656" x2="15.1" y2="5.656" stroke="black" stroke-width="0.1" stroke-linecap="square" />
    <line id="pi-2412" x1="15.494" y1="5.656" x2="15.494" y2="5.656" stroke="black" stroke-width="0.1" stroke-linecap="square" />
    <line id="pi-2413" x1="13.129" y1="4.713" x2="13.129" y2="4.713" stroke="black" stroke-width="0.1" stroke-linecap="square" />
    <line id="pi-2414" x1="13.129" y1="4.64" x2="13.129" y2="4.699" stroke="black" stroke-width="0.1" stroke-linecap="square" />
    <line id="pi-2415" x1="13.23" y1="4.64" x2="13.23" y2="4.666" stroke="black" stroke-width="0.1" stroke-linecap="square" />
    <line id="pi-2416" x1="13.23" y1="4.68" x2="13.23" y2="4.68" stroke="black" stroke-width="0.1" stroke-linecap="square" />
    <line id="pi-2417" x1="15.48" y1="2.726" x2="13.827" y2="2.726" stroke="black" stroke-width="0.1" stroke-linecap="square" />
    <line id="pi-2418" x1="15.48" y1="2.726" x2="13.881" y2="2.726" stroke="black" stroke-width="0.1" stroke-linecap="square" />
    <line id="pi-2419" x1="13.861" y1="2.746" x2="13.861" y2="2.761" stroke="black" stroke-width="0.1" stroke-linecap="square" />
    <line id="pi-2420" x1="13.806" y1="2.746" x2="13.806" y2="2.761" stroke="black" stroke-width="0.1" stroke-linecap="square" />
    <line id="pi-2421" x1="13.806" y1="2.775" x2="13.806" y2="2.775" stroke="black" stroke-width="0.1" stroke-linecap="square" />
    <line id="pi-2422" x1="13.861" y1="2.775" x2="13.861" y2="2.775" stroke="black" stroke-width="0.1" stroke-linecap="square" />
    <line id="pi-2423" x1="13.806" y1="4.666" x2="13.806" y2="2.789" stroke="black" stroke-width="0.1" stroke-linecap="square" />
    <line id="pi-2424" x1="13.792" y1="4.68" x2="13.245" y2="4.68" stroke="black" stroke-width="0.1" stroke-linecap="square" />
    <line id="pi-2425" x1="13.861" y1="4.699" x2="13.861" y2="2.789" stroke="black" stroke-width="0.1" stroke-linecap="square" />
    <line id="pi-2426" x1="13.846" y1="4.713" x2="13.143" y2="4.713" stroke="black" stroke-width="0.1" stroke-linecap="square" />
    <line id="pi-2427" x1="12.659" y1="4.963" x2="12.706" y2="4.963" stroke="black" stroke-width="0.1" stroke-linecap="square" />
    <line id="pi-2428" x1="12.644" y1="4.963" x2="12.644" y2="4.963" stroke="black" stroke-width="0.1" stroke-linecap="square" />
    <line id="pi-2429" x1="12.644" y1="4.695" x2="12.644" y2="4.948" stroke="black" stroke-width="0.1" stroke-linecap="square" />
    <line id="pi-2430" x1="13.21" y1="4.68" x2="12.659" y2="4.68" stroke="black" stroke-width="0.1" stroke-linecap="square" />
    <line id="pi-2431" x1="13.23" y1="4.68" x2="13.23" y2="4.68" stroke="black" stroke-width="0.1" stroke-linecap="square" />
    <line id="pi-2432" x1="13.179" y1="4.177" x2="13.179" y2="4.177" stroke="black" stroke-width="0.1" stroke-linecap="square" />
    <line id="pi-2433" x1="13.193" y1="4.548" x2="13.184" y2="4.319" stroke="black" stroke-width="0.1" stroke-linecap="square" />
    <line id="pi-2434" x1="13.214" y1="5.166" x2="13.214" y2="5.166" stroke="black" stroke-width="0.1" stroke-linecap="square" />
    <line id="pi-2435" x1="13.214" y1="5.309" x2="13.214" y2="5.496" stroke="black" stroke-width="0.1" stroke-linecap="square" />
    <line id="pi-2436" x1="13.214" y1="5.639" x2="13.214" y2="5.639" stroke="black" stroke-width="0.1" stroke-linecap="square" />
    <line id="pi-2437" x1="13.214" y1="5.639" x2="13.214" y2="5.639" stroke="black" stroke-width="0.1" stroke-linecap="square" />
    <line id="pi-2438" x1="13.214" y1="5.166" x2="13.214" y2="5.166" stroke="black" stroke-width="0.1" stroke-linecap="square" />
    <line id="pi-2439" x1="12.676" y1="4.47" x2="12.888" y2="4.47" stroke="black" stroke-width="0.1" stroke-linecap="square" />
    <line id="pi-2441" x1="13.209" y1="5.023" x2="13.199" y2="4.737" stroke="black" stroke-width="0.1" stroke-linecap="square" />
    <line id="pi-2452" x1="-4.122" y1="5.952" x2="-3.785" y2="6.241" stroke="black" stroke-width="0.1" stroke-linecap="square" />
    <line id="pi-2607" x1="10.046" y1="5.29" x2="10.046" y2="5.29" stroke="black" stroke-width="0.1" stroke-linecap="square" />
    <line id="pi-2630" x1="6.068" y1="6.066" x2="6.068" y2="6.047" stroke="black" stroke-width="0.1" stroke-linecap="square" />
    <line id="pi-2631" x1="10.046" y1="5.532" x2="10.046" y2="5.5" stroke="black" stroke-width="0.1" stroke-linecap="square" />
    <line id="pi-2632" x1="10.046" y1="5.29" x2="10.046" y2="5.29" stroke="black" stroke-width="0.1" stroke-linecap="square" />
    <line id="pi-2633" x1="6.896" y1="4.653" x2="6.896" y2="4.653" stroke="black" stroke-width="0.1" stroke-linecap="square" />
    <line id="pi-2713" x1="-8.969" y1="3.667" x2="-8.969" y2="3.667" stroke="black" stroke-width="0.1" stroke-linecap="square" />
    <line id="pi-2714" x1="-8.969" y1="3.667" x2="-8.969" y2="3.667" stroke="black" stroke-width="0.1" stroke-linecap="square" />
    <line id="pi-2715" x1="-8.99" y1="3.667" x2="-9.092" y2="3.667" stroke="black" stroke-width="0.1" stroke-linecap="square" />
    <line id="pi-2716" x1="-8.99" y1="3.667" x2="-9.092" y2="3.667" stroke="black" stroke-width="0.1" stroke-linecap="square" />
    <line id="pi-2717" x1="-9.112" y1="3.667" x2="-9.112" y2="3.667" stroke="black" stroke-width="0.1" stroke-linecap="square" />
    <line id="pi-2718" x1="-8.93" y1="3.389" x2="-8.93" y2="3.389" stroke="black" stroke-width="0.1" stroke-linecap="square" />
    <line id="pi-2719" x1="-8.93" y1="3.237" x2="-8.93" y2="3.237" stroke="black" stroke-width="0.1" stroke-linecap="square" />
    <line id="pi-2720" x1="-9.098" y1="3.389" x2="-8.944" y2="3.389" stroke="black" stroke-width="0.1" stroke-linecap="square" />
    <line id="pi-2721" x1="-9.112" y1="3.646" x2="-9.112" y2="3.41" stroke="black" stroke-width="0.1" stroke-linecap="square" />
    <line id="pi-2722" x1="-9.112" y1="3.389" x2="-9.112" y2="3.389" stroke="black" stroke-width="0.1" stroke-linecap="square" />
    <line id="pi-2723" x1="-8.944" y1="3.237" x2="-9.098" y2="3.237" stroke="black" stroke-width="0.1" stroke-linecap="square" />
    <line id="pi-2724" x1="-9.112" y1="3.223" x2="-9.112" y2="2.769" stroke="black" stroke-width="0.1" stroke-linecap="square" />
    <line id="pi-2725" x1="-9.112" y1="3.237" x2="-9.112" y2="3.237" stroke="black" stroke-width="0.1" stroke-linecap="square" />
    <line id="pi-2726" x1="-9.112" y1="3.355" x2="-9.112" y2="2.769" stroke="black" stroke-width="0.1" stroke-linecap="square" />
    <line id="pi-2727" x1="-9.127" y1="2.754" x2="-11.986" y2="2.754" stroke="black" stroke-width="0.1" stroke-linecap="square" />
    <line id="pi-2728" x1="-9.127" y1="2.754" x2="-11.986" y2="2.754" stroke="black" stroke-width="0.1" stroke-linecap="square" />
    <line id="pi-2729" x1="-12.001" y1="3.355" x2="-12.001" y2="3.355" stroke="black" stroke-width="0.1" stroke-linecap="square" />
    <line id="pi-2730" x1="-12.001" y1="3.139" x2="-12.001" y2="2.769" stroke="black" stroke-width="0.1" stroke-linecap="square" />
    <line id="pi-2731" x1="-12.001" y1="3.416" x2="-12.001" y2="3.416" stroke="black" stroke-width="0.1" stroke-linecap="square" />
    <line id="pi-2732" x1="-12.001" y1="3.139" x2="-12.001" y2="2.769" stroke="black" stroke-width="0.1" stroke-linecap="square" />
    <line id="pi-2733" x1="-9.112" y1="3.424" x2="-9.112" y2="3.615" stroke="black" stroke-width="0.1" stroke-linecap="square" />
    <line id="pi-2734" x1="-9.112" y1="3.389" x2="-9.112" y2="3.389" stroke="black" stroke-width="0.1" stroke-linecap="square" />
    <line id="pi-2735" x1="-9.112" y1="3.389" x2="-9.112" y2="3.389" stroke="black" stroke-width="0.1" stroke-linecap="square" />
    <line id="pi-2736" x1="-9.204" y1="3.629" x2="-9.127" y2="3.629" stroke="black" stroke-width="0.1" stroke-linecap="square" />
    <line id="pi-2737" x1="-9.112" y1="3.629" x2="-9.112" y2="3.629" stroke="black" stroke-width="0.1" stroke-linecap="square" />
    <line id="pi-2738" x1="-9.112" y1="3.258" x2="-9.112" y2="3.277" stroke="black" stroke-width="0.1" stroke-linecap="square" />
    <line id="pi-2739" x1="-9.112" y1="3.237" x2="-9.112" y2="3.237" stroke="black" stroke-width="0.1" stroke-linecap="square" />
    <line id="pi-2740" x1="-9.116" y1="3.287" x2="-9.144" y2="3.314" stroke="black" stroke-width="0.1" stroke-linecap="square" />
    <line id="pi-2741" x1="-9.148" y1="3.325" x2="-9.148" y2="3.501" stroke="black" stroke-width="0.1" stroke-linecap="square" />
    <line id="pi-2742" x1="-9.148" y1="3.515" x2="-9.148" y2="3.515" stroke="black" stroke-width="0.1" stroke-linecap="square" />
    <line id="pi-2743" x1="-9.204" y1="3.832" x2="-9.162" y2="3.832" stroke="black" stroke-width="0.1" stroke-linecap="square" />
    <line id="pi-2744" x1="-9.148" y1="3.832" x2="-9.148" y2="3.832" stroke="black" stroke-width="0.1" stroke-linecap="square" />
    <line id="pi-2745" x1="-9.148" y1="3.53" x2="-9.148" y2="3.818" stroke="black" stroke-width="0.1" stroke-linecap="square" />
    <line id="pi-2749" x1="-12.06" y1="4.698" x2="-12.06" y2="3.225" stroke="black" stroke-width="0.1" stroke-linecap="square" />
    <line id="pi-2750" x1="-12.015" y1="3.174" x2="-12.056" y2="3.215" stroke="black" stroke-width="0.1" stroke-linecap="square" />
    <line id="pi-2751" x1="-12.06" y1="4.698" x2="-12.06" y2="3.225" stroke="black" stroke-width="0.1" stroke-linecap="square" />
    <line id="pi-2752" x1="-12.015" y1="3.174" x2="-12.056" y2="3.215" stroke="black" stroke-width="0.1" stroke-linecap="square" />
    <line id="pi-2753" x1="-12.001" y1="3.341" x2="-12.001" y2="3.18" stroke="black" stroke-width="0.1" stroke-linecap="square" />
    <line id="pi-2754" x1="-12.001" y1="3.401" x2="-12.001" y2="3.18" stroke="black" stroke-width="0.1" stroke-linecap="square" />
    <line id="pi-2755" x1="-12.04" y1="4.719" x2="-11.53" y2="4.719" stroke="black" stroke-width="0.1" stroke-linecap="square" />
    <line id="pi-2756" x1="-12.04" y1="4.719" x2="-11.428" y2="4.719" stroke="black" stroke-width="0.1" stroke-linecap="square" />
    <line id="pi-2757" x1="-11.414" y1="4.64" x2="-11.414" y2="4.704" stroke="black" stroke-width="0.1" stroke-linecap="square" />
    <line id="pi-2758" x1="-11.414" y1="4.719" x2="-11.414" y2="4.719" stroke="black" stroke-width="0.1" stroke-linecap="square" />
    <line id="pi-2759" x1="-11.516" y1="4.64" x2="-11.516" y2="4.704" stroke="black" stroke-width="0.1" stroke-linecap="square" />
    <line id="pi-2760" x1="-11.516" y1="4.719" x2="-11.516" y2="4.719" stroke="black" stroke-width="0.1" stroke-linecap="square" />
    <line id="pi-2761" x1="-12.06" y1="4.739" x2="-12.06" y2="4.942" stroke="black" stroke-width="0.1" stroke-linecap="square" />
    <line id="pi-2762" x1="-12.046" y1="4.963" x2="-11.922" y2="4.963" stroke="black" stroke-width="0.1" stroke-linecap="square" />
    <line id="pi-2763" x1="-12.06" y1="4.963" x2="-12.06" y2="4.963" stroke="black" stroke-width="0.1" stroke-linecap="square" />
    <line id="pi-2764" x1="-12.06" y1="4.983" x2="-12.06" y2="5.604" stroke="black" stroke-width="0.1" stroke-linecap="square" />
    <line id="pi-2765" x1="-12.046" y1="5.618" x2="-11.761" y2="5.618" stroke="black" stroke-width="0.1" stroke-linecap="square" />
    <line id="pi-2766" x1="-11.751" y1="5.622" x2="-11.665" y2="5.709" stroke="black" stroke-width="0.1" stroke-linecap="square" />
    <line id="pi-2767" x1="-11.654" y1="5.713" x2="-11.361" y2="5.713" stroke="black" stroke-width="0.1" stroke-linecap="square" />
    <line id="pi-2768" x1="-12.06" y1="4.739" x2="-12.06" y2="5.604" stroke="black" stroke-width="0.1" stroke-linecap="square" />
    <line id="pi-2769" x1="-12.046" y1="5.618" x2="-11.761" y2="5.618" stroke="black" stroke-width="0.1" stroke-linecap="square" />
    <line id="pi-2770" x1="-11.751" y1="5.622" x2="-11.665" y2="5.709" stroke="black" stroke-width="0.1" stroke-linecap="square" />
    <line id="pi-2771" x1="-11.654" y1="5.713" x2="-11.361" y2="5.713" stroke="black" stroke-width="0.1" stroke-linecap="square" />
    <line id="pi-2772" x1="-11.351" y1="5.709" x2="-11.288" y2="5.646" stroke="black" stroke-width="0.1" stroke-linecap="square" />
    <line id="pi-2773" x1="-11.278" y1="5.641" x2="-9.355" y2="5.641" stroke="black" stroke-width="0.1" stroke-linecap="square" />
    <line id="pi-2774" x1="-9.341" y1="5.728" x2="-9.341" y2="5.656" stroke="black" stroke-width="0.1" stroke-linecap="square" />
    <line id="pi-2775" x1="-11.351" y1="5.709" x2="-11.288" y2="5.646" stroke="black" stroke-width="0.1" stroke-linecap="square" />
    <line id="pi-2776" x1="-11.278" y1="5.641" x2="-9.558" y2="5.641" stroke="black" stroke-width="0.1" stroke-linecap="square" />
    <line id="pi-2777" x1="-9.544" y1="5.713" x2="-9.544" y2="5.728" stroke="black" stroke-width="0.1" stroke-linecap="square" />
    <line id="pi-2778" x1="-9.544" y1="5.699" x2="-9.544" y2="5.699" stroke="black" stroke-width="0.1" stroke-linecap="square" />
    <line id="pi-2779" x1="-9.544" y1="5.656" x2="-9.544" y2="5.684" stroke="black" stroke-width="0.1" stroke-linecap="square" />
    <line id="pi-2790" x1="-15.269" y1="11.036" x2="-15.269" y2="11.036" stroke="black" stroke-width="0.1" stroke-linecap="square" />
    <line id="pi-2791" x1="-15.269" y1="11.008" x2="-15.269" y2="11.022" stroke="black" stroke-width="0.1" stroke-linecap="square" />
    <line id="pi-2792" x1="-15.269" y1="10.973" x2="-15.269" y2="10.973" stroke="black" stroke-width="0.1" stroke-linecap="square" />
    <line id="pi-2793" x1="-15.269" y1="10.973" x2="-15.269" y2="10.973" stroke="black" stroke-width="0.1" stroke-linecap="square" />
    <line id="pi-2803" x1="-5.805" y1="7.658" x2="-6.569" y2="7.658" stroke="black" stroke-width="0.1" stroke-linecap="square" />
    <line id="pi-2939" x1="5.044" y1="7.29" x2="5.044" y2="7.29" stroke="black" stroke-width="0.1" stroke-linecap="square" />
    <line id="pi-2940" x1="5.247" y1="7.29" x2="9.208" y2="7.29" stroke="black" stroke-width="0.1" stroke-linecap="square" />
    <line id="pi-2943" x1="9.377" y1="11.417" x2="9.377" y2="11.417" stroke="black" stroke-width="0.1" stroke-linecap="square" />
    <line id="pi-2944" x1="9.377" y1="7.29" x2="9.377" y2="7.29" stroke="black" stroke-width="0.1" stroke-linecap="square" />
    <line id="pi-2967" x1="-19.281" y1="11.417" x2="-19.281" y2="11.417" stroke="black" stroke-width="0.1" stroke-linecap="square" />
    <line id="pi-2968" x1="-19.084" y1="11.468" x2="-18.031" y2="11.742" stroke="black" stroke-width="0.1" stroke-linecap="square" />
    <line id="pi-2969" x1="-19.281" y1="3.47" x2="-19.281" y2="3.47" stroke="black" stroke-width="0.1" stroke-linecap="square" />
    <line id="pi-2970" x1="-19.281" y1="3.674" x2="-19.281" y2="9.132" stroke="black" stroke-width="0.1" stroke-linecap="square" />
    <line id="pi-3015" x1="-6.023" y1="2.565" x2="-6.062" y2="2.565" stroke="black" stroke-width="0.1" stroke-linecap="square" />
    <line id="pi-3016" x1="-6.268" y1="2.565" x2="-6.077" y2="2.565" stroke="black" stroke-width="0.1" stroke-linecap="square" />
    <line id="pi-3017" x1="-6.321" y1="2.565" x2="-6.282" y2="2.565" stroke="black" stroke-width="0.1" stroke-linecap="square" />
    <line id="pi-3038" x1="1.241" y1="2.565" x2="1.202" y2="2.565" stroke="black" stroke-width="0.1" stroke-linecap="square" />
    <line id="pi-3039" x1="0.997" y1="2.565" x2="1.188" y2="2.565" stroke="black" stroke-width="0.1" stroke-linecap="square" />
    <line id="pi-3040" x1="0.943" y1="2.565" x2="0.982" y2="2.565" stroke="black" stroke-width="0.1" stroke-linecap="square" />
    <line id="pi-3041" x1="-6.009" y1="2.565" x2="0.929" y2="2.565" stroke="black" stroke-width="0.1" stroke-linecap="square" />
    <line id="pi-3042" x1="-30.213" y1="10.963" x2="-30.248" y2="10.963" stroke="black" stroke-width="0.1" stroke-linecap="square" />
    <line id="pi-3043" x1="-30.282" y1="10.963" x2="-30.282" y2="10.963" stroke="black" stroke-width="0.1" stroke-linecap="square" />
    <line id="pi-3048" x1="6.064" y1="5.925" x2="6.064" y2="5.925" stroke="black" stroke-width="0.1" stroke-linecap="square" />
  </g>
</svg>