<?xml version="1.0" encoding="utf-8"?>
<svg xmlns="http://www.w3.org/2000/svg" viewBox="-34.485 -31.672 64.597 49.853">
  <g transform="scale(1,-1)">
    <rect id="sc-12" x="-6.322" y="12.487" width="0.3" height="0.3" stroke="black" stroke-width="0.02" fill="none" />
    <rect id="sc-13" x="0.942" y="12.486" width="0.3" height="0.3" stroke="black" stroke-width="0.02" fill="none" />
    <rect id="sc-16" x="7.14" y="12.486" width="0.3" height="0.3" stroke="black" stroke-width="0.02" fill="none" />
    <rect id="sc-19" x="-6.322" y="5.705" width="0.3" height="0.3" stroke="black" stroke-width="0.02" fill="none" />
    <rect id="sc-22" x="7.14" y="5.705" width="0.3" height="0.3" stroke="black" stroke-width="0.02" fill="none" />
    <rect id="sc-24" x="-15.161" y="0.612" width="0.3" height="0.3" stroke="black" stroke-width="0.02" fill="none" />
    <rect id="sc-25" x="-6.322" y="0.612" width="0.3" height="0.3" stroke="black" stroke-width="0.02" fill="none" />
    <rect id="sc-26" x="0.942" y="0.612" width="0.3" height="0.3" stroke="black" stroke-width="0.02" fill="none" />
    <rect id="sc-28" x="7.14" y="0.612" width="0.3" height="0.3" stroke="black" stroke-width="0.02" fill="none" />
    <rect id="sc-30" x="-15.161" y="-8.545" width="0.3" height="0.3" stroke="black" stroke-width="0.02" fill="none" />
    <rect id="sc-31" x="-6.322" y="-8.545" width="0.3" height="0.3" stroke="black" stroke-width="0.02" fill="none" />
    <rect id="sc-32" x="0.942" y="-8.545" width="0.3" height="0.3" stroke="black" stroke-width="0.02" fill="none" />
    <rect id="sc-35" x="7.14" y="-8.545" width="0.3" height="0.3" stroke="black" stroke-width="0.02" fill="none" />
    <rect id="sc-38" x="7.14" y="-4.024" width="0.3" height="0.3" stroke="black" stroke-width="0.02" fill="none" />
    <rect id="sc-39" x="-15.161" y="-4.024" width="0.3" height="0.3" stroke="black" stroke-width="0.02" fill="none" />
    <rect id="sc-40" x="-6.322" y="-4.024" width="0.3" height="0.3" stroke="black" stroke-width="0.02" fill="none" />
    <rect id="sc-41" x="0.942" y="-4.024" width="0.3" height="0.3" stroke="black" stroke-width="0.02" fill="none" />
  </g>
</svg>