<?xml version="1.0" encoding="utf-8"?>
<svg xmlns="http://www.w3.org/2000/svg" viewBox="-35.095 -14.445 57.541 61.213">
  <g transform="scale(1,-1)">
    <rect id="sc-12" x="-6.358" y="12.456" width="0.371" height="0.363" fill="black" transform="rotate(180,-6.172,12.637)" />
    <rect id="sc-13" x="0.907" y="12.454" width="0.371" height="0.363" fill="black" transform="rotate(180,1.092,12.636)" />
    <rect id="sc-16" x="7.104" y="12.454" width="0.371" height="0.363" fill="black" transform="rotate(360,7.29,12.636)" />
    <rect id="sc-19" x="-6.299" y="5.728" width="0.254" height="0.254" fill="black" transform="rotate(90,-6.172,5.855)" />
    <rect id="sc-22" x="7.163" y="5.728" width="0.254" height="0.254" fill="black" transform="rotate(90,7.29,5.855)" />
    <rect id="sc-24" x="-15.154" y="0.52" width="0.287" height="0.483" fill="black" transform="rotate(270,-15.011,0.762)" />
    <rect id="sc-25" x="-6.299" y="0.635" width="0.254" height="0.254" fill="black" transform="rotate(90,-6.172,0.762)" />
    <rect id="sc-26" x="0.965" y="0.635" width="0.254" height="0.254" fill="black" transform="rotate(90,1.092,0.762)" />
    <rect id="sc-28" x="7.163" y="0.635" width="0.254" height="0.254" fill="black" transform="rotate(90,7.29,0.762)" />
    <rect id="sc-30" x="-15.196" y="-8.576" width="0.371" height="0.363" fill="black" transform="rotate(90,-15.011,-8.395)" />
    <rect id="sc-31" x="-6.358" y="-8.576" width="0.371" height="0.363" fill="black" transform="rotate(180,-6.172,-8.395)" />
    <rect id="sc-32" x="0.907" y="-8.576" width="0.371" height="0.363" fill="black" transform="rotate(180,1.092,-8.395)" />
    <rect id="sc-35" x="7.104" y="-8.576" width="0.371" height="0.363" fill="black" transform="rotate(180,7.29,-8.395)" />
    <rect id="sc-38" x="7.163" y="-4.001" width="0.254" height="0.254" fill="black" transform="rotate(90,7.29,-3.874)" />
    <rect id="sc-39" x="-15.196" y="-4.056" width="0.371" height="0.363" fill="black" transform="rotate(90,-15.011,-3.874)" />
    <rect id="sc-40" x="-6.299" y="-4.001" width="0.254" height="0.254" fill="black" transform="rotate(90,-6.172,-3.874)" />
    <rect id="sc-41" x="0.965" y="-4.001" width="0.254" height="0.254" fill="black" transform="rotate(90,1.092,-3.874)" />
  </g>
</svg>