<?xml version="1.0" encoding="utf-8"?>
<svg xmlns="http://www.w3.org/2000/svg" viewBox="-15.661 -13.287 23.601 22.332">
  <g transform="scale(1,-1)">
    <rect id="sc-12" x="-6.322" y="12.487" width="0.3" height="0.3" fill="black" transform="rotate(180,-6.172,12.637)" />
    <rect id="sc-13" x="0.942" y="12.486" width="0.3" height="0.3" fill="black" transform="rotate(180,1.092,12.636)" />
    <rect id="sc-16" x="7.14" y="12.486" width="0.3" height="0.3" fill="black" transform="rotate(360,7.29,12.636)" />
    <rect id="sc-19" x="-6.322" y="5.705" width="0.3" height="0.3" fill="black" transform="rotate(90,-6.172,5.855)" />
    <rect id="sc-22" x="7.14" y="5.705" width="0.3" height="0.3" fill="black" transform="rotate(90,7.29,5.855)" />
    <rect id="sc-24" x="-15.161" y="0.612" width="0.3" height="0.3" fill="black" transform="rotate(270,-15.011,0.762)" />
    <rect id="sc-25" x="-6.322" y="0.612" width="0.3" height="0.3" fill="black" transform="rotate(90,-6.172,0.762)" />
    <rect id="sc-26" x="0.942" y="0.612" width="0.3" height="0.3" fill="black" transform="rotate(90,1.092,0.762)" />
    <rect id="sc-28" x="7.14" y="0.612" width="0.3" height="0.3" fill="black" transform="rotate(90,7.29,0.762)" />
    <rect id="sc-30" x="-15.161" y="-8.545" width="0.3" height="0.3" fill="black" transform="rotate(90,-15.011,-8.395)" />
    <rect id="sc-31" x="-6.322" y="-8.545" width="0.3" height="0.3" fill="black" transform="rotate(180,-6.172,-8.395)" />
    <rect id="sc-32" x="0.942" y="-8.545" width="0.3" height="0.3" fill="black" transform="rotate(180,1.092,-8.395)" />
    <rect id="sc-35" x="7.14" y="-8.545" width="0.3" height="0.3" fill="black" transform="rotate(180,7.29,-8.395)" />
    <rect id="sc-38" x="7.14" y="-4.024" width="0.3" height="0.3" fill="black" transform="rotate(90,7.29,-3.874)" />
    <rect id="sc-39" x="-15.161" y="-4.024" width="0.3" height="0.3" fill="black" transform="rotate(90,-15.011,-3.874)" />
    <rect id="sc-40" x="-6.322" y="-4.024" width="0.3" height="0.3" fill="black" transform="rotate(90,-6.172,-3.874)" />
    <rect id="sc-41" x="0.942" y="-4.024" width="0.3" height="0.3" fill="black" transform="rotate(90,1.092,-3.874)" />
  </g>
</svg>