<?xml version="1.0" encoding="utf-8"?>
<svg xmlns="http://www.w3.org/2000/svg" viewBox="-12.485 -7.519 29.292 17.207">
  <g transform="scale(1,-1)">
    <polygon id="cl-63" points="2.718,6.082 1.241,6.082 1.241,5.713 1.241,4.205 2.718,4.205" />
    <polygon id="cl-64" points="0.918,-8.528 -5.998,-8.528 -5.998,-9.124 0.918,-9.124" />
    <polygon id="cl-65" points="16.243,2.823 16.243,6.353 12.722,6.353 12.722,5.663 12.722,2.823" />
    <polygon id="cl-66" points="-8.401,2.823 -8.401,6.353 -11.922,6.353 -11.922,5.663 -11.922,2.823" />
    <polygon id="cl-67" points="10.69,3.997 10.69,6.956 5.42,6.956 5.42,3.997" />
    <polygon id="cl-68" points="12.341,-0.826 12.341,0.956 15.507,0.956 15.507,2.667 0.943,2.667 0.943,5.674 -1.778,5.674 -1.778,2.667 -11.068,2.667 -11.068,1.401 -11.758,-0.113 -8.451,-1.62 -7.885,-0.378 -6.344,-0.378 -6.344,0.845 1.264,0.845 1.264,-0.378 2.223,-0.378 2.894,1.095 6.454,-0.527 6.959,0.583 11.582,-1.524 11.9,-0.826" />
  </g>
</svg>