<?xml version="1.0" encoding="utf-8"?>
<svg xmlns="http://www.w3.org/2000/svg" viewBox="-34.419 -14.092 54.574 24.062">
  <g transform="scale(1,-1)">
    <path id="du-867" d="M -18.847,5.048 L -18.847,2.939" />
    <path id="du-868" d="M -26.096,5.049 L -26.096,2.939" />
    <path id="du-869" d="M -18.847,9.727 L -18.847,6.659" />
    <path id="du-870" d="M -18.847,6 L -18.847,5.706" />
    <path id="du-871" d="M -18.847,6.443 L -18.847,6.216" />
    <path id="du-872" d="M -18.847,5.491 L -18.847,5.263" />
    <path id="du-873" d="M -25.584,9.727 L -25.584,7.477" />
    <path id="du-874" d="M -26.096,6.001 L -26.096,5.708" />
    <path id="du-875" d="M -26.096,6.394 L -26.096,6.217" />
    <path id="du-876" d="M -26.096,5.492 L -26.096,5.265" />
    <path id="du-877" d="M -26.096,6.61 L -26.096,6.713" />
    <path id="du-878" d="M -25.673,7.262 L -26.007,6.928" />
    <path id="du-879" d="M -29.373,1.497 L -31.735,1.497" />
    <path id="du-880" d="M -25.146,1.497 L -22.667,1.497" />
    <path id="du-881" d="M -17.44,1.497 L -18.72,1.497" />
    <path id="du-882" d="M -26.096,2.724 L -26.096,2.496" />
    <path id="du-883" d="M -26.096,2.28 L -26.096,2.107" />
    <path id="du-884" d="M -26.491,1.586 L -26.185,1.892" />
    <path id="du-885" d="M -18.847,2.724 L -18.847,2.496" />
    <path id="du-886" d="M -18.847,2.28 L -18.847,2.107" />
    <path id="du-887" d="M -18.981,1.847 L -18.936,1.892" />
    <path id="du-888" d="M -18.936,1.586 L -18.981,1.631" />
    <path id="du-889" d="M -19.241,1.586 L -19.196,1.631" />
    <path id="du-890" d="M -29.221,1.389 L -29.221,1.191" />
    <path id="du-891" d="M -26.706,1.497 L -29.068,1.497" />
    <path id="du-892" d="M -29.221,0.976 L -29.221,0.089" />
    <path id="du-893" d="M -29.248,-0.038 L -29.558,-0.717" />
    <path id="du-894" d="M -22.515,1.389 L -22.515,1.191" />
    <path id="du-895" d="M -22.515,0.976 L -22.515,0.356" />
    <path id="du-896" d="M -22.543,0.229 L -22.974,-0.717" />
    <path id="du-897" d="M -19.457,1.497 L -22.363,1.497" />
    <path id="du-898" d="M -17.135,1.282 L -17.135,1.191" />
    <path id="du-899" d="M -17.135,0.976 L -17.135,0.356" />
    <path id="du-900" d="M -17.162,0.229 L -17.457,-0.417" />
    <path id="du-901" d="M -27.263,6.001 L -27.263,5.834" />
    <path id="du-902" d="M -27.263,6.394 L -27.263,6.217" />
    <path id="du-903" d="M -27.263,7.957 L -27.263,6.61" />
    <path id="du-904" d="M -15.725,8.326 L -15.725,1.137" />
    <path id="du-905" d="M -19.355,9.727 L -19.355,9.701" />
    <path id="du-906" d="M -16.796,9.397 L -18.822,9.397" />
    <path id="du-907" d="M -16.581,9.307 L -15.815,8.541" />
    <path id="du-908" d="M -19.139,9.397 L -19.038,9.397" />
    <path id="du-909" d="M -26.092,9.727 L -26.092,9.38" />
    <path id="du-910" d="M -27.174,8.172 L -26.181,9.164" />
    <path id="du-911" d="M -27.352,5.619 L -27.497,5.474" />
    <path id="du-912" d="M -27.712,5.385 L -32.489,5.385" />
    <path id="du-913" d="M -32.705,5.295 L -33.28,4.72" />
    <path id="du-914" d="M -33.37,4.504 L -33.37,1.735" />
    <path id="du-915" d="M -26.092,11.157 L -26.092,11.892" />
    <path id="du-916" d="M -25.584,11.157 L -25.584,12.019" />
    <path id="du-917" d="M -19.355,11.157 L -19.355,12.019" />
    <path id="du-918" d="M -18.847,11.157 L -18.847,12.019" />
    <path id="du-919" d="M -17.907,12.171 L -18.472,12.171" />
    <path id="du-920" d="M -18.748,12.171 L -18.588,12.171" />
    <path id="du-921" d="M -21.565,12.171 L -19.687,12.171" />
    <path id="du-922" d="M -19.443,12.171 L -19.563,12.171" />
    <path id="du-923" d="M -24.257,12.171 L -25.216,12.171" />
    <path id="du-924" d="M -25.324,12.171 L -25.476,12.171" />
    <path id="du-925" d="M -28.067,12.044 L -26.46,12.044" />
    <path id="du-926" d="M -26.352,12.044 L -26.2,12.044" />
    <path id="du-927" d="M -10.072,3.232 L -10.072,3.149" />
    <path id="du-928" d="M -10.174,3.048 L -10.631,3.048" />
    <path id="du-929" d="M -9.564,3.232 L -9.564,3.003" />
    <path id="du-930" d="M -9.666,2.902 L -10.796,2.902" />
    <path id="du-931" d="M -10.733,3.149 L -10.733,5.246" />
    <path id="du-932" d="M -10.898,3.003 L -10.898,4.998" />
    <path id="du-933" d="M -10.733,5.378 L -10.733,5.518" />
    <path id="du-934" d="M -10.733,5.65 L -10.733,5.982" />
    <path id="du-935" d="M -10.733,6.114 L -10.733,6.331" />
    <path id="du-936" d="M -10.733,6.463 L -10.733,11.9" />
    <path id="du-937" d="M -11.311,6.476 L -11.311,12.103" />
    <path id="du-938" d="M -11.311,6.344 L -11.311,6.13" />
    <path id="du-939" d="M -11.311,5.998 L -11.311,5.711" />
    <path id="du-940" d="M -10.943,5.105 L -11.195,5.358" />
    <path id="du-941" d="M -11.279,5.442 L -11.295,5.458" />
    <path id="du-942" d="M -11.311,5.492 L -11.311,5.579" />
    <path id="du-943" d="M -11.159,12.256 L -10.967,12.256" />
    <path id="du-944" d="M -10.833,12.256 L -10.669,12.256" />
    <path id="du-945" d="M -10.688,12.008 L -10.485,12.211" />
    <path id="du-946" d="M -10.377,12.256 L -7.336,12.256" />
    <path id="du-947" d="M -7.228,12.256 L -6.893,12.256" />
    <path id="du-948" d="M -6.785,12.408 L -6.785,13.037" />
    <path id="du-949" d="M -10.072,6.54 L -10.072,11.851" />
    <path id="du-950" d="M -10.072,4.759 L -10.072,4.662" />
    <path id="du-951" d="M -10.072,5.424 L -10.072,5.512" />
    <path id="du-952" d="M -10.072,5.776 L -10.072,5.924" />
    <path id="du-953" d="M -10.072,6.276 L -10.072,6.188" />
    <path id="du-954" d="M -10.072,4.911 L -10.072,4.911" />
    <path id="du-955" d="M -10.072,5.16 L -10.072,5.063" />
    <path id="du-956" d="M -9.564,6.643 L -9.564,6.581" />
    <path id="du-957" d="M -9.26,6.948 L -7.278,6.948" />
    <path id="du-958" d="M -6.974,7.253 L -6.974,11.851" />
    <path id="du-959" d="M -9.564,4.662 L -9.564,5.16" />
    <path id="du-960" d="M -9.564,5.776 L -9.564,6.153" />
    <path id="du-961" d="M -9.564,5.424 L -9.564,5.512" />
    <path id="du-962" d="M -9.564,6.428 L -9.564,6.306" />
    <path id="du-963" d="M 8.638,6.92 L 8.638,5.742" />
    <path id="du-964" d="M 8.13,6.358 L 8.13,6.721" />
    <path id="du-965" d="M 8.13,4.312 L 8.13,4.287" />
    <path id="du-966" d="M 8.638,4.312 L 8.638,4.287" />
    <path id="du-967" d="M 7.978,4.134 L 7.063,4.134" />
    <path id="du-968" d="M 6.911,4.287 L 6.911,7.119" />
    <path id="du-969" d="M 8.791,4.134 L 9.146,4.134" />
    <path id="du-970" d="M 9.299,4.287 L 9.299,7.234" />
    <path id="du-971" d="M 2.034,7.767 L 5.756,7.767" />
    <path id="du-972" d="M 6.866,7.227 L 6.378,7.715" />
    <path id="du-973" d="M 9.705,9.857 L 8.283,9.857" />
    <path id="du-974" d="M 8.943,7.767 L 10.595,7.767" />
    <path id="du-975" d="M 8.638,7.462 L 8.638,7.416" />
    <path id="du-976" d="M 8.638,7.2 L 8.638,7.135" />
    <path id="du-977" d="M 9.767,12.41 L 10.024,12.153" />
    <path id="du-978" d="M 10.066,12.016 L 10.066,7.539" />
    <path id="du-979" d="M 9.947,7.387 L 9.418,7.387" />
    <path id="du-980" d="M 11.422,8.593 L 11.422,11.577" />
    <path id="du-981" d="M 11.332,8.378 L 10.81,7.856" />
    <path id="du-982" d="M 8.13,6.936 L 8.13,6.986" />
    <path id="du-983" d="M 8.13,9.705 L 8.13,7.202" />
    <path id="du-984" d="M 1.882,7.919 L 1.882,12.078" />
    <path id="du-985" d="M 6.262,7.767 L 5.827,7.767" />
    <path id="du-986" d="M 1.882,12.186 L 1.882,12.376" />
    <path id="du-987" d="M 4.133,9.401 L 4.133,3.057" />
    <path id="du-988" d="M 4.286,9.857 L 7.978,9.857" />
    <path id="du-989" d="M 2.644,9.857 L 3.981,9.857" />
    <path id="du-990" d="M 4.133,9.554 L 4.133,9.725" />
    <path id="du-991" d="M 8.13,6.231 L 8.13,6.231" />
    <path id="du-992" d="M 8.13,5.742 L 8.13,6.104" />
    <path id="du-993" d="M 8.13,6.079 L 8.13,5.927" />
    <path id="du-994" d="M 14.518,4.683 L 14.518,5.984" />
    <path id="du-995" d="M 14.01,5.681 L 14.01,12.151" />
    <path id="du-996" d="M 14.518,3.253 L 14.518,3.119" />
    <path id="du-997" d="M 14.01,3.253 L 14.01,3.119" />
    <path id="du-998" d="M 18.059,6.289 L 15.03,6.289" />
    <path id="du-999" d="M 18.274,6.378 L 19.019,7.122" />
    <path id="du-1000" d="M 19.105,7.378 L 18.497,11.998" />
    <path id="du-1001" d="M 14.795,6.289 L 14.903,6.289" />
    <path id="du-1002" d="M 14.01,5.554 L 14.01,5.554" />
    <path id="du-1003" d="M 14.01,5.125 L 14.01,5.427" />
    <path id="du-1004" d="M 14.01,5.325 L 14.01,4.995" />
    <path id="du-1005" d="M 14.449,4.998 L 16.044,4.998" />
    <path id="du-1006" d="M 16.272,4.77 L 16.272,3.525" />
    <path id="du-1007" d="M 13.857,2.966 L 13.146,2.966" />
    <path id="du-1008" d="M 12.994,6.229 L 12.994,6.016" />
    <path id="du-1009" d="M 12.994,3.074 L 12.994,3.2" />
    <path id="du-1010" d="M 12.994,5.872 L 12.994,3.307" />
    <path id="du-1011" d="M 12.994,6.372 L 12.994,11.961" />
    <path id="du-1012" d="M 13.062,12.102 L 13.467,12.336" />
    <path id="du-1013" d="M 13.535,12.476 L 13.535,13.037" />
    <path id="du-1014" d="M 14.67,2.966 L 17.193,2.966" />
    <path id="du-1015" d="M 17.345,6.776 L 17.345,12.027" />
    <path id="du-1016" d="M 17.345,3.119 L 17.345,6.307" />
    <path id="du-1017" d="M 17.345,12.159 L 17.345,12.364" />
    <path id="du-1018" d="M 17.345,6.439 L 17.345,6.645" />
    <path id="du-1019" d="M -3.353,8.479 L -3.353,11.711" />
    <path id="du-1020" d="M -2.845,8.053 L -2.845,8.815" />
    <path id="du-1021" d="M -2.54,9.12 L 0.356,9.12" />
    <path id="du-1022" d="M -3.353,6.623 L -3.353,6.318" />
    <path id="du-1023" d="M -3.505,6.166 L -4.093,6.166" />
    <path id="du-1024" d="M -4.245,6.318 L -4.245,13.037" />
    <path id="du-1025" d="M -2.845,6.623 L -2.845,6.318" />
    <path id="du-1026" d="M -2.692,6.166 L -2.388,6.166" />
    <path id="du-1027" d="M -2.235,8.278 L -2.235,6.318" />
    <path id="du-1028" d="M -2.235,8.41 L -2.235,8.439" />
    <path id="du-1029" d="M -0.435,12.37 L -0.435,12.255" />
    <path id="du-1030" d="M -0.435,12.123 L -0.435,10.013" />
    <path id="du-1031" d="M -2.235,8.571 L -2.235,8.636" />
    <path id="du-1032" d="M -2.083,8.788 L -0.927,8.788" />
    <path id="du-1033" d="M -0.819,8.833 L -0.48,9.172" />
    <path id="du-1034" d="M -0.435,9.28 L -0.435,9.517" />
    <path id="du-1035" d="M -0.435,9.649 L -0.435,9.881" />
    <path id="du-1036" d="M -3.505,8.327 L -3.532,8.327" />
    <path id="du-1037" d="M -3.353,8.053 L -3.353,8.175" />
    <path id="du-1038" d="M -4.086,8.327 L -5.157,8.327" />
    <path id="du-1039" d="M -5.372,8.238 L -5.815,7.795" />
    <path id="du-1040" d="M -5.904,7.58 L -5.904,6.588" />
    <path id="du-1041" d="M -3.822,8.327 L -3.796,8.327" />
    <path id="du-1042" d="M -5.904,6.283 L -5.904,6.283" />
    <path id="du-1043" d="M 14.318,4.998 L 14.134,4.998" />
    <path id="du-1044" d="M 14.01,4.683 L 14.01,4.871" />
    <path id="du-1045" d="M -28.219,13.043 L -28.219,12.197" />
    <path id="du-1046" d="M -10.595,13.043 L -10.595,12.408" />
    <path id="du-1047" d="M -0.435,13.043 L -0.435,12.502" />
    <path id="du-1048" d="M 9.725,13.043 L 9.725,12.547" />
    <path id="du-1049" d="M 17.345,13.043 L 17.345,12.496" />
    <path id="du-1214" d="M 15.765,3.814 L 15.765,7.997" />
    <path id="du-1215" d="M 15.765,3.662 L 15.765,3.662" />
    <path id="du-1216" d="M 15.918,8.15 L 15.923,8.15" />
    <path id="du-1217" d="M 16.075,8.302 L 16.075,13.037" />
    <path id="du-1218" d="M 6.571,4.602 L 6.571,7.193" />
    <path id="du-1219" d="M 6.571,4.45 L 6.571,4.45" />
    <path id="du-1220" d="M 5.915,7.498 L 5.915,13.037" />
    <path id="du-1221" d="M 6.418,7.345 L 6.067,7.345" />
    <path id="du-1222" d="M -8.879,3.542 L -8.879,6.49" />
    <path id="du-1223" d="M -8.879,3.389 L -8.879,3.389" />
    <path id="du-1224" d="M -9.031,6.643 L -10.443,6.643" />
    <path id="du-1225" d="M -10.595,6.795 L -10.595,13.037" />
    <path id="du-1226" d="M -15.37,11.468 L -15.37,12.018" />
    <path id="du-1227" d="M -15.37,11.316 L -15.37,11.316" />
    <path id="du-1228" d="M -16.332,12.433 L -15.786,12.433" />
    <path id="du-1229" d="M -16.485,13.037 L -16.485,12.586" />
    <path id="du-1230" d="M -15.415,12.126 L -15.678,12.389" />
    <path id="du-1231" d="M -5.883,-7.873 L -5.634,-8.305" />
    <path id="du-1232" d="M -5.613,-8.381 L -5.613,-8.623" />
    <path id="du-1233" d="M -5.613,-8.92 L -5.613,-8.755" />
  </g>
</svg>