<?xml version="1.0" encoding="utf-8"?>
<svg xmlns="http://www.w3.org/2000/svg" viewBox="-26.830 -11.434 43.780 8.479">
  <g transform="scale(1,-1)">
    <rect id="eq-32" x="-25.988" y="10.292" width="0.3" height="0.3" transform="rotate(360,-25.838,10.442)" />
    <rect id="eq-33" x="-19.251" y="10.292" width="0.3" height="0.3" transform="rotate(360,-19.101,10.442)" />
    <rect id="eq-34" x="-9.968" y="3.797" width="0.3" height="0.3" transform="rotate(180,-9.818,3.947)" />
    <rect id="eq-35" x="8.234" y="4.877" width="0.3" height="0.3" transform="rotate(180,8.384,5.027)" />
    <rect id="eq-36" x="14.114" y="3.818" width="0.3" height="0.3" transform="rotate(180,14.264,3.968)" />
    <rect id="eq-37" x="-3.249" y="7.188" width="0.3" height="0.3" transform="rotate(180,-3.099,7.338)" />
    <rect id="eq-75" x="8.562" y="3.924" width="0.3" height="0.3" transform="rotate(180,8.712,4.074)" />
    <rect id="eq-76" x="15.808" y="4.022" width="0.3" height="0.3" transform="rotate(90,15.958,4.172)" />
    <rect id="eq-77" x="-8.805" y="4.019" width="0.3" height="0.3" transform="rotate(180,-8.655,4.169)" />
    <rect id="eq-78" x="-13.955" y="4.486" width="0.3" height="0.3" transform="rotate(120,-13.805,4.636)" />
    <rect id="eq-79" x="-15.393" y="4.486" width="0.3" height="0.3" transform="rotate(240,-15.243,4.636)" />
  </g>
</svg>