<?xml version="1.0" encoding="utf-8"?>
<svg xmlns="http://www.w3.org/2000/svg" viewBox="-34.463 -13.546 55.535 23.603">
  <g transform="scale(1,-1)">
    <rect id="mn-823" x="-18.872" y="5.555" width="0.05" height="0.05" transform="rotate(240,-18.847,5.58)" />
    <rect id="mn-824" x="-18.872" y="6.508" width="0.05" height="0.05" transform="rotate(240,-18.847,6.533)" />
    <rect id="mn-825" x="-18.872" y="6.101" width="0.05" height="0.05" transform="rotate(120,-18.847,6.126)" />
    <rect id="mn-826" x="-26.121" y="5.557" width="0.05" height="0.05" transform="rotate(240,-26.096,5.582)" />
    <rect id="mn-827" x="-26.121" y="6.103" width="0.05" height="0.05" transform="rotate(120,-26.096,6.128)" />
    <rect id="mn-828" x="-26.121" y="5.15" width="0.05" height="0.05" transform="rotate(211.4,-26.096,5.175)" />
    <rect id="mn-829" x="-26.121" y="6.458" width="0.05" height="0.05" transform="rotate(98.421,-26.096,6.483)" />
    <rect id="mn-830" x="-25.609" y="7.326" width="0.05" height="0.05" transform="rotate(45,-25.584,7.351)" />
    <rect id="mn-831" x="-26.121" y="6.814" width="0.05" height="0.05" transform="rotate(225,-26.096,6.839)" />
    <rect id="mn-832" x="-26.121" y="2.788" width="0.05" height="0.05" transform="rotate(240,-26.096,2.813)" />
    <rect id="mn-833" x="-26.121" y="2.382" width="0.05" height="0.05" transform="rotate(211.4,-26.096,2.407)" />
    <rect id="mn-834" x="-26.605" y="1.472" width="0.05" height="0.05" />
    <rect id="mn-835" x="-26.121" y="1.956" width="0.05" height="0.05" transform="rotate(45,-26.096,1.981)" />
    <rect id="mn-836" x="-18.872" y="2.382" width="0.05" height="0.05" transform="rotate(211.4,-18.847,2.407)" />
    <rect id="mn-837" x="-18.872" y="1.956" width="0.05" height="0.05" transform="rotate(45,-18.847,1.981)" />
    <rect id="mn-838" x="-18.872" y="5.149" width="0.05" height="0.05" transform="rotate(211.4,-18.847,5.174)" />
    <rect id="mn-839" x="-18.872" y="2.788" width="0.05" height="0.05" transform="rotate(98.421,-18.847,2.813)" />
    <rect id="mn-840" x="-19.114" y="1.714" width="0.05" height="0.05" transform="rotate(45,-19.089,1.739)" />
    <rect id="mn-841" x="-25.171" y="1.472" width="0.05" height="0.05" transform="rotate(180,-25.146,1.497)" />
    <rect id="mn-842" x="-31.76" y="1.472" width="0.05" height="0.05" transform="rotate(180,-31.735,1.497)" />
    <rect id="mn-843" x="-29.246" y="1.472" width="0.05" height="0.05" transform="rotate(315,-29.221,1.497)" />
    <rect id="mn-844" x="-29.246" y="1.077" width="0.05" height="0.05" transform="rotate(211.4,-29.221,1.102)" />
    <rect id="mn-845" x="-29.246" y="-0.002" width="0.05" height="0.05" transform="rotate(65.5,-29.221,0.023)" />
    <rect id="mn-846" x="-29.583" y="-0.742" width="0.05" height="0.05" transform="rotate(245.5,-29.558,-0.717)" />
    <rect id="mn-847" x="-22.54" y="1.472" width="0.05" height="0.05" transform="rotate(315,-22.515,1.497)" />
    <rect id="mn-848" x="-22.54" y="1.077" width="0.05" height="0.05" transform="rotate(211.4,-22.515,1.102)" />
    <rect id="mn-849" x="-22.54" y="0.264" width="0.05" height="0.05" transform="rotate(65.5,-22.515,0.289)" />
    <rect id="mn-850" x="-22.999" y="-0.742" width="0.05" height="0.05" transform="rotate(245.5,-22.974,-0.717)" />
    <rect id="mn-851" x="-19.356" y="1.472" width="0.05" height="0.05" />
    <rect id="mn-852" x="-17.16" y="1.077" width="0.05" height="0.05" transform="rotate(211.4,-17.135,1.102)" />
    <rect id="mn-853" x="-17.16" y="0.264" width="0.05" height="0.05" transform="rotate(65.5,-17.135,0.289)" />
    <rect id="mn-854" x="-17.482" y="-0.442" width="0.05" height="0.05" transform="rotate(245.5,-17.457,-0.417)" />
    <rect id="mn-855" x="-17.16" y="1.472" width="0.05" height="0.05" transform="rotate(98.421,-17.135,1.497)" />
    <rect id="mn-856" x="-18.872" y="1.472" width="0.05" height="0.05" transform="rotate(315,-18.847,1.497)" />
    <rect id="mn-857" x="-27.288" y="6.103" width="0.05" height="0.05" transform="rotate(120,-27.263,6.128)" />
    <rect id="mn-858" x="-16.695" y="9.372" width="0.05" height="0.05" transform="rotate(135,-16.67,9.397)" />
    <rect id="mn-859" x="-15.75" y="8.427" width="0.05" height="0.05" transform="rotate(90,-15.725,8.452)" />
    <rect id="mn-860" x="-19.38" y="9.372" width="0.05" height="0.05" transform="rotate(261.579,-19.355,9.397)" />
    <rect id="mn-861" x="-18.973" y="9.372" width="0.05" height="0.05" transform="rotate(180,-18.948,9.397)" />
    <rect id="mn-862" x="-15.75" y="1.112" width="0.05" height="0.05" transform="rotate(270,-15.725,1.137)" />
    <rect id="mn-863" x="-26.117" y="9.229" width="0.05" height="0.05" transform="rotate(45,-26.092,9.254)" />
    <rect id="mn-864" x="-27.288" y="8.058" width="0.05" height="0.05" transform="rotate(225,-27.263,8.083)" />
    <rect id="mn-865" x="-27.288" y="6.458" width="0.05" height="0.05" transform="rotate(98.421,-27.263,6.483)" />
    <rect id="mn-866" x="-27.288" y="5.683" width="0.05" height="0.05" transform="rotate(45,-27.263,5.708)" />
    <rect id="mn-867" x="-27.611" y="5.36" width="0.05" height="0.05" />
    <rect id="mn-868" x="-32.64" y="5.36" width="0.05" height="0.05" transform="rotate(180,-32.615,5.385)" />
    <rect id="mn-869" x="-33.395" y="4.605" width="0.05" height="0.05" transform="rotate(225,-33.37,4.63)" />
    <rect id="mn-870" x="-33.395" y="1.71" width="0.05" height="0.05" transform="rotate(270,-33.37,1.735)" />
    <rect id="mn-871" x="-18.872" y="12.146" width="0.05" height="0.05" transform="rotate(145.622,-18.847,12.171)" />
    <rect id="mn-872" x="-18.567" y="12.146" width="0.05" height="0.05" transform="rotate(180,-18.542,12.171)" />
    <rect id="mn-873" x="-19.38" y="12.146" width="0.05" height="0.05" transform="rotate(102.081,-19.355,12.171)" />
    <rect id="mn-874" x="-19.634" y="12.146" width="0.05" height="0.05" transform="rotate(90,-19.609,12.171)" />
    <rect id="mn-875" x="-25.304" y="12.146" width="0.05" height="0.05" transform="rotate(180,-25.279,12.171)" />
    <rect id="mn-876" x="-25.609" y="12.146" width="0.05" height="0.05" transform="rotate(148.6,-25.584,12.171)" />
    <rect id="mn-877" x="-26.422" y="12.019" width="0.05" height="0.05" transform="rotate(90,-26.397,12.044)" />
    <rect id="mn-878" x="-26.117" y="12.019" width="0.05" height="0.05" transform="rotate(98.421,-26.092,12.044)" />
    <rect id="mn-879" x="-10.097" y="3.023" width="0.05" height="0.05" />
    <rect id="mn-880" x="-9.589" y="2.877" width="0.05" height="0.05" />
    <rect id="mn-881" x="-10.758" y="3.023" width="0.05" height="0.05" transform="rotate(270,-10.733,3.048)" />
    <rect id="mn-882" x="-10.923" y="2.877" width="0.05" height="0.05" transform="rotate(270,-10.898,2.902)" />
    <rect id="mn-883" x="-10.758" y="5.309" width="0.05" height="0.05" transform="rotate(120,-10.733,5.334)" />
    <rect id="mn-884" x="-10.758" y="5.537" width="0.05" height="0.05" transform="rotate(93.841,-10.733,5.562)" />
    <rect id="mn-885" x="-10.758" y="6.045" width="0.05" height="0.05" transform="rotate(120,-10.733,6.07)" />
    <rect id="mn-886" x="-10.758" y="6.35" width="0.05" height="0.05" transform="rotate(93.841,-10.733,6.375)" />
    <rect id="mn-887" x="-10.923" y="5.036" width="0.05" height="0.05" transform="rotate(90,-10.898,5.061)" />
    <rect id="mn-888" x="-11.336" y="6.363" width="0.05" height="0.05" transform="rotate(240,-11.311,6.388)" />
    <rect id="mn-889" x="-11.336" y="6.061" width="0.05" height="0.05" transform="rotate(201.091,-11.311,6.086)" />
    <rect id="mn-890" x="-11.336" y="5.598" width="0.05" height="0.05" transform="rotate(240,-11.311,5.623)" />
    <rect id="mn-891" x="-11.272" y="5.384" width="0.05" height="0.05" transform="rotate(148.6,-11.247,5.409)" />
    <rect id="mn-892" x="-11.336" y="5.449" width="0.05" height="0.05" transform="rotate(210.48,-11.311,5.474)" />
    <rect id="mn-893" x="-11.336" y="12.231" width="0.05" height="0.05" transform="rotate(180,-11.311,12.256)" />
    <rect id="mn-894" x="-10.902" y="12.231" width="0.05" height="0.05" transform="rotate(90,-10.877,12.256)" />
    <rect id="mn-895" x="-10.758" y="11.938" width="0.05" height="0.05" transform="rotate(225,-10.733,11.963)" />
    <rect id="mn-896" x="-10.465" y="12.231" width="0.05" height="0.05" transform="rotate(180,-10.44,12.256)" />
    <rect id="mn-897" x="-7.298" y="12.231" width="0.05" height="0.05" transform="rotate(90,-7.273,12.256)" />
    <rect id="mn-898" x="-6.81" y="12.231" width="0.05" height="0.05" transform="rotate(211.4,-6.785,12.256)" />
    <rect id="mn-899" x="-10.097" y="6.339" width="0.05" height="0.05" transform="rotate(240,-10.072,6.364)" />
    <rect id="mn-900" x="-10.097" y="6.075" width="0.05" height="0.05" transform="rotate(120,-10.072,6.1)" />
    <rect id="mn-901" x="-10.097" y="5.311" width="0.05" height="0.05" transform="rotate(120,-10.072,5.336)" />
    <rect id="mn-902" x="-10.097" y="5.575" width="0.05" height="0.05" transform="rotate(240,-10.072,5.6)" />
    <rect id="mn-903" x="-10.097" y="4.886" width="0.05" height="0.05" transform="rotate(120,-10.072,4.911)" />
    <rect id="mn-904" x="-10.097" y="4.886" width="0.05" height="0.05" transform="rotate(120,-10.072,4.911)" />
    <rect id="mn-905" x="-10.261" y="4.169" width="0.05" height="0.05" transform="rotate(90,-10.236,4.194)" />
    <rect id="mn-906" x="-10.097" y="11.826" width="0.05" height="0.05" transform="rotate(90,-10.072,11.851)" />
    <rect id="mn-907" x="-6.999" y="6.923" width="0.05" height="0.05" />
    <rect id="mn-908" x="-6.999" y="11.826" width="0.05" height="0.05" transform="rotate(90,-6.974,11.851)" />
    <rect id="mn-909" x="-9.589" y="6.923" width="0.05" height="0.05" transform="rotate(180,-9.564,6.948)" />
    <rect id="mn-910" x="-9.589" y="5.311" width="0.05" height="0.05" transform="rotate(120,-9.564,5.336)" />
    <rect id="mn-911" x="-9.589" y="5.575" width="0.05" height="0.05" transform="rotate(240,-9.564,5.6)" />
    <rect id="mn-912" x="-9.589" y="6.474" width="0.05" height="0.05" transform="rotate(240,-9.564,6.499)" />
    <rect id="mn-913" x="-9.589" y="6.21" width="0.05" height="0.05" transform="rotate(120,-9.564,6.235)" />
    <rect id="mn-914" x="8.105" y="4.109" width="0.05" height="0.05" />
    <rect id="mn-915" x="6.886" y="4.109" width="0.05" height="0.05" transform="rotate(270,6.911,4.134)" />
    <rect id="mn-916" x="8.613" y="4.109" width="0.05" height="0.05" transform="rotate(270,8.638,4.134)" />
    <rect id="mn-917" x="9.274" y="4.109" width="0.05" height="0.05" />
    <rect id="mn-918" x="6.886" y="7.157" width="0.05" height="0.05" transform="rotate(90,6.911,7.182)" />
    <rect id="mn-919" x="1.857" y="7.742" width="0.05" height="0.05" transform="rotate(270,1.882,7.767)" />
    <rect id="mn-920" x="8.105" y="9.832" width="0.05" height="0.05" />
    <rect id="mn-921" x="2.619" y="9.832" width="0.05" height="0.05" transform="rotate(180,2.644,9.857)" />
    <rect id="mn-922" x="9.68" y="9.832" width="0.05" height="0.05" />
    <rect id="mn-923" x="8.613" y="7.742" width="0.05" height="0.05" transform="rotate(180,8.638,7.767)" />
    <rect id="mn-924" x="8.613" y="7.265" width="0.05" height="0.05" transform="rotate(240,8.638,7.29)" />
    <rect id="mn-925" x="8.613" y="7.021" width="0.05" height="0.05" transform="rotate(211.4,8.638,7.046)" />
    <rect id="mn-926" x="10.041" y="12.086" width="0.05" height="0.05" transform="rotate(193.079,10.066,12.111)" />
    <rect id="mn-927" x="10.041" y="7.362" width="0.05" height="0.05" transform="rotate(38.462,10.066,7.387)" />
    <rect id="mn-928" x="9.274" y="7.362" width="0.05" height="0.05" transform="rotate(180,9.299,7.387)" />
    <rect id="mn-929" x="11.397" y="8.442" width="0.05" height="0.05" transform="rotate(45,11.422,8.467)" />
    <rect id="mn-930" x="10.696" y="7.742" width="0.05" height="0.05" />
    <rect id="mn-931" x="11.397" y="11.552" width="0.05" height="0.05" transform="rotate(90,11.422,11.577)" />
    <rect id="mn-932" x="8.105" y="6.822" width="0.05" height="0.05" transform="rotate(120,8.13,6.847)" />
    <rect id="mn-933" x="8.105" y="7.051" width="0.05" height="0.05" transform="rotate(98.421,8.13,7.076)" />
    <rect id="mn-934" x="6.302" y="7.742" width="0.05" height="0.05" transform="rotate(137.381,6.327,7.767)" />
    <rect id="mn-935" x="5.768" y="7.742" width="0.05" height="0.05" transform="rotate(90,5.793,7.767)" />
    <rect id="mn-936" x="1.857" y="12.116" width="0.05" height="0.05" transform="rotate(120,1.882,12.141)" />
    <rect id="mn-937" x="4.108" y="3.032" width="0.05" height="0.05" transform="rotate(270,4.133,3.057)" />
    <rect id="mn-938" x="4.108" y="9.832" width="0.05" height="0.05" transform="rotate(330,4.133,9.857)" />
    <rect id="mn-939" x="4.108" y="9.458" width="0.05" height="0.05" transform="rotate(120,4.133,9.483)" />
    <rect id="mn-940" x="8.105" y="6.206" width="0.05" height="0.05" transform="rotate(120,8.13,6.231)" />
    <rect id="mn-941" x="8.105" y="6.206" width="0.05" height="0.05" transform="rotate(180,8.13,6.231)" />
    <rect id="mn-942" x="7.925" y="5.299" width="0.05" height="0.05" transform="rotate(120,7.95,5.324)" />
    <rect id="mn-943" x="19.1" y="7.204" width="0.05" height="0.05" transform="rotate(45,19.125,7.229)" />
    <rect id="mn-944" x="14.493" y="6.264" width="0.05" height="0.05" transform="rotate(180,14.518,6.289)" />
    <rect id="mn-945" x="18.16" y="6.264" width="0.05" height="0.05" />
    <rect id="mn-946" x="14.938" y="6.264" width="0.05" height="0.05" transform="rotate(267.419,14.963,6.289)" />
    <rect id="mn-947" x="18.472" y="11.973" width="0.05" height="0.05" transform="rotate(97.5,18.497,11.998)" />
    <rect id="mn-948" x="13.985" y="12.126" width="0.05" height="0.05" transform="rotate(90,14.01,12.151)" />
    <rect id="mn-949" x="13.985" y="5.529" width="0.05" height="0.05" transform="rotate(120,14.01,5.554)" />
    <rect id="mn-950" x="13.985" y="5.529" width="0.05" height="0.05" transform="rotate(180,14.01,5.554)" />
    <rect id="mn-951" x="14.374" y="4.169" width="0.05" height="0.05" transform="rotate(120,14.399,4.194)" />
    <rect id="mn-952" x="16.247" y="4.973" width="0.05" height="0.05" transform="rotate(90,16.272,4.998)" />
    <rect id="mn-953" x="16.247" y="3.5" width="0.05" height="0.05" transform="rotate(270,16.272,3.525)" />
    <rect id="mn-954" x="13.985" y="2.941" width="0.05" height="0.05" />
    <rect id="mn-955" x="12.969" y="6.24" width="0.05" height="0.05" transform="rotate(240,12.994,6.265)" />
    <rect id="mn-956" x="12.969" y="5.954" width="0.05" height="0.05" transform="rotate(194.106,12.994,5.979)" />
    <rect id="mn-957" x="12.969" y="2.941" width="0.05" height="0.05" transform="rotate(180,12.994,2.966)" />
    <rect id="mn-958" x="12.969" y="3.219" width="0.05" height="0.05" transform="rotate(98.421,12.994,3.244)" />
    <rect id="mn-959" x="12.969" y="12.038" width="0.05" height="0.05" transform="rotate(201.213,12.994,12.063)" />
    <rect id="mn-960" x="13.51" y="12.35" width="0.05" height="0.05" transform="rotate(48.584,13.535,12.375)" />
    <rect id="mn-961" x="14.493" y="2.941" width="0.05" height="0.05" transform="rotate(270,14.518,2.966)" />
    <rect id="mn-962" x="17.32" y="2.941" width="0.05" height="0.05" />
    <rect id="mn-963" x="17.32" y="6.37" width="0.05" height="0.05" transform="rotate(120,17.345,6.395)" />
    <rect id="mn-964" x="17.32" y="6.663" width="0.05" height="0.05" transform="rotate(93.841,17.345,6.688)" />
    <rect id="mn-965" x="17.32" y="12.09" width="0.05" height="0.05" transform="rotate(201.091,17.345,12.115)" />
    <rect id="mn-966" x="-2.87" y="9.095" width="0.05" height="0.05" transform="rotate(180,-2.845,9.12)" />
    <rect id="mn-967" x="0.331" y="9.095" width="0.05" height="0.05" />
    <rect id="mn-968" x="-3.378" y="11.686" width="0.05" height="0.05" transform="rotate(90,-3.353,11.711)" />
    <rect id="mn-969" x="-3.378" y="6.141" width="0.05" height="0.05" />
    <rect id="mn-970" x="-2.87" y="6.141" width="0.05" height="0.05" transform="rotate(270,-2.845,6.166)" />
    <rect id="mn-971" x="-2.26" y="8.341" width="0.05" height="0.05" transform="rotate(201.091,-2.235,8.366)" />
    <rect id="mn-972" x="-2.26" y="6.141" width="0.05" height="0.05" />
    <rect id="mn-973" x="-0.46" y="12.186" width="0.05" height="0.05" transform="rotate(201.091,-0.435,12.211)" />
    <rect id="mn-974" x="-2.26" y="8.458" width="0.05" height="0.05" transform="rotate(93.841,-2.235,8.483)" />
    <rect id="mn-975" x="-2.26" y="8.763" width="0.05" height="0.05" transform="rotate(180,-2.235,8.788)" />
    <rect id="mn-976" x="-0.889" y="8.763" width="0.05" height="0.05" />
    <rect id="mn-977" x="-0.46" y="9.192" width="0.05" height="0.05" transform="rotate(45,-0.435,9.217)" />
    <rect id="mn-978" x="-0.46" y="9.58" width="0.05" height="0.05" transform="rotate(120,-0.435,9.605)" />
    <rect id="mn-979" x="-0.46" y="9.9" width="0.05" height="0.05" transform="rotate(240,-0.435,9.925)" />
    <rect id="mn-980" x="-4.27" y="6.141" width="0.05" height="0.05" transform="rotate(270,-4.245,6.166)" />
    <rect id="mn-981" x="-3.378" y="8.302" width="0.05" height="0.05" transform="rotate(270,-3.353,8.327)" />
    <rect id="mn-982" x="-5.308" y="8.302" width="0.05" height="0.05" transform="rotate(180,-5.283,8.327)" />
    <rect id="mn-983" x="-5.929" y="7.681" width="0.05" height="0.05" transform="rotate(225,-5.904,7.706)" />
    <rect id="mn-984" x="-3.935" y="8.302" width="0.05" height="0.05" transform="rotate(90,-3.91,8.327)" />
    <rect id="mn-985" x="-3.733" y="8.302" width="0.05" height="0.05" transform="rotate(180,-3.708,8.327)" />
    <rect id="mn-986" x="-17.78" y="12.146" width="0.05" height="0.05" />
    <rect id="mn-987" x="-5.929" y="6.258" width="0.05" height="0.05" transform="rotate(240,-5.904,6.283)" />
    <rect id="mn-988" x="1.857" y="12.396" width="0.05" height="0.05" transform="rotate(98.421,1.882,12.421)" />
    <rect id="mn-989" x="-24.13" y="12.146" width="0.05" height="0.05" />
    <rect id="mn-990" x="13.985" y="4.973" width="0.05" height="0.05" transform="rotate(95.188,14.01,4.998)" />
    <rect id="mn-991" x="14.352" y="4.973" width="0.05" height="0.05" transform="rotate(180,14.377,4.998)" />
    <rect id="mn-992" x="-28.244" y="12.019" width="0.05" height="0.05" transform="rotate(270,-28.219,12.044)" />
    <rect id="mn-993" x="-21.742" y="12.146" width="0.05" height="0.05" transform="rotate(270,-21.717,12.171)" />
    <rect id="mn-994" x="-10.62" y="12.231" width="0.05" height="0.05" transform="rotate(299.018,-10.595,12.256)" />
    <rect id="mn-995" x="-0.46" y="12.389" width="0.05" height="0.05" transform="rotate(93.841,-0.435,12.414)" />
    <rect id="mn-996" x="9.7" y="12.427" width="0.05" height="0.05" transform="rotate(120.942,9.725,12.452)" />
    <rect id="mn-997" x="17.32" y="12.383" width="0.05" height="0.05" transform="rotate(93.841,17.345,12.408)" />
    <rect id="mn-3438" x="15.74" y="3.637" width="0.05" height="0.05" transform="rotate(90,15.765,3.662)" />
    <rect id="mn-3439" x="15.74" y="8.125" width="0.05" height="0.05" transform="rotate(180,15.765,8.15)" />
    <rect id="mn-3440" x="6.546" y="4.425" width="0.05" height="0.05" transform="rotate(90,6.571,4.45)" />
    <rect id="mn-3441" x="6.546" y="7.32" width="0.05" height="0.05" transform="rotate(90,6.571,7.345)" />
    <rect id="mn-3442" x="5.89" y="7.32" width="0.05" height="0.05" transform="rotate(270,5.915,7.345)" />
    <rect id="mn-3443" x="16.05" y="8.125" width="0.05" height="0.05" />
    <rect id="mn-3444" x="-8.904" y="3.364" width="0.05" height="0.05" transform="rotate(90,-8.879,3.389)" />
    <rect id="mn-3445" x="-8.904" y="6.618" width="0.05" height="0.05" transform="rotate(90,-8.879,6.643)" />
    <rect id="mn-3446" x="-10.62" y="6.618" width="0.05" height="0.05" transform="rotate(270,-10.595,6.643)" />
    <rect id="mn-3447" x="-15.395" y="11.291" width="0.05" height="0.05" transform="rotate(90,-15.37,11.316)" />
    <rect id="mn-3448" x="-16.51" y="12.408" width="0.05" height="0.05" transform="rotate(270,-16.485,12.433)" />
    <rect id="mn-3449" x="-15.395" y="12.056" width="0.05" height="0.05" transform="rotate(90,-15.37,12.081)" />
    <rect id="mn-3450" x="-15.748" y="12.408" width="0.05" height="0.05" transform="rotate(135,-15.723,12.433)" />
    <rect id="mn-3451" x="-5.638" y="-8.365" width="0.05" height="0.05" transform="rotate(90,-5.613,-8.34)" />
    <rect id="mn-3452" x="-5.638" y="-8.736" width="0.05" height="0.05" transform="rotate(240,-5.613,-8.711)" />
    <rect id="mn-3453" x="-5.638" y="-8.989" width="0.05" height="0.05" transform="rotate(201.091,-5.613,-8.964)" />
    <rect id="mn-3454" x="-1.881" y="5.192" width="0.05" height="0.05" transform="rotate(120,-1.856,5.217)" />
    <rect id="mn-3455" x="-1.881" y="5.192" width="0.05" height="0.05" transform="rotate(240,-1.856,5.217)" />
    <rect id="mn-3456" x="-4.286" y="5.192" width="0.05" height="0.05" transform="rotate(270,-4.261,5.217)" />
    <rect id="mn-3457" x="-4.286" y="6.509" width="0.05" height="0.05" transform="rotate(270,-4.261,6.534)" />
    <rect id="mn-3458" x="-15.344" y="11.443" width="0.05" height="0.05" transform="rotate(240,-15.319,11.468)" />
    <rect id="mn-3459" x="-15.294" y="11.041" width="0.05" height="0.05" transform="rotate(240,-15.269,11.066)" />
    <rect id="mn-3460" x="-15.294" y="11.443" width="0.05" height="0.05" transform="rotate(90,-15.269,11.468)" />
    <rect id="mn-3461" x="-15.294" y="11.041" width="0.05" height="0.05" transform="rotate(270,-15.269,11.066)" />
    <rect id="mn-3462" x="-15.294" y="11.372" width="0.05" height="0.05" transform="rotate(90,-15.269,11.397)" />
    <rect id="mn-3463" x="-30.354" y="11.372" width="0.05" height="0.05" transform="rotate(180,-30.329,11.397)" />
    <rect id="mn-3464" x="-30.354" y="10.837" width="0.05" height="0.05" transform="rotate(270,-30.329,10.862)" />
    <rect id="mn-3465" x="-30.354" y="11.372" width="0.05" height="0.05" transform="rotate(180,-30.329,11.397)" />
    <rect id="mn-3466" x="-29.73" y="12.218" width="0.05" height="0.05" transform="rotate(109.207,-29.705,12.243)" />
    <rect id="mn-3467" x="10.021" y="5.265" width="0.05" height="0.05" transform="rotate(240,10.046,5.29)" />
    <rect id="mn-3468" x="12.773" y="5.265" width="0.05" height="0.05" transform="rotate(240,12.798,5.29)" />
    <rect id="mn-3469" x="12.953" y="5.265" width="0.05" height="0.05" transform="rotate(98.421,12.978,5.29)" />
    <rect id="mn-3470" x="12.773" y="5.265" width="0.05" height="0.05" transform="rotate(240,12.798,5.29)" />
    <rect id="mn-3471" x="13.189" y="4.152" width="0.05" height="0.05" transform="rotate(240,13.214,4.177)" />
    <rect id="mn-3472" x="13.189" y="5.614" width="0.05" height="0.05" transform="rotate(270,13.214,5.639)" />
    <rect id="mn-3473" x="12.773" y="5.265" width="0.05" height="0.05" transform="rotate(248.248,12.798,5.29)" />
    <rect id="mn-3474" x="13.189" y="5.377" width="0.05" height="0.05" transform="rotate(49.328,13.214,5.402)" />
    <rect id="mn-3475" x="13.189" y="5.614" width="0.05" height="0.05" transform="rotate(180,13.214,5.639)" />
    <rect id="mn-3476" x="12.953" y="5.265" width="0.05" height="0.05" transform="rotate(270,12.978,5.29)" />
    <rect id="mn-3477" x="15.483" y="3.706" width="0.05" height="0.05" transform="rotate(270,15.508,3.731)" />
    <rect id="mn-3478" x="15.483" y="5.614" width="0.05" height="0.05" transform="rotate(90,15.508,5.639)" />
    <rect id="mn-3479" x="15.345" y="5.614" width="0.05" height="0.05" transform="rotate(180,15.37,5.639)" />
    <rect id="mn-3480" x="15.066" y="5.614" width="0.05" height="0.05" transform="rotate(165.894,15.091,5.639)" />
    <rect id="mn-3481" x="15.177" y="5.614" width="0.05" height="0.05" transform="rotate(268.272,15.202,5.639)" />
    <rect id="mn-3482" x="13.189" y="5.614" width="0.05" height="0.05" transform="rotate(120,13.214,5.639)" />
    <rect id="mn-3483" x="13.279" y="5.614" width="0.05" height="0.05" transform="rotate(45,13.304,5.639)" />
    <rect id="mn-3484" x="13.855" y="5.614" width="0.05" height="0.05" transform="rotate(180,13.88,5.639)" />
    <rect id="mn-3485" x="15.177" y="5.614" width="0.05" height="0.05" transform="rotate(90,15.202,5.639)" />
    <rect id="mn-3486" x="15.483" y="3.706" width="0.05" height="0.05" transform="rotate(120,15.508,3.731)" />
    <rect id="mn-3487" x="9.437" y="5.265" width="0.05" height="0.05" transform="rotate(180,9.462,5.29)" />
    <rect id="mn-3488" x="7.943" y="6.69" width="0.05" height="0.05" transform="rotate(120,7.968,6.715)" />
    <rect id="mn-3489" x="7.943" y="6.69" width="0.05" height="0.05" transform="rotate(90,7.968,6.715)" />
    <rect id="mn-3490" x="8.781" y="6.69" width="0.05" height="0.05" transform="rotate(90,8.806,6.715)" />
    <rect id="mn-3491" x="8.781" y="6.69" width="0.05" height="0.05" transform="rotate(120,8.806,6.715)" />
    <rect id="mn-3492" x="10.021" y="5.265" width="0.05" height="0.05" transform="rotate(240,10.046,5.29)" />
    <rect id="mn-3493" x="10.021" y="5.265" width="0.05" height="0.05" transform="rotate(90,10.046,5.29)" />
    <rect id="mn-3494" x="10.021" y="5.122" width="0.05" height="0.05" transform="rotate(270,10.046,5.147)" />
    <rect id="mn-3495" x="10.021" y="6.69" width="0.05" height="0.05" transform="rotate(90,10.046,6.715)" />
    <rect id="mn-3496" x="6.914" y="6.69" width="0.05" height="0.05" transform="rotate(90,6.939,6.715)" />
    <rect id="mn-3497" x="7.178" y="6.69" width="0.05" height="0.05" transform="rotate(266.159,7.203,6.715)" />
    <rect id="mn-3498" x="-11.49" y="4.152" width="0.05" height="0.05" transform="rotate(238.288,-11.465,4.177)" />
    <rect id="mn-3499" x="-11.439" y="5.141" width="0.05" height="0.05" transform="rotate(269.962,-11.414,5.166)" />
    <rect id="mn-3500" x="-12.026" y="2.72" width="0.05" height="0.05" transform="rotate(240,-12.001,2.745)" />
    <rect id="mn-3501" x="-12.026" y="2.72" width="0.05" height="0.05" transform="rotate(240,-12.001,2.745)" />
    <rect id="mn-3502" x="-9.136" y="3.706" width="0.05" height="0.05" transform="rotate(240,-9.111,3.731)" />
    <rect id="mn-3503" x="-9.136" y="2.72" width="0.05" height="0.05" />
    <rect id="mn-3504" x="-9.136" y="5.612" width="0.05" height="0.05" transform="rotate(90,-9.111,5.637)" />
    <rect id="mn-3505" x="-9.467" y="5.612" width="0.05" height="0.05" transform="rotate(180,-9.442,5.637)" />
    <rect id="mn-3506" x="-11.541" y="5.614" width="0.05" height="0.05" transform="rotate(120,-11.516,5.639)" />
    <rect id="mn-3507" x="-11.398" y="5.614" width="0.05" height="0.05" />
    <rect id="mn-3508" x="-11.541" y="5.614" width="0.05" height="0.05" transform="rotate(90.639,-11.516,5.639)" />
    <rect id="mn-3509" x="-11.541" y="5.614" width="0.05" height="0.05" transform="rotate(120,-11.516,5.639)" />
    <rect id="mn-3510" x="-11.846" y="5.614" width="0.05" height="0.05" transform="rotate(211.4,-11.821,5.639)" />
    <rect id="mn-3511" x="-11.846" y="5.614" width="0.05" height="0.05" transform="rotate(90.639,-11.821,5.639)" />
    <rect id="mn-3512" x="-9.467" y="5.612" width="0.05" height="0.05" transform="rotate(90,-9.442,5.637)" />
    <rect id="mn-3513" x="-9.136" y="3.706" width="0.05" height="0.05" transform="rotate(120,-9.111,3.731)" />
    <rect id="mn-3514" x="10.021" y="5.265" width="0.05" height="0.05" transform="rotate(240,10.046,5.29)" />
    <rect id="mn-3515" x="0.929" y="3.999" width="0.05" height="0.05" transform="rotate(180,0.954,4.024)" />
    <rect id="mn-3516" x="0.802" y="3.999" width="0.05" height="0.05" transform="rotate(148.6,0.827,4.024)" />
    <rect id="mn-3517" x="-5.81" y="3.999" width="0.05" height="0.05" transform="rotate(270,-5.785,4.024)" />
    <rect id="mn-3518" x="-5.81" y="5.503" width="0.05" height="0.05" transform="rotate(120,-5.785,5.528)" />
    <rect id="mn-3519" x="-5.81" y="5.63" width="0.05" height="0.05" transform="rotate(98.421,-5.785,5.655)" />
    <rect id="mn-3520" x="-5.81" y="6.036" width="0.05" height="0.05" transform="rotate(120,-5.785,6.061)" />
    <rect id="mn-3521" x="-5.81" y="6.163" width="0.05" height="0.05" transform="rotate(98.421,-5.785,6.188)" />
    <rect id="mn-3522" x="-15.344" y="11.291" width="0.05" height="0.05" transform="rotate(240,-15.319,11.316)" />
    <rect id="mn-3523" x="-15.294" y="11.291" width="0.05" height="0.05" transform="rotate(90,-15.269,11.316)" />
    <rect id="mn-3524" x="-15.294" y="10.948" width="0.05" height="0.05" transform="rotate(240,-15.269,10.973)" />
    <rect id="mn-3525" x="-30.268" y="11.04" width="0.05" height="0.05" transform="rotate(270,-30.243,11.065)" />
    <rect id="mn-3526" x="-30.268" y="12.015" width="0.05" height="0.05" transform="rotate(180,-30.243,12.04)" />
    <rect id="mn-3527" x="-30.268" y="11.329" width="0.05" height="0.05" transform="rotate(240,-30.243,11.354)" />
    <rect id="mn-3528" x="-30.268" y="11.329" width="0.05" height="0.05" transform="rotate(90,-30.243,11.354)" />
    <rect id="mn-3529" x="15.507" y="2.54" width="0.05" height="0.05" />
    <rect id="mn-3530" x="-9.137" y="2.54" width="0.05" height="0.05" transform="rotate(270,-9.112,2.565)" />
    <rect id="mn-3531" x="7.423" y="6.055" width="0.05" height="0.05" />
    <rect id="mn-3532" x="6.103" y="6.055" width="0.05" height="0.05" transform="rotate(180,6.128,6.08)" />
    <rect id="mn-3533" x="7.449" y="6.055" width="0.05" height="0.05" />
    <rect id="mn-3534" x="6.043" y="5.995" width="0.05" height="0.05" transform="rotate(225,6.068,6.02)" />
    <rect id="mn-3535" x="6.043" y="5.798" width="0.05" height="0.05" transform="rotate(240,6.068,5.823)" />
    <rect id="mn-3536" x="7.449" y="6.634" width="0.05" height="0.05" transform="rotate(180,7.474,6.659)" />
    <rect id="mn-3537" x="7.55" y="6.634" width="0.05" height="0.05" transform="rotate(90,7.575,6.659)" />
    <rect id="mn-3538" x="7.55" y="6.634" width="0.05" height="0.05" transform="rotate(240,7.575,6.659)" />
    <rect id="mn-3539" x="8.045" y="6.634" width="0.05" height="0.05" transform="rotate(90,8.07,6.659)" />
    <rect id="mn-3540" x="8.883" y="6.634" width="0.05" height="0.05" transform="rotate(90,8.908,6.659)" />
    <rect id="mn-3541" x="7.549" y="6.661" width="0.05" height="0.05" transform="rotate(180,7.574,6.686)" />
    <rect id="mn-3542" x="7.549" y="6.661" width="0.05" height="0.05" transform="rotate(120,7.574,6.686)" />
    <rect id="mn-3543" x="7.423" y="6.661" width="0.05" height="0.05" transform="rotate(180,7.448,6.686)" />
    <rect id="mn-3544" x="7.842" y="6.661" width="0.05" height="0.05" transform="rotate(90,7.867,6.686)" />
    <rect id="mn-3545" x="8.679" y="6.661" width="0.05" height="0.05" transform="rotate(180,8.704,6.686)" />
    <rect id="mn-3546" x="10.072" y="6.634" width="0.05" height="0.05" transform="rotate(90,10.097,6.659)" />
    <rect id="mn-3547" x="10.072" y="6.661" width="0.05" height="0.05" transform="rotate(90,10.097,6.686)" />
    <rect id="mn-3548" x="10.072" y="5.62" width="0.05" height="0.05" transform="rotate(240,10.097,5.645)" />
    <rect id="mn-3549" x="10.072" y="5.62" width="0.05" height="0.05" transform="rotate(180,10.097,5.645)" />
    <rect id="mn-3550" x="10.072" y="4.68" width="0.05" height="0.05" transform="rotate(240,10.097,4.705)" />
    <rect id="mn-3551" x="10.072" y="5.568" width="0.05" height="0.05" transform="rotate(240,10.097,5.593)" />
    <rect id="mn-3552" x="10.072" y="5.568" width="0.05" height="0.05" transform="rotate(180,10.097,5.593)" />
    <rect id="mn-3553" x="10.072" y="4.729" width="0.05" height="0.05" transform="rotate(240,10.097,4.754)" />
    <rect id="mn-3554" x="10.072" y="4.68" width="0.05" height="0.05" transform="rotate(180,10.097,4.705)" />
    <rect id="mn-3555" x="10.072" y="4.729" width="0.05" height="0.05" transform="rotate(180,10.097,4.754)" />
    <rect id="mn-3556" x="10.072" y="4.488" width="0.05" height="0.05" transform="rotate(98.421,10.097,4.513)" />
    <rect id="mn-3557" x="10.072" y="4.488" width="0.05" height="0.05" transform="rotate(240,10.097,4.513)" />
    <rect id="mn-3558" x="10.072" y="4.548" width="0.05" height="0.05" />
    <rect id="mn-3559" x="10.071" y="5.568" width="0.05" height="0.05" transform="rotate(270,10.096,5.593)" />
    <rect id="mn-3560" x="6.719" y="6.055" width="0.05" height="0.05" transform="rotate(90,6.744,6.08)" />
    <rect id="mn-3561" x="6.618" y="6.055" width="0.05" height="0.05" transform="rotate(180,6.643,6.08)" />
    <rect id="mn-3562" x="6.618" y="5.998" width="0.05" height="0.05" transform="rotate(240,6.643,6.023)" />
    <rect id="mn-3563" x="6.043" y="6.055" width="0.05" height="0.05" transform="rotate(180,6.068,6.08)" />
    <rect id="mn-3564" x="6.043" y="5.888" width="0.05" height="0.05" transform="rotate(240,6.068,5.913)" />
    <rect id="mn-3565" x="6.043" y="5.888" width="0.05" height="0.05" transform="rotate(180,6.068,5.913)" />
    <rect id="mn-3566" x="6.043" y="4.601" width="0.05" height="0.05" transform="rotate(270,6.068,4.626)" />
    <rect id="mn-3567" x="6.393" y="4.601" width="0.05" height="0.05" transform="rotate(90,6.418,4.626)" />
    <rect id="mn-3568" x="6.393" y="4.601" width="0.05" height="0.05" transform="rotate(180,6.418,4.626)" />
    <rect id="mn-3569" x="6.546" y="4.628" width="0.05" height="0.05" transform="rotate(180,6.571,4.653)" />
    <rect id="mn-3570" x="6.043" y="4.628" width="0.05" height="0.05" transform="rotate(180,6.068,4.653)" />
    <rect id="mn-3571" x="6.043" y="4.628" width="0.05" height="0.05" transform="rotate(270,6.068,4.653)" />
    <rect id="mn-3572" x="6.546" y="4.526" width="0.05" height="0.05" transform="rotate(270,6.571,4.551)" />
    <rect id="mn-3573" x="6.546" y="4.628" width="0.05" height="0.05" transform="rotate(180,6.571,4.653)" />
    <rect id="mn-3574" x="6.546" y="4.526" width="0.05" height="0.05" transform="rotate(120,6.571,4.551)" />
    <rect id="mn-3575" x="6.546" y="4.526" width="0.05" height="0.05" transform="rotate(180,6.571,4.551)" />
    <rect id="mn-3576" x="6.546" y="4.628" width="0.05" height="0.05" transform="rotate(90,6.571,4.653)" />
    <rect id="mn-3577" x="6.546" y="4.614" width="0.05" height="0.05" transform="rotate(270,6.571,4.639)" />
    <rect id="mn-3578" x="15.69" y="3.637" width="0.05" height="0.05" transform="rotate(120,15.715,3.662)" />
    <rect id="mn-3579" x="15.69" y="3.484" width="0.05" height="0.05" transform="rotate(120,15.715,3.509)" />
    <rect id="mn-3580" x="15.507" y="3.277" width="0.05" height="0.05" transform="rotate(180,15.532,3.302)" />
    <rect id="mn-3581" x="15.507" y="3.304" width="0.05" height="0.05" transform="rotate(90,15.532,3.329)" />
    <rect id="mn-3582" x="15.507" y="3.637" width="0.05" height="0.05" transform="rotate(180,15.532,3.662)" />
    <rect id="mn-3583" x="15.507" y="3.637" width="0.05" height="0.05" transform="rotate(180,15.532,3.662)" />
    <rect id="mn-3584" x="15.659" y="3.277" width="0.05" height="0.05" transform="rotate(120,15.684,3.302)" />
    <rect id="mn-3585" x="15.507" y="3.277" width="0.05" height="0.05" transform="rotate(180,15.532,3.302)" />
    <rect id="mn-3586" x="15.507" y="3.277" width="0.05" height="0.05" transform="rotate(120,15.532,3.302)" />
    <rect id="mn-3587" x="15.507" y="3.277" width="0.05" height="0.05" transform="rotate(240,15.532,3.302)" />
    <rect id="mn-3588" x="15.659" y="3.277" width="0.05" height="0.05" transform="rotate(120,15.684,3.302)" />
    <rect id="mn-3589" x="15.469" y="3.604" width="0.05" height="0.05" transform="rotate(90,15.494,3.629)" />
    <rect id="mn-3590" x="15.469" y="3.807" width="0.05" height="0.05" transform="rotate(90,15.494,3.832)" />
    <rect id="mn-3591" x="15.469" y="3.484" width="0.05" height="0.05" transform="rotate(180,15.494,3.509)" />
    <rect id="mn-3592" x="15.507" y="3.277" width="0.05" height="0.05" transform="rotate(120,15.532,3.302)" />
    <rect id="mn-3593" x="15.507" y="3.277" width="0.05" height="0.05" transform="rotate(180,15.532,3.302)" />
    <rect id="mn-3594" x="15.469" y="3.277" width="0.05" height="0.05" transform="rotate(180,15.494,3.302)" />
    <rect id="mn-3595" x="15.469" y="2.701" width="0.05" height="0.05" />
    <rect id="mn-3596" x="15.469" y="3.484" width="0.05" height="0.05" transform="rotate(240,15.494,3.509)" />
    <rect id="mn-3597" x="15.469" y="2.701" width="0.05" height="0.05" />
    <rect id="mn-3598" x="12.619" y="3.109" width="0.05" height="0.05" transform="rotate(180,12.644,3.134)" />
    <rect id="mn-3599" x="12.619" y="2.701" width="0.05" height="0.05" transform="rotate(270,12.644,2.726)" />
    <rect id="mn-3600" x="12.619" y="2.701" width="0.05" height="0.05" transform="rotate(270,12.644,2.726)" />
    <rect id="mn-3601" x="12.619" y="3.169" width="0.05" height="0.05" transform="rotate(180,12.644,3.194)" />
    <rect id="mn-3602" x="15.469" y="3.807" width="0.05" height="0.05" transform="rotate(120,15.494,3.832)" />
    <rect id="mn-3603" x="15.469" y="4.298" width="0.05" height="0.05" transform="rotate(120,15.494,4.323)" />
    <rect id="mn-3604" x="15.469" y="3.604" width="0.05" height="0.05" transform="rotate(120,15.494,3.629)" />
    <rect id="mn-3605" x="15.469" y="4.247" width="0.05" height="0.05" transform="rotate(120,15.494,4.272)" />
    <rect id="mn-3606" x="15.469" y="4.298" width="0.05" height="0.05" transform="rotate(270,15.494,4.323)" />
    <rect id="mn-3607" x="15.469" y="5.6" width="0.05" height="0.05" transform="rotate(120,15.494,5.625)" />
    <rect id="mn-3608" x="15.469" y="4.247" width="0.05" height="0.05" transform="rotate(270,15.494,4.272)" />
    <rect id="mn-3609" x="15.469" y="5.631" width="0.05" height="0.05" transform="rotate(120,15.494,5.656)" />
    <rect id="mn-3610" x="15.469" y="5.6" width="0.05" height="0.05" transform="rotate(120,15.494,5.625)" />
    <rect id="mn-3611" x="15.075" y="5.631" width="0.05" height="0.05" transform="rotate(240,15.1,5.656)" />
    <rect id="mn-3612" x="15.469" y="5.631" width="0.05" height="0.05" transform="rotate(120,15.494,5.656)" />
    <rect id="mn-3613" x="15.075" y="5.631" width="0.05" height="0.05" transform="rotate(180,15.1,5.656)" />
    <rect id="mn-3614" x="15.278" y="5.6" width="0.05" height="0.05" transform="rotate(270,15.303,5.625)" />
    <rect id="mn-3615" x="13.104" y="4.688" width="0.05" height="0.05" transform="rotate(120,13.129,4.713)" />
    <rect id="mn-3616" x="13.104" y="4.688" width="0.05" height="0.05" transform="rotate(180,13.129,4.713)" />
    <rect id="mn-3617" x="13.205" y="4.655" width="0.05" height="0.05" transform="rotate(120,13.23,4.68)" />
    <rect id="mn-3618" x="13.205" y="4.655" width="0.05" height="0.05" transform="rotate(240,13.23,4.68)" />
    <rect id="mn-3619" x="13.781" y="2.701" width="0.05" height="0.05" transform="rotate(180,13.806,2.726)" />
    <rect id="mn-3620" x="13.836" y="2.701" width="0.05" height="0.05" transform="rotate(180,13.861,2.726)" />
    <rect id="mn-3621" x="13.836" y="2.75" width="0.05" height="0.05" transform="rotate(120,13.861,2.775)" />
    <rect id="mn-3622" x="13.781" y="2.75" width="0.05" height="0.05" transform="rotate(120,13.806,2.775)" />
    <rect id="mn-3623" x="12.619" y="4.938" width="0.05" height="0.05" transform="rotate(180,12.644,4.963)" />
    <rect id="mn-3624" x="13.205" y="4.655" width="0.05" height="0.05" transform="rotate(240,13.23,4.68)" />
    <rect id="mn-3625" x="12.619" y="4.655" width="0.05" height="0.05" transform="rotate(270,12.644,4.68)" />
    <rect id="mn-3626" x="12.619" y="4.938" width="0.05" height="0.05" transform="rotate(180,12.644,4.963)" />
    <rect id="mn-3627" x="13.189" y="5.141" width="0.05" height="0.05" transform="rotate(270,13.214,5.166)" />
    <rect id="mn-3628" x="13.189" y="5.614" width="0.05" height="0.05" transform="rotate(90,13.214,5.639)" />
    <rect id="mn-3629" x="13.189" y="5.141" width="0.05" height="0.05" transform="rotate(269.982,13.214,5.166)" />
    <rect id="mn-3630" x="13.154" y="4.152" width="0.05" height="0.05" transform="rotate(269.982,13.179,4.177)" />
    <rect id="mn-3631" x="12.618" y="4.445" width="0.05" height="0.05" transform="rotate(120.02,12.643,4.47)" />
    <rect id="mn-3632" x="12.618" y="4.445" width="0.05" height="0.05" transform="rotate(240,12.643,4.47)" />
    <rect id="mn-3633" x="12.872" y="4.445" width="0.05" height="0.05" />
    <rect id="mn-3634" x="13.781" y="4.655" width="0.05" height="0.05" transform="rotate(90,13.806,4.68)" />
    <rect id="mn-3635" x="13.781" y="2.75" width="0.05" height="0.05" transform="rotate(270,13.806,2.775)" />
    <rect id="mn-3636" x="13.836" y="4.688" width="0.05" height="0.05" transform="rotate(90,13.861,4.713)" />
    <rect id="mn-3637" x="13.836" y="2.75" width="0.05" height="0.05" transform="rotate(270,13.861,2.775)" />
    <rect id="mn-3638" x="-3.702" y="6.309" width="0.05" height="0.05" transform="rotate(145.68,-3.677,6.334)" />
    <rect id="mn-3639" x="-4.286" y="5.807" width="0.05" height="0.05" transform="rotate(90,-4.261,5.832)" />
    <rect id="mn-3640" x="-1.517" y="5.192" width="0.05" height="0.05" transform="rotate(98.421,-1.492,5.217)" />
    <rect id="mn-3641" x="6.669" y="5.299" width="0.05" height="0.05" transform="rotate(239.575,6.694,5.324)" />
    <rect id="mn-3642" x="8.679" y="6.661" width="0.05" height="0.05" transform="rotate(180,8.704,6.686)" />
    <rect id="mn-3643" x="8.883" y="6.634" width="0.05" height="0.05" transform="rotate(180,8.908,6.659)" />
    <rect id="mn-3644" x="7.842" y="6.661" width="0.05" height="0.05" transform="rotate(180,7.867,6.686)" />
    <rect id="mn-3645" x="8.045" y="6.634" width="0.05" height="0.05" transform="rotate(180,8.07,6.659)" />
    <rect id="mn-3646" x="6.618" y="5.998" width="0.05" height="0.05" transform="rotate(180,6.643,6.023)" />
    <rect id="mn-3647" x="6.719" y="6.055" width="0.05" height="0.05" transform="rotate(180,6.744,6.08)" />
    <rect id="mn-3648" x="6.043" y="5.798" width="0.05" height="0.05" transform="rotate(120,6.068,5.823)" />
    <rect id="mn-3649" x="6.043" y="6.001" width="0.05" height="0.05" transform="rotate(180,6.068,6.026)" />
    <rect id="mn-3650" x="10.072" y="5.468" width="0.05" height="0.05" />
    <rect id="mn-3651" x="10.021" y="4.488" width="0.05" height="0.05" transform="rotate(211.4,10.046,4.513)" />
    <rect id="mn-3652" x="10.021" y="4.548" width="0.05" height="0.05" transform="rotate(180,10.046,4.573)" />
    <rect id="mn-3653" x="10.021" y="5.547" width="0.05" height="0.05" transform="rotate(240,10.046,5.572)" />
    <rect id="mn-3654" x="10.021" y="5.265" width="0.05" height="0.05" transform="rotate(180,10.046,5.29)" />
    <rect id="mn-3655" x="10.021" y="5.406" width="0.05" height="0.05" transform="rotate(98.421,10.046,5.431)" />
    <rect id="mn-3656" x="6.546" y="4.476" width="0.05" height="0.05" transform="rotate(240,6.571,4.501)" />
    <rect id="mn-3657" x="6.546" y="4.497" width="0.05" height="0.05" transform="rotate(270,6.571,4.522)" />
    <rect id="mn-3658" x="6.393" y="4.476" width="0.05" height="0.05" transform="rotate(240,6.418,4.501)" />
    <rect id="mn-3659" x="6.871" y="4.628" width="0.05" height="0.05" transform="rotate(90,6.896,4.653)" />
    <rect id="mn-3660" x="6.871" y="4.628" width="0.05" height="0.05" transform="rotate(180,6.896,4.653)" />
    <rect id="mn-3661" x="-8.994" y="3.642" width="0.05" height="0.05" transform="rotate(120,-8.969,3.667)" />
    <rect id="mn-3662" x="-8.994" y="3.642" width="0.05" height="0.05" transform="rotate(120,-8.969,3.667)" />
    <rect id="mn-3663" x="-9.137" y="3.642" width="0.05" height="0.05" transform="rotate(180,-9.112,3.667)" />
    <rect id="mn-3664" x="-9.137" y="3.642" width="0.05" height="0.05" transform="rotate(120,-9.112,3.667)" />
    <rect id="mn-3665" x="-9.137" y="3.642" width="0.05" height="0.05" transform="rotate(180,-9.112,3.667)" />
    <rect id="mn-3666" x="-9.137" y="3.364" width="0.05" height="0.05" transform="rotate(240,-9.112,3.389)" />
    <rect id="mn-3667" x="-9.137" y="3.364" width="0.05" height="0.05" transform="rotate(240,-9.112,3.389)" />
    <rect id="mn-3668" x="-9.137" y="3.364" width="0.05" height="0.05" transform="rotate(240,-9.112,3.389)" />
    <rect id="mn-3669" x="-8.955" y="3.364" width="0.05" height="0.05" transform="rotate(120,-8.93,3.389)" />
    <rect id="mn-3670" x="-8.955" y="3.212" width="0.05" height="0.05" transform="rotate(120,-8.93,3.237)" />
    <rect id="mn-3671" x="-9.137" y="3.212" width="0.05" height="0.05" transform="rotate(180,-9.112,3.237)" />
    <rect id="mn-3672" x="-9.137" y="3.212" width="0.05" height="0.05" transform="rotate(180,-9.112,3.237)" />
    <rect id="mn-3673" x="-9.137" y="3.364" width="0.05" height="0.05" transform="rotate(90,-9.112,3.389)" />
    <rect id="mn-3674" x="-9.137" y="3.337" width="0.05" height="0.05" transform="rotate(270,-9.112,3.362)" />
    <rect id="mn-3675" x="-9.137" y="2.729" width="0.05" height="0.05" />
    <rect id="mn-3676" x="-9.137" y="2.729" width="0.05" height="0.05" />
    <rect id="mn-3677" x="-12.026" y="3.33" width="0.05" height="0.05" transform="rotate(180,-12.001,3.355)" />
    <rect id="mn-3678" x="-12.026" y="2.729" width="0.05" height="0.05" transform="rotate(270,-12.001,2.754)" />
    <rect id="mn-3679" x="-12.026" y="3.391" width="0.05" height="0.05" transform="rotate(180,-12.001,3.416)" />
    <rect id="mn-3680" x="-12.026" y="2.729" width="0.05" height="0.05" transform="rotate(270,-12.001,2.754)" />
    <rect id="mn-3681" x="-9.137" y="3.364" width="0.05" height="0.05" transform="rotate(180,-9.112,3.389)" />
    <rect id="mn-3682" x="-9.137" y="3.391" width="0.05" height="0.05" transform="rotate(90,-9.112,3.416)" />
    <rect id="mn-3683" x="-9.137" y="3.604" width="0.05" height="0.05" transform="rotate(90,-9.112,3.629)" />
    <rect id="mn-3684" x="-9.137" y="3.604" width="0.05" height="0.05" transform="rotate(120,-9.112,3.629)" />
    <rect id="mn-3685" x="-9.137" y="3.212" width="0.05" height="0.05" transform="rotate(180,-9.112,3.237)" />
    <rect id="mn-3686" x="-9.137" y="3.258" width="0.05" height="0.05" transform="rotate(90,-9.112,3.283)" />
    <rect id="mn-3687" x="-9.173" y="3.294" width="0.05" height="0.05" transform="rotate(270,-9.148,3.319)" />
    <rect id="mn-3688" x="-9.173" y="3.49" width="0.05" height="0.05" transform="rotate(120,-9.148,3.515)" />
    <rect id="mn-3689" x="-9.173" y="3.49" width="0.05" height="0.05" transform="rotate(270,-9.148,3.515)" />
    <rect id="mn-3690" x="-9.173" y="3.807" width="0.05" height="0.05" transform="rotate(120,-9.148,3.832)" />
    <rect id="mn-3691" x="-9.173" y="3.807" width="0.05" height="0.05" transform="rotate(120,-9.148,3.832)" />
    <rect id="mn-3692" x="-12.026" y="3.134" width="0.05" height="0.05" transform="rotate(180,-12.001,3.159)" />
    <rect id="mn-3693" x="-12.085" y="3.194" width="0.05" height="0.05" transform="rotate(270,-12.06,3.219)" />
    <rect id="mn-3694" x="-12.026" y="3.134" width="0.05" height="0.05" transform="rotate(180,-12.001,3.159)" />
    <rect id="mn-3695" x="-12.085" y="3.194" width="0.05" height="0.05" transform="rotate(270,-12.06,3.219)" />
    <rect id="mn-3696" x="-11.439" y="4.694" width="0.05" height="0.05" transform="rotate(120,-11.414,4.719)" />
    <rect id="mn-3697" x="-11.439" y="4.694" width="0.05" height="0.05" transform="rotate(90,-11.414,4.719)" />
    <rect id="mn-3698" x="-11.541" y="4.694" width="0.05" height="0.05" transform="rotate(120,-11.516,4.719)" />
    <rect id="mn-3699" x="-11.541" y="4.694" width="0.05" height="0.05" transform="rotate(90,-11.516,4.719)" />
    <rect id="mn-3700" x="-12.085" y="4.694" width="0.05" height="0.05" transform="rotate(90,-12.06,4.719)" />
    <rect id="mn-3701" x="-12.085" y="4.938" width="0.05" height="0.05" transform="rotate(240,-12.06,4.963)" />
    <rect id="mn-3702" x="-12.085" y="4.694" width="0.05" height="0.05" transform="rotate(90,-12.06,4.719)" />
    <rect id="mn-3703" x="-12.085" y="4.938" width="0.05" height="0.05" transform="rotate(120,-12.06,4.963)" />
    <rect id="mn-3704" x="-12.085" y="5.593" width="0.05" height="0.05" transform="rotate(180,-12.06,5.618)" />
    <rect id="mn-3705" x="-11.78" y="5.593" width="0.05" height="0.05" />
    <rect id="mn-3706" x="-12.085" y="5.593" width="0.05" height="0.05" transform="rotate(180,-12.06,5.618)" />
    <rect id="mn-3707" x="-11.78" y="5.593" width="0.05" height="0.05" />
    <rect id="mn-3708" x="-11.685" y="5.688" width="0.05" height="0.05" transform="rotate(180,-11.66,5.713)" />
    <rect id="mn-3709" x="-11.685" y="5.688" width="0.05" height="0.05" transform="rotate(180,-11.66,5.713)" />
    <rect id="mn-3710" x="-11.381" y="5.688" width="0.05" height="0.05" transform="rotate(135,-11.356,5.713)" />
    <rect id="mn-3711" x="-11.309" y="5.616" width="0.05" height="0.05" transform="rotate(315,-11.284,5.641)" />
    <rect id="mn-3712" x="-9.366" y="5.616" width="0.05" height="0.05" />
    <rect id="mn-3713" x="-11.381" y="5.688" width="0.05" height="0.05" transform="rotate(135,-11.356,5.713)" />
    <rect id="mn-3714" x="-11.309" y="5.616" width="0.05" height="0.05" transform="rotate(315,-11.284,5.641)" />
    <rect id="mn-3715" x="-9.569" y="5.674" width="0.05" height="0.05" transform="rotate(90,-9.544,5.699)" />
    <rect id="mn-3716" x="-9.569" y="5.616" width="0.05" height="0.05" />
    <rect id="mn-3717" x="-9.569" y="5.674" width="0.05" height="0.05" transform="rotate(180,-9.544,5.699)" />
    <rect id="mn-3718" x="-15.294" y="11.276" width="0.05" height="0.05" transform="rotate(270,-15.269,11.301)" />
    <rect id="mn-3719" x="-15.294" y="10.948" width="0.05" height="0.05" transform="rotate(180,-15.269,10.973)" />
    <rect id="mn-3720" x="-15.294" y="10.975" width="0.05" height="0.05" transform="rotate(90,-15.269,11)" />
    <rect id="mn-3721" x="-15.294" y="11.011" width="0.05" height="0.05" transform="rotate(120,-15.269,11.036)" />
    <rect id="mn-3722" x="-5.81" y="7.633" width="0.05" height="0.05" transform="rotate(90,-5.785,7.658)" />
    <rect id="mn-3723" x="-6.615" y="7.633" width="0.05" height="0.05" transform="rotate(180,-6.59,7.658)" />
    <rect id="mn-3724" x="5.019" y="7.265" width="0.05" height="0.05" transform="rotate(240,5.044,7.29)" />
    <rect id="mn-3725" x="9.352" y="7.265" width="0.05" height="0.05" transform="rotate(179.578,9.377,7.29)" />
    <rect id="mn-3726" x="-19.306" y="11.392" width="0.05" height="0.05" transform="rotate(248.016,-19.281,11.417)" />
    <rect id="mn-3727" x="-19.306" y="3.445" width="0.05" height="0.05" transform="rotate(270,-19.281,3.47)" />
    <rect id="mn-3728" x="-6.301" y="2.54" width="0.05" height="0.05" transform="rotate(180,-6.276,2.565)" />
    <rect id="mn-3729" x="-6.093" y="2.54" width="0.05" height="0.05" transform="rotate(90,-6.068,2.565)" />
    <rect id="mn-3730" x="1.222" y="2.54" width="0.05" height="0.05" transform="rotate(180,1.247,2.565)" />
    <rect id="mn-3731" x="1.171" y="2.54" width="0.05" height="0.05" transform="rotate(90,1.196,2.565)" />
    <rect id="mn-3732" x="0.912" y="2.54" width="0.05" height="0.05" transform="rotate(90,0.937,2.565)" />
    <rect id="mn-3733" x="0.963" y="2.54" width="0.05" height="0.05" transform="rotate(180,0.988,2.565)" />
    <rect id="mn-3734" x="-30.307" y="10.938" width="0.05" height="0.05" transform="rotate(180,-30.282,10.963)" />
    <rect id="mn-3735" x="-30.307" y="10.938" width="0.05" height="0.05" transform="rotate(90,-30.282,10.963)" />
    <rect id="mn-3736" x="-30.307" y="12.428" width="0.05" height="0.05" transform="rotate(90,-30.282,12.453)" />
    <rect id="mn-3737" x="-30.307" y="12.362" width="0.05" height="0.05" transform="rotate(270,-30.282,12.387)" />
    <rect id="mn-3738" x="6.039" y="5.9" width="0.05" height="0.05" transform="rotate(90,6.064,5.925)" />
    <rect id="mn-3739" x="6.039" y="5.9" width="0.05" height="0.05" transform="rotate(270,6.064,5.925)" />
    <rect id="mn-3740" x="6.039" y="6.69" width="0.05" height="0.05" transform="rotate(180,6.064,6.715)" />
    <rect id="mn-3899" x="8.789" y="2.394" width="0.05" height="0.05" transform="rotate(270,8.814,2.419)" />
    <rect id="mn-3900" x="15.934" y="4.071" width="0.05" height="0.05" transform="rotate(180,15.959,4.096)" />
    <rect id="mn-3901" x="-8.686" y="4.071" width="0.05" height="0.05" transform="rotate(180,-8.661,4.096)" />
    <rect id="mn-3902" x="-13.9" y="4.611" width="0.05" height="0.05" transform="rotate(175.77,-13.875,4.636)" />
    <rect id="mn-3903" x="-15.195" y="4.611" width="0.05" height="0.05" transform="rotate(180,-15.17,4.636)" />
    <rect id="mn-3904" x="-15.506" y="2.489" width="0.05" height="0.05" transform="rotate(270,-15.481,2.514)" />
    <rect id="mn-3905" x="-15.583" y="2.387" width="0.05" height="0.05" transform="rotate(270,-15.558,2.412)" />
    <rect id="mn-3906" x="-15.659" y="2.286" width="0.05" height="0.05" transform="rotate(270,-15.634,2.311)" />
    <rect id="mn-3907" x="-15.735" y="2.184" width="0.05" height="0.05" transform="rotate(270,-15.71,2.209)" />
    <rect id="mn-3908" x="19.471" y="2.184" width="0.05" height="0.05" transform="rotate(90,19.496,2.209)" />
    <rect id="mn-3909" x="19.573" y="2.286" width="0.05" height="0.05" transform="rotate(90,19.598,2.311)" />
    <rect id="mn-3910" x="19.751" y="2.387" width="0.05" height="0.05" transform="rotate(90,19.776,2.412)" />
    <rect id="mn-3911" x="19.852" y="2.489" width="0.05" height="0.05" transform="rotate(90,19.877,2.514)" />
    <rect id="mn-3912" x="19.471" y="1.092" width="0.05" height="0.05" transform="rotate(240,19.496,1.117)" />
    <rect id="mn-3913" x="19.573" y="1.092" width="0.05" height="0.05" transform="rotate(240,19.598,1.117)" />
    <rect id="mn-3914" x="19.751" y="1.092" width="0.05" height="0.05" transform="rotate(240,19.776,1.117)" />
    <rect id="mn-3915" x="19.852" y="1.092" width="0.05" height="0.05" transform="rotate(240,19.877,1.117)" />
    <rect id="mn-3916" x="-7.569" y="2.591" width="0.05" height="0.05" transform="rotate(270,-7.544,2.616)" />
    <rect id="mn-3917" x="19.954" y="1.092" width="0.05" height="0.05" transform="rotate(90,19.979,1.117)" />
    <rect id="mn-3918" x="19.954" y="2.591" width="0.05" height="0.05" transform="rotate(90,19.979,2.616)" />
    <rect id="mn-3919" x="8.687" y="3.975" width="0.05" height="0.05" transform="rotate(240,8.712,4)" />
    <rect id="mn-3920" x="8.789" y="3.975" width="0.05" height="0.05" transform="rotate(120,8.814,4)" />
  </g>
</svg>