<?xml version="1.0" encoding="utf-8"?>
<svg xmlns="http://www.w3.org/2000/svg" viewBox="-31.250 -13.282 47.886 11.638">
  <g transform="scale(1,-1)">
    <path id="pi-2642" d="M 9.461,5.29 L 9.461,5.29" />
    <path id="pi-2643" d="M 6.694,5.324 L 6.694,5.324" />
    <path id="pi-2644" d="M -3.677,6.334 L -3.677,6.334" />
    <path id="pi-2645" d="M -4.261,5.359 L -4.261,5.689" />
    <path id="pi-2646" d="M -4.261,6.191 L -4.261,6.015" />
    <path id="pi-2647" d="M -1.856,5.217 L -1.856,5.217" />
    <path id="pi-2648" d="M -1.999,5.217 L -4.118,5.217" />
    <path id="pi-2649" d="M -1.563,5.217 L -1.785,5.217" />
    <path id="pi-2650" d="M -4.261,7.888 L -4.261,6.534" />
    <path id="pi-2651" d="M -15.319,11.468 L -15.319,11.468" />
    <path id="pi-2652" d="M -15.305,11.468 L -15.283,11.468" />
    <path id="pi-2653" d="M -15.269,11.066 L -15.269,11.066" />
    <path id="pi-2654" d="M -15.269,11.081 L -15.269,11.382" />
    <path id="pi-2655" d="M -15.269,11.454 L -15.269,11.081" />
    <path id="pi-2656" d="M -15.283,11.397 L -30.315,11.397" />
    <path id="pi-2657" d="M -30.213,10.862 L -30.315,10.862" />
    <path id="pi-2658" d="M -30.329,10.876 L -30.329,11.382" />
    <path id="pi-2659" d="M -30.329,11.397 L -30.329,11.397" />
    <path id="pi-2660" d="M -29.705,12.243 L -29.705,12.243" />
    <path id="pi-2661" d="M -30.282,10.997 L -30.282,12.361" />
    <path id="pi-2662" d="M 9.604,5.29 L 9.903,5.29" />
    <path id="pi-2663" d="M 10.222,5.29 L 10.189,5.29" />
    <path id="pi-2664" d="M 12.798,5.29 L 12.798,5.29" />
    <path id="pi-2665" d="M 10.046,5.29 L 10.046,5.29" />
    <path id="pi-2666" d="M 12.868,5.29 L 12.907,5.29" />
    <path id="pi-2667" d="M 12.798,5.29 L 12.798,5.29" />
    <path id="pi-2668" d="M 13.214,5.496 L 13.214,5.309" />
    <path id="pi-2669" d="M 13.214,5.639 L 13.214,5.639" />
    <path id="pi-2670" d="M 13.214,5.503 L 13.214,5.568" />
    <path id="pi-2671" d="M 12.931,5.326 L 13.081,5.366" />
    <path id="pi-2672" d="M 12.978,5.29 L 12.978,5.29" />
    <path id="pi-2673" d="M 12.978,11.671 L 12.978,5.433" />
    <path id="pi-2674" d="M 13.214,5.639 L 13.214,5.639" />
    <path id="pi-2675" d="M 15.508,3.731 L 15.508,3.731" />
    <path id="pi-2676" d="M 15.202,5.639 L 15.202,5.639" />
    <path id="pi-2677" d="M 13.322,5.639 L 13.87,5.639" />
    <path id="pi-2678" d="M 15.508,3.764 L 15.508,5.605" />
    <path id="pi-2679" d="M 15.474,5.639 L 15.376,5.639" />
    <path id="pi-2680" d="M 15.165,5.639 L 15.097,5.639" />
    <path id="pi-2681" d="M 15.085,5.639 L 13.893,5.639" />
    <path id="pi-2682" d="M 15.365,5.639 L 15.239,5.639" />
    <path id="pi-2683" d="M 12.643,4.47 L 12.643,4.47" />
    <path id="pi-2684" d="M 12.644,3.57 L 12.643,4.437" />
    <path id="pi-2685" d="M 15.202,5.731 L 15.202,5.672" />
    <path id="pi-2686" d="M 15.456,3.731 L 15.474,3.731" />
    <path id="pi-2687" d="M 9.36,5.29 L 6.837,5.323" />
    <path id="pi-2688" d="M 5.972,5.925 L 5.986,5.925" />
    <path id="pi-2689" d="M 7.968,6.593 L 7.968,6.637" />
    <path id="pi-2690" d="M 8.806,6.593 L 8.806,6.637" />
    <path id="pi-2691" d="M 6.064,6.002 L 6.064,6.637" />
    <path id="pi-2692" d="M 7.26,6.715 L 7.89,6.715" />
    <path id="pi-2693" d="M 7.968,6.715 L 7.968,6.715" />
    <path id="pi-2694" d="M 8.728,6.715 L 8.022,6.715" />
    <path id="pi-2695" d="M 8.806,6.715 L 8.806,6.715" />
    <path id="pi-2696" d="M 10.046,5.049 L 10.046,4.746" />
    <path id="pi-2697" d="M 9.968,6.715 L 8.86,6.715" />
    <path id="pi-2698" d="M 10.046,5.29 L 10.046,5.29" />
    <path id="pi-2699" d="M 10.046,5.29 L 10.046,5.29" />
    <path id="pi-2700" d="M 10.046,6.637 L 10.046,5.629" />
    <path id="pi-2701" d="M 6.142,6.715 L 6.882,6.715" />
    <path id="pi-2702" d="M 6.989,6.715 L 7.154,6.715" />
    <path id="pi-2703" d="M 10.046,5.29 L 10.046,5.29" />
    <path id="pi-2704" d="M 10.046,5.29 L 10.046,5.29" />
    <path id="pi-2705" d="M 10.046,5.29 L 10.046,5.29" />
    <path id="pi-2706" d="M 10.046,5.29 L 10.046,5.29" />
    <path id="pi-2707" d="M 10.046,5.29 L 10.046,5.29" />
    <path id="pi-2708" d="M 12.655,5.29 L 10.474,5.29" />
    <path id="pi-2709" d="M -11.414,5.166 L -11.414,5.166" />
    <path id="pi-2710" d="M -11.421,5.023 L -11.458,4.319" />
    <path id="pi-2711" d="M -11.465,4.177 L -11.465,4.177" />
    <path id="pi-2712" d="M -11.414,5.166 L -11.414,5.166" />
    <path id="pi-2713" d="M -12.001,3.182 L -12.001,2.823" />
    <path id="pi-2714" d="M -11.923,2.745 L -9.188,2.745" />
    <path id="pi-2715" d="M -12.001,2.745 L -12.001,2.745" />
    <path id="pi-2716" d="M -9.111,3.808 L -9.111,5.559" />
    <path id="pi-2717" d="M -9.111,3.731 L -9.111,3.731" />
    <path id="pi-2718" d="M -9.111,2.823 L -9.111,3.677" />
    <path id="pi-2719" d="M -9.442,5.637 L -9.442,5.637" />
    <path id="pi-2720" d="M -9.188,5.637 L -9.365,5.637" />
    <path id="pi-2721" d="M -9.496,5.637 L -11.274,5.637" />
    <path id="pi-2722" d="M -11.516,5.639 L -11.516,5.639" />
    <path id="pi-2723" d="M -11.516,5.639 L -11.516,5.639" />
    <path id="pi-2724" d="M -11.821,5.639 L -11.821,5.639" />
    <path id="pi-2725" d="M -11.516,5.639 L -11.516,5.639" />
    <path id="pi-2726" d="M -11.556,5.639 L -11.78,5.639" />
    <path id="pi-2727" d="M -29.705,12.243 L -29.705,12.243" />
    <path id="pi-2728" d="M -9.442,5.728 L -9.442,5.715" />
    <path id="pi-2729" d="M -9.188,3.731 L -9.204,3.731" />
    <path id="pi-2730" d="M 1.256,2.565 L 2.153,2.565" />
    <path id="pi-2731" d="M 2.051,4.024 L 0.963,4.024" />
    <path id="pi-2732" d="M 0.948,4.024 L 0.833,4.024" />
    <path id="pi-2733" d="M 0.818,4.024 L -5.764,4.024" />
    <path id="pi-2734" d="M -5.785,4.045 L -5.785,5.519" />
    <path id="pi-2735" d="M -5.785,5.534 L -5.785,5.649" />
    <path id="pi-2736" d="M -5.785,5.663 L -5.785,6.053" />
    <path id="pi-2737" d="M -5.785,6.067 L -5.785,6.182" />
    <path id="pi-2738" d="M -5.785,6.197 L -5.785,7.637" />
    <path id="pi-2739" d="M -6.59,7.658 L -6.59,7.658" />
    <path id="pi-2740" d="M 15.532,2.586 L 15.532,3.281" />
    <path id="pi-2741" d="M 6.896,4.632 L 6.896,2.637" />
    <path id="pi-2742" d="M -9.112,2.586 L -9.112,3.646" />
    <path id="pi-2743" d="M -15.319,11.316 L -15.319,11.316" />
    <path id="pi-2744" d="M -15.305,11.316 L -15.283,11.316" />
    <path id="pi-2745" d="M -15.269,11.294 L -15.269,10.994" />
    <path id="pi-2746" d="M -15.269,10.973 L -15.269,10.973" />
    <path id="pi-2747" d="M -30.213,11.065 L -30.229,11.065" />
    <path id="pi-2748" d="M -30.243,11.079 L -30.243,11.333" />
    <path id="pi-2749" d="M -30.213,12.04 L -30.229,12.04" />
    <path id="pi-2750" d="M -30.243,12.025 L -30.243,11.368" />
    <path id="pi-2751" d="M -30.243,11.354 L -30.243,11.354" />
    <path id="pi-2752" d="M 6.054,5.823 L 5.972,5.823" />
    <path id="pi-2753" d="M 6.047,6.026 L 5.972,6.026" />
    <path id="pi-2754" d="M 7.448,6.094 L 7.448,6.672" />
    <path id="pi-2755" d="M 7.846,6.686 L 7.588,6.686" />
    <path id="pi-2756" d="M 6.068,5.844 L 6.068,6.014" />
    <path id="pi-2757" d="M 6.072,6.024 L 6.123,6.076" />
    <path id="pi-2758" d="M 6.765,6.08 L 7.46,6.08" />
    <path id="pi-2759" d="M 7.474,6.094 L 7.474,6.645" />
    <path id="pi-2760" d="M 6.068,5.823 L 6.068,5.823" />
    <path id="pi-2761" d="M 6.068,4.667 L 6.068,5.802" />
    <path id="pi-2762" d="M 7.488,6.659 L 7.561,6.659" />
    <path id="pi-2763" d="M 7.575,6.659 L 7.575,6.659" />
    <path id="pi-2764" d="M 8.07,6.645 L 8.07,6.593" />
    <path id="pi-2765" d="M 8.07,6.659 L 8.07,6.659" />
    <path id="pi-2766" d="M 7.59,6.659 L 8.049,6.659" />
    <path id="pi-2767" d="M 8.908,6.645 L 8.908,6.593" />
    <path id="pi-2768" d="M 8.908,6.659 L 8.908,6.659" />
    <path id="pi-2769" d="M 8.09,6.659 L 8.887,6.659" />
    <path id="pi-2770" d="M 7.56,6.686 L 7.463,6.686" />
    <path id="pi-2771" d="M 7.574,6.686 L 7.574,6.686" />
    <path id="pi-2772" d="M 7.867,6.672 L 7.867,6.593" />
    <path id="pi-2773" d="M 7.867,6.686 L 7.867,6.686" />
    <path id="pi-2774" d="M 8.684,6.686 L 7.887,6.686" />
    <path id="pi-2775" d="M 8.704,6.672 L 8.704,6.593" />
    <path id="pi-2776" d="M 8.704,6.686 L 8.704,6.686" />
    <path id="pi-2777" d="M 8.725,6.686 L 10.082,6.686" />
    <path id="pi-2778" d="M 8.928,6.659 L 10.082,6.659" />
    <path id="pi-2779" d="M 10.097,6.645 L 10.097,5.607" />
    <path id="pi-2780" d="M 10.097,6.672 L 10.097,5.659" />
    <path id="pi-2781" d="M 10.097,5.645 L 10.097,5.645" />
    <path id="pi-2782" d="M 10.097,5.631 L 10.097,4.72" />
    <path id="pi-2783" d="M 10.097,4.705 L 10.097,4.705" />
    <path id="pi-2784" d="M 10.096,5.593 L 10.097,5.593" />
    <path id="pi-2785" d="M 10.097,5.578 L 10.097,4.769" />
    <path id="pi-2786" d="M 10.097,4.754 L 10.097,4.754" />
    <path id="pi-2787" d="M 10.097,4.691 L 10.097,4.588" />
    <path id="pi-2788" d="M 10.097,4.74 L 10.097,4.527" />
    <path id="pi-2789" d="M 10.097,4.513 L 10.097,4.513" />
    <path id="pi-2790" d="M 10.046,4.513 L 10.046,4.513" />
    <path id="pi-2791" d="M 10.05,4.513 L 10.092,4.513" />
    <path id="pi-2792" d="M 10.082,4.573 L 10.06,4.573" />
    <path id="pi-2793" d="M 10.046,4.573 L 10.046,4.573" />
    <path id="pi-2794" d="M 10.082,5.493 L 9.969,5.493" />
    <path id="pi-2795" d="M 10.097,5.508 L 10.097,5.572" />
    <path id="pi-2796" d="M 10.097,5.593 L 10.096,5.593" />
    <path id="pi-2797" d="M 6.643,6.009 L 6.643,5.94" />
    <path id="pi-2798" d="M 6.643,6.023 L 6.643,6.023" />
    <path id="pi-2799" d="M 6.664,6.08 L 7.434,6.08" />
    <path id="pi-2800" d="M 6.744,6.066 L 6.744,5.94" />
    <path id="pi-2801" d="M 6.744,6.08 L 6.744,6.08" />
    <path id="pi-2802" d="M 6.134,6.08 L 6.724,6.08" />
    <path id="pi-2803" d="M 6.082,6.08 L 6.622,6.08" />
    <path id="pi-2804" d="M 6.643,6.059 L 6.643,6.037" />
    <path id="pi-2805" d="M 6.571,4.501 L 6.571,4.501" />
    <path id="pi-2806" d="M 6.418,4.501 L 6.418,4.501" />
    <path id="pi-2807" d="M 6.068,6.006 L 6.068,5.928" />
    <path id="pi-2808" d="M 6.068,5.899 L 6.068,4.64" />
    <path id="pi-2809" d="M 6.068,5.913 L 6.068,5.913" />
    <path id="pi-2810" d="M 6.082,4.626 L 6.404,4.626" />
    <path id="pi-2811" d="M 6.418,4.626 L 6.418,4.626" />
    <path id="pi-2812" d="M 6.418,4.612 L 6.418,4.515" />
    <path id="pi-2813" d="M 6.875,4.653 L 6.591,4.653" />
    <path id="pi-2814" d="M 6.571,4.522 L 6.571,4.531" />
    <path id="pi-2815" d="M 6.571,4.653 L 6.571,4.653" />
    <path id="pi-2816" d="M 6.068,4.653 L 6.068,4.653" />
    <path id="pi-2817" d="M 6.571,4.551 L 6.571,4.551" />
    <path id="pi-2818" d="M 6.571,4.551 L 6.571,4.551" />
    <path id="pi-2819" d="M 6.571,4.572 L 6.571,4.632" />
    <path id="pi-2820" d="M 6.571,4.551 L 6.571,4.551" />
    <path id="pi-2821" d="M 6.082,4.653 L 6.556,4.653" />
    <path id="pi-2822" d="M 6.571,4.632 L 6.571,4.578" />
    <path id="pi-2823" d="M 10.046,5.29 L 10.046,5.29" />
    <path id="pi-2824" d="M 10.046,5.29 L 10.046,5.29" />
    <path id="pi-2825" d="M 15.532,3.302 L 15.532,3.302" />
    <path id="pi-2826" d="M 15.715,3.662 L 15.715,3.662" />
    <path id="pi-2827" d="M 15.715,3.509 L 15.715,3.509" />
    <path id="pi-2828" d="M 15.684,3.302 L 15.684,3.302" />
    <path id="pi-2829" d="M 15.532,3.662 L 15.532,3.662" />
    <path id="pi-2830" d="M 15.7,3.662 L 15.546,3.662" />
    <path id="pi-2831" d="M 15.532,3.336 L 15.532,3.648" />
    <path id="pi-2832" d="M 15.532,3.302 L 15.532,3.302" />
    <path id="pi-2833" d="M 15.532,3.302 L 15.532,3.302" />
    <path id="pi-2834" d="M 15.684,3.302 L 15.684,3.302" />
    <path id="pi-2835" d="M 15.664,3.302 L 15.553,3.302" />
    <path id="pi-2836" d="M 15.553,3.302 L 15.664,3.302" />
    <path id="pi-2837" d="M 15.456,3.629 L 15.48,3.629" />
    <path id="pi-2838" d="M 15.494,3.608 L 15.494,3.323" />
    <path id="pi-2839" d="M 15.494,3.629 L 15.494,3.629" />
    <path id="pi-2840" d="M 15.456,3.832 L 15.48,3.832" />
    <path id="pi-2841" d="M 15.494,3.53 L 15.494,3.812" />
    <path id="pi-2842" d="M 15.494,3.832 L 15.494,3.832" />
    <path id="pi-2843" d="M 15.494,3.509 L 15.494,3.509" />
    <path id="pi-2844" d="M 15.7,3.509 L 15.508,3.509" />
    <path id="pi-2845" d="M 15.518,3.302 L 15.515,3.302" />
    <path id="pi-2846" d="M 15.494,3.281 L 15.494,2.74" />
    <path id="pi-2847" d="M 13.786,2.726 L 12.658,2.726" />
    <path id="pi-2848" d="M 15.494,3.489 L 15.494,2.74" />
    <path id="pi-2849" d="M 13.84,2.726 L 12.658,2.726" />
    <path id="pi-2850" d="M 12.644,3.134 L 12.644,3.134" />
    <path id="pi-2851" d="M 12.644,3.119 L 12.644,2.74" />
    <path id="pi-2852" d="M 12.644,3.194 L 12.644,3.194" />
    <path id="pi-2853" d="M 12.644,3.18 L 12.644,2.74" />
    <path id="pi-2854" d="M 15.494,3.853 L 15.494,4.308" />
    <path id="pi-2855" d="M 15.494,4.323 L 15.494,4.323" />
    <path id="pi-2856" d="M 15.494,3.65 L 15.494,4.258" />
    <path id="pi-2857" d="M 15.494,4.272 L 15.494,4.272" />
    <path id="pi-2858" d="M 15.494,4.337 L 15.494,5.61" />
    <path id="pi-2859" d="M 15.494,4.286 L 15.494,5.642" />
    <path id="pi-2860" d="M 15.303,5.731 L 15.303,5.639" />
    <path id="pi-2861" d="M 15.48,5.625 L 15.318,5.625" />
    <path id="pi-2862" d="M 15.494,5.625 L 15.494,5.625" />
    <path id="pi-2863" d="M 15.1,5.731 L 15.1,5.671" />
    <path id="pi-2864" d="M 15.48,5.656 L 15.115,5.656" />
    <path id="pi-2865" d="M 15.1,5.656 L 15.1,5.656" />
    <path id="pi-2866" d="M 15.494,5.656 L 15.494,5.656" />
    <path id="pi-2867" d="M 13.129,4.713 L 13.129,4.713" />
    <path id="pi-2868" d="M 13.129,4.64 L 13.129,4.699" />
    <path id="pi-2869" d="M 13.23,4.64 L 13.23,4.666" />
    <path id="pi-2870" d="M 13.23,4.68 L 13.23,4.68" />
    <path id="pi-2871" d="M 15.48,2.726 L 13.827,2.726" />
    <path id="pi-2872" d="M 15.48,2.726 L 13.881,2.726" />
    <path id="pi-2873" d="M 13.861,2.746 L 13.861,2.761" />
    <path id="pi-2874" d="M 13.806,2.746 L 13.806,2.761" />
    <path id="pi-2875" d="M 13.806,2.775 L 13.806,2.775" />
    <path id="pi-2876" d="M 13.861,2.775 L 13.861,2.775" />
    <path id="pi-2877" d="M 13.806,4.666 L 13.806,2.789" />
    <path id="pi-2878" d="M 13.792,4.68 L 13.245,4.68" />
    <path id="pi-2879" d="M 13.861,4.699 L 13.861,2.789" />
    <path id="pi-2880" d="M 13.846,4.713 L 13.143,4.713" />
    <path id="pi-2881" d="M 12.659,4.963 L 12.706,4.963" />
    <path id="pi-2882" d="M 12.644,4.963 L 12.644,4.963" />
    <path id="pi-2883" d="M 12.644,4.695 L 12.644,4.948" />
    <path id="pi-2884" d="M 13.21,4.68 L 12.659,4.68" />
    <path id="pi-2885" d="M 13.23,4.68 L 13.23,4.68" />
    <path id="pi-2886" d="M 13.179,4.177 L 13.179,4.177" />
    <path id="pi-2887" d="M 13.193,4.548 L 13.184,4.319" />
    <path id="pi-2888" d="M 13.214,5.166 L 13.214,5.166" />
    <path id="pi-2889" d="M 13.214,5.309 L 13.214,5.496" />
    <path id="pi-2890" d="M 13.214,5.639 L 13.214,5.639" />
    <path id="pi-2891" d="M 13.214,5.639 L 13.214,5.639" />
    <path id="pi-2892" d="M 13.214,5.166 L 13.214,5.166" />
    <path id="pi-2893" d="M 12.676,4.47 L 12.888,4.47" />
    <path id="pi-2894" d="M 13.209,5.023 L 13.199,4.737" />
    <path id="pi-2895" d="M -4.122,5.952 L -3.785,6.241" />
    <path id="pi-2896" d="M 10.046,5.29 L 10.046,5.29" />
    <path id="pi-2897" d="M 6.068,6.066 L 6.068,6.047" />
    <path id="pi-2898" d="M 10.046,5.532 L 10.046,5.5" />
    <path id="pi-2899" d="M 10.046,5.29 L 10.046,5.29" />
    <path id="pi-2900" d="M 6.896,4.653 L 6.896,4.653" />
    <path id="pi-2901" d="M -8.969,3.667 L -8.969,3.667" />
    <path id="pi-2902" d="M -8.969,3.667 L -8.969,3.667" />
    <path id="pi-2903" d="M -8.99,3.667 L -9.092,3.667" />
    <path id="pi-2904" d="M -8.99,3.667 L -9.092,3.667" />
    <path id="pi-2905" d="M -9.112,3.667 L -9.112,3.667" />
    <path id="pi-2906" d="M -8.93,3.389 L -8.93,3.389" />
    <path id="pi-2907" d="M -8.93,3.237 L -8.93,3.237" />
    <path id="pi-2908" d="M -9.098,3.389 L -8.944,3.389" />
    <path id="pi-2909" d="M -9.112,3.646 L -9.112,3.41" />
    <path id="pi-2910" d="M -9.112,3.389 L -9.112,3.389" />
    <path id="pi-2911" d="M -8.944,3.237 L -9.098,3.237" />
    <path id="pi-2912" d="M -9.112,3.223 L -9.112,2.769" />
    <path id="pi-2913" d="M -9.112,3.237 L -9.112,3.237" />
    <path id="pi-2914" d="M -9.112,3.355 L -9.112,2.769" />
    <path id="pi-2915" d="M -9.127,2.754 L -11.986,2.754" />
    <path id="pi-2916" d="M -9.127,2.754 L -11.986,2.754" />
    <path id="pi-2917" d="M -12.001,3.355 L -12.001,3.355" />
    <path id="pi-2918" d="M -12.001,3.139 L -12.001,2.769" />
    <path id="pi-2919" d="M -12.001,3.416 L -12.001,3.416" />
    <path id="pi-2920" d="M -12.001,3.139 L -12.001,2.769" />
    <path id="pi-2921" d="M -9.112,3.424 L -9.112,3.615" />
    <path id="pi-2922" d="M -9.112,3.389 L -9.112,3.389" />
    <path id="pi-2923" d="M -9.112,3.389 L -9.112,3.389" />
    <path id="pi-2924" d="M -9.204,3.629 L -9.127,3.629" />
    <path id="pi-2925" d="M -9.112,3.629 L -9.112,3.629" />
    <path id="pi-2926" d="M -9.112,3.258 L -9.112,3.277" />
    <path id="pi-2927" d="M -9.112,3.237 L -9.112,3.237" />
    <path id="pi-2928" d="M -9.116,3.287 L -9.144,3.314" />
    <path id="pi-2929" d="M -9.148,3.325 L -9.148,3.501" />
    <path id="pi-2930" d="M -9.148,3.515 L -9.148,3.515" />
    <path id="pi-2931" d="M -9.204,3.832 L -9.162,3.832" />
    <path id="pi-2932" d="M -9.148,3.832 L -9.148,3.832" />
    <path id="pi-2933" d="M -9.148,3.53 L -9.148,3.818" />
    <path id="pi-2934" d="M -12.06,4.698 L -12.06,3.225" />
    <path id="pi-2935" d="M -12.015,3.174 L -12.056,3.215" />
    <path id="pi-2936" d="M -12.06,4.698 L -12.06,3.225" />
    <path id="pi-2937" d="M -12.015,3.174 L -12.056,3.215" />
    <path id="pi-2938" d="M -12.001,3.341 L -12.001,3.18" />
    <path id="pi-2939" d="M -12.001,3.401 L -12.001,3.18" />
    <path id="pi-2940" d="M -12.04,4.719 L -11.53,4.719" />
    <path id="pi-2941" d="M -12.04,4.719 L -11.428,4.719" />
    <path id="pi-2942" d="M -11.414,4.64 L -11.414,4.704" />
    <path id="pi-2943" d="M -11.414,4.719 L -11.414,4.719" />
    <path id="pi-2944" d="M -11.516,4.64 L -11.516,4.704" />
    <path id="pi-2945" d="M -11.516,4.719 L -11.516,4.719" />
    <path id="pi-2946" d="M -12.06,4.739 L -12.06,4.942" />
    <path id="pi-2947" d="M -12.046,4.963 L -11.922,4.963" />
    <path id="pi-2948" d="M -12.06,4.963 L -12.06,4.963" />
    <path id="pi-2949" d="M -12.06,4.983 L -12.06,5.604" />
    <path id="pi-2950" d="M -12.046,5.618 L -11.761,5.618" />
    <path id="pi-2951" d="M -11.751,5.622 L -11.665,5.709" />
    <path id="pi-2952" d="M -11.654,5.713 L -11.361,5.713" />
    <path id="pi-2953" d="M -12.06,4.739 L -12.06,5.604" />
    <path id="pi-2954" d="M -12.046,5.618 L -11.761,5.618" />
    <path id="pi-2955" d="M -11.751,5.622 L -11.665,5.709" />
    <path id="pi-2956" d="M -11.654,5.713 L -11.361,5.713" />
    <path id="pi-2957" d="M -11.351,5.709 L -11.288,5.646" />
    <path id="pi-2958" d="M -11.278,5.641 L -9.355,5.641" />
    <path id="pi-2959" d="M -9.341,5.728 L -9.341,5.656" />
    <path id="pi-2960" d="M -11.351,5.709 L -11.288,5.646" />
    <path id="pi-2961" d="M -11.278,5.641 L -9.558,5.641" />
    <path id="pi-2962" d="M -9.544,5.713 L -9.544,5.728" />
    <path id="pi-2963" d="M -9.544,5.699 L -9.544,5.699" />
    <path id="pi-2964" d="M -9.544,5.656 L -9.544,5.684" />
    <path id="pi-2965" d="M -15.269,11.036 L -15.269,11.036" />
    <path id="pi-2966" d="M -15.269,11.008 L -15.269,11.022" />
    <path id="pi-2967" d="M -15.269,10.973 L -15.269,10.973" />
    <path id="pi-2968" d="M -15.269,10.973 L -15.269,10.973" />
    <path id="pi-2969" d="M -5.805,7.658 L -6.569,7.658" />
    <path id="pi-2970" d="M 5.044,7.29 L 5.044,7.29" />
    <path id="pi-2971" d="M 5.247,7.29 L 9.208,7.29" />
    <path id="pi-2972" d="M 9.377,11.417 L 9.377,11.417" />
    <path id="pi-2973" d="M 9.377,7.29 L 9.377,7.29" />
    <path id="pi-2974" d="M -19.281,11.417 L -19.281,11.417" />
    <path id="pi-2975" d="M -19.084,11.468 L -18.031,11.742" />
    <path id="pi-2976" d="M -19.281,3.47 L -19.281,3.47" />
    <path id="pi-2977" d="M -19.281,3.674 L -19.281,9.132" />
    <path id="pi-2978" d="M -6.023,2.565 L -6.062,2.565" />
    <path id="pi-2979" d="M -6.268,2.565 L -6.077,2.565" />
    <path id="pi-2980" d="M -6.321,2.565 L -6.282,2.565" />
    <path id="pi-2981" d="M 1.241,2.565 L 1.202,2.565" />
    <path id="pi-2982" d="M 0.997,2.565 L 1.188,2.565" />
    <path id="pi-2983" d="M 0.943,2.565 L 0.982,2.565" />
    <path id="pi-2984" d="M -6.009,2.565 L 0.929,2.565" />
    <path id="pi-2985" d="M -30.213,10.963 L -30.248,10.963" />
    <path id="pi-2986" d="M -30.282,10.963 L -30.282,10.963" />
    <path id="pi-2987" d="M 6.064,5.925 L 6.064,5.925" />
  </g>
</svg>