<?xml version="1.0" encoding="utf-8"?>
<svg xmlns="http://www.w3.org/2000/svg" viewBox="-15.743 -1.375 38.068 11.331">
  <g transform="scale(1,-1)">
    <polygon id="ro-17" points="21.593,-8.03 20.752,-1.642 19.772,-3.793 16.36,-2.238 16.928,-0.991 15.583,-0.991 15.583,-6.287 12.421,-6.287 12.421,-0.995 12.008,-0.995 11.104,-2.978 7.63,-1.395 8.191,-0.164 7.228,0.275 6.161,-2.066 2.546,-0.419 2.416,-0.36 2.331,-0.546 1.111,-0.546 1.111,-9.224 12.528,-9.224" />
    <polygon id="ro-18" points="-15.011,-8.55 -14.808,-8.55 -6.475,-8.55 -6.191,-8.55 -6.191,-0.546 -7.777,-0.546 -8.926,-3.067 -13.202,-1.118 -12.644,0.106 -13.822,0.643 -15.011,-1.966" />
    <polygon id="ro-19" points="-15.011,-1.966 -15.011,-5.502 -12.119,-4.286" />
    <polygon id="ro-20" points="9.138,-7.026 6.161,-9.224 12.421,-9.224 9.443,-7.026" />
  </g>
</svg>