<?xml version="1.0" encoding="utf-8"?>
<svg xmlns="http://www.w3.org/2000/svg" viewBox="-34.906 -14.278 56.750 24.946">
  <g transform="scale(1,-1)">
    <rect id="tm-423" x="5.568" y="5.176" width="0.3" height="0.3" transform="rotate(90,5.718,5.326)" />
    <rect id="tm-424" x="5.568" y="6.471" width="0.3" height="0.3" transform="rotate(90,5.718,6.621)" />
    <rect id="tm-425" x="5.568" y="5.824" width="0.3" height="0.3" transform="rotate(90,5.718,5.974)" />
    <rect id="tm-426" x="15.776" y="5.854" width="0.3" height="0.3" transform="rotate(180,15.926,6.004)" />
    <rect id="tm-427" x="14.48" y="5.854" width="0.3" height="0.3" transform="rotate(180,14.63,6.004)" />
    <rect id="tm-428" x="15.128" y="5.854" width="0.3" height="0.3" transform="rotate(180,15.278,6.004)" />
    <rect id="tm-429" x="-8.869" y="5.854" width="0.3" height="0.3" transform="rotate(180,-8.719,6.004)" />
    <rect id="tm-430" x="-10.164" y="5.854" width="0.3" height="0.3" transform="rotate(180,-10.014,6.004)" />
    <rect id="tm-431" x="-9.516" y="5.854" width="0.3" height="0.3" transform="rotate(180,-9.366,6.004)" />
    <rect id="tm-432" x="1.83" y="4.844" width="0.3" height="0.3" transform="rotate(180,1.98,4.994)" />
    <rect id="tm-433" x="12.575" y="-0.239" width="0.3" height="0.3" transform="rotate(120,12.725,-0.089)" />
    <rect id="tm-434" x="12.575" y="-5.217" width="0.3" height="0.3" transform="rotate(120,12.725,-5.067)" />
    <rect id="tm-435" x="15.128" y="-0.239" width="0.3" height="0.3" transform="rotate(120,15.278,-0.089)" />
    <rect id="tm-436" x="15.128" y="-5.217" width="0.3" height="0.3" transform="rotate(120,15.278,-5.067)" />
    <rect id="tm-437" x="-15.009" y="6.772" width="0.3" height="0.3" transform="rotate(240,-14.859,6.922)" />
    <rect id="tm-438" x="-15.009" y="11.963" width="0.3" height="0.3" transform="rotate(240,-14.859,12.113)" />
    <rect id="tm-439" x="-12.456" y="6.772" width="0.3" height="0.3" transform="rotate(240,-12.306,6.922)" />
    <rect id="tm-440" x="-12.456" y="11.963" width="0.3" height="0.3" transform="rotate(240,-12.306,12.113)" />
    <rect id="tm-441" x="-33.373" y="6.518" width="0.3" height="0.3" transform="rotate(240,-33.223,6.668)" />
    <rect id="tm-442" x="-33.373" y="11.963" width="0.3" height="0.3" transform="rotate(240,-33.223,12.113)" />
    <rect id="tm-443" x="-30.821" y="6.518" width="0.3" height="0.3" transform="rotate(240,-30.671,6.668)" />
    <rect id="tm-444" x="-30.821" y="11.963" width="0.3" height="0.3" transform="rotate(240,-30.671,12.113)" />
    <rect id="tm-445" x="8.076" y="-2.973" width="0.3" height="0.3" />
    <rect id="tm-446" x="9.986" y="-6.284" width="0.3" height="0.3" />
    <rect id="tm-447" x="12.134" y="-8.713" width="0.3" height="0.3" />
    <rect id="tm-879" x="-29.46" y="-0.57" width="0.3" height="0.3" transform="rotate(107.017,-29.31,-0.42)" />
    <rect id="tm-880" x="-29.645" y="-0.485" width="0.3" height="0.3" transform="rotate(107.017,-29.495,-0.335)" />
    <rect id="tm-881" x="-30.704" y="1.449" width="0.3" height="0.3" transform="rotate(90,-30.554,1.599)" />
    <rect id="tm-882" x="-28.037" y="1.449" width="0.3" height="0.3" transform="rotate(90,-27.887,1.599)" />
    <rect id="tm-883" x="-26.348" y="3.114" width="0.3" height="0.3" transform="rotate(120,-26.198,3.264)" />
    <rect id="tm-884" x="-26.348" y="4.562" width="0.3" height="0.3" transform="rotate(120,-26.198,4.712)" />
    <rect id="tm-885" x="-26.145" y="3.844" width="0.3" height="0.3" transform="rotate(120,-25.995,3.994)" />
    <rect id="tm-886" x="-25.836" y="8.804" width="0.3" height="0.3" transform="rotate(120,-25.686,8.954)" />
    <rect id="tm-887" x="-25.632" y="8.169" width="0.3" height="0.3" transform="rotate(120,-25.482,8.319)" />
    <rect id="tm-888" x="-17.341" y="-0.228" width="0.3" height="0.3" transform="rotate(107.017,-17.191,-0.078)" />
    <rect id="tm-889" x="-17.526" y="-0.144" width="0.3" height="0.3" transform="rotate(107.017,-17.376,0.006)" />
    <rect id="tm-890" x="-23.001" y="-0.352" width="0.3" height="0.3" transform="rotate(107.017,-22.851,-0.202)" />
    <rect id="tm-891" x="-22.816" y="-0.436" width="0.3" height="0.3" transform="rotate(107.017,-22.666,-0.286)" />
    <rect id="tm-892" x="-24.057" y="1.449" width="0.3" height="0.3" transform="rotate(180,-23.907,1.599)" />
    <rect id="tm-893" x="-21.06" y="1.449" width="0.3" height="0.3" transform="rotate(90,-20.91,1.599)" />
    <rect id="tm-894" x="-18.23" y="1.449" width="0.3" height="0.3" transform="rotate(90,-18.08,1.599)" />
    <rect id="tm-895" x="-19.098" y="3.114" width="0.3" height="0.3" transform="rotate(120,-18.948,3.264)" />
    <rect id="tm-896" x="-19.098" y="4.562" width="0.3" height="0.3" transform="rotate(120,-18.948,4.712)" />
    <rect id="tm-897" x="-18.895" y="3.843" width="0.3" height="0.3" transform="rotate(120,-18.745,3.993)" />
    <rect id="tm-898" x="-19.098" y="8.804" width="0.3" height="0.3" transform="rotate(120,-18.948,8.954)" />
    <rect id="tm-899" x="-18.895" y="8.168" width="0.3" height="0.3" transform="rotate(120,-18.745,8.318)" />
    <rect id="tm-900" x="-10.121" y="11.14" width="0.3" height="0.3" transform="rotate(240,-9.971,11.29)" />
    <rect id="tm-901" x="-10.121" y="7.381" width="0.3" height="0.3" transform="rotate(240,-9.971,7.531)" />
    <rect id="tm-902" x="-10.121" y="9.21" width="0.3" height="0.3" transform="rotate(240,-9.971,9.36)" />
    <rect id="tm-903" x="-10.324" y="9.21" width="0.3" height="0.3" transform="rotate(240,-10.174,9.36)" />
    <rect id="tm-904" x="2.822" y="9.605" width="0.3" height="0.3" transform="rotate(90,2.972,9.755)" />
    <rect id="tm-905" x="2.822" y="9.809" width="0.3" height="0.3" transform="rotate(90,2.972,9.959)" />
    <rect id="tm-906" x="4.907" y="9.605" width="0.3" height="0.3" transform="rotate(90,5.057,9.755)" />
    <rect id="tm-907" x="4.907" y="9.809" width="0.3" height="0.3" transform="rotate(90,5.057,9.959)" />
    <rect id="tm-908" x="6.937" y="9.809" width="0.3" height="0.3" transform="rotate(90,7.087,9.959)" />
    <rect id="tm-909" x="6.937" y="9.605" width="0.3" height="0.3" transform="rotate(90,7.087,9.755)" />
    <rect id="tm-910" x="9.098" y="9.809" width="0.3" height="0.3" transform="rotate(270,9.248,9.959)" />
    <rect id="tm-911" x="9.098" y="9.605" width="0.3" height="0.3" transform="rotate(90,9.248,9.755)" />
    <rect id="tm-912" x="4.085" y="7.728" width="0.3" height="0.3" transform="rotate(240,4.235,7.878)" />
    <rect id="tm-913" x="4.085" y="4.282" width="0.3" height="0.3" transform="rotate(120,4.235,4.432)" />
    <rect id="tm-914" x="13.961" y="6.855" width="0.3" height="0.3" transform="rotate(240,14.111,7.005)" />
    <rect id="tm-915" x="13.961" y="8.531" width="0.3" height="0.3" transform="rotate(240,14.111,8.681)" />
    <rect id="tm-916" x="13.961" y="9.903" width="0.3" height="0.3" transform="rotate(240,14.111,10.053)" />
    <rect id="tm-917" x="13.961" y="11.579" width="0.3" height="0.3" transform="rotate(240,14.111,11.729)" />
    <rect id="tm-918" x="16.198" y="3.693" width="0.3" height="0.3" transform="rotate(120,16.348,3.843)" />
    <rect id="tm-919" x="-3.503" y="8.638" width="0.3" height="0.3" transform="rotate(270,-3.353,8.788)" />
    <rect id="tm-920" x="-3.503" y="9.731" width="0.3" height="0.3" transform="rotate(270,-3.353,9.881)" />
    <rect id="tm-921" x="-3.503" y="10.838" width="0.3" height="0.3" transform="rotate(270,-3.353,10.988)" />
    <rect id="tm-922" x="-3.528" y="6.895" width="0.3" height="0.3" transform="rotate(180,-3.378,7.045)" />
    <rect id="tm-923" x="-4.824" y="6.895" width="0.3" height="0.3" transform="rotate(180,-4.674,7.045)" />
    <rect id="tm-924" x="-33.418" y="1.957" width="0.3" height="0.3" transform="rotate(120,-33.268,2.107)" />
    <rect id="tm-925" x="-33.418" y="3.844" width="0.3" height="0.3" transform="rotate(120,-33.268,3.994)" />
    <rect id="tm-926" x="-32.09" y="5.133" width="0.3" height="0.3" transform="rotate(90,-31.94,5.283)" />
    <rect id="tm-927" x="-28.433" y="5.133" width="0.3" height="0.3" transform="rotate(90,-28.283,5.283)" />
    <rect id="tm-928" x="-30.251" y="5.133" width="0.3" height="0.3" transform="rotate(90,-30.101,5.283)" />
    <rect id="tm-929" x="-27.311" y="7.133" width="0.3" height="0.3" transform="rotate(120,-27.161,7.283)" />
    <rect id="tm-930" x="-26.899" y="8.59" width="0.3" height="0.3" transform="rotate(211.4,-26.749,8.74)" />
    <rect id="tm-931" x="-28.369" y="12.887" width="0.3" height="0.3" transform="rotate(180,-28.219,13.037)" />
    <rect id="tm-932" x="-21.867" y="12.887" width="0.3" height="0.3" transform="rotate(180,-21.717,13.037)" />
    <rect id="tm-933" x="-17.959" y="9.348" width="0.3" height="0.3" transform="rotate(90,-17.809,9.498)" />
    <rect id="tm-934" x="-16.276" y="8.846" width="0.3" height="0.3" transform="rotate(148.6,-16.126,8.996)" />
    <rect id="tm-935" x="-15.977" y="4.581" width="0.3" height="0.3" transform="rotate(120,-15.827,4.731)" />
    <rect id="tm-936" x="-15.977" y="1.526" width="0.3" height="0.3" transform="rotate(120,-15.827,1.676)" />
    <rect id="tm-937" x="-15.977" y="3.082" width="0.3" height="0.3" transform="rotate(120,-15.827,3.232)" />
    <rect id="tm-938" x="-15.977" y="7.686" width="0.3" height="0.3" transform="rotate(120,-15.827,7.836)" />
    <rect id="tm-939" x="-15.977" y="5.98" width="0.3" height="0.3" transform="rotate(120,-15.827,6.13)" />
    <rect id="tm-940" x="-10.745" y="12.887" width="0.3" height="0.3" transform="rotate(180,-10.595,13.037)" />
    <rect id="tm-941" x="-7.225" y="9.402" width="0.3" height="0.3" transform="rotate(240,-7.075,9.552)" />
    <rect id="tm-942" x="-7.225" y="11.329" width="0.3" height="0.3" transform="rotate(240,-7.075,11.479)" />
    <rect id="tm-943" x="-7.225" y="7.511" width="0.3" height="0.3" transform="rotate(240,-7.075,7.661)" />
    <rect id="tm-944" x="-8.419" y="6.899" width="0.3" height="0.3" transform="rotate(180,-8.269,7.049)" />
    <rect id="tm-945" x="-2.233" y="8.97" width="0.3" height="0.3" transform="rotate(180,-2.083,9.12)" />
    <rect id="tm-946" x="-0.277" y="8.97" width="0.3" height="0.3" transform="rotate(180,-0.127,9.12)" />
    <rect id="tm-947" x="-0.585" y="12.887" width="0.3" height="0.3" transform="rotate(180,-0.435,13.037)" />
    <rect id="tm-948" x="9.619" y="7.718" width="0.3" height="0.3" transform="rotate(180,9.769,7.868)" />
    <rect id="tm-949" x="11.17" y="8.905" width="0.3" height="0.3" transform="rotate(240,11.32,9.055)" />
    <rect id="tm-950" x="11.17" y="10.886" width="0.3" height="0.3" transform="rotate(240,11.32,11.036)" />
    <rect id="tm-951" x="9.575" y="12.887" width="0.3" height="0.3" transform="rotate(180,9.725,13.037)" />
    <rect id="tm-952" x="17.195" y="12.887" width="0.3" height="0.3" transform="rotate(180,17.345,13.037)" />
    <rect id="tm-953" x="16.75" y="6.241" width="0.3" height="0.3" transform="rotate(270,16.9,6.391)" />
    <rect id="tm-954" x="18.775" y="7.819" width="0.3" height="0.3" transform="rotate(244.231,18.925,7.969)" />
    <rect id="tm-955" x="18.571" y="9.369" width="0.3" height="0.3" transform="rotate(244.231,18.721,9.519)" />
    <rect id="tm-956" x="18.3" y="11.427" width="0.3" height="0.3" transform="rotate(244.231,18.45,11.577)" />
    <rect id="tm-983" x="15.925" y="12.88" width="0.3" height="0.3" transform="rotate(180,16.075,13.03)" />
    <rect id="tm-984" x="5.765" y="12.88" width="0.3" height="0.3" transform="rotate(180,5.915,13.03)" />
    <rect id="tm-985" x="-10.745" y="12.88" width="0.3" height="0.3" transform="rotate(180,-10.595,13.03)" />
    <rect id="tm-986" x="-16.635" y="12.88" width="0.3" height="0.3" transform="rotate(180,-16.485,13.03)" />
    <rect id="tm-987" x="-5.763" y="-9.576" width="0.3" height="0.3" transform="rotate(90,-5.613,-9.426)" />
    <rect id="tm-1823" x="5.568" y="5.176" width="0.3" height="0.3" transform="rotate(90,5.718,5.326)" />
    <rect id="tm-1824" x="5.568" y="6.471" width="0.3" height="0.3" transform="rotate(90,5.718,6.621)" />
    <rect id="tm-1825" x="5.568" y="5.824" width="0.3" height="0.3" transform="rotate(90,5.718,5.974)" />
    <rect id="tm-1826" x="15.776" y="5.854" width="0.3" height="0.3" transform="rotate(180,15.926,6.004)" />
    <rect id="tm-1827" x="14.48" y="5.854" width="0.3" height="0.3" transform="rotate(180,14.63,6.004)" />
    <rect id="tm-1828" x="15.128" y="5.854" width="0.3" height="0.3" transform="rotate(180,15.278,6.004)" />
    <rect id="tm-1829" x="-8.869" y="5.854" width="0.3" height="0.3" transform="rotate(180,-8.719,6.004)" />
    <rect id="tm-1830" x="-10.164" y="5.854" width="0.3" height="0.3" transform="rotate(180,-10.014,6.004)" />
    <rect id="tm-1831" x="-9.516" y="5.854" width="0.3" height="0.3" transform="rotate(180,-9.366,6.004)" />
    <rect id="tm-1832" x="1.83" y="4.844" width="0.3" height="0.3" transform="rotate(180,1.98,4.994)" />
    <rect id="tm-1833" x="12.575" y="-0.239" width="0.3" height="0.3" transform="rotate(120,12.725,-0.089)" />
    <rect id="tm-1834" x="12.575" y="-5.217" width="0.3" height="0.3" transform="rotate(120,12.725,-5.067)" />
    <rect id="tm-1835" x="15.128" y="-0.239" width="0.3" height="0.3" transform="rotate(120,15.278,-0.089)" />
    <rect id="tm-1836" x="15.128" y="-5.217" width="0.3" height="0.3" transform="rotate(120,15.278,-5.067)" />
    <rect id="tm-1837" x="-15.009" y="6.772" width="0.3" height="0.3" transform="rotate(240,-14.859,6.922)" />
    <rect id="tm-1838" x="-15.009" y="11.963" width="0.3" height="0.3" transform="rotate(240,-14.859,12.113)" />
    <rect id="tm-1839" x="-12.456" y="6.772" width="0.3" height="0.3" transform="rotate(240,-12.306,6.922)" />
    <rect id="tm-1840" x="-12.456" y="11.963" width="0.3" height="0.3" transform="rotate(240,-12.306,12.113)" />
    <rect id="tm-1841" x="-33.373" y="6.518" width="0.3" height="0.3" transform="rotate(240,-33.223,6.668)" />
    <rect id="tm-1842" x="-33.373" y="11.963" width="0.3" height="0.3" transform="rotate(240,-33.223,12.113)" />
    <rect id="tm-1843" x="-30.821" y="6.518" width="0.3" height="0.3" transform="rotate(240,-30.671,6.668)" />
    <rect id="tm-1844" x="-30.821" y="11.963" width="0.3" height="0.3" transform="rotate(240,-30.671,12.113)" />
    <rect id="tm-1845" x="8.076" y="-2.973" width="0.3" height="0.3" />
    <rect id="tm-1846" x="9.986" y="-6.284" width="0.3" height="0.3" />
    <rect id="tm-1847" x="12.134" y="-8.713" width="0.3" height="0.3" />
    <rect id="tm-1848" x="-4.62" y="11.191" width="0.3" height="0.3" transform="rotate(180,-4.47,11.341)" />
    <rect id="tm-1849" x="-0.887" y="11.191" width="0.3" height="0.3" transform="rotate(180,-0.737,11.341)" />
    <rect id="tm-1850" x="-0.887" y="9.057" width="0.3" height="0.3" transform="rotate(180,-0.737,9.207)" />
    <rect id="tm-1851" x="-4.62" y="7.686" width="0.3" height="0.3" transform="rotate(180,-4.47,7.836)" />
    <rect id="tm-1852" x="13.795" y="9.21" width="0.3" height="0.3" transform="rotate(180,13.945,9.36)" />
    <rect id="tm-1853" x="17.452" y="9.21" width="0.3" height="0.3" transform="rotate(180,17.602,9.36)" />
    <rect id="tm-1854" x="17.452" y="3.733" width="0.3" height="0.3" transform="rotate(180,17.602,3.883)" />
    <rect id="tm-1855" x="-4.824" y="-5.69" width="0.3" height="0.3" transform="rotate(180,-4.674,-5.54)" />
    <rect id="tm-1856" x="-0.556" y="-5.69" width="0.3" height="0.3" transform="rotate(180,-0.406,-5.54)" />
    <rect id="tm-1857" x="5.822" y="5.749" width="0.3" height="0.3" transform="rotate(240,5.972,5.899)" />
    <rect id="tm-1858" x="5.822" y="4.511" width="0.3" height="0.3" transform="rotate(240,5.972,4.661)" />
    <rect id="tm-1859" x="2.723" y="4.943" width="0.3" height="0.3" transform="rotate(120,2.873,5.093)" />
    <rect id="tm-1860" x="5.54" y="3.739" width="0.3" height="0.3" transform="rotate(90,5.69,3.889)" />
    <rect id="tm-1861" x="9.273" y="3.739" width="0.3" height="0.3" transform="rotate(90,9.423,3.889)" />
    <rect id="tm-1862" x="10.239" y="6.889" width="0.3" height="0.3" transform="rotate(180,10.389,7.039)" />
    <rect id="tm-1863" x="7.546" y="6.635" width="0.3" height="0.3" transform="rotate(180,7.696,6.785)" />
    <rect id="tm-1864" x="9.163" y="6.635" width="0.3" height="0.3" transform="rotate(180,9.313,6.785)" />
    <rect id="tm-1865" x="9.804" y="4.247" width="0.3" height="0.3" transform="rotate(240,9.954,4.397)" />
    <rect id="tm-1866" x="2.568" y="5.12" width="0.3" height="0.3" transform="rotate(240,2.718,5.27)" />
    <rect id="tm-1867" x="12.274" y="7.533" width="0.3" height="0.3" transform="rotate(240,12.424,7.683)" />
    <rect id="tm-1868" x="12.274" y="10.581" width="0.3" height="0.3" transform="rotate(240,12.424,10.731)" />
    <rect id="tm-1869" x="1.091" y="9.896" width="0.3" height="0.3" transform="rotate(120,1.241,10.046)" />
    <rect id="tm-1870" x="9.988" y="6.314" width="0.3" height="0.3" transform="rotate(120,10.138,6.464)" />
    <rect id="tm-1871" x="5.822" y="5.146" width="0.3" height="0.3" transform="rotate(240,5.972,5.296)" />
    <rect id="tm-1872" x="12.572" y="3.063" width="0.3" height="0.3" transform="rotate(120,12.722,3.213)" />
    <rect id="tm-1873" x="15.293" y="2.961" width="0.3" height="0.3" transform="rotate(240,15.443,3.111)" />
    <rect id="tm-1874" x="14.405" y="5.6" width="0.3" height="0.3" transform="rotate(180,14.555,5.75)" />
    <rect id="tm-1875" x="13.789" y="5.6" width="0.3" height="0.3" transform="rotate(180,13.939,5.75)" />
    <rect id="tm-1876" x="15.065" y="5.6" width="0.3" height="0.3" transform="rotate(180,15.215,5.75)" />
    <rect id="tm-1877" x="12.572" y="8.143" width="0.3" height="0.3" transform="rotate(120,12.722,8.293)" />
    <rect id="tm-1878" x="12.572" y="10.353" width="0.3" height="0.3" transform="rotate(120,12.722,10.503)" />
    <rect id="tm-1879" x="16.063" y="12.56" width="0.3" height="0.3" transform="rotate(90,16.213,12.71)" />
    <rect id="tm-1880" x="18.975" y="10.367" width="0.3" height="0.3" transform="rotate(244.231,19.125,10.517)" />
    <rect id="tm-1881" x="19.335" y="7.639" width="0.3" height="0.3" transform="rotate(244.231,19.485,7.789)" />
    <rect id="tm-1882" x="19.909" y="3.277" width="0.3" height="0.3" transform="rotate(244.231,20.059,3.427)" />
    <rect id="tm-1883" x="20.452" y="-0.849" width="0.3" height="0.3" transform="rotate(244.231,20.602,-0.699)" />
    <rect id="tm-1884" x="15.928" y="-0.972" width="0.3" height="0.3" transform="rotate(180,16.078,-0.822)" />
    <rect id="tm-1885" x="9.216" y="2.517" width="0.3" height="0.3" transform="rotate(90,9.366,2.667)" />
    <rect id="tm-1886" x="3.085" y="2.517" width="0.3" height="0.3" transform="rotate(90,3.235,2.667)" />
    <rect id="tm-1887" x="-3.046" y="2.517" width="0.3" height="0.3" transform="rotate(90,-2.896,2.667)" />
    <rect id="tm-1888" x="-9.107" y="2.517" width="0.3" height="0.3" transform="rotate(90,-8.957,2.667)" />
    <rect id="tm-1889" x="-5.509" y="4.625" width="0.3" height="0.3" transform="rotate(180,-5.359,4.775)" />
    <rect id="tm-1890" x="-6.173" y="7.076" width="0.3" height="0.3" transform="rotate(120,-6.023,7.226)" />
    <rect id="tm-1891" x="-2.969" y="2.673" width="0.3" height="0.3" transform="rotate(180,-2.819,2.823)" />
    <rect id="tm-1892" x="-3.858" y="4.625" width="0.3" height="0.3" transform="rotate(180,-3.708,4.775)" />
    <rect id="tm-1893" x="-9.351" y="2.987" width="0.3" height="0.3" transform="rotate(240,-9.201,3.137)" />
    <rect id="tm-1894" x="-10.17" y="5.6" width="0.3" height="0.3" transform="rotate(180,-10.02,5.75)" />
    <rect id="tm-1895" x="-11.58" y="5.6" width="0.3" height="0.3" transform="rotate(180,-11.43,5.75)" />
    <rect id="tm-1896" x="-9.586" y="5.6" width="0.3" height="0.3" transform="rotate(180,-9.436,5.75)" />
    <rect id="tm-1897" x="-12.072" y="3.063" width="0.3" height="0.3" transform="rotate(120,-11.922,3.213)" />
    <rect id="tm-1898" x="-30.347" y="11.293" width="0.3" height="0.3" transform="rotate(120,-30.197,11.443)" />
    <rect id="tm-1899" x="-8.303" y="12.88" width="0.3" height="0.3" transform="rotate(180,-8.153,13.03)" />
    <rect id="tm-1900" x="3.533" y="12.56" width="0.3" height="0.3" transform="rotate(90,3.683,12.71)" />
    <rect id="tm-1901" x="9.477" y="12.56" width="0.3" height="0.3" transform="rotate(90,9.627,12.71)" />
    <rect id="tm-1902" x="9.273" y="12.88" width="0.3" height="0.3" transform="rotate(180,9.423,13.03)" />
    <rect id="tm-1903" x="2.161" y="7.078" width="0.3" height="0.3" transform="rotate(180,2.311,7.228)" />
    <rect id="tm-1904" x="9.426" y="6.451" width="0.3" height="0.3" transform="rotate(90,9.576,6.601)" />
    <rect id="tm-1905" x="20.002" y="-3.538" width="0.3" height="0.3" transform="rotate(107.018,20.152,-3.388)" />
    <rect id="tm-1906" x="6.216" y="-1.765" width="0.3" height="0.3" transform="rotate(224.981,6.366,-1.615)" />
    <rect id="tm-1907" x="-8.744" y="-2.857" width="0.3" height="0.3" transform="rotate(107.018,-8.594,-2.707)" />
    <rect id="tm-1908" x="-8.349" y="12.56" width="0.3" height="0.3" transform="rotate(90,-8.199,12.71)" />
    <rect id="tm-1909" x="-6.471" y="10.658" width="0.3" height="0.3" transform="rotate(240,-6.321,10.808)" />
    <rect id="tm-1910" x="-6.471" y="7.991" width="0.3" height="0.3" transform="rotate(240,-6.321,8.141)" />
    <rect id="tm-1911" x="-6.471" y="4.181" width="0.3" height="0.3" transform="rotate(240,-6.321,4.331)" />
    <rect id="tm-1912" x="-12.072" y="8.143" width="0.3" height="0.3" transform="rotate(120,-11.922,8.293)" />
    <rect id="tm-1913" x="-12.072" y="10.963" width="0.3" height="0.3" transform="rotate(120,-11.922,11.113)" />
    <rect id="tm-1914" x="-17.143" y="12.56" width="0.3" height="0.3" transform="rotate(90,-16.993,12.71)" />
    <rect id="tm-1915" x="-24.229" y="12.56" width="0.3" height="0.3" transform="rotate(90,-24.079,12.71)" />
    <rect id="tm-1916" x="-15.393" y="9.794" width="0.3" height="0.3" transform="rotate(240,-15.243,9.944)" />
    <rect id="tm-1917" x="-15.393" y="6.829" width="0.3" height="0.3" transform="rotate(240,-15.243,6.979)" />
    <rect id="tm-1918" x="-33.815" y="3.05" width="0.3" height="0.3" transform="rotate(120,-33.665,3.2)" />
    <rect id="tm-1919" x="-27.945" y="-0.851" width="0.3" height="0.3" transform="rotate(224.981,-27.795,-0.701)" />
    <rect id="tm-1920" x="-21.158" y="-0.413" width="0.3" height="0.3" transform="rotate(224.981,-21.008,-0.263)" />
    <rect id="tm-1921" x="-14.643" y="-0.572" width="0.3" height="0.3" transform="rotate(224.981,-14.493,-0.422)" />
    <rect id="tm-1922" x="-21.486" y="5.705" width="0.3" height="0.3" transform="rotate(180,-21.336,5.855)" />
    <rect id="tm-1923" x="-27.823" y="5.705" width="0.3" height="0.3" transform="rotate(180,-27.673,5.855)" />
    <rect id="tm-1924" x="-27.614" y="8.905" width="0.3" height="0.3" transform="rotate(120,-27.464,9.055)" />
    <rect id="tm-1925" x="7.597" y="6.451" width="0.3" height="0.3" transform="rotate(90,7.747,6.601)" />
    <rect id="tm-1926" x="-15.393" y="11.598" width="0.3" height="0.3" transform="rotate(240,-15.243,11.748)" />
    <rect id="tm-1927" x="-9.156" y="2.86" width="0.3" height="0.3" transform="rotate(120,-9.006,3.01)" />
    <rect id="tm-1928" x="6.073" y="4.427" width="0.3" height="0.3" transform="rotate(90,6.223,4.577)" />
    <rect id="tm-1929" x="15.488" y="3.05" width="0.3" height="0.3" transform="rotate(120,15.638,3.2)" />
  </g>
</svg>