<?xml version="1.0" encoding="utf-8"?>
<svg xmlns="http://www.w3.org/2000/svg" viewBox="-34.935 -13.980 57.708 24.065">
  <g transform="scale(1,-1)">
    <path id="w-33" d="M -15.094,5.855 L -15.094,2.816" />
    <path id="w-34" d="M 21.663,-7.459 L 20.863,-1.379" />
    <path id="w-35" d="M 20.863,-1.379 L 18.987,12.87" />
    <path id="w-57" d="M -12.03,2.745 L -1.856,2.745" />
    <path id="w-58" d="M -1.856,5.674 L -1.856,2.745" />
    <path id="w-59" d="M 1.092,2.745 L 15.532,2.745" />
    <path id="w-60" d="M -6.183,-8.395 L -6.183,-0.533" />
    <path id="w-61" d="M 1.103,-8.395 L 1.103,-0.533" />
    <path id="w-70" d="M 12.573,2.745 L 12.573,12.87" />
    <path id="w-71" d="M -6.172,2.745 L -6.172,12.87" />
    <path id="w-971" d="M 10.798,3.951 L 10.046,3.951" />
    <path id="w-972" d="M 10.046,6.977 L 10.046,3.981" />
    <path id="w-973" d="M 6.064,6.723 L 7.45,6.723" />
    <path id="w-974" d="M 6.034,3.951 L 6.034,4.653" />
    <path id="w-975" d="M 10.798,6.977 L 10.046,6.977" />
    <path id="w-976" d="M 7.133,3.981 L 7.133,4.653" />
    <path id="w-977" d="M 7.133,4.653 L 6.034,4.653" />
    <path id="w-978" d="M 6.064,6.977 L 5.312,6.977" />
    <path id="w-979" d="M 7.099,6.09 L 7.099,5.661" />
    <path id="w-980" d="M 10.046,4.866 L 9.242,4.866" />
    <path id="w-981" d="M 6.034,3.951 L 5.312,3.951" />
    <path id="w-982" d="M 7.133,3.951 L 6.034,3.951" />
    <path id="w-79" d="M -6.172,0.737 L 1.092,0.737" />
    <path id="w-97" d="M -13.897,5.663 L -13.897,2.816" />
    <path id="w-98" d="M -13.954,2.816 L -15.094,2.816" />
    <path id="w-983" d="M 15.532,2.729 L 15.532,4.077" />
    <path id="w-984" d="M 16.293,2.729 L 16.293,4.077" />
    <path id="w-985" d="M 12.573,5.658 L 16.293,5.658" />
    <path id="w-986" d="M 16.293,5.658 L 16.293,6.48" />
    <path id="w-987" d="M 12.573,4.713 L 13.637,4.713" />
    <path id="w-988" d="M 12.573,3.675 L 13.637,3.675" />
    <path id="w-989" d="M -15.156,-8.153 L -15.156,-1.921" />
    <path id="w-101" d="M -6.344,-0.538 L -7.782,-0.538" />
    <path id="w-102" d="M 1.264,-0.538 L 2.326,-0.538" />
    <path id="w-103" d="M -28.211,-2.001 L -32.572,-0.013" />
    <path id="w-104" d="M -28.211,-2.001 L -26.944,0.778" />
    <path id="w-106" d="M -21.619,-1.99 L -25.98,-0.003" />
    <path id="w-107" d="M -21.619,-1.99 L -20.352,0.789" />
    <path id="w-108" d="M -15.026,-1.98 L -19.387,0.008" />
    <path id="w-109" d="M -15.026,-1.98 L -13.76,0.799" />
    <path id="w-111" d="M -8.419,-1.935 L -12.78,0.052" />
    <path id="w-112" d="M -8.419,-1.935 L -7.782,-0.538" />
    <path id="w-113" d="M 6.509,-0.853 L 3.073,0.713" />
    <path id="w-114" d="M 6.509,-0.853 L 7.062,0.36" />
    <path id="w-115" d="M 11.615,-1.839 L 8.147,-0.259" />
    <path id="w-116" d="M 11.615,-1.839 L 11.968,-1.063" />
    <path id="w-117" d="M 8.194,-0.156 L 7.062,0.36" />
    <path id="w-118" d="M 2.326,-0.538 L 3.04,1.029" />
    <path id="w-119" d="M 12.421,-0.987 L 12.003,-0.987" />
    <path id="w-120" d="M -13.954,2.816 L -13.954,0.429" />
    <path id="w-122" d="M 16.939,-0.983 L 15.651,-0.983" />
    <path id="w-123" d="M 20.285,-2.648 L 16.825,-1.071" />
    <path id="w-124" d="M 20.285,-2.648 L 20.863,-1.379" />
    <path id="w-125" d="M -12.733,0.155 L -13.681,0.587" />
    <path id="w-128" d="M -6.172,4.713 L -1.856,4.713" />
    <path id="w-990" d="M 6.064,4.653 L 6.064,6.977" />
    <path id="w-991" d="M 7.45,6.723 L 7.45,6.09" />
    <path id="w-992" d="M 7.099,5.661 L 7.483,5.661" />
    <path id="w-143" d="M 2.811,4.05 L 2.811,2.745" />
    <path id="w-993" d="M 7.099,6.09 L 7.483,6.09" />
    <path id="w-994" d="M 7.483,6.09 L 7.483,5.661" />
    <path id="w-995" d="M 6.064,6.026 L 7.099,6.026" />
    <path id="w-996" d="M -9.112,2.745 L -9.112,4.077" />
    <path id="w-997" d="M -8.352,2.745 L -8.352,4.077" />
    <path id="w-998" d="M -12.154,5.658 L -8.352,5.658" />
    <path id="w-999" d="M -8.352,5.658 L -8.352,6.48" />
    <path id="w-1000" d="M -12.03,4.713 L -11.008,4.713" />
    <path id="w-1001" d="M -12.03,3.675 L -11.008,3.675" />
    <path id="w-175" d="M -11.138,2.745 L -11.138,1.416" />
    <path id="w-176" d="M -12.03,2.745 L -12.03,5.663" />
    <path id="w-177" d="M -11.962,12.87 L -11.962,5.663" />
    <path id="w-178" d="M -11.962,5.663 L -15.203,5.663" />
    <path id="w-179" d="M -11.138,1.416 L -11.935,-0.333" />
    <path id="w-180" d="M 1.233,8.561 L -1.894,8.561" />
    <path id="w-181" d="M -1.894,8.561 L -1.894,5.713" />
    <path id="w-182" d="M 1.233,8.561 L 1.233,7.15" />
    <path id="w-183" d="M 1.218,5.713 L -1.894,5.713" />
    <path id="w-184" d="M 1.218,5.713 L 1.218,6.159" />
    <path id="w-1002" d="M 7.45,6.693 L 10.046,6.693" />
    <path id="w-185" d="M -30.326,5.663 L -33.825,5.663" />
    <path id="w-186" d="M -27.518,10.492 L -30.282,10.492" />
    <path id="w-187" d="M -30.282,12.87 L -30.282,10.492" />
    <path id="w-188" d="M -27.518,7.644 L -30.326,7.644" />
    <path id="w-189" d="M -27.518,10.492 L -27.518,7.644" />
    <path id="w-190" d="M -30.326,7.644 L -30.326,5.663" />
    <path id="w-191" d="M -28.002,12.87 L -28.002,10.492" />
    <path id="w-192" d="M -15.203,12.87 L -15.203,5.634" />
    <path id="w-198" d="M -6.483,-8.131 L -6.483,-8.74" />
    <path id="w-199" d="M -6.483,-8.74 L -6.02,-8.74" />
    <path id="w-200" d="M -6.483,-8.131 L -6.172,-8.131" />
    <path id="w-201" d="M 1.403,-8.131 L 1.403,-8.74" />
    <path id="w-202" d="M 1.403,-8.74 L 0.939,-8.74" />
    <path id="w-203" d="M 1.403,-8.131 L 1.103,-8.131" />
    <path id="w-205" d="M 12.381,0.916 L 12.381,-0.987" />
    <path id="w-206" d="M 15.623,0.916 L 15.623,-0.983" />
    <path id="w-207" d="M 15.623,0.916 L 12.381,0.916" />
    <path id="w-214" d="M 21.139,-7.528 L 21.206,-8.035" />
    <path id="w-215" d="M 21.139,-7.528 L 21.663,-7.459" />
    <path id="w-1003" d="M -14.754,-3.874 L -6.477,-3.874" />
    <path id="w-232" d="M 15.584,0.916 L 15.584,2.729" />
    <path id="w-233" d="M 16.293,2.729 L 15.532,2.729" />
    <path id="w-1004" d="M -14.754,-8.379 L -6.477,-8.379" />
    <path id="w-255" d="M 12.352,-0.838 L 12.352,-6.355" />
    <path id="w-256" d="M 12.352,-6.355 L 15.651,-6.355" />
    <path id="w-257" d="M 15.651,-6.355 L 15.651,-0.983" />
    <path id="w-1005" d="M -33.825,0.762 L -15.094,0.762" />
    <path id="w-285" d="M 6.942,0.414 L 7.21,1.002" />
    <path id="w-286" d="M 7.21,1.002 L 7.581,0.833" />
    <path id="w-287" d="M 7.581,0.833 L 7.313,0.245" />
    <path id="w-288" d="M 1.092,-0.533 L 1.092,0.483" />
    <path id="w-289" d="M 1.235,-0.533 L 1.235,0.483" />
    <path id="w-290" d="M -6.172,-0.533 L -6.172,0.483" />
    <path id="w-291" d="M -6.315,-0.533 L -6.315,0.483" />
    <path id="w-1006" d="M -14.945,-8.138 L -14.945,5.663" />
    <path id="w-1007" d="M -11.962,12.621 L -6.477,12.621" />
    <path id="w-1008" d="M -5.972,-3.874 L 0.892,-3.874" />
    <path id="w-1009" d="M 1.092,-8.401 L 12.576,-8.401" />
    <path id="w-1010" d="M 15.661,-8.45 L 21.258,-7.713" />
    <path id="w-1013" d="M 16.589,-8.432 L 21.05,-7.844" />
    <path id="w-1018" d="M 1.264,-8.975 L 4.292,-8.975" />
    <path id="w-1021" d="M -8.763,-3.062 L -8.713,-2.952" />
    <path id="w-1022" d="M 10.046,3.981 L 7.133,3.981" />
    <path id="w-1023" d="M 12.722,6.407 L 16.297,6.407" />
    <path id="w-1024" d="M 16.297,6.407 L 16.297,2.823" />
    <path id="w-1025" d="M -11.922,6.407 L -8.347,6.407" />
    <path id="w-1026" d="M -8.347,6.407 L -8.347,2.823" />
    <path id="w-1027" d="M -14.754,0.762 L -6.477,0.762" />
    <path id="w-1028" d="M -11.962,5.855 L -6.477,5.855" />
    <path id="w-297" d="M 20.614,0.511 L 19.334,0.511" />
    <path id="w-298" d="M 19.334,0.511 L 19.334,1.775" />
    <path id="w-299" d="M 19.334,1.775 L 20.448,1.775" />
    <path id="w-1029" d="M -6.172,0.762 L 1.092,0.762" />
    <path id="w-1030" d="M -5.867,5.855 L -1.894,5.855" />
    <path id="w-1031" d="M -6.172,8.42 L -1.894,8.42" />
    <path id="w-1032" d="M 1.092,-3.879 L 6.985,-3.879" />
    <path id="w-1033" d="M 1.092,0.756 L 12.573,0.756" />
    <path id="w-1034" d="M 1.218,5.849 L 7.071,5.849" />
    <path id="w-1035" d="M 1.092,12.646 L 6.985,12.646" />
    <path id="w-1036" d="M 7.512,5.849 L 12.573,5.849" />
    <path id="w-1037" d="M 7.595,-3.879 L 12.573,-3.879" />
    <path id="w-1038" d="M 5.366,7.01 L 10.744,7.01" />
    <path id="w-1039" d="M 10.744,7.01 L 10.744,3.943" />
    <path id="w-1040" d="M 10.744,3.943 L 5.366,3.943" />
    <path id="w-1041" d="M 5.366,3.943 L 5.366,7.01" />
    <path id="w-1042" d="M -32.297,0.203 L -32.042,0.762" />
    <path id="w-1043" d="M -25.705,0.213 L -25.455,0.762" />
    <path id="w-1044" d="M -19.113,0.224 L -18.868,0.762" />
    <path id="w-1045" d="M -5.867,12.652 L 0.787,12.652" />
    <path id="w-1046" d="M 7.595,12.646 L 12.573,12.646" />
    <path id="w-1047" d="M 12.573,12.621 L 19.02,12.621" />
    <path id="w-1048" d="M -14.786,-4.983 L -14.786,-8.378" />
    <path id="w-1050" d="M -14.786,-8.378 L -12.264,-8.378" />
    <path id="w-1051" d="M 15.532,4.077 L 15.532,5.658" />
    <path id="w-1052" d="M -9.112,4.077 L -9.112,5.658" />
    <path id="w-1053" d="M 15.532,4.077 L 16.293,4.077" />
    <path id="w-1054" d="M -9.112,4.077 L -8.352,4.077" />
    <path id="w-1055" d="M 12.573,5.855 L 19.395,5.855" />
    <path id="w-1056" d="M -30.282,12.631 L -27.924,12.631" />
    <path id="w-1057" d="M -30.326,5.855 L -15.203,5.855" />
    <path id="w-1058" d="M -27.368,12.631 L -21.641,12.631" />
    <path id="w-1059" d="M -21.031,12.631 L -15.203,12.631" />
    <path id="w-1060" d="M 15.623,-3.874 L 20.676,-3.874" />
    <path id="w-1061" d="M 15.662,0.756 L 20.065,0.756" />
  </g>
</svg>