<?xml version="1.0" encoding="utf-8"?>
<svg xmlns="http://www.w3.org/2000/svg" viewBox="-34.315 -23.322 56.245 32.983">
  <g transform="scale(1,-1)">
    <line id="co-19" x1="-28.644" y1="1.662" x2="-28.644" y2="1.788" stroke="black" stroke-width="0.1" stroke-linecap="square" />
    <line id="co-20" x1="-28.644" y1="-1.382" x2="-28.644" y2="-1.382" stroke="black" stroke-width="0.1" stroke-linecap="square" />
    <line id="co-21" x1="-28.25" y1="2.181" x2="-17.455" y2="2.181" stroke="black" stroke-width="0.1" stroke-linecap="square" />
    <line id="co-22" x1="-17.062" y1="2.575" x2="-17.062" y2="9.96" stroke="black" stroke-width="0.1" stroke-linecap="square" />
    <line id="co-23" x1="-16.668" y1="10.353" x2="-15.824" y2="10.353" stroke="black" stroke-width="0.1" stroke-linecap="square" />
    <line id="co-24" x1="-21.932" y1="1.662" x2="-21.932" y2="1.686" stroke="black" stroke-width="0.1" stroke-linecap="square" />
    <line id="co-25" x1="-21.932" y1="-1.426" x2="-21.932" y2="-1.426" stroke="black" stroke-width="0.1" stroke-linecap="square" />
    <line id="co-26" x1="-21.538" y1="2.08" x2="-17.354" y2="2.08" stroke="black" stroke-width="0.1" stroke-linecap="square" />
    <line id="co-27" x1="-15.35" y1="1.662" x2="-15.35" y2="1.686" stroke="black" stroke-width="0.1" stroke-linecap="square" />
    <line id="co-28" x1="-15.35" y1="-1.41" x2="-15.35" y2="-1.41" stroke="black" stroke-width="0.1" stroke-linecap="square" />
    <line id="co-29" x1="-15.744" y1="2.08" x2="-16.465" y2="2.08" stroke="black" stroke-width="0.1" stroke-linecap="square" />
    <line id="co-30" x1="-16.859" y1="2.473" x2="-16.859" y2="7.325" stroke="black" stroke-width="0.1" stroke-linecap="square" />
    <line id="co-31" x1="-16.96" y1="2.473" x2="-16.96" y2="9.154" stroke="black" stroke-width="0.1" stroke-linecap="square" />
    <line id="co-32" x1="-16.566" y1="9.547" x2="-15.824" y2="9.547" stroke="black" stroke-width="0.1" stroke-linecap="square" />
    <line id="co-33" x1="-16.465" y1="7.718" x2="-15.824" y2="7.718" stroke="black" stroke-width="0.1" stroke-linecap="square" />
    <line id="co-34" x1="-8.79" y1="-0.992" x2="-8.79" y2="1.815" stroke="black" stroke-width="0.1" stroke-linecap="square" />
    <line id="co-35" x1="-8.79" y1="-1.385" x2="-8.79" y2="-1.385" stroke="black" stroke-width="0.1" stroke-linecap="square" />
    <line id="co-37" x1="-16.757" y1="2.603" x2="-16.757" y2="7.202" stroke="black" stroke-width="0.1" stroke-linecap="square" />
    <line id="co-38" x1="-16.363" y1="7.596" x2="-15.824" y2="7.596" stroke="black" stroke-width="0.1" stroke-linecap="square" />
    <line id="co-39" x1="16.785" y1="-0.663" x2="16.667" y2="-0.609" stroke="black" stroke-width="0.1" stroke-linecap="square" />
    <line id="co-40" x1="10.889" y1="-1.119" x2="10.732" y2="-1.048" stroke="black" stroke-width="0.1" stroke-linecap="square" />
    <line id="co-41" x1="5.898" y1="-0.185" x2="5.724" y2="-0.105" stroke="black" stroke-width="0.1" stroke-linecap="square" />
    <line id="co-42" x1="-9.018" y1="-1.273" x2="-9.174" y2="-1.201" stroke="black" stroke-width="0.1" stroke-linecap="square" />
    <line id="co-43" x1="-15.578" y1="-1.298" x2="-15.723" y2="-1.232" stroke="black" stroke-width="0.1" stroke-linecap="square" />
    <line id="co-44" x1="-22.16" y1="-1.313" x2="-22.262" y2="-1.267" stroke="black" stroke-width="0.1" stroke-linecap="square" />
    <line id="co-45" x1="-28.872" y1="-1.269" x2="-29.026" y2="-1.199" stroke="black" stroke-width="0.1" stroke-linecap="square" />
    <line id="co-46" x1="17.013" y1="-0.382" x2="17.013" y2="2.12" stroke="black" stroke-width="0.1" stroke-linecap="square" />
    <line id="co-47" x1="17.013" y1="-0.776" x2="17.013" y2="-0.776" stroke="black" stroke-width="0.1" stroke-linecap="square" />
    <line id="co-49" x1="11.117" y1="-0.838" x2="11.117" y2="2.019" stroke="black" stroke-width="0.1" stroke-linecap="square" />
    <line id="co-50" x1="11.117" y1="-1.232" x2="11.117" y2="-1.232" stroke="black" stroke-width="0.1" stroke-linecap="square" />
    <line id="co-52" x1="6.126" y1="0.096" x2="6.126" y2="1.917" stroke="black" stroke-width="0.1" stroke-linecap="square" />
    <line id="co-53" x1="6.126" y1="-0.297" x2="6.126" y2="-0.297" stroke="black" stroke-width="0.1" stroke-linecap="square" />
    <line id="co-55" x1="-16.655" y1="2.704" x2="-16.655" y2="6.16" stroke="black" stroke-width="0.1" stroke-linecap="square" />
    <line id="co-56" x1="-16.554" y1="2.806" x2="-16.554" y2="6.058" stroke="black" stroke-width="0.1" stroke-linecap="square" />
    <line id="co-57" x1="-16.452" y1="2.908" x2="-16.452" y2="5.956" stroke="black" stroke-width="0.1" stroke-linecap="square" />
    <line id="co-58" x1="-16.058" y1="6.35" x2="-15.824" y2="6.35" stroke="black" stroke-width="0.1" stroke-linecap="square" />
    <line id="co-59" x1="-16.16" y1="6.452" x2="-15.824" y2="6.452" stroke="black" stroke-width="0.1" stroke-linecap="square" />
    <line id="co-60" x1="-16.262" y1="6.553" x2="-15.824" y2="6.553" stroke="black" stroke-width="0.1" stroke-linecap="square" />
    <line id="co-61" x1="-15.57" y1="10.122" x2="-15.57" y2="10.122" stroke="black" stroke-width="0.1" stroke-linecap="square" />
    <line id="co-62" x1="-15.57" y1="9.207" x2="-15.57" y2="9.208" stroke="black" stroke-width="0.1" stroke-linecap="square" />
    <line id="co-63" x1="-15.57" y1="7.379" x2="-15.57" y2="7.379" stroke="black" stroke-width="0.1" stroke-linecap="square" />
    <line id="co-64" x1="-15.57" y1="6.464" x2="-15.57" y2="6.464" stroke="black" stroke-width="0.1" stroke-linecap="square" />
    <line id="co-65" x1="-28.644" y1="-0.988" x2="-28.644" y2="-0.138" stroke="black" stroke-width="0.1" stroke-linecap="square" />
    <line id="co-66" x1="-28.644" y1="0.774" x2="-28.644" y2="0.75" stroke="black" stroke-width="0.1" stroke-linecap="square" />
    <line id="co-67" x1="-21.932" y1="-1.032" x2="-21.932" y2="-0.138" stroke="black" stroke-width="0.1" stroke-linecap="square" />
    <line id="co-68" x1="-21.932" y1="0.774" x2="-21.932" y2="0.75" stroke="black" stroke-width="0.1" stroke-linecap="square" />
    <line id="co-69" x1="-21.932" y1="0.198" x2="-21.932" y2="0.414" stroke="black" stroke-width="0.1" stroke-linecap="square" />
    <line id="co-70" x1="-21.932" y1="1.326" x2="-21.932" y2="1.11" stroke="black" stroke-width="0.1" stroke-linecap="square" />
    <line id="co-71" x1="-28.644" y1="0.198" x2="-28.644" y2="0.414" stroke="black" stroke-width="0.1" stroke-linecap="square" />
    <line id="co-72" x1="-28.644" y1="1.326" x2="-28.644" y2="1.11" stroke="black" stroke-width="0.1" stroke-linecap="square" />
    <line id="co-73" x1="-15.35" y1="-1.017" x2="-15.35" y2="-0.138" stroke="black" stroke-width="0.1" stroke-linecap="square" />
    <line id="co-74" x1="-15.35" y1="0.774" x2="-15.35" y2="0.75" stroke="black" stroke-width="0.1" stroke-linecap="square" />
    <line id="co-75" x1="-15.35" y1="0.198" x2="-15.35" y2="0.414" stroke="black" stroke-width="0.1" stroke-linecap="square" />
    <line id="co-76" x1="-15.35" y1="1.326" x2="-15.35" y2="1.11" stroke="black" stroke-width="0.1" stroke-linecap="square" />
    <line id="co-267" x1="-7.544" y1="8.325" x2="-7.544" y2="8.325" stroke="black" stroke-width="0.1" stroke-linecap="square" />
  </g>
</svg>