<?xml version="1.0" encoding="utf-8"?>
<svg xmlns="http://www.w3.org/2000/svg" viewBox="-132.909 190.877 21.419 23.638">
  <g transform="scale(1,-1)">
    <rect id="mn-45" x="-121.674" y="-195.183" width="0.05" height="0.05" fill="black" transform="rotate(120,-121.649,-195.158)" />
    <rect id="mn-46" x="-112.165" y="-197.774" width="0.05" height="0.05" fill="black" transform="rotate(240,-112.14,-197.749)" />
    <rect id="mn-47" x="-112.927" y="-195.031" width="0.05" height="0.05" fill="black" transform="rotate(180,-112.902,-195.006)" />
    <rect id="mn-48" x="-112.927" y="-193.38" width="0.05" height="0.05" fill="black" transform="rotate(120,-112.902,-193.355)" />
    <rect id="mn-49" x="-112.317" y="-204.88" width="0.05" height="0.05" fill="black" transform="rotate(180,-112.292,-204.855)" />
    <rect id="mn-50" x="-113.494" y="-204.88" width="0.05" height="0.05" fill="black" transform="rotate(180,-113.469,-204.855)" />
    <rect id="mn-61" x="-130.925" y="-195.031" width="0.05" height="0.05" fill="black" transform="rotate(180,-130.9,-195.006)" />
    <rect id="mn-62" x="-130.925" y="-191.552" width="0.05" height="0.05" fill="black" transform="rotate(120,-130.9,-191.527)" />
    <rect id="mn-63" x="-130.925" y="-195.335" width="0.05" height="0.05" fill="black" transform="rotate(180,-130.9,-195.31)" />
    <rect id="mn-64" x="-130.925" y="-197.774" width="0.05" height="0.05" fill="black" transform="rotate(240,-130.9,-197.749)" />
    <rect id="mn-65" x="-126.201" y="-195.031" width="0.05" height="0.05" fill="black" transform="rotate(180,-126.176,-195.006)" />
    <rect id="mn-66" x="-126.201" y="-191.552" width="0.05" height="0.05" fill="black" transform="rotate(120,-126.176,-191.527)" />
    <rect id="mn-67" x="-122.086" y="-195.031" width="0.05" height="0.05" fill="black" transform="rotate(180,-122.061,-195.006)" />
    <rect id="mn-68" x="-122.086" y="-191.552" width="0.05" height="0.05" fill="black" transform="rotate(120,-122.061,-191.527)" />
    <rect id="mn-69" x="-117.666" y="-195.031" width="0.05" height="0.05" fill="black" transform="rotate(180,-117.641,-195.006)" />
    <rect id="mn-70" x="-117.666" y="-191.552" width="0.05" height="0.05" fill="black" transform="rotate(120,-117.641,-191.527)" />
    <rect id="mn-71" x="-126.201" y="-195.335" width="0.05" height="0.05" fill="black" transform="rotate(180,-126.176,-195.31)" />
    <rect id="mn-72" x="-126.201" y="-197.774" width="0.05" height="0.05" fill="black" transform="rotate(240,-126.176,-197.749)" />
    <rect id="mn-81" x="-112.165" y="-201.105" width="0.05" height="0.05" fill="black" transform="rotate(240,-112.14,-201.08)" />
    <rect id="mn-82" x="-112.165" y="-195.183" width="0.05" height="0.05" fill="black" transform="rotate(90,-112.14,-195.158)" />
    <rect id="mn-83" x="-112.165" y="-200.597" width="0.05" height="0.05" fill="black" transform="rotate(120,-112.14,-200.572)" />
  </g>
</svg>