<?xml version="1.0" encoding="utf-8"?>
<svg xmlns="http://www.w3.org/2000/svg" viewBox="-33.918 -13.687 55.2 23.839">
  <g transform="scale(1,-1)">
    <rect id="tm-113" x="-25.941" y="11.258" width="0.3" height="0.3" fill="black" transform="rotate(180,-25.791,11.408)" />
    <rect id="tm-114" x="-24.077" y="11.258" width="0.3" height="0.3" fill="black" transform="rotate(180,-23.927,11.408)" />
    <rect id="tm-115" x="-21.569" y="11.258" width="0.3" height="0.3" fill="black" transform="rotate(180,-21.419,11.408)" />
    <rect id="tm-116" x="-19.029" y="11.258" width="0.3" height="0.3" fill="black" transform="rotate(180,-18.879,11.408)" />
    <rect id="tm-117" x="-26.272" y="9.761" width="0.3" height="0.3" fill="black" transform="rotate(120,-26.122,9.911)" />
    <rect id="tm-118" x="-26.272" y="8.169" width="0.3" height="0.3" fill="black" transform="rotate(120,-26.122,8.319)" />
    <rect id="tm-119" x="-24.255" y="12.88" width="0.3" height="0.3" fill="black" transform="rotate(180,-24.105,13.03)" />
    <rect id="tm-120" x="-25.953" y="2.523" width="0.3" height="0.3" fill="black" transform="rotate(90,-25.803,2.673)" />
    <rect id="tm-354" x="-29.335" y="12.88" width="0.3" height="0.3" fill="black" transform="rotate(180,-29.185,13.03)" />
    <rect id="tm-481" x="-18.333" y="2.479" width="0.3" height="0.3" fill="black" transform="rotate(90,-18.183,2.629)" />
  </g>
</svg>