<?xml version="1.0" encoding="utf-8"?>
<svg xmlns="http://www.w3.org/2000/svg" viewBox="-14.069 -7.642 35.676 17.525">
  <g transform="scale(1,-1)">
    <polygon id="cl-20" points="-11.998,0.838 -6.477,0.838 -6.172,0.838 -6.172,0.895 0.787,0.895 0.787,1.067 1.397,1.067 1.397,0.838 6.985,0.838 6.985,0.894 6.985,1.067 7.595,1.067 7.595,0.894 7.595,0.838 12.341,0.838 12.341,0.894 12.341,0.956 15.662,0.956 15.662,0.838 17.049,0.838 17.049,2.667 0.943,2.667 0.943,5.674 -1.778,5.674 -1.778,2.667 -11.998,2.667 -11.998,0.894" />
    <polygon id="cl-21" points="0.301,0.299 -5.491,0.299 -5.491,-7.93 0.301,-7.93" />
    <polygon id="cl-22" points="0.638,-8.868 -0.13,-8.868 -0.13,-9.197 0.638,-9.197" />
    <polygon id="cl-23" points="0.638,-8.868 0.559,-8.868 -0.051,-8.868 -0.13,-8.868 -0.13,-9.197 -0.051,-9.197 0.559,-9.197 0.638,-9.197" />
    <polygon id="cl-24" points="-5.718,-8.868 -5.718,-9.197 -4.95,-9.197 -4.95,-8.868" />
    <polygon id="cl-25" points="-4.95,-8.868 -5.029,-8.868 -5.639,-8.868 -5.718,-8.868 -5.718,-9.197 -5.639,-9.197 -5.029,-9.197 -4.95,-9.197" />
    <polygon id="cl-26" points="0.787,-8.496 -0.353,-8.496 -0.353,-8.7 0.787,-8.7" />
    <polygon id="cl-27" points="2.718,6.082 1.241,6.082 1.241,5.713 1.241,4.205 2.718,4.205" />
    <polygon id="cl-28" points="1.397,-8.585 1.397,-8.998 12.427,-8.998 12.427,-8.534 1.241,-8.534 1.241,-8.585" />
    <polygon id="cl-29" points="-8.401,2.823 -8.401,6.353 -11.922,6.353 -11.922,5.663 -11.922,2.823" />
    <polygon id="cl-30" points="16.243,2.823 16.243,6.353 12.722,6.353 12.722,5.663 12.722,2.823" />
    <polygon id="cl-31" points="10.69,3.997 10.69,6.956 5.42,6.956 5.42,3.997" />
    <polygon id="cl-32" points="-8.112,-3.578 -8.112,-0.645 -13.383,-0.645 -13.383,-3.578" />
    <polygon id="cl-33" points="8.144,-3.578 8.144,-0.645 2.873,-0.645 2.873,-3.578" />
    <polygon id="cl-34" points="17.019,0.683 17.019,-3.051 20.921,-3.051 20.43,0.683" />
  </g>
</svg>