<?xml version="1.0" encoding="utf-8"?>
<svg xmlns="http://www.w3.org/2000/svg" viewBox="-34.446 -14.113 55.956 24.697">
  <g transform="scale(1,-1)">
    <path id="du-279" d="M -3.353,8.479 L -3.353,11.711" />
    <path id="du-280" d="M -2.845,8.053 L -2.845,8.815" />
    <path id="du-281" d="M -2.54,9.12 L 0.356,9.12" />
    <path id="du-282" d="M -3.505,6.166 L -4.093,6.166" />
    <path id="du-283" d="M -4.245,6.318 L -4.245,13.037" />
    <path id="du-284" d="M -2.845,6.623 L -2.845,6.318" />
    <path id="du-285" d="M -2.692,6.166 L -2.388,6.166" />
    <path id="du-286" d="M -2.235,8.278 L -2.235,6.318" />
    <path id="du-287" d="M -2.235,8.41 L -2.235,8.439" />
    <path id="du-288" d="M -0.435,12.37 L -0.435,12.255" />
    <path id="du-289" d="M -0.435,12.123 L -0.435,10.013" />
    <path id="du-290" d="M -2.235,8.571 L -2.235,8.636" />
    <path id="du-291" d="M -2.083,8.788 L -0.927,8.788" />
    <path id="du-292" d="M -0.819,8.833 L -0.48,9.172" />
    <path id="du-293" d="M -0.435,9.28 L -0.435,9.517" />
    <path id="du-294" d="M -0.435,9.649 L -0.435,9.881" />
    <path id="du-295" d="M -3.505,8.327 L -3.532,8.327" />
    <path id="du-296" d="M -3.353,8.053 L -3.353,8.175" />
    <path id="du-297" d="M -4.086,8.327 L -5.157,8.327" />
    <path id="du-298" d="M -5.372,8.238 L -5.815,7.795" />
    <path id="du-299" d="M -5.904,7.58 L -5.904,6.588" />
    <path id="du-300" d="M -3.822,8.327 L -3.796,8.327" />
    <path id="du-301" d="M -10.072,3.232 L -10.072,3.149" />
    <path id="du-302" d="M -10.174,3.048 L -10.631,3.048" />
    <path id="du-303" d="M -9.564,3.232 L -9.564,3.003" />
    <path id="du-304" d="M -9.666,2.902 L -10.796,2.902" />
    <path id="du-305" d="M -10.733,3.149 L -10.733,5.246" />
    <path id="du-306" d="M -10.898,3.003 L -10.898,4.998" />
    <path id="du-307" d="M -10.733,5.378 L -10.733,5.518" />
    <path id="du-308" d="M -10.733,5.65 L -10.733,5.982" />
    <path id="du-309" d="M -10.733,6.114 L -10.733,6.331" />
    <path id="du-310" d="M -10.733,6.463 L -10.733,11.9" />
    <path id="du-311" d="M -11.311,6.476 L -11.311,12.103" />
    <path id="du-312" d="M -11.311,6.344 L -11.311,6.13" />
    <path id="du-313" d="M -11.311,5.998 L -11.311,5.711" />
    <path id="du-314" d="M -10.943,5.105 L -11.195,5.358" />
    <path id="du-315" d="M -11.279,5.442 L -11.295,5.458" />
    <path id="du-316" d="M -11.311,5.492 L -11.311,5.579" />
    <path id="du-317" d="M -11.159,12.256 L -10.967,12.256" />
    <path id="du-318" d="M -10.833,12.256 L -10.669,12.256" />
    <path id="du-319" d="M -10.688,12.008 L -10.485,12.211" />
    <path id="du-320" d="M -10.377,12.256 L -7.336,12.256" />
    <path id="du-321" d="M -7.228,12.256 L -6.893,12.256" />
    <path id="du-322" d="M -6.785,12.408 L -6.785,13.037" />
    <path id="du-323" d="M -10.072,6.54 L -10.072,11.851" />
    <path id="du-324" d="M -10.072,4.759 L -10.072,4.662" />
    <path id="du-325" d="M -10.072,5.424 L -10.072,5.512" />
    <path id="du-326" d="M -10.072,5.776 L -10.072,5.924" />
    <path id="du-327" d="M -10.072,6.276 L -10.072,6.188" />
    <path id="du-328" d="M -10.072,4.911 L -10.072,4.911" />
    <path id="du-329" d="M -10.072,5.16 L -10.072,5.063" />
    <path id="du-330" d="M -9.564,6.643 L -9.564,6.581" />
    <path id="du-331" d="M -9.26,6.948 L -7.278,6.948" />
    <path id="du-332" d="M -6.974,7.253 L -6.974,11.851" />
    <path id="du-333" d="M -9.564,4.662 L -9.564,5.16" />
    <path id="du-334" d="M -9.564,5.776 L -9.564,6.153" />
    <path id="du-335" d="M -9.564,5.424 L -9.564,5.512" />
    <path id="du-336" d="M -9.564,6.428 L -9.564,6.306" />
    <path id="du-337" d="M 8.638,6.92 L 8.638,5.742" />
    <path id="du-338" d="M 8.13,6.358 L 8.13,6.721" />
    <path id="du-339" d="M 8.13,4.312 L 8.13,4.287" />
    <path id="du-340" d="M 8.638,4.312 L 8.638,4.287" />
    <path id="du-341" d="M 7.978,4.134 L 7.063,4.134" />
    <path id="du-342" d="M 6.911,4.287 L 6.911,7.119" />
    <path id="du-343" d="M 8.791,4.134 L 9.146,4.134" />
    <path id="du-344" d="M 9.299,4.287 L 9.299,7.234" />
    <path id="du-345" d="M 2.034,7.767 L 5.756,7.767" />
    <path id="du-346" d="M 6.866,7.227 L 6.378,7.715" />
    <path id="du-347" d="M 9.705,9.857 L 8.283,9.857" />
    <path id="du-348" d="M 8.943,7.767 L 10.595,7.767" />
    <path id="du-349" d="M 8.638,7.462 L 8.638,7.416" />
    <path id="du-350" d="M 8.638,7.2 L 8.638,7.135" />
    <path id="du-351" d="M 9.767,12.41 L 10.024,12.153" />
    <path id="du-352" d="M 10.066,12.016 L 10.066,7.539" />
    <path id="du-353" d="M 9.947,7.387 L 9.418,7.387" />
    <path id="du-354" d="M 11.422,8.593 L 11.422,11.577" />
    <path id="du-355" d="M 11.332,8.378 L 10.81,7.856" />
    <path id="du-356" d="M 8.13,6.936 L 8.13,6.986" />
    <path id="du-357" d="M 8.13,9.705 L 8.13,7.202" />
    <path id="du-358" d="M 1.882,7.919 L 1.882,12.078" />
    <path id="du-359" d="M 6.262,7.767 L 5.827,7.767" />
    <path id="du-360" d="M 1.882,12.186 L 1.882,12.376" />
    <path id="du-361" d="M 4.133,9.401 L 4.133,3.057" />
    <path id="du-362" d="M 4.286,9.857 L 7.978,9.857" />
    <path id="du-363" d="M 2.644,9.857 L 3.981,9.857" />
    <path id="du-364" d="M 4.133,9.554 L 4.133,9.725" />
    <path id="du-365" d="M 8.13,6.231 L 8.13,6.231" />
    <path id="du-366" d="M 8.13,5.742 L 8.13,6.104" />
    <path id="du-367" d="M 8.13,6.079 L 8.13,5.927" />
    <path id="du-368" d="M 14.518,4.683 L 14.518,5.984" />
    <path id="du-369" d="M 14.01,5.681 L 14.01,12.151" />
    <path id="du-370" d="M 14.518,3.253 L 14.518,3.119" />
    <path id="du-371" d="M 14.01,3.253 L 14.01,3.119" />
    <path id="du-372" d="M 18.059,6.289 L 15.03,6.289" />
    <path id="du-373" d="M 18.274,6.378 L 19.019,7.122" />
    <path id="du-374" d="M 19.105,7.378 L 18.497,11.998" />
    <path id="du-375" d="M 14.795,6.289 L 14.903,6.289" />
    <path id="du-376" d="M 14.01,5.554 L 14.01,5.554" />
    <path id="du-377" d="M 14.01,5.125 L 14.01,5.427" />
    <path id="du-378" d="M 14.01,5.325 L 14.01,4.995" />
    <path id="du-379" d="M 14.449,4.998 L 16.044,4.998" />
    <path id="du-380" d="M 16.272,4.77 L 16.272,3.525" />
    <path id="du-381" d="M 13.857,2.966 L 13.146,2.966" />
    <path id="du-382" d="M 12.994,6.229 L 12.994,6.016" />
    <path id="du-383" d="M 12.994,3.074 L 12.994,3.2" />
    <path id="du-384" d="M 12.994,5.872 L 12.994,3.307" />
    <path id="du-385" d="M 12.994,6.372 L 12.994,11.961" />
    <path id="du-386" d="M 13.062,12.102 L 13.467,12.336" />
    <path id="du-387" d="M 13.535,12.476 L 13.535,13.037" />
    <path id="du-388" d="M 14.67,2.966 L 17.193,2.966" />
    <path id="du-389" d="M 17.345,6.776 L 17.345,12.027" />
    <path id="du-390" d="M 17.345,3.119 L 17.345,6.307" />
    <path id="du-391" d="M 17.345,12.159 L 17.345,12.364" />
    <path id="du-392" d="M 17.345,6.439 L 17.345,6.645" />
    <path id="du-393" d="M -18.847,5.048 L -18.847,2.939" />
    <path id="du-394" d="M -26.096,5.049 L -26.096,2.939" />
    <path id="du-395" d="M -18.847,9.727 L -18.847,6.659" />
    <path id="du-396" d="M -18.847,6 L -18.847,5.706" />
    <path id="du-397" d="M -18.847,6.443 L -18.847,6.216" />
    <path id="du-398" d="M -18.847,5.491 L -18.847,5.263" />
    <path id="du-399" d="M -25.584,9.727 L -25.584,7.477" />
    <path id="du-400" d="M -26.096,6.001 L -26.096,5.708" />
    <path id="du-401" d="M -26.096,6.394 L -26.096,6.217" />
    <path id="du-402" d="M -26.096,5.492 L -26.096,5.265" />
    <path id="du-403" d="M -26.096,6.61 L -26.096,6.713" />
    <path id="du-404" d="M -25.673,7.262 L -26.007,6.928" />
    <path id="du-405" d="M -29.373,1.497 L -31.735,1.497" />
    <path id="du-406" d="M -25.146,1.497 L -22.667,1.497" />
    <path id="du-407" d="M -17.44,1.497 L -18.72,1.497" />
    <path id="du-408" d="M -26.096,2.724 L -26.096,2.496" />
    <path id="du-409" d="M -26.096,2.28 L -26.096,2.107" />
    <path id="du-410" d="M -26.491,1.586 L -26.185,1.892" />
    <path id="du-411" d="M -18.847,2.724 L -18.847,2.496" />
    <path id="du-412" d="M -18.847,2.28 L -18.847,2.107" />
    <path id="du-413" d="M -18.981,1.847 L -18.936,1.892" />
    <path id="du-414" d="M -18.936,1.586 L -18.981,1.631" />
    <path id="du-415" d="M -19.241,1.586 L -19.196,1.631" />
    <path id="du-416" d="M -29.221,1.389 L -29.221,1.191" />
    <path id="du-417" d="M -26.706,1.497 L -29.068,1.497" />
    <path id="du-418" d="M -29.221,0.976 L -29.221,0.089" />
    <path id="du-419" d="M -29.248,-0.038 L -29.853,-1.364" />
    <path id="du-420" d="M -22.515,1.389 L -22.515,1.191" />
    <path id="du-421" d="M -22.515,0.976 L -22.515,0.356" />
    <path id="du-422" d="M -22.543,0.229 L -23.248,-1.318" />
    <path id="du-423" d="M -19.457,1.497 L -22.363,1.497" />
    <path id="du-424" d="M -17.135,1.282 L -17.135,1.191" />
    <path id="du-425" d="M -17.135,0.976 L -17.135,0.356" />
    <path id="du-426" d="M -17.162,0.229 L -17.868,-1.318" />
    <path id="du-427" d="M -27.263,6.001 L -27.263,5.834" />
    <path id="du-428" d="M -27.263,6.394 L -27.263,6.217" />
    <path id="du-429" d="M -27.263,7.957 L -27.263,6.61" />
    <path id="du-430" d="M -15.725,8.326 L -15.725,1.137" />
    <path id="du-431" d="M -19.355,9.727 L -19.355,9.701" />
    <path id="du-432" d="M -16.796,9.397 L -18.822,9.397" />
    <path id="du-433" d="M -16.581,9.307 L -15.815,8.541" />
    <path id="du-434" d="M -19.139,9.397 L -19.038,9.397" />
    <path id="du-435" d="M -26.092,9.727 L -26.092,9.38" />
    <path id="du-436" d="M -27.174,8.172 L -26.181,9.164" />
    <path id="du-437" d="M -27.352,5.619 L -27.497,5.474" />
    <path id="du-438" d="M -27.712,5.385 L -32.489,5.385" />
    <path id="du-439" d="M -32.705,5.295 L -33.28,4.72" />
    <path id="du-440" d="M -33.37,4.504 L -33.37,1.735" />
    <path id="du-441" d="M -26.092,11.157 L -26.092,11.892" />
    <path id="du-442" d="M -25.584,11.157 L -25.584,12.019" />
    <path id="du-443" d="M -19.355,11.157 L -19.355,12.019" />
    <path id="du-444" d="M -18.847,11.157 L -18.847,12.019" />
    <path id="du-445" d="M -17.907,12.171 L -18.472,12.171" />
    <path id="du-446" d="M -18.748,12.171 L -18.588,12.171" />
    <path id="du-447" d="M -21.565,12.171 L -19.687,12.171" />
    <path id="du-448" d="M -19.443,12.171 L -19.563,12.171" />
    <path id="du-449" d="M -24.257,12.171 L -25.216,12.171" />
    <path id="du-450" d="M -25.324,12.171 L -25.476,12.171" />
    <path id="du-451" d="M -28.067,12.044 L -26.46,12.044" />
    <path id="du-452" d="M -26.352,12.044 L -26.2,12.044" />
    <path id="du-453" d="M -11.668,-2.466 L -11.668,-3.923" />
    <path id="du-454" d="M -11.16,-1.036 L -11.16,-0.427" />
    <path id="du-455" d="M -11.668,-1.036 L -11.668,-0.427" />
    <path id="du-456" d="M -11.16,-4.204 L -11.16,-4.381" />
    <path id="du-457" d="M -11.16,-4.51 L -11.16,-7.237" />
    <path id="du-458" d="M -10.455,-7.942 L -7.96,-7.942" />
    <path id="du-459" d="M -11.236,-7.942 L -13.294,-7.942" />
    <path id="du-460" d="M -10.953,-7.57 L -11.071,-7.452" />
    <path id="du-461" d="M -10.953,-7.786 L -11.02,-7.853" />
    <path id="du-462" d="M -10.67,-7.853 L -10.737,-7.786" />
    <path id="du-463" d="M -11.973,-4.227 L -14.031,-4.227" />
    <path id="du-464" d="M -14.247,-4.317 L -14.544,-4.614" />
    <path id="du-465" d="M -14.634,-4.83 L -14.634,-7.852" />
    <path id="du-466" d="M -11.16,-2.777 L -11.16,-2.777" />
    <path id="du-467" d="M -11.16,-2.466 L -11.16,-2.65" />
    <path id="du-468" d="M -11.16,-2.625 L -11.16,-2.447" />
    <path id="du-469" d="M -11.008,-3.329 L -8.48,-3.329" />
    <path id="du-470" d="M -11.16,-2.904 L -11.16,-3.177" />
    <path id="du-471" d="M -8.087,-2.936 L -8.087,-0.749" />
    <path id="du-472" d="M -13.068,-3.608 L -13.319,-3.358" />
    <path id="du-473" d="M -13.408,-3.142 L -13.408,-0.749" />
    <path id="du-474" d="M -8.176,-3.152 L -8.264,-3.24" />
    <path id="du-475" d="M -11.821,-0.274 L -14.107,-0.274" />
    <path id="du-476" d="M -14.259,-4.331 L -14.259,-7.996" />
    <path id="du-477" d="M -11.008,-0.274 L -10.398,-0.274" />
    <path id="du-478" d="M -10.246,-0.427 L -10.246,-4.084" />
    <path id="du-479" d="M -14.259,-0.427 L -14.259,-3.92" />
    <path id="du-480" d="M -14.259,-4.199 L -14.259,-4.052" />
    <path id="du-481" d="M -12.862,-8.148 L -13.84,-8.148" />
    <path id="du-482" d="M -14.151,-8.148 L -13.948,-8.148" />
    <path id="du-483" d="M -8.747,-8.899 L -8.747,-8.301" />
    <path id="du-484" d="M -10.093,-4.237 L -7.972,-4.237" />
    <path id="du-485" d="M -7.503,-4.389 L -7.503,-7.996" />
    <path id="du-486" d="M -7.61,-4.237 L -7.864,-4.237" />
    <path id="du-487" d="M -7.61,-8.148 L -7.813,-8.148" />
    <path id="du-488" d="M -8.595,-8.148 L -7.921,-8.148" />
    <path id="du-489" d="M 5.096,-3.749 L 5.096,-4.075" />
    <path id="du-490" d="M 4.588,-2.466 L 4.588,-3.923" />
    <path id="du-491" d="M 5.096,-1.036 L 5.096,-0.572" />
    <path id="du-492" d="M 4.588,-1.036 L 4.588,-0.572" />
    <path id="du-493" d="M 5.096,-4.204 L 5.096,-4.381" />
    <path id="du-494" d="M 5.096,-4.51 L 5.096,-7.237" />
    <path id="du-495" d="M 5.801,-7.942 L 10.592,-7.942" />
    <path id="du-496" d="M 5.02,-7.942 L 2.962,-7.942" />
    <path id="du-497" d="M 5.303,-7.57 L 5.185,-7.452" />
    <path id="du-498" d="M 5.303,-7.786 L 5.236,-7.853" />
    <path id="du-499" d="M 5.586,-7.853 L 5.519,-7.786" />
    <path id="du-500" d="M 4.283,-4.227 L 2.225,-4.227" />
    <path id="du-501" d="M 2.009,-4.317 L 1.712,-4.614" />
    <path id="du-502" d="M 1.622,-4.83 L 1.622,-7.852" />
    <path id="du-503" d="M 5.096,-2.777 L 5.096,-2.777" />
    <path id="du-504" d="M 5.096,-2.466 L 5.096,-2.65" />
    <path id="du-505" d="M 5.096,-2.625 L 5.096,-2.447" />
    <path id="du-506" d="M 5.248,-3.228 L 7.776,-3.228" />
    <path id="du-507" d="M 5.096,-2.904 L 5.096,-3.075" />
    <path id="du-508" d="M 8.169,-2.835 L 8.169,-0.749" />
    <path id="du-509" d="M 3.302,-3.596 L 4.691,-3.596" />
    <path id="du-510" d="M 3.086,-3.507 L 2.937,-3.358" />
    <path id="du-511" d="M 2.848,-3.142 L 2.848,-0.749" />
    <path id="du-512" d="M 8.08,-3.05 L 7.992,-3.139" />
    <path id="du-513" d="M 4.435,-0.419 L 2.149,-0.419" />
    <path id="du-514" d="M 1.997,-4.331 L 1.997,-7.996" />
    <path id="du-515" d="M 5.248,-0.419 L 5.858,-0.419" />
    <path id="du-516" d="M 6.01,-0.572 L 6.01,-4.084" />
    <path id="du-517" d="M 1.997,-0.572 L 1.997,-3.92" />
    <path id="du-518" d="M 1.997,-4.199 L 1.997,-4.052" />
    <path id="du-519" d="M 3.531,-8.148 L 2.632,-8.148" />
    <path id="du-520" d="M 2.105,-8.148 L 2.524,-8.148" />
    <path id="du-521" d="M 6.163,-4.237 L 11.561,-4.237" />
    <path id="du-522" d="M 12.03,-4.389 L 12.03,-7.996" />
    <path id="du-523" d="M 11.922,-4.237 L 11.668,-4.237" />
    <path id="du-524" d="M 11.922,-8.148 L 11.503,-8.148" />
    <path id="du-525" d="M 11.122,-8.148 L 11.395,-8.148" />
    <path id="du-526" d="M 10.973,-9.508 L 10.97,-8.301" />
    <path id="du-527" d="M 19.104,-1.726 L 19.104,-3.061" />
    <path id="du-528" d="M 19.612,-2.657 L 19.612,-7.011" />
    <path id="du-529" d="M 19.347,-7.313 L 13.87,-8.034" />
    <path id="du-530" d="M 18.799,-3.366 L 16.31,-3.366" />
    <path id="du-531" d="M 16.005,-3.67 L 16.005,-6.349" />
    <path id="du-532" d="M 19.612,-2.53 L 19.612,-2.53" />
    <path id="du-533" d="M 19.612,-1.726 L 19.612,-2.403" />
    <path id="du-534" d="M 19.612,-2.301 L 19.612,-1.946" />
    <path id="du-535" d="M 19.612,-0.296 L 19.612,0.009" />
    <path id="du-536" d="M 19.764,0.161 L 19.891,0.161" />
    <path id="du-537" d="M 20.043,0.009 L 20.043,-0.868" />
    <path id="du-538" d="M 20.088,-0.976 L 20.39,-1.277" />
    <path id="du-539" d="M 20.434,-1.385 L 20.434,-7.411" />
    <path id="du-540" d="M 18.951,0.161 L 15.903,0.161" />
    <path id="du-541" d="M 15.751,0.009 L 15.751,-7.361" />
    <path id="du-542" d="M 20.302,-7.562 L 19.556,-7.661" />
    <path id="du-543" d="M 19.423,-7.822 L 19.455,-8.06" />
    <path id="du-544" d="M 19.525,-8.596 L 19.462,-8.113" />
    <path id="du-545" d="M 15.751,-7.639 L 15.751,-8.328" />
    <path id="du-546" d="M 15.751,-7.468 L 15.751,-7.532" />
    <path id="du-547" d="M -8.081,-5.934 L -8.081,-5.892" />
    <path id="du-548" d="M -8.081,-7.364 L -8.081,-7.91" />
    <path id="du-549" d="M -8.234,-8.062 L -12.319,-8.062" />
    <path id="du-550" d="M -7.573,-7.364 L -7.573,-7.72" />
    <path id="du-551" d="M -10.822,-5.283 L -10.822,-4.609" />
    <path id="du-552" d="M -7.573,-5.934 L -7.573,-4.666" />
    <path id="du-553" d="M -7.913,7.394 L -9.946,7.394" />
    <path id="du-554" d="M -10.58,6.76 L -10.58,6.678" />
    <path id="du-555" d="M -7.57,5.103 L -7.57,0.974" />
    <path id="du-556" d="M -8.116,8.258 L -8.116,8.141" />
    <path id="du-557" d="M -7.57,5.367 L -7.57,5.457" />
    <path id="du-558" d="M -7.57,6.329 L -7.57,5.721" />
    <path id="du-559" d="M -8.116,7.877 L -8.116,7.775" />
    <path id="du-560" d="M -10.58,6.463 L -10.58,6.159" />
    <path id="du-561" d="M -10.58,9.023 L -10.58,8.307" />
    <path id="du-562" d="M -0.417,-7.718 L -0.417,-8.023" />
    <path id="du-563" d="M -0.925,-7.718 L -0.925,-8.023" />
    <path id="du-564" d="M -1.077,-8.175 L -4.731,-8.175" />
    <path id="du-565" d="M -0.265,-8.175 L -0.124,-8.175" />
    <path id="du-566" d="M 0.211,-8.175 L 0.022,-8.175" />
    <path id="du-567" d="M -5.258,-8.175 L -4.863,-8.175" />
    <path id="du-568" d="M -5.334,-8.874 L -5.334,-8.327" />
    <path id="du-569" d="M -0.925,-6.288 L -0.925,-4.611" />
    <path id="du-570" d="M -1.41,-4.307 L -5.586,-4.307" />
    <path id="du-571" d="M -0.417,-6.288 L -0.417,-4.611" />
    <path id="du-572" d="M 0.068,-4.307 L 0.527,-4.307" />
    <path id="du-573" d="M -1.141,-4.307 L -1.195,-4.307" />
    <path id="du-574" d="M -0.201,-4.307 L -0.147,-4.307" />
    <path id="du-575" d="M 1.882,13.037 L 1.882,12.484" />
    <path id="du-576" d="M -17.755,13.037 L -17.755,12.324" />
    <path id="du-577" d="M -24.105,13.037 L -24.105,12.324" />
    <path id="du-578" d="M -12.853,-3.698 L -11.616,-3.698" />
    <path id="du-579" d="M -11.16,-3.482 L -11.16,-3.545" />
    <path id="du-580" d="M -11.16,-4.075 L -11.16,-3.85" />
    <path id="du-581" d="M -11.292,-3.698 L -11.463,-3.698" />
    <path id="du-582" d="M 14.318,4.998 L 14.134,4.998" />
    <path id="du-583" d="M 14.01,4.683 L 14.01,4.871" />
    <path id="du-584" d="M 4.866,-3.596 L 4.971,-3.596" />
    <path id="du-585" d="M 5.096,-3.38 L 5.096,-3.444" />
    <path id="du-586" d="M -7.564,-7.852 L -7.544,-7.943" />
    <path id="du-587" d="M -7.539,-7.976 L -7.522,-8.148" />
    <path id="du-588" d="M -28.219,13.037 L -28.219,12.197" />
    <path id="du-589" d="M -21.717,13.037 L -21.717,12.324" />
    <path id="du-590" d="M -10.595,13.037 L -10.595,12.408" />
    <path id="du-591" d="M -0.435,13.037 L -0.435,12.502" />
    <path id="du-592" d="M 9.725,13.037 L 9.725,12.547" />
    <path id="du-593" d="M 17.345,13.037 L 17.345,12.496" />
    <path id="du-594" d="M 15.849,-9.08 L 15.752,-8.348" />
    <path id="du-595" d="M 3.683,-9.508 L 3.683,-8.301" />
    <path id="du-596" d="M 0.254,-8.874 L 0.254,-8.327" />
    <path id="du-597" d="M -12.71,-8.899 L -12.71,-8.301" />
    <path id="du-1114" d="M -15.37,11.468 L -15.37,12.018" />
    <path id="du-1115" d="M -15.37,11.316 L -15.37,11.316" />
    <path id="du-1116" d="M -15.786,12.433 L -16.332,12.433" />
    <path id="du-1117" d="M -16.485,12.586 L -16.485,13.037" />
    <path id="du-1118" d="M -8.879,3.542 L -8.879,6.506" />
    <path id="du-1119" d="M -8.879,3.389 L -8.879,3.389" />
    <path id="du-1120" d="M 6.444,4.602 L 6.444,11.861" />
    <path id="du-1121" d="M 6.444,4.45 L 6.444,4.45" />
    <path id="du-1122" d="M 15.765,3.823 L 15.765,6.522" />
    <path id="du-1123" d="M 15.765,3.67 L 15.765,3.67" />
    <path id="du-1124" d="M 16.075,13.037 L 16.075,6.958" />
    <path id="du-1125" d="M 16.03,6.85 L 15.81,6.63" />
    <path id="du-1126" d="M -9.031,6.659 L -9.311,6.659" />
    <path id="du-1127" d="M -9.463,6.811 L -9.463,13.037" />
    <path id="du-1128" d="M 5.915,13.037 L 5.915,12.515" />
    <path id="du-1129" d="M 6.399,11.968 L 5.96,12.408" />
    <path id="du-1130" d="M 6.909,-1.157 L 6.909,-1.157" />
    <path id="du-1131" d="M 6.325,-4.667 L 6.325,-8.036" />
    <path id="du-1132" d="M 6.325,-4.559 L 6.325,-4.13" />
    <path id="du-1133" d="M 6.325,-4.023 L 6.325,-2.32" />
    <path id="du-1134" d="M 6.369,-2.212 L 6.864,-1.717" />
    <path id="du-1135" d="M 6.909,-1.31 L 6.909,-1.61" />
    <path id="du-1136" d="M -9.139,-1.157 L -6.996,-1.157" />
    <path id="du-1137" d="M -6.844,-1.31 L -6.844,-3.235" />
    <path id="du-1138" d="M -6.844,-8.256 L -6.844,-8.899" />
    <path id="du-1139" d="M -6.844,-3.367 L -6.844,-3.604" />
    <path id="du-1140" d="M -6.844,-3.736 L -6.844,-4.008" />
    <path id="du-1141" d="M -6.844,-4.509 L -6.844,-7.787" />
    <path id="du-1142" d="M -6.844,-4.14 L -6.844,-4.377" />
    <path id="du-1143" d="M -6.844,-7.919 L -6.844,-8.124" />
    <path id="du-1144" d="M 17.379,-0.279 L 17.379,-0.279" />
    <path id="du-1145" d="M 17.702,-4.487 L 17.702,-7.68" />
    <path id="du-1146" d="M 17.702,-4.355 L 17.702,-4.143" />
    <path id="du-1147" d="M 17.702,-4.011 L 17.702,-3.736" />
    <path id="du-1148" d="M 17.702,-3.604 L 17.702,-3.391" />
    <path id="du-1149" d="M 17.702,-1.596 L 17.702,-3.259" />
    <path id="du-1150" d="M 17.698,-1.559 L 17.416,-0.427" />
    <path id="du-1151" d="M 6.325,-8.188 L 6.325,-8.188" />
    <path id="du-1152" d="M 5.563,-8.188 L 6.172,-8.188" />
    <path id="du-1153" d="M 5.41,-8.188 L 5.41,-8.188" />
    <path id="du-1154" d="M 17.738,-8.509 L 17.707,-7.928" />
    <path id="du-1155" d="M 17.702,-7.833 L 17.702,-7.833" />
    <path id="du-1156" d="M 5.41,-9.508 L 5.41,-8.34" />
    <path id="du-1157" d="M 17.777,-8.826 L 17.743,-8.567" />
    <path id="du-1158" d="M -15.415,12.126 L -15.678,12.389" />
    <path id="du-1159" d="M -9.291,-1.157 L -9.291,-1.157" />
  </g>
</svg>