<?xml version="1.0" encoding="utf-8"?>
<svg xmlns="http://www.w3.org/2000/svg" viewBox="-26.904 -11.508 47.631 19.577">
  <g transform="scale(1,-1)">
    <rect id="eq-14" x="-3.249" y="7.188" width="0.3" height="0.3" transform="rotate(180,-3.099,7.338)" />
    <rect id="eq-15" x="-11.564" y="-1.901" width="0.3" height="0.3" transform="rotate(360,-11.414,-1.751)" />
    <rect id="eq-16" x="-0.821" y="-7.153" width="0.3" height="0.3" transform="rotate(180,-0.671,-7.003)" />
    <rect id="eq-17" x="19.208" y="-1.161" width="0.3" height="0.3" />
    <rect id="eq-18" x="14.114" y="3.818" width="0.3" height="0.3" transform="rotate(180,14.264,3.968)" />
    <rect id="eq-19" x="8.234" y="4.877" width="0.3" height="0.3" transform="rotate(180,8.384,5.027)" />
    <rect id="eq-20" x="-9.968" y="3.797" width="0.3" height="0.3" transform="rotate(180,-9.818,3.947)" />
    <rect id="eq-21" x="-25.988" y="10.292" width="0.3" height="0.3" transform="rotate(360,-25.838,10.442)" />
    <rect id="eq-22" x="-19.251" y="10.292" width="0.3" height="0.3" transform="rotate(360,-19.101,10.442)" />
    <rect id="eq-23" x="4.692" y="-1.901" width="0.3" height="0.3" transform="rotate(360,4.842,-1.751)" />
    <rect id="eq-55" x="8.816" y="3.924" width="0.3" height="0.3" transform="rotate(180,8.966,4.074)" />
    <rect id="eq-56" x="15.821" y="4.019" width="0.3" height="0.3" transform="rotate(90,15.971,4.169)" />
    <rect id="eq-57" x="-8.799" y="4.033" width="0.3" height="0.3" transform="rotate(180,-8.649,4.183)" />
    <rect id="eq-58" x="4.454" y="-0.871" width="0.3" height="0.3" transform="rotate(90,4.604,-0.721)" />
    <rect id="eq-59" x="17.065" y="-1.014" width="0.3" height="0.3" transform="rotate(90,17.215,-0.864)" />
    <rect id="eq-60" x="-11.587" y="-0.871" width="0.3" height="0.3" transform="rotate(90,-11.437,-0.721)" />
    <rect id="eq-61" x="-15.393" y="4.943" width="0.3" height="0.3" transform="rotate(240,-15.243,5.093)" />
    <rect id="eq-62" x="-13.969" y="4.943" width="0.3" height="0.3" transform="rotate(120,-13.819,5.093)" />
    <rect id="eq-63" x="19.511" y="1.603" width="0.3" height="0.3" transform="rotate(90,19.661,1.753)" />
  </g>
</svg>