<?xml version="1.0" encoding="utf-8"?>
<svg xmlns="http://www.w3.org/2000/svg" viewBox="-34.482 -13.565 56.507 23.213">
  <g transform="scale(1,-1)">
    <rect id="mn-257" x="-2.87" y="9.095" width="0.05" height="0.05" transform="rotate(180,-2.845,9.12)" />
    <rect id="mn-258" x="0.331" y="9.095" width="0.05" height="0.05" />
    <rect id="mn-259" x="-3.378" y="11.686" width="0.05" height="0.05" transform="rotate(90,-3.353,11.711)" />
    <rect id="mn-260" x="-3.378" y="6.141" width="0.05" height="0.05" />
    <rect id="mn-261" x="-2.87" y="6.141" width="0.05" height="0.05" transform="rotate(270,-2.845,6.166)" />
    <rect id="mn-262" x="-2.26" y="8.341" width="0.05" height="0.05" transform="rotate(201.091,-2.235,8.366)" />
    <rect id="mn-263" x="-2.26" y="6.141" width="0.05" height="0.05" />
    <rect id="mn-264" x="-0.46" y="12.186" width="0.05" height="0.05" transform="rotate(201.091,-0.435,12.211)" />
    <rect id="mn-265" x="-2.26" y="8.458" width="0.05" height="0.05" transform="rotate(93.841,-2.235,8.483)" />
    <rect id="mn-266" x="-2.26" y="8.763" width="0.05" height="0.05" transform="rotate(180,-2.235,8.788)" />
    <rect id="mn-267" x="-0.889" y="8.763" width="0.05" height="0.05" />
    <rect id="mn-268" x="-0.46" y="9.192" width="0.05" height="0.05" transform="rotate(45,-0.435,9.217)" />
    <rect id="mn-269" x="-0.46" y="9.58" width="0.05" height="0.05" transform="rotate(120,-0.435,9.605)" />
    <rect id="mn-270" x="-0.46" y="9.9" width="0.05" height="0.05" transform="rotate(240,-0.435,9.925)" />
    <rect id="mn-271" x="-4.27" y="6.141" width="0.05" height="0.05" transform="rotate(270,-4.245,6.166)" />
    <rect id="mn-272" x="-3.378" y="8.302" width="0.05" height="0.05" transform="rotate(270,-3.353,8.327)" />
    <rect id="mn-273" x="-5.308" y="8.302" width="0.05" height="0.05" transform="rotate(180,-5.283,8.327)" />
    <rect id="mn-274" x="-5.929" y="7.681" width="0.05" height="0.05" transform="rotate(225,-5.904,7.706)" />
    <rect id="mn-275" x="-5.929" y="6.258" width="0.05" height="0.05" transform="rotate(240,-5.904,6.283)" />
    <rect id="mn-276" x="-3.935" y="8.302" width="0.05" height="0.05" transform="rotate(90,-3.91,8.327)" />
    <rect id="mn-277" x="-3.733" y="8.302" width="0.05" height="0.05" transform="rotate(180,-3.708,8.327)" />
    <rect id="mn-278" x="-10.097" y="3.023" width="0.05" height="0.05" />
    <rect id="mn-279" x="-9.589" y="2.877" width="0.05" height="0.05" />
    <rect id="mn-280" x="-10.758" y="3.023" width="0.05" height="0.05" transform="rotate(270,-10.733,3.048)" />
    <rect id="mn-281" x="-10.923" y="2.877" width="0.05" height="0.05" transform="rotate(270,-10.898,2.902)" />
    <rect id="mn-282" x="-10.758" y="5.309" width="0.05" height="0.05" transform="rotate(120,-10.733,5.334)" />
    <rect id="mn-283" x="-10.758" y="5.537" width="0.05" height="0.05" transform="rotate(93.841,-10.733,5.562)" />
    <rect id="mn-284" x="-10.758" y="6.045" width="0.05" height="0.05" transform="rotate(120,-10.733,6.07)" />
    <rect id="mn-285" x="-10.758" y="6.35" width="0.05" height="0.05" transform="rotate(93.841,-10.733,6.375)" />
    <rect id="mn-286" x="-10.923" y="5.036" width="0.05" height="0.05" transform="rotate(90,-10.898,5.061)" />
    <rect id="mn-287" x="-11.336" y="6.363" width="0.05" height="0.05" transform="rotate(240,-11.311,6.388)" />
    <rect id="mn-288" x="-11.336" y="6.061" width="0.05" height="0.05" transform="rotate(201.091,-11.311,6.086)" />
    <rect id="mn-289" x="-11.336" y="5.598" width="0.05" height="0.05" transform="rotate(240,-11.311,5.623)" />
    <rect id="mn-290" x="-11.272" y="5.384" width="0.05" height="0.05" transform="rotate(148.6,-11.247,5.409)" />
    <rect id="mn-291" x="-11.336" y="5.449" width="0.05" height="0.05" transform="rotate(210.48,-11.311,5.474)" />
    <rect id="mn-292" x="-11.336" y="12.231" width="0.05" height="0.05" transform="rotate(180,-11.311,12.256)" />
    <rect id="mn-293" x="-10.902" y="12.231" width="0.05" height="0.05" transform="rotate(90,-10.877,12.256)" />
    <rect id="mn-294" x="-10.758" y="11.938" width="0.05" height="0.05" transform="rotate(225,-10.733,11.963)" />
    <rect id="mn-295" x="-10.465" y="12.231" width="0.05" height="0.05" transform="rotate(180,-10.44,12.256)" />
    <rect id="mn-296" x="-7.298" y="12.231" width="0.05" height="0.05" transform="rotate(90,-7.273,12.256)" />
    <rect id="mn-297" x="-6.81" y="12.231" width="0.05" height="0.05" transform="rotate(211.4,-6.785,12.256)" />
    <rect id="mn-298" x="-10.097" y="6.339" width="0.05" height="0.05" transform="rotate(240,-10.072,6.364)" />
    <rect id="mn-299" x="-10.097" y="6.075" width="0.05" height="0.05" transform="rotate(120,-10.072,6.1)" />
    <rect id="mn-300" x="-10.097" y="5.311" width="0.05" height="0.05" transform="rotate(120,-10.072,5.336)" />
    <rect id="mn-301" x="-10.097" y="5.575" width="0.05" height="0.05" transform="rotate(240,-10.072,5.6)" />
    <rect id="mn-302" x="-10.097" y="4.886" width="0.05" height="0.05" transform="rotate(120,-10.072,4.911)" />
    <rect id="mn-303" x="-10.097" y="4.886" width="0.05" height="0.05" transform="rotate(120,-10.072,4.911)" />
    <rect id="mn-304" x="-10.261" y="4.169" width="0.05" height="0.05" transform="rotate(90,-10.236,4.194)" />
    <rect id="mn-305" x="-10.097" y="11.826" width="0.05" height="0.05" transform="rotate(90,-10.072,11.851)" />
    <rect id="mn-306" x="-6.999" y="6.923" width="0.05" height="0.05" />
    <rect id="mn-307" x="-6.999" y="11.826" width="0.05" height="0.05" transform="rotate(90,-6.974,11.851)" />
    <rect id="mn-308" x="-9.589" y="6.923" width="0.05" height="0.05" transform="rotate(180,-9.564,6.948)" />
    <rect id="mn-309" x="-9.589" y="5.311" width="0.05" height="0.05" transform="rotate(120,-9.564,5.336)" />
    <rect id="mn-310" x="-9.589" y="5.575" width="0.05" height="0.05" transform="rotate(240,-9.564,5.6)" />
    <rect id="mn-311" x="-9.589" y="6.474" width="0.05" height="0.05" transform="rotate(240,-9.564,6.499)" />
    <rect id="mn-312" x="-9.589" y="6.21" width="0.05" height="0.05" transform="rotate(120,-9.564,6.235)" />
    <rect id="mn-313" x="8.105" y="4.109" width="0.05" height="0.05" />
    <rect id="mn-314" x="6.886" y="4.109" width="0.05" height="0.05" transform="rotate(270,6.911,4.134)" />
    <rect id="mn-315" x="8.613" y="4.109" width="0.05" height="0.05" transform="rotate(270,8.638,4.134)" />
    <rect id="mn-316" x="9.274" y="4.109" width="0.05" height="0.05" />
    <rect id="mn-317" x="6.886" y="7.157" width="0.05" height="0.05" transform="rotate(90,6.911,7.182)" />
    <rect id="mn-318" x="1.857" y="7.742" width="0.05" height="0.05" transform="rotate(270,1.882,7.767)" />
    <rect id="mn-319" x="8.105" y="9.832" width="0.05" height="0.05" />
    <rect id="mn-320" x="2.619" y="9.832" width="0.05" height="0.05" transform="rotate(180,2.644,9.857)" />
    <rect id="mn-321" x="9.68" y="9.832" width="0.05" height="0.05" />
    <rect id="mn-322" x="8.613" y="7.742" width="0.05" height="0.05" transform="rotate(180,8.638,7.767)" />
    <rect id="mn-323" x="8.613" y="7.265" width="0.05" height="0.05" transform="rotate(240,8.638,7.29)" />
    <rect id="mn-324" x="8.613" y="7.021" width="0.05" height="0.05" transform="rotate(211.4,8.638,7.046)" />
    <rect id="mn-325" x="10.041" y="12.086" width="0.05" height="0.05" transform="rotate(193.079,10.066,12.111)" />
    <rect id="mn-326" x="10.041" y="7.362" width="0.05" height="0.05" transform="rotate(38.462,10.066,7.387)" />
    <rect id="mn-327" x="9.274" y="7.362" width="0.05" height="0.05" transform="rotate(180,9.299,7.387)" />
    <rect id="mn-328" x="11.397" y="8.442" width="0.05" height="0.05" transform="rotate(45,11.422,8.467)" />
    <rect id="mn-329" x="10.696" y="7.742" width="0.05" height="0.05" />
    <rect id="mn-330" x="11.397" y="11.552" width="0.05" height="0.05" transform="rotate(90,11.422,11.577)" />
    <rect id="mn-331" x="8.105" y="6.822" width="0.05" height="0.05" transform="rotate(120,8.13,6.847)" />
    <rect id="mn-332" x="8.105" y="7.051" width="0.05" height="0.05" transform="rotate(98.421,8.13,7.076)" />
    <rect id="mn-333" x="6.302" y="7.742" width="0.05" height="0.05" transform="rotate(137.381,6.327,7.767)" />
    <rect id="mn-334" x="5.768" y="7.742" width="0.05" height="0.05" transform="rotate(90,5.793,7.767)" />
    <rect id="mn-335" x="1.857" y="12.116" width="0.05" height="0.05" transform="rotate(120,1.882,12.141)" />
    <rect id="mn-336" x="4.108" y="3.032" width="0.05" height="0.05" transform="rotate(270,4.133,3.057)" />
    <rect id="mn-337" x="4.108" y="9.832" width="0.05" height="0.05" transform="rotate(330,4.133,9.857)" />
    <rect id="mn-338" x="4.108" y="9.458" width="0.05" height="0.05" transform="rotate(120,4.133,9.483)" />
    <rect id="mn-339" x="8.105" y="6.206" width="0.05" height="0.05" transform="rotate(120,8.13,6.231)" />
    <rect id="mn-340" x="8.105" y="6.206" width="0.05" height="0.05" transform="rotate(180,8.13,6.231)" />
    <rect id="mn-341" x="7.925" y="5.299" width="0.05" height="0.05" transform="rotate(120,7.95,5.324)" />
    <rect id="mn-342" x="19.1" y="7.204" width="0.05" height="0.05" transform="rotate(45,19.125,7.229)" />
    <rect id="mn-343" x="14.493" y="6.264" width="0.05" height="0.05" transform="rotate(180,14.518,6.289)" />
    <rect id="mn-344" x="18.16" y="6.264" width="0.05" height="0.05" />
    <rect id="mn-345" x="14.938" y="6.264" width="0.05" height="0.05" transform="rotate(267.419,14.963,6.289)" />
    <rect id="mn-346" x="18.472" y="11.973" width="0.05" height="0.05" transform="rotate(97.5,18.497,11.998)" />
    <rect id="mn-347" x="13.985" y="12.126" width="0.05" height="0.05" transform="rotate(90,14.01,12.151)" />
    <rect id="mn-348" x="13.985" y="5.529" width="0.05" height="0.05" transform="rotate(120,14.01,5.554)" />
    <rect id="mn-349" x="13.985" y="5.529" width="0.05" height="0.05" transform="rotate(180,14.01,5.554)" />
    <rect id="mn-350" x="14.374" y="4.169" width="0.05" height="0.05" transform="rotate(120,14.399,4.194)" />
    <rect id="mn-351" x="16.247" y="4.973" width="0.05" height="0.05" transform="rotate(90,16.272,4.998)" />
    <rect id="mn-352" x="16.247" y="3.5" width="0.05" height="0.05" transform="rotate(270,16.272,3.525)" />
    <rect id="mn-353" x="13.985" y="2.941" width="0.05" height="0.05" />
    <rect id="mn-354" x="12.969" y="6.24" width="0.05" height="0.05" transform="rotate(240,12.994,6.265)" />
    <rect id="mn-355" x="12.969" y="5.954" width="0.05" height="0.05" transform="rotate(194.106,12.994,5.979)" />
    <rect id="mn-356" x="12.969" y="2.941" width="0.05" height="0.05" transform="rotate(180,12.994,2.966)" />
    <rect id="mn-357" x="12.969" y="3.219" width="0.05" height="0.05" transform="rotate(98.421,12.994,3.244)" />
    <rect id="mn-358" x="12.969" y="12.038" width="0.05" height="0.05" transform="rotate(201.213,12.994,12.063)" />
    <rect id="mn-359" x="13.51" y="12.35" width="0.05" height="0.05" transform="rotate(48.584,13.535,12.375)" />
    <rect id="mn-360" x="14.493" y="2.941" width="0.05" height="0.05" transform="rotate(270,14.518,2.966)" />
    <rect id="mn-361" x="17.32" y="2.941" width="0.05" height="0.05" />
    <rect id="mn-362" x="17.32" y="6.37" width="0.05" height="0.05" transform="rotate(120,17.345,6.395)" />
    <rect id="mn-363" x="17.32" y="6.663" width="0.05" height="0.05" transform="rotate(93.841,17.345,6.688)" />
    <rect id="mn-364" x="17.32" y="12.09" width="0.05" height="0.05" transform="rotate(201.091,17.345,12.115)" />
    <rect id="mn-365" x="-18.872" y="5.555" width="0.05" height="0.05" transform="rotate(240,-18.847,5.58)" />
    <rect id="mn-366" x="-18.872" y="6.508" width="0.05" height="0.05" transform="rotate(240,-18.847,6.533)" />
    <rect id="mn-367" x="-18.872" y="6.101" width="0.05" height="0.05" transform="rotate(120,-18.847,6.126)" />
    <rect id="mn-368" x="-26.121" y="5.557" width="0.05" height="0.05" transform="rotate(240,-26.096,5.582)" />
    <rect id="mn-369" x="-26.121" y="6.103" width="0.05" height="0.05" transform="rotate(120,-26.096,6.128)" />
    <rect id="mn-370" x="-26.121" y="5.15" width="0.05" height="0.05" transform="rotate(211.4,-26.096,5.175)" />
    <rect id="mn-371" x="-26.121" y="6.458" width="0.05" height="0.05" transform="rotate(98.421,-26.096,6.483)" />
    <rect id="mn-372" x="-25.609" y="7.326" width="0.05" height="0.05" transform="rotate(45,-25.584,7.351)" />
    <rect id="mn-373" x="-26.121" y="6.814" width="0.05" height="0.05" transform="rotate(225,-26.096,6.839)" />
    <rect id="mn-374" x="-26.121" y="2.788" width="0.05" height="0.05" transform="rotate(240,-26.096,2.813)" />
    <rect id="mn-375" x="-26.121" y="2.382" width="0.05" height="0.05" transform="rotate(211.4,-26.096,2.407)" />
    <rect id="mn-376" x="-26.605" y="1.472" width="0.05" height="0.05" />
    <rect id="mn-377" x="-26.121" y="1.956" width="0.05" height="0.05" transform="rotate(45,-26.096,1.981)" />
    <rect id="mn-378" x="-18.872" y="2.382" width="0.05" height="0.05" transform="rotate(211.4,-18.847,2.407)" />
    <rect id="mn-379" x="-18.872" y="1.956" width="0.05" height="0.05" transform="rotate(45,-18.847,1.981)" />
    <rect id="mn-380" x="-18.872" y="5.149" width="0.05" height="0.05" transform="rotate(211.4,-18.847,5.174)" />
    <rect id="mn-381" x="-18.872" y="2.788" width="0.05" height="0.05" transform="rotate(98.421,-18.847,2.813)" />
    <rect id="mn-382" x="-19.114" y="1.714" width="0.05" height="0.05" transform="rotate(45,-19.089,1.739)" />
    <rect id="mn-383" x="-25.171" y="1.472" width="0.05" height="0.05" transform="rotate(180,-25.146,1.497)" />
    <rect id="mn-384" x="-31.76" y="1.472" width="0.05" height="0.05" transform="rotate(180,-31.735,1.497)" />
    <rect id="mn-385" x="-29.246" y="1.472" width="0.05" height="0.05" transform="rotate(315,-29.221,1.497)" />
    <rect id="mn-386" x="-29.246" y="1.077" width="0.05" height="0.05" transform="rotate(211.4,-29.221,1.102)" />
    <rect id="mn-387" x="-29.246" y="-0.002" width="0.05" height="0.05" transform="rotate(65.5,-29.221,0.023)" />
    <rect id="mn-388" x="-29.878" y="-1.389" width="0.05" height="0.05" transform="rotate(245.5,-29.853,-1.364)" />
    <rect id="mn-389" x="-22.54" y="1.472" width="0.05" height="0.05" transform="rotate(315,-22.515,1.497)" />
    <rect id="mn-390" x="-22.54" y="1.077" width="0.05" height="0.05" transform="rotate(211.4,-22.515,1.102)" />
    <rect id="mn-391" x="-22.54" y="0.264" width="0.05" height="0.05" transform="rotate(65.5,-22.515,0.289)" />
    <rect id="mn-392" x="-23.273" y="-1.343" width="0.05" height="0.05" transform="rotate(245.5,-23.248,-1.318)" />
    <rect id="mn-393" x="-19.356" y="1.472" width="0.05" height="0.05" />
    <rect id="mn-394" x="-17.16" y="1.077" width="0.05" height="0.05" transform="rotate(211.4,-17.135,1.102)" />
    <rect id="mn-395" x="-17.16" y="0.264" width="0.05" height="0.05" transform="rotate(65.5,-17.135,0.289)" />
    <rect id="mn-396" x="-17.893" y="-1.343" width="0.05" height="0.05" transform="rotate(245.5,-17.868,-1.318)" />
    <rect id="mn-397" x="-17.16" y="1.472" width="0.05" height="0.05" transform="rotate(98.421,-17.135,1.497)" />
    <rect id="mn-398" x="-18.872" y="1.472" width="0.05" height="0.05" transform="rotate(315,-18.847,1.497)" />
    <rect id="mn-399" x="-27.288" y="6.103" width="0.05" height="0.05" transform="rotate(120,-27.263,6.128)" />
    <rect id="mn-400" x="-16.695" y="9.372" width="0.05" height="0.05" transform="rotate(135,-16.67,9.397)" />
    <rect id="mn-401" x="-15.75" y="8.427" width="0.05" height="0.05" transform="rotate(90,-15.725,8.452)" />
    <rect id="mn-402" x="-19.38" y="9.372" width="0.05" height="0.05" transform="rotate(261.579,-19.355,9.397)" />
    <rect id="mn-403" x="-18.973" y="9.372" width="0.05" height="0.05" transform="rotate(180,-18.948,9.397)" />
    <rect id="mn-404" x="-15.75" y="1.112" width="0.05" height="0.05" transform="rotate(270,-15.725,1.137)" />
    <rect id="mn-405" x="-26.117" y="9.229" width="0.05" height="0.05" transform="rotate(45,-26.092,9.254)" />
    <rect id="mn-406" x="-27.288" y="8.058" width="0.05" height="0.05" transform="rotate(225,-27.263,8.083)" />
    <rect id="mn-407" x="-27.288" y="6.458" width="0.05" height="0.05" transform="rotate(98.421,-27.263,6.483)" />
    <rect id="mn-408" x="-27.288" y="5.683" width="0.05" height="0.05" transform="rotate(45,-27.263,5.708)" />
    <rect id="mn-409" x="-27.611" y="5.36" width="0.05" height="0.05" />
    <rect id="mn-410" x="-32.64" y="5.36" width="0.05" height="0.05" transform="rotate(180,-32.615,5.385)" />
    <rect id="mn-411" x="-33.395" y="4.605" width="0.05" height="0.05" transform="rotate(225,-33.37,4.63)" />
    <rect id="mn-412" x="-33.395" y="1.71" width="0.05" height="0.05" transform="rotate(270,-33.37,1.735)" />
    <rect id="mn-413" x="-18.872" y="12.146" width="0.05" height="0.05" transform="rotate(145.622,-18.847,12.171)" />
    <rect id="mn-414" x="-18.567" y="12.146" width="0.05" height="0.05" transform="rotate(180,-18.542,12.171)" />
    <rect id="mn-415" x="-19.38" y="12.146" width="0.05" height="0.05" transform="rotate(102.081,-19.355,12.171)" />
    <rect id="mn-416" x="-19.634" y="12.146" width="0.05" height="0.05" transform="rotate(90,-19.609,12.171)" />
    <rect id="mn-417" x="-25.304" y="12.146" width="0.05" height="0.05" transform="rotate(180,-25.279,12.171)" />
    <rect id="mn-418" x="-25.609" y="12.146" width="0.05" height="0.05" transform="rotate(148.6,-25.584,12.171)" />
    <rect id="mn-419" x="-26.422" y="12.019" width="0.05" height="0.05" transform="rotate(90,-26.397,12.044)" />
    <rect id="mn-420" x="-26.117" y="12.019" width="0.05" height="0.05" transform="rotate(98.421,-26.092,12.044)" />
    <rect id="mn-421" x="-15.612" y="3.036" width="0.05" height="0.05" transform="rotate(120,-15.587,3.061)" />
    <rect id="mn-422" x="-11.185" y="-4.467" width="0.05" height="0.05" transform="rotate(224.658,-11.16,-4.442)" />
    <rect id="mn-423" x="-13.319" y="-7.967" width="0.05" height="0.05" transform="rotate(180,-13.294,-7.942)" />
    <rect id="mn-424" x="-7.985" y="-7.967" width="0.05" height="0.05" />
    <rect id="mn-425" x="-10.606" y="-7.967" width="0.05" height="0.05" transform="rotate(315,-10.581,-7.942)" />
    <rect id="mn-426" x="-11.185" y="-7.388" width="0.05" height="0.05" transform="rotate(270,-11.16,-7.363)" />
    <rect id="mn-427" x="-10.87" y="-7.703" width="0.05" height="0.05" transform="rotate(315,-10.845,-7.678)" />
    <rect id="mn-428" x="-11.134" y="-7.967" width="0.05" height="0.05" />
    <rect id="mn-429" x="-11.693" y="-4.252" width="0.05" height="0.05" />
    <rect id="mn-430" x="-14.182" y="-4.252" width="0.05" height="0.05" transform="rotate(180,-14.157,-4.227)" />
    <rect id="mn-431" x="-14.659" y="-4.729" width="0.05" height="0.05" transform="rotate(225,-14.634,-4.704)" />
    <rect id="mn-432" x="-14.659" y="-7.877" width="0.05" height="0.05" transform="rotate(270,-14.634,-7.852)" />
    <rect id="mn-433" x="-11.185" y="-2.802" width="0.05" height="0.05" transform="rotate(240,-11.16,-2.777)" />
    <rect id="mn-434" x="-11.185" y="-2.802" width="0.05" height="0.05" transform="rotate(270,-11.16,-2.777)" />
    <rect id="mn-435" x="-10.633" y="-2.057" width="0.05" height="0.05" transform="rotate(120,-10.608,-2.032)" />
    <rect id="mn-436" x="-11.185" y="-3.354" width="0.05" height="0.05" transform="rotate(90,-11.16,-3.329)" />
    <rect id="mn-437" x="-13.433" y="-3.294" width="0.05" height="0.05" transform="rotate(270,-13.408,-3.269)" />
    <rect id="mn-438" x="-13.433" y="-0.774" width="0.05" height="0.05" transform="rotate(90,-13.408,-0.749)" />
    <rect id="mn-439" x="-8.112" y="-3.088" width="0.05" height="0.05" transform="rotate(45,-8.087,-3.063)" />
    <rect id="mn-440" x="-8.378" y="-3.354" width="0.05" height="0.05" />
    <rect id="mn-441" x="-8.112" y="-0.774" width="0.05" height="0.05" transform="rotate(90,-8.087,-0.749)" />
    <rect id="mn-442" x="-11.693" y="-0.299" width="0.05" height="0.05" transform="rotate(90,-11.668,-0.274)" />
    <rect id="mn-443" x="-14.284" y="-0.299" width="0.05" height="0.05" transform="rotate(180,-14.259,-0.274)" />
    <rect id="mn-444" x="-11.185" y="-0.299" width="0.05" height="0.05" transform="rotate(180,-11.16,-0.274)" />
    <rect id="mn-445" x="-10.271" y="-0.299" width="0.05" height="0.05" transform="rotate(90,-10.246,-0.274)" />
    <rect id="mn-446" x="-14.284" y="-4.268" width="0.05" height="0.05" transform="rotate(120,-14.259,-4.243)" />
    <rect id="mn-447" x="-14.284" y="-4.033" width="0.05" height="0.05" transform="rotate(240,-14.259,-4.008)" />
    <rect id="mn-448" x="-14.284" y="-8.173" width="0.05" height="0.05" transform="rotate(261.579,-14.259,-8.148)" />
    <rect id="mn-449" x="-13.928" y="-8.173" width="0.05" height="0.05" transform="rotate(180,-13.903,-8.148)" />
    <rect id="mn-450" x="-10.271" y="-4.262" width="0.05" height="0.05" transform="rotate(270,-10.246,-4.237)" />
    <rect id="mn-451" x="-7.528" y="-4.262" width="0.05" height="0.05" transform="rotate(98.421,-7.503,-4.237)" />
    <rect id="mn-452" x="-7.934" y="-4.262" width="0.05" height="0.05" transform="rotate(90,-7.909,-4.237)" />
    <rect id="mn-453" x="-7.528" y="-8.173" width="0.05" height="0.05" transform="rotate(211.4,-7.503,-8.148)" />
    <rect id="mn-454" x="-8.772" y="-8.173" width="0.05" height="0.05" transform="rotate(180,-8.747,-8.148)" />
    <rect id="mn-455" x="-7.883" y="-8.173" width="0.05" height="0.05" transform="rotate(148.6,-7.858,-8.148)" />
    <rect id="mn-456" x="5.071" y="-4.168" width="0.05" height="0.05" transform="rotate(240,5.096,-4.143)" />
    <rect id="mn-457" x="5.071" y="-4.467" width="0.05" height="0.05" transform="rotate(224.658,5.096,-4.442)" />
    <rect id="mn-458" x="2.937" y="-7.967" width="0.05" height="0.05" transform="rotate(180,2.962,-7.942)" />
    <rect id="mn-459" x="10.567" y="-7.967" width="0.05" height="0.05" />
    <rect id="mn-460" x="5.65" y="-7.967" width="0.05" height="0.05" transform="rotate(315,5.675,-7.942)" />
    <rect id="mn-461" x="5.071" y="-7.388" width="0.05" height="0.05" transform="rotate(270,5.096,-7.363)" />
    <rect id="mn-462" x="5.386" y="-7.703" width="0.05" height="0.05" transform="rotate(315,5.411,-7.678)" />
    <rect id="mn-463" x="5.122" y="-7.967" width="0.05" height="0.05" />
    <rect id="mn-464" x="4.563" y="-4.252" width="0.05" height="0.05" />
    <rect id="mn-465" x="2.074" y="-4.252" width="0.05" height="0.05" transform="rotate(180,2.099,-4.227)" />
    <rect id="mn-466" x="1.597" y="-4.729" width="0.05" height="0.05" transform="rotate(225,1.622,-4.704)" />
    <rect id="mn-467" x="1.597" y="-7.877" width="0.05" height="0.05" transform="rotate(270,1.622,-7.852)" />
    <rect id="mn-468" x="5.071" y="-2.802" width="0.05" height="0.05" transform="rotate(240,5.096,-2.777)" />
    <rect id="mn-469" x="5.071" y="-2.802" width="0.05" height="0.05" transform="rotate(270,5.096,-2.777)" />
    <rect id="mn-470" x="5.639" y="-2.07" width="0.05" height="0.05" transform="rotate(120,5.664,-2.045)" />
    <rect id="mn-471" x="5.071" y="-3.253" width="0.05" height="0.05" transform="rotate(90,5.096,-3.228)" />
    <rect id="mn-472" x="3.151" y="-3.621" width="0.05" height="0.05" transform="rotate(315,3.176,-3.596)" />
    <rect id="mn-473" x="2.823" y="-3.294" width="0.05" height="0.05" transform="rotate(270,2.848,-3.269)" />
    <rect id="mn-474" x="2.823" y="-0.774" width="0.05" height="0.05" transform="rotate(90,2.848,-0.749)" />
    <rect id="mn-475" x="8.144" y="-2.986" width="0.05" height="0.05" transform="rotate(45,8.169,-2.961)" />
    <rect id="mn-476" x="7.878" y="-3.253" width="0.05" height="0.05" />
    <rect id="mn-477" x="8.144" y="-0.774" width="0.05" height="0.05" transform="rotate(90,8.169,-0.749)" />
    <rect id="mn-478" x="4.563" y="-0.444" width="0.05" height="0.05" transform="rotate(90,4.588,-0.419)" />
    <rect id="mn-479" x="1.972" y="-0.444" width="0.05" height="0.05" transform="rotate(180,1.997,-0.419)" />
    <rect id="mn-480" x="5.071" y="-0.444" width="0.05" height="0.05" transform="rotate(180,5.096,-0.419)" />
    <rect id="mn-481" x="5.985" y="-0.444" width="0.05" height="0.05" transform="rotate(90,6.01,-0.419)" />
    <rect id="mn-482" x="1.972" y="-4.268" width="0.05" height="0.05" transform="rotate(120,1.997,-4.243)" />
    <rect id="mn-483" x="1.972" y="-4.033" width="0.05" height="0.05" transform="rotate(240,1.997,-4.008)" />
    <rect id="mn-484" x="1.972" y="-8.173" width="0.05" height="0.05" transform="rotate(261.579,1.997,-8.148)" />
    <rect id="mn-485" x="2.544" y="-8.173" width="0.05" height="0.05" transform="rotate(180,2.569,-8.148)" />
    <rect id="mn-486" x="5.985" y="-4.262" width="0.05" height="0.05" transform="rotate(270,6.01,-4.237)" />
    <rect id="mn-487" x="12.005" y="-4.262" width="0.05" height="0.05" transform="rotate(98.421,12.03,-4.237)" />
    <rect id="mn-488" x="11.599" y="-4.262" width="0.05" height="0.05" transform="rotate(90,11.624,-4.237)" />
    <rect id="mn-489" x="12.005" y="-8.173" width="0.05" height="0.05" transform="rotate(211.4,12.03,-8.148)" />
    <rect id="mn-490" x="11.434" y="-8.173" width="0.05" height="0.05" transform="rotate(148.6,11.459,-8.148)" />
    <rect id="mn-491" x="10.944" y="-8.173" width="0.05" height="0.05" transform="rotate(180,10.969,-8.148)" />
    <rect id="mn-492" x="19.587" y="-7.303" width="0.05" height="0.05" transform="rotate(7.5,19.612,-7.278)" />
    <rect id="mn-493" x="13.845" y="-8.059" width="0.05" height="0.05" transform="rotate(187.5,13.87,-8.034)" />
    <rect id="mn-494" x="19.079" y="-3.391" width="0.05" height="0.05" />
    <rect id="mn-495" x="15.98" y="-3.391" width="0.05" height="0.05" transform="rotate(180,16.005,-3.366)" />
    <rect id="mn-496" x="15.98" y="-6.374" width="0.05" height="0.05" transform="rotate(270,16.005,-6.349)" />
    <rect id="mn-497" x="19.587" y="-2.555" width="0.05" height="0.05" transform="rotate(240,19.612,-2.53)" />
    <rect id="mn-498" x="19.587" y="-2.555" width="0.05" height="0.05" transform="rotate(270,19.612,-2.53)" />
    <rect id="mn-499" x="18.853" y="-0.917" width="0.05" height="0.05" transform="rotate(120,18.878,-0.892)" />
    <rect id="mn-500" x="19.587" y="0.136" width="0.05" height="0.05" transform="rotate(180,19.612,0.161)" />
    <rect id="mn-501" x="20.018" y="0.136" width="0.05" height="0.05" transform="rotate(90,20.043,0.161)" />
    <rect id="mn-502" x="20.018" y="-0.956" width="0.05" height="0.05" transform="rotate(270,20.043,-0.931)" />
    <rect id="mn-503" x="20.409" y="-1.347" width="0.05" height="0.05" transform="rotate(90,20.434,-1.322)" />
    <rect id="mn-504" x="19.079" y="0.136" width="0.05" height="0.05" transform="rotate(90,19.104,0.161)" />
    <rect id="mn-505" x="15.726" y="0.136" width="0.05" height="0.05" transform="rotate(180,15.751,0.161)" />
    <rect id="mn-506" x="20.409" y="-7.57" width="0.05" height="0.05" transform="rotate(7.5,20.434,-7.545)" />
    <rect id="mn-507" x="19.38" y="-7.705" width="0.05" height="0.05" transform="rotate(187.381,19.405,-7.68)" />
    <rect id="mn-508" x="19.433" y="-8.111" width="0.05" height="0.05" transform="rotate(232.271,19.458,-8.086)" />
    <rect id="mn-509" x="15.726" y="-7.449" width="0.05" height="0.05" transform="rotate(240,15.751,-7.424)" />
    <rect id="mn-510" x="15.726" y="-7.601" width="0.05" height="0.05" transform="rotate(120,15.751,-7.576)" />
    <rect id="mn-511" x="-8.106" y="-5.613" width="0.05" height="0.05" transform="rotate(90,-8.081,-5.588)" />
    <rect id="mn-512" x="-10.847" y="-5.613" width="0.05" height="0.05" transform="rotate(270,-10.822,-5.588)" />
    <rect id="mn-513" x="-8.106" y="-8.087" width="0.05" height="0.05" />
    <rect id="mn-514" x="-7.598" y="-7.833" width="0.05" height="0.05" transform="rotate(244.07,-7.573,-7.808)" />
    <rect id="mn-515" x="-12.385" y="-8.087" width="0.05" height="0.05" transform="rotate(180,-12.36,-8.062)" />
    <rect id="mn-516" x="-10.847" y="-4.507" width="0.05" height="0.05" transform="rotate(120,-10.822,-4.482)" />
    <rect id="mn-517" x="-10.847" y="-3.054" width="0.05" height="0.05" transform="rotate(240,-10.822,-3.029)" />
    <rect id="mn-518" x="-10.847" y="0.541" width="0.05" height="0.05" transform="rotate(90,-10.822,0.566)" />
    <rect id="mn-519" x="-7.598" y="0.541" width="0.05" height="0.05" transform="rotate(90,-7.573,0.566)" />
    <rect id="mn-520" x="-10.605" y="5.089" width="0.05" height="0.05" transform="rotate(120,-10.58,5.114)" />
    <rect id="mn-521" x="-8.141" y="7.94" width="0.05" height="0.05" transform="rotate(240,-8.116,7.965)" />
    <rect id="mn-522" x="-8.141" y="7.662" width="0.05" height="0.05" transform="rotate(201.091,-8.116,7.687)" />
    <rect id="mn-523" x="-7.595" y="5.52" width="0.05" height="0.05" transform="rotate(93.841,-7.57,5.545)" />
    <rect id="mn-524" x="-7.595" y="5.254" width="0.05" height="0.05" transform="rotate(201.091,-7.57,5.279)" />
    <rect id="mn-525" x="-7.595" y="6.43" width="0.05" height="0.05" transform="rotate(90,-7.57,6.455)" />
    <rect id="mn-526" x="-7.595" y="0.949" width="0.05" height="0.05" transform="rotate(270,-7.57,0.974)" />
    <rect id="mn-527" x="-10.605" y="6.045" width="0.05" height="0.05" transform="rotate(211.4,-10.58,6.07)" />
    <rect id="mn-528" x="-7.633" y="7.369" width="0.05" height="0.05" />
    <rect id="mn-529" x="-10.605" y="8.998" width="0.05" height="0.05" transform="rotate(90,-10.58,9.023)" />
    <rect id="mn-530" x="-10.097" y="7.369" width="0.05" height="0.05" transform="rotate(180,-10.072,7.394)" />
    <rect id="mn-531" x="-10.605" y="6.527" width="0.05" height="0.05" transform="rotate(98.421,-10.58,6.552)" />
    <rect id="mn-532" x="-10.605" y="7.369" width="0.05" height="0.05" transform="rotate(270,-10.58,7.394)" />
    <rect id="mn-533" x="-0.95" y="-8.2" width="0.05" height="0.05" />
    <rect id="mn-534" x="-0.442" y="-8.2" width="0.05" height="0.05" transform="rotate(270,-0.417,-8.175)" />
    <rect id="mn-535" x="-0.036" y="-8.2" width="0.05" height="0.05" transform="rotate(90,-0.011,-8.175)" />
    <rect id="mn-536" x="-4.844" y="-8.2" width="0.05" height="0.05" transform="rotate(180,-4.819,-8.175)" />
    <rect id="mn-537" x="-5.359" y="-8.2" width="0.05" height="0.05" transform="rotate(180,-5.334,-8.175)" />
    <rect id="mn-538" x="0.807" y="-4.332" width="0.05" height="0.05" transform="rotate(90,0.832,-4.307)" />
    <rect id="mn-539" x="-5.916" y="-4.332" width="0.05" height="0.05" transform="rotate(180,-5.891,-4.307)" />
    <rect id="mn-540" x="-0.95" y="-4.332" width="0.05" height="0.05" transform="rotate(98.421,-0.925,-4.307)" />
    <rect id="mn-541" x="-1.309" y="-4.332" width="0.05" height="0.05" transform="rotate(90,-1.284,-4.307)" />
    <rect id="mn-542" x="-0.442" y="-4.332" width="0.05" height="0.05" transform="rotate(148.6,-0.417,-4.307)" />
    <rect id="mn-543" x="-0.083" y="-4.332" width="0.05" height="0.05" transform="rotate(180,-0.058,-4.307)" />
    <rect id="mn-544" x="1.857" y="12.396" width="0.05" height="0.05" transform="rotate(98.421,1.882,12.421)" />
    <rect id="mn-545" x="-17.78" y="12.146" width="0.05" height="0.05" />
    <rect id="mn-546" x="-24.13" y="12.146" width="0.05" height="0.05" />
    <rect id="mn-547" x="-13.004" y="-3.723" width="0.05" height="0.05" transform="rotate(315,-12.979,-3.698)" />
    <rect id="mn-548" x="-11.185" y="-3.723" width="0.05" height="0.05" transform="rotate(158.909,-11.16,-3.698)" />
    <rect id="mn-549" x="-11.185" y="-4.168" width="0.05" height="0.05" transform="rotate(106.78,-11.16,-4.143)" />
    <rect id="mn-550" x="-11.559" y="-3.723" width="0.05" height="0.05" transform="rotate(90,-11.534,-3.698)" />
    <rect id="mn-551" x="13.985" y="4.973" width="0.05" height="0.05" transform="rotate(95.188,14.01,4.998)" />
    <rect id="mn-552" x="14.352" y="4.973" width="0.05" height="0.05" transform="rotate(180,14.377,4.998)" />
    <rect id="mn-553" x="5.071" y="-3.621" width="0.05" height="0.05" transform="rotate(264.812,5.096,-3.596)" />
    <rect id="mn-554" x="4.763" y="-3.621" width="0.05" height="0.05" transform="rotate(90,4.788,-3.596)" />
    <rect id="mn-555" x="-7.566" y="-7.981" width="0.05" height="0.05" transform="rotate(198.534,-7.541,-7.956)" />
    <rect id="mn-556" x="-7.543" y="-8.216" width="0.05" height="0.05" transform="rotate(212.271,-7.518,-8.191)" />
    <rect id="mn-557" x="-28.244" y="12.019" width="0.05" height="0.05" transform="rotate(270,-28.219,12.044)" />
    <rect id="mn-558" x="-21.742" y="12.146" width="0.05" height="0.05" transform="rotate(270,-21.717,12.171)" />
    <rect id="mn-559" x="-10.62" y="12.231" width="0.05" height="0.05" transform="rotate(299.018,-10.595,12.256)" />
    <rect id="mn-560" x="-0.46" y="12.389" width="0.05" height="0.05" transform="rotate(93.841,-0.435,12.414)" />
    <rect id="mn-561" x="9.7" y="12.427" width="0.05" height="0.05" transform="rotate(120.942,9.725,12.452)" />
    <rect id="mn-562" x="17.32" y="12.383" width="0.05" height="0.05" transform="rotate(93.841,17.345,12.408)" />
    <rect id="mn-563" x="15.726" y="-8.363" width="0.05" height="0.05" transform="rotate(270,15.751,-8.338)" />
    <rect id="mn-564" x="3.658" y="-8.173" width="0.05" height="0.05" transform="rotate(90,3.683,-8.148)" />
    <rect id="mn-565" x="0.229" y="-8.2" width="0.05" height="0.05" transform="rotate(180,0.254,-8.175)" />
    <rect id="mn-566" x="-12.735" y="-8.173" width="0.05" height="0.05" transform="rotate(90,-12.71,-8.148)" />
    <rect id="mn-1584" x="-15.395" y="11.291" width="0.05" height="0.05" transform="rotate(240,-15.37,11.316)" />
    <rect id="mn-1585" x="6.419" y="4.425" width="0.05" height="0.05" transform="rotate(90,6.444,4.45)" />
    <rect id="mn-1586" x="15.74" y="3.645" width="0.05" height="0.05" transform="rotate(90,15.765,3.67)" />
    <rect id="mn-1587" x="16.05" y="6.87" width="0.05" height="0.05" transform="rotate(45,16.075,6.895)" />
    <rect id="mn-1588" x="15.74" y="6.56" width="0.05" height="0.05" transform="rotate(225,15.765,6.585)" />
    <rect id="mn-1589" x="-8.904" y="3.364" width="0.05" height="0.05" transform="rotate(90,-8.879,3.389)" />
    <rect id="mn-1590" x="-8.904" y="6.634" width="0.05" height="0.05" transform="rotate(90,-8.879,6.659)" />
    <rect id="mn-1591" x="-9.488" y="6.634" width="0.05" height="0.05" transform="rotate(270,-9.463,6.659)" />
    <rect id="mn-1592" x="6.419" y="11.899" width="0.05" height="0.05" transform="rotate(90,6.444,11.924)" />
    <rect id="mn-1593" x="5.89" y="12.427" width="0.05" height="0.05" transform="rotate(270,5.915,12.452)" />
    <rect id="mn-1594" x="6.884" y="-1.182" width="0.05" height="0.05" transform="rotate(180,6.909,-1.157)" />
    <rect id="mn-1595" x="6.3" y="-4.629" width="0.05" height="0.05" transform="rotate(120,6.325,-4.604)" />
    <rect id="mn-1596" x="6.3" y="-4.111" width="0.05" height="0.05" transform="rotate(98.421,6.325,-4.086)" />
    <rect id="mn-1597" x="6.3" y="-2.282" width="0.05" height="0.05" transform="rotate(225,6.325,-2.257)" />
    <rect id="mn-1598" x="6.884" y="-1.698" width="0.05" height="0.05" transform="rotate(45,6.909,-1.673)" />
    <rect id="mn-1599" x="-6.869" y="-3.673" width="0.05" height="0.05" transform="rotate(201.091,-6.844,-3.648)" />
    <rect id="mn-1600" x="-6.869" y="-3.348" width="0.05" height="0.05" transform="rotate(93.841,-6.844,-3.323)" />
    <rect id="mn-1601" x="-6.869" y="-4.121" width="0.05" height="0.05" transform="rotate(240,-6.844,-4.096)" />
    <rect id="mn-1602" x="-6.869" y="-4.446" width="0.05" height="0.05" transform="rotate(201.091,-6.844,-4.421)" />
    <rect id="mn-1603" x="-6.869" y="-7.9" width="0.05" height="0.05" transform="rotate(240,-6.844,-7.875)" />
    <rect id="mn-1604" x="17.677" y="-4.424" width="0.05" height="0.05" transform="rotate(120,17.702,-4.399)" />
    <rect id="mn-1605" x="17.677" y="-4.124" width="0.05" height="0.05" transform="rotate(93.841,17.702,-4.099)" />
    <rect id="mn-1606" x="17.677" y="-3.673" width="0.05" height="0.05" transform="rotate(201.091,17.702,-3.648)" />
    <rect id="mn-1607" x="17.677" y="-3.372" width="0.05" height="0.05" transform="rotate(93.841,17.702,-3.347)" />
    <rect id="mn-1608" x="17.677" y="-1.602" width="0.05" height="0.05" transform="rotate(90,17.702,-1.577)" />
    <rect id="mn-1609" x="17.354" y="-0.304" width="0.05" height="0.05" transform="rotate(189.875,17.379,-0.279)" />
    <rect id="mn-1610" x="-6.869" y="-8.193" width="0.05" height="0.05" transform="rotate(201.091,-6.844,-8.168)" />
    <rect id="mn-1611" x="6.3" y="-8.213" width="0.05" height="0.05" transform="rotate(240,6.325,-8.188)" />
    <rect id="mn-1612" x="6.3" y="-8.213" width="0.05" height="0.05" transform="rotate(120,6.325,-8.188)" />
    <rect id="mn-1613" x="5.385" y="-8.213" width="0.05" height="0.05" transform="rotate(180,5.41,-8.188)" />
    <rect id="mn-1614" x="17.677" y="-7.858" width="0.05" height="0.05" transform="rotate(240,17.702,-7.833)" />
    <rect id="mn-1615" x="17.677" y="-7.858" width="0.05" height="0.05" transform="rotate(135.35,17.702,-7.833)" />
    <rect id="mn-1616" x="5.385" y="-8.213" width="0.05" height="0.05" transform="rotate(180,5.41,-8.188)" />
    <rect id="mn-1617" x="17.714" y="-8.562" width="0.05" height="0.05" transform="rotate(236.065,17.739,-8.537)" />
    <rect id="mn-1618" x="-16.51" y="12.408" width="0.05" height="0.05" transform="rotate(270,-16.485,12.433)" />
    <rect id="mn-1619" x="-15.395" y="12.056" width="0.05" height="0.05" transform="rotate(90,-15.37,12.081)" />
    <rect id="mn-1620" x="-15.748" y="12.408" width="0.05" height="0.05" transform="rotate(135,-15.723,12.433)" />
    <rect id="mn-1621" x="-9.316" y="-1.182" width="0.05" height="0.05" transform="rotate(240,-9.291,-1.157)" />
    <rect id="mn-1622" x="-6.869" y="-1.182" width="0.05" height="0.05" transform="rotate(90,-6.844,-1.157)" />
    <rect id="mn-1623" x="-3.635" y="3.179" width="0.05" height="0.05" transform="rotate(315,-3.61,3.204)" />
    <rect id="mn-1624" x="-2.517" y="3.179" width="0.05" height="0.05" transform="rotate(90,-2.492,3.204)" />
    <rect id="mn-1625" x="-1.879" y="3.179" width="0.05" height="0.05" transform="rotate(240,-1.854,3.204)" />
    <rect id="mn-1626" x="-2.022" y="3.179" width="0.05" height="0.05" transform="rotate(180,-1.997,3.204)" />
    <rect id="mn-1627" x="-2.23" y="3.179" width="0.05" height="0.05" transform="rotate(261.579,-2.205,3.204)" />
    <rect id="mn-1628" x="-30.335" y="10.837" width="0.05" height="0.05" transform="rotate(270,-30.31,10.862)" />
    <rect id="mn-1629" x="-30.335" y="11.372" width="0.05" height="0.05" transform="rotate(180,-30.31,11.397)" />
    <rect id="mn-1630" x="-15.294" y="11.041" width="0.05" height="0.05" transform="rotate(240,-15.269,11.066)" />
    <rect id="mn-1631" x="-15.294" y="11.041" width="0.05" height="0.05" transform="rotate(270,-15.269,11.066)" />
    <rect id="mn-1632" x="-30.307" y="12.428" width="0.05" height="0.05" transform="rotate(90,-30.282,12.453)" />
    <rect id="mn-1633" x="-30.307" y="12.362" width="0.05" height="0.05" transform="rotate(270,-30.282,12.387)" />
    <rect id="mn-1634" x="-30.307" y="10.938" width="0.05" height="0.05" transform="rotate(270,-30.282,10.963)" />
    <rect id="mn-1635" x="-30.307" y="12.428" width="0.05" height="0.05" transform="rotate(109.207,-30.282,12.453)" />
    <rect id="mn-1636" x="-30.172" y="12.379" width="0.05" height="0.05" transform="rotate(340,-30.147,12.404)" />
    <rect id="mn-1637" x="-29.732" y="12.214" width="0.05" height="0.05" transform="rotate(109.207,-29.707,12.239)" />
    <rect id="mn-1638" x="10.021" y="5.265" width="0.05" height="0.05" transform="rotate(240,10.046,5.29)" />
    <rect id="mn-1639" x="13.189" y="5.141" width="0.05" height="0.05" transform="rotate(240,13.214,5.166)" />
    <rect id="mn-1640" x="12.621" y="4.445" width="0.05" height="0.05" transform="rotate(240,12.646,4.47)" />
    <rect id="mn-1641" x="13.189" y="4.76" width="0.05" height="0.05" transform="rotate(270,13.214,4.785)" />
    <rect id="mn-1642" x="13.1" y="4.67" width="0.05" height="0.05" transform="rotate(225,13.125,4.695)" />
    <rect id="mn-1643" x="12.875" y="4.445" width="0.05" height="0.05" />
    <rect id="mn-1644" x="15.483" y="3.706" width="0.05" height="0.05" transform="rotate(270,15.508,3.731)" />
    <rect id="mn-1645" x="15.483" y="5.614" width="0.05" height="0.05" transform="rotate(90,15.508,5.639)" />
    <rect id="mn-1646" x="15.345" y="5.614" width="0.05" height="0.05" transform="rotate(180,15.37,5.639)" />
    <rect id="mn-1647" x="15.066" y="5.614" width="0.05" height="0.05" transform="rotate(165.894,15.091,5.639)" />
    <rect id="mn-1648" x="15.177" y="5.614" width="0.05" height="0.05" transform="rotate(268.272,15.202,5.639)" />
    <rect id="mn-1649" x="13.189" y="5.614" width="0.05" height="0.05" transform="rotate(120,13.214,5.639)" />
    <rect id="mn-1650" x="13.279" y="5.614" width="0.05" height="0.05" transform="rotate(45,13.304,5.639)" />
    <rect id="mn-1651" x="13.721" y="5.614" width="0.05" height="0.05" transform="rotate(180,13.746,5.639)" />
    <rect id="mn-1652" x="12.621" y="4.445" width="0.05" height="0.05" transform="rotate(179.929,12.646,4.47)" />
    <rect id="mn-1653" x="9.437" y="5.265" width="0.05" height="0.05" transform="rotate(180,9.462,5.29)" />
    <rect id="mn-1654" x="6.671" y="5.299" width="0.05" height="0.05" transform="rotate(239.575,6.696,5.324)" />
    <rect id="mn-1655" x="10.021" y="5.265" width="0.05" height="0.05" transform="rotate(180,10.046,5.29)" />
    <rect id="mn-1656" x="10.021" y="5.406" width="0.05" height="0.05" transform="rotate(98.421,10.046,5.431)" />
    <rect id="mn-1657" x="10.021" y="5.547" width="0.05" height="0.05" transform="rotate(240,10.046,5.572)" />
    <rect id="mn-1658" x="7.946" y="6.69" width="0.05" height="0.05" transform="rotate(90,7.971,6.715)" />
    <rect id="mn-1659" x="8.784" y="6.69" width="0.05" height="0.05" transform="rotate(90,8.809,6.715)" />
    <rect id="mn-1660" x="10.021" y="6.69" width="0.05" height="0.05" transform="rotate(90,10.046,6.715)" />
    <rect id="mn-1661" x="8.784" y="6.69" width="0.05" height="0.05" transform="rotate(180,8.809,6.715)" />
    <rect id="mn-1662" x="7.946" y="6.69" width="0.05" height="0.05" transform="rotate(180,7.971,6.715)" />
    <rect id="mn-1663" x="-1.546" y="5.192" width="0.05" height="0.05" transform="rotate(98.421,-1.521,5.217)" />
    <rect id="mn-1664" x="-2.104" y="5.566" width="0.05" height="0.05" transform="rotate(179.297,-2.079,5.591)" />
    <rect id="mn-1665" x="-1.546" y="5.192" width="0.05" height="0.05" transform="rotate(270,-1.521,5.217)" />
    <rect id="mn-1666" x="-2.104" y="5.566" width="0.05" height="0.05" transform="rotate(240,-2.079,5.591)" />
    <rect id="mn-1667" x="-1.546" y="5.566" width="0.05" height="0.05" transform="rotate(240,-1.521,5.591)" />
    <rect id="mn-1668" x="-11.439" y="5.141" width="0.05" height="0.05" transform="rotate(269.962,-11.414,5.166)" />
    <rect id="mn-1669" x="-12.026" y="2.72" width="0.05" height="0.05" transform="rotate(240,-12.001,2.745)" />
    <rect id="mn-1670" x="-9.136" y="3.706" width="0.05" height="0.05" transform="rotate(240,-9.111,3.731)" />
    <rect id="mn-1671" x="-9.136" y="2.72" width="0.05" height="0.05" />
    <rect id="mn-1672" x="-9.136" y="5.612" width="0.05" height="0.05" transform="rotate(90,-9.111,5.637)" />
    <rect id="mn-1673" x="-9.467" y="5.612" width="0.05" height="0.05" transform="rotate(180,-9.442,5.637)" />
    <rect id="mn-1674" x="-11.541" y="5.614" width="0.05" height="0.05" transform="rotate(120,-11.516,5.639)" />
    <rect id="mn-1675" x="-11.398" y="5.614" width="0.05" height="0.05" />
    <rect id="mn-1676" x="20.072" y="-0.917" width="0.05" height="0.05" transform="rotate(123.54,20.097,-0.892)" />
    <rect id="mn-1677" x="17.548" y="-0.454" width="0.05" height="0.05" transform="rotate(180,17.573,-0.429)" />
    <rect id="mn-1678" x="17.548" y="-0.454" width="0.05" height="0.05" transform="rotate(180,17.573,-0.429)" />
    <rect id="mn-1679" x="17.548" y="-2.36" width="0.05" height="0.05" transform="rotate(270,17.573,-2.335)" />
    <rect id="mn-1680" x="18.026" y="-2.36" width="0.05" height="0.05" transform="rotate(120,18.051,-2.335)" />
    <rect id="mn-1681" x="18.026" y="-2.36" width="0.05" height="0.05" transform="rotate(180,18.051,-2.335)" />
    <rect id="mn-1682" x="20.173" y="-1.879" width="0.05" height="0.05" transform="rotate(184.262,20.198,-1.854)" />
    <rect id="mn-1683" x="20.533" y="-2.364" width="0.05" height="0.05" transform="rotate(240,20.558,-2.339)" />
    <rect id="mn-1684" x="20.391" y="-2.364" width="0.05" height="0.05" transform="rotate(180,20.416,-2.339)" />
    <rect id="mn-1685" x="20.533" y="-2.364" width="0.05" height="0.05" transform="rotate(205.668,20.558,-2.339)" />
    <rect id="mn-1686" x="20.533" y="-2.364" width="0.05" height="0.05" transform="rotate(126.256,20.558,-2.339)" />
    <rect id="mn-1687" x="20.674" y="-2.338" width="0.05" height="0.05" transform="rotate(10.532,20.699,-2.313)" />
    <rect id="mn-1688" x="20.889" y="-2.298" width="0.05" height="0.05" transform="rotate(10.532,20.914,-2.273)" />
    <rect id="mn-1689" x="20.144" y="-1.879" width="0.05" height="0.05" transform="rotate(162.908,20.169,-1.854)" />
    <rect id="mn-1690" x="20.533" y="-2.364" width="0.05" height="0.05" transform="rotate(207.154,20.558,-2.339)" />
    <rect id="mn-1691" x="3.493" y="0.294" width="0.05" height="0.05" transform="rotate(270,3.518,0.319)" />
    <rect id="mn-1692" x="6.844" y="-2.055" width="0.05" height="0.05" transform="rotate(119.357,6.869,-2.03)" />
    <rect id="mn-1693" x="4.077" y="-2.001" width="0.05" height="0.05" transform="rotate(119.357,4.102,-1.976)" />
    <rect id="mn-1694" x="3.493" y="-3.366" width="0.05" height="0.05" transform="rotate(180,3.518,-3.341)" />
    <rect id="mn-1695" x="3.493" y="-3.163" width="0.05" height="0.05" transform="rotate(90,3.518,-3.138)" />
    <rect id="mn-1696" x="7.414" y="-2.571" width="0.05" height="0.05" transform="rotate(180,7.439,-2.546)" />
    <rect id="mn-1697" x="5.873" y="-3.365" width="0.05" height="0.05" transform="rotate(90,5.898,-3.34)" />
    <rect id="mn-1698" x="5.034" y="-3.365" width="0.05" height="0.05" transform="rotate(240,5.059,-3.34)" />
    <rect id="mn-1699" x="3.492" y="0.294" width="0.05" height="0.05" transform="rotate(180,3.517,0.319)" />
    <rect id="mn-1700" x="3.493" y="-2.001" width="0.05" height="0.05" transform="rotate(180,3.518,-1.976)" />
    <rect id="mn-1701" x="3.696" y="-2.001" width="0.05" height="0.05" transform="rotate(358.312,3.721,-1.976)" />
    <rect id="mn-1702" x="7.414" y="-2.571" width="0.05" height="0.05" transform="rotate(180,7.439,-2.546)" />
    <rect id="mn-1703" x="7.414" y="-2.764" width="0.05" height="0.05" transform="rotate(45.023,7.439,-2.739)" />
    <rect id="mn-1704" x="6.813" y="-3.365" width="0.05" height="0.05" transform="rotate(1.292,6.838,-3.34)" />
    <rect id="mn-1705" x="3.493" y="-3.365" width="0.05" height="0.05" transform="rotate(120,3.518,-3.34)" />
    <rect id="mn-1706" x="3.696" y="-3.365" width="0.05" height="0.05" transform="rotate(1.193,3.721,-3.34)" />
    <rect id="mn-1707" x="5.034" y="-3.365" width="0.05" height="0.05" transform="rotate(269.994,5.059,-3.34)" />
    <rect id="mn-1708" x="5.873" y="-3.365" width="0.05" height="0.05" transform="rotate(269.994,5.898,-3.34)" />
    <rect id="mn-1709" x="3.492" y="12.25" width="0.05" height="0.05" transform="rotate(179.156,3.517,12.275)" />
    <rect id="mn-1710" x="3.493" y="12.25" width="0.05" height="0.05" transform="rotate(90,3.518,12.275)" />
    <rect id="mn-1711" x="3.493" y="12.25" width="0.05" height="0.05" transform="rotate(120.692,3.518,12.275)" />
    <rect id="mn-1712" x="-9.413" y="-2.057" width="0.05" height="0.05" transform="rotate(119.357,-9.388,-2.032)" />
    <rect id="mn-1713" x="-12.611" y="5.515" width="0.05" height="0.05" transform="rotate(180,-12.586,5.54)" />
    <rect id="mn-1714" x="-12.611" y="5.363" width="0.05" height="0.05" transform="rotate(266.159,-12.586,5.388)" />
    <rect id="mn-1715" x="-12.611" y="5.363" width="0.05" height="0.05" transform="rotate(240,-12.586,5.388)" />
    <rect id="mn-1716" x="-11.737" y="5.363" width="0.05" height="0.05" transform="rotate(90,-11.712,5.388)" />
    <rect id="mn-1717" x="-11.541" y="5.614" width="0.05" height="0.05" transform="rotate(95.232,-11.516,5.639)" />
    <rect id="mn-1718" x="-12.611" y="5.515" width="0.05" height="0.05" transform="rotate(123.079,-12.586,5.54)" />
    <rect id="mn-1719" x="-11.737" y="5.363" width="0.05" height="0.05" transform="rotate(239.309,-11.712,5.388)" />
    <rect id="mn-1720" x="-11.737" y="5.151" width="0.05" height="0.05" transform="rotate(269.994,-11.712,5.176)" />
    <rect id="mn-1721" x="-12.611" y="5.515" width="0.05" height="0.05" transform="rotate(180,-12.586,5.54)" />
    <rect id="mn-1722" x="-12.611" y="-3.365" width="0.05" height="0.05" transform="rotate(239.309,-12.586,-3.34)" />
    <rect id="mn-1723" x="-12.611" y="-3.628" width="0.05" height="0.05" transform="rotate(269.994,-12.586,-3.603)" />
    <rect id="mn-1724" x="-8.918" y="-2.571" width="0.05" height="0.05" transform="rotate(180,-8.893,-2.546)" />
    <rect id="mn-1725" x="-10.383" y="-3.365" width="0.05" height="0.05" transform="rotate(90,-10.358,-3.34)" />
    <rect id="mn-1726" x="-11.222" y="-3.365" width="0.05" height="0.05" transform="rotate(90,-11.197,-3.34)" />
    <rect id="mn-1727" x="-11.86" y="-2.009" width="0.05" height="0.05" transform="rotate(358.882,-11.835,-1.984)" />
    <rect id="mn-1728" x="-11.86" y="-2.413" width="0.05" height="0.05" transform="rotate(51.731,-11.835,-2.388)" />
    <rect id="mn-1729" x="-12.611" y="-3.365" width="0.05" height="0.05" transform="rotate(153.196,-12.586,-3.34)" />
    <rect id="mn-1730" x="-12.179" y="-2.003" width="0.05" height="0.05" transform="rotate(239.352,-12.154,-1.978)" />
    <rect id="mn-1731" x="-12.734" y="-2.308" width="0.05" height="0.05" transform="rotate(215.935,-12.709,-2.283)" />
    <rect id="mn-1732" x="-12.144" y="-2.773" width="0.05" height="0.05" transform="rotate(180,-12.119,-2.748)" />
    <rect id="mn-1733" x="-12.256" y="-2.685" width="0.05" height="0.05" transform="rotate(141.731,-12.231,-2.66)" />
    <rect id="mn-1734" x="-8.918" y="-2.571" width="0.05" height="0.05" transform="rotate(180,-8.893,-2.546)" />
    <rect id="mn-1735" x="-8.918" y="-3.365" width="0.05" height="0.05" transform="rotate(1.688,-8.893,-3.34)" />
    <rect id="mn-1736" x="-10.383" y="-3.365" width="0.05" height="0.05" transform="rotate(269.994,-10.358,-3.34)" />
    <rect id="mn-1737" x="-11.222" y="-3.365" width="0.05" height="0.05" transform="rotate(269.994,-11.197,-3.34)" />
    <rect id="mn-1738" x="-12.611" y="-3.365" width="0.05" height="0.05" transform="rotate(120,-12.586,-3.34)" />
    <rect id="mn-1739" x="-12.468" y="-3.365" width="0.05" height="0.05" transform="rotate(1.193,-12.443,-3.34)" />
    <rect id="mn-1740" x="-10.381" y="-3.365" width="0.05" height="0.05" transform="rotate(269.994,-10.356,-3.34)" />
    <rect id="mn-1741" x="-11.222" y="-3.365" width="0.05" height="0.05" transform="rotate(269.994,-11.197,-3.34)" />
    <rect id="mn-1742" x="-12.611" y="-3.365" width="0.05" height="0.05" transform="rotate(120,-12.586,-3.34)" />
    <rect id="mn-1743" x="-12.468" y="-3.365" width="0.05" height="0.05" transform="rotate(1.193,-12.443,-3.34)" />
    <rect id="mn-1744" x="-10.383" y="-3.365" width="0.05" height="0.05" transform="rotate(269.994,-10.358,-3.34)" />
    <rect id="mn-1745" x="-11.222" y="-3.365" width="0.05" height="0.05" transform="rotate(269.994,-11.197,-3.34)" />
    <rect id="mn-1746" x="-12.611" y="-3.365" width="0.05" height="0.05" transform="rotate(120,-12.586,-3.34)" />
    <rect id="mn-1747" x="-12.468" y="-3.365" width="0.05" height="0.05" transform="rotate(1.193,-12.443,-3.34)" />
    <rect id="mn-1748" x="-5.956" y="-3.403" width="0.05" height="0.05" transform="rotate(240,-5.931,-3.378)" />
    <rect id="mn-1749" x="-4.203" y="-3.403" width="0.05" height="0.05" transform="rotate(120,-4.178,-3.378)" />
    <rect id="mn-1750" x="-5.956" y="-3.403" width="0.05" height="0.05" transform="rotate(240,-5.931,-3.378)" />
    <rect id="mn-1751" x="-5.767" y="-3.403" width="0.05" height="0.05" transform="rotate(98.421,-5.742,-3.378)" />
    <rect id="mn-1752" x="-5.63" y="-3.267" width="0.05" height="0.05" transform="rotate(45,-5.605,-3.242)" />
    <rect id="mn-1753" x="-4.203" y="-3.403" width="0.05" height="0.05" transform="rotate(120,-4.178,-3.378)" />
    <rect id="mn-1754" x="1.359" y="-3.366" width="0.05" height="0.05" transform="rotate(180.836,1.384,-3.341)" />
    <rect id="mn-1755" x="-5.905" y="-3.403" width="0.05" height="0.05" transform="rotate(180.844,-5.88,-3.378)" />
    <rect id="mn-1756" x="1.359" y="-3.366" width="0.05" height="0.05" transform="rotate(90,1.384,-3.341)" />
    <rect id="mn-1757" x="1.359" y="-0.317" width="0.05" height="0.05" transform="rotate(120,1.384,-0.292)" />
    <rect id="mn-1758" x="-5.905" y="-3.403" width="0.05" height="0.05" transform="rotate(90,-5.88,-3.378)" />
    <rect id="mn-1759" x="-5.905" y="0.94" width="0.05" height="0.05" transform="rotate(180,-5.88,0.965)" />
    <rect id="mn-1760" x="-5.905" y="1.802" width="0.05" height="0.05" transform="rotate(90.025,-5.88,1.827)" />
    <rect id="mn-1761" x="-5.905" y="0.94" width="0.05" height="0.05" transform="rotate(90,-5.88,0.965)" />
    <rect id="mn-1762" x="-6.666" y="1.802" width="0.05" height="0.05" transform="rotate(240,-6.641,1.827)" />
    <rect id="mn-1763" x="-5.767" y="-3.403" width="0.05" height="0.05" transform="rotate(268.711,-5.742,-3.378)" />
    <rect id="mn-1764" x="-5.57" y="-2.772" width="0.05" height="0.05" transform="rotate(248.977,-5.545,-2.747)" />
    <rect id="mn-1765" x="-5.57" y="-3.072" width="0.05" height="0.05" transform="rotate(269.994,-5.545,-3.047)" />
    <rect id="mn-1766" x="3.746" y="12.25" width="0.05" height="0.05" transform="rotate(358.807,3.771,12.275)" />
    <rect id="mn-1767" x="-29.731" y="12.218" width="0.05" height="0.05" transform="rotate(120,-29.706,12.243)" />
    <rect id="mn-1768" x="-29.666" y="12.218" width="0.05" height="0.05" />
    <rect id="mn-1769" x="-29.254" y="12.218" width="0.05" height="0.05" transform="rotate(120,-29.229,12.243)" />
    <rect id="mn-1770" x="-29.732" y="12.214" width="0.05" height="0.05" transform="rotate(120,-29.707,12.239)" />
    <rect id="mn-1771" x="-29.667" y="12.214" width="0.05" height="0.05" />
    <rect id="mn-1772" x="-29.262" y="12.214" width="0.05" height="0.05" transform="rotate(120,-29.237,12.239)" />
    <rect id="mn-1773" x="-12.734" y="-2.308" width="0.05" height="0.05" transform="rotate(90,-12.709,-2.283)" />
    <rect id="mn-1774" x="3.493" y="-3.366" width="0.05" height="0.05" transform="rotate(269.994,3.518,-3.341)" />
    <rect id="mn-1775" x="3.493" y="-3.366" width="0.05" height="0.05" transform="rotate(270,3.518,-3.341)" />
    <rect id="mn-1776" x="-6.464" y="-3.365" width="0.05" height="0.05" transform="rotate(120,-6.439,-3.34)" />
    <rect id="mn-1777" x="-6.464" y="-3.365" width="0.05" height="0.05" transform="rotate(120,-6.439,-3.34)" />
    <rect id="mn-1778" x="-9.467" y="5.612" width="0.05" height="0.05" transform="rotate(90,-9.442,5.637)" />
    <rect id="mn-1779" x="-9.136" y="3.706" width="0.05" height="0.05" transform="rotate(120,-9.111,3.731)" />
    <rect id="mn-1780" x="-12.026" y="2.72" width="0.05" height="0.05" transform="rotate(90,-12.001,2.745)" />
    <rect id="mn-1781" x="1.359" y="-0.317" width="0.05" height="0.05" transform="rotate(180,1.384,-0.292)" />
    <rect id="mn-1782" x="4.077" y="-2.001" width="0.05" height="0.05" transform="rotate(90.18,4.102,-1.976)" />
    <rect id="mn-1783" x="15.177" y="5.614" width="0.05" height="0.05" transform="rotate(90,15.202,5.639)" />
    <rect id="mn-1784" x="20.173" y="-1.879" width="0.05" height="0.05" transform="rotate(143.758,20.198,-1.854)" />
    <rect id="mn-1785" x="15.483" y="3.706" width="0.05" height="0.05" transform="rotate(120,15.508,3.731)" />
    <rect id="mn-1786" x="17.618" y="-0.555" width="0.05" height="0.05" transform="rotate(180,17.643,-0.53)" />
    <rect id="mn-1787" x="17.618" y="-0.555" width="0.05" height="0.05" transform="rotate(270,17.643,-0.53)" />
    <rect id="mn-1788" x="18.127" y="-2.416" width="0.05" height="0.05" transform="rotate(180,18.152,-2.391)" />
    <rect id="mn-1789" x="20.826" y="-2.416" width="0.05" height="0.05" />
    <rect id="mn-1790" x="20.302" y="0.099" width="0.05" height="0.05" transform="rotate(180,20.327,0.124)" />
    <rect id="mn-1791" x="20.302" y="0.099" width="0.05" height="0.05" transform="rotate(120,20.327,0.124)" />
    <rect id="mn-1792" x="17.618" y="0.099" width="0.05" height="0.05" transform="rotate(90,17.643,0.124)" />
    <rect id="mn-1793" x="17.391" y="0.099" width="0.05" height="0.05" transform="rotate(180,17.416,0.124)" />
    <rect id="mn-1794" x="20.021" y="-0.403" width="0.05" height="0.05" transform="rotate(120,20.046,-0.378)" />
    <rect id="mn-1795" x="20.582" y="-0.403" width="0.05" height="0.05" transform="rotate(124.421,20.607,-0.378)" />
    <rect id="mn-1796" x="20.582" y="-0.403" width="0.05" height="0.05" transform="rotate(120,20.607,-0.378)" />
    <rect id="mn-1797" x="20.123" y="-0.403" width="0.05" height="0.05" transform="rotate(180,20.148,-0.378)" />
    <rect id="mn-1798" x="20.573" y="0.099" width="0.05" height="0.05" transform="rotate(90,20.598,0.124)" />
    <rect id="mn-1799" x="20.573" y="0.099" width="0.05" height="0.05" transform="rotate(102.311,20.598,0.124)" />
    <rect id="mn-1800" x="20.622" y="0.065" width="0.05" height="0.05" transform="rotate(102.311,20.647,0.09)" />
    <rect id="mn-1801" x="20.622" y="0.065" width="0.05" height="0.05" transform="rotate(185.301,20.647,0.09)" />
    <rect id="mn-1802" x="17.924" y="-2.416" width="0.05" height="0.05" transform="rotate(180,17.949,-2.391)" />
    <rect id="mn-1803" x="17.924" y="-2.416" width="0.05" height="0.05" transform="rotate(180,17.949,-2.391)" />
    <rect id="mn-1804" x="20.862" y="-1.755" width="0.05" height="0.05" transform="rotate(90,20.887,-1.73)" />
    <rect id="mn-1805" x="20.862" y="-2.416" width="0.05" height="0.05" />
    <rect id="mn-1806" x="17.618" y="-0.152" width="0.05" height="0.05" transform="rotate(270,17.643,-0.127)" />
    <rect id="mn-1807" x="17.405" y="-0.152" width="0.05" height="0.05" transform="rotate(180,17.43,-0.127)" />
    <rect id="mn-1808" x="17.391" y="0.099" width="0.05" height="0.05" transform="rotate(240,17.416,0.124)" />
    <rect id="mn-1809" x="15.69" y="3.493" width="0.05" height="0.05" transform="rotate(120,15.715,3.518)" />
    <rect id="mn-1810" x="15.55" y="3.807" width="0.05" height="0.05" transform="rotate(90,15.575,3.832)" />
    <rect id="mn-1811" x="15.55" y="3.807" width="0.05" height="0.05" transform="rotate(270,15.575,3.832)" />
    <rect id="mn-1812" x="15.55" y="3.807" width="0.05" height="0.05" transform="rotate(270,15.575,3.832)" />
    <rect id="mn-1813" x="15.55" y="5.585" width="0.05" height="0.05" transform="rotate(120,15.575,5.61)" />
    <rect id="mn-1814" x="15.55" y="5.585" width="0.05" height="0.05" transform="rotate(120,15.575,5.61)" />
    <rect id="mn-1815" x="15.278" y="5.585" width="0.05" height="0.05" transform="rotate(270,15.303,5.61)" />
    <rect id="mn-1816" x="15.55" y="3.493" width="0.05" height="0.05" transform="rotate(180,15.575,3.518)" />
    <rect id="mn-1817" x="15.55" y="2.736" width="0.05" height="0.05" />
    <rect id="mn-1818" x="-30.268" y="11.04" width="0.05" height="0.05" transform="rotate(270,-30.243,11.065)" />
    <rect id="mn-1819" x="-15.294" y="10.948" width="0.05" height="0.05" transform="rotate(240,-15.269,10.973)" />
    <rect id="mn-1820" x="20.302" y="0.04" width="0.05" height="0.05" transform="rotate(180,20.327,0.065)" />
    <rect id="mn-1821" x="20.302" y="0.04" width="0.05" height="0.05" transform="rotate(120,20.327,0.065)" />
    <rect id="mn-1822" x="17.524" y="0.04" width="0.05" height="0.05" transform="rotate(180,17.549,0.065)" />
    <rect id="mn-1823" x="17.405" y="-0.304" width="0.05" height="0.05" transform="rotate(240,17.43,-0.279)" />
    <rect id="mn-1824" x="17.524" y="-0.352" width="0.05" height="0.05" transform="rotate(270,17.549,-0.327)" />
    <rect id="mn-1825" x="17.397" y="0.216" width="0.05" height="0.05" transform="rotate(240,17.422,0.241)" />
    <rect id="mn-1826" x="17.524" y="0.216" width="0.05" height="0.05" transform="rotate(90,17.549,0.241)" />
    <rect id="mn-1827" x="17.524" y="0.216" width="0.05" height="0.05" transform="rotate(180,17.549,0.241)" />
    <rect id="mn-1828" x="17.524" y="0.04" width="0.05" height="0.05" transform="rotate(240,17.549,0.065)" />
    <rect id="mn-1829" x="17.524" y="0.061" width="0.05" height="0.05" transform="rotate(270,17.549,0.086)" />
    <rect id="mn-1830" x="15.65" y="3.353" width="0.05" height="0.05" transform="rotate(120,15.675,3.378)" />
    <rect id="mn-1831" x="15.485" y="3.353" width="0.05" height="0.05" transform="rotate(180,15.51,3.378)" />
    <rect id="mn-1832" x="15.485" y="3.353" width="0.05" height="0.05" transform="rotate(270,15.51,3.378)" />
    <rect id="mn-1833" x="15.485" y="3.353" width="0.05" height="0.05" transform="rotate(120,15.51,3.378)" />
    <rect id="mn-1834" x="15.69" y="3.645" width="0.05" height="0.05" transform="rotate(120,15.715,3.67)" />
    <rect id="mn-1835" x="15.575" y="3.645" width="0.05" height="0.05" transform="rotate(180,15.6,3.67)" />
    <rect id="mn-1836" x="12.611" y="4.938" width="0.05" height="0.05" transform="rotate(180,12.636,4.963)" />
    <rect id="mn-1837" x="12.62" y="3.457" width="0.05" height="0.05" transform="rotate(261.579,12.645,3.482)" />
    <rect id="mn-1838" x="12.654" y="3.49" width="0.05" height="0.05" transform="rotate(45,12.679,3.515)" />
    <rect id="mn-1839" x="12.654" y="3.859" width="0.05" height="0.05" transform="rotate(90,12.679,3.884)" />
    <rect id="mn-1840" x="12.611" y="3.901" width="0.05" height="0.05" transform="rotate(270,12.636,3.926)" />
    <rect id="mn-1841" x="-30.268" y="11.329" width="0.05" height="0.05" transform="rotate(90,-30.243,11.354)" />
    <rect id="mn-1842" x="12.611" y="4.938" width="0.05" height="0.05" transform="rotate(240,12.636,4.963)" />
    <rect id="mn-1843" x="15.075" y="5.639" width="0.05" height="0.05" transform="rotate(180,15.1,5.664)" />
    <rect id="mn-1844" x="15.485" y="3.555" width="0.05" height="0.05" transform="rotate(180,15.51,3.58)" />
    <rect id="mn-1845" x="15.485" y="3.604" width="0.05" height="0.05" transform="rotate(180,15.51,3.629)" />
    <rect id="mn-1846" x="17.397" y="0.216" width="0.05" height="0.05" transform="rotate(240,17.422,0.241)" />
    <rect id="mn-1847" x="-12.767" y="2.49" width="0.05" height="0.05" transform="rotate(180,-12.742,2.515)" />
    <rect id="mn-1848" x="15.65" y="3.353" width="0.05" height="0.05" transform="rotate(120,15.675,3.378)" />
    <rect id="mn-1849" x="17.524" y="-0.304" width="0.05" height="0.05" transform="rotate(270,17.549,-0.279)" />
    <rect id="mn-1850" x="7.458" y="-3.433" width="0.05" height="0.05" />
    <rect id="mn-1851" x="7.49" y="-3.433" width="0.05" height="0.05" />
    <rect id="mn-1852" x="7.036" y="-1.233" width="0.05" height="0.05" transform="rotate(180,7.061,-1.208)" />
    <rect id="mn-1853" x="3.493" y="-1.385" width="0.05" height="0.05" transform="rotate(270,3.518,-1.36)" />
    <rect id="mn-1854" x="6.719" y="-1.385" width="0.05" height="0.05" transform="rotate(90,6.744,-1.36)" />
    <rect id="mn-1855" x="6.884" y="-1.233" width="0.05" height="0.05" transform="rotate(240,6.909,-1.208)" />
    <rect id="mn-1856" x="6.884" y="-1.385" width="0.05" height="0.05" />
    <rect id="mn-1857" x="6.884" y="-1.233" width="0.05" height="0.05" transform="rotate(180,6.909,-1.208)" />
    <rect id="mn-1858" x="6.719" y="-1.385" width="0.05" height="0.05" transform="rotate(240,6.744,-1.36)" />
    <rect id="mn-1859" x="7.036" y="-1.385" width="0.05" height="0.05" transform="rotate(240,7.061,-1.36)" />
    <rect id="mn-1860" x="7.036" y="-1.385" width="0.05" height="0.05" transform="rotate(240,7.061,-1.36)" />
    <rect id="mn-1861" x="7.458" y="-2.47" width="0.05" height="0.05" transform="rotate(120,7.483,-2.445)" />
    <rect id="mn-1862" x="7.458" y="-2.47" width="0.05" height="0.05" transform="rotate(240,7.483,-2.445)" />
    <rect id="mn-1863" x="4.015" y="-3.433" width="0.05" height="0.05" transform="rotate(180,4.04,-3.408)" />
    <rect id="mn-1864" x="3.99" y="-3.433" width="0.05" height="0.05" transform="rotate(180,4.015,-3.408)" />
    <rect id="mn-1865" x="4.015" y="-3.433" width="0.05" height="0.05" transform="rotate(270,4.04,-3.408)" />
    <rect id="mn-1866" x="3.99" y="-3.433" width="0.05" height="0.05" transform="rotate(270,4.015,-3.408)" />
    <rect id="mn-1867" x="3.99" y="-3.186" width="0.05" height="0.05" transform="rotate(90,4.015,-3.161)" />
    <rect id="mn-1868" x="4.015" y="-3.211" width="0.05" height="0.05" transform="rotate(90,4.04,-3.186)" />
    <rect id="mn-1869" x="3.493" y="-1.633" width="0.05" height="0.05" transform="rotate(45,3.518,-1.608)" />
    <rect id="mn-1870" x="3.493" y="-1.569" width="0.05" height="0.05" transform="rotate(45,3.518,-1.544)" />
    <rect id="mn-1871" x="5.974" y="-3.433" width="0.05" height="0.05" transform="rotate(180,5.999,-3.408)" />
    <rect id="mn-1872" x="5.136" y="-3.433" width="0.05" height="0.05" transform="rotate(180,5.161,-3.408)" />
    <rect id="mn-1873" x="5.771" y="-3.433" width="0.05" height="0.05" transform="rotate(180,5.796,-3.408)" />
    <rect id="mn-1874" x="5.771" y="-3.343" width="0.05" height="0.05" transform="rotate(240,5.796,-3.318)" />
    <rect id="mn-1875" x="5.771" y="-3.343" width="0.05" height="0.05" transform="rotate(180,5.796,-3.318)" />
    <rect id="mn-1876" x="4.933" y="-3.433" width="0.05" height="0.05" transform="rotate(180,4.958,-3.408)" />
    <rect id="mn-1877" x="4.933" y="-3.343" width="0.05" height="0.05" transform="rotate(240,4.958,-3.318)" />
    <rect id="mn-1878" x="4.933" y="-3.343" width="0.05" height="0.05" transform="rotate(180,4.958,-3.318)" />
    <rect id="mn-1879" x="7.49" y="-2.673" width="0.05" height="0.05" transform="rotate(90,7.515,-2.648)" />
    <rect id="mn-1880" x="7.49" y="-2.563" width="0.05" height="0.05" transform="rotate(120,7.515,-2.538)" />
    <rect id="mn-1881" x="7.49" y="-1.385" width="0.05" height="0.05" transform="rotate(90,7.515,-1.36)" />
    <rect id="mn-1882" x="7.49" y="-2.563" width="0.05" height="0.05" transform="rotate(90,7.515,-2.538)" />
    <rect id="mn-1883" x="7.458" y="-2.775" width="0.05" height="0.05" transform="rotate(120,7.483,-2.75)" />
    <rect id="mn-1884" x="7.458" y="-2.775" width="0.05" height="0.05" transform="rotate(120,7.483,-2.75)" />
    <rect id="mn-1885" x="6.793" y="-2.775" width="0.05" height="0.05" transform="rotate(270,6.818,-2.75)" />
    <rect id="mn-1886" x="7.49" y="-2.743" width="0.05" height="0.05" transform="rotate(120,7.515,-2.718)" />
    <rect id="mn-1887" x="6.894" y="-2.743" width="0.05" height="0.05" transform="rotate(270,6.919,-2.718)" />
    <rect id="mn-1888" x="7.49" y="-2.743" width="0.05" height="0.05" transform="rotate(120,7.515,-2.718)" />
    <rect id="mn-1889" x="7.423" y="6.055" width="0.05" height="0.05" />
    <rect id="mn-1890" x="6.103" y="6.055" width="0.05" height="0.05" transform="rotate(180,6.128,6.08)" />
    <rect id="mn-1891" x="7.449" y="6.055" width="0.05" height="0.05" />
    <rect id="mn-1892" x="6.043" y="5.995" width="0.05" height="0.05" transform="rotate(225,6.068,6.02)" />
    <rect id="mn-1893" x="6.043" y="5.798" width="0.05" height="0.05" transform="rotate(240,6.068,5.823)" />
    <rect id="mn-1894" x="6.043" y="5.798" width="0.05" height="0.05" transform="rotate(120,6.068,5.823)" />
    <rect id="mn-1895" x="7.449" y="6.634" width="0.05" height="0.05" transform="rotate(180,7.474,6.659)" />
    <rect id="mn-1896" x="7.55" y="6.634" width="0.05" height="0.05" transform="rotate(90,7.575,6.659)" />
    <rect id="mn-1897" x="7.55" y="6.634" width="0.05" height="0.05" transform="rotate(240,7.575,6.659)" />
    <rect id="mn-1898" x="8.047" y="6.634" width="0.05" height="0.05" transform="rotate(90,8.072,6.659)" />
    <rect id="mn-1899" x="8.047" y="6.634" width="0.05" height="0.05" transform="rotate(180,8.072,6.659)" />
    <rect id="mn-1900" x="8.886" y="6.634" width="0.05" height="0.05" transform="rotate(90,8.911,6.659)" />
    <rect id="mn-1901" x="8.886" y="6.634" width="0.05" height="0.05" transform="rotate(180,8.911,6.659)" />
    <rect id="mn-1902" x="7.549" y="6.661" width="0.05" height="0.05" transform="rotate(180,7.574,6.686)" />
    <rect id="mn-1903" x="7.549" y="6.661" width="0.05" height="0.05" transform="rotate(120,7.574,6.686)" />
    <rect id="mn-1904" x="7.423" y="6.661" width="0.05" height="0.05" transform="rotate(180,7.448,6.686)" />
    <rect id="mn-1905" x="7.844" y="6.661" width="0.05" height="0.05" transform="rotate(90,7.869,6.686)" />
    <rect id="mn-1906" x="7.844" y="6.661" width="0.05" height="0.05" transform="rotate(180,7.869,6.686)" />
    <rect id="mn-1907" x="8.682" y="6.661" width="0.05" height="0.05" transform="rotate(180,8.707,6.686)" />
    <rect id="mn-1908" x="8.682" y="6.661" width="0.05" height="0.05" transform="rotate(180,8.707,6.686)" />
    <rect id="mn-1909" x="10.097" y="6.634" width="0.05" height="0.05" transform="rotate(90,10.122,6.659)" />
    <rect id="mn-1910" x="10.097" y="6.661" width="0.05" height="0.05" transform="rotate(90,10.122,6.686)" />
    <rect id="mn-1911" x="10.097" y="5.62" width="0.05" height="0.05" transform="rotate(240,10.122,5.645)" />
    <rect id="mn-1912" x="10.097" y="5.62" width="0.05" height="0.05" transform="rotate(180,10.122,5.645)" />
    <rect id="mn-1913" x="10.097" y="4.68" width="0.05" height="0.05" transform="rotate(240,10.122,4.705)" />
    <rect id="mn-1914" x="10.097" y="5.568" width="0.05" height="0.05" transform="rotate(240,10.122,5.593)" />
    <rect id="mn-1915" x="10.097" y="5.568" width="0.05" height="0.05" transform="rotate(180,10.122,5.593)" />
    <rect id="mn-1916" x="10.097" y="4.729" width="0.05" height="0.05" transform="rotate(240,10.122,4.754)" />
    <rect id="mn-1917" x="10.097" y="4.68" width="0.05" height="0.05" transform="rotate(180,10.122,4.705)" />
    <rect id="mn-1918" x="10.097" y="4.729" width="0.05" height="0.05" transform="rotate(180,10.122,4.754)" />
    <rect id="mn-1919" x="10.021" y="4.453" width="0.05" height="0.05" transform="rotate(240,10.046,4.478)" />
    <rect id="mn-1920" x="10.097" y="4.453" width="0.05" height="0.05" transform="rotate(98.421,10.122,4.478)" />
    <rect id="mn-1921" x="10.097" y="4.453" width="0.05" height="0.05" transform="rotate(240,10.122,4.478)" />
    <rect id="mn-1922" x="10.097" y="4.514" width="0.05" height="0.05" />
    <rect id="mn-1923" x="10.021" y="4.514" width="0.05" height="0.05" transform="rotate(180,10.046,4.539)" />
    <rect id="mn-1924" x="10.097" y="5.468" width="0.05" height="0.05" />
    <rect id="mn-1925" x="10.097" y="5.568" width="0.05" height="0.05" transform="rotate(270,10.122,5.593)" />
    <rect id="mn-1926" x="6.722" y="6.055" width="0.05" height="0.05" transform="rotate(90,6.747,6.08)" />
    <rect id="mn-1927" x="6.722" y="6.055" width="0.05" height="0.05" transform="rotate(180,6.747,6.08)" />
    <rect id="mn-1928" x="6.62" y="6.055" width="0.05" height="0.05" transform="rotate(180,6.645,6.08)" />
    <rect id="mn-1929" x="6.62" y="5.998" width="0.05" height="0.05" transform="rotate(120,6.645,6.023)" />
    <rect id="mn-1930" x="6.62" y="5.998" width="0.05" height="0.05" transform="rotate(240,6.645,6.023)" />
    <rect id="mn-1931" x="6.043" y="6.055" width="0.05" height="0.05" transform="rotate(180,6.068,6.08)" />
    <rect id="mn-1932" x="6.043" y="6.001" width="0.05" height="0.05" transform="rotate(270,6.068,6.026)" />
    <rect id="mn-1933" x="6.043" y="5.888" width="0.05" height="0.05" transform="rotate(240,6.068,5.913)" />
    <rect id="mn-1934" x="6.043" y="5.888" width="0.05" height="0.05" transform="rotate(180,6.068,5.913)" />
    <rect id="mn-1935" x="6.043" y="4.601" width="0.05" height="0.05" transform="rotate(270,6.068,4.626)" />
    <rect id="mn-1936" x="6.266" y="4.476" width="0.05" height="0.05" transform="rotate(270,6.291,4.501)" />
    <rect id="mn-1937" x="6.266" y="4.601" width="0.05" height="0.05" transform="rotate(90,6.291,4.626)" />
    <rect id="mn-1938" x="6.266" y="4.601" width="0.05" height="0.05" transform="rotate(180,6.291,4.626)" />
    <rect id="mn-1939" x="6.82" y="4.628" width="0.05" height="0.05" transform="rotate(180,6.845,4.653)" />
    <rect id="mn-1940" x="6.82" y="4.628" width="0.05" height="0.05" transform="rotate(120,6.845,4.653)" />
    <rect id="mn-1941" x="6.419" y="4.628" width="0.05" height="0.05" transform="rotate(180,6.444,4.653)" />
    <rect id="mn-1942" x="6.043" y="4.628" width="0.05" height="0.05" transform="rotate(180,6.068,4.653)" />
    <rect id="mn-1943" x="6.043" y="4.628" width="0.05" height="0.05" transform="rotate(270,6.068,4.653)" />
    <rect id="mn-1944" x="6.419" y="4.526" width="0.05" height="0.05" transform="rotate(270,6.444,4.551)" />
    <rect id="mn-1945" x="6.419" y="4.628" width="0.05" height="0.05" transform="rotate(180,6.444,4.653)" />
    <rect id="mn-1946" x="6.419" y="4.476" width="0.05" height="0.05" transform="rotate(270,6.444,4.501)" />
    <rect id="mn-1947" x="6.419" y="4.49" width="0.05" height="0.05" transform="rotate(90,6.444,4.515)" />
    <rect id="mn-1948" x="6.419" y="4.526" width="0.05" height="0.05" transform="rotate(120,6.444,4.551)" />
    <rect id="mn-1949" x="6.419" y="4.526" width="0.05" height="0.05" transform="rotate(180,6.444,4.551)" />
    <rect id="mn-1950" x="6.419" y="4.628" width="0.05" height="0.05" transform="rotate(90,6.444,4.653)" />
    <rect id="mn-1951" x="6.419" y="4.614" width="0.05" height="0.05" transform="rotate(270,6.444,4.639)" />
    <rect id="mn-1952" x="10.021" y="4.628" width="0.05" height="0.05" transform="rotate(90,10.046,4.653)" />
    <rect id="mn-1953" x="10.021" y="5.265" width="0.05" height="0.05" transform="rotate(90,10.046,5.29)" />
    <rect id="mn-1954" x="10.021" y="5.122" width="0.05" height="0.05" transform="rotate(270,10.046,5.147)" />
    <rect id="mn-1955" x="-12.767" y="-1.385" width="0.05" height="0.05" transform="rotate(270,-12.742,-1.36)" />
    <rect id="mn-1956" x="-9.656" y="-1.385" width="0.05" height="0.05" transform="rotate(90,-9.631,-1.36)" />
    <rect id="mn-1957" x="-9.656" y="-1.258" width="0.05" height="0.05" transform="rotate(180,-9.631,-1.233)" />
    <rect id="mn-1958" x="-9.656" y="-1.385" width="0.05" height="0.05" transform="rotate(270,-9.631,-1.36)" />
    <rect id="mn-1959" x="-9.656" y="-1.258" width="0.05" height="0.05" transform="rotate(180,-9.631,-1.233)" />
    <rect id="mn-1960" x="-9.656" y="-1.385" width="0.05" height="0.05" transform="rotate(270,-9.631,-1.36)" />
    <rect id="mn-1961" x="-9.316" y="-1.233" width="0.05" height="0.05" transform="rotate(180,-9.291,-1.208)" />
    <rect id="mn-1962" x="-9.164" y="-1.233" width="0.05" height="0.05" transform="rotate(180,-9.139,-1.208)" />
    <rect id="mn-1963" x="-9.164" y="-1.36" width="0.05" height="0.05" transform="rotate(240,-9.139,-1.335)" />
    <rect id="mn-1964" x="-8.782" y="-2.757" width="0.05" height="0.05" />
    <rect id="mn-1965" x="-9.848" y="-2.757" width="0.05" height="0.05" transform="rotate(180,-9.823,-2.732)" />
    <rect id="mn-1966" x="-9.848" y="-3.367" width="0.05" height="0.05" />
    <rect id="mn-1967" x="-8.782" y="-2.757" width="0.05" height="0.05" />
    <rect id="mn-1968" x="-9.848" y="-2.757" width="0.05" height="0.05" transform="rotate(180,-9.823,-2.732)" />
    <rect id="mn-1969" x="-9.848" y="-3.367" width="0.05" height="0.05" />
    <rect id="mn-1970" x="-8.782" y="-2.673" width="0.05" height="0.05" transform="rotate(240,-8.757,-2.648)" />
    <rect id="mn-1971" x="-8.782" y="-2.673" width="0.05" height="0.05" transform="rotate(240,-8.757,-2.648)" />
    <rect id="mn-1972" x="-8.782" y="-2.47" width="0.05" height="0.05" transform="rotate(120,-8.757,-2.445)" />
    <rect id="mn-1973" x="-8.782" y="-2.47" width="0.05" height="0.05" transform="rotate(240,-8.757,-2.445)" />
    <rect id="mn-1974" x="-9.464" y="-2.757" width="0.05" height="0.05" transform="rotate(90,-9.439,-2.732)" />
    <rect id="mn-1975" x="-9.464" y="-2.757" width="0.05" height="0.05" transform="rotate(90,-9.439,-2.732)" />
    <rect id="mn-1976" x="-9.362" y="-2.757" width="0.05" height="0.05" transform="rotate(180,-9.337,-2.732)" />
    <rect id="mn-1977" x="-9.362" y="-2.706" width="0.05" height="0.05" transform="rotate(120,-9.337,-2.681)" />
    <rect id="mn-1978" x="-9.362" y="-2.706" width="0.05" height="0.05" transform="rotate(240,-9.337,-2.681)" />
    <rect id="mn-1979" x="-10.281" y="-3.367" width="0.05" height="0.05" transform="rotate(90,-10.256,-3.342)" />
    <rect id="mn-1980" x="-10.281" y="-3.367" width="0.05" height="0.05" transform="rotate(90,-10.256,-3.342)" />
    <rect id="mn-1981" x="-10.485" y="-3.367" width="0.05" height="0.05" transform="rotate(90,-10.46,-3.342)" />
    <rect id="mn-1982" x="-10.485" y="-3.367" width="0.05" height="0.05" transform="rotate(270,-10.46,-3.342)" />
    <rect id="mn-1983" x="-11.12" y="-3.367" width="0.05" height="0.05" transform="rotate(90,-11.095,-3.342)" />
    <rect id="mn-1984" x="-11.12" y="-3.367" width="0.05" height="0.05" transform="rotate(90,-11.095,-3.342)" />
    <rect id="mn-1985" x="-11.323" y="-3.367" width="0.05" height="0.05" transform="rotate(90,-11.298,-3.342)" />
    <rect id="mn-1986" x="-11.323" y="-3.367" width="0.05" height="0.05" transform="rotate(270,-11.298,-3.342)" />
    <rect id="mn-1987" x="-12.723" y="-2.872" width="0.05" height="0.05" transform="rotate(148.6,-12.698,-2.847)" />
    <rect id="mn-1988" x="-12.723" y="-2.872" width="0.05" height="0.05" transform="rotate(90,-12.698,-2.847)" />
    <rect id="mn-1989" x="-12.723" y="-2.618" width="0.05" height="0.05" transform="rotate(90,-12.698,-2.593)" />
    <rect id="mn-1990" x="-12.807" y="-2.534" width="0.05" height="0.05" transform="rotate(270,-12.782,-2.509)" />
    <rect id="mn-1991" x="-12.36" y="-3.367" width="0.05" height="0.05" transform="rotate(180,-12.335,-3.342)" />
    <rect id="mn-1992" x="-12.36" y="-3.411" width="0.05" height="0.05" transform="rotate(240,-12.335,-3.386)" />
    <rect id="mn-1993" x="-12.436" y="-3.367" width="0.05" height="0.05" transform="rotate(180,-12.411,-3.342)" />
    <rect id="mn-1994" x="-12.436" y="-3.367" width="0.05" height="0.05" transform="rotate(270,-12.411,-3.342)" />
    <rect id="mn-1995" x="-12.436" y="-3.159" width="0.05" height="0.05" transform="rotate(90,-12.411,-3.134)" />
    <rect id="mn-1996" x="-12.734" y="-1.214" width="0.05" height="0.05" transform="rotate(120,-12.709,-1.189)" />
    <rect id="mn-1997" x="-12.807" y="-1.214" width="0.05" height="0.05" transform="rotate(180,-12.782,-1.189)" />
    <rect id="mn-1998" x="-12.807" y="-1.214" width="0.05" height="0.05" transform="rotate(120,-12.782,-1.189)" />
    <rect id="mn-1999" x="-12.734" y="-1.154" width="0.05" height="0.05" transform="rotate(120,-12.709,-1.129)" />
    <rect id="mn-2000" x="-12.731" y="-2.206" width="0.05" height="0.05" transform="rotate(180,-12.706,-2.181)" />
    <rect id="mn-2001" x="-12.731" y="-2.206" width="0.05" height="0.05" transform="rotate(120,-12.706,-2.181)" />
    <rect id="mn-2002" x="-12.807" y="-2.206" width="0.05" height="0.05" transform="rotate(90,-12.782,-2.181)" />
    <rect id="mn-2003" x="-12.807" y="-2.696" width="0.05" height="0.05" transform="rotate(148.6,-12.782,-2.671)" />
    <rect id="mn-2004" x="-8.955" y="3.364" width="0.05" height="0.05" transform="rotate(120,-8.93,3.389)" />
    <rect id="mn-2005" x="-8.955" y="3.364" width="0.05" height="0.05" transform="rotate(180,-8.93,3.389)" />
    <rect id="mn-2006" x="-9.18" y="3.364" width="0.05" height="0.05" transform="rotate(180,-9.155,3.389)" />
    <rect id="mn-2007" x="-8.994" y="3.642" width="0.05" height="0.05" transform="rotate(120,-8.969,3.667)" />
    <rect id="mn-2008" x="-8.994" y="3.642" width="0.05" height="0.05" transform="rotate(120,-8.969,3.667)" />
    <rect id="mn-2009" x="-9.18" y="3.642" width="0.05" height="0.05" transform="rotate(180,-9.155,3.667)" />
    <rect id="mn-2010" x="-9.18" y="3.364" width="0.05" height="0.05" transform="rotate(270,-9.155,3.389)" />
    <rect id="mn-2011" x="-9.18" y="3.364" width="0.05" height="0.05" transform="rotate(90,-9.155,3.389)" />
    <rect id="mn-2012" x="-9.18" y="3.337" width="0.05" height="0.05" transform="rotate(270,-9.155,3.362)" />
    <rect id="mn-2013" x="-9.18" y="3.263" width="0.05" height="0.05" transform="rotate(240,-9.155,3.288)" />
    <rect id="mn-2014" x="-9.18" y="3.263" width="0.05" height="0.05" transform="rotate(120,-9.155,3.288)" />
    <rect id="mn-2015" x="-9.18" y="3.807" width="0.05" height="0.05" transform="rotate(90,-9.155,3.832)" />
    <rect id="mn-2016" x="-8.955" y="3.212" width="0.05" height="0.05" transform="rotate(120,-8.93,3.237)" />
    <rect id="mn-2017" x="-9.132" y="3.212" width="0.05" height="0.05" transform="rotate(180,-9.107,3.237)" />
    <rect id="mn-2018" x="-9.18" y="3.212" width="0.05" height="0.05" transform="rotate(90,-9.155,3.237)" />
    <rect id="mn-2019" x="-9.132" y="3.212" width="0.05" height="0.05" transform="rotate(120,-9.107,3.237)" />
    <rect id="mn-2020" x="-9.18" y="2.732" width="0.05" height="0.05" />
    <rect id="mn-2021" x="-9.18" y="2.732" width="0.05" height="0.05" />
    <rect id="mn-2022" x="-12.09" y="3.33" width="0.05" height="0.05" transform="rotate(180,-12.065,3.355)" />
    <rect id="mn-2023" x="-12.026" y="3.391" width="0.05" height="0.05" transform="rotate(180,-12.001,3.416)" />
    <rect id="mn-2024" x="-12.026" y="2.732" width="0.05" height="0.05" transform="rotate(269.929,-12.001,2.757)" />
    <rect id="mn-2025" x="-12.09" y="2.732" width="0.05" height="0.05" transform="rotate(180,-12.065,2.757)" />
    <rect id="mn-2026" x="-12.09" y="2.732" width="0.05" height="0.05" transform="rotate(90,-12.065,2.757)" />
    <rect id="mn-2027" x="-11.439" y="3.633" width="0.05" height="0.05" transform="rotate(240,-11.414,3.658)" />
    <rect id="mn-2028" x="-11.439" y="3.633" width="0.05" height="0.05" transform="rotate(180,-11.414,3.658)" />
    <rect id="mn-2029" x="-11.541" y="3.633" width="0.05" height="0.05" transform="rotate(240,-11.516,3.658)" />
    <rect id="mn-2030" x="-11.541" y="3.633" width="0.05" height="0.05" transform="rotate(180,-11.516,3.658)" />
    <rect id="mn-2031" x="-11.541" y="2.691" width="0.05" height="0.05" transform="rotate(240,-11.516,2.716)" />
    <rect id="mn-2032" x="-11.439" y="2.691" width="0.05" height="0.05" transform="rotate(240,-11.414,2.716)" />
    <rect id="mn-2033" x="-11.439" y="2.732" width="0.05" height="0.05" transform="rotate(180,-11.414,2.757)" />
    <rect id="mn-2034" x="-11.439" y="2.691" width="0.05" height="0.05" transform="rotate(90,-11.414,2.716)" />
    <rect id="mn-2035" x="-11.541" y="2.732" width="0.05" height="0.05" transform="rotate(180,-11.516,2.757)" />
    <rect id="mn-2036" x="-11.541" y="2.691" width="0.05" height="0.05" transform="rotate(90,-11.516,2.716)" />
    <rect id="mn-2037" x="-12.026" y="3.391" width="0.05" height="0.05" transform="rotate(240,-12.001,3.416)" />
    <rect id="mn-2038" x="-12.089" y="4.938" width="0.05" height="0.05" transform="rotate(180,-12.064,4.963)" />
    <rect id="mn-2039" x="-12.089" y="3.391" width="0.05" height="0.05" transform="rotate(270,-12.064,3.416)" />
    <rect id="mn-2040" x="-9.366" y="5.627" width="0.05" height="0.05" transform="rotate(270,-9.341,5.652)" />
    <rect id="mn-2041" x="-9.569" y="5.598" width="0.05" height="0.05" transform="rotate(270,-9.544,5.623)" />
    <rect id="mn-2042" x="-9.15" y="5.598" width="0.05" height="0.05" transform="rotate(90,-9.125,5.623)" />
    <rect id="mn-2043" x="-9.15" y="5.598" width="0.05" height="0.05" transform="rotate(180,-9.125,5.623)" />
    <rect id="mn-2044" x="-9.121" y="5.627" width="0.05" height="0.05" transform="rotate(90,-9.096,5.652)" />
    <rect id="mn-2045" x="-9.121" y="5.627" width="0.05" height="0.05" transform="rotate(180,-9.096,5.652)" />
    <rect id="mn-2046" x="-9.121" y="4.115" width="0.05" height="0.05" transform="rotate(240,-9.096,4.14)" />
    <rect id="mn-2047" x="-9.15" y="4.115" width="0.05" height="0.05" transform="rotate(240,-9.125,4.14)" />
    <rect id="mn-2048" x="-9.18" y="3.807" width="0.05" height="0.05" transform="rotate(120,-9.155,3.832)" />
    <rect id="mn-2049" x="-9.18" y="3.72" width="0.05" height="0.05" transform="rotate(90,-9.155,3.745)" />
    <rect id="mn-2050" x="-9.201" y="3.741" width="0.05" height="0.05" transform="rotate(148.6,-9.176,3.766)" />
    <rect id="mn-2051" x="-9.201" y="3.741" width="0.05" height="0.05" transform="rotate(270,-9.176,3.766)" />
    <rect id="mn-2052" x="-9.18" y="3.955" width="0.05" height="0.05" transform="rotate(225,-9.155,3.98)" />
    <rect id="mn-2053" x="-9.15" y="4.115" width="0.05" height="0.05" transform="rotate(180,-9.125,4.14)" />
    <rect id="mn-2054" x="-9.15" y="4.028" width="0.05" height="0.05" transform="rotate(45,-9.125,4.053)" />
    <rect id="mn-2055" x="-9.201" y="3.976" width="0.05" height="0.05" transform="rotate(225,-9.176,4.001)" />
    <rect id="mn-2056" x="-9.121" y="4.014" width="0.05" height="0.05" transform="rotate(45,-9.096,4.039)" />
    <rect id="mn-2057" x="-9.121" y="4.115" width="0.05" height="0.05" transform="rotate(180,-9.096,4.14)" />
    <rect id="mn-2058" x="-9.18" y="3.604" width="0.05" height="0.05" transform="rotate(180,-9.155,3.629)" />
    <rect id="mn-2059" x="-12.026" y="3.33" width="0.05" height="0.05" transform="rotate(90,-12.001,3.355)" />
    <rect id="mn-2060" x="-12.089" y="4.938" width="0.05" height="0.05" transform="rotate(240,-12.064,4.963)" />
    <rect id="mn-2061" x="-11.49" y="4.152" width="0.05" height="0.05" transform="rotate(238.288,-11.465,4.177)" />
    <rect id="mn-2062" x="-9.19" y="3.642" width="0.05" height="0.05" transform="rotate(180,-9.165,3.667)" />
    <rect id="mn-2063" x="-9.19" y="3.642" width="0.05" height="0.05" transform="rotate(180,-9.165,3.667)" />
    <rect id="mn-2064" x="-1.546" y="5.566" width="0.05" height="0.05" transform="rotate(180,-1.521,5.591)" />
    <rect id="mn-2065" x="-1.546" y="5.401" width="0.05" height="0.05" transform="rotate(261.579,-1.521,5.426)" />
    <rect id="mn-2066" x="-2.155" y="5.401" width="0.05" height="0.05" transform="rotate(270,-2.13,5.426)" />
    <rect id="mn-2067" x="-1.546" y="5.401" width="0.05" height="0.05" transform="rotate(120,-1.521,5.426)" />
    <rect id="mn-2068" x="-1.879" y="5.192" width="0.05" height="0.05" transform="rotate(211.4,-1.854,5.217)" />
    <rect id="mn-2069" x="-1.546" y="5.566" width="0.05" height="0.05" transform="rotate(148.6,-1.521,5.591)" />
    <rect id="mn-2070" x="-2.155" y="12.25" width="0.05" height="0.05" transform="rotate(120.691,-2.13,12.275)" />
    <rect id="mn-2071" x="-30.268" y="12.01" width="0.05" height="0.05" transform="rotate(180,-30.243,12.035)" />
    <rect id="mn-2072" x="-30.268" y="11.329" width="0.05" height="0.05" transform="rotate(270,-30.243,11.354)" />
    <rect id="mn-2073" x="-30.335" y="11.372" width="0.05" height="0.05" transform="rotate(240,-30.31,11.397)" />
    <rect id="mn-2074" x="-15.294" y="11.372" width="0.05" height="0.05" transform="rotate(90,-15.269,11.397)" />
    <rect id="mn-2075" x="3.492" y="-3.368" width="0.05" height="0.05" transform="rotate(239.309,3.517,-3.343)" />
    <rect id="mn-2076" x="-15.344" y="11.291" width="0.05" height="0.05" transform="rotate(230.552,-15.319,11.316)" />
    <rect id="mn-2077" x="-15.344" y="11.443" width="0.05" height="0.05" transform="rotate(230.552,-15.319,11.468)" />
    <rect id="mn-2078" x="-15.294" y="11.429" width="0.05" height="0.05" transform="rotate(90,-15.269,11.454)" />
    <rect id="mn-2079" x="-4.203" y="-3.403" width="0.05" height="0.05" transform="rotate(240,-4.178,-3.378)" />
    <rect id="mn-2080" x="-6.666" y="1.802" width="0.05" height="0.05" transform="rotate(180,-6.641,1.827)" />
    <rect id="mn-2081" x="3.492" y="-3.639" width="0.05" height="0.05" transform="rotate(269.994,3.517,-3.614)" />
    <rect id="mn-2082" x="12.62" y="2.736" width="0.05" height="0.05" transform="rotate(270,12.645,2.761)" />
    <rect id="mn-2083" x="20.657" y="-0.199" width="0.05" height="0.05" transform="rotate(277.5,20.682,-0.174)" />
    <rect id="mn-2084" x="20.453" y="-0.403" width="0.05" height="0.05" transform="rotate(261.579,20.478,-0.378)" />
    <rect id="mn-2085" x="20.581" y="0.04" width="0.05" height="0.05" transform="rotate(90,20.606,0.065)" />
    <rect id="mn-2086" x="20.826" y="-2.253" width="0.05" height="0.05" transform="rotate(90,20.851,-2.228)" />
    <rect id="mn-2087" x="20.75" y="-1.676" width="0.05" height="0.05" transform="rotate(244.231,20.775,-1.651)" />
    <rect id="mn-2088" x="20.75" y="-1.676" width="0.05" height="0.05" transform="rotate(120,20.775,-1.651)" />
    <rect id="mn-2089" x="20.453" y="-0.403" width="0.05" height="0.05" transform="rotate(120,20.478,-0.378)" />
    <rect id="mn-2090" x="20.021" y="-0.403" width="0.05" height="0.05" transform="rotate(240,20.046,-0.378)" />
    <rect id="mn-2091" x="-12.611" y="-3.365" width="0.05" height="0.05" transform="rotate(180.844,-12.586,-3.34)" />
    <rect id="mn-2092" x="-12.611" y="-3.365" width="0.05" height="0.05" transform="rotate(270,-12.586,-3.34)" />
    <rect id="mn-2093" x="3.493" y="-1.168" width="0.05" height="0.05" transform="rotate(120,3.518,-1.143)" />
    <rect id="mn-2094" x="3.493" y="-1.108" width="0.05" height="0.05" transform="rotate(120,3.518,-1.083)" />
    <rect id="mn-2095" x="3.437" y="-2.204" width="0.05" height="0.05" transform="rotate(90,3.462,-2.179)" />
    <rect id="mn-2096" x="3.517" y="-2.204" width="0.05" height="0.05" transform="rotate(90,3.542,-2.179)" />
    <rect id="mn-2097" x="3.517" y="-2.204" width="0.05" height="0.05" transform="rotate(180,3.542,-2.179)" />
    <rect id="mn-2098" x="12.62" y="3.396" width="0.05" height="0.05" transform="rotate(120,12.645,3.421)" />
    <rect id="mn-2099" x="12.62" y="3.457" width="0.05" height="0.05" transform="rotate(225,12.645,3.482)" />
    <rect id="mn-2100" x="12.654" y="3.49" width="0.05" height="0.05" transform="rotate(45,12.679,3.515)" />
    <rect id="mn-2101" x="12.654" y="3.859" width="0.05" height="0.05" transform="rotate(90,12.679,3.884)" />
    <rect id="mn-2102" x="12.611" y="3.901" width="0.05" height="0.05" transform="rotate(270,12.636,3.926)" />
    <rect id="mn-2103" x="12.611" y="4.688" width="0.05" height="0.05" transform="rotate(180,12.636,4.713)" />
    <rect id="mn-2104" x="13.139" y="4.688" width="0.05" height="0.05" transform="rotate(90,13.164,4.713)" />
    <rect id="mn-2105" x="13.24" y="4.688" width="0.05" height="0.05" transform="rotate(90,13.265,4.713)" />
    <rect id="mn-2106" x="12.611" y="4.688" width="0.05" height="0.05" transform="rotate(240,12.636,4.713)" />
    <rect id="mn-2107" x="12.611" y="4.688" width="0.05" height="0.05" transform="rotate(180,12.636,4.713)" />
    <rect id="mn-2108" x="13.139" y="4.688" width="0.05" height="0.05" transform="rotate(180,13.164,4.713)" />
    <rect id="mn-2109" x="13.139" y="4.65" width="0.05" height="0.05" transform="rotate(120,13.164,4.675)" />
    <rect id="mn-2110" x="-15.294" y="11.276" width="0.05" height="0.05" transform="rotate(90,-15.269,11.301)" />
    <rect id="mn-2111" x="-15.294" y="11.266" width="0.05" height="0.05" transform="rotate(270,-15.269,11.291)" />
    <rect id="mn-2112" x="-15.294" y="10.948" width="0.05" height="0.05" transform="rotate(180,-15.269,10.973)" />
    <rect id="mn-2113" x="-15.294" y="10.975" width="0.05" height="0.05" transform="rotate(90,-15.269,11)" />
    <rect id="mn-2114" x="-15.294" y="11.011" width="0.05" height="0.05" transform="rotate(180,-15.269,11.036)" />
    <rect id="mn-2115" x="-15.294" y="11.011" width="0.05" height="0.05" transform="rotate(90,-15.269,11.036)" />
    <rect id="mn-2116" x="-8.782" y="-1.36" width="0.05" height="0.05" transform="rotate(90,-8.757,-1.335)" />
    <rect id="mn-2117" x="-9.164" y="-1.36" width="0.05" height="0.05" transform="rotate(240,-9.139,-1.335)" />
    <rect id="mn-2118" x="-9.316" y="-1.385" width="0.05" height="0.05" transform="rotate(240,-9.291,-1.36)" />
    <rect id="mn-2119" x="-9.316" y="-1.385" width="0.05" height="0.05" transform="rotate(240,-9.291,-1.36)" />
    <rect id="mn-2120" x="-9.316" y="-1.385" width="0.05" height="0.05" transform="rotate(90,-9.291,-1.36)" />
    <rect id="mn-2121" x="-8.782" y="-1.385" width="0.05" height="0.05" transform="rotate(90,-8.757,-1.36)" />
    <rect id="mn-2122" x="-9.282" y="-1.385" width="0.05" height="0.05" transform="rotate(180,-9.257,-1.36)" />
    <rect id="mn-2123" x="-2.155" y="12.25" width="0.05" height="0.05" transform="rotate(179.157,-2.13,12.275)" />
    <rect id="mn-2124" x="-2.155" y="12.25" width="0.05" height="0.05" transform="rotate(90,-2.13,12.275)" />
    <rect id="mn-2125" x="-12.767" y="0.931" width="0.05" height="0.05" transform="rotate(240,-12.742,0.956)" />
    <rect id="mn-2126" x="-12.767" y="0.855" width="0.05" height="0.05" transform="rotate(211.4,-12.742,0.88)" />
    <rect id="mn-2127" x="-12.767" y="0.541" width="0.05" height="0.05" transform="rotate(120,-12.742,0.566)" />
    <rect id="mn-2128" x="-12.767" y="0.617" width="0.05" height="0.05" transform="rotate(98.421,-12.742,0.642)" />
    <rect id="mn-2129" x="3.493" y="0.447" width="0.05" height="0.05" transform="rotate(120,3.518,0.472)" />
    <rect id="mn-2130" x="3.493" y="0.561" width="0.05" height="0.05" transform="rotate(240,3.518,0.586)" />
    <rect id="mn-2131" x="3.493" y="0.903" width="0.05" height="0.05" transform="rotate(120,3.518,0.928)" />
    <rect id="mn-2132" x="3.493" y="1.017" width="0.05" height="0.05" transform="rotate(98.421,3.518,1.042)" />
    <rect id="mn-2133" x="6.039" y="5.9" width="0.05" height="0.05" transform="rotate(90,6.064,5.925)" />
    <rect id="mn-2134" x="6.039" y="5.9" width="0.05" height="0.05" transform="rotate(270,6.064,5.925)" />
    <rect id="mn-2135" x="6.039" y="6.69" width="0.05" height="0.05" transform="rotate(180,6.064,6.715)" />
    <rect id="mn-3832" x="-8.668" y="4.071" width="0.05" height="0.05" transform="rotate(180,-8.643,4.096)" />
    <rect id="mn-3833" x="-8.668" y="2.337" width="0.05" height="0.05" transform="rotate(270,-8.643,2.362)" />
    <rect id="mn-3834" x="-15.195" y="5.086" width="0.05" height="0.05" transform="rotate(189.887,-15.17,5.111)" />
    <rect id="mn-3835" x="-14.857" y="3.73" width="0.05" height="0.05" transform="rotate(90,-14.832,3.755)" />
    <rect id="mn-3836" x="-13.917" y="5.089" width="0.05" height="0.05" transform="rotate(172.933,-13.892,5.114)" />
    <rect id="mn-3837" x="-14.089" y="4.113" width="0.05" height="0.05" transform="rotate(260,-14.064,4.138)" />
    <rect id="mn-3838" x="-14.089" y="2.185" width="0.05" height="0.05" transform="rotate(270,-14.064,2.21)" />
    <rect id="mn-3839" x="15.952" y="4.071" width="0.05" height="0.05" transform="rotate(180,15.977,4.096)" />
    <rect id="mn-3840" x="-14.857" y="2.032" width="0.05" height="0.05" transform="rotate(270,-14.832,2.057)" />
    <rect id="mn-3841" x="17.171" y="-0.816" width="0.05" height="0.05" transform="rotate(90,17.196,-0.791)" />
    <rect id="mn-3842" x="17.171" y="2.032" width="0.05" height="0.05" transform="rotate(180,17.196,2.057)" />
    <rect id="mn-3843" x="4.609" y="-0.673" width="0.05" height="0.05" transform="rotate(90,4.634,-0.648)" />
    <rect id="mn-3844" x="4.609" y="2.185" width="0.05" height="0.05" transform="rotate(180,4.634,2.21)" />
    <rect id="mn-3845" x="-11.439" y="-0.673" width="0.05" height="0.05" transform="rotate(90,-11.414,-0.648)" />
    <rect id="mn-3846" x="-11.439" y="0.216" width="0.05" height="0.05" transform="rotate(120,-11.414,0.241)" />
    <rect id="mn-3847" x="-11.439" y="1.258" width="0.05" height="0.05" transform="rotate(109.207,-11.414,1.283)" />
    <rect id="mn-3848" x="-11.439" y="2.337" width="0.05" height="0.05" transform="rotate(180,-11.414,2.362)" />
    <rect id="mn-3849" x="-11.439" y="0.909" width="0.05" height="0.05" transform="rotate(227.855,-11.414,0.934)" />
    <rect id="mn-3850" x="-11.439" y="0.565" width="0.05" height="0.05" transform="rotate(109.207,-11.414,0.59)" />
    <rect id="mn-3851" x="4.609" y="0.212" width="0.05" height="0.05" transform="rotate(120,4.634,0.237)" />
    <rect id="mn-3852" x="4.609" y="0.526" width="0.05" height="0.05" transform="rotate(240,4.634,0.551)" />
    <rect id="mn-3853" x="4.609" y="1.221" width="0.05" height="0.05" transform="rotate(240,4.634,1.246)" />
    <rect id="mn-3854" x="4.609" y="0.907" width="0.05" height="0.05" transform="rotate(120,4.634,0.932)" />
    <rect id="mn-3855" x="17.171" y="1.029" width="0.05" height="0.05" transform="rotate(240,17.196,1.054)" />
    <rect id="mn-3856" x="17.171" y="0.369" width="0.05" height="0.05" transform="rotate(120,17.196,0.394)" />
  </g>
</svg>