<?xml version="1.0" encoding="utf-8"?>
<svg xmlns="http://www.w3.org/2000/svg" viewBox="-31.334 -13.386 53.263 18.025">
  <g transform="scale(1,-1)">
    <path id="pi-619" d="M 13.214,4.177 L 13.214,4.177" />
    <path id="pi-620" d="M 13.214,5.166 L 13.214,5.166" />
    <path id="pi-621" d="M 9.461,5.29 L 9.461,5.29" />
    <path id="pi-622" d="M 6.696,5.324 L 6.696,5.324" />
    <path id="pi-623" d="M -29.707,12.239 L -29.707,12.239" />
    <path id="pi-624" d="M -3.798,3.392 L -3.65,3.244" />
    <path id="pi-625" d="M -3.553,3.204 L -2.55,3.204" />
    <path id="pi-626" d="M -2.452,3.204 L -2.245,3.204" />
    <path id="pi-627" d="M -2.095,3.204 L -2.148,3.204" />
    <path id="pi-628" d="M -30.213,10.862 L -30.296,10.862" />
    <path id="pi-629" d="M -30.31,10.876 L -30.31,11.382" />
    <path id="pi-630" d="M -30.31,11.397 L -30.31,11.397" />
    <path id="pi-631" d="M -15.269,11.066 L -15.269,11.066" />
    <path id="pi-632" d="M -15.269,11.081 L -15.269,11.382" />
    <path id="pi-633" d="M -15.269,11.443 L -15.269,11.081" />
    <path id="pi-634" d="M -30.296,11.397 L -15.283,11.397" />
    <path id="pi-635" d="M -30.045,12.362 L -29.841,12.288" />
    <path id="pi-636" d="M -30.213,10.963 L -30.248,10.963" />
    <path id="pi-637" d="M -30.282,12.361 L -30.282,10.997" />
    <path id="pi-638" d="M 9.903,5.29 L 9.604,5.29" />
    <path id="pi-639" d="M 13.214,4.658 L 13.214,4.32" />
    <path id="pi-640" d="M 12.646,4.47 L 12.646,4.47" />
    <path id="pi-641" d="M 12.646,4.437 L 12.645,3.858" />
    <path id="pi-642" d="M 12.679,4.47 L 12.886,4.47" />
    <path id="pi-643" d="M 13.106,4.677 L 12.91,4.48" />
    <path id="pi-644" d="M 13.214,5.064 L 13.214,4.911" />
    <path id="pi-645" d="M 15.508,3.731 L 15.508,3.731" />
    <path id="pi-646" d="M 15.202,5.715 L 15.202,5.672" />
    <path id="pi-647" d="M 15.202,5.639 L 15.202,5.639" />
    <path id="pi-648" d="M 13.322,5.639 L 13.736,5.639" />
    <path id="pi-649" d="M 15.508,3.764 L 15.508,5.605" />
    <path id="pi-650" d="M 15.474,5.639 L 15.376,5.639" />
    <path id="pi-651" d="M 15.165,5.639 L 15.097,5.639" />
    <path id="pi-652" d="M 15.085,5.639 L 13.76,5.639" />
    <path id="pi-653" d="M 15.365,5.639 L 15.239,5.639" />
    <path id="pi-654" d="M 6.839,5.323 L 9.36,5.29" />
    <path id="pi-655" d="M 10.046,6.637 L 10.046,5.629" />
    <path id="pi-656" d="M 10.046,5.5 L 10.046,5.532" />
    <path id="pi-657" d="M 6.064,6.002 L 6.064,6.637" />
    <path id="pi-658" d="M 7.893,6.715 L 6.142,6.715" />
    <path id="pi-659" d="M 7.971,6.715 L 7.971,6.715" />
    <path id="pi-660" d="M 8.731,6.715 L 8.025,6.715" />
    <path id="pi-661" d="M 8.809,6.715 L 8.809,6.715" />
    <path id="pi-662" d="M 8.863,6.715 L 9.968,6.715" />
    <path id="pi-663" d="M 8.809,6.593 L 8.809,6.637" />
    <path id="pi-664" d="M 7.971,6.593 L 7.971,6.637" />
    <path id="pi-665" d="M 5.972,5.925 L 5.986,5.925" />
    <path id="pi-666" d="M -1.521,5.217 L -1.521,5.217" />
    <path id="pi-667" d="M -1.783,5.217 L -1.592,5.217" />
    <path id="pi-668" d="M -1.521,5.52 L -1.521,5.287" />
    <path id="pi-669" d="M -1.521,5.591 L -1.521,5.591" />
    <path id="pi-670" d="M -2.079,5.591 L -2.079,5.591" />
    <path id="pi-671" d="M -1.521,5.591 L -1.521,5.591" />
    <path id="pi-672" d="M -1.655,5.591 L -1.996,5.591" />
    <path id="pi-673" d="M -11.414,5.166 L -11.414,5.166" />
    <path id="pi-674" d="M -11.421,5.023 L -11.458,4.319" />
    <path id="pi-675" d="M -11.465,4.177 L -11.465,4.177" />
    <path id="pi-676" d="M -11.414,5.166 L -11.414,5.166" />
    <path id="pi-677" d="M -11.923,2.745 L -9.188,2.745" />
    <path id="pi-678" d="M -12.001,2.745 L -12.001,2.745" />
    <path id="pi-679" d="M -9.111,3.808 L -9.111,5.559" />
    <path id="pi-680" d="M -9.111,3.731 L -9.111,3.731" />
    <path id="pi-681" d="M -9.111,2.823 L -9.111,3.677" />
    <path id="pi-682" d="M -9.442,5.637 L -9.442,5.637" />
    <path id="pi-683" d="M -9.188,5.637 L -9.365,5.637" />
    <path id="pi-684" d="M -11.274,5.637 L -9.496,5.637" />
    <path id="pi-685" d="M 20.198,-1.854 L 20.198,-1.854" />
    <path id="pi-686" d="M 20.183,-1.712 L 20.112,-1.034" />
    <path id="pi-687" d="M 20.097,-0.892 L 20.097,-0.892" />
    <path id="pi-688" d="M 17.674,-0.429 L 17.65,-0.429" />
    <path id="pi-689" d="M 17.573,-0.506 L 17.573,-2.257" />
    <path id="pi-690" d="M 17.573,-0.429 L 17.573,-0.429" />
    <path id="pi-691" d="M 18.051,-2.335 L 18.051,-2.335" />
    <path id="pi-692" d="M 18.128,-2.335 L 20.317,-2.335" />
    <path id="pi-693" d="M 17.65,-2.335 L 17.997,-2.335" />
    <path id="pi-694" d="M 20.655,-0.308 L 20.904,-2.195" />
    <path id="pi-695" d="M 20.198,-1.854 L 20.198,-1.854" />
    <path id="pi-696" d="M 20.284,-1.969 L 20.473,-2.224" />
    <path id="pi-697" d="M 20.796,-2.295 L 20.838,-2.287" />
    <path id="pi-698" d="M 20.558,-2.339 L 20.558,-2.339" />
    <path id="pi-699" d="M 20.476,-2.236 L 20.249,-1.953" />
    <path id="pi-700" d="M 3.518,0.522 L 3.518,12.071" />
    <path id="pi-701" d="M 3.518,12.275 L 3.518,12.275" />
    <path id="pi-702" d="M 6.869,-2.03 L 6.869,-2.03" />
    <path id="pi-703" d="M 6.726,-2.028 L 4.245,-1.979" />
    <path id="pi-704" d="M 4.102,-1.976 L 4.102,-1.976" />
    <path id="pi-705" d="M 3.518,-2.986 L 3.518,-1.316" />
    <path id="pi-706" d="M 3.517,-3.341 L 3.517,-3.341" />
    <path id="pi-707" d="M 7.591,-2.546 L 7.517,-2.546" />
    <path id="pi-708" d="M 5.898,-3.248 L 5.898,-3.262" />
    <path id="pi-709" d="M 5.059,-3.248 L 5.059,-3.262" />
    <path id="pi-710" d="M 3.517,0.319 L 3.517,0.319" />
    <path id="pi-711" d="M 3.518,0.116 L 3.518,-1.773" />
    <path id="pi-712" d="M 3.518,-3.14 L 3.518,-2.144" />
    <path id="pi-713" d="M 4.102,-1.976 L 4.102,-1.976" />
    <path id="pi-714" d="M 3.959,-1.976 L 3.886,-1.976" />
    <path id="pi-715" d="M 3.873,-3.34 L 4.982,-3.34" />
    <path id="pi-716" d="M 5.82,-3.34 L 5.114,-3.34" />
    <path id="pi-717" d="M 3.518,-3.341 L 3.518,-3.341" />
    <path id="pi-718" d="M 7.439,-2.546 L 7.439,-2.546" />
    <path id="pi-719" d="M 7.439,-2.624 L 7.439,-2.682" />
    <path id="pi-720" d="M 7.399,-2.779 L 6.878,-3.3" />
    <path id="pi-721" d="M 6.781,-3.34 L 5.952,-3.34" />
    <path id="pi-722" d="M 3.518,-3.341 L 3.518,-3.341" />
    <path id="pi-723" d="M 5.898,-3.34 L 5.898,-3.34" />
    <path id="pi-724" d="M 5.059,-3.34 L 5.059,-3.34" />
    <path id="pi-725" d="M 3.518,-3.341 L 3.518,-3.341" />
    <path id="pi-726" d="M 1.462,-3.341 L 3.44,-3.341" />
    <path id="pi-727" d="M 3.518,-3.341 L 3.518,-3.341" />
    <path id="pi-728" d="M 1.384,-3.341 L 1.384,-3.341" />
    <path id="pi-729" d="M -9.388,-2.032 L -9.388,-2.032" />
    <path id="pi-730" d="M -11.978,-1.981 L -12.011,-1.981" />
    <path id="pi-731" d="M -12.154,-1.978 L -12.154,-1.978" />
    <path id="pi-732" d="M -12.586,-3.34 L -12.586,-3.34" />
    <path id="pi-733" d="M -4.178,-3.378 L -4.178,-3.378" />
    <path id="pi-734" d="M -12.586,5.49 L -12.586,5.438" />
    <path id="pi-735" d="M -12.586,5.388 L -12.586,5.388" />
    <path id="pi-736" d="M -12.443,5.388 L -11.855,5.388" />
    <path id="pi-737" d="M -11.712,5.388 L -11.712,5.388" />
    <path id="pi-738" d="M -12.586,5.54 L -12.586,5.54" />
    <path id="pi-739" d="M -12.452,5.553 L -11.639,5.627" />
    <path id="pi-740" d="M -11.712,5.278 L -11.712,5.176" />
    <path id="pi-741" d="M -12.586,-2.086 L -12.586,-3.197" />
    <path id="pi-742" d="M -12.586,5.54 L -12.586,5.54" />
    <path id="pi-743" d="M -12.586,-3.45 L -12.586,-3.603" />
    <path id="pi-744" d="M -8.665,-2.546 L -8.815,-2.546" />
    <path id="pi-745" d="M -10.358,-3.248 L -10.358,-3.262" />
    <path id="pi-746" d="M -11.197,-3.248 L -11.197,-3.262" />
    <path id="pi-747" d="M -12.586,5.398 L -12.586,-1.834" />
    <path id="pi-748" d="M -11.835,-2.127 L -11.835,-2.288" />
    <path id="pi-749" d="M -9.531,-2.029 L -11.725,-1.986" />
    <path id="pi-750" d="M -12.648,-2.331 L -12.308,-2.599" />
    <path id="pi-751" d="M -12.709,-2.283 L -12.709,-2.283" />
    <path id="pi-752" d="M -12.207,-2.86 L -12.497,-3.228" />
    <path id="pi-753" d="M -11.897,-2.467 L -12.056,-2.668" />
    <path id="pi-754" d="M -10.436,-3.34 L -11.142,-3.34" />
    <path id="pi-755" d="M -11.274,-3.34 L -12.344,-3.34" />
    <path id="pi-756" d="M -8.893,-2.546 L -8.893,-2.546" />
    <path id="pi-757" d="M -8.893,-2.624 L -8.893,-3.262" />
    <path id="pi-758" d="M -8.971,-3.34 L -10.303,-3.34" />
    <path id="pi-759" d="M -10.358,-3.34 L -10.358,-3.34" />
    <path id="pi-760" d="M -11.197,-3.34 L -11.197,-3.34" />
    <path id="pi-761" d="M -12.586,-3.34 L -12.586,-3.34" />
    <path id="pi-762" d="M -10.434,-3.34 L -11.142,-3.34" />
    <path id="pi-763" d="M -11.274,-3.34 L -12.344,-3.34" />
    <path id="pi-764" d="M -12.586,-3.34 L -12.586,-3.34" />
    <path id="pi-765" d="M -12.586,-3.34 L -12.586,-3.34" />
    <path id="pi-766" d="M -10.436,-3.34 L -11.142,-3.34" />
    <path id="pi-767" d="M -11.274,-3.34 L -12.344,-3.34" />
    <path id="pi-768" d="M -12.586,-3.34 L -12.586,-3.34" />
    <path id="pi-769" d="M -12.586,-3.34 L -12.586,-3.34" />
    <path id="pi-770" d="M -4.321,-3.378 L -5.789,-3.378" />
    <path id="pi-771" d="M -5.931,-3.378 L -5.931,-3.378" />
    <path id="pi-772" d="M -5.861,-3.378 L -5.812,-3.378" />
    <path id="pi-773" d="M -4.178,-3.378 L -4.178,-3.378" />
    <path id="pi-774" d="M -5.742,-3.378 L -5.742,-3.378" />
    <path id="pi-775" d="M -5.641,-3.277 L -5.605,-3.242" />
    <path id="pi-776" d="M -12.508,-3.34 L -6.517,-3.34" />
    <path id="pi-777" d="M -6.439,-3.34 L -6.439,-3.34" />
    <path id="pi-778" d="M 3.517,-3.341 L 3.517,-3.341" />
    <path id="pi-779" d="M -5.802,-3.378 L -4.256,-3.378" />
    <path id="pi-780" d="M -4.178,-3.378 L -4.178,-3.378" />
    <path id="pi-781" d="M 1.384,-3.263 L 1.384,-0.37" />
    <path id="pi-782" d="M 1.384,-0.292 L 1.384,-0.292" />
    <path id="pi-783" d="M -5.88,0.887 L -5.88,-3.3" />
    <path id="pi-784" d="M -5.88,-3.378 L -5.88,-3.378" />
    <path id="pi-785" d="M -5.88,1.043 L -5.88,1.749" />
    <path id="pi-786" d="M -6.563,1.827 L -5.958,1.827" />
    <path id="pi-787" d="M -5.88,0.965 L -5.88,0.965" />
    <path id="pi-788" d="M -6.641,1.827 L -6.641,1.827" />
    <path id="pi-789" d="M -5.742,-3.378 L -5.742,-3.378" />
    <path id="pi-790" d="M -5.721,-3.311 L -5.588,-2.884" />
    <path id="pi-791" d="M -5.545,-2.945 L -5.545,-3.047" />
    <path id="pi-792" d="M -29.229,12.243 L -29.229,12.243" />
    <path id="pi-793" d="M -29.615,12.243 L -29.262,12.243" />
    <path id="pi-794" d="M -29.237,12.239 L -29.237,12.239" />
    <path id="pi-795" d="M -29.616,12.239 L -29.27,12.239" />
    <path id="pi-796" d="M -29.707,12.239 L -29.707,12.239" />
    <path id="pi-797" d="M -12.709,-1.362 L -12.709,-2.205" />
    <path id="pi-798" d="M -4.178,-3.378 L -4.178,-3.378" />
    <path id="pi-799" d="M -12.586,-3.34 L -12.586,-3.34" />
    <path id="pi-800" d="M -9.442,5.731 L -9.442,5.715" />
    <path id="pi-801" d="M -9.204,3.731 L -9.188,3.731" />
    <path id="pi-802" d="M -12.001,3.182 L -12.001,2.823" />
    <path id="pi-803" d="M 18.051,-2.413 L 18.051,-2.429" />
    <path id="pi-804" d="M 15.456,3.731 L 15.474,3.731" />
    <path id="pi-805" d="M 17.674,-0.53 L 17.657,-0.53" />
    <path id="pi-806" d="M 18.152,-2.429 L 18.152,-2.405" />
    <path id="pi-807" d="M 20.148,-0.429 L 20.148,-0.392" />
    <path id="pi-808" d="M 20.046,-0.429 L 20.046,-0.392" />
    <path id="pi-809" d="M 17.643,-0.106 L 17.643,0.11" />
    <path id="pi-810" d="M 17.643,-0.53 L 17.643,-0.53" />
    <path id="pi-811" d="M 17.43,0.124 L 17.628,0.124" />
    <path id="pi-812" d="M 18.166,-2.391 L 20.837,-2.391" />
    <path id="pi-813" d="M 20.851,-2.376 L 20.851,-2.229" />
    <path id="pi-814" d="M 20.778,-1.671 L 20.851,-2.227" />
    <path id="pi-815" d="M 20.584,0.124 L 20.341,0.124" />
    <path id="pi-816" d="M 20.327,0.124 L 20.327,0.124" />
    <path id="pi-817" d="M 20.313,0.124 L 17.43,0.124" />
    <path id="pi-818" d="M 17.43,-0.127 L 17.43,-0.127" />
    <path id="pi-819" d="M 17.416,0.124 L 17.416,0.124" />
    <path id="pi-820" d="M 20.046,-0.378 L 20.046,-0.378" />
    <path id="pi-821" d="M 20.593,-0.378 L 20.162,-0.378" />
    <path id="pi-822" d="M 20.607,-0.378 L 20.607,-0.378" />
    <path id="pi-823" d="M 20.598,0.124 L 20.598,0.124" />
    <path id="pi-824" d="M 20.598,0.124 L 20.598,0.124" />
    <path id="pi-825" d="M 20.68,-0.153 L 20.649,0.076" />
    <path id="pi-826" d="M 20.647,0.09 L 20.647,0.09" />
    <path id="pi-827" d="M 20.636,0.098 L 20.615,0.113" />
    <path id="pi-828" d="M 17.949,-2.391 L 17.949,-2.391" />
    <path id="pi-829" d="M 17.949,-2.405 L 17.949,-2.429" />
    <path id="pi-830" d="M 20.887,-2.376 L 20.887,-1.731" />
    <path id="pi-831" d="M 17.963,-2.391 L 20.873,-2.391" />
    <path id="pi-832" d="M 17.622,-0.127 L 17.444,-0.127" />
    <path id="pi-833" d="M 17.643,-0.516 L 17.643,-0.148" />
    <path id="pi-834" d="M 13.164,4.64 L 13.164,4.669" />
    <path id="pi-835" d="M 13.265,4.64 L 13.265,4.699" />
    <path id="pi-836" d="M 15.303,5.715 L 15.303,5.625" />
    <path id="pi-837" d="M 15.715,3.518 L 15.715,3.518" />
    <path id="pi-838" d="M 15.7,3.518 L 15.596,3.518" />
    <path id="pi-839" d="M 15.456,3.832 L 15.561,3.832" />
    <path id="pi-840" d="M 15.575,3.832 L 15.575,3.832" />
    <path id="pi-841" d="M 15.575,3.812 L 15.575,3.539" />
    <path id="pi-842" d="M 15.575,3.847 L 15.575,5.596" />
    <path id="pi-843" d="M 15.575,3.832 L 15.575,3.832" />
    <path id="pi-844" d="M 15.561,5.61 L 15.318,5.61" />
    <path id="pi-845" d="M 15.575,5.61 L 15.575,5.61" />
    <path id="pi-846" d="M 15.575,3.497 L 15.575,2.775" />
    <path id="pi-847" d="M 15.561,2.761 L 12.659,2.761" />
    <path id="pi-848" d="M -12.722,2.515 L 1.899,2.515" />
    <path id="pi-849" d="M -9.144,2.616 L 1.797,2.616" />
    <path id="pi-850" d="M -9.165,3.646 L -9.165,2.637" />
    <path id="pi-851" d="M 10.046,4.632 L 10.046,2.637" />
    <path id="pi-852" d="M 3.518,-1.34 L 3.518,0.463" />
    <path id="pi-853" d="M -30.213,11.065 L -30.229,11.065" />
    <path id="pi-854" d="M -30.243,11.079 L -30.243,11.333" />
    <path id="pi-855" d="M -30.243,12.021 L -30.243,11.368" />
    <path id="pi-856" d="M -30.243,11.354 L -30.243,11.354" />
    <path id="pi-857" d="M -15.269,10.973 L -15.269,10.973" />
    <path id="pi-858" d="M 20.606,0.065 L 20.606,0.065" />
    <path id="pi-859" d="M 20.592,0.065 L 20.341,0.065" />
    <path id="pi-860" d="M 20.327,0.065 L 20.327,0.065" />
    <path id="pi-861" d="M 20.313,0.065 L 17.563,0.065" />
    <path id="pi-862" d="M 17.549,0.065 L 17.549,0.065" />
    <path id="pi-863" d="M 17.43,-0.279 L 17.43,-0.279" />
    <path id="pi-864" d="M 17.444,-0.279 L 17.528,-0.279" />
    <path id="pi-865" d="M 17.674,-0.327 L 17.563,-0.327" />
    <path id="pi-866" d="M 17.549,-0.313 L 17.549,-0.3" />
    <path id="pi-867" d="M 17.422,0.241 L 17.422,0.241" />
    <path id="pi-868" d="M 17.422,0.241 L 17.422,0.241" />
    <path id="pi-869" d="M 17.443,0.241 L 17.528,0.241" />
    <path id="pi-870" d="M 17.549,0.241 L 17.549,0.241" />
    <path id="pi-871" d="M 17.549,0.221 L 17.549,0.086" />
    <path id="pi-872" d="M 17.549,0.065 L 17.549,0.065" />
    <path id="pi-873" d="M 15.1,5.715 L 15.1,5.685" />
    <path id="pi-874" d="M 15.675,3.378 L 15.675,3.378" />
    <path id="pi-875" d="M 15.675,3.378 L 15.675,3.378" />
    <path id="pi-876" d="M 15.655,3.378 L 15.531,3.378" />
    <path id="pi-877" d="M 15.51,3.378 L 15.51,3.378" />
    <path id="pi-878" d="M 15.51,3.392 L 15.51,3.559" />
    <path id="pi-879" d="M 15.456,3.629 L 15.489,3.629" />
    <path id="pi-880" d="M 15.715,3.67 L 15.715,3.67" />
    <path id="pi-881" d="M 15.7,3.67 L 15.606,3.67" />
    <path id="pi-882" d="M 15.596,3.666 L 15.525,3.595" />
    <path id="pi-883" d="M 12.706,4.963 L 12.651,4.963" />
    <path id="pi-884" d="M 12.636,4.963 L 12.636,4.963" />
    <path id="pi-885" d="M 12.645,3.482 L 12.645,3.482" />
    <path id="pi-886" d="M 12.655,3.492 L 12.675,3.511" />
    <path id="pi-887" d="M 12.679,3.521 L 12.679,3.878" />
    <path id="pi-888" d="M 12.675,3.888 L 12.641,3.922" />
    <path id="pi-889" d="M 12.636,4.734 L 12.636,4.942" />
    <path id="pi-890" d="M 7.591,-2.648 L 7.536,-2.648" />
    <path id="pi-891" d="M 7.515,-2.738 L 7.515,-3.394" />
    <path id="pi-892" d="M 7.061,-1.208 L 7.061,-1.208" />
    <path id="pi-893" d="M 7.515,-1.375 L 7.515,-2.524" />
    <path id="pi-894" d="M 3.539,-1.36 L 6.723,-1.36" />
    <path id="pi-895" d="M 6.909,-1.208 L 6.909,-1.208" />
    <path id="pi-896" d="M 6.909,-1.208 L 6.909,-1.208" />
    <path id="pi-897" d="M 6.909,-1.208 L 6.909,-1.208" />
    <path id="pi-898" d="M 6.909,-1.34 L 6.909,-1.229" />
    <path id="pi-899" d="M 6.764,-1.36 L 6.888,-1.36" />
    <path id="pi-900" d="M 6.744,-1.36 L 6.744,-1.36" />
    <path id="pi-901" d="M 7.061,-1.222 L 7.061,-1.346" />
    <path id="pi-902" d="M 7.061,-1.36 L 7.061,-1.36" />
    <path id="pi-903" d="M 7.075,-1.36 L 7.501,-1.36" />
    <path id="pi-904" d="M 7.483,-2.729 L 7.483,-2.459" />
    <path id="pi-905" d="M 7.483,-2.445 L 7.483,-2.445" />
    <path id="pi-906" d="M 7.498,-2.445 L 7.591,-2.445" />
    <path id="pi-907" d="M 4.04,-3.408 L 4.04,-3.408" />
    <path id="pi-908" d="M 4.015,-3.408 L 4.015,-3.408" />
    <path id="pi-909" d="M 3.518,-1.143 L 3.518,-1.143" />
    <path id="pi-910" d="M 3.518,-1.083 L 3.518,-1.083" />
    <path id="pi-911" d="M 3.518,-1.602 L 3.518,-1.157" />
    <path id="pi-912" d="M 4.04,-3.394 L 4.04,-3.192" />
    <path id="pi-913" d="M 4.015,-3.394 L 4.015,-3.167" />
    <path id="pi-914" d="M 3.518,-1.538 L 3.518,-1.097" />
    <path id="pi-915" d="M 3.472,-1.59 L 3.514,-1.548" />
    <path id="pi-916" d="M 3.472,-1.653 L 3.514,-1.612" />
    <path id="pi-917" d="M 5.999,-3.248 L 5.999,-3.388" />
    <path id="pi-918" d="M 7.501,-3.408 L 6.02,-3.408" />
    <path id="pi-919" d="M 5.161,-3.248 L 5.161,-3.388" />
    <path id="pi-920" d="M 5.14,-3.408 L 4.029,-3.408" />
    <path id="pi-921" d="M 5.979,-3.408 L 5.182,-3.408" />
    <path id="pi-922" d="M 4.937,-3.408 L 4.054,-3.408" />
    <path id="pi-923" d="M 7.469,-3.408 L 5.817,-3.408" />
    <path id="pi-924" d="M 5.796,-3.248 L 5.796,-3.304" />
    <path id="pi-925" d="M 5.796,-3.318 L 5.796,-3.318" />
    <path id="pi-926" d="M 5.796,-3.332 L 5.796,-3.388" />
    <path id="pi-927" d="M 5.775,-3.408 L 4.978,-3.408" />
    <path id="pi-928" d="M 4.958,-3.248 L 4.958,-3.304" />
    <path id="pi-929" d="M 4.958,-3.318 L 4.958,-3.318" />
    <path id="pi-930" d="M 4.958,-3.332 L 4.958,-3.388" />
    <path id="pi-931" d="M 7.515,-2.627 L 7.515,-2.553" />
    <path id="pi-932" d="M 7.515,-2.538 L 7.515,-2.538" />
    <path id="pi-933" d="M 6.818,-2.646 L 6.818,-2.735" />
    <path id="pi-934" d="M 7.483,-2.75 L 7.483,-2.75" />
    <path id="pi-935" d="M 7.483,-3.394 L 7.483,-2.77" />
    <path id="pi-936" d="M 7.469,-2.75 L 6.832,-2.75" />
    <path id="pi-937" d="M 6.919,-2.646 L 6.919,-2.704" />
    <path id="pi-938" d="M 6.934,-2.718 L 7.501,-2.718" />
    <path id="pi-939" d="M 7.515,-2.718 L 7.515,-2.718" />
    <path id="pi-940" d="M 7.515,-2.669 L 7.515,-2.697" />
    <path id="pi-941" d="M 5.972,5.823 L 6.054,5.823" />
    <path id="pi-942" d="M 5.972,6.026 L 6.047,6.026" />
    <path id="pi-943" d="M 7.448,6.094 L 7.448,6.672" />
    <path id="pi-944" d="M 7.849,6.686 L 7.588,6.686" />
    <path id="pi-945" d="M 6.068,5.844 L 6.068,6.014" />
    <path id="pi-946" d="M 6.072,6.024 L 6.123,6.076" />
    <path id="pi-947" d="M 6.768,6.08 L 7.46,6.08" />
    <path id="pi-948" d="M 7.474,6.094 L 7.474,6.645" />
    <path id="pi-949" d="M 6.068,5.823 L 6.068,5.823" />
    <path id="pi-950" d="M 6.068,4.667 L 6.068,5.802" />
    <path id="pi-951" d="M 7.488,6.659 L 7.561,6.659" />
    <path id="pi-952" d="M 7.575,6.659 L 7.575,6.659" />
    <path id="pi-953" d="M 8.072,6.593 L 8.072,6.645" />
    <path id="pi-954" d="M 8.072,6.659 L 8.072,6.659" />
    <path id="pi-955" d="M 7.59,6.659 L 8.052,6.659" />
    <path id="pi-956" d="M 8.911,6.593 L 8.911,6.645" />
    <path id="pi-957" d="M 8.911,6.659 L 8.911,6.659" />
    <path id="pi-958" d="M 8.093,6.659 L 8.89,6.659" />
    <path id="pi-959" d="M 7.56,6.686 L 7.463,6.686" />
    <path id="pi-960" d="M 7.574,6.686 L 7.574,6.686" />
    <path id="pi-961" d="M 7.869,6.593 L 7.869,6.672" />
    <path id="pi-962" d="M 7.869,6.686 L 7.869,6.686" />
    <path id="pi-963" d="M 8.687,6.686 L 7.89,6.686" />
    <path id="pi-964" d="M 8.707,6.593 L 8.707,6.672" />
    <path id="pi-965" d="M 8.707,6.686 L 8.707,6.686" />
    <path id="pi-966" d="M 8.728,6.686 L 10.108,6.686" />
    <path id="pi-967" d="M 8.931,6.659 L 10.108,6.659" />
    <path id="pi-968" d="M 10.122,6.645 L 10.122,5.607" />
    <path id="pi-969" d="M 10.122,6.672 L 10.122,5.659" />
    <path id="pi-970" d="M 10.122,5.645 L 10.122,5.645" />
    <path id="pi-971" d="M 10.122,5.631 L 10.122,4.72" />
    <path id="pi-972" d="M 10.122,4.705 L 10.122,4.705" />
    <path id="pi-973" d="M 10.122,5.593 L 10.122,5.593" />
    <path id="pi-974" d="M 10.122,5.578 L 10.122,4.769" />
    <path id="pi-975" d="M 10.122,4.754 L 10.122,4.754" />
    <path id="pi-976" d="M 10.122,4.691 L 10.122,4.553" />
    <path id="pi-977" d="M 10.122,4.74 L 10.122,4.493" />
    <path id="pi-978" d="M 10.122,4.478 L 10.122,4.478" />
    <path id="pi-979" d="M 10.046,4.478 L 10.046,4.478" />
    <path id="pi-980" d="M 10.05,4.478 L 10.118,4.478" />
    <path id="pi-981" d="M 10.108,4.539 L 10.06,4.539" />
    <path id="pi-982" d="M 10.046,4.539 L 10.046,4.539" />
    <path id="pi-983" d="M 9.969,5.493 L 10.108,5.493" />
    <path id="pi-984" d="M 10.122,5.508 L 10.122,5.572" />
    <path id="pi-985" d="M 10.122,5.593 L 10.122,5.593" />
    <path id="pi-986" d="M 6.645,5.94 L 6.645,6.009" />
    <path id="pi-987" d="M 6.645,6.023 L 6.645,6.023" />
    <path id="pi-988" d="M 6.666,6.08 L 7.434,6.08" />
    <path id="pi-989" d="M 6.747,5.94 L 6.747,6.066" />
    <path id="pi-990" d="M 6.747,6.08 L 6.747,6.08" />
    <path id="pi-991" d="M 6.134,6.08 L 6.726,6.08" />
    <path id="pi-992" d="M 6.082,6.08 L 6.625,6.08" />
    <path id="pi-993" d="M 6.645,6.059 L 6.645,6.037" />
    <path id="pi-994" d="M 6.444,4.501 L 6.444,4.501" />
    <path id="pi-995" d="M 6.291,4.501 L 6.291,4.501" />
    <path id="pi-996" d="M 6.068,6.047 L 6.068,6.066" />
    <path id="pi-997" d="M 6.068,6.006 L 6.068,5.928" />
    <path id="pi-998" d="M 6.068,5.899 L 6.068,4.64" />
    <path id="pi-999" d="M 6.068,5.913 L 6.068,5.913" />
    <path id="pi-1000" d="M 6.082,4.626 L 6.277,4.626" />
    <path id="pi-1001" d="M 6.291,4.626 L 6.291,4.626" />
    <path id="pi-1002" d="M 6.291,4.612 L 6.291,4.515" />
    <path id="pi-1003" d="M 10.025,4.653 L 6.866,4.653" />
    <path id="pi-1004" d="M 6.845,4.653 L 6.845,4.653" />
    <path id="pi-1005" d="M 6.825,4.653 L 6.464,4.653" />
    <path id="pi-1006" d="M 6.444,4.522 L 6.444,4.531" />
    <path id="pi-1007" d="M 6.444,4.653 L 6.444,4.653" />
    <path id="pi-1008" d="M 6.068,4.653 L 6.068,4.653" />
    <path id="pi-1009" d="M 6.444,4.551 L 6.444,4.551" />
    <path id="pi-1010" d="M 6.444,4.551 L 6.444,4.551" />
    <path id="pi-1011" d="M 6.444,4.572 L 6.444,4.632" />
    <path id="pi-1012" d="M 6.444,4.551 L 6.444,4.551" />
    <path id="pi-1013" d="M 6.082,4.653 L 6.429,4.653" />
    <path id="pi-1014" d="M 6.444,4.632 L 6.444,4.578" />
    <path id="pi-1015" d="M 10.046,4.712 L 10.046,5.049" />
    <path id="pi-1016" d="M -12.722,-1.36 L -9.652,-1.36" />
    <path id="pi-1017" d="M -9.631,-1.36 L -9.631,-1.36" />
    <path id="pi-1018" d="M -9.631,-1.233 L -9.631,-1.233" />
    <path id="pi-1019" d="M -9.631,-1.233 L -9.631,-1.233" />
    <path id="pi-1020" d="M -9.631,-1.254 L -9.631,-1.34" />
    <path id="pi-1021" d="M -9.631,-1.34 L -9.631,-1.254" />
    <path id="pi-1022" d="M -9.61,-1.36 L -9.318,-1.36" />
    <path id="pi-1023" d="M -9.291,-1.36 L -9.291,-1.36" />
    <path id="pi-1024" d="M -9.291,-1.208 L -9.291,-1.208" />
    <path id="pi-1025" d="M -9.291,-1.222 L -9.291,-1.346" />
    <path id="pi-1026" d="M -9.139,-1.208 L -9.139,-1.208" />
    <path id="pi-1027" d="M -9.139,-1.222 L -9.139,-1.321" />
    <path id="pi-1028" d="M -8.771,-1.335 L -9.124,-1.335" />
    <path id="pi-1029" d="M -9.139,-1.335 L -9.139,-1.335" />
    <path id="pi-1030" d="M -8.757,-2.465 L -8.757,-2.718" />
    <path id="pi-1031" d="M -9.46,-2.732 L -9.809,-2.732" />
    <path id="pi-1032" d="M -9.823,-2.746 L -9.823,-3.327" />
    <path id="pi-1033" d="M -11.319,-3.342 L -12.321,-3.342" />
    <path id="pi-1034" d="M -8.757,-2.669 L -8.757,-2.718" />
    <path id="pi-1035" d="M -9.823,-2.746 L -9.823,-3.327" />
    <path id="pi-1036" d="M -11.116,-3.342 L -12.397,-3.342" />
    <path id="pi-1037" d="M -8.665,-2.648 L -8.742,-2.648" />
    <path id="pi-1038" d="M -8.757,-2.648 L -8.757,-2.648" />
    <path id="pi-1039" d="M -8.757,-1.349 L -8.757,-2.627" />
    <path id="pi-1040" d="M -8.665,-2.445 L -8.742,-2.445" />
    <path id="pi-1041" d="M -8.757,-2.445 L -8.757,-2.445" />
    <path id="pi-1042" d="M -8.757,-1.375 L -8.757,-2.424" />
    <path id="pi-1043" d="M -9.439,-2.648 L -9.439,-2.718" />
    <path id="pi-1044" d="M -9.439,-2.732 L -9.439,-2.732" />
    <path id="pi-1045" d="M -8.771,-2.732 L -9.418,-2.732" />
    <path id="pi-1046" d="M -9.337,-2.648 L -9.337,-2.667" />
    <path id="pi-1047" d="M -9.337,-2.681 L -9.337,-2.681" />
    <path id="pi-1048" d="M -9.358,-2.732 L -9.809,-2.732" />
    <path id="pi-1049" d="M -9.337,-2.711 L -9.337,-2.696" />
    <path id="pi-1050" d="M -8.771,-2.732 L -9.317,-2.732" />
    <path id="pi-1051" d="M -10.256,-3.248 L -10.256,-3.327" />
    <path id="pi-1052" d="M -10.256,-3.342 L -10.256,-3.342" />
    <path id="pi-1053" d="M -9.838,-3.342 L -10.236,-3.342" />
    <path id="pi-1054" d="M -10.46,-3.248 L -10.46,-3.327" />
    <path id="pi-1055" d="M -10.46,-3.342 L -10.46,-3.342" />
    <path id="pi-1056" d="M -9.838,-3.342 L -10.439,-3.342" />
    <path id="pi-1057" d="M -11.095,-3.248 L -11.095,-3.327" />
    <path id="pi-1058" d="M -11.095,-3.342 L -11.095,-3.342" />
    <path id="pi-1059" d="M -10.277,-3.342 L -11.074,-3.342" />
    <path id="pi-1060" d="M -11.298,-3.248 L -11.298,-3.327" />
    <path id="pi-1061" d="M -11.298,-3.342 L -11.298,-3.342" />
    <path id="pi-1062" d="M -10.48,-3.342 L -11.278,-3.342" />
    <path id="pi-1063" d="M -12.411,-3.342 L -12.411,-3.342" />
    <path id="pi-1064" d="M -12.411,-3.327 L -12.411,-3.14" />
    <path id="pi-1065" d="M -12.415,-3.13 L -12.688,-2.857" />
    <path id="pi-1066" d="M -12.782,-2.161 L -12.782,-1.143" />
    <path id="pi-1067" d="M -12.698,-2.832 L -12.698,-2.599" />
    <path id="pi-1068" d="M -12.698,-2.847 L -12.698,-2.847" />
    <path id="pi-1069" d="M -12.703,-2.588 L -12.778,-2.513" />
    <path id="pi-1070" d="M -12.782,-2.503 L -12.782,-1.203" />
    <path id="pi-1071" d="M -12.709,-1.189 L -12.709,-1.189" />
    <path id="pi-1072" d="M -12.709,-1.129 L -12.709,-1.129" />
    <path id="pi-1073" d="M -12.335,-3.356 L -12.335,-3.372" />
    <path id="pi-1074" d="M -12.335,-3.386 L -12.335,-3.386" />
    <path id="pi-1075" d="M -12.782,-1.189 L -12.782,-1.189" />
    <path id="pi-1076" d="M -12.723,-1.189 L -12.768,-1.189" />
    <path id="pi-1077" d="M -12.662,-2.181 L -12.692,-2.181" />
    <path id="pi-1078" d="M -12.721,-2.181 L -12.761,-2.181" />
    <path id="pi-1079" d="M -12.706,-2.181 L -12.706,-2.181" />
    <path id="pi-1080" d="M -12.318,-3.134 L -12.772,-2.681" />
    <path id="pi-1081" d="M -9.176,3.629 L -9.204,3.629" />
    <path id="pi-1082" d="M -9.204,3.832 L -9.169,3.832" />
    <path id="pi-1083" d="M -9.341,5.731 L -9.341,5.666" />
    <path id="pi-1084" d="M -9.544,5.731 L -9.544,5.637" />
    <path id="pi-1085" d="M -8.93,3.389 L -8.93,3.389" />
    <path id="pi-1086" d="M -8.93,3.237 L -8.93,3.237" />
    <path id="pi-1087" d="M -9.155,3.646 L -9.155,3.41" />
    <path id="pi-1088" d="M -9.155,3.389 L -9.155,3.389" />
    <path id="pi-1089" d="M -8.95,3.389 L -9.134,3.389" />
    <path id="pi-1090" d="M -8.969,3.667 L -8.969,3.667" />
    <path id="pi-1091" d="M -8.969,3.667 L -8.969,3.667" />
    <path id="pi-1092" d="M -8.99,3.667 L -9.144,3.667" />
    <path id="pi-1093" d="M -8.99,3.667 L -9.134,3.667" />
    <path id="pi-1094" d="M -9.155,3.355 L -9.155,3.302" />
    <path id="pi-1095" d="M -9.155,3.389 L -9.155,3.389" />
    <path id="pi-1096" d="M -9.155,3.288 L -9.155,3.288" />
    <path id="pi-1097" d="M -9.155,3.267 L -9.155,2.772" />
    <path id="pi-1098" d="M -9.155,3.216 L -9.155,2.772" />
    <path id="pi-1099" d="M -9.155,3.832 L -9.155,3.832" />
    <path id="pi-1100" d="M -8.944,3.237 L -9.093,3.237" />
    <path id="pi-1101" d="M -9.107,3.237 L -9.107,3.237" />
    <path id="pi-1102" d="M -9.134,3.237 L -9.122,3.237" />
    <path id="pi-1103" d="M -9.155,3.812 L -9.155,3.258" />
    <path id="pi-1104" d="M -11.536,2.757 L -11.986,2.757" />
    <path id="pi-1105" d="M -12.015,3.355 L -12.051,3.355" />
    <path id="pi-1106" d="M -12.001,3.355 L -12.001,3.355" />
    <path id="pi-1107" d="M -12.001,3.401 L -12.001,2.772" />
    <path id="pi-1108" d="M -11.435,2.757 L -12.051,2.757" />
    <path id="pi-1109" d="M -12.065,2.757 L -12.065,2.757" />
    <path id="pi-1110" d="M -12.065,2.772 L -12.065,3.341" />
    <path id="pi-1111" d="M -11.414,3.713 L -11.414,3.672" />
    <path id="pi-1112" d="M -11.414,3.643 L -11.414,2.731" />
    <path id="pi-1113" d="M -11.414,3.658 L -11.414,3.658" />
    <path id="pi-1114" d="M -11.516,3.713 L -11.516,3.672" />
    <path id="pi-1115" d="M -11.516,3.643 L -11.516,2.731" />
    <path id="pi-1116" d="M -11.516,3.658 L -11.516,3.658" />
    <path id="pi-1117" d="M -11.516,2.716 L -11.516,2.716" />
    <path id="pi-1118" d="M -11.414,2.716 L -11.414,2.716" />
    <path id="pi-1119" d="M -11.516,2.737 L -11.516,2.731" />
    <path id="pi-1120" d="M -11.414,2.737 L -11.414,2.731" />
    <path id="pi-1121" d="M -9.169,2.757 L -11.393,2.757" />
    <path id="pi-1122" d="M -9.169,2.757 L -11.495,2.757" />
    <path id="pi-1123" d="M -12.021,3.416 L -12.05,3.416" />
    <path id="pi-1124" d="M -12.001,3.416 L -12.001,3.416" />
    <path id="pi-1125" d="M -12.001,3.416 L -12.001,3.416" />
    <path id="pi-1126" d="M -12.064,4.948 L -12.064,3.43" />
    <path id="pi-1127" d="M -12.05,4.963 L -11.922,4.963" />
    <path id="pi-1128" d="M -12.064,4.963 L -12.064,4.963" />
    <path id="pi-1129" d="M -9.53,5.623 L -9.139,5.623" />
    <path id="pi-1130" d="M -9.125,5.623 L -9.125,5.623" />
    <path id="pi-1131" d="M -9.125,5.609 L -9.125,4.154" />
    <path id="pi-1132" d="M -9.327,5.652 L -9.111,5.652" />
    <path id="pi-1133" d="M -9.096,5.652 L -9.096,5.652" />
    <path id="pi-1134" d="M -9.096,5.637 L -9.096,4.154" />
    <path id="pi-1135" d="M -9.096,4.14 L -9.096,4.14" />
    <path id="pi-1136" d="M -9.125,4.14 L -9.125,4.14" />
    <path id="pi-1137" d="M -9.155,3.853 L -9.155,3.974" />
    <path id="pi-1138" d="M -9.155,3.65 L -9.155,3.739" />
    <path id="pi-1139" d="M -9.159,3.749 L -9.166,3.756" />
    <path id="pi-1140" d="M -9.176,3.781 L -9.176,3.995" />
    <path id="pi-1141" d="M -9.176,3.766 L -9.176,3.766" />
    <path id="pi-1142" d="M -9.129,4.049 L -9.172,4.005" />
    <path id="pi-1143" d="M -9.151,3.984 L -9.101,4.034" />
    <path id="pi-1144" d="M -9.096,4.045 L -9.096,4.126" />
    <path id="pi-1145" d="M -9.125,4.059 L -9.125,4.126" />
    <path id="pi-1146" d="M -9.155,3.308 L -9.155,3.608" />
    <path id="pi-1147" d="M -9.165,3.667 L -9.165,3.667" />
    <path id="pi-1148" d="M -1.521,5.52 L -1.521,5.497" />
    <path id="pi-1149" d="M -1.664,5.426 L -1.988,5.426" />
    <path id="pi-1150" d="M -2.13,12.132 L -2.13,5.569" />
    <path id="pi-1151" d="M -2.13,12.275 L -2.13,12.275" />
    <path id="pi-1152" d="M -1.521,5.426 L -1.521,5.426" />
    <path id="pi-1153" d="M -1.854,5.217 L -1.854,5.217" />
    <path id="pi-1154" d="M -30.215,12.035 L -30.229,12.035" />
    <path id="pi-1155" d="M -15.319,11.316 L -15.319,11.316" />
    <path id="pi-1156" d="M -15.306,11.312 L -15.279,11.304" />
    <path id="pi-1157" d="M -15.319,11.468 L -15.319,11.468" />
    <path id="pi-1158" d="M -15.306,11.464 L -15.279,11.457" />
    <path id="pi-1159" d="M 3.517,-3.512 L 3.517,-3.614" />
    <path id="pi-1160" d="M 12.645,3.421 L 12.645,3.421" />
    <path id="pi-1161" d="M 12.645,3.401 L 12.645,2.775" />
    <path id="pi-1162" d="M 20.464,-0.378 L 20.06,-0.378" />
    <path id="pi-1163" d="M 20.478,-0.378 L 20.478,-0.378" />
    <path id="pi-1164" d="M 20.668,-0.189 L 20.488,-0.368" />
    <path id="pi-1165" d="M 20.887,-1.729 L 20.685,-0.194" />
    <path id="pi-1166" d="M 20.706,-1.651 L 20.761,-1.651" />
    <path id="pi-1167" d="M 20.775,-1.651 L 20.775,-1.651" />
    <path id="pi-1168" d="M 20.609,-0.392 L 20.772,-1.631" />
    <path id="pi-1169" d="M 3.594,-2.179 L 3.556,-2.179" />
    <path id="pi-1170" d="M 3.542,-2.179 L 3.542,-2.179" />
    <path id="pi-1171" d="M 3.483,-2.179 L 3.528,-2.179" />
    <path id="pi-1172" d="M 12.645,3.442 L 12.645,3.476" />
    <path id="pi-1173" d="M 12.649,3.486 L 12.675,3.511" />
    <path id="pi-1174" d="M 12.679,3.521 L 12.679,3.878" />
    <path id="pi-1175" d="M 12.675,3.888 L 12.641,3.922" />
    <path id="pi-1176" d="M 12.636,3.932 L 12.636,4.699" />
    <path id="pi-1177" d="M 13.164,4.713 L 13.164,4.713" />
    <path id="pi-1178" d="M 12.651,4.713 L 13.149,4.713" />
    <path id="pi-1179" d="M 13.251,4.713 L 12.651,4.713" />
    <path id="pi-1180" d="M 12.636,4.713 L 12.636,4.713" />
    <path id="pi-1181" d="M 12.636,3.932 L 12.636,4.693" />
    <path id="pi-1182" d="M 13.164,4.709 L 13.164,4.679" />
    <path id="pi-1183" d="M 3.517,-3.341 L 3.517,-3.341" />
    <path id="pi-1184" d="M -15.269,10.973 L -15.269,10.973" />
    <path id="pi-1185" d="M -15.269,11.036 L -15.269,11.036" />
    <path id="pi-1186" d="M -15.269,10.994 L -15.269,11.283" />
    <path id="pi-1187" d="M -15.269,11.008 L -15.269,11.022" />
    <path id="pi-1188" d="M -15.269,10.973 L -15.269,10.973" />
    <path id="pi-1189" d="M -8.771,-1.36 L -9.257,-1.36" />
    <path id="pi-1190" d="M -12.742,2.494 L -12.742,0.965" />
    <path id="pi-1191" d="M -12.742,0.95 L -12.742,0.886" />
    <path id="pi-1192" d="M -12.742,-1.34 L -12.742,0.557" />
    <path id="pi-1193" d="M -12.742,0.572 L -12.742,0.636" />
    <path id="pi-1194" d="M -12.742,0.651 L -12.742,0.872" />
    <path id="pi-1195" d="M 3.518,0.919 L 3.518,0.595" />
    <path id="pi-1196" d="M 3.518,1.05 L 3.518,2.443" />
    <path id="pi-1197" d="M 3.518,0.478 L 3.518,0.58" />
    <path id="pi-1198" d="M 3.518,0.934 L 3.518,1.036" />
    <path id="pi-1199" d="M 6.064,5.925 L 6.064,5.925" />
  </g>
</svg>