<?xml version="1.0" encoding="utf-8"?>
<svg xmlns="http://www.w3.org/2000/svg" viewBox="-34.956 -13.976 57.779 24.156">
  <g transform="scale(1,-1)">
    <polygon id="ss-7" points="-29.309,-4.429 -26.936,0.778 -25.7,0.215 -26.927,-2.478 -22.72,-4.395 -20.358,0.789 -19.098,0.215 -20.325,-2.478 -16.049,-4.427 -15.011,-2.149 -15.011,5.702 -33.845,5.702 -33.845,0.559 -32.144,0.559 -33.539,-2.501" />
    <polygon id="ss-8" points="-15.164,12.865 -21.336,12.865 -27.661,12.865 -30.366,12.865 -30.366,10.452 -27.572,10.452 -27.572,7.684 -30.366,7.684 -30.366,5.702 -15.164,5.702" />
    <polygon id="ss-9" points="-12.001,5.702 -15.011,5.702 -15.011,-2.832 -15.126,-2.832 -15.126,-8.573 -6.058,-8.573 -6.058,0.66 0.978,0.66 0.978,-9.068 12.573,-9.068 12.573,-9.069 21.712,-7.866 18.983,12.865 0.978,12.865 0.978,8.522 1.194,8.522 1.194,7.072 2.261,7.072 2.261,6.237 1.194,6.237 1.194,5.753 -1.854,5.753 -1.854,9.008 -4.217,9.487 -5.105,9.487 -5.105,8.573 -6.058,8.573 -6.058,12.865 -12.001,12.865" />
  </g>
</svg>