<?xml version="1.0" encoding="utf-8"?>
<svg xmlns="http://www.w3.org/2000/svg" viewBox="-34.893 -14.284 57.414 25.040">
  <g transform="scale(1,-1)">
    <rect id="tm-212" x="-8.561" y="-3.408" width="0.3" height="0.3" transform="rotate(90,-8.411,-3.258)" />
    <rect id="tm-213" x="7.695" y="-3.408" width="0.3" height="0.3" transform="rotate(90,7.845,-3.258)" />
    <rect id="tm-214" x="-8.561" y="-2.112" width="0.3" height="0.3" transform="rotate(90,-8.411,-1.962)" />
    <rect id="tm-215" x="-8.561" y="-2.76" width="0.3" height="0.3" transform="rotate(90,-8.411,-2.61)" />
    <rect id="tm-216" x="7.695" y="-2.112" width="0.3" height="0.3" transform="rotate(90,7.845,-1.962)" />
    <rect id="tm-217" x="7.695" y="-2.76" width="0.3" height="0.3" transform="rotate(90,7.845,-2.61)" />
    <rect id="tm-218" x="-14.25" y="-4.446" width="0.3" height="0.3" transform="rotate(180,-14.1,-4.296)" />
    <rect id="tm-219" x="-14.25" y="-2.261" width="0.3" height="0.3" transform="rotate(180,-14.1,-2.111)" />
    <rect id="tm-220" x="-14.25" y="-0.077" width="0.3" height="0.3" transform="rotate(180,-14.1,0.073)" />
    <rect id="tm-221" x="-10.897" y="-0.077" width="0.3" height="0.3" transform="rotate(180,-10.747,0.073)" />
    <rect id="tm-222" x="-10.897" y="-4.446" width="0.3" height="0.3" transform="rotate(180,-10.747,-4.296)" />
    <rect id="tm-223" x="-7.545" y="-4.446" width="0.3" height="0.3" transform="rotate(180,-7.395,-4.296)" />
    <rect id="tm-224" x="-7.545" y="-2.261" width="0.3" height="0.3" transform="rotate(180,-7.395,-2.111)" />
    <rect id="tm-225" x="-7.545" y="-0.077" width="0.3" height="0.3" transform="rotate(180,-7.395,0.073)" />
    <rect id="tm-226" x="-9.099" y="1.603" width="0.3" height="0.3" />
    <rect id="tm-227" x="-2.69" y="1.603" width="0.3" height="0.3" />
    <rect id="tm-228" x="3.719" y="1.603" width="0.3" height="0.3" />
    <rect id="tm-229" x="10.129" y="1.603" width="0.3" height="0.3" />
    <rect id="tm-230" x="-0.568" y="4.02" width="0.3" height="0.3" transform="rotate(180,-0.418,4.17)" />
    <rect id="tm-231" x="5.568" y="5.176" width="0.3" height="0.3" transform="rotate(90,5.718,5.326)" />
    <rect id="tm-232" x="5.568" y="6.471" width="0.3" height="0.3" transform="rotate(90,5.718,6.621)" />
    <rect id="tm-233" x="5.568" y="5.824" width="0.3" height="0.3" transform="rotate(90,5.718,5.974)" />
    <rect id="tm-234" x="15.776" y="5.854" width="0.3" height="0.3" transform="rotate(180,15.926,6.004)" />
    <rect id="tm-235" x="14.48" y="5.854" width="0.3" height="0.3" transform="rotate(180,14.63,6.004)" />
    <rect id="tm-236" x="15.128" y="5.854" width="0.3" height="0.3" transform="rotate(180,15.278,6.004)" />
    <rect id="tm-237" x="-8.869" y="5.854" width="0.3" height="0.3" transform="rotate(180,-8.719,6.004)" />
    <rect id="tm-238" x="-10.164" y="5.854" width="0.3" height="0.3" transform="rotate(180,-10.014,6.004)" />
    <rect id="tm-239" x="-9.516" y="5.854" width="0.3" height="0.3" transform="rotate(180,-9.366,6.004)" />
    <rect id="tm-240" x="1.83" y="4.993" width="0.3" height="0.3" transform="rotate(180,1.98,5.143)" />
    <rect id="tm-241" x="-2.69" y="-6.068" width="0.3" height="0.3" transform="rotate(180,-2.54,-5.918)" />
    <rect id="tm-242" x="12.575" y="-0.239" width="0.3" height="0.3" transform="rotate(120,12.725,-0.089)" />
    <rect id="tm-243" x="12.575" y="-5.217" width="0.3" height="0.3" transform="rotate(120,12.725,-5.067)" />
    <rect id="tm-244" x="15.128" y="-0.239" width="0.3" height="0.3" transform="rotate(120,15.278,-0.089)" />
    <rect id="tm-245" x="15.128" y="-5.217" width="0.3" height="0.3" transform="rotate(120,15.278,-5.067)" />
    <rect id="tm-246" x="-15.009" y="6.772" width="0.3" height="0.3" transform="rotate(240,-14.859,6.922)" />
    <rect id="tm-247" x="-15.009" y="11.963" width="0.3" height="0.3" transform="rotate(240,-14.859,12.113)" />
    <rect id="tm-248" x="-12.456" y="6.772" width="0.3" height="0.3" transform="rotate(240,-12.306,6.922)" />
    <rect id="tm-249" x="-12.456" y="11.963" width="0.3" height="0.3" transform="rotate(240,-12.306,12.113)" />
    <rect id="tm-250" x="-33.373" y="6.518" width="0.3" height="0.3" transform="rotate(240,-33.223,6.668)" />
    <rect id="tm-251" x="-33.373" y="11.963" width="0.3" height="0.3" transform="rotate(240,-33.223,12.113)" />
    <rect id="tm-252" x="-30.821" y="6.518" width="0.3" height="0.3" transform="rotate(240,-30.671,6.668)" />
    <rect id="tm-253" x="-30.821" y="11.963" width="0.3" height="0.3" transform="rotate(240,-30.671,12.113)" />
    <rect id="tm-613" x="-4.395" y="12.88" width="0.3" height="0.3" transform="rotate(180,-4.245,13.03)" />
    <rect id="tm-614" x="-3.503" y="8.638" width="0.3" height="0.3" transform="rotate(270,-3.353,8.788)" />
    <rect id="tm-615" x="-3.503" y="9.731" width="0.3" height="0.3" transform="rotate(270,-3.353,9.881)" />
    <rect id="tm-616" x="-3.503" y="10.838" width="0.3" height="0.3" transform="rotate(270,-3.353,10.988)" />
    <rect id="tm-617" x="-3.528" y="6.895" width="0.3" height="0.3" transform="rotate(180,-3.378,7.045)" />
    <rect id="tm-618" x="-4.824" y="6.895" width="0.3" height="0.3" transform="rotate(180,-4.674,7.045)" />
    <rect id="tm-619" x="-6.935" y="12.88" width="0.3" height="0.3" transform="rotate(180,-6.785,13.03)" />
    <rect id="tm-620" x="-10.386" y="4.044" width="0.3" height="0.3" transform="rotate(180,-10.236,4.194)" />
    <rect id="tm-621" x="-10.121" y="11.14" width="0.3" height="0.3" transform="rotate(240,-9.971,11.29)" />
    <rect id="tm-622" x="-10.121" y="7.381" width="0.3" height="0.3" transform="rotate(240,-9.971,7.531)" />
    <rect id="tm-623" x="-10.121" y="9.21" width="0.3" height="0.3" transform="rotate(240,-9.971,9.36)" />
    <rect id="tm-624" x="-10.324" y="9.21" width="0.3" height="0.3" transform="rotate(240,-10.174,9.36)" />
    <rect id="tm-625" x="2.822" y="9.605" width="0.3" height="0.3" transform="rotate(90,2.972,9.755)" />
    <rect id="tm-626" x="2.822" y="9.809" width="0.3" height="0.3" transform="rotate(90,2.972,9.959)" />
    <rect id="tm-627" x="4.907" y="9.605" width="0.3" height="0.3" transform="rotate(90,5.057,9.755)" />
    <rect id="tm-628" x="4.907" y="9.809" width="0.3" height="0.3" transform="rotate(90,5.057,9.959)" />
    <rect id="tm-629" x="6.937" y="9.809" width="0.3" height="0.3" transform="rotate(90,7.087,9.959)" />
    <rect id="tm-630" x="6.937" y="9.605" width="0.3" height="0.3" transform="rotate(90,7.087,9.755)" />
    <rect id="tm-631" x="9.098" y="9.809" width="0.3" height="0.3" transform="rotate(270,9.248,9.959)" />
    <rect id="tm-632" x="9.098" y="9.605" width="0.3" height="0.3" transform="rotate(90,9.248,9.755)" />
    <rect id="tm-633" x="1.732" y="12.88" width="0.3" height="0.3" transform="rotate(180,1.882,13.03)" />
    <rect id="tm-634" x="4.085" y="7.728" width="0.3" height="0.3" transform="rotate(240,4.235,7.878)" />
    <rect id="tm-635" x="4.085" y="4.282" width="0.3" height="0.3" transform="rotate(120,4.235,4.432)" />
    <rect id="tm-636" x="7.8" y="5.174" width="0.3" height="0.3" transform="rotate(180,7.95,5.324)" />
    <rect id="tm-637" x="13.961" y="6.855" width="0.3" height="0.3" transform="rotate(240,14.111,7.005)" />
    <rect id="tm-638" x="13.961" y="8.531" width="0.3" height="0.3" transform="rotate(240,14.111,8.681)" />
    <rect id="tm-639" x="13.961" y="9.903" width="0.3" height="0.3" transform="rotate(240,14.111,10.053)" />
    <rect id="tm-640" x="13.961" y="11.579" width="0.3" height="0.3" transform="rotate(240,14.111,11.729)" />
    <rect id="tm-641" x="14.249" y="4.044" width="0.3" height="0.3" transform="rotate(180,14.399,4.194)" />
    <rect id="tm-642" x="16.198" y="3.693" width="0.3" height="0.3" transform="rotate(120,16.348,3.843)" />
    <rect id="tm-643" x="13.385" y="12.88" width="0.3" height="0.3" transform="rotate(180,13.535,13.03)" />
    <rect id="tm-644" x="-29.608" y="-0.893" width="0.3" height="0.3" transform="rotate(107.017,-29.458,-0.743)" />
    <rect id="tm-645" x="-29.793" y="-0.809" width="0.3" height="0.3" transform="rotate(107.017,-29.643,-0.659)" />
    <rect id="tm-646" x="-30.704" y="1.449" width="0.3" height="0.3" transform="rotate(90,-30.554,1.599)" />
    <rect id="tm-647" x="-28.037" y="1.449" width="0.3" height="0.3" transform="rotate(90,-27.887,1.599)" />
    <rect id="tm-648" x="-26.348" y="3.114" width="0.3" height="0.3" transform="rotate(120,-26.198,3.264)" />
    <rect id="tm-649" x="-26.348" y="4.562" width="0.3" height="0.3" transform="rotate(120,-26.198,4.712)" />
    <rect id="tm-650" x="-26.145" y="3.844" width="0.3" height="0.3" transform="rotate(120,-25.995,3.994)" />
    <rect id="tm-651" x="-25.836" y="8.804" width="0.3" height="0.3" transform="rotate(120,-25.686,8.954)" />
    <rect id="tm-652" x="-25.632" y="8.169" width="0.3" height="0.3" transform="rotate(120,-25.482,8.319)" />
    <rect id="tm-653" x="-17.572" y="-0.737" width="0.3" height="0.3" transform="rotate(107.017,-17.422,-0.587)" />
    <rect id="tm-654" x="-17.757" y="-0.652" width="0.3" height="0.3" transform="rotate(107.017,-17.607,-0.502)" />
    <rect id="tm-655" x="-23.138" y="-0.652" width="0.3" height="0.3" transform="rotate(107.017,-22.988,-0.502)" />
    <rect id="tm-656" x="-22.953" y="-0.737" width="0.3" height="0.3" transform="rotate(107.017,-22.803,-0.587)" />
    <rect id="tm-657" x="-24.057" y="1.449" width="0.3" height="0.3" transform="rotate(180,-23.907,1.599)" />
    <rect id="tm-658" x="-21.06" y="1.449" width="0.3" height="0.3" transform="rotate(90,-20.91,1.599)" />
    <rect id="tm-659" x="-18.23" y="1.449" width="0.3" height="0.3" transform="rotate(90,-18.08,1.599)" />
    <rect id="tm-660" x="-19.098" y="3.114" width="0.3" height="0.3" transform="rotate(120,-18.948,3.264)" />
    <rect id="tm-661" x="-19.098" y="4.562" width="0.3" height="0.3" transform="rotate(120,-18.948,4.712)" />
    <rect id="tm-662" x="-18.895" y="3.843" width="0.3" height="0.3" transform="rotate(120,-18.745,3.993)" />
    <rect id="tm-663" x="-19.098" y="8.804" width="0.3" height="0.3" transform="rotate(120,-18.948,8.954)" />
    <rect id="tm-664" x="-18.895" y="8.168" width="0.3" height="0.3" transform="rotate(120,-18.745,8.318)" />
    <rect id="tm-665" x="-15.977" y="7.264" width="0.3" height="0.3" transform="rotate(120,-15.827,7.414)" />
    <rect id="tm-666" x="-15.977" y="5.938" width="0.3" height="0.3" transform="rotate(120,-15.827,6.088)" />
    <rect id="tm-667" x="-15.977" y="4.565" width="0.3" height="0.3" transform="rotate(120,-15.827,4.715)" />
    <rect id="tm-668" x="-15.977" y="3.244" width="0.3" height="0.3" transform="rotate(120,-15.827,3.394)" />
    <rect id="tm-669" x="-15.977" y="1.85" width="0.3" height="0.3" transform="rotate(120,-15.827,2)" />
    <rect id="tm-670" x="-18.057" y="9.348" width="0.3" height="0.3" transform="rotate(90,-17.907,9.498)" />
    <rect id="tm-671" x="-24.255" y="12.88" width="0.3" height="0.3" transform="rotate(180,-24.105,13.03)" />
    <rect id="tm-672" x="-17.905" y="12.88" width="0.3" height="0.3" transform="rotate(180,-17.755,13.03)" />
    <rect id="tm-673" x="-12.875" y="-7.991" width="0.3" height="0.3" transform="rotate(90,-12.725,-7.841)" />
    <rect id="tm-674" x="-8.608" y="-7.991" width="0.3" height="0.3" transform="rotate(180,-8.458,-7.841)" />
    <rect id="tm-675" x="-9.827" y="-7.991" width="0.3" height="0.3" transform="rotate(180,-9.677,-7.841)" />
    <rect id="tm-676" x="-11.656" y="-7.991" width="0.3" height="0.3" transform="rotate(90,-11.506,-7.841)" />
    <rect id="tm-677" x="-11.209" y="-6.792" width="0.3" height="0.3" transform="rotate(120,-11.059,-6.642)" />
    <rect id="tm-678" x="-11.209" y="-5.446" width="0.3" height="0.3" transform="rotate(120,-11.059,-5.296)" />
    <rect id="tm-679" x="-11.412" y="-5.446" width="0.3" height="0.3" transform="rotate(120,-11.262,-5.296)" />
    <rect id="tm-680" x="-11.412" y="-6.792" width="0.3" height="0.3" transform="rotate(120,-11.262,-6.642)" />
    <rect id="tm-681" x="-10.758" y="-2.182" width="0.3" height="0.3" transform="rotate(180,-10.608,-2.032)" />
    <rect id="tm-682" x="-8.135" y="-2.728" width="0.3" height="0.3" transform="rotate(240,-7.985,-2.578)" />
    <rect id="tm-683" x="-8.135" y="-1.331" width="0.3" height="0.3" transform="rotate(240,-7.985,-1.181)" />
    <rect id="tm-684" x="-13.66" y="-2.775" width="0.3" height="0.3" transform="rotate(240,-13.51,-2.625)" />
    <rect id="tm-685" x="-13.66" y="-1.186" width="0.3" height="0.3" transform="rotate(240,-13.51,-1.036)" />
    <rect id="tm-686" x="3.381" y="-7.991" width="0.3" height="0.3" transform="rotate(90,3.531,-7.841)" />
    <rect id="tm-687" x="7.648" y="-7.991" width="0.3" height="0.3" transform="rotate(180,7.798,-7.841)" />
    <rect id="tm-688" x="6.429" y="-7.991" width="0.3" height="0.3" transform="rotate(180,6.579,-7.841)" />
    <rect id="tm-689" x="4.6" y="-7.991" width="0.3" height="0.3" transform="rotate(90,4.75,-7.841)" />
    <rect id="tm-690" x="5.047" y="-6.792" width="0.3" height="0.3" transform="rotate(120,5.197,-6.642)" />
    <rect id="tm-691" x="5.047" y="-5.446" width="0.3" height="0.3" transform="rotate(120,5.197,-5.296)" />
    <rect id="tm-692" x="4.844" y="-5.446" width="0.3" height="0.3" transform="rotate(120,4.994,-5.296)" />
    <rect id="tm-693" x="4.844" y="-6.792" width="0.3" height="0.3" transform="rotate(120,4.994,-6.642)" />
    <rect id="tm-694" x="5.514" y="-2.195" width="0.3" height="0.3" transform="rotate(180,5.664,-2.045)" />
    <rect id="tm-695" x="8.121" y="-2.728" width="0.3" height="0.3" transform="rotate(240,8.271,-2.578)" />
    <rect id="tm-696" x="8.121" y="-1.331" width="0.3" height="0.3" transform="rotate(240,8.271,-1.181)" />
    <rect id="tm-697" x="2.596" y="-2.775" width="0.3" height="0.3" transform="rotate(240,2.746,-2.625)" />
    <rect id="tm-698" x="2.596" y="-1.186" width="0.3" height="0.3" transform="rotate(240,2.746,-1.036)" />
    <rect id="tm-699" x="10.06" y="-7.991" width="0.3" height="0.3" transform="rotate(180,10.21,-7.841)" />
    <rect id="tm-700" x="10.823" y="-9.652" width="0.3" height="0.3" transform="rotate(90,10.973,-9.502)" />
    <rect id="tm-701" x="18.728" y="-1.042" width="0.3" height="0.3" transform="rotate(180,18.878,-0.892)" />
    <rect id="tm-702" x="16.445" y="-7.722" width="0.3" height="0.3" transform="rotate(269.755,16.595,-7.572)" />
    <rect id="tm-703" x="14.323" y="-8.002" width="0.3" height="0.3" transform="rotate(269.755,14.473,-7.852)" />
    <rect id="tm-704" x="18.402" y="-7.465" width="0.3" height="0.3" transform="rotate(269.755,18.552,-7.315)" />
    <rect id="tm-705" x="19.36" y="-6.551" width="0.3" height="0.3" transform="rotate(120,19.51,-6.401)" />
    <rect id="tm-706" x="19.36" y="-5.243" width="0.3" height="0.3" transform="rotate(120,19.51,-5.093)" />
    <rect id="tm-707" x="19.36" y="-3.566" width="0.3" height="0.3" transform="rotate(120,19.51,-3.416)" />
    <rect id="tm-708" x="19.374" y="-8.74" width="0.3" height="0.3" transform="rotate(90.245,19.524,-8.59)" />
    <rect id="tm-709" x="-11.073" y="-5.096" width="0.3" height="0.3" transform="rotate(240,-10.923,-4.946)" />
    <rect id="tm-710" x="-10.87" y="-5.096" width="0.3" height="0.3" transform="rotate(240,-10.72,-4.946)" />
    <rect id="tm-711" x="-5.484" y="-9.018" width="0.3" height="0.3" transform="rotate(270,-5.334,-8.868)" />
    <rect id="tm-712" x="-5.94" y="-4.457" width="0.3" height="0.3" transform="rotate(90,-5.79,-4.307)" />
    <rect id="tm-713" x="-5.94" y="-4.457" width="0.3" height="0.3" transform="rotate(90,-5.79,-4.307)" />
    <rect id="tm-714" x="-5.94" y="-4.457" width="0.3" height="0.3" transform="rotate(90,-5.79,-4.307)" />
    <rect id="tm-715" x="-5.94" y="-4.457" width="0.3" height="0.3" transform="rotate(90,-5.79,-4.307)" />
    <rect id="tm-716" x="-13.258" y="-8.766" width="0.3" height="0.3" transform="rotate(270,-13.108,-8.616)" />
    <rect id="tm-717" x="-28.369" y="12.88" width="0.3" height="0.3" transform="rotate(180,-28.219,13.03)" />
    <rect id="tm-718" x="-21.867" y="12.88" width="0.3" height="0.3" transform="rotate(180,-21.717,13.03)" />
    <rect id="tm-719" x="-10.745" y="12.88" width="0.3" height="0.3" transform="rotate(180,-10.595,13.03)" />
    <rect id="tm-720" x="-0.585" y="12.88" width="0.3" height="0.3" transform="rotate(180,-0.435,13.03)" />
    <rect id="tm-721" x="9.575" y="12.88" width="0.3" height="0.3" transform="rotate(180,9.725,13.03)" />
    <rect id="tm-722" x="17.195" y="12.88" width="0.3" height="0.3" transform="rotate(180,17.345,13.03)" />
    <rect id="tm-723" x="15.698" y="-9.224" width="0.3" height="0.3" transform="rotate(90.245,15.848,-9.074)" />
    <rect id="tm-724" x="3.533" y="-9.652" width="0.3" height="0.3" transform="rotate(90,3.683,-9.502)" />
    <rect id="tm-725" x="0.104" y="-9.018" width="0.3" height="0.3" transform="rotate(90,0.254,-8.868)" />
    <rect id="tm-726" x="-12.86" y="-9.043" width="0.3" height="0.3" transform="rotate(90,-12.71,-8.893)" />
    <rect id="tm-727" x="-26.899" y="8.59" width="0.3" height="0.3" transform="rotate(211.4,-26.749,8.74)" />
    <rect id="tm-728" x="-27.311" y="7.133" width="0.3" height="0.3" transform="rotate(120,-27.161,7.283)" />
    <rect id="tm-729" x="-28.636" y="5.133" width="0.3" height="0.3" transform="rotate(90,-28.486,5.283)" />
    <rect id="tm-730" x="-30.251" y="5.133" width="0.3" height="0.3" transform="rotate(90,-30.101,5.283)" />
    <rect id="tm-731" x="-31.913" y="5.133" width="0.3" height="0.3" transform="rotate(90,-31.763,5.283)" />
    <rect id="tm-732" x="-33.071" y="4.786" width="0.3" height="0.3" transform="rotate(98.421,-32.921,4.936)" />
    <rect id="tm-733" x="-33.418" y="3.723" width="0.3" height="0.3" transform="rotate(120,-33.268,3.873)" />
    <rect id="tm-734" x="-33.418" y="2.13" width="0.3" height="0.3" transform="rotate(120,-33.268,2.28)" />
    <rect id="tm-735" x="-14.682" y="-6.491" width="0.3" height="0.3" transform="rotate(120,-14.532,-6.341)" />
    <rect id="tm-736" x="-14.682" y="-7.656" width="0.3" height="0.3" transform="rotate(120,-14.532,-7.506)" />
    <rect id="tm-737" x="-14.682" y="-5.319" width="0.3" height="0.3" transform="rotate(120,-14.532,-5.169)" />
    <rect id="tm-738" x="-13.714" y="-4.479" width="0.3" height="0.3" transform="rotate(90,-13.564,-4.329)" />
    <rect id="tm-739" x="-12.498" y="-4.479" width="0.3" height="0.3" transform="rotate(90,-12.348,-4.329)" />
    <rect id="tm-740" x="1.574" y="-7.387" width="0.3" height="0.3" transform="rotate(120,1.724,-7.237)" />
    <rect id="tm-741" x="1.574" y="-5.573" width="0.3" height="0.3" transform="rotate(120,1.724,-5.423)" />
    <rect id="tm-742" x="3.104" y="-4.479" width="0.3" height="0.3" transform="rotate(90,3.254,-4.329)" />
    <rect id="tm-743" x="15.956" y="-6.005" width="0.3" height="0.3" transform="rotate(120,16.106,-5.855)" />
    <rect id="tm-744" x="15.956" y="-4.328" width="0.3" height="0.3" transform="rotate(120,16.106,-4.178)" />
    <rect id="tm-745" x="17.404" y="-3.617" width="0.3" height="0.3" transform="rotate(90,17.554,-3.467)" />
    <rect id="tm-746" x="16.843" y="6.241" width="0.3" height="0.3" transform="rotate(270,16.993,6.391)" />
    <rect id="tm-747" x="18.425" y="6.672" width="0.3" height="0.3" transform="rotate(211.4,18.575,6.822)" />
    <rect id="tm-748" x="18.773" y="7.831" width="0.3" height="0.3" transform="rotate(244.231,18.923,7.981)" />
    <rect id="tm-749" x="18.334" y="11.169" width="0.3" height="0.3" transform="rotate(244.231,18.484,11.319)" />
    <rect id="tm-750" x="18.55" y="9.525" width="0.3" height="0.3" transform="rotate(244.231,18.7,9.675)" />
    <rect id="tm-751" x="9.619" y="7.718" width="0.3" height="0.3" transform="rotate(180,9.769,7.868)" />
    <rect id="tm-752" x="10.849" y="8.039" width="0.3" height="0.3" transform="rotate(98.421,10.999,8.189)" />
    <rect id="tm-753" x="11.17" y="9.136" width="0.3" height="0.3" transform="rotate(240,11.32,9.286)" />
    <rect id="tm-754" x="11.17" y="10.681" width="0.3" height="0.3" transform="rotate(240,11.32,10.831)" />
    <rect id="tm-755" x="-2.233" y="8.97" width="0.3" height="0.3" transform="rotate(180,-2.083,9.12)" />
    <rect id="tm-756" x="-0.277" y="8.97" width="0.3" height="0.3" transform="rotate(180,-0.127,9.12)" />
    <rect id="tm-757" x="-8.419" y="6.899" width="0.3" height="0.3" transform="rotate(180,-8.269,7.049)" />
    <rect id="tm-758" x="-7.225" y="7.617" width="0.3" height="0.3" transform="rotate(240,-7.075,7.767)" />
    <rect id="tm-759" x="-7.225" y="11.115" width="0.3" height="0.3" transform="rotate(240,-7.075,11.265)" />
    <rect id="tm-760" x="-7.225" y="9.402" width="0.3" height="0.3" transform="rotate(240,-7.075,9.552)" />
    <rect id="tm-761" x="-7.825" y="-5.45" width="0.3" height="0.3" transform="rotate(240,-7.675,-5.3)" />
    <rect id="tm-762" x="-7.822" y="2.889" width="0.3" height="0.3" transform="rotate(120,-7.672,3.039)" />
    <rect id="tm-763" x="-7.822" y="4.52" width="0.3" height="0.3" transform="rotate(120,-7.672,4.67)" />
    <rect id="tm-764" x="-7.822" y="1.285" width="0.3" height="0.3" transform="rotate(120,-7.672,1.435)" />
    <rect id="tm-968" x="-16.635" y="12.88" width="0.3" height="0.3" transform="rotate(180,-16.485,13.03)" />
    <rect id="tm-969" x="15.925" y="12.88" width="0.3" height="0.3" transform="rotate(180,16.075,13.03)" />
    <rect id="tm-970" x="-9.613" y="12.88" width="0.3" height="0.3" transform="rotate(180,-9.463,13.03)" />
    <rect id="tm-971" x="5.765" y="12.88" width="0.3" height="0.3" transform="rotate(180,5.915,13.03)" />
    <rect id="tm-972" x="-6.994" y="-9.043" width="0.3" height="0.3" transform="rotate(90,-6.844,-8.893)" />
    <rect id="tm-973" x="-6.994" y="-9.043" width="0.3" height="0.3" transform="rotate(90,-6.844,-8.893)" />
    <rect id="tm-974" x="5.26" y="-9.652" width="0.3" height="0.3" transform="rotate(270,5.41,-9.502)" />
    <rect id="tm-975" x="17.627" y="-8.97" width="0.3" height="0.3" transform="rotate(90.245,17.777,-8.82)" />
    <rect id="tm-1416" x="-8.561" y="-3.408" width="0.3" height="0.3" transform="rotate(90,-8.411,-3.258)" />
    <rect id="tm-1417" x="7.695" y="-3.408" width="0.3" height="0.3" transform="rotate(90,7.845,-3.258)" />
    <rect id="tm-1418" x="-8.561" y="-2.112" width="0.3" height="0.3" transform="rotate(90,-8.411,-1.962)" />
    <rect id="tm-1419" x="-8.561" y="-2.76" width="0.3" height="0.3" transform="rotate(90,-8.411,-2.61)" />
    <rect id="tm-1420" x="7.695" y="-2.112" width="0.3" height="0.3" transform="rotate(90,7.845,-1.962)" />
    <rect id="tm-1421" x="7.695" y="-2.76" width="0.3" height="0.3" transform="rotate(90,7.845,-2.61)" />
    <rect id="tm-1422" x="-14.25" y="-4.446" width="0.3" height="0.3" transform="rotate(180,-14.1,-4.296)" />
    <rect id="tm-1423" x="-14.25" y="-2.261" width="0.3" height="0.3" transform="rotate(180,-14.1,-2.111)" />
    <rect id="tm-1424" x="-14.25" y="-0.077" width="0.3" height="0.3" transform="rotate(180,-14.1,0.073)" />
    <rect id="tm-1425" x="-10.897" y="-0.077" width="0.3" height="0.3" transform="rotate(180,-10.747,0.073)" />
    <rect id="tm-1426" x="-10.897" y="-4.446" width="0.3" height="0.3" transform="rotate(180,-10.747,-4.296)" />
    <rect id="tm-1427" x="-7.545" y="-4.446" width="0.3" height="0.3" transform="rotate(180,-7.395,-4.296)" />
    <rect id="tm-1428" x="-7.545" y="-2.261" width="0.3" height="0.3" transform="rotate(180,-7.395,-2.111)" />
    <rect id="tm-1429" x="-7.545" y="-0.077" width="0.3" height="0.3" transform="rotate(180,-7.395,0.073)" />
    <rect id="tm-1430" x="-9.099" y="1.603" width="0.3" height="0.3" />
    <rect id="tm-1431" x="-2.69" y="1.603" width="0.3" height="0.3" />
    <rect id="tm-1432" x="3.719" y="1.603" width="0.3" height="0.3" />
    <rect id="tm-1433" x="10.129" y="1.603" width="0.3" height="0.3" />
    <rect id="tm-1434" x="-0.568" y="4.02" width="0.3" height="0.3" transform="rotate(180,-0.418,4.17)" />
    <rect id="tm-1435" x="5.568" y="5.176" width="0.3" height="0.3" transform="rotate(90,5.718,5.326)" />
    <rect id="tm-1436" x="5.568" y="6.471" width="0.3" height="0.3" transform="rotate(90,5.718,6.621)" />
    <rect id="tm-1437" x="5.568" y="5.824" width="0.3" height="0.3" transform="rotate(90,5.718,5.974)" />
    <rect id="tm-1438" x="15.776" y="5.854" width="0.3" height="0.3" transform="rotate(180,15.926,6.004)" />
    <rect id="tm-1439" x="14.48" y="5.854" width="0.3" height="0.3" transform="rotate(180,14.63,6.004)" />
    <rect id="tm-1440" x="15.128" y="5.854" width="0.3" height="0.3" transform="rotate(180,15.278,6.004)" />
    <rect id="tm-1441" x="-8.869" y="5.854" width="0.3" height="0.3" transform="rotate(180,-8.719,6.004)" />
    <rect id="tm-1442" x="-10.164" y="5.854" width="0.3" height="0.3" transform="rotate(180,-10.014,6.004)" />
    <rect id="tm-1443" x="-9.516" y="5.854" width="0.3" height="0.3" transform="rotate(180,-9.366,6.004)" />
    <rect id="tm-1444" x="1.83" y="4.993" width="0.3" height="0.3" transform="rotate(180,1.98,5.143)" />
    <rect id="tm-1445" x="-2.69" y="-6.068" width="0.3" height="0.3" transform="rotate(180,-2.54,-5.918)" />
    <rect id="tm-1446" x="12.575" y="-0.239" width="0.3" height="0.3" transform="rotate(120,12.725,-0.089)" />
    <rect id="tm-1447" x="12.575" y="-5.217" width="0.3" height="0.3" transform="rotate(120,12.725,-5.067)" />
    <rect id="tm-1448" x="15.128" y="-0.239" width="0.3" height="0.3" transform="rotate(120,15.278,-0.089)" />
    <rect id="tm-1449" x="15.128" y="-5.217" width="0.3" height="0.3" transform="rotate(120,15.278,-5.067)" />
    <rect id="tm-1450" x="-15.009" y="6.772" width="0.3" height="0.3" transform="rotate(240,-14.859,6.922)" />
    <rect id="tm-1451" x="-15.009" y="11.963" width="0.3" height="0.3" transform="rotate(240,-14.859,12.113)" />
    <rect id="tm-1452" x="-12.456" y="6.772" width="0.3" height="0.3" transform="rotate(240,-12.306,6.922)" />
    <rect id="tm-1453" x="-12.456" y="11.963" width="0.3" height="0.3" transform="rotate(240,-12.306,12.113)" />
    <rect id="tm-1454" x="-33.373" y="6.518" width="0.3" height="0.3" transform="rotate(240,-33.223,6.668)" />
    <rect id="tm-1455" x="-33.373" y="11.963" width="0.3" height="0.3" transform="rotate(240,-33.223,12.113)" />
    <rect id="tm-1456" x="-30.821" y="6.518" width="0.3" height="0.3" transform="rotate(240,-30.671,6.668)" />
    <rect id="tm-1457" x="-30.821" y="11.963" width="0.3" height="0.3" transform="rotate(240,-30.671,12.113)" />
    <rect id="tm-1458" x="-8.869" y="3.284" width="0.3" height="0.3" transform="rotate(180,-8.719,3.434)" />
    <rect id="tm-1459" x="-10.701" y="5.016" width="0.3" height="0.3" transform="rotate(180,-10.551,5.166)" />
    <rect id="tm-1460" x="-10.701" y="3.054" width="0.3" height="0.3" transform="rotate(180,-10.551,3.204)" />
    <rect id="tm-1461" x="-11.615" y="4.027" width="0.3" height="0.3" transform="rotate(180,-11.465,4.177)" />
    <rect id="tm-1462" x="-11.307" y="-1.217" width="0.3" height="0.3" transform="rotate(180,-11.157,-1.067)" />
    <rect id="tm-1463" x="-9.456" y="-2.182" width="0.3" height="0.3" transform="rotate(180,-9.306,-2.032)" />
    <rect id="tm-1464" x="-13.329" y="-3.019" width="0.3" height="0.3" transform="rotate(180,-13.179,-2.869)" />
    <rect id="tm-1465" x="-13.329" y="-1.496" width="0.3" height="0.3" transform="rotate(180,-13.179,-1.346)" />
    <rect id="tm-1466" x="-9.456" y="-1.129" width="0.3" height="0.3" transform="rotate(180,-9.306,-0.979)" />
    <rect id="tm-1467" x="-9.456" y="-3.217" width="0.3" height="0.3" transform="rotate(180,-9.306,-3.067)" />
    <rect id="tm-1468" x="17.554" y="-1.134" width="0.3" height="0.3" transform="rotate(180,17.704,-0.984)" />
    <rect id="tm-1469" x="17.554" y="-0.017" width="0.3" height="0.3" transform="rotate(180,17.704,0.133)" />
    <rect id="tm-1470" x="-4.544" y="11.039" width="0.3" height="0.3" transform="rotate(180,-4.394,11.189)" />
    <rect id="tm-1471" x="-0.887" y="11.039" width="0.3" height="0.3" transform="rotate(180,-0.737,11.189)" />
    <rect id="tm-1472" x="-4.544" y="7.226" width="0.3" height="0.3" transform="rotate(180,-4.394,7.376)" />
    <rect id="tm-1473" x="-3.401" y="3.698" width="0.3" height="0.3" transform="rotate(180,-3.251,3.848)" />
    <rect id="tm-1474" x="-4.824" y="3.698" width="0.3" height="0.3" transform="rotate(180,-4.674,3.848)" />
    <rect id="tm-1475" x="-29.246" y="11.496" width="0.3" height="0.3" transform="rotate(180,-29.096,11.646)" />
    <rect id="tm-1476" x="17.189" y="-2.83" width="0.3" height="0.3" />
    <rect id="tm-1477" x="18.485" y="-2.83" width="0.3" height="0.3" />
    <rect id="tm-1478" x="17.837" y="-2.83" width="0.3" height="0.3" />
    <rect id="tm-1479" x="16.792" y="-5.954" width="0.3" height="0.3" transform="rotate(180,16.942,-5.804)" />
    <rect id="tm-1480" x="19.84" y="-5.954" width="0.3" height="0.3" transform="rotate(180,19.99,-5.804)" />
    <rect id="tm-1481" x="16.131" y="-1.042" width="0.3" height="0.3" transform="rotate(180,16.281,-0.892)" />
    <rect id="tm-1482" x="9.527" y="-2.5" width="0.3" height="0.3" transform="rotate(180,9.677,-2.35)" />
    <rect id="tm-1483" x="9.527" y="-5.243" width="0.3" height="0.3" transform="rotate(180,9.677,-5.093)" />
    <rect id="tm-1484" x="1.857" y="-5.243" width="0.3" height="0.3" transform="rotate(180,2.007,-5.093)" />
    <rect id="tm-1485" x="6.124" y="-5.243" width="0.3" height="0.3" transform="rotate(180,6.274,-5.093)" />
    <rect id="tm-1486" x="1.857" y="-2.22" width="0.3" height="0.3" transform="rotate(180,2.007,-2.07)" />
    <rect id="tm-1487" x="1.857" y="-0.087" width="0.3" height="0.3" transform="rotate(180,2.007,0.063)" />
    <rect id="tm-1488" x="6.073" y="-0.087" width="0.3" height="0.3" transform="rotate(180,6.223,0.063)" />
    <rect id="tm-1489" x="9.527" y="-0.087" width="0.3" height="0.3" transform="rotate(180,9.677,0.063)" />
    <rect id="tm-1490" x="14.861" y="7.492" width="0.3" height="0.3" transform="rotate(180,15.011,7.642)" />
    <rect id="tm-1491" x="17.3" y="7.492" width="0.3" height="0.3" transform="rotate(180,17.45,7.642)" />
    <rect id="tm-1492" x="18.367" y="4.027" width="0.3" height="0.3" transform="rotate(180,18.517,4.177)" />
    <rect id="tm-1493" x="9.612" y="12.56" width="0.3" height="0.3" transform="rotate(90,9.762,12.71)" />
    <rect id="tm-1494" x="4.125" y="12.56" width="0.3" height="0.3" transform="rotate(90,4.275,12.71)" />
    <rect id="tm-1495" x="5.822" y="5.603" width="0.3" height="0.3" transform="rotate(240,5.972,5.753)" />
    <rect id="tm-1496" x="5.822" y="4.308" width="0.3" height="0.3" transform="rotate(240,5.972,4.458)" />
    <rect id="tm-1497" x="2.723" y="4.943" width="0.3" height="0.3" transform="rotate(120,2.873,5.093)" />
    <rect id="tm-1498" x="5.54" y="3.739" width="0.3" height="0.3" transform="rotate(90,5.69,3.889)" />
    <rect id="tm-1499" x="9.273" y="3.739" width="0.3" height="0.3" transform="rotate(90,9.423,3.889)" />
    <rect id="tm-1500" x="10.239" y="6.889" width="0.3" height="0.3" transform="rotate(180,10.389,7.039)" />
    <rect id="tm-1501" x="7.546" y="6.635" width="0.3" height="0.3" transform="rotate(180,7.696,6.785)" />
    <rect id="tm-1502" x="9.163" y="6.635" width="0.3" height="0.3" transform="rotate(180,9.313,6.785)" />
    <rect id="tm-1503" x="9.804" y="4.247" width="0.3" height="0.3" transform="rotate(240,9.954,4.397)" />
    <rect id="tm-1504" x="2.568" y="5.12" width="0.3" height="0.3" transform="rotate(240,2.718,5.27)" />
    <rect id="tm-1505" x="12.274" y="7.533" width="0.3" height="0.3" transform="rotate(240,12.424,7.683)" />
    <rect id="tm-1506" x="12.274" y="10.581" width="0.3" height="0.3" transform="rotate(240,12.424,10.731)" />
    <rect id="tm-1507" x="1.091" y="9.896" width="0.3" height="0.3" transform="rotate(120,1.241,10.046)" />
    <rect id="tm-1508" x="9.988" y="6.314" width="0.3" height="0.3" transform="rotate(120,10.138,6.464)" />
    <rect id="tm-1509" x="5.822" y="5.044" width="0.3" height="0.3" transform="rotate(240,5.972,5.194)" />
    <rect id="tm-1510" x="9.216" y="2.517" width="0.3" height="0.3" transform="rotate(90,9.366,2.667)" />
    <rect id="tm-1511" x="3.085" y="2.517" width="0.3" height="0.3" transform="rotate(90,3.235,2.667)" />
    <rect id="tm-1512" x="16.069" y="12.56" width="0.3" height="0.3" transform="rotate(90,16.219,12.71)" />
    <rect id="tm-1513" x="4.193" y="12.88" width="0.3" height="0.3" transform="rotate(180,4.343,13.03)" />
    <rect id="tm-1514" x="-19.124" y="12.88" width="0.3" height="0.3" transform="rotate(180,-18.974,13.03)" />
    <rect id="tm-1515" x="-12.072" y="3.063" width="0.3" height="0.3" transform="rotate(120,-11.922,3.213)" />
    <rect id="tm-1516" x="12.572" y="3.088" width="0.3" height="0.3" transform="rotate(120,12.722,3.238)" />
    <rect id="tm-1517" x="15.293" y="3.012" width="0.3" height="0.3" transform="rotate(240,15.443,3.162)" />
    <rect id="tm-1518" x="12.572" y="10.658" width="0.3" height="0.3" transform="rotate(120,12.722,10.808)" />
    <rect id="tm-1519" x="12.572" y="7.686" width="0.3" height="0.3" transform="rotate(120,12.722,7.836)" />
    <rect id="tm-1520" x="19.138" y="9.133" width="0.3" height="0.3" transform="rotate(244.231,19.288,9.283)" />
    <rect id="tm-1521" x="19.906" y="3.297" width="0.3" height="0.3" transform="rotate(244.231,20.056,3.447)" />
    <rect id="tm-1522" x="12.575" y="-7.478" width="0.3" height="0.3" transform="rotate(120,12.725,-7.328)" />
    <rect id="tm-1523" x="21.117" y="-5.899" width="0.3" height="0.3" transform="rotate(244.231,21.267,-5.749)" />
    <rect id="tm-1524" x="15.512" y="-4.633" width="0.3" height="0.3" transform="rotate(120,15.662,-4.483)" />
    <rect id="tm-1525" x="15.648" y="-8.726" width="0.3" height="0.3" transform="rotate(185.301,15.798,-8.576)" />
    <rect id="tm-1526" x="17.554" y="0.206" width="0.3" height="0.3" transform="rotate(120,17.704,0.356)" />
    <rect id="tm-1527" x="20.349" y="-0.066" width="0.3" height="0.3" transform="rotate(244.231,20.499,0.084)" />
    <rect id="tm-1528" x="18.499" y="-2.579" width="0.3" height="0.3" transform="rotate(90,18.649,-2.429)" />
    <rect id="tm-1529" x="17.904" y="-2.579" width="0.3" height="0.3" transform="rotate(90,18.054,-2.429)" />
    <rect id="tm-1530" x="19.172" y="-2.579" width="0.3" height="0.3" transform="rotate(90,19.322,-2.429)" />
    <rect id="tm-1531" x="7.441" y="-2.042" width="0.3" height="0.3" transform="rotate(120,7.591,-1.892)" />
    <rect id="tm-1532" x="7.441" y="-1.433" width="0.3" height="0.3" transform="rotate(120,7.591,-1.283)" />
    <rect id="tm-1533" x="7.441" y="-2.703" width="0.3" height="0.3" transform="rotate(120,7.591,-2.553)" />
    <rect id="tm-1534" x="3.46" y="-1.204" width="0.3" height="0.3" transform="rotate(120,3.61,-1.054)" />
    <rect id="tm-1535" x="6.022" y="-3.398" width="0.3" height="0.3" transform="rotate(180,6.172,-3.248)" />
    <rect id="tm-1536" x="4.528" y="-3.398" width="0.3" height="0.3" transform="rotate(180,4.678,-3.248)" />
    <rect id="tm-1537" x="1.091" y="-6.005" width="0.3" height="0.3" transform="rotate(120,1.241,-5.855)" />
    <rect id="tm-1538" x="1.091" y="-1.611" width="0.3" height="0.3" transform="rotate(120,1.241,-1.461)" />
    <rect id="tm-1539" x="12.277" y="-7.478" width="0.3" height="0.3" transform="rotate(240,12.427,-7.328)" />
    <rect id="tm-1540" x="12.191" y="-3.109" width="0.3" height="0.3" transform="rotate(240,12.341,-2.959)" />
    <rect id="tm-1541" x="3.99" y="0.533" width="0.3" height="0.3" transform="rotate(90,4.14,0.683)" />
    <rect id="tm-1542" x="10.289" y="0.533" width="0.3" height="0.3" transform="rotate(90,10.439,0.683)" />
    <rect id="tm-1543" x="3.276" y="-2.982" width="0.3" height="0.3" transform="rotate(240,3.426,-2.832)" />
    <rect id="tm-1544" x="6.835" y="-8.535" width="0.3" height="0.3" transform="rotate(240,6.985,-8.385)" />
    <rect id="tm-1545" x="-6.471" y="9.591" width="0.3" height="0.3" transform="rotate(240,-6.321,9.741)" />
    <rect id="tm-1546" x="-6.471" y="7.534" width="0.3" height="0.3" transform="rotate(240,-6.321,7.684)" />
    <rect id="tm-1547" x="-12.072" y="10.963" width="0.3" height="0.3" transform="rotate(120,-11.922,11.113)" />
    <rect id="tm-1548" x="-12.072" y="7.838" width="0.3" height="0.3" transform="rotate(120,-11.922,7.988)" />
    <rect id="tm-1549" x="-9.497" y="12.56" width="0.3" height="0.3" transform="rotate(90,-9.347,12.71)" />
    <rect id="tm-1550" x="-6.471" y="4.028" width="0.3" height="0.3" transform="rotate(240,-6.321,4.178)" />
    <rect id="tm-1551" x="-11.68" y="5.6" width="0.3" height="0.3" transform="rotate(180,-11.53,5.75)" />
    <rect id="tm-1552" x="-10.256" y="5.6" width="0.3" height="0.3" transform="rotate(180,-10.106,5.75)" />
    <rect id="tm-1553" x="-9.587" y="5.6" width="0.3" height="0.3" transform="rotate(180,-9.437,5.75)" />
    <rect id="tm-1554" x="-9.351" y="3.114" width="0.3" height="0.3" transform="rotate(240,-9.201,3.264)" />
    <rect id="tm-1555" x="-8.815" y="-2.068" width="0.3" height="0.3" transform="rotate(120,-8.665,-1.918)" />
    <rect id="tm-1556" x="-8.815" y="-1.414" width="0.3" height="0.3" transform="rotate(120,-8.665,-1.264)" />
    <rect id="tm-1557" x="-8.815" y="-2.696" width="0.3" height="0.3" transform="rotate(120,-8.665,-2.546)" />
    <rect id="tm-1558" x="-15.111" y="-6.199" width="0.3" height="0.3" transform="rotate(240,-14.961,-6.049)" />
    <rect id="tm-1559" x="-6.471" y="-6.157" width="0.3" height="0.3" transform="rotate(240,-6.321,-6.007)" />
    <rect id="tm-1560" x="-6.471" y="-2.068" width="0.3" height="0.3" transform="rotate(240,-6.321,-1.918)" />
    <rect id="tm-1561" x="-15.095" y="-1.763" width="0.3" height="0.3" transform="rotate(120,-14.945,-1.613)" />
    <rect id="tm-1562" x="-12.98" y="-2.957" width="0.3" height="0.3" transform="rotate(240,-12.83,-2.807)" />
    <rect id="tm-1563" x="-11.986" y="0.533" width="0.3" height="0.3" transform="rotate(90,-11.836,0.683)" />
    <rect id="tm-1564" x="-12.796" y="-1.23" width="0.3" height="0.3" transform="rotate(120,-12.646,-1.08)" />
    <rect id="tm-1565" x="-10.716" y="-8.569" width="0.3" height="0.3" transform="rotate(180,-10.566,-8.419)" />
    <rect id="tm-1566" x="-11.758" y="-3.398" width="0.3" height="0.3" transform="rotate(180,-11.608,-3.248)" />
    <rect id="tm-1567" x="-10.183" y="-3.398" width="0.3" height="0.3" transform="rotate(180,-10.033,-3.248)" />
    <rect id="tm-1568" x="-15.393" y="10.201" width="0.3" height="0.3" transform="rotate(240,-15.243,10.351)" />
    <rect id="tm-1569" x="-15.393" y="7.076" width="0.3" height="0.3" transform="rotate(240,-15.243,7.226)" />
    <rect id="tm-1570" x="-17.854" y="12.56" width="0.3" height="0.3" transform="rotate(90,-17.704,12.71)" />
    <rect id="tm-1571" x="-22.172" y="12.56" width="0.3" height="0.3" transform="rotate(90,-22.022,12.71)" />
    <rect id="tm-1572" x="-25.982" y="12.56" width="0.3" height="0.3" transform="rotate(90,-25.832,12.71)" />
    <rect id="tm-1573" x="-27.614" y="8.905" width="0.3" height="0.3" transform="rotate(120,-27.464,9.055)" />
    <rect id="tm-1574" x="-33.789" y="4.181" width="0.3" height="0.3" transform="rotate(120,-33.639,4.331)" />
    <rect id="tm-1575" x="-33.789" y="1.933" width="0.3" height="0.3" transform="rotate(120,-33.639,2.083)" />
    <rect id="tm-1576" x="-28.251" y="-1.524" width="0.3" height="0.3" transform="rotate(224.981,-28.101,-1.374)" />
    <rect id="tm-1577" x="-21.569" y="-1.317" width="0.3" height="0.3" transform="rotate(224.981,-21.419,-1.167)" />
    <rect id="tm-1578" x="-32.672" y="-0.826" width="0.3" height="0.3" transform="rotate(107.018,-32.522,-0.676)" />
    <rect id="tm-1579" x="-26.047" y="-0.745" width="0.3" height="0.3" transform="rotate(107.018,-25.897,-0.595)" />
    <rect id="tm-1580" x="-19.462" y="-0.751" width="0.3" height="0.3" transform="rotate(107.018,-19.312,-0.601)" />
    <rect id="tm-1581" x="-15.393" y="-1.001" width="0.3" height="0.3" transform="rotate(240,-15.243,-0.851)" />
    <rect id="tm-1582" x="-17.814" y="-2.437" width="0.3" height="0.3" transform="rotate(162.743,-17.664,-2.287)" />
    <rect id="tm-1583" x="-24.472" y="-2.417" width="0.3" height="0.3" transform="rotate(162.743,-24.322,-2.267)" />
    <rect id="tm-1584" x="-31.074" y="-2.424" width="0.3" height="0.3" transform="rotate(162.743,-30.924,-2.274)" />
    <rect id="tm-1585" x="-15.393" y="3.571" width="0.3" height="0.3" transform="rotate(240,-15.243,3.721)" />
    <rect id="tm-1586" x="-30.347" y="11.318" width="0.3" height="0.3" transform="rotate(120,-30.197,11.468)" />
    <rect id="tm-1587" x="-6.173" y="6.924" width="0.3" height="0.3" transform="rotate(120,-6.023,7.074)" />
    <rect id="tm-1588" x="-4.493" y="4.625" width="0.3" height="0.3" transform="rotate(180,-4.343,4.775)" />
    <rect id="tm-1589" x="-2.084" y="6.924" width="0.3" height="0.3" transform="rotate(240,-1.934,7.074)" />
    <rect id="tm-1590" x="-2.969" y="2.673" width="0.3" height="0.3" transform="rotate(180,-2.819,2.823)" />
    <rect id="tm-1591" x="15.312" y="2.517" width="0.3" height="0.3" transform="rotate(90,15.462,2.667)" />
    <rect id="tm-1592" x="-3.011" y="2.517" width="0.3" height="0.3" transform="rotate(90,-2.861,2.667)" />
    <rect id="tm-1593" x="-9.107" y="2.517" width="0.3" height="0.3" transform="rotate(90,-8.957,2.667)" />
    <rect id="tm-1594" x="-27.829" y="5.705" width="0.3" height="0.3" transform="rotate(180,-27.679,5.855)" />
    <rect id="tm-1595" x="-21.485" y="5.705" width="0.3" height="0.3" transform="rotate(180,-21.335,5.855)" />
    <rect id="tm-1596" x="13.806" y="5.6" width="0.3" height="0.3" transform="rotate(180,13.956,5.75)" />
    <rect id="tm-1597" x="15.052" y="5.6" width="0.3" height="0.3" transform="rotate(180,15.202,5.75)" />
    <rect id="tm-1598" x="14.415" y="5.6" width="0.3" height="0.3" transform="rotate(180,14.565,5.75)" />
    <rect id="tm-1599" x="-30.347" y="12.233" width="0.3" height="0.3" transform="rotate(120,-30.197,12.383)" />
    <rect id="tm-1600" x="9.426" y="6.451" width="0.3" height="0.3" transform="rotate(90,9.576,6.601)" />
    <rect id="tm-1601" x="7.534" y="6.432" width="0.3" height="0.3" transform="rotate(270,7.684,6.582)" />
    <rect id="tm-1602" x="-15.393" y="11.572" width="0.3" height="0.3" transform="rotate(240,-15.243,11.722)" />
    <rect id="tm-1603" x="-9.156" y="2.864" width="0.3" height="0.3" transform="rotate(120,-9.006,3.014)" />
    <rect id="tm-1604" x="6.733" y="4.441" width="0.3" height="0.3" transform="rotate(90,6.883,4.591)" />
    <rect id="tm-1605" x="15.488" y="3.012" width="0.3" height="0.3" transform="rotate(120,15.638,3.162)" />
    <rect id="tm-1606" x="17.356" y="0.129" width="0.3" height="0.3" transform="rotate(240,17.506,0.279)" />
    <rect id="tm-1607" x="7.165" y="-1.449" width="0.3" height="0.3" transform="rotate(180,7.315,-1.299)" />
    <rect id="tm-1608" x="-9.065" y="-1.449" width="0.3" height="0.3" transform="rotate(180,-8.915,-1.299)" />
  </g>
</svg>