<?xml version="1.0" encoding="utf-8"?>
<svg xmlns="http://www.w3.org/2000/svg" viewBox="-34.937 -13.982 57.806 24.417">
  <g transform="scale(1,-1)">
    <path id="w-56" d="M 12.573,0.724 L 12.573,-6.134" />
    <path id="w-453" d="M -12.03,2.745 L -1.856,2.745" />
    <path id="w-454" d="M -6.172,0.76 L -15.094,0.76" />
    <path id="w-455" d="M 1.092,0.76 L 12.381,0.76" />
    <path id="w-456" d="M 15.623,0.76 L 20.581,0.76" />
    <path id="w-457" d="M -1.856,5.674 L -1.856,2.745" />
    <path id="w-458" d="M 1.092,2.745 L 17.127,2.745" />
    <path id="w-459" d="M -13.491,-0.598 L -12.738,-0.598" />
    <path id="w-460" d="M -12.738,-3.624 L -12.738,-0.629" />
    <path id="w-461" d="M -8.757,-3.37 L -9.825,-3.37" />
    <path id="w-462" d="M -8.726,-0.598 L -8.726,-1.36" />
    <path id="w-463" d="M -13.491,-3.624 L -12.738,-3.624" />
    <path id="w-464" d="M -9.825,-1.36 L -8.726,-1.36" />
    <path id="w-465" d="M -8.757,-3.624 L -8.004,-3.624" />
    <path id="w-466" d="M -9.825,-3.34 L -9.825,-2.734" />
    <path id="w-467" d="M -12.738,-1.535 L -11.935,-1.535" />
    <path id="w-468" d="M -8.726,-0.598 L -8.004,-0.598" />
    <path id="w-469" d="M -9.825,-0.598 L -8.726,-0.598" />
    <path id="w-470" d="M 2.765,-0.598 L 3.518,-0.598" />
    <path id="w-471" d="M 3.518,-3.624 L 3.518,-0.629" />
    <path id="w-472" d="M 7.499,-3.37 L 6.431,-3.37" />
    <path id="w-473" d="M 7.53,-0.598 L 7.53,-1.36" />
    <path id="w-474" d="M 2.765,-3.624 L 3.518,-3.624" />
    <path id="w-475" d="M 6.431,-1.36 L 7.53,-1.36" />
    <path id="w-476" d="M 7.499,-3.624 L 8.252,-3.624" />
    <path id="w-477" d="M 6.431,-3.34 L 6.431,-2.734" />
    <path id="w-478" d="M 3.518,-1.535 L 4.321,-1.535" />
    <path id="w-479" d="M 7.53,-0.598 L 8.252,-0.598" />
    <path id="w-480" d="M 6.431,-0.598 L 7.53,-0.598" />
    <path id="w-481" d="M 10.798,3.951 L 10.046,3.951" />
    <path id="w-482" d="M 10.046,6.977 L 10.046,3.981" />
    <path id="w-483" d="M 6.064,6.723 L 7.45,6.723" />
    <path id="w-484" d="M 6.034,3.951 L 6.034,4.653" />
    <path id="w-485" d="M 10.798,6.977 L 10.046,6.977" />
    <path id="w-486" d="M 7.133,3.981 L 7.133,4.653" />
    <path id="w-487" d="M 7.133,4.653 L 6.034,4.653" />
    <path id="w-488" d="M 6.064,6.977 L 5.312,6.977" />
    <path id="w-489" d="M 7.099,6.09 L 7.099,5.661" />
    <path id="w-490" d="M 10.046,4.866 L 9.242,4.866" />
    <path id="w-491" d="M 6.034,3.951 L 5.312,3.951" />
    <path id="w-492" d="M 7.133,3.951 L 6.034,3.951" />
    <path id="w-493" d="M 17.127,0.76 L 17.127,2.745" />
    <path id="w-494" d="M -6.172,4.713 L -1.856,4.713" />
    <path id="w-73" d="M 15.43,-6.134 L 15.431,0.724" />
    <path id="w-495" d="M -13.911,5.663 L -13.911,2.729" />
    <path id="w-496" d="M -13.911,2.729 L -15.094,2.729" />
    <path id="w-497" d="M 17.612,0.76 L 17.612,-2.337" />
    <path id="w-498" d="M 16.973,0.76 L 16.973,-0.772" />
    <path id="w-499" d="M 20.989,-2.337 L 16.973,-2.337" />
    <path id="w-500" d="M 16.973,-2.337 L 16.973,-3.14" />
    <path id="w-501" d="M 20.783,-1.411 L 19.64,-1.411" />
    <path id="w-502" d="M 20.73,-0.373 L 19.64,-0.373" />
    <path id="w-503" d="M 16.973,-0.772 L 17.612,-0.772" />
    <path id="w-504" d="M 15.532,2.745 L 15.532,4.077" />
    <path id="w-505" d="M 16.293,2.745 L 16.293,4.077" />
    <path id="w-506" d="M 12.573,5.658 L 16.293,5.658" />
    <path id="w-507" d="M 16.293,5.658 L 16.293,6.48" />
    <path id="w-508" d="M 12.573,4.713 L 13.637,4.713" />
    <path id="w-509" d="M 12.573,3.675 L 13.637,3.675" />
    <path id="w-105" d="M -25.771,0.068 L -26.865,0.566" />
    <path id="w-110" d="M -19.179,0.078 L -20.273,0.576" />
    <path id="w-121" d="M -33.825,0.109 L -32.34,0.109" />
    <path id="w-510" d="M -28.909,-3.533 L -33.27,-1.546" />
    <path id="w-511" d="M -33.124,-1.612 L -32.34,0.109" />
    <path id="w-512" d="M -28.909,-3.533 L -26.944,0.778" />
    <path id="w-513" d="M -22.317,-3.523 L -26.678,-1.535" />
    <path id="w-514" d="M -26.532,-1.602 L -25.771,0.068" />
    <path id="w-515" d="M -22.317,-3.523 L -20.352,0.789" />
    <path id="w-516" d="M -15.725,-3.512 L -20.086,-1.525" />
    <path id="w-517" d="M -19.94,-1.591 L -19.179,0.078" />
    <path id="w-518" d="M 1.092,-9.082 L 12.576,-9.082" />
    <path id="w-140" d="M -15.011,12.865 L -15.011,5.634" />
    <path id="w-519" d="M -8.757,-1.36 L -8.757,-3.624" />
    <path id="w-520" d="M 7.499,-1.36 L 7.499,-3.624" />
    <path id="w-521" d="M 6.064,4.653 L 6.064,6.977" />
    <path id="w-522" d="M 7.45,6.723 L 7.45,6.09" />
    <path id="w-523" d="M 7.099,5.661 L 7.483,5.661" />
    <path id="w-524" d="M 7.099,6.09 L 7.483,6.09" />
    <path id="w-525" d="M 7.483,6.09 L 7.483,5.661" />
    <path id="w-526" d="M 6.064,6.026 L 7.099,6.026" />
    <path id="w-150" d="M 15.431,0.724 L 12.573,0.724" />
    <path id="w-527" d="M -9.112,2.745 L -9.112,4.077" />
    <path id="w-528" d="M -8.352,2.745 L -8.352,4.077" />
    <path id="w-529" d="M -12.154,5.658 L -8.352,5.658" />
    <path id="w-530" d="M -8.352,5.658 L -8.352,6.48" />
    <path id="w-531" d="M -12.03,4.713 L -11.008,4.713" />
    <path id="w-532" d="M -12.03,3.675 L -11.008,3.675" />
    <path id="w-533" d="M -12.068,2.745 L -12.068,0.76" />
    <path id="w-534" d="M -12.03,2.745 L -12.03,5.663" />
    <path id="w-535" d="M -11.962,12.87 L -11.962,5.663" />
    <path id="w-536" d="M -11.962,5.663 L -15.203,5.663" />
    <path id="w-537" d="M 1.233,8.561 L -1.894,8.561" />
    <path id="w-538" d="M -1.894,8.561 L -1.894,5.713" />
    <path id="w-539" d="M 1.233,8.561 L 1.233,7.15" />
    <path id="w-540" d="M 1.218,5.713 L -1.894,5.713" />
    <path id="w-541" d="M 1.218,5.713 L 1.218,6.159" />
    <path id="w-542" d="M 7.45,6.693 L 10.046,6.693" />
    <path id="w-543" d="M -30.326,5.663 L -33.825,5.663" />
    <path id="w-544" d="M -27.518,10.492 L -30.282,10.492" />
    <path id="w-545" d="M -30.282,12.87 L -30.282,10.492" />
    <path id="w-546" d="M -27.518,7.644 L -30.326,7.644" />
    <path id="w-547" d="M -27.518,10.492 L -27.518,7.644" />
    <path id="w-548" d="M -30.326,7.644 L -30.326,5.663" />
    <path id="w-549" d="M -28.002,12.87 L -28.002,10.492" />
    <path id="w-550" d="M -15.203,12.87 L -15.203,5.702" />
    <path id="w-204" d="M 12.576,-6.326 L 12.576,-9.082" />
    <path id="w-551" d="M 12.381,0.916 L 12.381,-6.326" />
    <path id="w-552" d="M 15.623,0.916 L 15.623,-6.326" />
    <path id="w-553" d="M 15.623,0.916 L 12.341,0.916" />
    <path id="w-554" d="M 15.623,-6.326 L 12.381,-6.326" />
    <path id="w-555" d="M -15.13,-2.208 L -15.725,-3.512" />
    <path id="w-556" d="M -15.13,-2.208 L -15.13,-7.998" />
    <path id="w-557" d="M -15.094,5.855 L -15.094,-2.633" />
    <path id="w-211" d="M -22.417,-4.286 L -20.358,0.233" />
    <path id="w-212" d="M -29.032,-4.286 L -26.973,0.233" />
    <path id="w-558" d="M 7.025,-3.632 L 7.025,-3.37" />
    <path id="w-559" d="M 2.811,4.05 L 2.811,2.745" />
    <path id="w-560" d="M -9.825,-3.34 L -12.738,-3.34" />
    <path id="w-561" d="M 6.431,-3.34 L 3.518,-3.34" />
    <path id="w-562" d="M -9.825,-2.734 L -8.757,-2.734" />
    <path id="w-563" d="M 6.431,-2.734 L 7.499,-2.734" />
    <path id="w-564" d="M -6.475,-8.504 L -14.754,-8.504" />
    <path id="w-565" d="M -15.13,-7.998 L -14.754,-7.998" />
    <path id="w-566" d="M -14.754,-7.998 L -14.754,-8.504" />
    <path id="w-567" d="M -14.754,-3.874 L -6.477,-3.874" />
    <path id="w-568" d="M -14.754,-8.379 L -6.477,-8.379" />
    <path id="w-569" d="M 1.357,-9.082 L 1.357,-8.585" />
    <path id="w-570" d="M 12.838,-8.966 L 12.838,-8.822" />
    <path id="w-571" d="M 12.686,-9.071 L 21.327,-7.933" />
    <path id="w-572" d="M 21.516,-7.57 L 21.244,-7.606" />
    <path id="w-573" d="M 21.277,-7.855 L 21.244,-7.606" />
    <path id="w-574" d="M 1.092,-8.401 L 6.985,-8.401" />
    <path id="w-575" d="M 1.092,-3.879 L 6.985,-3.879" />
    <path id="w-576" d="M -6.172,0.762 L 1.092,0.762" />
    <path id="w-577" d="M -0.09,-9.085 L -0.09,-8.868" />
    <path id="w-578" d="M 0.598,-9.085 L 0.598,-8.868" />
    <path id="w-579" d="M -5.678,-9.085 L -5.678,-8.868" />
    <path id="w-580" d="M -4.99,-9.085 L -4.99,-8.868" />
    <path id="w-581" d="M -4.99,-9.085 L -5.678,-9.085" />
    <path id="w-582" d="M 0.598,-9.085 L -0.09,-9.085" />
    <path id="w-583" d="M -33.812,0.602 L -15.13,0.602" />
    <path id="w-584" d="M -33.812,0.922 L -15.13,0.922" />
    <path id="w-294" d="M -33.825,0.109 L -33.825,5.702" />
    <path id="w-585" d="M -32.297,0.203 L -32.116,0.602" />
    <path id="w-586" d="M -25.705,0.213 L -25.528,0.602" />
    <path id="w-587" d="M -19.113,0.224 L -18.941,0.602" />
    <path id="w-588" d="M -14.945,-8.138 L -14.945,5.855" />
    <path id="w-589" d="M -11.962,12.621 L -6.477,12.621" />
    <path id="w-296" d="M 15.43,-6.134 L 12.573,-6.134" />
    <path id="w-590" d="M 15.657,-8.42 L 21.254,-7.683" />
    <path id="w-591" d="M 10.046,3.981 L 7.133,3.981" />
    <path id="w-592" d="M -12.738,-0.629 L -9.825,-0.629" />
    <path id="w-593" d="M 3.518,-0.629 L 6.431,-0.629" />
    <path id="w-594" d="M -11.922,6.407 L -8.347,6.407" />
    <path id="w-595" d="M -8.347,6.407 L -8.347,2.823" />
    <path id="w-596" d="M 12.722,6.407 L 16.297,6.407" />
    <path id="w-597" d="M 16.297,6.407 L 16.297,2.823" />
    <path id="w-598" d="M 19.334,0.76 L 19.334,2.029" />
    <path id="w-599" d="M 19.334,2.029 L 20.414,2.029" />
    <path id="w-600" d="M -11.962,5.855 L -6.477,5.855" />
    <path id="w-601" d="M -14.754,0.76 L -6.477,0.76" />
    <path id="w-602" d="M 7.595,-3.879 L 12.229,-3.879" />
    <path id="w-603" d="M 7.595,-8.401 L 12.229,-8.401" />
    <path id="w-604" d="M -6.172,5.855 L -1.894,5.855" />
    <path id="w-605" d="M -6.172,8.42 L -1.894,8.42" />
    <path id="w-606" d="M 1.092,0.756 L 6.985,0.756" />
    <path id="w-607" d="M 1.218,5.849 L 7.071,5.849" />
    <path id="w-608" d="M 1.092,12.646 L 6.985,12.646" />
    <path id="w-609" d="M 15.623,-3.879 L 20.676,-3.879" />
    <path id="w-610" d="M 15.662,0.756 L 19.334,0.756" />
    <path id="w-611" d="M 12.878,5.849 L 19.395,5.849" />
    <path id="w-612" d="M 7.512,5.849 L 12.268,5.849" />
    <path id="w-613" d="M 7.595,12.646 L 12.268,12.646" />
    <path id="w-614" d="M 12.827,12.646 L 18.502,12.646" />
    <path id="w-615" d="M 5.366,7.01 L 10.744,7.01" />
    <path id="w-616" d="M 10.744,7.01 L 10.744,3.943" />
    <path id="w-617" d="M 10.744,3.943 L 5.366,3.943" />
    <path id="w-618" d="M 5.366,3.943 L 5.366,7.01" />
    <path id="w-619" d="M -13.437,-0.591 L -8.058,-0.591" />
    <path id="w-620" d="M -8.058,-0.591 L -8.058,-3.632" />
    <path id="w-621" d="M -8.058,-3.632 L -13.437,-3.632" />
    <path id="w-622" d="M -13.437,-3.632 L -13.437,-0.591" />
    <path id="w-623" d="M 2.819,-0.591 L 8.198,-0.591" />
    <path id="w-624" d="M 8.198,-0.591 L 8.198,-3.632" />
    <path id="w-625" d="M 8.198,-3.632 L 2.819,-3.632" />
    <path id="w-626" d="M 2.819,-3.632 L 2.819,-0.591" />
    <path id="w-627" d="M 20.926,-3.105 L 16.965,-3.105" />
    <path id="w-628" d="M 16.965,-3.105 L 16.965,0.683" />
    <path id="w-629" d="M -5.867,12.652 L 0.787,12.652" />
    <path id="w-630" d="M -27.578,5.855 L -21.641,5.855" />
    <path id="w-631" d="M -30.282,12.631 L -27.924,12.631" />
    <path id="w-632" d="M -27.422,12.631 L -21.587,12.631" />
    <path id="w-633" d="M -21.085,12.631 L -17.961,12.631" />
    <path id="w-634" d="M -21.031,5.855 L -15.37,5.855" />
    <path id="w-635" d="M -30.326,5.855 L -27.978,5.855" />
    <path id="w-636" d="M 7.595,0.756 L 12.229,0.756" />
    <path id="w-637" d="M 15.532,4.077 L 15.532,5.658" />
    <path id="w-638" d="M -9.112,4.077 L -9.112,5.658" />
    <path id="w-639" d="M 15.532,4.077 L 16.293,4.077" />
    <path id="w-640" d="M -9.112,4.077 L -8.352,4.077" />
    <path id="w-641" d="M -9.825,-2.734 L -9.825,-0.629" />
    <path id="w-642" d="M 6.431,-2.734 L 6.431,-0.629" />
    <path id="w-1124" d="M -30.023,-8.664 L -28.981,-8.664" />
    <path id="w-1125" d="M -32.677,-8.664 L -31.636,-8.664" />
    <path id="w-1126" d="M -27.407,-8.664 L -26.391,-8.664" />
    <path id="w-1127" d="M -24.867,-8.664 L -23.851,-8.664" />
    <path id="w-1128" d="M -22.225,-8.664 L -21.209,-8.664" />
    <path id="w-1129" d="M -19.583,-8.664 L -18.567,-8.664" />
    <path id="w-1130" d="M -16.942,-8.664 L -15.926,-8.664" />
    <path id="w-1083" d="M 1.092,-9.324 L 12.581,-9.324" />
    <path id="w-1084" d="M 12.581,-9.324 L 21.758,-8.116" />
    <path id="w-1131" d="M 1.092,-9.299 L 12.579,-9.299" />
    <path id="w-1132" d="M 12.579,-9.299 L 21.755,-8.091" />
    <path id="w-1133" d="M 3.912,-9.299 L 5.182,-9.299" />
    <path id="w-1134" d="M 2.184,-9.299 L 3.454,-9.299" />
    <path id="w-1135" d="M 5.639,-9.299 L 6.909,-9.299" />
    <path id="w-1136" d="M 9.5,-9.299 L 10.77,-9.299" />
    <path id="w-1137" d="M 7.772,-9.299 L 9.042,-9.299" />
    <path id="w-1138" d="M 11.176,-9.299 L 12.446,-9.299" />
    <path id="w-1139" d="M 18.012,-8.584 L 19.271,-8.418" />
    <path id="w-1140" d="M 16.3,-8.809 L 17.559,-8.643" />
    <path id="w-1141" d="M 19.724,-8.358 L 20.984,-8.193" />
    <path id="w-1142" d="M 13.479,-9.18 L 15.343,-8.935" />
  </g>
</svg>