<?xml version="1.0" encoding="utf-8"?>
<svg xmlns="http://www.w3.org/2000/svg" viewBox="-34.942 -15.057 57.807 25.627">
  <g transform="scale(1,-1)">
    <rect id="f-26" x="-27.823" y="-8.761" width="0.3" height="0.3" />
    <rect id="f-27" x="-6.322" y="12.575" width="0.3" height="0.3" transform="rotate(360,-6.172,12.725)" />
    <rect id="f-28" x="0.942" y="12.575" width="0.3" height="0.3" transform="rotate(360,1.092,12.725)" />
    <rect id="f-29" x="12.423" y="12.575" width="0.3" height="0.3" transform="rotate(360,12.573,12.725)" />
    <rect id="f-30" x="18.717" y="12.528" width="0.3" height="0.3" transform="rotate(97.5,18.867,12.678)" />
    <rect id="f-31" x="7.14" y="12.575" width="0.3" height="0.3" transform="rotate(360,7.29,12.725)" />
    <rect id="f-32" x="-27.823" y="12.575" width="0.3" height="0.3" transform="rotate(360,-27.673,12.725)" />
    <rect id="f-33" x="-21.486" y="12.575" width="0.3" height="0.3" transform="rotate(360,-21.336,12.725)" />
    <rect id="f-34" x="-33.83" y="-8.761" width="0.3" height="0.3" transform="rotate(360,-33.68,-8.611)" />
    <rect id="f-35" x="-15.161" y="-8.761" width="0.3" height="0.3" transform="rotate(360,-15.011,-8.611)" />
    <rect id="f-36" x="-6.322" y="-8.761" width="0.3" height="0.3" transform="rotate(360,-6.172,-8.611)" />
    <rect id="f-37" x="-2.69" y="-9.459" width="0.3" height="0.3" transform="rotate(360,-2.54,-9.309)" />
    <rect id="f-38" x="21.454" y="-8.262" width="0.3" height="0.3" transform="rotate(7.5,21.604,-8.112)" />
    <rect id="f-39" x="4.041" y="-9.459" width="0.3" height="0.3" transform="rotate(360,4.191,-9.309)" />
    <rect id="f-40" x="-19.822" y="-8.761" width="0.3" height="0.3" transform="rotate(360,-19.672,-8.611)" />
    <rect id="f-41" x="-33.83" y="-4.024" width="0.3" height="0.3" transform="rotate(360,-33.68,-3.874)" />
    <rect id="f-42" x="-33.83" y="0.612" width="0.3" height="0.3" transform="rotate(360,-33.68,0.762)" />
    <rect id="f-43" x="19.621" y="5.658" width="0.3" height="0.3" transform="rotate(97.5,19.771,5.808)" />
    <rect id="f-44" x="20.624" y="-1.962" width="0.3" height="0.3" transform="rotate(97.5,20.774,-1.812)" />
    <rect id="f-47" x="-15.39" y="5.476" width="0.3" height="0.3" transform="rotate(360,-15.24,5.626)" />
    <rect id="f-48" x="-12.228" y="5.476" width="0.3" height="0.3" transform="rotate(360,-12.078,5.626)" />
    <rect id="f-49" x="-15.39" y="13.109" width="0.3" height="0.3" transform="rotate(360,-15.24,13.259)" />
    <rect id="f-50" x="-12.228" y="13.109" width="0.3" height="0.3" transform="rotate(360,-12.078,13.259)" />
    <rect id="f-51" x="-15.39" y="9.292" width="0.3" height="0.3" transform="rotate(360,-15.24,9.442)" />
    <rect id="f-52" x="-12.228" y="9.292" width="0.3" height="0.3" transform="rotate(360,-12.078,9.442)" />
    <rect id="f-53" x="-13.841" y="7.384" width="0.3" height="0.3" transform="rotate(360,-13.691,7.534)" />
    <rect id="f-54" x="-13.841" y="11.201" width="0.3" height="0.3" transform="rotate(360,-13.691,11.351)" />
    <rect id="f-55" x="12.194" y="0.65" width="0.3" height="0.3" transform="rotate(360,12.344,0.8)" />
    <rect id="f-56" x="15.357" y="0.65" width="0.3" height="0.3" transform="rotate(360,15.507,0.8)" />
    <rect id="f-57" x="13.776" y="-1.103" width="0.3" height="0.3" transform="rotate(360,13.926,-0.953)" />
    <rect id="f-58" x="12.194" y="-2.855" width="0.3" height="0.3" transform="rotate(360,12.344,-2.705)" />
    <rect id="f-59" x="15.357" y="-2.855" width="0.3" height="0.3" transform="rotate(360,15.507,-2.705)" />
    <rect id="f-60" x="12.194" y="-6.36" width="0.3" height="0.3" transform="rotate(360,12.344,-6.21)" />
    <rect id="f-61" x="15.357" y="-6.36" width="0.3" height="0.3" transform="rotate(360,15.507,-6.21)" />
    <rect id="f-62" x="17.09" y="-8.836" width="0.3" height="0.3" transform="rotate(7.5,17.24,-8.686)" />
    <rect id="f-63" x="13.776" y="-4.608" width="0.3" height="0.3" transform="rotate(360,13.926,-4.458)" />
    <rect id="f-64" x="12.194" y="-9.459" width="0.3" height="0.3" transform="rotate(360,12.344,-9.309)" />
    <polygon id="f-45" points="-15.926,4.94 -11.392,4.94 -11.392,12.268 -11.392,13.183 -11.392,13.945 -15.926,13.945 -15.926,13.183 -15.926,12.268" />
    <polygon id="f-46" points="11.659,-6.896 16.193,-6.896 16.193,1.486 11.659,1.486" />
  </g>
</svg>