<?xml version="1.0" encoding="utf-8"?>
<svg xmlns="http://www.w3.org/2000/svg" viewBox="-134.101 188.788 25.427 31.524">
  <g transform="scale(1,-1)">
    <polygon id="sp-1" points="-125.56,-189.394 -133.495,-189.394 -133.495,-219.706 -123.064,-219.706 -123.064,-208.436 -125.56,-208.436 -125.56,-201.502" fill="rgba(0,0,255,0.1)" stroke="blue" stroke-width="0.05" />
    <polygon id="sp-2" points="-109.28,-219.706 -109.28,-208.436 -122.95,-208.436 -122.95,-219.706" fill="rgba(0,0,255,0.1)" stroke="blue" stroke-width="0.05" />
    <polygon id="sp-7" points="-111.698,-189.394 -115.241,-189.394 -115.241,-195.101 -111.698,-195.101" fill="rgba(0,0,255,0.1)" stroke="blue" stroke-width="0.05" />
    <polygon id="sp-8" points="-111.698,-195.215 -115.241,-195.215 -115.241,-199.063 -112.612,-199.063 -111.698,-199.063" fill="rgba(0,0,255,0.1)" stroke="blue" stroke-width="0.05" />
    <polygon id="sp-9" points="-115.241,-201.445 -112.669,-201.445 -112.669,-199.178 -115.241,-199.178" fill="rgba(0,0,255,0.1)" stroke="blue" stroke-width="0.05" />
    <polygon id="sp-10" points="-115.355,-189.394 -125.445,-189.394 -125.445,-201.445 -115.355,-201.445 -115.355,-199.12 -115.355,-195.158" fill="rgba(0,0,255,0.1)" stroke="blue" stroke-width="0.05" />
    <polygon id="sp-11" points="-125.56,-189.394 -133.495,-189.394 -133.495,-219.706 -123.064,-219.706 -123.064,-208.436 -125.56,-208.436 -125.56,-201.502" fill="rgba(0,0,255,0.1)" stroke="blue" stroke-width="0.05" />
  </g>
</svg>