<?xml version="1.0" encoding="utf-8"?>
<svg xmlns="http://www.w3.org/2000/svg" viewBox="-134.295 188.594 25.814 31.910">
  <g transform="scale(1,-1)">
    <line id="w-1" x1="-109.094" y1="-189.208" x2="-133.681" y2="-189.208" stroke="black" stroke-width="0.371" stroke-linecap="square" />
    <line id="w-2" x1="-109.094" y1="-219.891" x2="-109.094" y2="-189.208" stroke="black" stroke-width="0.371" stroke-linecap="square" />
    <line id="w-3" x1="-133.681" y1="-219.891" x2="-109.094" y2="-219.891" stroke="black" stroke-width="0.371" stroke-linecap="square" />
    <line id="w-4" x1="-133.681" y1="-189.208" x2="-133.681" y2="-219.891" stroke="black" stroke-width="0.371" stroke-linecap="square" />
    <line id="w-5" x1="-111.64" y1="-201.502" x2="-125.502" y2="-201.502" stroke="black" stroke-width="0.114" stroke-linecap="square" />
    <line id="w-6" x1="-109.094" y1="-208.379" x2="-125.502" y2="-208.379" stroke="black" stroke-width="0.114" stroke-linecap="square" />
    <line id="w-7" x1="-111.64" y1="-189.208" x2="-111.64" y2="-195.158" stroke="black" stroke-width="0.114" stroke-linecap="square" />
    <line id="w-8" x1="-111.64" y1="-195.158" x2="-115.298" y2="-195.158" stroke="black" stroke-width="0.114" stroke-linecap="square" />
    <line id="w-9" x1="-115.298" y1="-195.158" x2="-115.298" y2="-189.208" stroke="black" stroke-width="0.114" stroke-linecap="square" />
    <line id="w-10" x1="-115.298" y1="-195.158" x2="-115.298" y2="-201.502" stroke="black" stroke-width="0.114" stroke-linecap="square" />
    <line id="w-11" x1="-115.298" y1="-199.12" x2="-111.64" y2="-199.12" stroke="black" stroke-width="0.114" stroke-linecap="square" />
    <line id="w-12" x1="-111.64" y1="-195.158" x2="-111.64" y2="-199.12" stroke="black" stroke-width="0.114" stroke-linecap="square" />
    <line id="w-13" x1="-111.64" y1="-199.12" x2="-111.64" y2="-201.502" stroke="black" stroke-width="0.114" stroke-linecap="square" />
    <line id="w-14" x1="-111.64" y1="-201.502" x2="-115.298" y2="-201.502" stroke="black" stroke-width="0.114" stroke-linecap="square" />
    <line id="w-15" x1="-112.612" y1="-199.12" x2="-112.612" y2="-201.502" stroke="black" stroke-width="0.114" stroke-linecap="square" />
    <line id="w-16" x1="-125.502" y1="-189.208" x2="-125.502" y2="-208.379" stroke="black" stroke-width="0.114" stroke-linecap="square" />
    <line id="w-17" x1="-123.007" y1="-208.379" x2="-123.007" y2="-219.891" stroke="black" stroke-width="0.114" stroke-linecap="square" />
  </g>
</svg>