<?xml version="1.0" encoding="utf-8"?>
<svg xmlns="http://www.w3.org/2000/svg" viewBox="-34.485 -31.672 64.597 49.853">
  <g transform="scale(1,-1)">
    <polygon id="sl-22" points="-6.023,-5.007 -6.023,-7.84 -4.71,-7.84 -4.71,-9.196 -0.37,-9.196 -0.37,-7.84 0.943,-7.84 0.943,-5.007" fill="rgba(128,128,128,0.2)" stroke="gray" stroke-width="0.05" />
    <polygon id="sl-88" points="-6.023,-5.06 0.943,-5.06 0.943,-3.29 0.94,-3.289 -1.854,-2.902 -3.226,-2.902 -6.02,-3.289 -6.023,-3.29" fill="rgba(128,128,128,0.2)" stroke="gray" stroke-width="0.05" />
    <polygon id="sl-90" points="-3.226,-2.902 -3.226,-2.292 -6.02,-2.664 -6.02,-3.289" fill="rgba(128,128,128,0.2)" stroke="gray" stroke-width="0.05" />
    <polygon id="sl-91" points="-3.226,-2.293 -3.226,-1.682 -6.02,-2.054 -6.02,-2.68" fill="rgba(128,128,128,0.2)" stroke="gray" stroke-width="0.05" />
    <polygon id="sl-98" points="0.94,-3.289 0.94,-2.664 -6.02,-2.664 -6.02,-3.289" fill="rgba(128,128,128,0.2)" stroke="gray" stroke-width="0.05" />
    <polygon id="sl-100" points="0.94,-2.68 0.94,-2.054 -6.02,-2.054 -6.02,-2.68" fill="rgba(128,128,128,0.2)" stroke="gray" stroke-width="0.05" />
    <polygon id="sl-197" points="-6.023,-7.885 -4.756,-7.885 -4.756,-9.178 -0.324,-9.178 -0.324,-7.885 0.943,-7.885 0.943,-5.06 0.918,-5.052 -5.998,-5.052 -6.023,-5.06" fill="rgba(128,128,128,0.2)" stroke="gray" stroke-width="0.05" />
  </g>
</svg>