<?xml version="1.0" encoding="utf-8"?>
<svg xmlns="http://www.w3.org/2000/svg" viewBox="-12.712 -13.351 33.329 23.133">
  <g transform="scale(1,-1)">
    <polygon id="cl-8" points="-9.417,-8.026 -12.071,-8.026 -12.071,-8.508 -9.417,-8.508" />
    <polygon id="cl-9" points="5.88,-8.585 3.213,-8.585 3.213,-9.138 5.88,-9.138" />
    <polygon id="cl-10" points="11.468,-8.585 8.801,-8.585 8.801,-9.141 11.468,-9.141" />
    <polygon id="cl-11" points="-9.789,6.301 -9.789,8.536 -11.922,8.536 -11.922,6.301" />
    <polygon id="cl-12" points="-11.922,8.66 -9.789,8.66 -9.789,10.905 -11.922,10.905" />
    <polygon id="cl-13" points="-3.889,3.439 -3.889,5.674 -6.023,5.674 -6.023,3.439" />
    <polygon id="cl-14" points="-3.889,1.08 -3.889,3.315 -6.023,3.315 -6.023,1.08" />
    <polygon id="cl-15" points="2.718,6.082 1.241,6.082 1.241,5.713 1.241,4.205 2.718,4.205" />
    <polygon id="cl-16" points="7.626,10.566 9.862,10.566 9.862,12.529 9.862,12.71 7.626,12.71 7.626,12.529" />
    <polygon id="cl-17" points="9.985,10.566 12.221,10.566 12.221,12.71 9.985,12.71" />
    <polygon id="cl-18" points="19.903,-7.651 17.259,-7.999 17.332,-8.55 19.976,-8.202" />
    <polygon id="cl-19" points="0.838,12.71 -11.865,12.71 -11.865,10.905 0.838,10.905" />
  </g>
</svg>