<?xml version="1.0" encoding="utf-8"?>
<svg xmlns="http://www.w3.org/2000/svg" viewBox="-28.030 -13.329 48.058 23.692">
  <g transform="scale(1,-1)">
    <path id="du-6" d="M 4.88,0.621 L 4.88,11.535" />
    <path id="du-7" d="M 9.42,0.621 L 9.42,9.588" />
    <path id="du-8" d="M 9.42,9.803 L 9.42,10.056" />
    <path id="du-9" d="M 9.42,11.747 L 9.42,11.974" />
    <path id="du-10" d="M 9.42,10.271 L 9.42,10.986" />
    <path id="du-11" d="M 9.42,11.24 L 9.42,11.493" />
    <path id="du-12" d="M -7.573,0.566 L -7.573,-3.131" />
    <path id="du-13" d="M -8.386,-5.588 L -10.517,-5.588" />
    <path id="du-14" d="M -10.822,-2.902 L -10.822,0.566" />
    <path id="du-15" d="M -12.396,-8.062 L -12.976,-8.062" />
    <path id="du-16" d="M -10.822,-3.95 L -10.822,-3.51" />
    <path id="du-17" d="M -10.822,-4.393 L -10.822,-4.166" />
    <path id="du-18" d="M -10.822,-3.118 L -10.822,-3.295" />
    <path id="du-19" d="M -7.573,-4.007 L -7.573,-3.739" />
    <path id="du-20" d="M -7.573,-4.45 L -7.573,-4.223" />
    <path id="du-21" d="M -7.573,-3.346 L -7.573,-3.523" />
    <path id="du-22" d="M -7.608,8.258 L -7.608,7.699" />
    <path id="du-23" d="M -10.58,4.988 L -10.58,0.974" />
    <path id="du-24" d="M -10.58,5.943 L -10.58,5.787" />
    <path id="du-25" d="M -10.58,5.204 L -10.58,5.571" />
    <path id="du-26" d="M -8.116,7.511 L -8.116,7.127" />
    <path id="du-27" d="M -7.66,6.544 L -8.027,6.912" />
    <path id="du-28" d="M -10.58,8.053 L -10.58,7.52" />
    <path id="du-29" d="M -10.434,7.032 L -10.491,6.975" />
    <path id="du-30" d="M -10.491,7.305 L -10.434,7.248" />
    <path id="du-31" d="M -10.162,7.305 L -10.218,7.248" />
    <path id="du-32" d="M -8.116,9.688 L -8.116,9.84" />
    <path id="du-33" d="M -8.269,9.992 L -8.523,9.992" />
    <path id="du-34" d="M -8.675,10.145 L -8.675,10.279" />
    <path id="du-35" d="M -7.608,9.688 L -7.608,9.904" />
    <path id="du-36" d="M -8.675,10.411 L -8.675,10.777" />
    <path id="du-37" d="M -7.653,10.012 L -7.743,10.102" />
    <path id="du-38" d="M -7.788,10.21 L -7.788,10.262" />
    <path id="du-39" d="M -7.788,10.394 L -7.788,10.76" />
    <path id="du-40" d="M -2.853,2.197 L -2.853,0.995" />
    <path id="du-41" d="M -2.853,8.158 L -2.853,6.698" />
    <path id="du-42" d="M -2.853,5.988 L -2.853,5.674" />
    <path id="du-43" d="M -2.853,6.482 L -2.853,6.204" />
    <path id="du-44" d="M -2.853,5.458 L -2.853,5.23" />
    <path id="du-45" d="M -3.006,2.324 L -4.225,2.324" />
    <path id="du-46" d="M -4.225,4.543 L -3.591,4.543" />
    <path id="du-47" d="M -2.853,4.67 L -2.853,5.015" />
    <path id="du-48" d="M -3.416,4.543 L -3.471,4.543" />
    <path id="du-49" d="M -3.006,4.543 L -3.297,4.543" />
    <path id="du-50" d="M -2.853,2.451 L -2.853,4.416" />
    <path id="du-51" d="M -3.361,8.158 L -3.361,6.405" />
    <path id="du-52" d="M -3.666,6.1 L -4.962,6.1" />
    <path id="du-53" d="M -5.266,6.405 L -5.266,10.444" />
    <path id="du-54" d="M -3.361,9.588 L -3.361,9.791" />
    <path id="du-55" d="M -3.514,9.943 L -4.276,9.943" />
    <path id="du-56" d="M -4.428,10.096 L -4.428,10.147" />
    <path id="du-57" d="M -2.853,9.588 L -2.853,9.855" />
    <path id="du-58" d="M -2.854,9.987 L -2.858,10.325" />
    <path id="du-59" d="M -4.428,10.279 L -4.428,10.617" />
    <path id="du-60" d="M -13.108,-8.623 L -13.108,-8.215" />
    <path id="du-61" d="M -7.518,-8.247 L -7.518,-8.642" />
    <path id="du-62" d="M 6.439,-9.439 L 6.439,-9.288" />
    <path id="du-63" d="M 12.072,-9.439 L 12.072,-9.282" />
    <path id="du-64" d="M -10.243,3.194 L -10.243,3.277" />
    <path id="du-65" d="M -10.877,-1.032 L -10.877,-1.077" />
    <path id="du-66" d="M -11.385,-1.077 L -11.385,-0.945" />
    <path id="du-67" d="M -3.353,6.318 L -3.353,6.623" />
    <path id="du-68" d="M 19.104,0.009 L 19.104,-0.296" />
    <path id="du-69" d="M -8.675,11.238 L -8.675,10.909" />
    <path id="du-70" d="M -4.428,11.238 L -4.428,10.749" />
    <path id="du-71" d="M -21.213,11.502 L -21.213,11.718" />
    <path id="du-72" d="M -20.705,10.072 L -20.705,9.463" />
    <path id="du-73" d="M -21.714,11.871 L -25.938,11.871" />
    <path id="du-74" d="M -26.09,12.023 L -26.09,12.2" />
    <path id="du-75" d="M -21.01,9.158 L -21.444,9.158" />
    <path id="du-76" d="M -21.708,9.005 L -22.141,8.254" />
    <path id="du-77" d="M -22.405,8.102 L -26.801,8.102" />
    <path id="du-78" d="M -27.106,8.407 L -27.106,11.15" />
    <path id="du-79" d="M -26.801,11.455 L -22.534,11.455" />
    <path id="du-80" d="M -21.321,11.871 L -21.607,11.871" />
    <path id="du-81" d="M -26.09,12.35 L -26.09,12.405" />
  </g>
</svg>