<?xml version="1.0" encoding="utf-8"?>
<svg xmlns="http://www.w3.org/2000/svg" viewBox="-27.909 -13.643 40.477 22.509">
  <g transform="scale(1,-1)">
    <rect id="mn-4" x="9.395" y="9.689" width="0.05" height="0.05" transform="rotate(120,9.42,9.714)" />
    <rect id="mn-5" x="9.395" y="10.12" width="0.05" height="0.05" transform="rotate(98.421,9.42,10.145)" />
    <rect id="mn-6" x="9.395" y="11.949" width="0.05" height="0.05" transform="rotate(90,9.42,11.974)" />
    <rect id="mn-7" x="-10.847" y="-4.101" width="0.05" height="0.05" transform="rotate(240,-10.822,-4.076)" />
    <rect id="mn-8" x="-10.847" y="-3.409" width="0.05" height="0.05" transform="rotate(120,-10.822,-3.384)" />
    <rect id="mn-9" x="-7.598" y="-4.158" width="0.05" height="0.05" transform="rotate(240,-7.573,-4.133)" />
    <rect id="mn-10" x="-7.598" y="-3.638" width="0.05" height="0.05" transform="rotate(120,-7.573,-3.613)" />
    <rect id="mn-11" x="-7.598" y="-3.282" width="0.05" height="0.05" transform="rotate(98.421,-7.573,-3.257)" />
    <rect id="mn-12" x="-7.598" y="-4.564" width="0.05" height="0.05" transform="rotate(211.4,-7.573,-4.539)" />
    <rect id="mn-13" x="-10.605" y="0.949" width="0.05" height="0.05" transform="rotate(270,-10.58,0.974)" />
    <rect id="mn-14" x="-8.141" y="6.976" width="0.05" height="0.05" transform="rotate(270,-8.116,7.001)" />
    <rect id="mn-15" x="-10.605" y="5.635" width="0.05" height="0.05" transform="rotate(98.421,-10.58,5.66)" />
    <rect id="mn-16" x="-10.605" y="6.861" width="0.05" height="0.05" transform="rotate(225,-10.58,6.886)" />
    <rect id="mn-17" x="-10.351" y="7.115" width="0.05" height="0.05" transform="rotate(225,-10.326,7.14)" />
    <rect id="mn-18" x="-8.141" y="9.967" width="0.05" height="0.05" transform="rotate(90,-8.116,9.992)" />
    <rect id="mn-19" x="-8.7" y="9.967" width="0.05" height="0.05" transform="rotate(270,-8.675,9.992)" />
    <rect id="mn-20" x="-8.7" y="10.342" width="0.05" height="0.05" transform="rotate(120,-8.675,10.367)" />
    <rect id="mn-21" x="-7.633" y="9.942" width="0.05" height="0.05" transform="rotate(90,-7.608,9.967)" />
    <rect id="mn-22" x="-7.813" y="10.122" width="0.05" height="0.05" transform="rotate(270,-7.788,10.147)" />
    <rect id="mn-23" x="-7.813" y="10.325" width="0.05" height="0.05" transform="rotate(120,-7.788,10.35)" />
    <rect id="mn-24" x="-7.813" y="10.779" width="0.05" height="0.05" transform="rotate(93.841,-7.788,10.804)" />
    <rect id="mn-25" x="-2.878" y="0.97" width="0.05" height="0.05" transform="rotate(270,-2.853,0.995)" />
    <rect id="mn-26" x="-2.878" y="6.547" width="0.05" height="0.05" transform="rotate(240,-2.853,6.572)" />
    <rect id="mn-27" x="-2.878" y="6.089" width="0.05" height="0.05" transform="rotate(120,-2.853,6.114)" />
    <rect id="mn-28" x="-2.878" y="5.522" width="0.05" height="0.05" transform="rotate(240,-2.853,5.547)" />
    <rect id="mn-29" x="-2.878" y="2.299" width="0.05" height="0.05" transform="rotate(270,-2.853,2.324)" />
    <rect id="mn-30" x="-5.065" y="4.531" width="0.05" height="0.05" transform="rotate(120,-5.04,4.556)" />
    <rect id="mn-31" x="-5.065" y="2.172" width="0.05" height="0.05" transform="rotate(120,-5.04,2.197)" />
    <rect id="mn-32" x="-2.878" y="5.116" width="0.05" height="0.05" transform="rotate(211.4,-2.853,5.141)" />
    <rect id="mn-33" x="-2.878" y="4.518" width="0.05" height="0.05" transform="rotate(270,-2.853,4.543)" />
    <rect id="mn-34" x="-3.386" y="4.518" width="0.05" height="0.05" transform="rotate(180,-3.361,4.543)" />
    <rect id="mn-35" x="-3.551" y="4.518" width="0.05" height="0.05" transform="rotate(90,-3.526,4.543)" />
    <rect id="mn-36" x="-3.386" y="6.075" width="0.05" height="0.05" />
    <rect id="mn-37" x="-5.291" y="6.075" width="0.05" height="0.05" transform="rotate(270,-5.266,6.1)" />
    <rect id="mn-38" x="-5.291" y="10.419" width="0.05" height="0.05" transform="rotate(90,-5.266,10.444)" />
    <rect id="mn-39" x="-3.386" y="9.918" width="0.05" height="0.05" transform="rotate(90,-3.361,9.943)" />
    <rect id="mn-40" x="-4.453" y="9.918" width="0.05" height="0.05" transform="rotate(270,-4.428,9.943)" />
    <rect id="mn-41" x="-2.878" y="9.918" width="0.05" height="0.05" transform="rotate(119.782,-2.853,9.943)" />
    <rect id="mn-42" x="-4.453" y="10.21" width="0.05" height="0.05" transform="rotate(120,-4.428,10.235)" />
    <rect id="mn-43" x="-2.883" y="10.344" width="0.05" height="0.05" transform="rotate(94.194,-2.858,10.369)" />
    <rect id="mn-44" x="-13.133" y="-8.087" width="0.05" height="0.05" transform="rotate(180,-13.108,-8.062)" />
    <rect id="mn-45" x="-8.7" y="10.796" width="0.05" height="0.05" transform="rotate(93.841,-8.675,10.821)" />
    <rect id="mn-46" x="-4.453" y="10.636" width="0.05" height="0.05" transform="rotate(93.841,-4.428,10.661)" />
    <rect id="mn-47" x="-20.73" y="9.133" width="0.05" height="0.05" />
    <rect id="mn-48" x="-21.645" y="9.133" width="0.05" height="0.05" transform="rotate(180,-21.62,9.158)" />
    <rect id="mn-49" x="-22.254" y="8.077" width="0.05" height="0.05" />
    <rect id="mn-50" x="-27.131" y="8.077" width="0.05" height="0.05" transform="rotate(270,-27.106,8.102)" />
    <rect id="mn-51" x="-27.131" y="11.43" width="0.05" height="0.05" transform="rotate(180,-27.106,11.455)" />
    <rect id="mn-52" x="-22.559" y="11.43" width="0.05" height="0.05" />
    <rect id="mn-53" x="-21.238" y="11.846" width="0.05" height="0.05" transform="rotate(98.421,-21.213,11.871)" />
    <rect id="mn-54" x="-21.676" y="11.846" width="0.05" height="0.05" transform="rotate(148.6,-21.651,11.871)" />
    <rect id="mn-55" x="-26.115" y="11.846" width="0.05" height="0.05" transform="rotate(270,-26.09,11.871)" />
    <rect id="mn-56" x="-26.115" y="12.303" width="0.05" height="0.05" transform="rotate(120,-26.09,12.328)" />
    <rect id="mn-57" x="-26.115" y="12.402" width="0.05" height="0.05" transform="rotate(90.435,-26.09,12.427)" />
    <rect id="mn-2136" x="8.059" y="12.25" width="0.05" height="0.05" transform="rotate(179.156,8.084,12.275)" />
    <rect id="mn-2137" x="8.059" y="12.25" width="0.05" height="0.05" transform="rotate(180,8.084,12.275)" />
    <rect id="mn-2138" x="8.059" y="12.192" width="0.05" height="0.05" transform="rotate(270,8.084,12.217)" />
    <rect id="mn-2139" x="11.738" y="12.192" width="0.05" height="0.05" transform="rotate(270,11.763,12.217)" />
    <rect id="mn-2140" x="-11.455" y="10.413" width="0.05" height="0.05" transform="rotate(120,-11.43,10.438)" />
    <rect id="mn-2141" x="-11.737" y="6.733" width="0.05" height="0.05" transform="rotate(211.4,-11.712,6.758)" />
    <rect id="mn-2142" x="-11.455" y="6.733" width="0.05" height="0.05" transform="rotate(98.421,-11.43,6.758)" />
    <rect id="mn-2143" x="-11.737" y="10.413" width="0.05" height="0.05" transform="rotate(211.4,-11.712,10.438)" />
    <rect id="mn-2144" x="-11.737" y="10.413" width="0.05" height="0.05" transform="rotate(239.309,-11.712,10.438)" />
    <rect id="mn-2145" x="-11.737" y="12.25" width="0.05" height="0.05" transform="rotate(179.156,-11.712,12.275)" />
    <rect id="mn-2146" x="-11.737" y="12.25" width="0.05" height="0.05" transform="rotate(180,-11.712,12.275)" />
    <rect id="mn-2147" x="-11.737" y="12.25" width="0.05" height="0.05" transform="rotate(180,-11.712,12.275)" />
    <rect id="mn-2148" x="-5.57" y="3.861" width="0.05" height="0.05" transform="rotate(239.309,-5.545,3.886)" />
    <rect id="mn-2149" x="-5.571" y="12.25" width="0.05" height="0.05" transform="rotate(179.156,-5.546,12.275)" />
    <rect id="mn-2150" x="-5.571" y="12.25" width="0.05" height="0.05" transform="rotate(180,-5.546,12.275)" />
    <rect id="mn-2151" x="-5.571" y="12.25" width="0.05" height="0.05" transform="rotate(120.691,-5.546,12.275)" />
    <rect id="mn-2152" x="-19.313" y="6.709" width="0.05" height="0.05" transform="rotate(270,-19.288,6.734)" />
    <rect id="mn-2153" x="-19.313" y="10.389" width="0.05" height="0.05" transform="rotate(239.309,-19.288,10.414)" />
    <rect id="mn-2154" x="-19.313" y="12.25" width="0.05" height="0.05" transform="rotate(179.156,-19.288,12.275)" />
    <rect id="mn-2155" x="-19.313" y="12.25" width="0.05" height="0.05" transform="rotate(120.691,-19.288,12.275)" />
    <rect id="mn-2156" x="-6.127" y="1.486" width="0.05" height="0.05" transform="rotate(180,-6.102,1.511)" />
    <rect id="mn-2157" x="-12.09" y="9.067" width="0.05" height="0.05" transform="rotate(180,-12.065,9.092)" />
    <rect id="mn-2158" x="-12.09" y="9.067" width="0.05" height="0.05" transform="rotate(240,-12.065,9.092)" />
    <rect id="mn-2159" x="-11.737" y="9.067" width="0.05" height="0.05" transform="rotate(239.309,-11.712,9.092)" />
    <rect id="mn-2160" x="-11.737" y="9.067" width="0.05" height="0.05" transform="rotate(120,-11.712,9.092)" />
    <rect id="mn-2161" x="-11.737" y="9.067" width="0.05" height="0.05" transform="rotate(98.421,-11.712,9.092)" />
    <rect id="mn-2162" x="-12.09" y="8.079" width="0.05" height="0.05" transform="rotate(240,-12.065,8.104)" />
    <rect id="mn-2163" x="-11.737" y="8.079" width="0.05" height="0.05" transform="rotate(98.421,-11.712,8.104)" />
    <rect id="mn-2164" x="-11.737" y="8.079" width="0.05" height="0.05" transform="rotate(239.309,-11.712,8.104)" />
    <rect id="mn-2165" x="-11.737" y="8.079" width="0.05" height="0.05" transform="rotate(120,-11.712,8.104)" />
    <rect id="mn-2166" x="-12.09" y="8.079" width="0.05" height="0.05" transform="rotate(240,-12.065,8.104)" />
    <rect id="mn-2167" x="-6.127" y="1.486" width="0.05" height="0.05" transform="rotate(240,-6.102,1.511)" />
    <rect id="mn-2168" x="-5.823" y="1.486" width="0.05" height="0.05" transform="rotate(90,-5.798,1.511)" />
    <rect id="mn-2169" x="-6.127" y="5.168" width="0.05" height="0.05" transform="rotate(180,-6.102,5.193)" />
    <rect id="mn-2170" x="-6.127" y="5.168" width="0.05" height="0.05" transform="rotate(240,-6.102,5.193)" />
    <rect id="mn-2171" x="-5.823" y="5.168" width="0.05" height="0.05" transform="rotate(90,-5.798,5.193)" />
    <rect id="mn-2172" x="-5.823" y="5.168" width="0.05" height="0.05" transform="rotate(90,-5.798,5.193)" />
    <rect id="mn-2173" x="-5.823" y="1.486" width="0.05" height="0.05" transform="rotate(270,-5.798,1.511)" />
    <rect id="mn-2174" x="-5.823" y="5.168" width="0.05" height="0.05" transform="rotate(240,-5.798,5.193)" />
    <rect id="mn-2175" x="-5.571" y="5.168" width="0.05" height="0.05" transform="rotate(261.15,-5.546,5.193)" />
    <rect id="mn-2176" x="-5.672" y="5.168" width="0.05" height="0.05" transform="rotate(180.323,-5.647,5.193)" />
    <rect id="mn-2177" x="9.405" y="12.783" width="0.05" height="0.05" transform="rotate(120,9.43,12.808)" />
    <rect id="mn-2178" x="9.405" y="12.783" width="0.05" height="0.05" transform="rotate(180,9.43,12.808)" />
    <rect id="mn-2179" x="9.405" y="12.514" width="0.05" height="0.05" transform="rotate(261.579,9.43,12.539)" />
    <rect id="mn-2180" x="9.405" y="12.514" width="0.05" height="0.05" transform="rotate(180,9.43,12.539)" />
    <rect id="mn-2181" x="9.405" y="12.25" width="0.05" height="0.05" transform="rotate(179.156,9.43,12.275)" />
    <rect id="mn-2182" x="9.405" y="12.25" width="0.05" height="0.05" transform="rotate(261.579,9.43,12.275)" />
    <rect id="mn-2183" x="9.405" y="12.783" width="0.05" height="0.05" transform="rotate(120,9.43,12.808)" />
    <rect id="mn-2184" x="10.392" y="12.783" width="0.05" height="0.05" transform="rotate(120,10.417,12.808)" />
    <rect id="mn-2185" x="-3.235" y="4.629" width="0.05" height="0.05" transform="rotate(180,-3.21,4.654)" />
    <rect id="mn-2186" x="-2.759" y="4.629" width="0.05" height="0.05" transform="rotate(180,-2.734,4.654)" />
    <rect id="mn-2187" x="-2.759" y="5.522" width="0.05" height="0.05" transform="rotate(90,-2.734,5.547)" />
    <rect id="mn-2188" x="-1.668" y="4.629" width="0.05" height="0.05" />
    <rect id="mn-2189" x="-2.121" y="4.629" width="0.05" height="0.05" transform="rotate(239.425,-2.096,4.654)" />
    <rect id="mn-2190" x="-2.121" y="4.629" width="0.05" height="0.05" transform="rotate(119.428,-2.096,4.654)" />
    <rect id="mn-2191" x="-2.121" y="4.629" width="0.05" height="0.05" transform="rotate(90,-2.096,4.654)" />
    <rect id="mn-2192" x="-11.737" y="6.733" width="0.05" height="0.05" transform="rotate(239.309,-11.712,6.758)" />
    <rect id="mn-2193" x="-5.767" y="-3.403" width="0.05" height="0.05" transform="rotate(148.6,-5.742,-3.378)" />
    <rect id="mn-2194" x="-5.57" y="2.823" width="0.05" height="0.05" transform="rotate(239.309,-5.545,2.848)" />
    <rect id="mn-2195" x="8.059" y="12.25" width="0.05" height="0.05" transform="rotate(90,8.084,12.275)" />
    <rect id="mn-2196" x="9.405" y="12.25" width="0.05" height="0.05" transform="rotate(180,9.43,12.275)" />
    <rect id="mn-2197" x="10.392" y="12.783" width="0.05" height="0.05" transform="rotate(180,10.417,12.808)" />
    <rect id="mn-2198" x="11.739" y="12.25" width="0.05" height="0.05" transform="rotate(179.156,11.764,12.275)" />
    <rect id="mn-2199" x="11.739" y="12.25" width="0.05" height="0.05" transform="rotate(90,11.764,12.275)" />
    <rect id="mn-2200" x="11.738" y="12.25" width="0.05" height="0.05" transform="rotate(172.472,11.763,12.275)" />
    <rect id="mn-2201" x="-11.992" y="6.53" width="0.05" height="0.05" transform="rotate(180,-11.967,6.555)" />
    <rect id="mn-2202" x="-11.992" y="10.21" width="0.05" height="0.05" transform="rotate(180,-11.967,10.235)" />
    <rect id="mn-2203" x="10.291" y="12.815" width="0.05" height="0.05" transform="rotate(90,10.316,12.84)" />
    <rect id="mn-2204" x="9.303" y="12.815" width="0.05" height="0.05" />
    <rect id="mn-2205" x="6.469" y="12.815" width="0.05" height="0.05" transform="rotate(180,6.494,12.84)" />
    <rect id="mn-2206" x="6.469" y="12.815" width="0.05" height="0.05" transform="rotate(120,6.494,12.84)" />
    <rect id="mn-2207" x="6.249" y="12.815" width="0.05" height="0.05" transform="rotate(180,6.274,12.84)" />
    <rect id="mn-2208" x="11.535" y="12.815" width="0.05" height="0.05" transform="rotate(90,11.56,12.84)" />
    <rect id="mn-2209" x="10.494" y="12.815" width="0.05" height="0.05" transform="rotate(120,10.519,12.84)" />
    <rect id="mn-2210" x="9.506" y="12.815" width="0.05" height="0.05" transform="rotate(120,9.531,12.84)" />
    <rect id="mn-2211" x="10.494" y="12.815" width="0.05" height="0.05" transform="rotate(90,10.519,12.84)" />
    <rect id="mn-2212" x="9.506" y="12.815" width="0.05" height="0.05" transform="rotate(180,9.531,12.84)" />
    <rect id="mn-2213" x="7.855" y="12.815" width="0.05" height="0.05" transform="rotate(180,7.88,12.84)" />
    <rect id="mn-2214" x="6.401" y="12.608" width="0.05" height="0.05" transform="rotate(270,6.426,12.633)" />
    <rect id="mn-2215" x="-3.606" y="10.921" width="0.05" height="0.05" transform="rotate(180,-3.581,10.946)" />
    <rect id="mn-2216" x="-9.245" y="10.967" width="0.05" height="0.05" transform="rotate(120,-9.22,10.992)" />
    <rect id="mn-2217" x="-9.245" y="10.967" width="0.05" height="0.05" transform="rotate(240,-9.22,10.992)" />
    <rect id="mn-2218" x="-17.17" y="10.78" width="0.05" height="0.05" transform="rotate(240,-17.145,10.805)" />
    <rect id="mn-2219" x="-6.126" y="1.588" width="0.05" height="0.05" transform="rotate(270,-6.101,1.613)" />
    <rect id="mn-2220" x="-6.126" y="2.62" width="0.05" height="0.05" transform="rotate(120,-6.101,2.645)" />
    <rect id="mn-2221" x="-6.126" y="2.62" width="0.05" height="0.05" transform="rotate(240,-6.101,2.645)" />
    <rect id="mn-2222" x="-6.126" y="3.658" width="0.05" height="0.05" transform="rotate(240,-6.101,3.683)" />
    <rect id="mn-2223" x="-6.126" y="3.658" width="0.05" height="0.05" transform="rotate(240,-6.101,3.683)" />
    <rect id="mn-2224" x="-6.126" y="1.385" width="0.05" height="0.05" transform="rotate(180,-6.101,1.41)" />
    <rect id="mn-2225" x="-6.126" y="1.385" width="0.05" height="0.05" transform="rotate(90,-6.101,1.41)" />
    <rect id="mn-2226" x="-6.086" y="5.066" width="0.05" height="0.05" transform="rotate(180,-6.061,5.091)" />
    <rect id="mn-2227" x="-6.126" y="5.066" width="0.05" height="0.05" transform="rotate(180,-6.101,5.091)" />
    <rect id="mn-2228" x="-6.086" y="5.066" width="0.05" height="0.05" transform="rotate(120,-6.061,5.091)" />
    <rect id="mn-2229" x="-6.126" y="5.593" width="0.05" height="0.05" transform="rotate(180,-6.101,5.618)" />
    <rect id="mn-2230" x="-5.999" y="5.593" width="0.05" height="0.05" />
    <rect id="mn-2231" x="-5.999" y="6.025" width="0.05" height="0.05" transform="rotate(90,-5.974,6.05)" />
    <rect id="mn-2232" x="-6.126" y="6.025" width="0.05" height="0.05" transform="rotate(270,-6.101,6.05)" />
    <rect id="mn-2233" x="-6.126" y="10.946" width="0.05" height="0.05" transform="rotate(120,-6.101,10.971)" />
    <rect id="mn-2234" x="-6.126" y="10.946" width="0.05" height="0.05" transform="rotate(240,-6.101,10.971)" />
    <rect id="mn-2235" x="-3.911" y="10.946" width="0.05" height="0.05" transform="rotate(90,-3.886,10.971)" />
    <rect id="mn-2236" x="-3.911" y="10.946" width="0.05" height="0.05" transform="rotate(180,-3.886,10.971)" />
    <rect id="mn-2237" x="-3.911" y="10.803" width="0.05" height="0.05" transform="rotate(240,-3.886,10.828)" />
    <rect id="mn-2238" x="-6.126" y="5.269" width="0.05" height="0.05" transform="rotate(90,-6.101,5.294)" />
    <rect id="mn-2239" x="-6.126" y="5.593" width="0.05" height="0.05" transform="rotate(180,-6.101,5.618)" />
    <rect id="mn-2240" x="-5.999" y="5.593" width="0.05" height="0.05" />
    <rect id="mn-2241" x="-5.999" y="6.025" width="0.05" height="0.05" transform="rotate(90,-5.974,6.05)" />
    <rect id="mn-2242" x="-6.126" y="6.025" width="0.05" height="0.05" transform="rotate(270,-6.101,6.05)" />
    <rect id="mn-2243" x="-3.606" y="10.921" width="0.05" height="0.05" transform="rotate(180,-3.581,10.946)" />
    <rect id="mn-2244" x="-3.606" y="10.803" width="0.05" height="0.05" transform="rotate(240,-3.581,10.828)" />
    <rect id="mn-2245" x="-3.606" y="10.803" width="0.05" height="0.05" transform="rotate(120,-3.581,10.828)" />
    <rect id="mn-2246" x="-3.759" y="10.803" width="0.05" height="0.05" transform="rotate(240,-3.734,10.828)" />
    <rect id="mn-2247" x="-3.759" y="10.803" width="0.05" height="0.05" transform="rotate(120,-3.734,10.828)" />
    <rect id="mn-2248" x="-3.606" y="10.946" width="0.05" height="0.05" transform="rotate(120,-3.581,10.971)" />
    <rect id="mn-2249" x="-3.606" y="10.803" width="0.05" height="0.05" transform="rotate(180,-3.581,10.828)" />
    <rect id="mn-2250" x="-3.606" y="10.83" width="0.05" height="0.05" transform="rotate(90,-3.581,10.855)" />
    <rect id="mn-2251" x="-3.606" y="10.946" width="0.05" height="0.05" transform="rotate(180,-3.581,10.971)" />
    <rect id="mn-2252" x="-11.992" y="8.965" width="0.05" height="0.05" transform="rotate(120,-11.967,8.99)" />
    <rect id="mn-2253" x="-11.992" y="8.965" width="0.05" height="0.05" transform="rotate(240,-11.967,8.99)" />
    <rect id="mn-2254" x="-11.992" y="7.978" width="0.05" height="0.05" transform="rotate(240,-11.967,8.003)" />
    <rect id="mn-2255" x="-11.992" y="7.978" width="0.05" height="0.05" transform="rotate(240,-11.967,8.003)" />
    <rect id="mn-2256" x="-11.992" y="9.168" width="0.05" height="0.05" transform="rotate(120,-11.967,9.193)" />
    <rect id="mn-2257" x="-11.992" y="9.168" width="0.05" height="0.05" transform="rotate(240,-11.967,9.193)" />
    <rect id="mn-2258" x="-11.992" y="6.53" width="0.05" height="0.05" transform="rotate(90,-11.967,6.555)" />
    <rect id="mn-2259" x="-11.992" y="8.181" width="0.05" height="0.05" transform="rotate(240,-11.967,8.206)" />
    <rect id="mn-2260" x="-11.992" y="8.181" width="0.05" height="0.05" transform="rotate(240,-11.967,8.206)" />
    <rect id="mn-2261" x="-11.992" y="10.21" width="0.05" height="0.05" transform="rotate(120,-11.967,10.235)" />
    <rect id="mn-2262" x="-11.992" y="10.967" width="0.05" height="0.05" transform="rotate(180,-11.967,10.992)" />
    <rect id="mn-2263" x="-9.245" y="10.967" width="0.05" height="0.05" transform="rotate(180,-9.22,10.992)" />
    <rect id="mn-2264" x="-9.245" y="10.803" width="0.05" height="0.05" transform="rotate(270,-9.22,10.828)" />
    <rect id="mn-2265" x="-9.245" y="10.803" width="0.05" height="0.05" transform="rotate(120,-9.22,10.828)" />
    <rect id="mn-2266" x="-9.245" y="10.803" width="0.05" height="0.05" transform="rotate(180,-9.22,10.828)" />
    <rect id="mn-2267" x="-9.245" y="10.83" width="0.05" height="0.05" transform="rotate(90,-9.22,10.855)" />
    <rect id="mn-2268" x="-9.245" y="10.967" width="0.05" height="0.05" transform="rotate(90,-9.22,10.992)" />
    <rect id="mn-2269" x="-9.321" y="10.967" width="0.05" height="0.05" transform="rotate(90,-9.296,10.992)" />
    <rect id="mn-2270" x="-9.321" y="10.967" width="0.05" height="0.05" transform="rotate(180,-9.296,10.992)" />
    <rect id="mn-2271" x="-9.398" y="10.803" width="0.05" height="0.05" transform="rotate(240,-9.373,10.828)" />
    <rect id="mn-2272" x="-9.398" y="10.967" width="0.05" height="0.05" transform="rotate(120,-9.373,10.992)" />
    <rect id="mn-2273" x="-9.398" y="10.967" width="0.05" height="0.05" transform="rotate(120,-9.373,10.992)" />
    <rect id="mn-2274" x="-11.993" y="10.967" width="0.05" height="0.05" transform="rotate(180,-11.968,10.992)" />
    <rect id="mn-2275" x="-17.322" y="10.78" width="0.05" height="0.05" transform="rotate(270,-17.297,10.805)" />
    <rect id="mn-2276" x="-20.675" y="12.608" width="0.05" height="0.05" transform="rotate(270,-20.65,12.633)" />
    <rect id="mn-2277" x="-3.951" y="10.946" width="0.05" height="0.05" transform="rotate(180,-3.926,10.971)" />
    <rect id="mn-2278" x="-3.951" y="10.946" width="0.05" height="0.05" transform="rotate(120,-3.926,10.971)" />
    <rect id="mn-2279" x="-6.126" y="10.946" width="0.05" height="0.05" transform="rotate(180,-6.101,10.971)" />
    <rect id="mn-2280" x="-6.081" y="10.946" width="0.05" height="0.05" transform="rotate(90,-6.056,10.971)" />
    <rect id="mn-2281" x="-6.081" y="10.946" width="0.05" height="0.05" transform="rotate(180,-6.056,10.971)" />
  </g>
</svg>