<?xml version="1.0" encoding="utf-8"?>
<svg xmlns="http://www.w3.org/2000/svg" viewBox="-21.298 -13.488 33.711 16.741">
  <g transform="scale(1,-1)">
    <path id="pi-1200" d="M 11.763,12.217 L 11.763,12.217" />
    <path id="pi-1201" d="M 8.084,12.217 L 8.084,12.217" />
    <path id="pi-1202" d="M -5.545,3.886 L -5.545,3.886" />
    <path id="pi-1203" d="M -11.43,6.758 L -11.43,6.758" />
    <path id="pi-1204" d="M -11.43,10.438 L -11.43,10.438" />
    <path id="pi-1205" d="M -19.288,10.414 L -19.288,10.414" />
    <path id="pi-1206" d="M 8.084,12.275 L 8.084,12.275" />
    <path id="pi-1207" d="M 11.764,12.275 L 11.764,12.275" />
    <path id="pi-1208" d="M 8.084,12.265 L 8.084,12.227" />
    <path id="pi-1209" d="M 11.763,12.23 L 11.763,12.262" />
    <path id="pi-1210" d="M -11.501,10.438 L -11.641,10.438" />
    <path id="pi-1211" d="M -11.501,6.758 L -11.641,6.758" />
    <path id="pi-1212" d="M -11.712,12.132 L -11.712,10.581" />
    <path id="pi-1213" d="M -11.712,10.438 L -11.712,10.438" />
    <path id="pi-1214" d="M -11.712,6.758 L -11.712,6.758" />
    <path id="pi-1215" d="M -11.712,9.234 L -11.712,10.328" />
    <path id="pi-1216" d="M -11.712,12.275 L -11.712,12.275" />
    <path id="pi-1217" d="M -5.546,5.083 L -5.545,4.029" />
    <path id="pi-1218" d="M -5.545,2.848 L -5.545,2.848" />
    <path id="pi-1219" d="M -5.545,2.991 L -5.545,3.776" />
    <path id="pi-1220" d="M -5.546,12.275 L -5.546,12.275" />
    <path id="pi-1221" d="M -19.288,6.734 L -19.288,6.734" />
    <path id="pi-1222" d="M -19.288,10.557 L -19.288,12.132" />
    <path id="pi-1223" d="M -19.288,6.877 L -19.288,10.304" />
    <path id="pi-1224" d="M -19.288,12.275 L -19.288,12.275" />
    <path id="pi-1225" d="M -6.039,1.511 L -6.069,1.511" />
    <path id="pi-1226" d="M -6.102,1.511 L -6.102,1.511" />
    <path id="pi-1227" d="M -11.938,9.092 L -11.987,9.092" />
    <path id="pi-1228" d="M -12.065,9.092 L -12.065,9.092" />
    <path id="pi-1229" d="M -11.987,8.104 L -11.938,8.104" />
    <path id="pi-1230" d="M -12.065,8.104 L -12.065,8.104" />
    <path id="pi-1231" d="M -12.025,9.092 L -11.752,9.092" />
    <path id="pi-1232" d="M -11.712,9.092 L -11.712,9.092" />
    <path id="pi-1233" d="M -12.025,8.104 L -11.752,8.104" />
    <path id="pi-1234" d="M -11.712,8.104 L -11.712,8.104" />
    <path id="pi-1235" d="M -11.712,8.247 L -11.712,8.981" />
    <path id="pi-1236" d="M -11.712,6.901 L -11.712,7.994" />
    <path id="pi-1237" d="M -6.025,1.511 L -5.875,1.511" />
    <path id="pi-1238" d="M -5.798,1.511 L -5.798,1.511" />
    <path id="pi-1239" d="M -5.798,5.115 L -5.798,1.589" />
    <path id="pi-1240" d="M -6.102,5.193 L -6.102,5.193" />
    <path id="pi-1241" d="M -6.025,5.193 L -5.875,5.193" />
    <path id="pi-1242" d="M -5.798,5.193 L -5.798,5.193" />
    <path id="pi-1243" d="M -5.798,5.193 L -5.798,5.193" />
    <path id="pi-1244" d="M -5.757,5.193 L -5.719,5.193" />
    <path id="pi-1245" d="M -5.546,12.132 L -5.546,5.336" />
    <path id="pi-1246" d="M 9.43,12.71 L 9.43,12.73" />
    <path id="pi-1247" d="M 9.43,12.808 L 9.43,12.808" />
    <path id="pi-1248" d="M 9.43,12.768 L 9.43,12.579" />
    <path id="pi-1249" d="M 9.43,12.539 L 9.43,12.539" />
    <path id="pi-1250" d="M 9.43,12.498 L 9.43,12.315" />
    <path id="pi-1251" d="M 9.43,12.275 L 9.43,12.275" />
    <path id="pi-1252" d="M 10.417,12.73 L 10.417,12.71" />
    <path id="pi-1253" d="M 10.417,12.808 L 10.417,12.808" />
    <path id="pi-1254" d="M 9.508,12.808 L 10.339,12.808" />
    <path id="pi-1255" d="M 9.43,12.808 L 9.43,12.808" />
    <path id="pi-1256" d="M -3.526,3.507 L -3.231,4.579" />
    <path id="pi-1257" d="M -2.734,4.732 L -2.734,5.49" />
    <path id="pi-1258" d="M -3.132,4.654 L -2.788,4.654" />
    <path id="pi-1259" d="M -1.593,4.682 L -1.588,4.685" />
    <path id="pi-1260" d="M -2.096,4.654 L -2.096,4.654" />
    <path id="pi-1261" d="M -2.174,4.654 L -2.656,4.654" />
    <path id="pi-1262" d="M -1.7,4.654 L -2.042,4.654" />
    <path id="pi-1263" d="M -11.712,5.531 L -11.712,6.648" />
    <path id="pi-1264" d="M -5.545,-2.604 L -5.545,2.738" />
    <path id="pi-1265" d="M -6.069,5.193 L -6.023,5.193" />
    <path id="pi-1266" d="M -11.938,10.235 L -11.952,10.235" />
    <path id="pi-1267" d="M -11.938,6.555 L -11.952,6.555" />
    <path id="pi-1268" d="M -6.023,5.294 L -6.08,5.294" />
    <path id="pi-1269" d="M -6.023,5.091 L -6.047,5.091" />
    <path id="pi-1270" d="M -6.039,1.613 L -6.086,1.613" />
    <path id="pi-1271" d="M -6.039,1.41 L -6.086,1.41" />
    <path id="pi-1272" d="M -11.967,8.185 L -11.967,6.569" />
    <path id="pi-1273" d="M -11.967,6.555 L -11.967,6.555" />
    <path id="pi-1274" d="M -11.967,10.235 L -11.967,10.235" />
    <path id="pi-1275" d="M 10.316,12.71 L 10.316,12.825" />
    <path id="pi-1276" d="M 9.308,12.84 L 6.509,12.84" />
    <path id="pi-1277" d="M 9.328,12.819 L 9.328,12.71" />
    <path id="pi-1278" d="M 10.301,12.84 L 9.349,12.84" />
    <path id="pi-1279" d="M 6.494,12.84 L 6.494,12.84" />
    <path id="pi-1280" d="M 6.48,12.84 L 6.288,12.84" />
    <path id="pi-1281" d="M -9.22,10.992 L -9.22,10.992" />
    <path id="pi-1282" d="M -17.145,10.805 L -17.145,10.805" />
    <path id="pi-1283" d="M -9.22,10.828 L -9.22,10.828" />
    <path id="pi-1284" d="M -20.498,12.633 L -20.498,12.633" />
    <path id="pi-1285" d="M -3.734,10.828 L -3.734,10.828" />
    <path id="pi-1286" d="M -3.602,10.828 L -3.713,10.828" />
    <path id="pi-1287" d="M -3.581,10.828 L -3.581,10.828" />
    <path id="pi-1288" d="M -3.581,10.946 L -3.581,10.946" />
    <path id="pi-1289" d="M 6.426,12.633 L 6.426,12.633" />
    <path id="pi-1290" d="M 11.56,12.725 L 11.56,12.825" />
    <path id="pi-1291" d="M 11.546,12.84 L 10.539,12.84" />
    <path id="pi-1292" d="M 7.88,12.725 L 7.88,12.819" />
    <path id="pi-1293" d="M 10.519,12.71 L 10.519,12.825" />
    <path id="pi-1294" d="M 10.519,12.84 L 10.519,12.84" />
    <path id="pi-1295" d="M 9.531,12.71 L 9.531,12.825" />
    <path id="pi-1296" d="M 9.531,12.84 L 9.531,12.84" />
    <path id="pi-1297" d="M 6.426,12.633 L 6.426,12.633" />
    <path id="pi-1298" d="M 6.426,12.633 L 6.426,12.633" />
    <path id="pi-1299" d="M -6.101,2.624 L -6.101,1.627" />
    <path id="pi-1300" d="M -6.053,2.645 L -6.086,2.645" />
    <path id="pi-1301" d="M -6.101,2.645 L -6.101,2.645" />
    <path id="pi-1302" d="M -6.101,3.662 L -6.101,2.665" />
    <path id="pi-1303" d="M -6.053,3.683 L -6.086,3.683" />
    <path id="pi-1304" d="M -6.101,3.683 L -6.101,3.683" />
    <path id="pi-1305" d="M -6.101,5.274 L -6.101,3.704" />
    <path id="pi-1306" d="M -6.101,5.112 L -6.101,5.604" />
    <path id="pi-1307" d="M -6.101,1.41 L -6.101,1.41" />
    <path id="pi-1308" d="M -6.08,5.091 L -6.075,5.091" />
    <path id="pi-1309" d="M -6.061,5.091 L -6.061,5.091" />
    <path id="pi-1310" d="M -6.101,1.424 L -6.101,5.071" />
    <path id="pi-1311" d="M -6.086,5.618 L -5.988,5.618" />
    <path id="pi-1312" d="M -5.974,5.632 L -5.974,6.036" />
    <path id="pi-1313" d="M -5.988,6.05 L -6.086,6.05" />
    <path id="pi-1314" d="M -6.101,6.064 L -6.101,10.957" />
    <path id="pi-1315" d="M -6.086,10.971 L -3.9,10.971" />
    <path id="pi-1316" d="M -6.101,10.971 L -6.101,10.971" />
    <path id="pi-1317" d="M -3.886,10.957 L -3.886,10.843" />
    <path id="pi-1318" d="M -3.886,10.971 L -3.886,10.971" />
    <path id="pi-1319" d="M -6.101,5.315 L -6.101,5.604" />
    <path id="pi-1320" d="M -6.086,5.618 L -5.988,5.618" />
    <path id="pi-1321" d="M -5.974,5.632 L -5.974,6.036" />
    <path id="pi-1322" d="M -5.988,6.05 L -6.086,6.05" />
    <path id="pi-1323" d="M -6.101,6.064 L -6.101,10.957" />
    <path id="pi-1324" d="M -3.581,10.925 L -3.581,10.849" />
    <path id="pi-1325" d="M -3.581,10.828 L -3.581,10.828" />
    <path id="pi-1326" d="M -3.581,10.862 L -3.581,10.957" />
    <path id="pi-1327" d="M -3.581,10.971 L -3.581,10.971" />
    <path id="pi-1328" d="M -3.912,10.971 L -3.596,10.971" />
    <path id="pi-1329" d="M -3.581,10.828 L -3.581,10.828" />
    <path id="pi-1330" d="M -11.938,8.99 L -11.952,8.99" />
    <path id="pi-1331" d="M -11.967,8.99 L -11.967,8.99" />
    <path id="pi-1332" d="M -11.967,9.011 L -11.968,10.978" />
    <path id="pi-1333" d="M -11.967,8.969 L -11.967,8.017" />
    <path id="pi-1334" d="M -11.967,8.003 L -11.967,8.003" />
    <path id="pi-1335" d="M -11.952,8.003 L -11.938,8.003" />
    <path id="pi-1336" d="M -11.938,9.193 L -11.952,9.193" />
    <path id="pi-1337" d="M -11.967,9.193 L -11.967,9.193" />
    <path id="pi-1338" d="M -11.967,10.214 L -11.967,9.214" />
    <path id="pi-1339" d="M -11.938,8.206 L -11.952,8.206" />
    <path id="pi-1340" d="M -11.967,8.206 L -11.967,8.206" />
    <path id="pi-1341" d="M -11.967,9.173 L -11.967,8.226" />
    <path id="pi-1342" d="M -11.967,10.255 L -11.967,10.978" />
    <path id="pi-1343" d="M -11.952,10.992 L -9.311,10.992" />
    <path id="pi-1344" d="M -9.22,10.828 L -9.22,10.828" />
    <path id="pi-1345" d="M -9.22,10.971 L -9.22,10.849" />
    <path id="pi-1346" d="M -9.22,10.862 L -9.22,10.978" />
    <path id="pi-1347" d="M -9.22,10.828 L -9.22,10.828" />
    <path id="pi-1348" d="M -9.234,10.992 L -9.282,10.992" />
    <path id="pi-1349" d="M -9.296,10.992 L -9.296,10.992" />
    <path id="pi-1350" d="M -9.387,10.992 L -11.954,10.992" />
    <path id="pi-1351" d="M -9.373,10.843 L -9.373,10.978" />
    <path id="pi-1352" d="M -9.373,10.992 L -9.373,10.992" />
    <path id="pi-1353" d="M -17.297,10.805 L -17.297,10.805" />
    <path id="pi-1354" d="M -20.65,12.633 L -20.65,12.633" />
    <path id="pi-1355" d="M -3.94,10.971 L -6.042,10.971" />
    <path id="pi-1356" d="M -3.926,10.971 L -3.926,10.971" />
    <path id="pi-1357" d="M -6.056,10.971 L -6.056,10.971" />
    <path id="pi-1358" d="M -6.086,10.971 L -6.071,10.971" />
    <path id="pi-1359" d="M -2.812,5.625 L -2.774,5.588" />
  </g>
</svg>