<?xml version="1.0" encoding="utf-8"?>
<svg xmlns="http://www.w3.org/2000/svg" viewBox="-34.285 -13.772 47.419 24.266">
  <g transform="scale(1,-1)">
    <rect id="tm-189" x="-12.072" y="7.954" width="0.3" height="0.3" transform="rotate(240,-11.922,8.104)" />
    <rect id="tm-190" x="-12.072" y="8.942" width="0.3" height="0.3" transform="rotate(120,-11.922,9.092)" />
    <rect id="tm-191" x="-6.173" y="1.361" width="0.3" height="0.3" transform="rotate(240,-6.023,1.511)" />
    <rect id="tm-192" x="-6.173" y="5.041" width="0.3" height="0.3" transform="rotate(120,-6.023,5.191)" />
    <rect id="tm-193" x="9.262" y="12.56" width="0.3" height="0.3" transform="rotate(180,9.412,12.71)" />
    <rect id="tm-194" x="10.25" y="12.56" width="0.3" height="0.3" transform="rotate(90,10.4,12.71)" />
    <rect id="tm-195" x="-15.009" y="6.772" width="0.3" height="0.3" transform="rotate(240,-14.859,6.922)" />
    <rect id="tm-196" x="-12.456" y="6.772" width="0.3" height="0.3" transform="rotate(240,-12.306,6.922)" />
    <rect id="tm-197" x="-33.373" y="11.963" width="0.3" height="0.3" transform="rotate(240,-33.223,12.113)" />
    <rect id="tm-198" x="-33.373" y="6.518" width="0.3" height="0.3" transform="rotate(240,-33.223,6.668)" />
    <rect id="tm-199" x="-30.821" y="11.963" width="0.3" height="0.3" transform="rotate(240,-30.671,12.113)" />
    <rect id="tm-200" x="9.262" y="12.56" width="0.3" height="0.3" transform="rotate(90,9.412,12.71)" />
    <rect id="tm-201" x="10.267" y="12.56" width="0.3" height="0.3" transform="rotate(90,10.417,12.71)" />
    <rect id="tm-476" x="10.95" y="11.47" width="0.3" height="0.3" transform="rotate(180,11.1,11.62)" />
    <rect id="tm-477" x="8.562" y="11.47" width="0.3" height="0.3" transform="rotate(180,8.712,11.62)" />
    <rect id="tm-478" x="4.628" y="1.31" width="0.3" height="0.3" transform="rotate(240,4.778,1.46)" />
    <rect id="tm-479" x="4.628" y="4.054" width="0.3" height="0.3" transform="rotate(240,4.778,4.204)" />
    <rect id="tm-480" x="4.628" y="6.797" width="0.3" height="0.3" transform="rotate(240,4.778,6.947)" />
    <rect id="tm-481" x="4.628" y="9.54" width="0.3" height="0.3" transform="rotate(240,4.778,9.69)" />
    <rect id="tm-482" x="9.168" y="1.31" width="0.3" height="0.3" transform="rotate(240,9.318,1.46)" />
    <rect id="tm-483" x="9.168" y="4.054" width="0.3" height="0.3" transform="rotate(240,9.318,4.204)" />
    <rect id="tm-484" x="9.168" y="6.797" width="0.3" height="0.3" transform="rotate(240,9.318,6.947)" />
    <rect id="tm-485" x="9.168" y="9.083" width="0.3" height="0.3" transform="rotate(240,9.318,9.233)" />
    <rect id="tm-486" x="4.831" y="8.168" width="0.3" height="0.3" transform="rotate(240,4.981,8.318)" />
    <rect id="tm-487" x="4.831" y="5.425" width="0.3" height="0.3" transform="rotate(240,4.981,5.575)" />
    <rect id="tm-488" x="4.831" y="2.682" width="0.3" height="0.3" transform="rotate(240,4.981,2.832)" />
    <rect id="tm-489" x="9.372" y="7.94" width="0.3" height="0.3" transform="rotate(240,9.522,8.09)" />
    <rect id="tm-490" x="9.372" y="5.425" width="0.3" height="0.3" transform="rotate(240,9.522,5.575)" />
    <rect id="tm-491" x="9.372" y="2.682" width="0.3" height="0.3" transform="rotate(240,9.522,2.832)" />
    <rect id="tm-492" x="2.421" y="-9.576" width="0.3" height="0.3" transform="rotate(90,2.571,-9.426)" />
    <rect id="tm-493" x="8.009" y="-9.576" width="0.3" height="0.3" transform="rotate(90,8.159,-9.426)" />
    <rect id="tm-494" x="-9.6" y="-5.636" width="0.3" height="0.3" transform="rotate(90,-9.45,-5.486)" />
    <rect id="tm-495" x="-9.6" y="-5.839" width="0.3" height="0.3" transform="rotate(90,-9.45,-5.689)" />
    <rect id="tm-496" x="-11.073" y="0.072" width="0.3" height="0.3" transform="rotate(240,-10.923,0.222)" />
    <rect id="tm-497" x="-11.073" y="-2.671" width="0.3" height="0.3" transform="rotate(240,-10.923,-2.521)" />
    <rect id="tm-498" x="-11.073" y="-1.299" width="0.3" height="0.3" transform="rotate(240,-10.923,-1.149)" />
    <rect id="tm-499" x="-10.87" y="-1.299" width="0.3" height="0.3" transform="rotate(240,-10.72,-1.149)" />
    <rect id="tm-500" x="-10.87" y="-2.671" width="0.3" height="0.3" transform="rotate(240,-10.72,-2.521)" />
    <rect id="tm-501" x="-10.87" y="0.072" width="0.3" height="0.3" transform="rotate(240,-10.72,0.222)" />
    <rect id="tm-502" x="-10.629" y="2.831" width="0.3" height="0.3" transform="rotate(120,-10.479,2.981)" />
    <rect id="tm-503" x="-10.832" y="2.831" width="0.3" height="0.3" transform="rotate(120,-10.682,2.981)" />
    <rect id="tm-504" x="-10.629" y="4.203" width="0.3" height="0.3" transform="rotate(120,-10.479,4.353)" />
    <rect id="tm-505" x="-10.832" y="4.203" width="0.3" height="0.3" transform="rotate(120,-10.682,4.353)" />
    <rect id="tm-506" x="-10.629" y="1.46" width="0.3" height="0.3" transform="rotate(120,-10.479,1.61)" />
    <rect id="tm-507" x="-10.832" y="1.46" width="0.3" height="0.3" transform="rotate(120,-10.682,1.61)" />
    <rect id="tm-508" x="-11.199" y="9.64" width="0.3" height="0.3" transform="rotate(180,-11.049,9.79)" />
    <rect id="tm-509" x="-11.199" y="7.447" width="0.3" height="0.3" transform="rotate(180,-11.049,7.597)" />
    <rect id="tm-510" x="-7.938" y="11.075" width="0.3" height="0.3" transform="rotate(180,-7.788,11.225)" />
    <rect id="tm-511" x="-5.19" y="4.406" width="0.3" height="0.3" transform="rotate(180,-5.04,4.556)" />
    <rect id="tm-512" x="-5.19" y="2.047" width="0.3" height="0.3" transform="rotate(180,-5.04,2.197)" />
    <rect id="tm-513" x="-2.915" y="3.355" width="0.3" height="0.3" transform="rotate(255.522,-2.765,3.505)" />
    <rect id="tm-514" x="-2.915" y="1.446" width="0.3" height="0.3" transform="rotate(104.478,-2.765,1.596)" />
    <rect id="tm-515" x="-3.091" y="7.049" width="0.3" height="0.3" transform="rotate(104.478,-2.941,7.199)" />
    <rect id="tm-516" x="-2.915" y="7.483" width="0.3" height="0.3" transform="rotate(104.478,-2.765,7.633)" />
    <rect id="tm-517" x="-3.008" y="11.075" width="0.3" height="0.3" transform="rotate(180,-2.858,11.225)" />
    <rect id="tm-518" x="-7.668" y="-8.785" width="0.3" height="0.3" transform="rotate(90,-7.518,-8.635)" />
    <rect id="tm-519" x="6.289" y="-9.582" width="0.3" height="0.3" transform="rotate(270,6.439,-9.432)" />
    <rect id="tm-520" x="11.922" y="-9.582" width="0.3" height="0.3" transform="rotate(90,12.072,-9.432)" />
    <rect id="tm-521" x="-7.825" y="-1.674" width="0.3" height="0.3" transform="rotate(120,-7.675,-1.524)" />
    <rect id="tm-522" x="-7.825" y="0.072" width="0.3" height="0.3" transform="rotate(120,-7.675,0.222)" />
    <rect id="tm-523" x="-7.825" y="-2.83" width="0.3" height="0.3" transform="rotate(120,-7.675,-2.68)" />
    <rect id="tm-524" x="-8.825" y="11.082" width="0.3" height="0.3" transform="rotate(180,-8.675,11.232)" />
    <rect id="tm-525" x="-4.578" y="11.082" width="0.3" height="0.3" transform="rotate(180,-4.428,11.232)" />
    <rect id="tm-526" x="-5.315" y="6.977" width="0.3" height="0.3" transform="rotate(240,-5.165,7.127)" />
    <rect id="tm-527" x="-5.315" y="9.624" width="0.3" height="0.3" transform="rotate(240,-5.165,9.774)" />
    <rect id="tm-528" x="-4.464" y="6.052" width="0.3" height="0.3" transform="rotate(90,-4.314,6.202)" />
    <rect id="tm-529" x="-27.154" y="8.906" width="0.3" height="0.3" transform="rotate(240,-27.004,9.056)" />
    <rect id="tm-530" x="-27.154" y="10.505" width="0.3" height="0.3" transform="rotate(240,-27.004,10.655)" />
    <rect id="tm-531" x="-26.291" y="8.054" width="0.3" height="0.3" transform="rotate(270,-26.141,8.204)" />
    <rect id="tm-532" x="-23.199" y="8.054" width="0.3" height="0.3" transform="rotate(270,-23.049,8.204)" />
    <rect id="tm-533" x="-24.753" y="8.054" width="0.3" height="0.3" transform="rotate(270,-24.603,8.204)" />
    <rect id="tm-534" x="-24.818" y="11.203" width="0.3" height="0.3" transform="rotate(180,-24.668,11.353)" />
    <rect id="tm-535" x="-26.291" y="11.203" width="0.3" height="0.3" transform="rotate(180,-26.141,11.353)" />
    <rect id="tm-536" x="-23.199" y="11.203" width="0.3" height="0.3" transform="rotate(180,-23.049,11.353)" />
  </g>
</svg>