<?xml version="1.0" encoding="utf-8"?>
<svg xmlns="http://www.w3.org/2000/svg" viewBox="-15.788 -13.959 28.935 23.760">
  <g transform="scale(1,-1)">
    <path id="w-14" d="M 0.999,12.87 L 0.999,11.065" />
    <path id="w-15" d="M -6.172,11.065 L -6.172,-8.504" />
    <path id="w-16" d="M -11.962,11.065 L 0.999,11.065" />
    <path id="w-19" d="M 0.999,12.87 L 12.59,12.87" />
    <path id="w-20" d="M 1.067,8.59 L 1.067,5.88" />
    <path id="w-30" d="M -15.13,2.765 L -15.13,-8.052" />
    <path id="w-39" d="M -1.727,5.766 L -6.172,5.766" />
    <path id="w-42" d="M -1.894,5.88 L 1.067,5.88" />
    <path id="w-51" d="M 9.923,12.87 L 9.923,10.504" />
    <path id="w-52" d="M 7.564,10.504 L 12.573,10.504" />
    <path id="w-65" d="M 1.067,8.395 L -1.727,8.395" />
    <path id="w-66" d="M -1.727,5.685 L -1.727,8.395" />
    <path id="w-83" d="M -15.011,13.183 L -15.011,11.041" />
    <path id="w-84" d="M -12.154,5.855 L -12.154,11.049" />
    <path id="w-85" d="M -12.154,11.049 L -12.154,13.183" />
    <path id="w-87" d="M -15.203,5.855 L -12.154,5.855" />
    <path id="w-88" d="M 1.092,4.127 L 2.796,4.127" />
    <path id="w-89" d="M 2.796,4.127 L 2.796,7.15" />
    <path id="w-90" d="M 2.796,10.982 L 0.999,10.982" />
    <path id="w-91" d="M 1.218,6.159 L 2.796,6.159" />
    <path id="w-92" d="M 1.067,7.15 L 2.796,7.15" />
    <path id="w-95" d="M 2.796,10.982 L 2.796,7.15" />
    <path id="w-100" d="M -15.011,13.183 L -12.154,13.183" />
    <path id="w-127" d="M 0.827,-8.755 L 0.827,-8.585" />
    <path id="w-132" d="M -15.011,11.041 L -15.011,5.634" />
    <path id="w-144" d="M 1.194,8.561 L -1.894,8.561" />
    <path id="w-145" d="M -1.894,8.561 L -1.894,5.685" />
    <path id="w-152" d="M 12.229,0.916 L 12.229,-8.649" />
    <path id="w-154" d="M -11.962,11.065 L -11.962,5.663" />
    <path id="w-156" d="M 1.218,5.713 L -1.854,5.713" />
    <path id="w-159" d="M 12.573,0.916 L 12.229,0.916" />
    <path id="w-173" d="M -11.962,5.663 L -14.749,5.663" />
    <path id="w-174" d="M 1.218,5.713 L 1.218,6.159" />
    <path id="w-208" d="M -14.749,5.51 L -15.094,5.51" />
    <path id="w-209" d="M -14.749,5.51 L -14.749,5.663" />
    <path id="w-210" d="M -15.094,2.896 L -15.094,5.855" />
    <path id="w-213" d="M 1.357,-9.172 L 1.357,-8.585" />
    <path id="w-216" d="M -9.727,11.065 L -9.727,6.239" />
    <path id="w-217" d="M -11.962,6.239 L -9.727,6.239" />
    <path id="w-218" d="M -11.962,8.598 L -9.727,8.598" />
    <path id="w-219" d="M 7.564,12.87 L 7.564,10.504" />
    <path id="w-220" d="M 12.275,12.87 L 12.275,10.504" />
    <path id="w-225" d="M -3.827,5.766 L -3.827,1.018" />
    <path id="w-226" d="M -6.172,3.377 L -3.827,3.377" />
    <path id="w-227" d="M -6.172,1.018 L -3.827,1.018" />
    <path id="w-229" d="M -14.765,-8.504 L -6.172,-8.504" />
    <path id="w-230" d="M -14.765,-8.504 L -14.765,-8.012" />
    <path id="w-231" d="M -14.765,-8.012 L -15.13,-8.012" />
    <path id="w-236" d="M -15.232,11.041 L -15.232,13.03" />
    <path id="w-237" d="M -11.933,11.065 L -11.933,13.03" />
    <path id="w-238" d="M -15.232,13.403 L -11.933,13.403" />
    <path id="w-239" d="M -15.232,12.87 L -15.232,13.403" />
    <path id="w-240" d="M -11.933,12.87 L -11.933,13.403" />
    <path id="w-258" d="M -5.907,-8.755 L -5.907,-8.585" />
    <path id="w-261" d="M -6.02,-8.755 L 0.94,-8.755" />
    <path id="w-272" d="M 6.985,-9.244 L 7.62,-9.244" />
    <path id="w-273" d="M 12.229,-8.649 L 12.427,-8.649" />
    <path id="w-277" d="M 1.092,5.713 L 1.092,-8.385" />
    <path id="w-278" d="M 1.397,-9.244 L 2.032,-9.244" />
    <path id="w-367" d="M -15.011,12.784 L -12.154,12.784" />
    <path id="w-303" d="M -6.172,7.047 L -5.823,7.047" />
    <path id="w-304" d="M -5.823,7.047 L -5.823,9.377" />
    <path id="w-305" d="M -5.823,9.377 L -6.172,9.377" />
    <path id="w-368" d="M 1.194,-1.972 L 7.289,-1.972" />
    <path id="w-369" d="M 8.455,-1.972 L 12.205,-1.972" />
    <path id="w-370" d="M 7.289,-1.057 L 8.455,-1.057" />
    <path id="w-371" d="M 7.289,-1.972 L 7.289,-1.057" />
    <path id="w-372" d="M 8.455,-1.972 L 8.455,-1.057" />
    <path id="w-307" d="M 1.092,3.67 L 2.796,3.67" />
    <path id="w-308" d="M 2.796,3.67 L 2.796,4.081" />
  </g>
</svg>