<?xml version="1.0" encoding="utf-8"?>
<svg xmlns="http://www.w3.org/2000/svg" viewBox="-34.485 -31.672 64.597 49.853">
  <g transform="scale(1,-1)">
    <polygon id="sp-4" points="-30.366,10.198 -30.366,7.938 -27.826,7.938 -27.826,10.198" fill="rgba(0,0,255,0.1)" stroke="blue" stroke-width="0.05" />
    <polygon id="sp-44" points="-33.376,5.55 -33.376,-8.306 -27.648,-8.306 -27.648,-8.611 -19.723,-8.611 -19.723,-8.306 -15.164,-8.306 -5.41,-8.306 -5.41,-8.994 1.245,-8.994 12.268,-8.994 12.268,-8.969 12.268,-6.134 12.268,0.876 15.431,0.876 15.584,0.876 20.113,0.876 18.593,12.421 12.59,12.421 1.397,12.421 1.397,10.465 1.397,8.395 1.397,5.55 -1.854,5.55 -1.854,8.395 -1.854,8.523 -1.854,10.465 -1.854,12.421 -12.002,12.421 -12.002,5.55 -15.316,5.55 -15.316,12.421 -27.369,12.421 -27.369,10.478 -27.369,10.325 -27.369,7.684 -30.366,7.684 -30.366,5.55 -33.222,5.55 -33.333,5.55" fill="rgba(0,0,255,0.1)" stroke="blue" stroke-width="0.05" />
    <polygon id="sp-45" points="21.261,-7.847 20.138,0.683 15.583,0.683 15.583,-6.134 15.583,-8.595" fill="rgba(0,0,255,0.1)" stroke="blue" stroke-width="0.05" />
    <polygon id="sp-46" points="-30.366,12.421 -30.366,10.452 -27.562,10.452 -27.562,12.421" fill="rgba(0,0,255,0.1)" stroke="blue" stroke-width="0.05" />
    <polygon id="sp-47" points="1.168,8.522 1.203,8.522 1.203,10.368 -1.661,10.368 -1.661,8.522" fill="rgba(0,0,255,0.1)" stroke="blue" stroke-width="0.05" />
    <polygon id="sp-48" points="1.203,12.421 -1.661,12.421 -1.661,10.562 1.203,10.562" fill="rgba(0,0,255,0.1)" stroke="blue" stroke-width="0.05" />
  </g>
</svg>