<?xml version="1.0" encoding="utf-8"?>
<svg xmlns="http://www.w3.org/2000/svg" viewBox="-34.485 -31.672 64.597 49.853">
  <g transform="scale(1,-1)">
    <rect id="tm-235" x="-15.009" y="11.963" width="0.3" height="0.3" fill="black" transform="rotate(240,-14.859,12.113)" />
    <rect id="tm-236" x="-15.009" y="6.772" width="0.3" height="0.3" fill="black" transform="rotate(240,-14.859,6.922)" />
    <rect id="tm-247" x="-12.456" y="11.963" width="0.3" height="0.3" fill="black" transform="rotate(240,-12.306,12.113)" />
    <rect id="tm-248" x="-12.456" y="6.772" width="0.3" height="0.3" fill="black" transform="rotate(240,-12.306,6.922)" />
    <rect id="tm-259" x="-33.373" y="11.963" width="0.3" height="0.3" fill="black" transform="rotate(240,-33.223,12.113)" />
    <rect id="tm-260" x="-33.373" y="6.518" width="0.3" height="0.3" fill="black" transform="rotate(240,-33.223,6.668)" />
    <rect id="tm-271" x="-30.821" y="11.963" width="0.3" height="0.3" fill="black" transform="rotate(240,-30.671,12.113)" />
    <rect id="tm-272" x="-30.821" y="6.518" width="0.3" height="0.3" fill="black" transform="rotate(240,-30.671,6.668)" />
    <rect id="tm-276" x="12.575" y="-5.217" width="0.3" height="0.3" fill="black" transform="rotate(120,12.725,-5.067)" />
    <rect id="tm-277" x="12.575" y="-0.239" width="0.3" height="0.3" fill="black" transform="rotate(120,12.725,-0.089)" />
    <rect id="tm-279" x="15.128" y="-5.217" width="0.3" height="0.3" fill="black" transform="rotate(120,15.278,-5.067)" />
    <rect id="tm-280" x="15.128" y="-0.239" width="0.3" height="0.3" fill="black" transform="rotate(120,15.278,-0.089)" />
  </g>
</svg>