<?xml version="1.0" encoding="utf-8"?>
<svg xmlns="http://www.w3.org/2000/svg" viewBox="-34.485 -31.672 64.597 49.853">
  <g transform="scale(1,-1)">
    <line id="w-4" x1="-33.68" y1="-8.611" x2="-33.68" y2="5.779" stroke="black" stroke-width="0.61" stroke-linecap="square" />
    <line id="w-5" x1="-33.68" y1="13.03" x2="-30.518" y2="13.03" stroke="black" stroke-width="0.61" stroke-linecap="square" />
    <line id="w-6" x1="21.603" y1="-8.11" x2="18.86" y2="12.725" stroke="black" stroke-width="0.61" stroke-linecap="square" />
    <line id="w-7" x1="-33.68" y1="-8.611" x2="-15.164" y2="-8.611" stroke="black" stroke-width="0.61" stroke-linecap="square" />
    <line id="w-8" x1="-5.715" y1="-8.611" x2="-5.715" y2="-9.299" stroke="black" stroke-width="0.61" stroke-linecap="square" />
    <line id="w-9" x1="-5.715" y1="-9.299" x2="1.245" y2="-9.299" stroke="black" stroke-width="0.61" stroke-linecap="square" />
    <line id="w-10" x1="12.571" y1="-9.299" x2="21.603" y2="-8.11" stroke="black" stroke-width="0.61" stroke-linecap="square" />
    <line id="w-11" x1="-33.277" y1="13.183" x2="-33.277" y2="5.855" stroke="black" stroke-width="0.108" stroke-linecap="square" />
    <line id="w-12" x1="-30.518" y1="5.779" x2="-30.518" y2="13.03" stroke="black" stroke-width="0.305" stroke-linecap="square" />
    <line id="w-13" x1="-33.68" y1="5.779" x2="-30.518" y2="5.779" stroke="black" stroke-width="0.457" stroke-linecap="square" />
    <line id="w-14" x1="15.43" y1="-8.922" x2="15.431" y2="0.724" stroke="black" stroke-width="0.305" stroke-linecap="square" />
    <line id="w-15" x1="12.497" y1="0.724" x2="12.497" y2="-9.299" stroke="black" stroke-width="0.457" stroke-linecap="square" />
    <line id="w-26" x1="-12.154" y1="12.725" x2="12.59" y2="12.725" stroke="black" stroke-width="0.61" stroke-linecap="square" />
    <line id="w-28" x1="15.431" y1="0.724" x2="12.497" y2="0.724" stroke="black" stroke-width="0.305" stroke-linecap="square" />
    <line id="w-33" x1="-15.164" y1="-8.611" x2="-5.715" y2="-8.611" stroke="black" stroke-width="0.61" stroke-linecap="square" />
    <line id="w-34" x1="1.245" y1="-9.299" x2="12.571" y2="-9.299" stroke="black" stroke-width="0.61" stroke-linecap="square" />
    <line id="w-36" x1="-33.68" y1="5.779" x2="-33.68" y2="13.03" stroke="black" stroke-width="0.61" stroke-linecap="square" />
    <line id="w-37" x1="-30.518" y1="12.725" x2="-15.088" y2="12.725" stroke="black" stroke-width="0.61" stroke-linecap="square" />
    <line id="w-43" x1="-30.518" y1="7.811" x2="-27.597" y2="7.811" stroke="black" stroke-width="0.254" stroke-linecap="square" />
    <line id="w-44" x1="-27.597" y1="7.811" x2="-27.597" y2="10.325" stroke="black" stroke-width="0.457" stroke-linecap="square" />
    <line id="w-45" x1="-27.597" y1="10.325" x2="-30.518" y2="10.325" stroke="black" stroke-width="0.254" stroke-linecap="square" />
    <line id="w-46" x1="-1.727" y1="5.778" x2="1.168" y2="5.778" stroke="black" stroke-width="0.457" stroke-linecap="square" />
    <line id="w-47" x1="1.3" y1="8.395" x2="-1.727" y2="8.395" stroke="black" stroke-width="0.254" stroke-linecap="square" />
    <line id="w-48" x1="-1.727" y1="5.778" x2="-1.727" y2="8.395" stroke="black" stroke-width="0.254" stroke-linecap="square" />
    <line id="w-50" x1="1.168" y1="5.778" x2="1.168" y2="8.395" stroke="black" stroke-width="0.457" stroke-linecap="square" />
    <line id="w-97" x1="-27.648" y1="-17.681" x2="-27.648" y2="-8.611" stroke="black" stroke-width="0.61" stroke-linecap="square" />
    <line id="w-98" x1="-19.723" y1="-17.681" x2="-19.723" y2="-8.611" stroke="black" stroke-width="0.61" stroke-linecap="square" />
    <line id="w-205" x1="-27.465" y1="10.325" x2="-27.465" y2="12.725" stroke="black" stroke-width="0.194" stroke-linecap="square" />
    <line id="w-206" x1="-1.757" y1="8.395" x2="-1.757" y2="12.725" stroke="black" stroke-width="0.194" stroke-linecap="square" />
    <line id="w-207" x1="-1.757" y1="10.465" x2="1.3" y2="10.465" stroke="black" stroke-width="0.194" stroke-linecap="square" />
    <line id="w-208" x1="15.431" y1="0.779" x2="20.433" y2="0.779" stroke="black" stroke-width="0.194" stroke-linecap="square" />
    <line id="w-243" x1="12.59" y1="12.725" x2="18.86" y2="12.725" stroke="black" stroke-width="0.61" stroke-linecap="square" />
    <line id="w-244" x1="-15.088" y1="13.03" x2="-15.088" y2="5.779" stroke="black" stroke-width="0.457" stroke-linecap="square" />
    <line id="w-245" x1="-12.154" y1="5.779" x2="-12.154" y2="13.03" stroke="black" stroke-width="0.305" stroke-linecap="square" />
    <line id="w-259" x1="-15.088" y1="5.779" x2="-12.154" y2="5.779" stroke="black" stroke-width="0.457" stroke-linecap="square" />
    <line id="w-303" x1="-15.088" y1="13.03" x2="-12.154" y2="13.03" stroke="black" stroke-width="0.61" stroke-linecap="square" />
    <line id="w-363" x1="1.3" y1="8.395" x2="1.3" y2="12.725" stroke="black" stroke-width="0.194" stroke-linecap="square" />
    <line id="w-416" x1="15.43" y1="-6.134" x2="12.497" y2="-6.134" stroke="black" stroke-width="0.305" stroke-linecap="square" />
    <line id="w-992" x1="-30.493" y1="10.325" x2="-27.597" y2="10.325" stroke="black" stroke-width="0.254" stroke-linecap="square" />
    <line id="w-993" x1="-30.493" y1="7.811" x2="-30.493" y2="10.325" stroke="black" stroke-width="0.254" stroke-linecap="square" />
    <line id="w-994" x1="-27.597" y1="7.811" x2="-30.493" y2="7.811" stroke="black" stroke-width="0.254" stroke-linecap="square" />
    <line id="w-995" x1="-27.597" y1="10.325" x2="-27.597" y2="7.811" stroke="black" stroke-width="0.457" stroke-linecap="square" />
    <line id="w-996" x1="-1.727" y1="8.395" x2="1.168" y2="8.395" stroke="black" stroke-width="0.254" stroke-linecap="square" />
    <line id="w-997" x1="-1.727" y1="5.778" x2="-1.727" y2="8.395" stroke="black" stroke-width="0.254" stroke-linecap="square" />
    <line id="w-998" x1="1.168" y1="5.778" x2="-1.727" y2="5.778" stroke="black" stroke-width="0.457" stroke-linecap="square" />
    <line id="w-999" x1="1.168" y1="8.395" x2="1.168" y2="5.778" stroke="black" stroke-width="0.457" stroke-linecap="square" />
  </g>
</svg>