<?xml version="1.0" encoding="utf-8"?>
<svg xmlns="http://www.w3.org/2000/svg" viewBox="-34.485 -31.672 64.597 49.853">
  <g transform="scale(1,-1)">
    <polygon id="sl-1" points="-32.099,7.861 -33.217,7.861 -33.217,6.013 -30.677,6.013 -30.677,6.16 -30.677,7.176 -30.677,7.83 -31.794,7.83 -31.794,7.296 -32.099,7.296" fill="rgba(128,128,128,0.2)" stroke="gray" stroke-width="0.05" />
    <polygon id="sl-9" points="-27.556,2.788 -15.408,2.788 -15.408,6.604 -16.535,6.604 -16.535,10.128 -17.653,10.128 -17.653,6.261 -19.812,6.261 -19.812,8.807 -21.479,8.807 -21.479,7.741 -27.556,7.741 -27.556,5.826" fill="rgba(128,128,128,0.2)" stroke="gray" stroke-width="0.05" />
    <polygon id="sl-27" points="-15.326,-8.722 -15.326,-2.607 -28.245,-2.607 -28.245,-4.404 -27.823,-4.404 -27.823,-4.597 -27.146,-4.597 -27.146,-6.731 -27.823,-6.731 -27.823,-6.925 -28.245,-6.925 -28.245,-8.722" fill="rgba(128,128,128,0.2)" stroke="gray" stroke-width="0.05" />
    <polygon id="sl-28" points="-30.251,5.566 -30.251,-8.915 -28.384,-8.915 -28.384,-6.731 -28.384,-4.597 -28.384,0.271 -27.708,2.635 -27.708,5.566" fill="rgba(128,128,128,0.2)" stroke="gray" stroke-width="0.05" />
    <polygon id="sl-29" points="-32.391,-8.696 -32.391,-7.477 -31.172,-7.477 -31.172,-8.696" fill="rgba(128,128,128,0.2)" stroke="gray" stroke-width="0.05" />
    <polygon id="sl-71" points="-27.762,-4.597 -27.772,-4.597 -28.438,-4.597 -28.438,-6.731 -27.772,-6.731 -27.762,-6.731" fill="rgba(128,128,128,0.2)" stroke="gray" stroke-width="0.05" />
    <polygon id="sl-72" points="-15.316,-2.413 -15.316,2.635 -27.708,2.635 -28.384,0.271 -28.384,-2.413" fill="rgba(128,128,128,0.2)" stroke="gray" stroke-width="0.05" />
    <polygon id="sl-135" points="-19.964,12.725 -30.366,12.725 -30.366,10.56 -30.366,10.452 -27.572,10.452 -27.572,10.198 -27.572,7.938 -30.366,7.938 -30.366,5.826 -27.572,5.826 -27.572,7.684 -27.572,7.741 -27.556,7.741 -27.369,7.741 -21.479,7.741 -21.479,8.807 -19.812,8.807 -19.812,6.261 -17.653,6.261 -17.653,10.128 -16.535,10.128 -16.535,6.604 -15.408,6.604 -15.408,10.881 -15.408,10.897 -19.964,10.897" fill="rgba(128,128,128,0.2)" stroke="gray" stroke-width="0.05" />
    <polygon id="sl-136" points="-15.164,13.03 -19.964,13.03 -19.964,12.725 -19.964,10.897 -15.408,10.897 -15.408,10.881 -15.164,10.881 -15.164,11.201" fill="rgba(128,128,128,0.2)" stroke="gray" stroke-width="0.05" />
    <polygon id="sl-176" points="-27.813,-6.731 -27.813,-4.597 -28.388,-4.597 -28.388,-6.731" fill="rgba(128,128,128,0.2)" stroke="gray" stroke-width="0.05" />
    <polygon id="sl-177" points="-27.197,-6.731 -27.197,-4.597 -27.772,-4.597 -27.772,-6.731" fill="rgba(128,128,128,0.2)" stroke="gray" stroke-width="0.05" />
    <polygon id="sl-178" points="-27.146,-4.597 -27.823,-4.597 -27.823,-6.731 -27.146,-6.731" fill="rgba(128,128,128,0.2)" stroke="gray" stroke-width="0.05" />
    <polygon id="sl-191" points="-15.164,2.788 -15.408,2.788 -27.556,2.788 -27.556,5.826 -27.572,5.826 -27.708,5.826 -30.286,5.826 -30.366,5.826 -30.671,5.826 -33.741,5.826 -33.741,5.55 -33.741,-8.722 -33.376,-8.722 -15.164,-8.722" fill="rgba(128,128,128,0.2)" stroke="gray" stroke-width="0.05" />
  </g>
</svg>