<?xml version="1.0" encoding="utf-8"?>
<svg xmlns="http://www.w3.org/2000/svg" viewBox="-34.485 -31.672 64.597 49.853">
  <g transform="scale(1,-1)">
    <polygon id="sp-1" points="-33.223,12.725 -33.223,6.007 -30.671,6.007 -30.671,7.811 -30.671,10.325 -30.671,12.725" fill="rgba(0,0,255,0.1)" stroke="blue" stroke-width="0.05" />
    <polygon id="sp-6" points="-27.368,5.566 -27.448,5.566 -27.448,2.896 -15.424,2.896 -15.424,5.779 -15.424,10.881 -16.52,10.881 -16.52,10.174 -16.52,6.558 -16.643,6.558 -16.643,10.112 -17.545,10.112 -17.545,8.574 -17.545,6.153 -17.577,6.153 -17.577,5.721 -21.031,5.721 -21.031,5.566 -21.641,5.566 -21.641,5.721 -27.368,5.721" fill="rgba(0,0,255,0.1)" stroke="blue" stroke-width="0.05" />
    <polygon id="sp-7" points="-27.978,12.71 -30.197,12.71 -30.197,10.56 -27.464,10.56 -27.464,7.811 -27.464,7.797 -27.464,7.757 -27.446,7.757 -21.495,7.757 -21.495,8.823 -19.98,8.823 -19.98,10.879 -19.98,11.041 -19.98,12.71 -21.031,12.71 -21.031,12.332 -21.641,12.332 -21.641,12.71 -27.368,12.71 -27.368,12.332 -27.978,12.332" fill="rgba(0,0,255,0.1)" stroke="blue" stroke-width="0.05" />
    <polygon id="sp-8" points="-15.316,0.441 -18.838,0.441 -19.665,-1.375 -17.387,-2.413 -15.4,-2.413 -15.316,-2.229" fill="rgba(0,0,255,0.1)" stroke="blue" stroke-width="0.05" />
    <polygon id="sp-9" points="-33.639,0.457 -33.639,-0.051 -33.985,-0.051 -33.985,-8.722 -30.364,-8.722 -30.364,-8.893 -28.342,-8.893 -28.342,-8.722 -15.424,-8.722 -15.424,-8.052 -15.164,-8.052 -15.164,-2.607 -15.488,-2.607 -15.742,-3.163 -16.962,-2.607 -22.076,-2.607 -22.334,-3.173 -23.577,-2.607 -27.44,-2.607 -27.716,-2.607 -28.342,-2.607 -28.342,-2.413 -27.578,-2.413 -27.578,-0.225 -28.926,-3.184 -32.85,-1.396 -32.012,0.441 -27.578,0.441 -27.578,1.083 -33.639,1.083 -33.639,1.067 -33.325,1.067 -33.325,0.457" fill="rgba(0,0,255,0.1)" stroke="blue" stroke-width="0.05" />
  </g>
</svg>