<?xml version="1.0" encoding="utf-8"?>
<svg xmlns="http://www.w3.org/2000/svg" viewBox="-34.485 -31.672 64.597 49.853">
  <g transform="scale(1,-1)">
    <rect id="tm-54" x="-29.101" y="6.525" width="0.3" height="0.3" fill="black" transform="rotate(180,-28.951,6.675)" />
    <rect id="tm-164" x="1.83" y="4.993" width="0.3" height="0.3" fill="black" transform="rotate(180,1.98,5.143)" />
    <rect id="tm-175" x="1.83" y="4.993" width="0.3" height="0.3" fill="black" transform="rotate(180,1.98,5.143)" />
    <rect id="tm-176" x="1.83" y="4.993" width="0.3" height="0.3" fill="black" transform="rotate(180,1.98,5.143)" />
    <rect id="tm-177" x="1.83" y="4.993" width="0.3" height="0.3" fill="black" transform="rotate(180,1.98,5.143)" />
    <rect id="tm-178" x="1.83" y="4.993" width="0.3" height="0.3" fill="black" transform="rotate(180,1.98,5.143)" />
    <rect id="tm-270" x="-30.821" y="6.518" width="0.3" height="0.3" fill="black" transform="rotate(240,-30.671,6.668)" />
    <rect id="tm-444" x="-4.344" y="9.535" width="0.3" height="0.3" fill="black" transform="rotate(180,-4.194,9.685)" />
    <rect id="tm-445" x="-4.344" y="6.927" width="0.3" height="0.3" fill="black" transform="rotate(180,-4.194,7.077)" />
    <rect id="tm-446" x="-0.785" y="9.535" width="0.3" height="0.3" fill="black" transform="rotate(180,-0.635,9.685)" />
    <rect id="tm-447" x="1.653" y="9.535" width="0.3" height="0.3" fill="black" transform="rotate(180,1.803,9.685)" />
  </g>
</svg>