<?xml version="1.0" encoding="utf-8"?>
<svg xmlns="http://www.w3.org/2000/svg" viewBox="-34.485 -13.903 19.974 23.222">
  <g transform="scale(1,-1)">
    <line id="w-1" x1="-33.812" y1="-0.051" x2="-33.812" y2="5.634" stroke="black" stroke-width="0.346" stroke-linecap="square" />
    <line id="w-2" x1="-33.833" y1="13.183" x2="-30.518" y2="13.183" stroke="black" stroke-width="0.305" stroke-linecap="square" />
    <line id="w-16" x1="-30.518" y1="5.855" x2="-30.518" y2="12.87" stroke="black" stroke-width="0.305" stroke-linecap="square" />
    <line id="w-17" x1="-33.833" y1="5.855" x2="-30.518" y2="5.855" stroke="black" stroke-width="0.305" stroke-linecap="square" />
    <line id="w-38" x1="-33.833" y1="5.855" x2="-33.833" y2="13.183" stroke="black" stroke-width="0.305" stroke-linecap="square" />
    <line id="w-39" x1="-30.518" y1="12.87" x2="-15.164" y2="12.87" stroke="black" stroke-width="0.321" stroke-linecap="square" />
    <line id="w-53" x1="-27.526" y1="7.644" x2="-27.526" y2="5.818" stroke="black" stroke-width="0.156" stroke-linecap="square" />
    <line id="w-54" x1="-27.578" y1="2.765" x2="-15.13" y2="2.765" stroke="black" stroke-width="0.26" stroke-linecap="square" />
    <line id="w-55" x1="-15.011" y1="11.041" x2="-19.82" y2="11.041" stroke="black" stroke-width="0.321" stroke-linecap="square" />
    <line id="w-56" x1="-19.82" y1="11.041" x2="-19.82" y2="12.87" stroke="black" stroke-width="0.321" stroke-linecap="square" />
    <line id="w-57" x1="-16.581" y1="11.041" x2="-16.581" y2="6.558" stroke="black" stroke-width="0.124" stroke-linecap="square" />
    <line id="w-58" x1="-19.888" y1="11.041" x2="-19.888" y2="6.215" stroke="black" stroke-width="0.184" stroke-linecap="square" />
    <line id="w-59" x1="-27.572" y1="7.695" x2="-21.433" y2="7.695" stroke="black" stroke-width="0.124" stroke-linecap="square" />
    <line id="w-60" x1="-21.433" y1="7.695" x2="-21.433" y2="8.761" stroke="black" stroke-width="0.124" stroke-linecap="square" />
    <line id="w-61" x1="-21.433" y1="8.761" x2="-19.888" y2="8.761" stroke="black" stroke-width="0.124" stroke-linecap="square" />
    <line id="w-94" x1="-27.699" y1="7.811" x2="-27.699" y2="10.325" stroke="black" stroke-width="0.254" stroke-linecap="square" />
    <line id="w-95" x1="-27.699" y1="10.325" x2="-30.518" y2="10.325" stroke="black" stroke-width="0.254" stroke-linecap="square" />
    <line id="w-96" x1="-30.518" y1="7.811" x2="-27.699" y2="7.811" stroke="black" stroke-width="0.254" stroke-linecap="square" />
    <line id="w-357" x1="-27.578" y1="5.818" x2="-25.706" y2="5.818" stroke="black" stroke-width="0.124" stroke-linecap="square" />
    <line id="w-358" x1="-25.706" y1="5.818" x2="-25.706" y2="6.718" stroke="black" stroke-width="0.124" stroke-linecap="square" />
    <line id="w-359" x1="-26.451" y1="10.857" x2="-21.574" y2="10.857" stroke="black" stroke-width="0.124" stroke-linecap="square" />
    <line id="w-366" x1="-30.518" y1="12.87" x2="-30.518" y2="13.183" stroke="black" stroke-width="0.305" stroke-linecap="square" />
    <line id="w-368" x1="-17.607" y1="11.041" x2="-17.607" y2="6.215" stroke="black" stroke-width="0.124" stroke-linecap="square" />
    <line id="w-369" x1="-19.888" y1="6.215" x2="-17.607" y2="6.215" stroke="black" stroke-width="0.124" stroke-linecap="square" />
    <line id="w-370" x1="-19.888" y1="8.574" x2="-17.607" y2="8.574" stroke="black" stroke-width="0.124" stroke-linecap="square" />
    <line id="w-371" x1="-17.607" y1="10.174" x2="-16.581" y2="10.174" stroke="black" stroke-width="0.124" stroke-linecap="square" />
    <line id="w-372" x1="-30.518" y1="5.696" x2="-27.578" y2="5.696" stroke="black" stroke-width="0.26" stroke-linecap="square" />
    <line id="w-373" x1="-27.578" y1="5.696" x2="-27.578" y2="2.765" stroke="black" stroke-width="0.26" stroke-linecap="square" />
    <line id="w-374" x1="-15.37" y1="12.144" x2="-15.37" y2="2.945" stroke="black" stroke-width="0.108" stroke-linecap="square" />
    <line id="w-376" x1="-15.323" y1="-8.153" x2="-15.323" y2="-8.74" stroke="black" stroke-width="0.203" stroke-linecap="square" />
    <line id="w-377" x1="-15.323" y1="-8.74" x2="-15.164" y2="-8.74" stroke="black" stroke-width="0.203" stroke-linecap="square" />
    <line id="w-420" x1="-30.326" y1="5.634" x2="-33.812" y2="5.634" stroke="black" stroke-width="0.137" stroke-linecap="square" />
    <line id="w-432" x1="-27.518" y1="10.506" x2="-30.282" y2="10.506" stroke="black" stroke-width="0.108" stroke-linecap="square" />
    <line id="w-433" x1="-30.282" y1="12.87" x2="-30.282" y2="10.506" stroke="black" stroke-width="0.168" stroke-linecap="square" />
    <line id="w-434" x1="-27.526" y1="7.644" x2="-30.326" y2="7.644" stroke="black" stroke-width="0.079" stroke-linecap="square" />
    <line id="w-435" x1="-27.518" y1="10.506" x2="-27.518" y2="7.695" stroke="black" stroke-width="0.108" stroke-linecap="square" />
    <line id="w-436" x1="-30.326" y1="7.644" x2="-30.326" y2="5.718" stroke="black" stroke-width="0.079" stroke-linecap="square" />
    <line id="w-437" x1="-15.323" y1="-8.153" x2="-15.164" y2="-8.153" stroke="black" stroke-width="0.203" stroke-linecap="square" />
    <line id="w-610" x1="-28.342" y1="-8.819" x2="-15.323" y2="-8.819" stroke="black" stroke-width="0.194" stroke-linecap="square" />
    <line id="w-611" x1="-28.342" y1="-2.51" x2="-28.342" y2="-4.501" stroke="black" stroke-width="0.194" stroke-linecap="square" />
    <line id="w-612" x1="-28.342" y1="-2.51" x2="-15.294" y2="-2.51" stroke="black" stroke-width="0.194" stroke-linecap="square" />
    <line id="w-613" x1="-30.364" y1="-2.51" x2="-30.364" y2="-8.819" stroke="black" stroke-width="0.194" stroke-linecap="square" />
    <line id="w-614" x1="-30.364" y1="-2.51" x2="-33.985" y2="-2.51" stroke="black" stroke-width="0.194" stroke-linecap="square" />
    <line id="w-615" x1="-28.342" y1="-6.828" x2="-28.342" y2="-8.819" stroke="black" stroke-width="0.194" stroke-linecap="square" />
    <line id="w-622" x1="-33.985" y1="13.403" x2="-30.297" y2="13.403" stroke="black" stroke-width="0.137" stroke-linecap="square" />
    <line id="w-623" x1="-30.297" y1="12.87" x2="-30.297" y2="13.403" stroke="black" stroke-width="0.137" stroke-linecap="square" />
    <line id="w-646" x1="-33.277" y1="12.784" x2="-30.518" y2="12.784" stroke="black" stroke-width="0.108" stroke-linecap="square" />
    <line id="w-698" x1="-27.408" y1="6.526" x2="-27.526" y2="6.526" stroke="black" stroke-width="0.079" stroke-linecap="square" />
    <line id="w-699" x1="-27.408" y1="6.526" x2="-27.408" y2="6.145" stroke="black" stroke-width="0.079" stroke-linecap="square" />
    <line id="w-722" x1="-15.094" y1="2.945" x2="-15.37" y2="2.945" stroke="black" stroke-width="0.079" stroke-linecap="square" />
    <line id="w-989" x1="-28.342" y1="-4.501" x2="-27.146" y2="-4.501" stroke="black" stroke-width="0.194" stroke-linecap="square" />
    <line id="w-990" x1="-28.342" y1="-6.828" x2="-27.146" y2="-6.828" stroke="black" stroke-width="0.194" stroke-linecap="square" />
    <line id="w-991" x1="-30.364" y1="-8.819" x2="-33.985" y2="-8.819" stroke="black" stroke-width="0.194" stroke-linecap="square" />
  </g>
</svg>