<?xml version="1.0" encoding="utf-8"?>
<svg xmlns="http://www.w3.org/2000/svg" viewBox="-132.909 190.877 21.419 23.638">
  <g transform="scale(1,-1)">
    <rect id="mn-31" x="-129.313" y="-195.183" width="0.05" height="0.05" fill="black" transform="rotate(240,-129.288,-195.158)" />
    <rect id="mn-32" x="-126.418" y="-195.335" width="0.05" height="0.05" fill="black" transform="rotate(180,-126.393,-195.31)" />
    <rect id="mn-33" x="-121.674" y="-195.183" width="0.05" height="0.05" fill="black" transform="rotate(120,-121.649,-195.158)" />
    <rect id="mn-34" x="-112.165" y="-197.774" width="0.05" height="0.05" fill="black" transform="rotate(240,-112.14,-197.749)" />
    <rect id="mn-35" x="-112.927" y="-195.031" width="0.05" height="0.05" fill="black" transform="rotate(180,-112.902,-195.006)" />
    <rect id="mn-36" x="-112.927" y="-193.38" width="0.05" height="0.05" fill="black" transform="rotate(120,-112.902,-193.355)" />
    <rect id="mn-37" x="-112.317" y="-204.88" width="0.05" height="0.05" fill="black" transform="rotate(180,-112.292,-204.855)" />
    <rect id="mn-38" x="-113.494" y="-204.88" width="0.05" height="0.05" fill="black" transform="rotate(180,-113.469,-204.855)" />
    <rect id="mn-51" x="-112.317" y="-211.777" width="0.05" height="0.05" fill="black" transform="rotate(180,-112.292,-211.752)" />
    <rect id="mn-52" x="-113.494" y="-211.777" width="0.05" height="0.05" fill="black" transform="rotate(180,-113.469,-211.752)" />
    <rect id="mn-53" x="-127.942" y="-195.335" width="0.05" height="0.05" fill="black" transform="rotate(180,-127.917,-195.31)" />
    <rect id="mn-54" x="-127.942" y="-204.727" width="0.05" height="0.05" fill="black" transform="rotate(240,-127.917,-204.702)" />
    <rect id="mn-75" x="-112.165" y="-201.105" width="0.05" height="0.05" fill="black" transform="rotate(240,-112.14,-201.08)" />
    <rect id="mn-76" x="-112.165" y="-195.183" width="0.05" height="0.05" fill="black" transform="rotate(90,-112.14,-195.158)" />
    <rect id="mn-77" x="-112.165" y="-200.597" width="0.05" height="0.05" fill="black" transform="rotate(120,-112.14,-200.572)" />
  </g>
</svg>