<?xml version="1.0" encoding="utf-8"?>
<svg xmlns="http://www.w3.org/2000/svg" viewBox="-33.918 -13.687 55.2 23.839">
  <g transform="scale(1,-1)">
    <rect id="tm-121" x="-25.144" y="5.132" width="0.3" height="0.3" fill="black" transform="rotate(90,-24.994,5.282)" />
    <rect id="tm-122" x="-23.315" y="5.132" width="0.3" height="0.3" fill="black" transform="rotate(90,-23.165,5.282)" />
    <rect id="tm-123" x="-21.486" y="5.132" width="0.3" height="0.3" fill="black" transform="rotate(90,-21.336,5.282)" />
    <rect id="tm-124" x="-19.657" y="5.132" width="0.3" height="0.3" fill="black" transform="rotate(90,-19.507,5.282)" />
    <rect id="tm-125" x="-17.828" y="5.132" width="0.3" height="0.3" fill="black" transform="rotate(90,-17.678,5.282)" />
    <rect id="tm-328" x="-23.924" y="12.88" width="0.3" height="0.3" fill="black" transform="rotate(180,-23.774,13.03)" />
    <rect id="tm-476" x="-20.732" y="3.012" width="0.3" height="0.3" fill="black" transform="rotate(90,-20.582,3.162)" />
    <rect id="tm-477" x="-24.906" y="3.012" width="0.3" height="0.3" fill="black" transform="rotate(90,-24.756,3.162)" />
    <rect id="tm-478" x="-16.533" y="3.012" width="0.3" height="0.3" fill="black" transform="rotate(90,-16.383,3.162)" />
    <rect id="tm-479" x="-18.667" y="3.012" width="0.3" height="0.3" fill="black" transform="rotate(90,-18.517,3.162)" />
    <rect id="tm-480" x="-22.86" y="3.012" width="0.3" height="0.3" fill="black" transform="rotate(90,-22.71,3.162)" />
    <rect id="tm-482" x="-20.322" y="11.708" width="0.3" height="0.3" fill="black" transform="rotate(270,-20.172,11.858)" />
    <rect id="tm-483" x="-20.322" y="10.353" width="0.3" height="0.3" fill="black" transform="rotate(270,-20.172,10.503)" />
    <rect id="tm-484" x="-20.322" y="9.16" width="0.3" height="0.3" fill="black" transform="rotate(90,-20.172,9.31)" />
    <rect id="tm-508" x="-26.24" y="12.88" width="0.3" height="0.3" fill="black" transform="rotate(180,-26.09,13.03)" />
  </g>
</svg>