<?xml version="1.0" encoding="utf-8"?>
<svg xmlns="http://www.w3.org/2000/svg" viewBox="-34.485 -31.672 64.597 49.853">
  <g transform="scale(1,-1)">
    <rect id="c-6" x="-5.281" y="9.337" width="0.3" height="0.3" fill="black" />
    <rect id="c-22" x="7.14" y="-4.024" width="0.3" height="0.3" fill="black" />
    <rect id="c-23" x="7.14" y="0.612" width="0.3" height="0.3" fill="black" />
    <rect id="c-24" x="0.942" y="0.612" width="0.3" height="0.3" fill="black" />
    <rect id="c-25" x="0.971" y="-4.024" width="0.3" height="0.3" fill="black" transform="rotate(90,1.121,-3.874)" />
    <rect id="c-26" x="0.942" y="-8.545" width="0.3" height="0.3" fill="black" />
    <rect id="c-27" x="-6.322" y="-8.545" width="0.3" height="0.3" fill="black" />
    <rect id="c-28" x="-6.351" y="-4.024" width="0.3" height="0.3" fill="black" transform="rotate(90,-6.201,-3.874)" />
    <rect id="c-29" x="-6.322" y="0.612" width="0.3" height="0.3" fill="black" />
    <rect id="c-30" x="12.423" y="-8.545" width="0.3" height="0.3" fill="black" />
    <rect id="c-31" x="7.14" y="12.486" width="0.3" height="0.3" fill="black" />
    <rect id="c-32" x="0.942" y="12.486" width="0.3" height="0.3" fill="black" />
    <rect id="c-33" x="12.423" y="12.486" width="0.3" height="0.3" fill="black" />
    <rect id="c-38" x="19.55" y="5.705" width="0.3" height="0.3" fill="black" />
    <rect id="c-39" x="20.22" y="0.612" width="0.3" height="0.3" fill="black" />
    <rect id="c-40" x="20.83" y="-4.024" width="0.3" height="0.3" fill="black" />
    <rect id="c-41" x="18.657" y="12.486" width="0.3" height="0.3" fill="black" />
    <rect id="c-44" x="7.14" y="-8.545" width="0.3" height="0.3" fill="black" />
    <rect id="c-45" x="12.423" y="5.705" width="0.3" height="0.3" fill="black" />
    <rect id="c-46" x="-6.322" y="5.705" width="0.3" height="0.3" fill="black" />
    <rect id="c-47" x="-6.322" y="12.487" width="0.3" height="0.3" fill="black" />
    <rect id="c-48" x="-21.486" y="12.487" width="0.3" height="0.3" fill="black" />
    <rect id="c-49" x="-27.823" y="12.487" width="0.3" height="0.3" fill="black" />
    <rect id="c-50" x="-33.83" y="0.612" width="0.3" height="0.3" fill="black" />
    <rect id="c-77" x="-15.161" y="0.612" width="0.3" height="0.3" fill="black" />
    <rect id="c-81" x="-15.161" y="-4.024" width="0.3" height="0.3" fill="black" />
    <rect id="c-109" x="7.14" y="5.705" width="0.3" height="0.3" fill="black" />
  </g>
</svg>