<?xml version="1.0" encoding="utf-8"?>
<svg xmlns="http://www.w3.org/2000/svg" viewBox="-34.485 -31.672 64.597 49.853">
  <g transform="scale(1,-1)">
    <circle id="c-6" cx="-5.131" cy="9.487" r="0.051" fill="black" />
    <rect id="c-22" x="6.985" y="-4.179" width="0.61" height="0.61" fill="black" />
    <rect id="c-23" x="6.985" y="0.457" width="0.61" height="0.61" fill="black" />
    <rect id="c-24" x="0.787" y="0.457" width="0.61" height="0.61" fill="black" />
    <rect id="c-25" x="0.816" y="-4.102" width="0.61" height="0.457" fill="black" transform="rotate(90,1.121,-3.874)" />
    <rect id="c-26" x="0.787" y="-8.7" width="0.61" height="0.61" fill="black" />
    <rect id="c-27" x="-6.477" y="-8.7" width="0.61" height="0.61" fill="black" />
    <rect id="c-28" x="-6.43" y="-4.102" width="0.457" height="0.457" fill="black" transform="rotate(90,-6.201,-3.874)" />
    <rect id="c-29" x="-6.477" y="0.457" width="0.61" height="0.61" fill="black" />
    <rect id="c-30" x="12.268" y="-8.7" width="0.61" height="0.61" fill="black" />
    <rect id="c-31" x="6.985" y="12.331" width="0.61" height="0.61" fill="black" />
    <rect id="c-32" x="0.787" y="12.331" width="0.61" height="0.61" fill="black" />
    <rect id="c-33" x="12.268" y="12.331" width="0.61" height="0.61" fill="black" />
    <rect id="c-38" x="19.395" y="5.55" width="0.61" height="0.61" fill="black" />
    <rect id="c-39" x="20.065" y="0.457" width="0.61" height="0.61" fill="black" />
    <rect id="c-40" x="20.675" y="-4.179" width="0.61" height="0.61" fill="black" />
    <rect id="c-41" x="18.502" y="12.331" width="0.61" height="0.61" fill="black" />
    <rect id="c-44" x="6.985" y="-8.7" width="0.61" height="0.61" fill="black" />
    <rect id="c-45" x="12.294" y="5.55" width="0.559" height="0.61" fill="black" />
    <rect id="c-46" x="-6.477" y="5.55" width="0.61" height="0.61" fill="black" />
    <rect id="c-47" x="-6.477" y="12.332" width="0.61" height="0.61" fill="black" />
    <rect id="c-48" x="-21.641" y="12.332" width="0.61" height="0.61" fill="black" />
    <rect id="c-49" x="-27.978" y="12.332" width="0.61" height="0.61" fill="black" />
    <rect id="c-50" x="-33.985" y="0.356" width="0.61" height="0.813" fill="black" />
    <rect id="c-77" x="-15.29" y="0.457" width="0.559" height="0.61" fill="black" />
    <rect id="c-81" x="-15.252" y="-4.179" width="0.483" height="0.61" fill="black" />
    <rect id="c-109" x="6.985" y="5.55" width="0.61" height="0.61" fill="black" />
  </g>
</svg>