<?xml version="1.0" encoding="utf-8"?>
<svg xmlns="http://www.w3.org/2000/svg" viewBox="-34.485 -31.672 64.597 49.853">
  <g transform="scale(1,-1)">
    <line id="d-3" data-host="w-16" x1="-30.518" y1="6.212" x2="-30.518" y2="7.126" stroke="white" stroke-width="0.325" />
    <line id="d-8" data-host="w-415" x1="13.836" y1="0.724" x2="12.922" y2="0.724" stroke="white" stroke-width="0.325" />
    <line id="d-25" data-host="w-837" x1="-10.935" y1="-0.629" x2="-10.021" y2="-0.629" stroke="white" stroke-width="0.204" />
    <line id="d-30" data-host="w-839" x1="5.321" y1="-0.629" x2="6.235" y2="-0.629" stroke="white" stroke-width="0.204" />
    <line id="d-32" data-host="w-833" x1="8.251" y1="3.981" x2="7.337" y2="3.981" stroke="white" stroke-width="0.204" />
    <line id="d-36" data-host="w-85" x1="6.167" y1="2.745" x2="7.081" y2="2.745" stroke="white" stroke-width="0.176" />
    <line id="d-37" data-host="w-77" x1="8.352" y1="0.76" x2="9.266" y2="0.76" stroke="white" stroke-width="0.176" />
    <line id="d-39" data-host="w-78" x1="15.796" y1="0.76" x2="16.71" y2="0.76" stroke="white" stroke-width="0.176" />
    <line id="d-40" data-host="w-79" x1="17.127" y1="0.972" x2="17.127" y2="1.886" stroke="white" stroke-width="0.176" />
    <line id="d-50" data-host="w-72" x1="-7.903" y1="2.745" x2="-6.989" y2="2.745" stroke="white" stroke-width="0.176" />
    <line id="d-60" data-host="w-840" x1="-2.902" y1="-0.629" x2="-1.988" y2="-0.629" stroke="white" stroke-width="0.204" />
    <line id="d-61" data-host="w-77" x1="-9.342" y1="0.76" x2="-8.428" y2="0.76" stroke="white" stroke-width="0.176" />
    <line id="d-62" data-host="w-77" x1="-1.649" y1="0.76" x2="-0.735" y2="0.76" stroke="white" stroke-width="0.176" />
    <line id="d-65" data-host="w-250" x1="-13.425" y1="5.855" x2="-12.511" y2="5.855" stroke="white" stroke-width="0.325" />
    <line id="d-73" data-host="w-365" x1="1.092" y1="5.345" x2="1.092" y2="4.431" stroke="white" stroke-width="0.318" />
    <line id="d-76" data-host="w-269" x1="17.583" y1="-1.199" x2="17.583" y2="-2.113" stroke="white" stroke-width="0.204" />
    <line id="d-77" data-host="w-1031" x1="15.532" y1="4.518" x2="15.532" y2="5.432" stroke="white" stroke-width="0.204" />
    <line id="d-94" data-host="w-182" x1="6.772" y1="6.723" x2="6.772" y2="6.723" stroke="white" stroke-width="0.144" />
    <line id="d-96" data-host="w-557" x1="-15.094" y1="2.102" x2="-15.094" y2="1.188" stroke="white" stroke-width="0.318" />
    <line id="d-99" data-host="w-1034" x1="-9.112" y1="4.518" x2="-9.112" y2="5.432" stroke="white" stroke-width="0.204" />
    <line id="d-102" data-host="w-472" x1="-12.068" y1="1.886" x2="-12.068" y2="0.972" stroke="white" stroke-width="0.16" />
    <line id="d-104" data-host="w-496" x1="-4.653" y1="4.633" x2="-4.653" y2="5.547" stroke="white" stroke-width="0.144" />
    <line id="d-108" data-host="w-526" x1="-28.002" y1="11.579" x2="-28.002" y2="10.665" stroke="white" stroke-width="0.144" />
    <line id="d-119" data-host="w-125" x1="-9.306" y1="-3.37" x2="-9.306" y2="-3.37" stroke="white" stroke-width="0.144" />
    <line id="d-134" data-host="w-39" x1="-27.106" y1="12.87" x2="-26.192" y2="12.87" stroke="white" stroke-width="0.341" />
    <line id="d-135" data-host="w-706" x1="14.347" y1="12.87" x2="15.261" y2="12.87" stroke="white" stroke-width="0.341" />
    <line id="d-139" data-host="w-706" x1="-2.17" y1="12.87" x2="-1.256" y2="12.87" stroke="white" stroke-width="0.341" />
    <line id="d-141" data-host="w-72" x1="-5.894" y1="2.745" x2="-4.98" y2="2.745" stroke="white" stroke-width="0.176" />
    <line id="d-142" data-host="w-1044" x1="-1.273" y1="-3.37" x2="-1.273" y2="-3.37" stroke="white" stroke-width="0.144" />
  </g>
</svg>