<?xml version="1.0" encoding="utf-8"?>
<svg xmlns="http://www.w3.org/2000/svg" viewBox="-34.485 -31.672 64.597 49.853">
  <g transform="scale(1,-1)">
    <polygon id="sp-28" points="-21.641,12.71 -27.368,12.71 -27.368,12.332 -27.94,12.332 -27.94,10.531 -27.464,10.531 -27.464,7.604 -30.286,7.604 -30.286,5.623 -33.665,5.623 -33.665,1.067 -33.376,1.067 -33.376,0.269 -32.091,0.269 -32.552,-0.744 -28.629,-2.532 -27.09,0.845 -26.799,0.712 -25.559,0.147 -25.96,-0.733 -22.037,-2.521 -20.498,0.855 -20.206,0.722 -18.967,0.158 -19.368,-0.723 -15.444,-2.511 -15.243,-2.069 -15.243,0.457 -15.243,1.067 -15.243,2.729 -15.243,5.623 -15.243,12.71 -21.031,12.71 -21.031,12.332 -21.641,12.332" fill="rgba(0,0,255,0.1)" stroke="blue" stroke-width="0.05" />
    <polygon id="sp-29" points="-6.023,12.332 -6.023,6.16 -5.867,6.16 -5.867,5.55 -6.023,5.55 -6.023,2.823 -1.902,2.823 -1.902,5.674 -1.934,5.674 -1.934,8.601 0.943,8.601 0.943,12.332 0.787,12.332 0.787,12.71 -5.867,12.71 -5.867,12.332" fill="rgba(0,0,255,0.1)" stroke="blue" stroke-width="0.05" />
    <polygon id="sp-30" points="-5.867,0.895 0.787,0.895 0.787,1.067 1.397,1.067 1.397,0.838 6.985,0.838 6.985,1.067 7.595,1.067 7.595,0.838 12.341,0.838 12.341,0.956 15.662,0.956 15.662,0.838 17.049,0.838 17.049,2.667 12.573,2.667 2.811,2.667 0.943,2.667 0.943,4.127 0.943,5.674 -1.384,5.674 -1.384,2.667 -6.172,2.667 -11.998,2.667 -11.998,0.838 -6.477,0.838 -6.477,1.067 -5.867,1.067" fill="rgba(0,0,255,0.1)" stroke="blue" stroke-width="0.05" />
    <polygon id="sp-31" points="-6.321,-3.645 -6.321,0.457 -6.477,0.457 -6.477,0.683 -12.068,0.683 -14.656,0.683 -14.656,0.457 -14.945,0.457 -14.945,-2.077 -14.945,-2.633 -14.945,-3.569 -14.707,-3.569 -14.707,-4.178 -14.945,-4.178 -14.945,-7.944 -14.7,-7.944 -14.7,-8.419 -6.477,-8.419 -6.477,-8.09 -6.321,-8.09 -6.321,-4.102 -6.429,-4.102 -6.429,-3.645" fill="rgba(0,0,255,0.1)" stroke="blue" stroke-width="0.05" />
    <polygon id="sp-32" points="-6.321,6.16 -6.321,12.332 -6.477,12.332 -6.477,12.71 -11.922,12.71 -11.922,5.663 -11.922,2.823 -6.321,2.823 -6.321,5.55 -6.477,5.55 -6.477,6.16" fill="rgba(0,0,255,0.1)" stroke="blue" stroke-width="0.05" />
    <polygon id="sp-33" points="1.241,0.457 1.241,-3.569 1.349,-3.569 1.349,-4.178 1.241,-4.178 1.241,-8.09 1.397,-8.09 1.397,-8.534 6.985,-8.534 6.985,-8.09 7.595,-8.09 7.595,-8.534 12.268,-8.534 12.268,-8.09 12.427,-8.09 12.427,-6.366 12.341,-6.366 12.341,0.683 7.595,0.683 7.595,0.457 6.985,0.457 6.985,0.683 1.397,0.683 1.397,0.457" fill="rgba(0,0,255,0.1)" stroke="blue" stroke-width="0.05" />
    <polygon id="sp-34" points="1.241,12.332 1.241,8.561 1.273,8.561 1.273,7.228 2.873,7.228 2.873,6.159 2.873,4.127 2.873,4.05 2.873,4.048 2.873,2.823 12.424,2.823 12.424,5.55 12.268,5.55 12.268,6.159 12.424,6.159 12.424,12.332 12.268,12.332 12.268,12.71 7.595,12.71 7.595,12.332 6.985,12.332 6.985,12.71 1.397,12.71 1.397,12.332" fill="rgba(0,0,255,0.1)" stroke="blue" stroke-width="0.05" />
    <polygon id="sp-35" points="21.511,-7.531 21.504,-7.48 21.07,-4.178 20.676,-4.178 20.676,-3.569 20.989,-3.569 20.704,-1.4 20.459,0.457 20.065,0.457 20.065,0.683 19.334,0.683 17.127,0.683 15.662,0.683 15.662,-6.366 12.725,-6.366 12.725,-8.09 12.878,-8.09 12.878,-8.7 12.878,-8.961 21.237,-7.86 21.199,-7.572" fill="rgba(0,0,255,0.1)" stroke="blue" stroke-width="0.05" />
    <polygon id="sp-36" points="20.265,1.93 19.789,5.55 19.395,5.55 19.395,6.159 19.709,6.159 19.26,9.565 18.896,12.332 18.502,12.332 18.502,12.71 12.878,12.71 12.878,12.332 12.722,12.332 12.722,6.159 12.827,6.159 12.827,5.55 12.722,5.55 12.722,2.823 17.204,2.823 17.204,0.838 19.28,0.838 19.28,1.93" fill="rgba(0,0,255,0.1)" stroke="blue" stroke-width="0.05" />
    <polygon id="sp-49" points="0.943,-9.011 0.943,-8.7 0.918,-8.7 0.918,-9.011" fill="rgba(0,0,255,0.1)" stroke="blue" stroke-width="0.05" />
  </g>
</svg>