<?xml version="1.0" encoding="utf-8"?>
<svg xmlns="http://www.w3.org/2000/svg" viewBox="-34.485 -31.672 64.597 49.853">
  <g transform="scale(1,-1)">
    <rect id="tm-3" x="-8.561" y="-3.408" width="0.3" height="0.3" fill="black" transform="rotate(90,-8.411,-3.258)" />
    <rect id="tm-5" x="7.695" y="-3.408" width="0.3" height="0.3" fill="black" transform="rotate(90,7.845,-3.258)" />
    <rect id="tm-10" x="-8.561" y="-2.112" width="0.3" height="0.3" fill="black" transform="rotate(90,-8.411,-1.962)" />
    <rect id="tm-11" x="-8.561" y="-2.76" width="0.3" height="0.3" fill="black" transform="rotate(90,-8.411,-2.61)" />
    <rect id="tm-14" x="7.695" y="-2.112" width="0.3" height="0.3" fill="black" transform="rotate(90,7.845,-1.962)" />
    <rect id="tm-15" x="7.695" y="-2.76" width="0.3" height="0.3" fill="black" transform="rotate(90,7.845,-2.61)" />
    <rect id="tm-32" x="-14.25" y="-4.446" width="0.3" height="0.3" fill="black" transform="rotate(180,-14.1,-4.296)" />
    <rect id="tm-33" x="-14.25" y="-2.261" width="0.3" height="0.3" fill="black" transform="rotate(180,-14.1,-2.111)" />
    <rect id="tm-34" x="-14.25" y="-0.077" width="0.3" height="0.3" fill="black" transform="rotate(180,-14.1,0.073)" />
    <rect id="tm-35" x="-10.897" y="-0.077" width="0.3" height="0.3" fill="black" transform="rotate(180,-10.747,0.073)" />
    <rect id="tm-36" x="-10.897" y="-4.446" width="0.3" height="0.3" fill="black" transform="rotate(180,-10.747,-4.296)" />
    <rect id="tm-37" x="-7.545" y="-4.446" width="0.3" height="0.3" fill="black" transform="rotate(180,-7.395,-4.296)" />
    <rect id="tm-38" x="-7.545" y="-2.261" width="0.3" height="0.3" fill="black" transform="rotate(180,-7.395,-2.111)" />
    <rect id="tm-39" x="-7.545" y="-0.077" width="0.3" height="0.3" fill="black" transform="rotate(180,-7.395,0.073)" />
    <rect id="tm-92" x="5.568" y="5.176" width="0.3" height="0.3" fill="black" transform="rotate(90,5.718,5.326)" />
    <rect id="tm-93" x="5.568" y="6.471" width="0.3" height="0.3" fill="black" transform="rotate(90,5.718,6.621)" />
    <rect id="tm-94" x="5.568" y="5.824" width="0.3" height="0.3" fill="black" transform="rotate(90,5.718,5.974)" />
    <rect id="tm-101" x="15.776" y="5.854" width="0.3" height="0.3" fill="black" transform="rotate(180,15.926,6.004)" />
    <rect id="tm-102" x="14.48" y="5.854" width="0.3" height="0.3" fill="black" transform="rotate(180,14.63,6.004)" />
    <rect id="tm-103" x="15.128" y="5.854" width="0.3" height="0.3" fill="black" transform="rotate(180,15.278,6.004)" />
    <rect id="tm-113" x="-8.869" y="5.854" width="0.3" height="0.3" fill="black" transform="rotate(180,-8.719,6.004)" />
    <rect id="tm-114" x="-10.164" y="5.854" width="0.3" height="0.3" fill="black" transform="rotate(180,-10.014,6.004)" />
    <rect id="tm-115" x="-9.516" y="5.854" width="0.3" height="0.3" fill="black" transform="rotate(180,-9.366,6.004)" />
    <rect id="tm-122" x="-2.388" y="5.962" width="0.3" height="0.3" fill="black" transform="rotate(180,-2.238,6.112)" />
    <rect id="tm-123" x="-3.684" y="5.962" width="0.3" height="0.3" fill="black" transform="rotate(180,-3.534,6.112)" />
    <rect id="tm-124" x="-3.036" y="5.962" width="0.3" height="0.3" fill="black" transform="rotate(180,-2.886,6.112)" />
    <rect id="tm-181" x="1.83" y="4.993" width="0.3" height="0.3" fill="black" transform="rotate(180,1.98,5.143)" />
    <rect id="tm-215" x="12.575" y="-0.239" width="0.3" height="0.3" fill="black" transform="rotate(120,12.725,-0.089)" />
    <rect id="tm-216" x="12.575" y="-5.217" width="0.3" height="0.3" fill="black" transform="rotate(120,12.725,-5.067)" />
    <rect id="tm-217" x="15.128" y="-0.239" width="0.3" height="0.3" fill="black" transform="rotate(120,15.278,-0.089)" />
    <rect id="tm-218" x="15.128" y="-5.217" width="0.3" height="0.3" fill="black" transform="rotate(120,15.278,-5.067)" />
    <rect id="tm-229" x="-15.009" y="6.772" width="0.3" height="0.3" fill="black" transform="rotate(240,-14.859,6.922)" />
    <rect id="tm-230" x="-15.009" y="11.963" width="0.3" height="0.3" fill="black" transform="rotate(240,-14.859,12.113)" />
    <rect id="tm-241" x="-12.456" y="6.772" width="0.3" height="0.3" fill="black" transform="rotate(240,-12.306,6.922)" />
    <rect id="tm-242" x="-12.456" y="11.963" width="0.3" height="0.3" fill="black" transform="rotate(240,-12.306,12.113)" />
    <rect id="tm-253" x="-33.373" y="6.518" width="0.3" height="0.3" fill="black" transform="rotate(240,-33.223,6.668)" />
    <rect id="tm-254" x="-33.373" y="11.963" width="0.3" height="0.3" fill="black" transform="rotate(240,-33.223,12.113)" />
    <rect id="tm-265" x="-30.821" y="6.518" width="0.3" height="0.3" fill="black" transform="rotate(240,-30.671,6.668)" />
    <rect id="tm-266" x="-30.821" y="11.963" width="0.3" height="0.3" fill="black" transform="rotate(240,-30.671,12.113)" />
    <rect id="tm-387" x="-11.755" y="-3.398" width="0.3" height="0.3" fill="black" transform="rotate(240,-11.605,-3.248)" />
    <rect id="tm-392" x="-10.18" y="-3.398" width="0.3" height="0.3" fill="black" transform="rotate(240,-10.03,-3.248)" />
    <rect id="tm-433" x="-3.281" y="-1.217" width="0.3" height="0.3" fill="black" transform="rotate(180,-3.131,-1.067)" />
    <rect id="tm-434" x="-1.43" y="-2.182" width="0.3" height="0.3" fill="black" transform="rotate(180,-1.28,-2.032)" />
    <rect id="tm-435" x="-1.43" y="-1.129" width="0.3" height="0.3" fill="black" transform="rotate(180,-1.28,-0.979)" />
    <rect id="tm-436" x="-1.43" y="-3.217" width="0.3" height="0.3" fill="black" transform="rotate(180,-1.28,-3.067)" />
    <rect id="tm-437" x="-4.922" y="-3.049" width="0.3" height="0.3" fill="black" transform="rotate(180,-4.772,-2.899)" />
    <rect id="tm-438" x="-4.922" y="-1.527" width="0.3" height="0.3" fill="black" transform="rotate(180,-4.772,-1.377)" />
    <rect id="tm-439" x="-0.542" y="-3.422" width="0.3" height="0.3" fill="black" transform="rotate(90,-0.392,-3.272)" />
    <rect id="tm-440" x="-0.542" y="-2.126" width="0.3" height="0.3" fill="black" transform="rotate(90,-0.392,-1.976)" />
    <rect id="tm-441" x="-0.542" y="-2.774" width="0.3" height="0.3" fill="black" transform="rotate(90,-0.392,-2.624)" />
    <rect id="tm-442" x="-3.719" y="-3.398" width="0.3" height="0.3" fill="black" transform="rotate(240,-3.569,-3.248)" />
    <rect id="tm-443" x="-2.144" y="-3.398" width="0.3" height="0.3" fill="black" transform="rotate(240,-1.994,-3.248)" />
  </g>
</svg>