<?xml version="1.0" encoding="utf-8"?>
<svg xmlns="http://www.w3.org/2000/svg" viewBox="-34.485 -31.672 64.597 49.853">
  <g transform="scale(1,-1)">
    <line id="w-72" x1="-12.068" y1="2.745" x2="-1.492" y2="2.745" stroke="black" stroke-width="0.156" stroke-linecap="square" />
    <line id="w-77" x1="-15.094" y1="0.76" x2="12.381" y2="0.76" stroke="black" stroke-width="0.156" stroke-linecap="square" />
    <line id="w-78" x1="15.623" y1="0.76" x2="20.581" y2="0.76" stroke="black" stroke-width="0.156" stroke-linecap="square" />
    <line id="w-79" x1="17.127" y1="0.76" x2="17.127" y2="2.745" stroke="black" stroke-width="0.156" stroke-linecap="square" />
    <line id="w-82" x1="-1.492" y1="5.713" x2="-1.492" y2="2.745" stroke="black" stroke-width="0.216" stroke-linecap="square" />
    <line id="w-85" x1="1.092" y1="2.745" x2="17.127" y2="2.745" stroke="black" stroke-width="0.156" stroke-linecap="square" />
    <line id="w-123" x1="-13.491" y1="-0.598" x2="-12.738" y2="-0.598" stroke="black" stroke-width="0.124" stroke-linecap="square" />
    <line id="w-124" x1="-12.738" y1="-3.624" x2="-12.738" y2="-0.629" stroke="black" stroke-width="0.184" stroke-linecap="square" />
    <line id="w-125" x1="-8.757" y1="-3.37" x2="-9.825" y2="-3.37" stroke="black" stroke-width="0.124" stroke-linecap="square" />
    <line id="w-126" x1="-8.726" y1="-0.598" x2="-8.726" y2="-1.36" stroke="black" stroke-width="0.124" stroke-linecap="square" />
    <line id="w-127" x1="-13.491" y1="-3.624" x2="-12.738" y2="-3.624" stroke="black" stroke-width="0.124" stroke-linecap="square" />
    <line id="w-128" x1="-9.825" y1="-1.36" x2="-8.726" y2="-1.36" stroke="black" stroke-width="0.124" stroke-linecap="square" />
    <line id="w-129" x1="-8.757" y1="-3.624" x2="-8.004" y2="-3.624" stroke="black" stroke-width="0.124" stroke-linecap="square" />
    <line id="w-130" x1="-9.825" y1="-3.34" x2="-9.825" y2="-2.734" stroke="black" stroke-width="0.124" stroke-linecap="square" />
    <line id="w-131" x1="-12.738" y1="-1.535" x2="-11.935" y2="-1.535" stroke="black" stroke-width="0.124" stroke-linecap="square" />
    <line id="w-132" x1="-8.726" y1="-0.598" x2="-8.004" y2="-0.598" stroke="black" stroke-width="0.124" stroke-linecap="square" />
    <line id="w-133" x1="-9.825" y1="-0.598" x2="-8.726" y2="-0.598" stroke="black" stroke-width="0.124" stroke-linecap="square" />
    <line id="w-157" x1="2.765" y1="-0.598" x2="3.518" y2="-0.598" stroke="black" stroke-width="0.124" stroke-linecap="square" />
    <line id="w-158" x1="3.518" y1="-3.624" x2="3.518" y2="-0.629" stroke="black" stroke-width="0.184" stroke-linecap="square" />
    <line id="w-159" x1="7.499" y1="-3.37" x2="6.431" y2="-3.37" stroke="black" stroke-width="0.124" stroke-linecap="square" />
    <line id="w-160" x1="7.53" y1="-0.598" x2="7.53" y2="-1.36" stroke="black" stroke-width="0.124" stroke-linecap="square" />
    <line id="w-161" x1="2.765" y1="-3.624" x2="3.518" y2="-3.624" stroke="black" stroke-width="0.124" stroke-linecap="square" />
    <line id="w-162" x1="6.431" y1="-1.36" x2="7.53" y2="-1.36" stroke="black" stroke-width="0.124" stroke-linecap="square" />
    <line id="w-163" x1="7.499" y1="-3.624" x2="8.252" y2="-3.624" stroke="black" stroke-width="0.124" stroke-linecap="square" />
    <line id="w-164" x1="6.431" y1="-3.34" x2="6.431" y2="-2.734" stroke="black" stroke-width="0.124" stroke-linecap="square" />
    <line id="w-165" x1="3.518" y1="-1.535" x2="4.321" y2="-1.535" stroke="black" stroke-width="0.124" stroke-linecap="square" />
    <line id="w-166" x1="7.53" y1="-0.598" x2="8.252" y2="-0.598" stroke="black" stroke-width="0.124" stroke-linecap="square" />
    <line id="w-167" x1="6.431" y1="-0.598" x2="7.53" y2="-0.598" stroke="black" stroke-width="0.124" stroke-linecap="square" />
    <line id="w-180" x1="10.798" y1="3.951" x2="10.046" y2="3.951" stroke="black" stroke-width="0.124" stroke-linecap="square" />
    <line id="w-181" x1="10.046" y1="6.977" x2="10.046" y2="3.981" stroke="black" stroke-width="0.184" stroke-linecap="square" />
    <line id="w-182" x1="6.064" y1="6.723" x2="7.45" y2="6.723" stroke="black" stroke-width="0.124" stroke-linecap="square" />
    <line id="w-183" x1="6.034" y1="3.951" x2="6.034" y2="4.653" stroke="black" stroke-width="0.124" stroke-linecap="square" />
    <line id="w-184" x1="10.798" y1="6.977" x2="10.046" y2="6.977" stroke="black" stroke-width="0.124" stroke-linecap="square" />
    <line id="w-185" x1="7.133" y1="3.981" x2="7.133" y2="4.653" stroke="black" stroke-width="0.124" stroke-linecap="square" />
    <line id="w-186" x1="7.133" y1="4.653" x2="6.034" y2="4.653" stroke="black" stroke-width="0.124" stroke-linecap="square" />
    <line id="w-187" x1="6.064" y1="6.977" x2="5.312" y2="6.977" stroke="black" stroke-width="0.124" stroke-linecap="square" />
    <line id="w-188" x1="7.099" y1="6.09" x2="7.099" y2="5.661" stroke="black" stroke-width="0.057" stroke-linecap="square" />
    <line id="w-189" x1="10.046" y1="4.866" x2="9.242" y2="4.866" stroke="black" stroke-width="0.124" stroke-linecap="square" />
    <line id="w-190" x1="6.034" y1="3.951" x2="5.312" y2="3.951" stroke="black" stroke-width="0.124" stroke-linecap="square" />
    <line id="w-191" x1="7.133" y1="3.951" x2="6.034" y2="3.951" stroke="black" stroke-width="0.124" stroke-linecap="square" />
    <line id="w-231" x1="-5.058" y1="-0.598" x2="-4.331" y2="-0.598" stroke="black" stroke-width="0.124" stroke-linecap="square" />
    <line id="w-232" x1="-1.792" y1="-3.34" x2="-4.331" y2="-3.34" stroke="black" stroke-width="0.184" stroke-linecap="square" />
    <line id="w-233" x1="-0.694" y1="-0.598" x2="-0.694" y2="-1.36" stroke="black" stroke-width="0.124" stroke-linecap="square" />
    <line id="w-234" x1="-1.792" y1="-0.629" x2="-1.792" y2="-3.37" stroke="black" stroke-width="0.124" stroke-linecap="square" />
    <line id="w-235" x1="-1.792" y1="-1.36" x2="-0.724" y2="-1.36" stroke="black" stroke-width="0.124" stroke-linecap="square" />
    <line id="w-236" x1="-0.724" y1="-3.624" x2="0.029" y2="-3.624" stroke="black" stroke-width="0.124" stroke-linecap="square" />
    <line id="w-237" x1="-0.694" y1="-0.598" x2="0.029" y2="-0.598" stroke="black" stroke-width="0.124" stroke-linecap="square" />
    <line id="w-238" x1="-1.792" y1="-0.598" x2="-0.694" y2="-0.598" stroke="black" stroke-width="0.124" stroke-linecap="square" />
    <line id="w-239" x1="-4.331" y1="-3.624" x2="-4.331" y2="-0.629" stroke="black" stroke-width="0.184" stroke-linecap="square" />
    <line id="w-240" x1="-5.058" y1="-3.624" x2="-4.331" y2="-3.624" stroke="black" stroke-width="0.124" stroke-linecap="square" />
    <line id="w-241" x1="-4.331" y1="-1.535" x2="-3.477" y2="-1.535" stroke="black" stroke-width="0.124" stroke-linecap="square" />
    <line id="w-265" x1="-13.911" y1="5.663" x2="-13.911" y2="2.729" stroke="black" stroke-width="0.184" stroke-linecap="square" />
    <line id="w-266" x1="-13.911" y1="2.729" x2="-15.094" y2="2.729" stroke="black" stroke-width="0.124" stroke-linecap="square" />
    <line id="w-269" x1="17.583" y1="0.76" x2="17.583" y2="-2.337" stroke="black" stroke-width="0.184" stroke-linecap="square" />
    <line id="w-270" x1="16.943" y1="0.76" x2="16.943" y2="-0.772" stroke="black" stroke-width="0.124" stroke-linecap="square" />
    <line id="w-271" x1="20.989" y1="-2.337" x2="16.943" y2="-2.337" stroke="black" stroke-width="0.184" stroke-linecap="square" />
    <line id="w-272" x1="16.943" y1="-2.337" x2="16.943" y2="-3.14" stroke="black" stroke-width="0.124" stroke-linecap="square" />
    <line id="w-273" x1="20.753" y1="-1.411" x2="19.61" y2="-1.411" stroke="black" stroke-width="0.124" stroke-linecap="square" />
    <line id="w-274" x1="20.73" y1="-0.373" x2="19.61" y2="-0.373" stroke="black" stroke-width="0.124" stroke-linecap="square" />
    <line id="w-275" x1="16.943" y1="-0.772" x2="17.583" y2="-0.772" stroke="black" stroke-width="0.184" stroke-linecap="square" />
    <line id="w-276" x1="15.532" y1="2.745" x2="15.532" y2="4.077" stroke="black" stroke-width="0.184" stroke-linecap="square" />
    <line id="w-277" x1="16.293" y1="2.745" x2="16.293" y2="4.077" stroke="black" stroke-width="0.124" stroke-linecap="square" />
    <line id="w-278" x1="12.573" y1="5.658" x2="16.293" y2="5.658" stroke="black" stroke-width="0.184" stroke-linecap="square" />
    <line id="w-279" x1="16.293" y1="5.658" x2="16.293" y2="6.48" stroke="black" stroke-width="0.124" stroke-linecap="square" />
    <line id="w-280" x1="12.573" y1="4.713" x2="13.637" y2="4.713" stroke="black" stroke-width="0.124" stroke-linecap="square" />
    <line id="w-281" x1="12.573" y1="3.675" x2="13.637" y2="3.675" stroke="black" stroke-width="0.124" stroke-linecap="square" />
    <line id="w-339" x1="-28.612" y1="-2.881" x2="-32.973" y2="-0.894" stroke="black" stroke-width="0.622" stroke-linecap="square" />
    <line id="w-341" x1="-32.827" y1="-0.96" x2="-32.34" y2="0.109" stroke="black" stroke-width="0.321" stroke-linecap="square" />
    <line id="w-343" x1="-28.612" y1="-2.881" x2="-26.944" y2="0.778" stroke="black" stroke-width="0.321" stroke-linecap="square" />
    <line id="w-345" x1="-22.02" y1="-2.87" x2="-26.381" y2="-0.883" stroke="black" stroke-width="0.622" stroke-linecap="square" />
    <line id="w-347" x1="-26.235" y1="-0.95" x2="-25.771" y2="0.068" stroke="black" stroke-width="0.321" stroke-linecap="square" />
    <line id="w-349" x1="-22.02" y1="-2.87" x2="-20.352" y2="0.789" stroke="black" stroke-width="0.321" stroke-linecap="square" />
    <line id="w-351" x1="-15.427" y1="-2.86" x2="-19.789" y2="-0.873" stroke="black" stroke-width="0.622" stroke-linecap="square" />
    <line id="w-353" x1="-19.643" y1="-0.939" x2="-19.179" y2="0.078" stroke="black" stroke-width="0.321" stroke-linecap="square" />
    <line id="w-354" x1="-15.427" y1="-2.86" x2="-15.13" y2="-2.208" stroke="black" stroke-width="0.321" stroke-linecap="square" />
    <line id="w-381" x1="-8.757" y1="-1.36" x2="-8.757" y2="-3.624" stroke="black" stroke-width="0.184" stroke-linecap="square" />
    <line id="w-383" x1="7.499" y1="-1.36" x2="7.499" y2="-3.624" stroke="black" stroke-width="0.184" stroke-linecap="square" />
    <line id="w-385" x1="6.064" y1="4.653" x2="6.064" y2="6.977" stroke="black" stroke-width="0.184" stroke-linecap="square" />
    <line id="w-387" x1="-0.724" y1="-1.36" x2="-0.724" y2="-3.624" stroke="black" stroke-width="0.184" stroke-linecap="square" />
    <line id="w-392" x1="7.45" y1="6.723" x2="7.45" y2="6.09" stroke="black" stroke-width="0.124" stroke-linecap="square" />
    <line id="w-393" x1="7.099" y1="5.661" x2="7.483" y2="5.661" stroke="black" stroke-width="0.057" stroke-linecap="square" />
    <line id="w-406" x1="7.099" y1="6.09" x2="7.483" y2="6.09" stroke="black" stroke-width="0.057" stroke-linecap="square" />
    <line id="w-407" x1="7.483" y1="6.09" x2="7.483" y2="5.661" stroke="black" stroke-width="0.057" stroke-linecap="square" />
    <line id="w-408" x1="6.064" y1="6.026" x2="7.099" y2="6.026" stroke="black" stroke-width="0.184" stroke-linecap="square" />
    <line id="w-456" x1="-9.112" y1="2.745" x2="-9.112" y2="4.077" stroke="black" stroke-width="0.184" stroke-linecap="square" />
    <line id="w-457" x1="-8.352" y1="2.745" x2="-8.352" y2="4.077" stroke="black" stroke-width="0.124" stroke-linecap="square" />
    <line id="w-458" x1="-12.154" y1="5.658" x2="-8.352" y2="5.658" stroke="black" stroke-width="0.184" stroke-linecap="square" />
    <line id="w-459" x1="-8.352" y1="5.658" x2="-8.352" y2="6.48" stroke="black" stroke-width="0.124" stroke-linecap="square" />
    <line id="w-460" x1="-12.03" y1="4.713" x2="-11.008" y2="4.713" stroke="black" stroke-width="0.124" stroke-linecap="square" />
    <line id="w-461" x1="-12.03" y1="3.675" x2="-11.008" y2="3.675" stroke="black" stroke-width="0.124" stroke-linecap="square" />
    <line id="w-472" x1="-12.068" y1="2.745" x2="-12.068" y2="0.76" stroke="black" stroke-width="0.14" stroke-linecap="square" />
    <line id="w-473" x1="-12.03" y1="2.745" x2="-12.03" y2="5.663" stroke="black" stroke-width="0.216" stroke-linecap="square" />
    <line id="w-474" x1="-11.962" y1="12.87" x2="-11.962" y2="5.663" stroke="black" stroke-width="0.079" stroke-linecap="square" />
    <line id="w-475" x1="-11.962" y1="5.663" x2="-15.203" y2="5.663" stroke="black" stroke-width="0.079" stroke-linecap="square" />
    <line id="w-486" x1="1.233" y1="8.561" x2="-1.894" y2="8.561" stroke="black" stroke-width="0.079" stroke-linecap="square" />
    <line id="w-487" x1="-1.894" y1="8.561" x2="-1.894" y2="5.713" stroke="black" stroke-width="0.079" stroke-linecap="square" />
    <line id="w-488" x1="1.233" y1="8.561" x2="1.233" y2="7.15" stroke="black" stroke-width="0.079" stroke-linecap="square" />
    <line id="w-489" x1="1.218" y1="5.713" x2="-1.894" y2="5.713" stroke="black" stroke-width="0.079" stroke-linecap="square" />
    <line id="w-490" x1="1.218" y1="5.713" x2="1.218" y2="6.159" stroke="black" stroke-width="0.048" stroke-linecap="square" />
    <line id="w-496" x1="-4.653" y1="4.129" x2="-4.653" y2="5.766" stroke="black" stroke-width="0.124" stroke-linecap="square" />
    <line id="w-497" x1="-4.175" y1="2.745" x2="-4.175" y2="4.129" stroke="black" stroke-width="0.184" stroke-linecap="square" />
    <line id="w-498" x1="-4.82" y1="2.745" x2="-4.82" y2="4.129" stroke="black" stroke-width="0.152" stroke-linecap="square" />
    <line id="w-499" x1="-4.82" y1="4.129" x2="-4.175" y2="4.129" stroke="black" stroke-width="0.124" stroke-linecap="square" />
    <line id="w-500" x1="-4.623" y1="5.766" x2="-1.934" y2="5.766" stroke="black" stroke-width="0.184" stroke-linecap="square" />
    <line id="w-501" x1="-1.492" y1="4.697" x2="-2.515" y2="4.697" stroke="black" stroke-width="0.124" stroke-linecap="square" />
    <line id="w-504" x1="7.45" y1="6.693" x2="10.046" y2="6.693" stroke="black" stroke-width="0.184" stroke-linecap="square" />
    <line id="w-520" x1="-30.326" y1="5.663" x2="-33.825" y2="5.663" stroke="black" stroke-width="0.079" stroke-linecap="square" />
    <line id="w-521" x1="-27.518" y1="10.492" x2="-30.282" y2="10.492" stroke="black" stroke-width="0.079" stroke-linecap="square" />
    <line id="w-522" x1="-30.282" y1="12.87" x2="-30.282" y2="10.492" stroke="black" stroke-width="0.168" stroke-linecap="square" />
    <line id="w-523" x1="-27.518" y1="7.644" x2="-30.326" y2="7.644" stroke="black" stroke-width="0.079" stroke-linecap="square" />
    <line id="w-524" x1="-27.518" y1="10.492" x2="-27.518" y2="7.644" stroke="black" stroke-width="0.108" stroke-linecap="square" />
    <line id="w-525" x1="-30.326" y1="7.644" x2="-30.326" y2="5.663" stroke="black" stroke-width="0.079" stroke-linecap="square" />
    <line id="w-526" x1="-28.002" y1="12.87" x2="-28.002" y2="10.492" stroke="black" stroke-width="0.124" stroke-linecap="square" />
    <line id="w-528" x1="-15.203" y1="12.87" x2="-15.203" y2="5.623" stroke="black" stroke-width="0.079" stroke-linecap="square" />
    <line id="w-546" x1="12.381" y1="0.916" x2="12.381" y2="-6.326" stroke="black" stroke-width="0.079" stroke-linecap="square" />
    <line id="w-547" x1="15.623" y1="0.916" x2="15.623" y2="-6.326" stroke="black" stroke-width="0.079" stroke-linecap="square" />
    <line id="w-548" x1="15.623" y1="0.916" x2="12.381" y2="0.916" stroke="black" stroke-width="0.079" stroke-linecap="square" />
    <line id="w-549" x1="15.623" y1="-6.326" x2="12.381" y2="-6.326" stroke="black" stroke-width="0.079" stroke-linecap="square" />
    <line id="w-555" x1="-15.13" y1="-2.208" x2="-15.13" y2="-7.998" stroke="black" stroke-width="0.371" stroke-linecap="square" />
    <line id="w-556" x1="-15.094" y1="5.663" x2="-15.094" y2="-2.633" stroke="black" stroke-width="0.298" stroke-linecap="square" />
    <line id="w-566" x1="7.025" y1="-3.632" x2="7.025" y2="-3.37" stroke="black" stroke-width="0.079" stroke-linecap="square" />
    <line id="w-568" x1="2.811" y1="4.05" x2="2.811" y2="2.745" stroke="black" stroke-width="0.124" stroke-linecap="square" />
    <line id="w-586" x1="-9.825" y1="-3.34" x2="-12.738" y2="-3.34" stroke="black" stroke-width="0.184" stroke-linecap="square" />
    <line id="w-588" x1="6.431" y1="-3.34" x2="3.518" y2="-3.34" stroke="black" stroke-width="0.184" stroke-linecap="square" />
    <line id="w-591" x1="-9.825" y1="-2.734" x2="-8.757" y2="-2.734" stroke="black" stroke-width="0.184" stroke-linecap="square" />
    <line id="w-593" x1="6.431" y1="-2.734" x2="7.499" y2="-2.734" stroke="black" stroke-width="0.184" stroke-linecap="square" />
    <line id="w-603" x1="-6.475" y1="-8.504" x2="-14.754" y2="-8.504" stroke="black" stroke-width="0.168" stroke-linecap="square" />
    <line id="w-604" x1="-15.13" y1="-7.998" x2="-14.754" y2="-7.998" stroke="black" stroke-width="0.108" stroke-linecap="square" />
    <line id="w-605" x1="-14.754" y1="-7.998" x2="-14.754" y2="-8.504" stroke="black" stroke-width="0.108" stroke-linecap="square" />
    <line id="w-608" x1="-14.754" y1="-3.874" x2="-6.477" y2="-3.874" stroke="black" stroke-width="0.267" stroke-linecap="square" />
    <line id="w-620" x1="-14.754" y1="-8.379" x2="-6.477" y2="-8.379" stroke="black" stroke-width="0.235" stroke-linecap="square" />
    <line id="w-656" x1="-6.02" y1="-9.095" x2="1.092" y2="-9.095" stroke="black" stroke-width="0.168" stroke-linecap="square" />
    <line id="w-657" x1="-5.907" y1="-9.011" x2="-5.907" y2="-8.668" stroke="black" stroke-width="0.079" stroke-linecap="square" />
    <line id="w-658" x1="1.092" y1="-9.082" x2="12.576" y2="-9.082" stroke="black" stroke-width="0.168" stroke-linecap="square" />
    <line id="w-660" x1="1.357" y1="-9.082" x2="1.357" y2="-8.7" stroke="black" stroke-width="0.079" stroke-linecap="square" />
    <line id="w-664" x1="21.516" y1="-7.57" x2="21.244" y2="-7.606" stroke="black" stroke-width="0.079" stroke-linecap="square" />
    <line id="w-665" x1="21.266" y1="-7.776" x2="21.244" y2="-7.606" stroke="black" stroke-width="0.079" stroke-linecap="square" />
    <line id="w-666" x1="12.686" y1="-9.071" x2="21.327" y2="-7.933" stroke="black" stroke-width="0.168" stroke-linecap="square" />
    <line id="w-667" x1="12.838" y1="-8.935" x2="12.838" y2="-8.7" stroke="black" stroke-width="0.079" stroke-linecap="square" />
    <line id="w-682" x1="-6.172" y1="0.762" x2="1.092" y2="0.762" stroke="black" stroke-width="0.267" stroke-linecap="square" />
    <line id="w-692" x1="-5.867" y1="-8.379" x2="0.787" y2="-8.379" stroke="black" stroke-width="0.235" stroke-linecap="square" />
    <line id="w-701" x1="-33.825" y1="0.762" x2="-15.094" y2="0.762" stroke="black" stroke-width="0.47" stroke-linecap="square" />
    <line id="w-724" x1="-14.945" y1="-8.138" x2="-14.945" y2="5.663" stroke="black" stroke-width="0.235" stroke-linecap="square" />
    <line id="w-727" x1="-11.962" y1="12.621" x2="-6.477" y2="12.621" stroke="black" stroke-width="0.235" stroke-linecap="square" />
    <line id="w-733" x1="1.397" y1="-8.401" x2="6.985" y2="-8.401" stroke="black" stroke-width="0.267" stroke-linecap="square" />
    <line id="w-736" x1="12.838" y1="-8.822" x2="21.258" y2="-7.713" stroke="black" stroke-width="0.286" stroke-linecap="square" />
    <line id="w-830" x1="-4.623" y1="5.766" x2="-4.623" y2="6.569" stroke="black" stroke-width="0.184" stroke-linecap="square" />
    <line id="w-833" x1="10.046" y1="3.981" x2="7.133" y2="3.981" stroke="black" stroke-width="0.184" stroke-linecap="square" />
    <line id="w-837" x1="-12.738" y1="-0.629" x2="-9.825" y2="-0.629" stroke="black" stroke-width="0.184" stroke-linecap="square" />
    <line id="w-839" x1="3.518" y1="-0.629" x2="6.431" y2="-0.629" stroke="black" stroke-width="0.184" stroke-linecap="square" />
    <line id="w-840" x1="-4.331" y1="-0.629" x2="-1.792" y2="-0.629" stroke="black" stroke-width="0.184" stroke-linecap="square" />
    <line id="w-845" x1="12.722" y1="6.407" x2="16.297" y2="6.407" stroke="black" stroke-width="0.108" stroke-linecap="square" />
    <line id="w-846" x1="16.297" y1="6.407" x2="16.297" y2="2.823" stroke="black" stroke-width="0.108" stroke-linecap="square" />
    <line id="w-851" x1="-11.922" y1="6.407" x2="-8.347" y2="6.407" stroke="black" stroke-width="0.108" stroke-linecap="square" />
    <line id="w-852" x1="-8.347" y1="6.407" x2="-8.347" y2="2.823" stroke="black" stroke-width="0.108" stroke-linecap="square" />
    <line id="w-855" x1="-11.962" y1="5.855" x2="-6.477" y2="5.855" stroke="black" stroke-width="0.267" stroke-linecap="square" />
    <line id="w-856" x1="-14.754" y1="0.76" x2="-6.477" y2="0.76" stroke="black" stroke-width="0.267" stroke-linecap="square" />
    <line id="w-861" x1="-5.867" y1="12.621" x2="0.787" y2="12.621" stroke="black" stroke-width="0.235" stroke-linecap="square" />
    <line id="w-862" x1="-6.172" y1="5.855" x2="-1.894" y2="5.855" stroke="black" stroke-width="0.267" stroke-linecap="square" />
    <line id="w-863" x1="1.092" y1="12.621" x2="7.29" y2="12.621" stroke="black" stroke-width="0.235" stroke-linecap="square" />
    <line id="w-864" x1="1.218" y1="5.855" x2="7.071" y2="5.855" stroke="black" stroke-width="0.267" stroke-linecap="square" />
    <line id="w-865" x1="7.29" y1="12.621" x2="12.573" y2="12.621" stroke="black" stroke-width="0.235" stroke-linecap="square" />
    <line id="w-866" x1="7.512" y1="5.855" x2="12.573" y2="5.855" stroke="black" stroke-width="0.267" stroke-linecap="square" />
    <line id="w-867" x1="12.573" y1="12.621" x2="19.02" y2="12.621" stroke="black" stroke-width="0.235" stroke-linecap="square" />
    <line id="w-868" x1="12.573" y1="5.855" x2="19.395" y2="5.855" stroke="black" stroke-width="0.267" stroke-linecap="square" />
    <line id="w-869" x1="-6.172" y1="-3.874" x2="1.092" y2="-3.874" stroke="black" stroke-width="0.267" stroke-linecap="square" />
    <line id="w-870" x1="1.092" y1="-3.874" x2="6.985" y2="-3.874" stroke="black" stroke-width="0.267" stroke-linecap="square" />
    <line id="w-871" x1="7.595" y1="-3.874" x2="12.381" y2="-3.874" stroke="black" stroke-width="0.267" stroke-linecap="square" />
    <line id="w-872" x1="15.623" y1="-3.874" x2="20.676" y2="-3.874" stroke="black" stroke-width="0.267" stroke-linecap="square" />
    <line id="w-876" x1="19.334" y1="0.76" x2="19.334" y2="1.876" stroke="black" stroke-width="0.108" stroke-linecap="square" />
    <line id="w-877" x1="19.334" y1="1.876" x2="20.434" y2="1.876" stroke="black" stroke-width="0.108" stroke-linecap="square" />
    <line id="w-922" x1="1.092" y1="0.76" x2="6.985" y2="0.76" stroke="black" stroke-width="0.267" stroke-linecap="square" />
    <line id="w-923" x1="7.595" y1="0.76" x2="12.381" y2="0.76" stroke="black" stroke-width="0.267" stroke-linecap="square" />
    <line id="w-931" x1="-4.842" y1="2.823" x2="-4.842" y2="6.525" stroke="black" stroke-width="0.108" stroke-linecap="square" />
    <line id="w-932" x1="-4.842" y1="6.525" x2="-1.934" y2="6.525" stroke="black" stroke-width="0.108" stroke-linecap="square" />
    <line id="w-935" x1="5.366" y1="7.01" x2="10.744" y2="7.01" stroke="black" stroke-width="0.108" stroke-linecap="square" />
    <line id="w-936" x1="10.744" y1="7.01" x2="10.744" y2="3.943" stroke="black" stroke-width="0.108" stroke-linecap="square" />
    <line id="w-937" x1="10.744" y1="3.943" x2="5.366" y2="3.943" stroke="black" stroke-width="0.108" stroke-linecap="square" />
    <line id="w-938" x1="5.366" y1="3.943" x2="5.366" y2="7.01" stroke="black" stroke-width="0.108" stroke-linecap="square" />
    <line id="w-959" x1="-13.437" y1="-0.591" x2="-8.058" y2="-0.591" stroke="black" stroke-width="0.108" stroke-linecap="square" />
    <line id="w-960" x1="-8.058" y1="-0.591" x2="-8.058" y2="-3.632" stroke="black" stroke-width="0.108" stroke-linecap="square" />
    <line id="w-961" x1="-8.058" y1="-3.632" x2="-13.437" y2="-3.632" stroke="black" stroke-width="0.108" stroke-linecap="square" />
    <line id="w-962" x1="-13.437" y1="-3.632" x2="-13.437" y2="-0.591" stroke="black" stroke-width="0.108" stroke-linecap="square" />
    <line id="w-967" x1="2.819" y1="-0.591" x2="8.198" y2="-0.591" stroke="black" stroke-width="0.108" stroke-linecap="square" />
    <line id="w-968" x1="8.198" y1="-0.591" x2="8.198" y2="-3.632" stroke="black" stroke-width="0.108" stroke-linecap="square" />
    <line id="w-969" x1="8.198" y1="-3.632" x2="2.819" y2="-3.632" stroke="black" stroke-width="0.108" stroke-linecap="square" />
    <line id="w-970" x1="2.819" y1="-3.632" x2="2.819" y2="-0.591" stroke="black" stroke-width="0.108" stroke-linecap="square" />
    <line id="w-973" x1="20.897" y1="-3.105" x2="16.935" y2="-3.105" stroke="black" stroke-width="0.108" stroke-linecap="square" />
    <line id="w-974" x1="16.935" y1="-3.105" x2="16.935" y2="0.683" stroke="black" stroke-width="0.108" stroke-linecap="square" />
    <line id="w-975" x1="-5.004" y1="-0.591" x2="-0.025" y2="-0.591" stroke="black" stroke-width="0.108" stroke-linecap="square" />
    <line id="w-976" x1="-0.025" y1="-0.591" x2="-0.025" y2="-3.67" stroke="black" stroke-width="0.108" stroke-linecap="square" />
    <line id="w-977" x1="-0.025" y1="-3.67" x2="-5.004" y2="-3.67" stroke="black" stroke-width="0.108" stroke-linecap="square" />
    <line id="w-978" x1="-5.004" y1="-3.67" x2="-5.004" y2="-0.591" stroke="black" stroke-width="0.108" stroke-linecap="square" />
    <line id="w-1000" x1="-32.297" y1="0.203" x2="-32.042" y2="0.762" stroke="black" stroke-width="0.321" stroke-linecap="square" />
    <line id="w-1001" x1="-25.705" y1="0.213" x2="-25.455" y2="0.762" stroke="black" stroke-width="0.321" stroke-linecap="square" />
    <line id="w-1002" x1="-19.113" y1="0.224" x2="-18.868" y2="0.762" stroke="black" stroke-width="0.321" stroke-linecap="square" />
    <line id="w-1009" x1="7.595" y1="-8.401" x2="12.268" y2="-8.401" stroke="black" stroke-width="0.267" stroke-linecap="square" />
    <line id="w-1031" x1="15.532" y1="4.077" x2="15.532" y2="5.658" stroke="black" stroke-width="0.184" stroke-linecap="square" />
    <line id="w-1034" x1="-9.112" y1="4.077" x2="-9.112" y2="5.658" stroke="black" stroke-width="0.184" stroke-linecap="square" />
    <line id="w-1038" x1="15.532" y1="4.077" x2="16.293" y2="4.077" stroke="black" stroke-width="0.184" stroke-linecap="square" />
    <line id="w-1041" x1="-9.112" y1="4.077" x2="-8.352" y2="4.077" stroke="black" stroke-width="0.184" stroke-linecap="square" />
    <line id="w-1044" x1="-0.724" y1="-3.37" x2="-1.792" y2="-3.37" stroke="black" stroke-width="0.124" stroke-linecap="square" />
    <line id="w-1045" x1="-1.792" y1="-2.734" x2="-0.724" y2="-2.734" stroke="black" stroke-width="0.184" stroke-linecap="square" />
    <line id="w-1047" x1="-30.282" y1="12.631" x2="-27.924" y2="12.631" stroke="black" stroke-width="0.267" stroke-linecap="square" />
    <line id="w-1048" x1="-30.326" y1="5.855" x2="-15.203" y2="5.855" stroke="black" stroke-width="0.47" stroke-linecap="square" />
    <line id="w-1053" x1="-27.368" y1="12.631" x2="-21.641" y2="12.631" stroke="black" stroke-width="0.267" stroke-linecap="square" />
    <line id="w-1054" x1="-21.031" y1="12.631" x2="-15.203" y2="12.631" stroke="black" stroke-width="0.267" stroke-linecap="square" />
    <line id="w-1060" x1="15.662" y1="0.756" x2="20.065" y2="0.756" stroke="black" stroke-width="0.267" stroke-linecap="square" />
    <line id="w-1065" x1="-9.825" y1="-2.734" x2="-9.825" y2="-0.629" stroke="black" stroke-width="0.124" stroke-linecap="square" />
    <line id="w-1069" x1="6.431" y1="-2.734" x2="6.431" y2="-0.629" stroke="black" stroke-width="0.124" stroke-linecap="square" />
  </g>
</svg>