<?xml version="1.0" encoding="utf-8"?>
<svg xmlns="http://www.w3.org/2000/svg" viewBox="-34.485 -31.672 64.597 49.853">
  <g transform="scale(1,-1)">
    <line id="wn-1" data-host="w-706" x1="-9.971" y1="12.87" x2="-8.701" y2="12.87" stroke="white" stroke-width="0.341" />
    <line id="wn-2" data-host="w-706" x1="-4.889" y1="12.87" x2="-3.619" y2="12.87" stroke="white" stroke-width="0.341" />
    <line id="wn-3" data-host="w-706" x1="1.464" y1="12.87" x2="2.734" y2="12.87" stroke="white" stroke-width="0.341" />
    <line id="wn-4" data-host="w-706" x1="10.357" y1="12.87" x2="11.627" y2="12.87" stroke="white" stroke-width="0.341" />
    <line id="wn-5" data-host="w-706" x1="4.005" y1="12.87" x2="5.275" y2="12.87" stroke="white" stroke-width="0.341" />
    <line id="wn-6" data-host="w-706" x1="7.816" y1="12.87" x2="9.086" y2="12.87" stroke="white" stroke-width="0.341" />
    <line id="wn-31" data-host="w-39" x1="-23.476" y1="12.87" x2="-22.206" y2="12.87" stroke="white" stroke-width="0.341" />
    <line id="wn-32" data-host="w-39" x1="-19.653" y1="12.87" x2="-18.383" y2="12.87" stroke="white" stroke-width="0.341" />
    <line id="wn-43" data-host="w-339" x1="-31.161" y1="-1.719" x2="-32.063" y2="-1.308" stroke="white" stroke-width="0.642" />
    <line id="wn-44" data-host="w-339" x1="-29.356" y1="-2.542" x2="-30.258" y2="-2.131" stroke="white" stroke-width="0.642" />
    <line id="wn-47" data-host="w-345" x1="-24.569" y1="-1.708" x2="-25.471" y2="-1.297" stroke="white" stroke-width="0.642" />
    <line id="wn-48" data-host="w-345" x1="-22.764" y1="-2.531" x2="-23.666" y2="-2.12" stroke="white" stroke-width="0.642" />
    <line id="wn-51" data-host="w-351" x1="-17.977" y1="-1.698" x2="-18.879" y2="-1.288" stroke="white" stroke-width="0.642" />
    <line id="wn-52" data-host="w-351" x1="-16.171" y1="-2.521" x2="-17.073" y2="-2.11" stroke="white" stroke-width="0.642" />
    <line id="wn-65" data-host="w-603" x1="-7.237" y1="-8.504" x2="-8.329" y2="-8.504" stroke="white" stroke-width="0.188" />
    <line id="wn-66" data-host="w-603" x1="-9.216" y1="-8.504" x2="-10.308" y2="-8.504" stroke="white" stroke-width="0.188" />
    <line id="wn-67" data-host="w-603" x1="-11.17" y1="-8.504" x2="-12.262" y2="-8.504" stroke="white" stroke-width="0.188" />
    <line id="wn-68" data-host="w-603" x1="-13.157" y1="-8.504" x2="-14.249" y2="-8.504" stroke="white" stroke-width="0.188" />
    <line id="wn-74" data-host="w-656" x1="-0.556" y1="-9.095" x2="0.536" y2="-9.095" stroke="white" stroke-width="0.188" />
    <line id="wn-75" data-host="w-656" x1="-5.613" y1="-9.095" x2="-4.521" y2="-9.095" stroke="white" stroke-width="0.188" />
    <line id="wn-76" data-host="w-656" x1="-3.835" y1="-9.095" x2="-2.743" y2="-9.095" stroke="white" stroke-width="0.188" />
    <line id="wn-77" data-host="w-656" x1="-2.334" y1="-9.095" x2="-1.242" y2="-9.095" stroke="white" stroke-width="0.188" />
    <line id="wn-86" data-host="w-658" x1="2.36" y1="-9.082" x2="3.452" y2="-9.082" stroke="white" stroke-width="0.188" />
    <line id="wn-87" data-host="w-658" x1="3.991" y1="-9.082" x2="5.083" y2="-9.082" stroke="white" stroke-width="0.188" />
    <line id="wn-88" data-host="w-658" x1="5.61" y1="-9.082" x2="6.702" y2="-9.082" stroke="white" stroke-width="0.188" />
    <line id="wn-89" data-host="w-658" x1="7.976" y1="-9.082" x2="9.068" y2="-9.082" stroke="white" stroke-width="0.188" />
    <line id="wn-90" data-host="w-658" x1="9.595" y1="-9.082" x2="10.687" y2="-9.082" stroke="white" stroke-width="0.188" />
    <line id="wn-91" data-host="w-658" x1="11.226" y1="-9.082" x2="12.318" y2="-9.082" stroke="white" stroke-width="0.188" />
    <line id="wn-96" data-host="w-666" x1="14.59" y1="-8.82" x2="15.673" y2="-8.678" stroke="white" stroke-width="0.188" />
    <line id="wn-97" data-host="w-666" x1="16.5" y1="-8.569" x2="17.582" y2="-8.426" stroke="white" stroke-width="0.188" />
    <line id="wn-98" data-host="w-666" x1="18.09" y1="-8.359" x2="19.172" y2="-8.217" stroke="white" stroke-width="0.188" />
    <line id="wn-99" data-host="w-666" x1="19.671" y1="-8.151" x2="20.754" y2="-8.009" stroke="white" stroke-width="0.188" />
    <line id="wn-100" data-host="w-666" x1="13.078" y1="-9.019" x2="14.161" y2="-8.877" stroke="white" stroke-width="0.188" />
  </g>
</svg>