<?xml version="1.0" encoding="utf-8"?>
<svg xmlns="http://www.w3.org/2000/svg" viewBox="-32.112 -13.37 53.366 22.965">
  <g transform="scale(1,-1)">
    <line id="wn-1" data-host="w-706" x1="-9.336" y1="12.87" x2="-9.336" y2="12.87" stroke="white" stroke-width="0.341" />
    <line id="wn-2" data-host="w-706" x1="-4.254" y1="12.87" x2="-4.254" y2="12.87" stroke="white" stroke-width="0.341" />
    <line id="wn-3" data-host="w-706" x1="2.099" y1="12.87" x2="2.099" y2="12.87" stroke="white" stroke-width="0.341" />
    <line id="wn-4" data-host="w-706" x1="10.992" y1="12.87" x2="10.992" y2="12.87" stroke="white" stroke-width="0.341" />
    <line id="wn-5" data-host="w-706" x1="4.64" y1="12.87" x2="4.64" y2="12.87" stroke="white" stroke-width="0.341" />
    <line id="wn-6" data-host="w-706" x1="8.451" y1="12.87" x2="8.451" y2="12.87" stroke="white" stroke-width="0.341" />
    <line id="wn-31" data-host="w-39" x1="-22.841" y1="12.87" x2="-22.841" y2="12.87" stroke="white" stroke-width="0.341" />
    <line id="wn-32" data-host="w-39" x1="-19.018" y1="12.87" x2="-19.018" y2="12.87" stroke="white" stroke-width="0.341" />
    <line id="wn-43" data-host="w-339" x1="-31.612" y1="-1.514" x2="-31.612" y2="-1.514" stroke="white" stroke-width="0.642" />
    <line id="wn-44" data-host="w-339" x1="-29.807" y1="-2.337" x2="-29.807" y2="-2.337" stroke="white" stroke-width="0.642" />
    <line id="wn-47" data-host="w-345" x1="-25.02" y1="-1.503" x2="-25.02" y2="-1.503" stroke="white" stroke-width="0.642" />
    <line id="wn-48" data-host="w-345" x1="-23.215" y1="-2.326" x2="-23.215" y2="-2.326" stroke="white" stroke-width="0.642" />
    <line id="wn-51" data-host="w-351" x1="-18.428" y1="-1.493" x2="-18.428" y2="-1.493" stroke="white" stroke-width="0.642" />
    <line id="wn-52" data-host="w-351" x1="-16.622" y1="-2.316" x2="-16.622" y2="-2.316" stroke="white" stroke-width="0.642" />
    <line id="wn-65" data-host="w-603" x1="-7.237" y1="-8.504" x2="-8.329" y2="-8.504" stroke="white" stroke-width="0.188" />
    <line id="wn-66" data-host="w-603" x1="-9.216" y1="-8.504" x2="-10.308" y2="-8.504" stroke="white" stroke-width="0.188" />
    <line id="wn-67" data-host="w-603" x1="-11.17" y1="-8.504" x2="-12.262" y2="-8.504" stroke="white" stroke-width="0.188" />
    <line id="wn-68" data-host="w-603" x1="-13.157" y1="-8.504" x2="-14.249" y2="-8.504" stroke="white" stroke-width="0.188" />
    <line id="wn-74" data-host="w-656" x1="-0.556" y1="-9.095" x2="0.536" y2="-9.095" stroke="white" stroke-width="0.188" />
    <line id="wn-75" data-host="w-656" x1="-5.613" y1="-9.095" x2="-4.521" y2="-9.095" stroke="white" stroke-width="0.188" />
    <line id="wn-76" data-host="w-656" x1="-3.835" y1="-9.095" x2="-2.743" y2="-9.095" stroke="white" stroke-width="0.188" />
    <line id="wn-77" data-host="w-656" x1="-2.334" y1="-9.095" x2="-1.242" y2="-9.095" stroke="white" stroke-width="0.188" />
    <line id="wn-86" data-host="w-658" x1="2.36" y1="-9.082" x2="3.452" y2="-9.082" stroke="white" stroke-width="0.188" />
    <line id="wn-87" data-host="w-658" x1="3.991" y1="-9.082" x2="5.083" y2="-9.082" stroke="white" stroke-width="0.188" />
    <line id="wn-88" data-host="w-658" x1="5.61" y1="-9.082" x2="6.702" y2="-9.082" stroke="white" stroke-width="0.188" />
    <line id="wn-89" data-host="w-658" x1="7.976" y1="-9.082" x2="9.068" y2="-9.082" stroke="white" stroke-width="0.188" />
    <line id="wn-90" data-host="w-658" x1="9.595" y1="-9.082" x2="10.687" y2="-9.082" stroke="white" stroke-width="0.188" />
    <line id="wn-91" data-host="w-658" x1="11.226" y1="-9.082" x2="12.318" y2="-9.082" stroke="white" stroke-width="0.188" />
    <line id="wn-96" data-host="w-666" x1="14.59" y1="-8.82" x2="15.673" y2="-8.678" stroke="white" stroke-width="0.188" />
    <line id="wn-97" data-host="w-666" x1="16.5" y1="-8.569" x2="17.582" y2="-8.426" stroke="white" stroke-width="0.188" />
    <line id="wn-98" data-host="w-666" x1="18.09" y1="-8.359" x2="19.172" y2="-8.217" stroke="white" stroke-width="0.188" />
    <line id="wn-99" data-host="w-666" x1="19.671" y1="-8.151" x2="20.754" y2="-8.009" stroke="white" stroke-width="0.188" />
    <line id="wn-100" data-host="w-666" x1="13.078" y1="-9.019" x2="14.161" y2="-8.877" stroke="white" stroke-width="0.188" />
  </g>
</svg>