<?xml version="1.0" encoding="utf-8"?>
<svg xmlns="http://www.w3.org/2000/svg" viewBox="-15.648 -13.413 28.776 22.207">
  <g transform="scale(1,-1)">
    <rect id="tm-2071" x="9.262" y="12.56" width="0.3" height="0.3" transform="rotate(90,9.412,12.71)" />
    <rect id="tm-2072" x="10.267" y="12.56" width="0.3" height="0.3" transform="rotate(90,10.417,12.71)" />
    <rect id="tm-2073" x="8.774" y="12.56" width="0.3" height="0.3" transform="rotate(90,8.924,12.71)" />
    <rect id="tm-2074" x="10.755" y="12.56" width="0.3" height="0.3" transform="rotate(90,10.905,12.71)" />
    <rect id="tm-2075" x="12.274" y="7.991" width="0.3" height="0.3" transform="rotate(240,12.424,8.141)" />
    <rect id="tm-2076" x="12.274" y="3.114" width="0.3" height="0.3" transform="rotate(240,12.424,3.264)" />
    <rect id="tm-2077" x="7.175" y="6.009" width="0.3" height="0.3" transform="rotate(180,7.325,6.159)" />
    <rect id="tm-2078" x="7.14" y="0.917" width="0.3" height="0.3" transform="rotate(180,7.29,1.067)" />
    <rect id="tm-2079" x="2.723" y="9.057" width="0.3" height="0.3" transform="rotate(120,2.873,9.207)" />
    <rect id="tm-2080" x="2.723" y="4.943" width="0.3" height="0.3" transform="rotate(120,2.873,5.093)" />
    <rect id="tm-2081" x="1.091" y="2.288" width="0.3" height="0.3" transform="rotate(120,1.241,2.438)" />
    <rect id="tm-2082" x="1.091" y="-1.153" width="0.3" height="0.3" transform="rotate(120,1.241,-1.003)" />
    <rect id="tm-2083" x="1.091" y="-3.109" width="0.3" height="0.3" transform="rotate(120,1.241,-2.959)" />
    <rect id="tm-2084" x="1.091" y="-6.31" width="0.3" height="0.3" transform="rotate(120,1.241,-6.16)" />
    <rect id="tm-2085" x="12.039" y="-3.262" width="0.3" height="0.3" transform="rotate(240,12.189,-3.112)" />
    <rect id="tm-2086" x="12.039" y="-6.462" width="0.3" height="0.3" transform="rotate(240,12.189,-6.312)" />
    <rect id="tm-2087" x="7.149" y="-8.24" width="0.3" height="0.3" transform="rotate(180,7.299,-8.09)" />
    <rect id="tm-2088" x="7.13" y="-3.719" width="0.3" height="0.3" transform="rotate(180,7.28,-3.569)" />
    <rect id="tm-2089" x="-12.072" y="7.453" width="0.3" height="0.3" transform="rotate(120,-11.922,7.603)" />
    <rect id="tm-2090" x="-12.072" y="9.434" width="0.3" height="0.3" transform="rotate(120,-11.922,9.584)" />
    <rect id="tm-2091" x="-12.072" y="9.985" width="0.3" height="0.3" transform="rotate(120,-11.922,10.135)" />
    <rect id="tm-2092" x="-12.072" y="6.945" width="0.3" height="0.3" transform="rotate(120,-11.922,7.095)" />
    <rect id="tm-2093" x="0.793" y="-6.157" width="0.3" height="0.3" transform="rotate(120,0.943,-6.007)" />
    <rect id="tm-2094" x="0.793" y="-1.306" width="0.3" height="0.3" transform="rotate(240,0.943,-1.156)" />
    <rect id="tm-2095" x="-6.173" y="-6.411" width="0.3" height="0.3" transform="rotate(120,-6.023,-6.261)" />
    <rect id="tm-2096" x="-3.916" y="3.508" width="0.3" height="0.3" transform="rotate(120,-3.766,3.658)" />
    <rect id="tm-2097" x="8.283" y="12.56" width="0.3" height="0.3" transform="rotate(90,8.433,12.71)" />
    <rect id="tm-2098" x="11.271" y="12.56" width="0.3" height="0.3" transform="rotate(90,11.421,12.71)" />
    <rect id="tm-2099" x="2.568" y="9.21" width="0.3" height="0.3" transform="rotate(240,2.718,9.36)" />
    <rect id="tm-2100" x="-4.928" y="5.705" width="0.3" height="0.3" transform="rotate(180,-4.778,5.855)" />
    <rect id="tm-2101" x="-6.471" y="-6.31" width="0.3" height="0.3" transform="rotate(240,-6.321,-6.16)" />
    <rect id="tm-2102" x="-6.471" y="-1.611" width="0.3" height="0.3" transform="rotate(240,-6.321,-1.461)" />
    <rect id="tm-2103" x="-6.471" y="3.266" width="0.3" height="0.3" transform="rotate(240,-6.321,3.416)" />
    <rect id="tm-2104" x="-15.095" y="3" width="0.3" height="0.3" transform="rotate(120,-14.945,3.15)" />
    <rect id="tm-2105" x="-15.095" y="-1.738" width="0.3" height="0.3" transform="rotate(120,-14.945,-1.588)" />
    <rect id="tm-2106" x="-15.095" y="-6.335" width="0.3" height="0.3" transform="rotate(120,-14.945,-6.185)" />
    <rect id="tm-2107" x="-11.047" y="6.027" width="0.3" height="0.3" transform="rotate(90,-10.897,6.177)" />
    <rect id="tm-2108" x="-6.471" y="8.469" width="0.3" height="0.3" transform="rotate(240,-6.321,8.619)" />
    <rect id="tm-2109" x="-9.675" y="11.075" width="0.3" height="0.3" transform="rotate(180,-9.525,11.225)" />
    <rect id="tm-2110" x="-3.427" y="11.075" width="0.3" height="0.3" transform="rotate(180,-3.277,11.225)" />
    <rect id="tm-2111" x="-8.202" y="10.755" width="0.3" height="0.3" transform="rotate(90,-8.052,10.905)" />
    <rect id="tm-2112" x="-3.427" y="10.755" width="0.3" height="0.3" transform="rotate(90,-3.277,10.905)" />
    <rect id="tm-2113" x="6.657" y="12.56" width="0.3" height="0.3" transform="rotate(90,6.807,12.71)" />
  </g>
</svg>