<?xml version="1.0" encoding="utf-8"?>
<svg xmlns="http://www.w3.org/2000/svg" viewBox="-34.315 -23.322 56.245 32.983">
  <g transform="scale(1,-1)">
    <line id="co-36" x1="-9.183" y1="2.209" x2="-16.363" y2="2.209" stroke="black" stroke-width="0.1" stroke-linecap="square" />
    <line id="co-48" x1="-16.058" y1="2.514" x2="16.619" y2="2.514" stroke="black" stroke-width="0.1" stroke-linecap="square" />
    <line id="co-51" x1="-16.16" y1="2.412" x2="10.723" y2="2.412" stroke="black" stroke-width="0.1" stroke-linecap="square" />
    <line id="co-54" x1="-16.262" y1="2.311" x2="5.732" y2="2.311" stroke="black" stroke-width="0.1" stroke-linecap="square" />
    <line id="co-119" x1="15.959" y1="4.096" x2="15.959" y2="4.096" stroke="black" stroke-width="0.1" stroke-linecap="square" />
    <line id="co-127" x1="-8.661" y1="4.096" x2="-8.661" y2="4.096" stroke="black" stroke-width="0.1" stroke-linecap="square" />
    <line id="co-219" x1="-13.875" y1="4.636" x2="-13.875" y2="4.636" stroke="black" stroke-width="0.1" stroke-linecap="square" />
    <line id="co-224" x1="-15.17" y1="4.636" x2="-15.17" y2="4.636" stroke="black" stroke-width="0.1" stroke-linecap="square" />
    <line id="co-234" x1="-15.71" y1="2.603" x2="-15.71" y2="6.007" stroke="black" stroke-width="0.1" stroke-linecap="square" />
    <line id="co-235" x1="-15.634" y1="2.704" x2="-15.634" y2="6.007" stroke="black" stroke-width="0.1" stroke-linecap="square" />
    <line id="co-236" x1="-15.558" y1="2.806" x2="-15.558" y2="6.007" stroke="black" stroke-width="0.1" stroke-linecap="square" />
    <line id="co-237" x1="-15.481" y1="2.908" x2="-15.481" y2="6.007" stroke="black" stroke-width="0.1" stroke-linecap="square" />
    <line id="co-238" x1="19.103" y1="2.209" x2="-15.316" y2="2.209" stroke="black" stroke-width="0.1" stroke-linecap="square" />
    <line id="co-239" x1="-15.088" y1="2.514" x2="19.484" y2="2.514" stroke="black" stroke-width="0.1" stroke-linecap="square" />
    <line id="co-240" x1="-15.164" y1="2.412" x2="19.382" y2="2.412" stroke="black" stroke-width="0.1" stroke-linecap="square" />
    <line id="co-241" x1="-15.24" y1="2.311" x2="19.204" y2="2.311" stroke="black" stroke-width="0.1" stroke-linecap="square" />
    <line id="co-242" x1="19.496" y1="1.815" x2="19.496" y2="1.511" stroke="black" stroke-width="0.1" stroke-linecap="square" />
    <line id="co-243" x1="19.598" y1="1.917" x2="19.598" y2="1.511" stroke="black" stroke-width="0.1" stroke-linecap="square" />
    <line id="co-244" x1="19.776" y1="2.019" x2="19.776" y2="1.511" stroke="black" stroke-width="0.1" stroke-linecap="square" />
    <line id="co-245" x1="19.877" y1="2.12" x2="19.877" y2="1.511" stroke="black" stroke-width="0.1" stroke-linecap="square" />
    <line id="co-246" x1="19.496" y1="1.117" x2="19.496" y2="1.117" stroke="black" stroke-width="0.1" stroke-linecap="square" />
    <line id="co-247" x1="19.598" y1="1.117" x2="19.598" y2="1.117" stroke="black" stroke-width="0.1" stroke-linecap="square" />
    <line id="co-248" x1="19.776" y1="1.117" x2="19.776" y2="1.117" stroke="black" stroke-width="0.1" stroke-linecap="square" />
    <line id="co-249" x1="19.877" y1="1.117" x2="19.877" y2="1.117" stroke="black" stroke-width="0.1" stroke-linecap="square" />
    <line id="co-266" x1="-7.544" y1="7.931" x2="-7.544" y2="3.009" stroke="black" stroke-width="0.1" stroke-linecap="square" />
    <line id="co-268" x1="19.585" y1="2.616" x2="-7.15" y2="2.616" stroke="black" stroke-width="0.1" stroke-linecap="square" />
    <line id="co-269" x1="19.979" y1="1.511" x2="19.979" y2="2.222" stroke="black" stroke-width="0.1" stroke-linecap="square" />
    <line id="co-270" x1="19.979" y1="1.117" x2="19.979" y2="1.117" stroke="black" stroke-width="0.1" stroke-linecap="square" />
    <line id="co-286" x1="8.712" y1="4" x2="8.712" y2="4" stroke="black" stroke-width="0.1" stroke-linecap="square" />
    <line id="co-505" x1="8.814" y1="4" x2="8.814" y2="4" stroke="black" stroke-width="0.1" stroke-linecap="square" />
    <line id="co-506" x1="8.741" y1="4" x2="8.785" y2="4" stroke="black" stroke-width="0.1" stroke-linecap="square" />
  </g>
</svg>