<?xml version="1.0" encoding="utf-8"?>
<svg xmlns="http://www.w3.org/2000/svg" viewBox="-34.315 -23.322 56.245 32.983">
  <g transform="scale(1,-1)">
    <rect id="tm-95" x="5.568" y="5.176" width="0.3" height="0.3" fill="black" transform="rotate(90,5.718,5.326)" />
    <rect id="tm-96" x="5.568" y="6.471" width="0.3" height="0.3" fill="black" transform="rotate(90,5.718,6.621)" />
    <rect id="tm-97" x="5.568" y="5.824" width="0.3" height="0.3" fill="black" transform="rotate(90,5.718,5.974)" />
    <rect id="tm-107" x="15.776" y="5.854" width="0.3" height="0.3" fill="black" transform="rotate(180,15.926,6.004)" />
    <rect id="tm-108" x="14.48" y="5.854" width="0.3" height="0.3" fill="black" transform="rotate(180,14.63,6.004)" />
    <rect id="tm-109" x="15.128" y="5.854" width="0.3" height="0.3" fill="black" transform="rotate(180,15.278,6.004)" />
    <rect id="tm-116" x="-8.869" y="5.854" width="0.3" height="0.3" fill="black" transform="rotate(180,-8.719,6.004)" />
    <rect id="tm-117" x="-10.164" y="5.854" width="0.3" height="0.3" fill="black" transform="rotate(180,-10.014,6.004)" />
    <rect id="tm-118" x="-9.516" y="5.854" width="0.3" height="0.3" fill="black" transform="rotate(180,-9.366,6.004)" />
    <rect id="tm-181" x="1.83" y="4.844" width="0.3" height="0.3" fill="black" transform="rotate(180,1.98,4.994)" />
    <rect id="tm-234" x="12.575" y="-0.239" width="0.3" height="0.3" fill="black" transform="rotate(120,12.725,-0.089)" />
    <rect id="tm-235" x="12.575" y="-5.217" width="0.3" height="0.3" fill="black" transform="rotate(120,12.725,-5.067)" />
    <rect id="tm-236" x="15.128" y="-0.239" width="0.3" height="0.3" fill="black" transform="rotate(120,15.278,-0.089)" />
    <rect id="tm-237" x="15.128" y="-5.217" width="0.3" height="0.3" fill="black" transform="rotate(120,15.278,-5.067)" />
    <rect id="tm-246" x="-15.009" y="6.772" width="0.3" height="0.3" fill="black" transform="rotate(240,-14.859,6.922)" />
    <rect id="tm-247" x="-15.009" y="11.963" width="0.3" height="0.3" fill="black" transform="rotate(240,-14.859,12.113)" />
    <rect id="tm-258" x="-12.456" y="6.772" width="0.3" height="0.3" fill="black" transform="rotate(240,-12.306,6.922)" />
    <rect id="tm-259" x="-12.456" y="11.963" width="0.3" height="0.3" fill="black" transform="rotate(240,-12.306,12.113)" />
    <rect id="tm-270" x="-33.373" y="6.518" width="0.3" height="0.3" fill="black" transform="rotate(240,-33.223,6.668)" />
    <rect id="tm-271" x="-33.373" y="11.963" width="0.3" height="0.3" fill="black" transform="rotate(240,-33.223,12.113)" />
    <rect id="tm-282" x="-30.821" y="6.518" width="0.3" height="0.3" fill="black" transform="rotate(240,-30.671,6.668)" />
    <rect id="tm-283" x="-30.821" y="11.963" width="0.3" height="0.3" fill="black" transform="rotate(240,-30.671,12.113)" />
    <rect id="tm-335" x="8.076" y="-2.973" width="0.3" height="0.3" fill="black" />
    <rect id="tm-336" x="9.986" y="-6.284" width="0.3" height="0.3" fill="black" />
    <rect id="tm-337" x="12.134" y="-8.713" width="0.3" height="0.3" fill="black" />
    <rect id="tm-555" x="-4.62" y="11.191" width="0.3" height="0.3" fill="black" transform="rotate(180,-4.47,11.341)" />
    <rect id="tm-556" x="-0.887" y="11.191" width="0.3" height="0.3" fill="black" transform="rotate(180,-0.737,11.341)" />
    <rect id="tm-557" x="-0.887" y="9.057" width="0.3" height="0.3" fill="black" transform="rotate(180,-0.737,9.207)" />
    <rect id="tm-558" x="-4.62" y="7.686" width="0.3" height="0.3" fill="black" transform="rotate(180,-4.47,7.836)" />
    <rect id="tm-559" x="13.795" y="9.21" width="0.3" height="0.3" fill="black" transform="rotate(180,13.945,9.36)" />
    <rect id="tm-560" x="17.452" y="9.21" width="0.3" height="0.3" fill="black" transform="rotate(180,17.602,9.36)" />
    <rect id="tm-561" x="17.452" y="3.733" width="0.3" height="0.3" fill="black" transform="rotate(180,17.602,3.883)" />
    <rect id="tm-567" x="-4.824" y="-5.69" width="0.3" height="0.3" fill="black" transform="rotate(180,-4.674,-5.54)" />
    <rect id="tm-568" x="-0.556" y="-5.69" width="0.3" height="0.3" fill="black" transform="rotate(180,-0.406,-5.54)" />
    <rect id="tm-589" x="5.822" y="5.749" width="0.3" height="0.3" fill="black" transform="rotate(240,5.972,5.899)" />
    <rect id="tm-590" x="5.822" y="4.511" width="0.3" height="0.3" fill="black" transform="rotate(240,5.972,4.661)" />
    <rect id="tm-591" x="2.723" y="4.943" width="0.3" height="0.3" fill="black" transform="rotate(120,2.873,5.093)" />
    <rect id="tm-592" x="5.54" y="3.739" width="0.3" height="0.3" fill="black" transform="rotate(90,5.69,3.889)" />
    <rect id="tm-593" x="9.273" y="3.739" width="0.3" height="0.3" fill="black" transform="rotate(90,9.423,3.889)" />
    <rect id="tm-594" x="10.239" y="6.889" width="0.3" height="0.3" fill="black" transform="rotate(180,10.389,7.039)" />
    <rect id="tm-595" x="7.546" y="6.635" width="0.3" height="0.3" fill="black" transform="rotate(180,7.696,6.785)" />
    <rect id="tm-596" x="9.163" y="6.635" width="0.3" height="0.3" fill="black" transform="rotate(180,9.313,6.785)" />
    <rect id="tm-597" x="9.804" y="4.247" width="0.3" height="0.3" fill="black" transform="rotate(240,9.954,4.397)" />
    <rect id="tm-598" x="2.568" y="5.12" width="0.3" height="0.3" fill="black" transform="rotate(240,2.718,5.27)" />
    <rect id="tm-599" x="12.274" y="7.533" width="0.3" height="0.3" fill="black" transform="rotate(240,12.424,7.683)" />
    <rect id="tm-600" x="12.274" y="10.581" width="0.3" height="0.3" fill="black" transform="rotate(240,12.424,10.731)" />
    <rect id="tm-603" x="1.091" y="9.896" width="0.3" height="0.3" fill="black" transform="rotate(120,1.241,10.046)" />
    <rect id="tm-604" x="9.988" y="6.314" width="0.3" height="0.3" fill="black" transform="rotate(120,10.138,6.464)" />
    <rect id="tm-605" x="5.822" y="5.146" width="0.3" height="0.3" fill="black" transform="rotate(240,5.972,5.296)" />
    <rect id="tm-606" x="12.572" y="3.063" width="0.3" height="0.3" fill="black" transform="rotate(120,12.722,3.213)" />
    <rect id="tm-607" x="15.293" y="2.961" width="0.3" height="0.3" fill="black" transform="rotate(240,15.443,3.111)" />
    <rect id="tm-608" x="14.405" y="5.6" width="0.3" height="0.3" fill="black" transform="rotate(180,14.555,5.75)" />
    <rect id="tm-609" x="13.789" y="5.6" width="0.3" height="0.3" fill="black" transform="rotate(180,13.939,5.75)" />
    <rect id="tm-610" x="15.065" y="5.6" width="0.3" height="0.3" fill="black" transform="rotate(180,15.215,5.75)" />
    <rect id="tm-611" x="12.572" y="8.143" width="0.3" height="0.3" fill="black" transform="rotate(120,12.722,8.293)" />
    <rect id="tm-612" x="12.572" y="10.353" width="0.3" height="0.3" fill="black" transform="rotate(120,12.722,10.503)" />
    <rect id="tm-613" x="16.063" y="12.56" width="0.3" height="0.3" fill="black" transform="rotate(90,16.213,12.71)" />
    <rect id="tm-614" x="18.975" y="10.367" width="0.3" height="0.3" fill="black" transform="rotate(244.231,19.125,10.517)" />
    <rect id="tm-615" x="19.335" y="7.639" width="0.3" height="0.3" fill="black" transform="rotate(244.231,19.485,7.789)" />
    <rect id="tm-616" x="19.909" y="3.277" width="0.3" height="0.3" fill="black" transform="rotate(244.231,20.059,3.427)" />
    <rect id="tm-617" x="20.452" y="-0.849" width="0.3" height="0.3" fill="black" transform="rotate(244.231,20.602,-0.699)" />
    <rect id="tm-618" x="15.928" y="-0.972" width="0.3" height="0.3" fill="black" transform="rotate(180,16.078,-0.822)" />
    <rect id="tm-619" x="9.216" y="2.517" width="0.3" height="0.3" fill="black" transform="rotate(90,9.366,2.667)" />
    <rect id="tm-620" x="3.085" y="2.517" width="0.3" height="0.3" fill="black" transform="rotate(90,3.235,2.667)" />
    <rect id="tm-621" x="-3.046" y="2.517" width="0.3" height="0.3" fill="black" transform="rotate(90,-2.896,2.667)" />
    <rect id="tm-622" x="-9.107" y="2.517" width="0.3" height="0.3" fill="black" transform="rotate(90,-8.957,2.667)" />
    <rect id="tm-623" x="-5.509" y="4.625" width="0.3" height="0.3" fill="black" transform="rotate(180,-5.359,4.775)" />
    <rect id="tm-624" x="-6.173" y="7.076" width="0.3" height="0.3" fill="black" transform="rotate(120,-6.023,7.226)" />
    <rect id="tm-625" x="-2.969" y="2.673" width="0.3" height="0.3" fill="black" transform="rotate(180,-2.819,2.823)" />
    <rect id="tm-626" x="-3.858" y="4.625" width="0.3" height="0.3" fill="black" transform="rotate(180,-3.708,4.775)" />
    <rect id="tm-792" x="-9.351" y="2.987" width="0.3" height="0.3" fill="black" transform="rotate(240,-9.201,3.137)" />
    <rect id="tm-793" x="-10.17" y="5.6" width="0.3" height="0.3" fill="black" transform="rotate(180,-10.02,5.75)" />
    <rect id="tm-794" x="-11.58" y="5.6" width="0.3" height="0.3" fill="black" transform="rotate(180,-11.43,5.75)" />
    <rect id="tm-795" x="-9.586" y="5.6" width="0.3" height="0.3" fill="black" transform="rotate(180,-9.436,5.75)" />
    <rect id="tm-796" x="-12.072" y="3.063" width="0.3" height="0.3" fill="black" transform="rotate(120,-11.922,3.213)" />
    <rect id="tm-797" x="-30.347" y="11.293" width="0.3" height="0.3" fill="black" transform="rotate(120,-30.197,11.443)" />
    <rect id="tm-798" x="-8.303" y="12.88" width="0.3" height="0.3" fill="black" transform="rotate(180,-8.153,13.03)" />
    <rect id="tm-884" x="3.533" y="12.56" width="0.3" height="0.3" fill="black" transform="rotate(90,3.683,12.71)" />
    <rect id="tm-885" x="9.477" y="12.56" width="0.3" height="0.3" fill="black" transform="rotate(90,9.627,12.71)" />
    <rect id="tm-886" x="9.273" y="12.88" width="0.3" height="0.3" fill="black" transform="rotate(180,9.423,13.03)" />
    <rect id="tm-887" x="2.161" y="7.078" width="0.3" height="0.3" fill="black" transform="rotate(180,2.311,7.228)" />
    <rect id="tm-888" x="9.426" y="6.451" width="0.3" height="0.3" fill="black" transform="rotate(90,9.576,6.601)" />
    <rect id="tm-996" x="20.002" y="-3.538" width="0.3" height="0.3" fill="black" transform="rotate(107.018,20.152,-3.388)" />
    <rect id="tm-997" x="6.216" y="-1.765" width="0.3" height="0.3" fill="black" transform="rotate(224.981,6.366,-1.615)" />
    <rect id="tm-998" x="-8.744" y="-2.857" width="0.3" height="0.3" fill="black" transform="rotate(107.018,-8.594,-2.707)" />
    <rect id="tm-999" x="-8.349" y="12.56" width="0.3" height="0.3" fill="black" transform="rotate(90,-8.199,12.71)" />
    <rect id="tm-1000" x="-6.471" y="10.658" width="0.3" height="0.3" fill="black" transform="rotate(240,-6.321,10.808)" />
    <rect id="tm-1001" x="-6.471" y="7.991" width="0.3" height="0.3" fill="black" transform="rotate(240,-6.321,8.141)" />
    <rect id="tm-1002" x="-6.471" y="4.181" width="0.3" height="0.3" fill="black" transform="rotate(240,-6.321,4.331)" />
    <rect id="tm-1003" x="-12.072" y="8.143" width="0.3" height="0.3" fill="black" transform="rotate(120,-11.922,8.293)" />
    <rect id="tm-1004" x="-12.072" y="10.963" width="0.3" height="0.3" fill="black" transform="rotate(120,-11.922,11.113)" />
    <rect id="tm-1005" x="-17.143" y="12.56" width="0.3" height="0.3" fill="black" transform="rotate(90,-16.993,12.71)" />
    <rect id="tm-1006" x="-24.229" y="12.56" width="0.3" height="0.3" fill="black" transform="rotate(90,-24.079,12.71)" />
    <rect id="tm-1007" x="-15.393" y="9.794" width="0.3" height="0.3" fill="black" transform="rotate(240,-15.243,9.944)" />
    <rect id="tm-1008" x="-15.393" y="6.829" width="0.3" height="0.3" fill="black" transform="rotate(240,-15.243,6.979)" />
    <rect id="tm-1009" x="-33.815" y="3.05" width="0.3" height="0.3" fill="black" transform="rotate(120,-33.665,3.2)" />
    <rect id="tm-1010" x="-27.945" y="-0.851" width="0.3" height="0.3" fill="black" transform="rotate(224.981,-27.795,-0.701)" />
    <rect id="tm-1011" x="-21.158" y="-0.413" width="0.3" height="0.3" fill="black" transform="rotate(224.981,-21.008,-0.263)" />
    <rect id="tm-1012" x="-14.643" y="-0.572" width="0.3" height="0.3" fill="black" transform="rotate(224.981,-14.493,-0.422)" />
    <rect id="tm-1013" x="-21.486" y="5.705" width="0.3" height="0.3" fill="black" transform="rotate(180,-21.336,5.855)" />
    <rect id="tm-1014" x="-27.823" y="5.705" width="0.3" height="0.3" fill="black" transform="rotate(180,-27.673,5.855)" />
    <rect id="tm-1015" x="-27.614" y="8.905" width="0.3" height="0.3" fill="black" transform="rotate(120,-27.464,9.055)" />
    <rect id="tm-1046" x="7.597" y="6.451" width="0.3" height="0.3" fill="black" transform="rotate(90,7.747,6.601)" />
    <rect id="tm-1078" x="-15.393" y="11.598" width="0.3" height="0.3" fill="black" transform="rotate(240,-15.243,11.748)" />
    <rect id="tm-1079" x="-9.156" y="2.86" width="0.3" height="0.3" fill="black" transform="rotate(120,-9.006,3.01)" />
    <rect id="tm-1080" x="6.073" y="4.427" width="0.3" height="0.3" fill="black" transform="rotate(90,6.223,4.577)" />
    <rect id="tm-1081" x="15.488" y="3.05" width="0.3" height="0.3" fill="black" transform="rotate(120,15.638,3.2)" />
  </g>
</svg>