<?xml version="1.0" encoding="utf-8"?>
<svg xmlns="http://www.w3.org/2000/svg" viewBox="-16.763 -31.192 73.836 56.08">
  <g transform="scale(1,-1)">
    <polygon id="cl-44" points="16.082,22.325 21.143,22.325 21.143,24.678 24.369,24.678 24.369,30.489 16.082,30.489" />
    <polygon id="cl-45" points="23.8,22.325 23.8,24.539 21.282,24.539 21.282,22.325" />
    <polygon id="cl-46" points="9.782,22.325 15.943,22.325 15.943,30.489 9.782,30.489" />
    <polygon id="cl-47" points="1.717,30.589 1.717,22.325 6.975,22.325 6.975,24.678 9.643,24.678 9.643,30.489 6.648,30.489 6.648,30.589" />
    <polygon id="cl-48" points="-9.697,17.63 -1.586,17.63 -1.586,22.325 1.578,22.325 1.578,30.589 -9.797,30.589 -9.797,22.478 -9.697,22.478" />
    <polygon id="cl-49" points="-9.697,10.999 -1.586,10.999 -1.586,17.492 -9.697,17.492" />
    <polygon id="cl-50" points="-9.697,5.399 -1.586,5.399 -1.586,10.86 -9.697,10.86" />
    <polygon id="cl-51" points="-9.797,-3.67 -1.586,-3.67 -1.586,2.26 -9.797,2.26" />
    <polygon id="cl-52" points="-9.797,-13.67 -1.586,-13.67 -1.586,-3.809 -9.797,-3.809" />
    <polygon id="cl-53" points="-1.586,-23.281 -1.586,-16.266 -1.586,-13.809 -9.797,-13.809 -9.797,-23.281" />
    <polygon id="cl-54" points="7.175,-17.385 3.923,-17.385 3.923,-23.181 7.175,-23.181" />
    <polygon id="cl-55" points="3.923,-15.07 3.923,-17.246 7.175,-17.246 7.175,-15.07" />
    <polygon id="cl-56" points="9.675,-23.181 9.675,-17.385 7.314,-17.385 7.314,-23.181" />
    <polygon id="cl-57" points="12.578,-17.385 10.314,-17.385 10.314,-23.181 12.578,-23.181" />
    <polygon id="cl-58" points="21.647,-23.281 21.647,-15.07 12.716,-15.07 12.716,-23.281" />
    <polygon id="cl-59" points="29.647,-23.281 29.647,-15.07 21.785,-15.07 21.785,-23.281" />
    <polygon id="cl-60" points="35.647,-23.281 35.647,-15.07 29.785,-15.07 29.785,-23.281" />
    <polygon id="cl-61" points="43.647,-23.281 43.647,-15.07 35.785,-15.07 35.785,-23.281" />
    <polygon id="cl-62" points="53.53,-15.07 43.785,-15.07 43.785,-23.281 53.53,-23.281" />
    <polygon id="cl-63" points="56.47,-12.335 7.245,-12.335 7.245,-6.796 6.448,-6.796 6.448,-6.571 7.245,-6.571 7.245,-0.802 6.448,-0.802 6.448,-0.577 7.245,-0.577 7.245,9.798 6.448,9.798 6.448,10.023 7.245,10.023 7.245,17.561 6.448,17.561 6.448,17.786 7.245,17.786 7.245,19.618 27.36,19.618 27.36,22.339 27.209,22.339 27.209,23.323 24.569,23.323 24.569,22.186 -1.447,22.186 -1.447,-14.931 -1.386,-14.931 -1.386,-15.915 1.254,-15.915 1.254,-14.931 7.314,-14.931 7.314,-17.246 8.875,-17.246 8.875,-14.931 11.016,-14.931 11.016,-17.246 12.578,-17.246 12.578,-14.931 53.73,-14.931 53.73,-15.915 56.37,-15.915 56.37,-14.931 56.47,-14.931" />
  </g>
</svg>