<?xml version="1.0" encoding="utf-8"?>
<svg xmlns="http://www.w3.org/2000/svg" viewBox="-16.763 -31.192 73.836 56.08">
  <g transform="scale(1,-1)">
    <polygon id="sl-2" points="-9.697,30.489 -9.697,-23.181 -1.386,-23.181 -1.386,-18.391 1.254,-18.391 1.254,-23.181 53.73,-23.181 53.73,-18.391 56.37,-18.391 56.37,-12.335 7.245,-12.335 7.245,19.618 27.209,19.618 27.209,25.699 24.569,25.699 24.569,30.489" />
    <polygon id="sl-4" points="51.767,-24.388 51.767,-23.438 13.665,-23.438 13.665,-24.388" />
    <polygon id="sl-5" points="-2.746,-24.388 -2.746,-23.438 -8.848,-23.438 -8.848,-24.388" />
    <polygon id="sl-6" points="-10.887,-21.79 -9.937,-21.79 -9.937,0.311 -10.887,0.311" />
    <polygon id="sl-7" points="-10.887,23.538 -9.937,23.538 -9.937,29.64 -10.887,29.64" />
  </g>
</svg>