<?xml version="1.0" encoding="utf-8"?>
<svg xmlns="http://www.w3.org/2000/svg" viewBox="-16.763 -31.192 73.836 56.08">
  <g transform="scale(1,-1)">
    <rect id="sc-110" x="-9.352" y="29.994" width="0.3" height="0" transform="rotate(180,-9.202,29.994)" />
    <rect id="sc-111" x="-9.352" y="22.679" width="0.3" height="0" transform="rotate(180,-9.202,22.679)" />
    <rect id="sc-112" x="-9.352" y="19.427" width="0.3" height="0" transform="rotate(180,-9.202,19.427)" />
    <rect id="sc-113" x="-9.352" y="13.128" width="0.3" height="0" transform="rotate(180,-9.202,13.128)" />
    <rect id="sc-114" x="-9.352" y="6.829" width="0.3" height="0" transform="rotate(180,-9.202,6.829)" />
    <rect id="sc-115" x="-9.352" y="0.53" width="0.3" height="0" transform="rotate(180,-9.202,0.53)" />
    <rect id="sc-116" x="-9.352" y="-5.769" width="0.3" height="0" transform="rotate(180,-9.202,-5.769)" />
    <rect id="sc-117" x="-9.352" y="-12.069" width="0.3" height="0" transform="rotate(180,-9.202,-12.069)" />
    <rect id="sc-118" x="-9.352" y="-15.32" width="0.3" height="0" transform="rotate(180,-9.202,-15.32)" />
    <rect id="sc-119" x="-9.352" y="-22.635" width="0.3" height="0" transform="rotate(180,-9.202,-22.635)" />
    <rect id="sc-120" x="0.605" y="29.994" width="0.3" height="0" transform="rotate(180,0.755,29.994)" />
    <rect id="sc-121" x="0.605" y="22.679" width="0.3" height="0" transform="rotate(180,0.755,22.679)" />
    <rect id="sc-122" x="0.605" y="19.427" width="0.3" height="0" transform="rotate(180,0.755,19.427)" />
    <rect id="sc-123" x="0.605" y="13.128" width="0.3" height="0" transform="rotate(180,0.755,13.128)" />
    <rect id="sc-124" x="0.605" y="6.829" width="0.3" height="0" transform="rotate(180,0.755,6.829)" />
    <rect id="sc-125" x="0.605" y="0.53" width="0.3" height="0" transform="rotate(180,0.755,0.53)" />
    <rect id="sc-126" x="0.605" y="-5.769" width="0.3" height="0" transform="rotate(180,0.755,-5.769)" />
    <rect id="sc-127" x="0.605" y="-12.069" width="0.3" height="0" transform="rotate(180,0.755,-12.069)" />
    <rect id="sc-128" x="6.498" y="29.994" width="0.3" height="0" transform="rotate(180,6.648,29.994)" />
    <rect id="sc-129" x="6.498" y="22.679" width="0.3" height="0" transform="rotate(180,6.648,22.679)" />
    <rect id="sc-130" x="6.498" y="19.427" width="0.3" height="0" transform="rotate(180,6.648,19.427)" />
    <rect id="sc-131" x="6.498" y="13.128" width="0.3" height="0" transform="rotate(180,6.648,13.128)" />
    <rect id="sc-132" x="6.498" y="6.829" width="0.3" height="0" transform="rotate(180,6.648,6.829)" />
    <rect id="sc-133" x="6.498" y="0.53" width="0.3" height="0" transform="rotate(180,6.648,0.53)" />
    <rect id="sc-134" x="6.498" y="-5.769" width="0.3" height="0" transform="rotate(180,6.648,-5.769)" />
    <rect id="sc-135" x="6.498" y="-12.069" width="0.3" height="0" transform="rotate(180,6.648,-12.069)" />
    <rect id="sc-136" x="6.498" y="-15.32" width="0.3" height="0" transform="rotate(180,6.648,-15.32)" />
    <rect id="sc-137" x="6.498" y="-22.635" width="0.3" height="0" transform="rotate(180,6.648,-22.635)" />
    <rect id="sc-138" x="6.498" y="-1.413" width="0.3" height="0" transform="rotate(180,6.648,-1.413)" />
    <rect id="sc-139" x="12.797" y="29.994" width="0.3" height="0" transform="rotate(180,12.947,29.994)" />
    <rect id="sc-140" x="12.797" y="22.679" width="0.3" height="0" transform="rotate(180,12.947,22.679)" />
    <rect id="sc-141" x="12.797" y="-15.32" width="0.3" height="0" transform="rotate(180,12.947,-15.32)" />
    <rect id="sc-142" x="12.797" y="-22.635" width="0.3" height="0" transform="rotate(180,12.947,-22.635)" />
    <rect id="sc-143" x="19.299" y="29.994" width="0.3" height="0" transform="rotate(180,19.449,29.994)" />
    <rect id="sc-144" x="19.299" y="22.679" width="0.3" height="0" transform="rotate(180,19.449,22.679)" />
    <rect id="sc-145" x="19.299" y="-15.32" width="0.3" height="0" transform="rotate(180,19.449,-15.32)" />
    <rect id="sc-146" x="19.299" y="-22.635" width="0.3" height="0" transform="rotate(180,19.449,-22.635)" />
    <rect id="sc-147" x="25.802" y="-15.32" width="0.3" height="0" transform="rotate(180,25.952,-15.32)" />
    <rect id="sc-148" x="25.802" y="-22.635" width="0.3" height="0" transform="rotate(180,25.952,-22.635)" />
    <rect id="sc-149" x="32.304" y="-15.32" width="0.3" height="0" transform="rotate(180,32.454,-15.32)" />
    <rect id="sc-150" x="32.304" y="-22.635" width="0.3" height="0" transform="rotate(180,32.454,-22.635)" />
    <rect id="sc-151" x="38.806" y="-15.32" width="0.3" height="0" transform="rotate(180,38.956,-15.32)" />
    <rect id="sc-152" x="38.806" y="-22.635" width="0.3" height="0" transform="rotate(180,38.956,-22.635)" />
    <rect id="sc-153" x="45.309" y="-15.32" width="0.3" height="0" transform="rotate(180,45.459,-15.32)" />
    <rect id="sc-154" x="45.309" y="-22.635" width="0.3" height="0" transform="rotate(180,45.459,-22.635)" />
    <rect id="sc-155" x="-2.037" y="29.994" width="0.3" height="0" transform="rotate(180,-1.887,29.994)" />
    <rect id="sc-156" x="-2.037" y="22.679" width="0.3" height="0" transform="rotate(180,-1.887,22.679)" />
    <rect id="sc-157" x="-2.037" y="19.427" width="0.3" height="0" transform="rotate(180,-1.887,19.427)" />
    <rect id="sc-158" x="-2.037" y="13.128" width="0.3" height="0" transform="rotate(180,-1.887,13.128)" />
    <rect id="sc-159" x="-2.037" y="6.829" width="0.3" height="0" transform="rotate(180,-1.887,6.829)" />
    <rect id="sc-160" x="-2.037" y="0.53" width="0.3" height="0" transform="rotate(180,-1.887,0.53)" />
    <rect id="sc-161" x="-2.037" y="-5.769" width="0.3" height="0" transform="rotate(180,-1.887,-5.769)" />
    <rect id="sc-162" x="-2.037" y="-12.069" width="0.3" height="0" transform="rotate(180,-1.887,-12.069)" />
    <rect id="sc-163" x="-2.037" y="-15.32" width="0.3" height="0" transform="rotate(180,-1.887,-15.32)" />
    <rect id="sc-164" x="-2.037" y="-22.635" width="0.3" height="0" transform="rotate(180,-1.887,-22.635)" />
  </g>
</svg>