<?xml version="1.0" encoding="utf-8"?>
<svg xmlns="http://www.w3.org/2000/svg" viewBox="-16.763 -31.192 73.836 56.08">
  <g transform="scale(1,-1)">
    <rect id="tm-1" x="6.504" y="-8.631" width="0.3" height="0.3" />
    <rect id="tm-2" x="6.285" y="-0.267" width="0.3" height="0.3" />
    <rect id="tm-3" x="6.285" y="4.763" width="0.3" height="0.3" />
    <rect id="tm-4" x="6.285" y="13.78" width="0.3" height="0.3" />
    <rect id="tm-5" x="-0.293" y="-12.29" width="0.3" height="0.3" transform="rotate(270,-0.143,-12.14)" />
    <rect id="tm-6" x="4.995" y="-12.29" width="0.3" height="0.3" transform="rotate(270,5.145,-12.14)" />
    <rect id="tm-7" x="-0.293" y="-7.79" width="0.3" height="0.3" transform="rotate(270,-0.143,-7.64)" />
    <rect id="tm-8" x="4.995" y="-7.79" width="0.3" height="0.3" transform="rotate(270,5.145,-7.64)" />
    <rect id="tm-9" x="-0.293" y="-3.29" width="0.3" height="0.3" transform="rotate(270,-0.143,-3.14)" />
    <rect id="tm-10" x="4.995" y="-3.29" width="0.3" height="0.3" transform="rotate(270,5.145,-3.14)" />
    <rect id="tm-11" x="-0.293" y="1.21" width="0.3" height="0.3" transform="rotate(270,-0.143,1.36)" />
    <rect id="tm-12" x="4.995" y="1.21" width="0.3" height="0.3" transform="rotate(270,5.145,1.36)" />
    <rect id="tm-13" x="-0.293" y="5.71" width="0.3" height="0.3" transform="rotate(270,-0.143,5.86)" />
    <rect id="tm-14" x="4.995" y="5.71" width="0.3" height="0.3" transform="rotate(270,5.145,5.86)" />
    <rect id="tm-15" x="-0.293" y="10.21" width="0.3" height="0.3" transform="rotate(270,-0.143,10.36)" />
    <rect id="tm-16" x="4.995" y="10.21" width="0.3" height="0.3" transform="rotate(270,5.145,10.36)" />
    <rect id="tm-17" x="-0.293" y="14.71" width="0.3" height="0.3" transform="rotate(270,-0.143,14.86)" />
    <rect id="tm-18" x="4.995" y="14.71" width="0.3" height="0.3" transform="rotate(270,5.145,14.86)" />
    <rect id="tm-19" x="-0.293" y="19.21" width="0.3" height="0.3" transform="rotate(270,-0.143,19.36)" />
    <rect id="tm-20" x="4.995" y="19.21" width="0.3" height="0.3" transform="rotate(270,5.145,19.36)" />
    <rect id="tm-21" x="-1.667" y="-5.457" width="0.3" height="0.3" transform="rotate(270,-1.517,-5.307)" />
    <rect id="tm-22" x="-1.667" y="-2.357" width="0.3" height="0.3" transform="rotate(270,-1.517,-2.207)" />
    <rect id="tm-23" x="-1.667" y="3.643" width="0.3" height="0.3" transform="rotate(270,-1.517,3.793)" />
    <rect id="tm-24" x="-1.667" y="9.212" width="0.3" height="0.3" transform="rotate(270,-1.517,9.362)" />
    <rect id="tm-25" x="-1.667" y="12.312" width="0.3" height="0.3" transform="rotate(270,-1.517,12.462)" />
    <rect id="tm-26" x="0.816" y="22.105" width="0.3" height="0.3" transform="rotate(180,0.966,22.255)" />
    <rect id="tm-27" x="3.016" y="22.105" width="0.3" height="0.3" transform="rotate(180,3.166,22.255)" />
  </g>
</svg>