<?xml version="1.0" encoding="utf-8"?>
<svg xmlns="http://www.w3.org/2000/svg" viewBox="-16.763 -31.192 73.836 56.08">
  <g transform="scale(1,-1)">
    <path id="w-62" d="M 24.469,22.255 L -1.517,22.255" />
    <path id="w-63" d="M 1.354,-15 L 7.245,-15" />
    <path id="w-64" d="M 21.213,24.608 L 21.213,22.255" />
    <path id="w-65" d="M 21.213,24.608 L 24.469,24.608" />
    <path id="w-66" d="M 23.869,24.608 L 23.869,22.255" />
    <path id="w-67" d="M -1.517,22.255 L -1.517,-14.931" />
    <path id="w-68" d="M 3.854,-17.315 L 3.854,-15" />
    <path id="w-69" d="M 7.245,-23.333 L 7.245,-15" />
    <path id="w-70" d="M 12.647,-23.333 L 12.647,-15" />
    <path id="w-71" d="M 12.647,-17.315 L 3.854,-17.315" />
    <path id="w-72" d="M 8.945,-17.315 L 8.945,-15" />
    <path id="w-73" d="M 10.947,-17.315 L 10.947,-15" />
    <path id="w-74" d="M 9.745,-17.315 L 9.745,-23.333" />
    <path id="w-75" d="M 10.245,-17.315 L 10.245,-23.333" />
    <path id="w-76" d="M 8.945,-15 L 10.947,-15" />
    <path id="w-77" d="M 12.647,-15 L 53.63,-15" />
    <path id="w-79" d="M 43.716,-15 L 43.716,-23.206" />
    <path id="w-109" d="M 35.716,-15 L 35.716,-23.206" />
    <path id="w-110" d="M 29.716,-15 L 29.716,-23.206" />
    <path id="w-111" d="M 21.716,-15 L 21.716,-23.206" />
    <path id="w-112" d="M -1.517,-13.74 L -9.722,-13.74" />
    <path id="w-113" d="M -1.517,-3.74 L -9.722,-3.74" />
    <path id="w-114" d="M -1.517,2.33 L -9.849,2.33" />
    <path id="w-115" d="M -1.517,5.33 L -9.849,5.33" />
    <path id="w-116" d="M -1.517,10.93 L -9.849,10.93" />
    <path id="w-117" d="M -1.517,17.561 L -9.849,17.561" />
    <path id="w-118" d="M -7.217,5.33 L -7.217,2.33" />
    <path id="w-119" d="M 1.648,30.514 L 1.648,22.255" />
    <path id="w-120" d="M 7.045,24.608 L 7.045,22.255" />
    <path id="w-121" d="M 7.045,24.608 L 9.713,24.608" />
    <path id="w-122" d="M 9.713,30.641 L 9.713,22.255" />
    <path id="w-123" d="M 16.013,30.641 L 16.013,22.255" />
  </g>
</svg>