<?xml version="1.0" encoding="utf-8"?>
<svg xmlns="http://www.w3.org/2000/svg" viewBox="-33.918 -13.687 55.2 23.839">
  <g transform="scale(1,-1)">
    <line id="du-696" x1="-18.847" y1="5.048" x2="-18.847" y2="2.939" stroke="black" stroke-width="0.203" stroke-linecap="square" />
    <line id="du-697" x1="-26.096" y1="5.049" x2="-26.096" y2="2.939" stroke="black" stroke-width="0.203" stroke-linecap="square" />
    <line id="du-698" x1="-18.847" y1="9.727" x2="-18.847" y2="6.659" stroke="black" stroke-width="0.203" stroke-linecap="square" />
    <line id="du-699" x1="-18.847" y1="6" x2="-18.847" y2="5.706" stroke="black" stroke-width="0.203" stroke-linecap="square" />
    <line id="du-700" x1="-18.847" y1="6.443" x2="-18.847" y2="6.216" stroke="black" stroke-width="0.203" stroke-linecap="square" />
    <line id="du-701" x1="-18.847" y1="5.491" x2="-18.847" y2="5.263" stroke="black" stroke-width="0.203" stroke-linecap="square" />
    <line id="du-702" x1="-25.584" y1="9.727" x2="-25.584" y2="7.477" stroke="black" stroke-width="0.203" stroke-linecap="square" />
    <line id="du-703" x1="-26.096" y1="6.001" x2="-26.096" y2="5.708" stroke="black" stroke-width="0.203" stroke-linecap="square" />
    <line id="du-704" x1="-26.096" y1="6.394" x2="-26.096" y2="6.217" stroke="black" stroke-width="0.203" stroke-linecap="square" />
    <line id="du-705" x1="-26.096" y1="5.492" x2="-26.096" y2="5.265" stroke="black" stroke-width="0.203" stroke-linecap="square" />
    <line id="du-706" x1="-26.096" y1="6.61" x2="-26.096" y2="6.713" stroke="black" stroke-width="0.203" stroke-linecap="square" />
    <line id="du-707" x1="-25.673" y1="7.262" x2="-26.007" y2="6.928" stroke="black" stroke-width="0.203" stroke-linecap="square" />
    <line id="du-708" x1="-29.373" y1="1.497" x2="-31.735" y2="1.497" stroke="black" stroke-width="0.203" stroke-linecap="square" />
    <line id="du-709" x1="-25.146" y1="1.497" x2="-22.667" y2="1.497" stroke="black" stroke-width="0.203" stroke-linecap="square" />
    <line id="du-710" x1="-17.44" y1="1.497" x2="-18.72" y2="1.497" stroke="black" stroke-width="0.203" stroke-linecap="square" />
    <line id="du-711" x1="-26.096" y1="2.724" x2="-26.096" y2="2.496" stroke="black" stroke-width="0.203" stroke-linecap="square" />
    <line id="du-712" x1="-26.096" y1="2.28" x2="-26.096" y2="2.107" stroke="black" stroke-width="0.203" stroke-linecap="square" />
    <line id="du-713" x1="-26.491" y1="1.586" x2="-26.185" y2="1.892" stroke="black" stroke-width="0.203" stroke-linecap="square" />
    <line id="du-714" x1="-18.847" y1="2.724" x2="-18.847" y2="2.496" stroke="black" stroke-width="0.203" stroke-linecap="square" />
    <line id="du-715" x1="-18.847" y1="2.28" x2="-18.847" y2="2.107" stroke="black" stroke-width="0.203" stroke-linecap="square" />
    <line id="du-716" x1="-18.981" y1="1.847" x2="-18.936" y2="1.892" stroke="black" stroke-width="0.203" stroke-linecap="square" />
    <line id="du-717" x1="-18.936" y1="1.586" x2="-18.981" y2="1.631" stroke="black" stroke-width="0.203" stroke-linecap="square" />
    <line id="du-718" x1="-19.241" y1="1.586" x2="-19.196" y2="1.631" stroke="black" stroke-width="0.203" stroke-linecap="square" />
    <line id="du-719" x1="-29.221" y1="1.389" x2="-29.221" y2="1.191" stroke="black" stroke-width="0.203" stroke-linecap="square" />
    <line id="du-720" x1="-26.706" y1="1.497" x2="-29.068" y2="1.497" stroke="black" stroke-width="0.203" stroke-linecap="square" />
    <line id="du-721" x1="-29.221" y1="0.976" x2="-29.221" y2="0.089" stroke="black" stroke-width="0.203" stroke-linecap="square" />
    <line id="du-722" x1="-29.248" y1="-0.038" x2="-29.558" y2="-0.717" stroke="black" stroke-width="0.203" stroke-linecap="square" />
    <line id="du-723" x1="-22.515" y1="1.389" x2="-22.515" y2="1.191" stroke="black" stroke-width="0.203" stroke-linecap="square" />
    <line id="du-724" x1="-22.515" y1="0.976" x2="-22.515" y2="0.356" stroke="black" stroke-width="0.203" stroke-linecap="square" />
    <line id="du-725" x1="-22.543" y1="0.229" x2="-22.974" y2="-0.717" stroke="black" stroke-width="0.203" stroke-linecap="square" />
    <line id="du-726" x1="-19.457" y1="1.497" x2="-22.363" y2="1.497" stroke="black" stroke-width="0.203" stroke-linecap="square" />
    <line id="du-727" x1="-17.135" y1="1.282" x2="-17.135" y2="1.191" stroke="black" stroke-width="0.203" stroke-linecap="square" />
    <line id="du-728" x1="-17.135" y1="0.976" x2="-17.135" y2="0.356" stroke="black" stroke-width="0.203" stroke-linecap="square" />
    <line id="du-729" x1="-17.162" y1="0.229" x2="-17.457" y2="-0.417" stroke="black" stroke-width="0.203" stroke-linecap="square" />
    <line id="du-730" x1="-27.263" y1="6.001" x2="-27.263" y2="5.834" stroke="black" stroke-width="0.203" stroke-linecap="square" />
    <line id="du-731" x1="-27.263" y1="6.394" x2="-27.263" y2="6.217" stroke="black" stroke-width="0.203" stroke-linecap="square" />
    <line id="du-732" x1="-27.263" y1="7.957" x2="-27.263" y2="6.61" stroke="black" stroke-width="0.203" stroke-linecap="square" />
    <line id="du-733" x1="-15.725" y1="8.326" x2="-15.725" y2="1.137" stroke="black" stroke-width="0.203" stroke-linecap="square" />
    <line id="du-734" x1="-19.355" y1="9.727" x2="-19.355" y2="9.701" stroke="black" stroke-width="0.203" stroke-linecap="square" />
    <line id="du-735" x1="-16.796" y1="9.397" x2="-18.822" y2="9.397" stroke="black" stroke-width="0.203" stroke-linecap="square" />
    <line id="du-736" x1="-16.581" y1="9.307" x2="-15.815" y2="8.541" stroke="black" stroke-width="0.203" stroke-linecap="square" />
    <line id="du-737" x1="-19.139" y1="9.397" x2="-19.038" y2="9.397" stroke="black" stroke-width="0.203" stroke-linecap="square" />
    <line id="du-738" x1="-26.092" y1="9.727" x2="-26.092" y2="9.38" stroke="black" stroke-width="0.203" stroke-linecap="square" />
    <line id="du-739" x1="-27.174" y1="8.172" x2="-26.181" y2="9.164" stroke="black" stroke-width="0.203" stroke-linecap="square" />
    <line id="du-740" x1="-27.352" y1="5.619" x2="-27.497" y2="5.474" stroke="black" stroke-width="0.203" stroke-linecap="square" />
    <line id="du-741" x1="-27.712" y1="5.385" x2="-32.489" y2="5.385" stroke="black" stroke-width="0.203" stroke-linecap="square" />
    <line id="du-742" x1="-32.705" y1="5.295" x2="-33.28" y2="4.72" stroke="black" stroke-width="0.203" stroke-linecap="square" />
    <line id="du-743" x1="-33.37" y1="4.504" x2="-33.37" y2="1.735" stroke="black" stroke-width="0.203" stroke-linecap="square" />
    <line id="du-744" x1="-26.092" y1="11.157" x2="-26.092" y2="11.892" stroke="black" stroke-width="0.102" stroke-linecap="square" />
    <line id="du-745" x1="-25.584" y1="11.157" x2="-25.584" y2="12.019" stroke="black" stroke-width="0.102" stroke-linecap="square" />
    <line id="du-746" x1="-19.355" y1="11.157" x2="-19.355" y2="12.019" stroke="black" stroke-width="0.102" stroke-linecap="square" />
    <line id="du-747" x1="-18.847" y1="11.157" x2="-18.847" y2="12.019" stroke="black" stroke-width="0.102" stroke-linecap="square" />
    <line id="du-748" x1="-17.907" y1="12.171" x2="-18.472" y2="12.171" stroke="black" stroke-width="0.102" stroke-linecap="square" />
    <line id="du-749" x1="-18.748" y1="12.171" x2="-18.588" y2="12.171" stroke="black" stroke-width="0.102" stroke-linecap="square" />
    <line id="du-750" x1="-21.565" y1="12.171" x2="-19.687" y2="12.171" stroke="black" stroke-width="0.102" stroke-linecap="square" />
    <line id="du-751" x1="-19.443" y1="12.171" x2="-19.563" y2="12.171" stroke="black" stroke-width="0.102" stroke-linecap="square" />
    <line id="du-752" x1="-24.257" y1="12.171" x2="-25.216" y2="12.171" stroke="black" stroke-width="0.102" stroke-linecap="square" />
    <line id="du-753" x1="-25.324" y1="12.171" x2="-25.476" y2="12.171" stroke="black" stroke-width="0.102" stroke-linecap="square" />
    <line id="du-754" x1="-28.067" y1="12.044" x2="-26.46" y2="12.044" stroke="black" stroke-width="0.102" stroke-linecap="square" />
    <line id="du-755" x1="-26.352" y1="12.044" x2="-26.2" y2="12.044" stroke="black" stroke-width="0.102" stroke-linecap="square" />
    <line id="du-756" x1="-10.072" y1="3.232" x2="-10.072" y2="3.149" stroke="black" stroke-width="0.102" stroke-linecap="square" />
    <line id="du-757" x1="-10.174" y1="3.048" x2="-10.631" y2="3.048" stroke="black" stroke-width="0.102" stroke-linecap="square" />
    <line id="du-758" x1="-9.564" y1="3.232" x2="-9.564" y2="3.003" stroke="black" stroke-width="0.102" stroke-linecap="square" />
    <line id="du-759" x1="-9.666" y1="2.902" x2="-10.796" y2="2.902" stroke="black" stroke-width="0.102" stroke-linecap="square" />
    <line id="du-760" x1="-10.733" y1="3.149" x2="-10.733" y2="5.246" stroke="black" stroke-width="0.102" stroke-linecap="square" />
    <line id="du-761" x1="-10.898" y1="3.003" x2="-10.898" y2="4.998" stroke="black" stroke-width="0.102" stroke-linecap="square" />
    <line id="du-762" x1="-10.733" y1="5.378" x2="-10.733" y2="5.518" stroke="black" stroke-width="0.102" stroke-linecap="square" />
    <line id="du-763" x1="-10.733" y1="5.65" x2="-10.733" y2="5.982" stroke="black" stroke-width="0.102" stroke-linecap="square" />
    <line id="du-764" x1="-10.733" y1="6.114" x2="-10.733" y2="6.331" stroke="black" stroke-width="0.102" stroke-linecap="square" />
    <line id="du-765" x1="-10.733" y1="6.463" x2="-10.733" y2="11.9" stroke="black" stroke-width="0.102" stroke-linecap="square" />
    <line id="du-766" x1="-11.311" y1="6.476" x2="-11.311" y2="12.103" stroke="black" stroke-width="0.102" stroke-linecap="square" />
    <line id="du-767" x1="-11.311" y1="6.344" x2="-11.311" y2="6.13" stroke="black" stroke-width="0.102" stroke-linecap="square" />
    <line id="du-768" x1="-11.311" y1="5.998" x2="-11.311" y2="5.711" stroke="black" stroke-width="0.102" stroke-linecap="square" />
    <line id="du-769" x1="-10.943" y1="5.105" x2="-11.195" y2="5.358" stroke="black" stroke-width="0.102" stroke-linecap="square" />
    <line id="du-770" x1="-11.279" y1="5.442" x2="-11.295" y2="5.458" stroke="black" stroke-width="0.102" stroke-linecap="square" />
    <line id="du-771" x1="-11.311" y1="5.492" x2="-11.311" y2="5.579" stroke="black" stroke-width="0.102" stroke-linecap="square" />
    <line id="du-772" x1="-11.159" y1="12.256" x2="-10.967" y2="12.256" stroke="black" stroke-width="0.102" stroke-linecap="square" />
    <line id="du-773" x1="-10.833" y1="12.256" x2="-10.669" y2="12.256" stroke="black" stroke-width="0.102" stroke-linecap="square" />
    <line id="du-774" x1="-10.688" y1="12.008" x2="-10.485" y2="12.211" stroke="black" stroke-width="0.102" stroke-linecap="square" />
    <line id="du-775" x1="-10.377" y1="12.256" x2="-7.336" y2="12.256" stroke="black" stroke-width="0.102" stroke-linecap="square" />
    <line id="du-776" x1="-7.228" y1="12.256" x2="-6.893" y2="12.256" stroke="black" stroke-width="0.102" stroke-linecap="square" />
    <line id="du-777" x1="-6.785" y1="12.408" x2="-6.785" y2="13.037" stroke="black" stroke-width="0.102" stroke-linecap="square" />
    <line id="du-778" x1="-10.072" y1="6.54" x2="-10.072" y2="11.851" stroke="black" stroke-width="0.203" stroke-linecap="square" />
    <line id="du-779" x1="-10.072" y1="4.759" x2="-10.072" y2="4.662" stroke="black" stroke-width="0.203" stroke-linecap="square" />
    <line id="du-780" x1="-10.072" y1="5.424" x2="-10.072" y2="5.512" stroke="black" stroke-width="0.203" stroke-linecap="square" />
    <line id="du-781" x1="-10.072" y1="5.776" x2="-10.072" y2="5.924" stroke="black" stroke-width="0.203" stroke-linecap="square" />
    <line id="du-782" x1="-10.072" y1="6.276" x2="-10.072" y2="6.188" stroke="black" stroke-width="0.203" stroke-linecap="square" />
    <line id="du-783" x1="-10.072" y1="4.911" x2="-10.072" y2="4.911" stroke="black" stroke-width="0.203" stroke-linecap="square" />
    <line id="du-784" x1="-10.072" y1="5.16" x2="-10.072" y2="5.063" stroke="black" stroke-width="0.203" stroke-linecap="square" />
    <line id="du-785" x1="-9.564" y1="6.643" x2="-9.564" y2="6.581" stroke="black" stroke-width="0.203" stroke-linecap="square" />
    <line id="du-786" x1="-9.26" y1="6.948" x2="-7.278" y2="6.948" stroke="black" stroke-width="0.203" stroke-linecap="square" />
    <line id="du-787" x1="-6.974" y1="7.253" x2="-6.974" y2="11.851" stroke="black" stroke-width="0.203" stroke-linecap="square" />
    <line id="du-788" x1="-9.564" y1="4.662" x2="-9.564" y2="5.16" stroke="black" stroke-width="0.203" stroke-linecap="square" />
    <line id="du-789" x1="-9.564" y1="5.776" x2="-9.564" y2="6.153" stroke="black" stroke-width="0.203" stroke-linecap="square" />
    <line id="du-790" x1="-9.564" y1="5.424" x2="-9.564" y2="5.512" stroke="black" stroke-width="0.203" stroke-linecap="square" />
    <line id="du-791" x1="-9.564" y1="6.428" x2="-9.564" y2="6.306" stroke="black" stroke-width="0.203" stroke-linecap="square" />
    <line id="du-792" x1="8.638" y1="6.92" x2="8.638" y2="5.742" stroke="black" stroke-width="0.203" stroke-linecap="square" />
    <line id="du-793" x1="8.13" y1="6.358" x2="8.13" y2="6.721" stroke="black" stroke-width="0.203" stroke-linecap="square" />
    <line id="du-794" x1="8.13" y1="4.312" x2="8.13" y2="4.287" stroke="black" stroke-width="0.102" stroke-linecap="square" />
    <line id="du-795" x1="8.638" y1="4.312" x2="8.638" y2="4.287" stroke="black" stroke-width="0.102" stroke-linecap="square" />
    <line id="du-796" x1="7.978" y1="4.134" x2="7.063" y2="4.134" stroke="black" stroke-width="0.102" stroke-linecap="square" />
    <line id="du-797" x1="6.911" y1="4.287" x2="6.911" y2="7.119" stroke="black" stroke-width="0.102" stroke-linecap="square" />
    <line id="du-798" x1="8.791" y1="4.134" x2="9.146" y2="4.134" stroke="black" stroke-width="0.102" stroke-linecap="square" />
    <line id="du-799" x1="9.299" y1="4.287" x2="9.299" y2="7.234" stroke="black" stroke-width="0.102" stroke-linecap="square" />
    <line id="du-800" x1="2.034" y1="7.767" x2="5.756" y2="7.767" stroke="black" stroke-width="0.102" stroke-linecap="square" />
    <line id="du-801" x1="6.866" y1="7.227" x2="6.378" y2="7.715" stroke="black" stroke-width="0.102" stroke-linecap="square" />
    <line id="du-802" x1="9.705" y1="9.857" x2="8.283" y2="9.857" stroke="black" stroke-width="0.203" stroke-linecap="square" />
    <line id="du-803" x1="8.943" y1="7.767" x2="10.595" y2="7.767" stroke="black" stroke-width="0.203" stroke-linecap="square" />
    <line id="du-804" x1="8.638" y1="7.462" x2="8.638" y2="7.416" stroke="black" stroke-width="0.203" stroke-linecap="square" />
    <line id="du-805" x1="8.638" y1="7.2" x2="8.638" y2="7.135" stroke="black" stroke-width="0.203" stroke-linecap="square" />
    <line id="du-806" x1="9.767" y1="12.41" x2="10.024" y2="12.153" stroke="black" stroke-width="0.102" stroke-linecap="square" />
    <line id="du-807" x1="10.066" y1="12.016" x2="10.066" y2="7.539" stroke="black" stroke-width="0.102" stroke-linecap="square" />
    <line id="du-808" x1="9.947" y1="7.387" x2="9.418" y2="7.387" stroke="black" stroke-width="0.102" stroke-linecap="square" />
    <line id="du-809" x1="11.422" y1="8.593" x2="11.422" y2="11.577" stroke="black" stroke-width="0.203" stroke-linecap="square" />
    <line id="du-810" x1="11.332" y1="8.378" x2="10.81" y2="7.856" stroke="black" stroke-width="0.203" stroke-linecap="square" />
    <line id="du-811" x1="8.13" y1="6.936" x2="8.13" y2="6.986" stroke="black" stroke-width="0.203" stroke-linecap="square" />
    <line id="du-812" x1="8.13" y1="9.705" x2="8.13" y2="7.202" stroke="black" stroke-width="0.203" stroke-linecap="square" />
    <line id="du-813" x1="1.882" y1="7.919" x2="1.882" y2="12.078" stroke="black" stroke-width="0.102" stroke-linecap="square" />
    <line id="du-814" x1="6.262" y1="7.767" x2="5.827" y2="7.767" stroke="black" stroke-width="0.102" stroke-linecap="square" />
    <line id="du-815" x1="1.882" y1="12.186" x2="1.882" y2="12.376" stroke="black" stroke-width="0.102" stroke-linecap="square" />
    <line id="du-816" x1="4.133" y1="9.401" x2="4.133" y2="3.057" stroke="black" stroke-width="0.203" stroke-linecap="square" />
    <line id="du-817" x1="4.286" y1="9.857" x2="7.978" y2="9.857" stroke="black" stroke-width="0.203" stroke-linecap="square" />
    <line id="du-818" x1="2.644" y1="9.857" x2="3.981" y2="9.857" stroke="black" stroke-width="0.203" stroke-linecap="square" />
    <line id="du-819" x1="4.133" y1="9.554" x2="4.133" y2="9.725" stroke="black" stroke-width="0.203" stroke-linecap="square" />
    <line id="du-820" x1="8.13" y1="6.231" x2="8.13" y2="6.231" stroke="black" stroke-width="0.152" stroke-linecap="square" />
    <line id="du-821" x1="8.13" y1="5.742" x2="8.13" y2="6.104" stroke="black" stroke-width="0.203" stroke-linecap="square" />
    <line id="du-822" x1="8.13" y1="6.079" x2="8.13" y2="5.927" stroke="black" stroke-width="0.152" stroke-linecap="square" />
    <line id="du-823" x1="14.518" y1="4.683" x2="14.518" y2="5.984" stroke="black" stroke-width="0.203" stroke-linecap="square" />
    <line id="du-824" x1="14.01" y1="5.681" x2="14.01" y2="12.151" stroke="black" stroke-width="0.203" stroke-linecap="square" />
    <line id="du-825" x1="14.518" y1="3.253" x2="14.518" y2="3.119" stroke="black" stroke-width="0.102" stroke-linecap="square" />
    <line id="du-826" x1="14.01" y1="3.253" x2="14.01" y2="3.119" stroke="black" stroke-width="0.102" stroke-linecap="square" />
    <line id="du-827" x1="18.059" y1="6.289" x2="15.03" y2="6.289" stroke="black" stroke-width="0.203" stroke-linecap="square" />
    <line id="du-828" x1="18.274" y1="6.378" x2="19.019" y2="7.122" stroke="black" stroke-width="0.203" stroke-linecap="square" />
    <line id="du-829" x1="19.105" y1="7.378" x2="18.497" y2="11.998" stroke="black" stroke-width="0.203" stroke-linecap="square" />
    <line id="du-830" x1="14.795" y1="6.289" x2="14.903" y2="6.289" stroke="black" stroke-width="0.203" stroke-linecap="square" />
    <line id="du-831" x1="14.01" y1="5.554" x2="14.01" y2="5.554" stroke="black" stroke-width="0.152" stroke-linecap="square" />
    <line id="du-832" x1="14.01" y1="5.125" x2="14.01" y2="5.427" stroke="black" stroke-width="0.203" stroke-linecap="square" />
    <line id="du-833" x1="14.01" y1="5.325" x2="14.01" y2="4.995" stroke="black" stroke-width="0.152" stroke-linecap="square" />
    <line id="du-834" x1="14.449" y1="4.998" x2="16.044" y2="4.998" stroke="black" stroke-width="0.152" stroke-linecap="square" />
    <line id="du-835" x1="16.272" y1="4.77" x2="16.272" y2="3.525" stroke="black" stroke-width="0.152" stroke-linecap="square" />
    <line id="du-836" x1="13.857" y1="2.966" x2="13.146" y2="2.966" stroke="black" stroke-width="0.102" stroke-linecap="square" />
    <line id="du-837" x1="12.994" y1="6.229" x2="12.994" y2="6.016" stroke="black" stroke-width="0.102" stroke-linecap="square" />
    <line id="du-838" x1="12.994" y1="3.074" x2="12.994" y2="3.2" stroke="black" stroke-width="0.102" stroke-linecap="square" />
    <line id="du-839" x1="12.994" y1="5.872" x2="12.994" y2="3.307" stroke="black" stroke-width="0.102" stroke-linecap="square" />
    <line id="du-840" x1="12.994" y1="6.372" x2="12.994" y2="11.961" stroke="black" stroke-width="0.102" stroke-linecap="square" />
    <line id="du-841" x1="13.062" y1="12.102" x2="13.467" y2="12.336" stroke="black" stroke-width="0.102" stroke-linecap="square" />
    <line id="du-842" x1="13.535" y1="12.476" x2="13.535" y2="13.037" stroke="black" stroke-width="0.102" stroke-linecap="square" />
    <line id="du-843" x1="14.67" y1="2.966" x2="17.193" y2="2.966" stroke="black" stroke-width="0.102" stroke-linecap="square" />
    <line id="du-844" x1="17.345" y1="6.776" x2="17.345" y2="12.027" stroke="black" stroke-width="0.102" stroke-linecap="square" />
    <line id="du-845" x1="17.345" y1="3.119" x2="17.345" y2="6.307" stroke="black" stroke-width="0.102" stroke-linecap="square" />
    <line id="du-846" x1="17.345" y1="12.159" x2="17.345" y2="12.364" stroke="black" stroke-width="0.102" stroke-linecap="square" />
    <line id="du-847" x1="17.345" y1="6.439" x2="17.345" y2="6.645" stroke="black" stroke-width="0.102" stroke-linecap="square" />
    <line id="du-848" x1="-3.353" y1="8.479" x2="-3.353" y2="11.711" stroke="black" stroke-width="0.203" stroke-linecap="square" />
    <line id="du-849" x1="-2.845" y1="8.053" x2="-2.845" y2="8.815" stroke="black" stroke-width="0.203" stroke-linecap="square" />
    <line id="du-850" x1="-2.54" y1="9.12" x2="0.356" y2="9.12" stroke="black" stroke-width="0.203" stroke-linecap="square" />
    <line id="du-851" x1="-3.353" y1="6.623" x2="-3.353" y2="6.318" stroke="black" stroke-width="0.102" stroke-linecap="square" />
    <line id="du-852" x1="-3.505" y1="6.166" x2="-4.093" y2="6.166" stroke="black" stroke-width="0.102" stroke-linecap="square" />
    <line id="du-853" x1="-4.245" y1="6.318" x2="-4.245" y2="13.037" stroke="black" stroke-width="0.102" stroke-linecap="square" />
    <line id="du-854" x1="-2.845" y1="6.623" x2="-2.845" y2="6.318" stroke="black" stroke-width="0.102" stroke-linecap="square" />
    <line id="du-855" x1="-2.692" y1="6.166" x2="-2.388" y2="6.166" stroke="black" stroke-width="0.102" stroke-linecap="square" />
    <line id="du-856" x1="-2.235" y1="8.278" x2="-2.235" y2="6.318" stroke="black" stroke-width="0.102" stroke-linecap="square" />
    <line id="du-857" x1="-2.235" y1="8.41" x2="-2.235" y2="8.439" stroke="black" stroke-width="0.102" stroke-linecap="square" />
    <line id="du-858" x1="-0.435" y1="12.37" x2="-0.435" y2="12.255" stroke="black" stroke-width="0.102" stroke-linecap="square" />
    <line id="du-859" x1="-0.435" y1="12.123" x2="-0.435" y2="10.013" stroke="black" stroke-width="0.102" stroke-linecap="square" />
    <line id="du-860" x1="-2.235" y1="8.571" x2="-2.235" y2="8.636" stroke="black" stroke-width="0.102" stroke-linecap="square" />
    <line id="du-861" x1="-2.083" y1="8.788" x2="-0.927" y2="8.788" stroke="black" stroke-width="0.102" stroke-linecap="square" />
    <line id="du-862" x1="-0.819" y1="8.833" x2="-0.48" y2="9.172" stroke="black" stroke-width="0.102" stroke-linecap="square" />
    <line id="du-863" x1="-0.435" y1="9.28" x2="-0.435" y2="9.517" stroke="black" stroke-width="0.102" stroke-linecap="square" />
    <line id="du-864" x1="-0.435" y1="9.649" x2="-0.435" y2="9.881" stroke="black" stroke-width="0.102" stroke-linecap="square" />
    <line id="du-865" x1="-3.505" y1="8.327" x2="-3.532" y2="8.327" stroke="black" stroke-width="0.203" stroke-linecap="square" />
    <line id="du-866" x1="-3.353" y1="8.053" x2="-3.353" y2="8.175" stroke="black" stroke-width="0.203" stroke-linecap="square" />
    <line id="du-867" x1="-4.086" y1="8.327" x2="-5.157" y2="8.327" stroke="black" stroke-width="0.203" stroke-linecap="square" />
    <line id="du-868" x1="-5.372" y1="8.238" x2="-5.815" y2="7.795" stroke="black" stroke-width="0.203" stroke-linecap="square" />
    <line id="du-869" x1="-5.904" y1="7.58" x2="-5.904" y2="6.588" stroke="black" stroke-width="0.203" stroke-linecap="square" />
    <line id="du-870" x1="-3.822" y1="8.327" x2="-3.796" y2="8.327" stroke="black" stroke-width="0.203" stroke-linecap="square" />
    <line id="du-871" x1="-5.904" y1="6.283" x2="-5.904" y2="6.283" stroke="black" stroke-width="0.203" stroke-linecap="square" />
    <line id="du-985" x1="14.318" y1="4.998" x2="14.134" y2="4.998" stroke="black" stroke-width="0.152" stroke-linecap="square" />
    <line id="du-986" x1="14.01" y1="4.683" x2="14.01" y2="4.871" stroke="black" stroke-width="0.203" stroke-linecap="square" />
    <line id="du-1030" x1="-28.219" y1="13.043" x2="-28.219" y2="12.197" stroke="black" stroke-width="0.102" stroke-linecap="square" />
    <line id="du-1032" x1="-10.595" y1="13.043" x2="-10.595" y2="12.408" stroke="black" stroke-width="0.102" stroke-linecap="square" />
    <line id="du-1033" x1="-0.435" y1="13.043" x2="-0.435" y2="12.502" stroke="black" stroke-width="0.102" stroke-linecap="square" />
    <line id="du-1034" x1="9.725" y1="13.043" x2="9.725" y2="12.547" stroke="black" stroke-width="0.102" stroke-linecap="square" />
    <line id="du-1035" x1="17.345" y1="13.043" x2="17.345" y2="12.496" stroke="black" stroke-width="0.102" stroke-linecap="square" />
  </g>
</svg>