<?xml version="1.0" encoding="utf-8"?>
<svg xmlns="http://www.w3.org/2000/svg" viewBox="-33.918 -13.687 55.2 23.839">
  <g transform="scale(1,-1)">
    <rect id="tm-249" x="-29.46" y="-0.57" width="0.3" height="0.3" fill="black" transform="rotate(107.017,-29.31,-0.42)" />
    <rect id="tm-250" x="-29.645" y="-0.485" width="0.3" height="0.3" fill="black" transform="rotate(107.017,-29.495,-0.335)" />
    <rect id="tm-251" x="-30.704" y="1.449" width="0.3" height="0.3" fill="black" transform="rotate(90,-30.554,1.599)" />
    <rect id="tm-252" x="-28.037" y="1.449" width="0.3" height="0.3" fill="black" transform="rotate(90,-27.887,1.599)" />
    <rect id="tm-253" x="-26.348" y="3.114" width="0.3" height="0.3" fill="black" transform="rotate(120,-26.198,3.264)" />
    <rect id="tm-254" x="-26.348" y="4.562" width="0.3" height="0.3" fill="black" transform="rotate(120,-26.198,4.712)" />
    <rect id="tm-255" x="-26.145" y="3.844" width="0.3" height="0.3" fill="black" transform="rotate(120,-25.995,3.994)" />
    <rect id="tm-256" x="-25.836" y="8.804" width="0.3" height="0.3" fill="black" transform="rotate(120,-25.686,8.954)" />
    <rect id="tm-257" x="-25.632" y="8.169" width="0.3" height="0.3" fill="black" transform="rotate(120,-25.482,8.319)" />
    <rect id="tm-258" x="-17.341" y="-0.228" width="0.3" height="0.3" fill="black" transform="rotate(107.017,-17.191,-0.078)" />
    <rect id="tm-259" x="-17.526" y="-0.144" width="0.3" height="0.3" fill="black" transform="rotate(107.017,-17.376,0.006)" />
    <rect id="tm-260" x="-23.001" y="-0.352" width="0.3" height="0.3" fill="black" transform="rotate(107.017,-22.851,-0.202)" />
    <rect id="tm-261" x="-22.816" y="-0.436" width="0.3" height="0.3" fill="black" transform="rotate(107.017,-22.666,-0.286)" />
    <rect id="tm-262" x="-24.057" y="1.449" width="0.3" height="0.3" fill="black" transform="rotate(180,-23.907,1.599)" />
    <rect id="tm-263" x="-21.06" y="1.449" width="0.3" height="0.3" fill="black" transform="rotate(90,-20.91,1.599)" />
    <rect id="tm-264" x="-18.23" y="1.449" width="0.3" height="0.3" fill="black" transform="rotate(90,-18.08,1.599)" />
    <rect id="tm-265" x="-19.098" y="3.114" width="0.3" height="0.3" fill="black" transform="rotate(120,-18.948,3.264)" />
    <rect id="tm-266" x="-19.098" y="4.562" width="0.3" height="0.3" fill="black" transform="rotate(120,-18.948,4.712)" />
    <rect id="tm-267" x="-18.895" y="3.843" width="0.3" height="0.3" fill="black" transform="rotate(120,-18.745,3.993)" />
    <rect id="tm-268" x="-19.098" y="8.804" width="0.3" height="0.3" fill="black" transform="rotate(120,-18.948,8.954)" />
    <rect id="tm-269" x="-18.895" y="8.168" width="0.3" height="0.3" fill="black" transform="rotate(120,-18.745,8.318)" />
    <rect id="tm-274" x="-10.121" y="11.14" width="0.3" height="0.3" fill="black" transform="rotate(240,-9.971,11.29)" />
    <rect id="tm-275" x="-10.121" y="7.381" width="0.3" height="0.3" fill="black" transform="rotate(240,-9.971,7.531)" />
    <rect id="tm-276" x="-10.121" y="9.21" width="0.3" height="0.3" fill="black" transform="rotate(240,-9.971,9.36)" />
    <rect id="tm-277" x="-10.324" y="9.21" width="0.3" height="0.3" fill="black" transform="rotate(240,-10.174,9.36)" />
    <rect id="tm-278" x="2.822" y="9.605" width="0.3" height="0.3" fill="black" transform="rotate(90,2.972,9.755)" />
    <rect id="tm-279" x="2.822" y="9.809" width="0.3" height="0.3" fill="black" transform="rotate(90,2.972,9.959)" />
    <rect id="tm-280" x="4.907" y="9.605" width="0.3" height="0.3" fill="black" transform="rotate(90,5.057,9.755)" />
    <rect id="tm-281" x="4.907" y="9.809" width="0.3" height="0.3" fill="black" transform="rotate(90,5.057,9.959)" />
    <rect id="tm-282" x="6.937" y="9.809" width="0.3" height="0.3" fill="black" transform="rotate(90,7.087,9.959)" />
    <rect id="tm-283" x="6.937" y="9.605" width="0.3" height="0.3" fill="black" transform="rotate(90,7.087,9.755)" />
    <rect id="tm-284" x="9.098" y="9.809" width="0.3" height="0.3" fill="black" transform="rotate(270,9.248,9.959)" />
    <rect id="tm-285" x="9.098" y="9.605" width="0.3" height="0.3" fill="black" transform="rotate(90,9.248,9.755)" />
    <rect id="tm-287" x="4.085" y="7.728" width="0.3" height="0.3" fill="black" transform="rotate(240,4.235,7.878)" />
    <rect id="tm-288" x="4.085" y="4.282" width="0.3" height="0.3" fill="black" transform="rotate(120,4.235,4.432)" />
    <rect id="tm-290" x="13.961" y="6.855" width="0.3" height="0.3" fill="black" transform="rotate(240,14.111,7.005)" />
    <rect id="tm-291" x="13.961" y="8.531" width="0.3" height="0.3" fill="black" transform="rotate(240,14.111,8.681)" />
    <rect id="tm-292" x="13.961" y="9.903" width="0.3" height="0.3" fill="black" transform="rotate(240,14.111,10.053)" />
    <rect id="tm-293" x="13.961" y="11.579" width="0.3" height="0.3" fill="black" transform="rotate(240,14.111,11.729)" />
    <rect id="tm-295" x="16.198" y="3.693" width="0.3" height="0.3" fill="black" transform="rotate(120,16.348,3.843)" />
    <rect id="tm-298" x="-3.503" y="8.638" width="0.3" height="0.3" fill="black" transform="rotate(270,-3.353,8.788)" />
    <rect id="tm-299" x="-3.503" y="9.731" width="0.3" height="0.3" fill="black" transform="rotate(270,-3.353,9.881)" />
    <rect id="tm-300" x="-3.503" y="10.838" width="0.3" height="0.3" fill="black" transform="rotate(270,-3.353,10.988)" />
    <rect id="tm-301" x="-3.528" y="6.895" width="0.3" height="0.3" fill="black" transform="rotate(180,-3.378,7.045)" />
    <rect id="tm-302" x="-4.824" y="6.895" width="0.3" height="0.3" fill="black" transform="rotate(180,-4.674,7.045)" />
    <rect id="tm-443" x="-33.418" y="1.957" width="0.3" height="0.3" fill="black" transform="rotate(120,-33.268,2.107)" />
    <rect id="tm-444" x="-33.418" y="3.844" width="0.3" height="0.3" fill="black" transform="rotate(120,-33.268,3.994)" />
    <rect id="tm-445" x="-32.09" y="5.133" width="0.3" height="0.3" fill="black" transform="rotate(90,-31.94,5.283)" />
    <rect id="tm-446" x="-28.433" y="5.133" width="0.3" height="0.3" fill="black" transform="rotate(90,-28.283,5.283)" />
    <rect id="tm-447" x="-30.251" y="5.133" width="0.3" height="0.3" fill="black" transform="rotate(90,-30.101,5.283)" />
    <rect id="tm-448" x="-27.311" y="7.133" width="0.3" height="0.3" fill="black" transform="rotate(120,-27.161,7.283)" />
    <rect id="tm-449" x="-26.899" y="8.59" width="0.3" height="0.3" fill="black" transform="rotate(211.4,-26.749,8.74)" />
    <rect id="tm-450" x="-28.369" y="12.887" width="0.3" height="0.3" fill="black" transform="rotate(180,-28.219,13.037)" />
    <rect id="tm-451" x="-21.867" y="12.887" width="0.3" height="0.3" fill="black" transform="rotate(180,-21.717,13.037)" />
    <rect id="tm-452" x="-17.959" y="9.348" width="0.3" height="0.3" fill="black" transform="rotate(90,-17.809,9.498)" />
    <rect id="tm-453" x="-16.276" y="8.846" width="0.3" height="0.3" fill="black" transform="rotate(148.6,-16.126,8.996)" />
    <rect id="tm-454" x="-15.977" y="4.581" width="0.3" height="0.3" fill="black" transform="rotate(120,-15.827,4.731)" />
    <rect id="tm-455" x="-15.977" y="1.526" width="0.3" height="0.3" fill="black" transform="rotate(120,-15.827,1.676)" />
    <rect id="tm-456" x="-15.977" y="3.082" width="0.3" height="0.3" fill="black" transform="rotate(120,-15.827,3.232)" />
    <rect id="tm-457" x="-15.977" y="7.686" width="0.3" height="0.3" fill="black" transform="rotate(120,-15.827,7.836)" />
    <rect id="tm-458" x="-15.977" y="5.98" width="0.3" height="0.3" fill="black" transform="rotate(120,-15.827,6.13)" />
    <rect id="tm-459" x="-10.745" y="12.887" width="0.3" height="0.3" fill="black" transform="rotate(180,-10.595,13.037)" />
    <rect id="tm-460" x="-7.225" y="9.402" width="0.3" height="0.3" fill="black" transform="rotate(240,-7.075,9.552)" />
    <rect id="tm-461" x="-7.225" y="11.329" width="0.3" height="0.3" fill="black" transform="rotate(240,-7.075,11.479)" />
    <rect id="tm-462" x="-7.225" y="7.511" width="0.3" height="0.3" fill="black" transform="rotate(240,-7.075,7.661)" />
    <rect id="tm-463" x="-8.419" y="6.899" width="0.3" height="0.3" fill="black" transform="rotate(180,-8.269,7.049)" />
    <rect id="tm-464" x="-2.233" y="8.97" width="0.3" height="0.3" fill="black" transform="rotate(180,-2.083,9.12)" />
    <rect id="tm-465" x="-0.277" y="8.97" width="0.3" height="0.3" fill="black" transform="rotate(180,-0.127,9.12)" />
    <rect id="tm-466" x="-0.585" y="12.887" width="0.3" height="0.3" fill="black" transform="rotate(180,-0.435,13.037)" />
    <rect id="tm-467" x="9.619" y="7.718" width="0.3" height="0.3" fill="black" transform="rotate(180,9.769,7.868)" />
    <rect id="tm-468" x="11.17" y="8.905" width="0.3" height="0.3" fill="black" transform="rotate(240,11.32,9.055)" />
    <rect id="tm-469" x="11.17" y="10.886" width="0.3" height="0.3" fill="black" transform="rotate(240,11.32,11.036)" />
    <rect id="tm-470" x="9.575" y="12.887" width="0.3" height="0.3" fill="black" transform="rotate(180,9.725,13.037)" />
    <rect id="tm-471" x="17.195" y="12.887" width="0.3" height="0.3" fill="black" transform="rotate(180,17.345,13.037)" />
    <rect id="tm-472" x="16.75" y="6.241" width="0.3" height="0.3" fill="black" transform="rotate(270,16.9,6.391)" />
    <rect id="tm-473" x="18.775" y="7.819" width="0.3" height="0.3" fill="black" transform="rotate(244.231,18.925,7.969)" />
    <rect id="tm-474" x="18.571" y="9.369" width="0.3" height="0.3" fill="black" transform="rotate(244.231,18.721,9.519)" />
    <rect id="tm-475" x="18.3" y="11.427" width="0.3" height="0.3" fill="black" transform="rotate(244.231,18.45,11.577)" />
  </g>
</svg>