<?xml version="1.0" encoding="utf-8"?>
<svg xmlns="http://www.w3.org/2000/svg" viewBox="-132.909 190.877 21.419 23.638">
  <g transform="scale(1,-1)">
    <rect id="mn-16" x="-129.313" y="-195.183" width="0.05" height="0.05" fill="black" transform="rotate(240,-129.288,-195.158)" />
    <rect id="mn-17" x="-126.418" y="-195.335" width="0.05" height="0.05" fill="black" transform="rotate(180,-126.393,-195.31)" />
    <rect id="mn-18" x="-121.674" y="-195.183" width="0.05" height="0.05" fill="black" transform="rotate(120,-121.649,-195.158)" />
    <rect id="mn-19" x="-112.165" y="-197.774" width="0.05" height="0.05" fill="black" transform="rotate(240,-112.14,-197.749)" />
    <rect id="mn-20" x="-112.927" y="-195.031" width="0.05" height="0.05" fill="black" transform="rotate(180,-112.902,-195.006)" />
    <rect id="mn-21" x="-112.927" y="-193.38" width="0.05" height="0.05" fill="black" transform="rotate(120,-112.902,-193.355)" />
    <rect id="mn-22" x="-112.317" y="-204.88" width="0.05" height="0.05" fill="black" transform="rotate(180,-112.292,-204.855)" />
    <rect id="mn-23" x="-113.494" y="-204.88" width="0.05" height="0.05" fill="black" transform="rotate(180,-113.469,-204.855)" />
    <rect id="mn-24" x="-126.418" y="-210.537" width="0.05" height="0.05" fill="black" transform="rotate(240,-126.393,-210.512)" />
    <rect id="mn-25" x="-113.494" y="-210.69" width="0.05" height="0.05" fill="black" transform="rotate(180,-113.469,-210.665)" />
    <rect id="mn-26" x="-113.494" y="-213.89" width="0.05" height="0.05" fill="black" transform="rotate(240,-113.469,-213.865)" />
    <rect id="mn-27" x="-112.165" y="-210.537" width="0.05" height="0.05" fill="black" />
    <rect id="mn-28" x="-112.165" y="-201.105" width="0.05" height="0.05" fill="black" transform="rotate(240,-112.14,-201.08)" />
    <rect id="mn-29" x="-112.165" y="-195.183" width="0.05" height="0.05" fill="black" transform="rotate(90,-112.14,-195.158)" />
    <rect id="mn-30" x="-112.165" y="-200.597" width="0.05" height="0.05" fill="black" transform="rotate(120,-112.14,-200.572)" />
  </g>
</svg>