<?xml version="1.0" encoding="utf-8"?>
<svg xmlns="http://www.w3.org/2000/svg" viewBox="-35.095 -14.445 57.541 61.213">
  <g transform="scale(1,-1)">
    <rect id="if-59" x="-1.928" y="8.296" width="0.3" height="0.3" fill="black" transform="rotate(360,-1.778,8.446)" />
    <rect id="if-60" x="1.171" y="8.296" width="0.3" height="0.3" fill="black" transform="rotate(180,1.321,8.446)" />
    <rect id="if-61" x="1.171" y="5.476" width="0.3" height="0.3" fill="black" transform="rotate(180,1.321,5.626)" />
    <rect id="if-62" x="-1.928" y="5.476" width="0.3" height="0.3" fill="black" />
    <rect id="if-63" x="-27.798" y="7.61" width="0.3" height="0.3" fill="black" transform="rotate(360,-27.648,7.76)" />
    <rect id="if-64" x="-27.798" y="10.226" width="0.3" height="0.3" fill="black" transform="rotate(360,-27.648,10.376)" />
    <rect id="if-65" x="-30.592" y="5.476" width="0.3" height="0.3" fill="black" transform="rotate(360,-30.442,5.626)" />
    <rect id="if-66" x="-30.592" y="13.109" width="0.3" height="0.3" fill="black" transform="rotate(360,-30.442,13.259)" />
    <rect id="if-67" x="-34.059" y="5.476" width="0.3" height="0.3" fill="black" transform="rotate(180,-33.909,5.626)" />
    <rect id="if-68" x="-34.059" y="13.109" width="0.3" height="0.3" fill="black" transform="rotate(180,-33.909,13.259)" />
    <rect id="if-69" x="-34.059" y="9.292" width="0.3" height="0.3" fill="black" transform="rotate(180,-33.909,9.442)" />
    <rect id="if-70" x="-30.592" y="9.292" width="0.3" height="0.3" fill="black" transform="rotate(180,-30.442,9.442)" />
    <rect id="if-71" x="-32.325" y="11.201" width="0.3" height="0.3" fill="black" transform="rotate(180,-32.175,11.351)" />
    <rect id="if-72" x="-32.325" y="7.384" width="0.3" height="0.3" fill="black" transform="rotate(180,-32.175,7.534)" />
  </g>
</svg>