<?xml version="1.0" encoding="utf-8"?>
<svg xmlns="http://www.w3.org/2000/svg" viewBox="-33.335 -11.673 55.693 19.800">
  <g transform="scale(1,-1)">
    <rect id="eq-174" x="-32.264" y="-3.479" width="0.3" height="0.3" transform="rotate(114.55,-32.114,-3.329)" />
    <rect id="eq-175" x="-29.437" y="-4.399" width="0.3" height="0.3" transform="rotate(114.55,-29.287,-4.249)" />
    <rect id="eq-176" x="-31.17" y="-3.616" width="0.3" height="0.3" transform="rotate(114.55,-31.02,-3.466)" />
    <rect id="eq-177" x="-31.969" y="-2.87" width="0.3" height="0.3" transform="rotate(114.55,-31.819,-2.72)" />
    <rect id="eq-178" x="-29.094" y="-3.809" width="0.3" height="0.3" transform="rotate(114.55,-28.944,-3.659)" />
    <rect id="eq-179" x="-30.865" y="-3.003" width="0.3" height="0.3" transform="rotate(114.55,-30.715,-2.853)" />
    <rect id="eq-180" x="-31.723" y="-2.23" width="0.3" height="0.3" transform="rotate(114.55,-31.573,-2.08)" />
    <rect id="eq-181" x="-28.823" y="-3.187" width="0.3" height="0.3" transform="rotate(114.55,-28.673,-3.037)" />
    <rect id="eq-182" x="-30.61" y="-2.374" width="0.3" height="0.3" transform="rotate(114.55,-30.46,-2.224)" />
    <rect id="eq-183" x="-31.458" y="-1.606" width="0.3" height="0.3" transform="rotate(114.55,-31.308,-1.456)" />
    <rect id="eq-184" x="-24.336" y="-2.951" width="0.3" height="0.3" transform="rotate(114.55,-24.186,-2.801)" />
    <rect id="eq-185" x="-22.92" y="-4.713" width="0.3" height="0.3" transform="rotate(114.55,-22.77,-4.563)" />
    <rect id="eq-186" x="-22.779" y="-4.415" width="0.3" height="0.3" transform="rotate(114.55,-22.629,-4.265)" />
    <rect id="eq-187" x="-24.576" y="-3.598" width="0.3" height="0.3" transform="rotate(114.55,-24.426,-3.448)" />
    <rect id="eq-188" x="-25.609" y="-3.483" width="0.3" height="0.3" transform="rotate(114.55,-25.459,-3.333)" />
    <rect id="eq-189" x="-22.491" y="-3.805" width="0.3" height="0.3" transform="rotate(114.55,-22.341,-3.655)" />
    <rect id="eq-190" x="-18.546" y="-2.211" width="0.3" height="0.3" transform="rotate(116.173,-18.396,-2.061)" />
    <rect id="eq-191" x="-25.115" y="-2.224" width="0.3" height="0.3" transform="rotate(114.55,-24.965,-2.074)" />
    <rect id="eq-192" x="-22.209" y="-3.19" width="0.3" height="0.3" transform="rotate(114.55,-22.059,-3.04)" />
    <rect id="eq-193" x="-24.012" y="-2.364" width="0.3" height="0.3" transform="rotate(114.55,-23.862,-2.214)" />
    <rect id="eq-194" x="-24.841" y="-1.604" width="0.3" height="0.3" transform="rotate(114.55,-24.691,-1.454)" />
    <rect id="eq-195" x="-18.202" y="-1.633" width="0.3" height="0.3" transform="rotate(114.55,-18.052,-1.483)" />
    <rect id="eq-196" x="-17.451" y="-2.334" width="0.3" height="0.3" transform="rotate(114.55,-17.301,-2.184)" />
    <rect id="eq-197" x="-15.627" y="-3.163" width="0.3" height="0.3" transform="rotate(114.55,-15.477,-3.013)" />
    <rect id="eq-198" x="-15.779" y="-3.473" width="0.3" height="0.3" transform="rotate(114.55,-15.629,-3.323)" />
    <rect id="eq-199" x="-25.369" y="-2.864" width="0.3" height="0.3" transform="rotate(153.176,-25.219,-2.714)" />
    <rect id="eq-200" x="-17.695" y="-2.972" width="0.3" height="0.3" transform="rotate(114.55,-17.545,-2.822)" />
    <rect id="eq-201" x="-15.914" y="-3.789" width="0.3" height="0.3" transform="rotate(114.55,-15.764,-3.639)" />
    <rect id="eq-202" x="-18.751" y="-2.877" width="0.3" height="0.3" transform="rotate(114.55,-18.601,-2.727)" />
    <rect id="eq-203" x="-16.183" y="-4.414" width="0.3" height="0.3" transform="rotate(114.55,-16.033,-4.264)" />
    <rect id="eq-204" x="-19.105" y="-3.427" width="0.3" height="0.3" transform="rotate(114.55,-18.955,-3.277)" />
    <rect id="eq-205" x="-17.99" y="-3.586" width="0.3" height="0.3" transform="rotate(114.55,-17.84,-3.436)" />
    <rect id="eq-206" x="-10.797" y="-2.273" width="0.3" height="0.3" transform="rotate(114.55,-10.647,-2.123)" />
    <rect id="eq-207" x="-8.99" y="-3.089" width="0.3" height="0.3" transform="rotate(114.55,-8.84,-2.939)" />
    <rect id="eq-208" x="-11.588" y="-1.522" width="0.3" height="0.3" transform="rotate(114.55,-11.438,-1.372)" />
    <rect id="eq-209" x="0.127" y="8.372" width="0.3" height="0.3" transform="rotate(180,0.277,8.522)" />
    <rect id="eq-210" x="19.63" y="-0.25" width="0.3" height="0.3" transform="rotate(97.5,19.78,-0.1)" />
    <rect id="eq-211" x="-29.195" y="10.302" width="0.3" height="0.3" transform="rotate(180,-29.045,10.452)" />
    <rect id="eq-212" x="15.535" y="-1.966" width="0.3" height="0.3" transform="rotate(120,15.685,-1.816)" />
    <rect id="eq-213" x="-2.769" y="1.905" width="0.3" height="0.3" />
    <rect id="eq-214" x="-8.608" y="1.905" width="0.3" height="0.3" />
    <rect id="eq-215" x="4.089" y="1.905" width="0.3" height="0.3" />
    <rect id="eq-216" x="9.727" y="1.905" width="0.3" height="0.3" />
    <rect id="eq-217" x="-12.723" y="1.905" width="0.3" height="0.3" />
    <rect id="eq-218" x="-18.324" y="1.905" width="0.3" height="0.3" />
    <rect id="eq-219" x="-24.655" y="1.905" width="0.3" height="0.3" />
    <rect id="eq-220" x="-30.827" y="1.905" width="0.3" height="0.3" />
    <rect id="eq-221" x="14.404" y="1.895" width="0.3" height="0.3" />
    <rect id="eq-222" x="15.014" y="0.879" width="0.3" height="0.3" />
    <rect id="eq-223" x="15.535" y="-2.728" width="0.3" height="0.3" transform="rotate(120,15.685,-2.578)" />
    <rect id="eq-224" x="20.483" y="-3.227" width="0.3" height="0.3" transform="rotate(277.5,20.633,-3.077)" />
    <rect id="eq-225" x="20.832" y="-5.875" width="0.3" height="0.3" transform="rotate(277.5,20.982,-5.725)" />
    <rect id="eq-226" x="20.287" y="-1.734" width="0.3" height="0.3" transform="rotate(277.5,20.437,-1.584)" />
    <rect id="eq-227" x="20.327" y="-2.043" width="0.3" height="0.3" transform="rotate(277.5,20.477,-1.893)" />
    <rect id="eq-228" x="20.906" y="-6.439" width="0.3" height="0.3" transform="rotate(277.5,21.056,-6.289)" />
    <rect id="eq-229" x="20.947" y="-6.747" width="0.3" height="0.3" transform="rotate(277.5,21.097,-6.597)" />
    <rect id="eq-230" x="20.987" y="-7.056" width="0.3" height="0.3" transform="rotate(277.5,21.137,-6.906)" />
    <rect id="eq-231" x="20.426" y="-2.789" width="0.3" height="0.3" transform="rotate(277.5,20.576,-2.639)" />
    <rect id="eq-232" x="20.368" y="-2.351" width="0.3" height="0.3" transform="rotate(277.5,20.518,-2.201)" />
    <rect id="eq-233" x="20.593" y="-4.062" width="0.3" height="0.3" transform="rotate(277.5,20.743,-3.912)" />
    <rect id="eq-234" x="20.168" y="-4.406" width="0.3" height="0.3" transform="rotate(277.5,20.318,-4.256)" />
  </g>
</svg>