<?xml version="1.0" encoding="utf-8"?>
<svg xmlns="http://www.w3.org/2000/svg" viewBox="-28.634 -6.816 42.168 16.172">
  <g transform="scale(1,-1)">
    <rect id="f-65" x="-15.161" y="-1.915" width="0.3" height="0.3" />
    <rect id="f-66" x="-15.161" y="-1.915" width="0.3" height="0.3" />
    <rect id="f-67" x="-21.486" y="-1.915" width="0.3" height="0.3" />
    <rect id="f-68" x="-21.486" y="-1.915" width="0.3" height="0.3" />
    <rect id="f-69" x="7.14" y="-1.915" width="0.3" height="0.3" />
    <rect id="f-70" x="7.14" y="-1.915" width="0.3" height="0.3" />
    <rect id="f-71" x="0.942" y="-1.915" width="0.3" height="0.3" />
    <rect id="f-72" x="0.942" y="-1.915" width="0.3" height="0.3" />
    <rect id="f-73" x="-6.322" y="-1.915" width="0.3" height="0.3" />
    <rect id="f-74" x="-6.322" y="-1.915" width="0.3" height="0.3" />
    <rect id="f-75" x="-6.322" y="5.705" width="0.3" height="0.3" transform="rotate(360,-6.172,5.855)" />
    <rect id="f-76" x="-6.322" y="5.705" width="0.3" height="0.3" transform="rotate(360,-6.172,5.855)" />
    <rect id="f-77" x="7.14" y="5.705" width="0.3" height="0.3" transform="rotate(360,7.29,5.855)" />
    <rect id="f-78" x="7.14" y="5.705" width="0.3" height="0.3" transform="rotate(360,7.29,5.855)" />
    <rect id="f-79" x="12.423" y="5.705" width="0.3" height="0.3" transform="rotate(360,12.573,5.855)" />
    <rect id="f-80" x="12.423" y="5.705" width="0.3" height="0.3" transform="rotate(360,12.573,5.855)" />
    <rect id="f-81" x="-21.486" y="5.705" width="0.3" height="0.3" transform="rotate(360,-21.336,5.855)" />
    <rect id="f-82" x="-21.486" y="5.705" width="0.3" height="0.3" transform="rotate(360,-21.336,5.855)" />
    <rect id="f-83" x="-27.823" y="5.705" width="0.3" height="0.3" transform="rotate(360,-27.673,5.855)" />
    <rect id="f-84" x="-27.823" y="5.705" width="0.3" height="0.3" transform="rotate(360,-27.673,5.855)" />
    <rect id="f-85" x="-27.823" y="-1.915" width="0.3" height="0.3" />
    <rect id="f-86" x="-27.823" y="-1.915" width="0.3" height="0.3" />
    <rect id="f-87" x="7.14" y="-8.545" width="0.3" height="0.3" />
    <rect id="f-88" x="7.14" y="-8.545" width="0.3" height="0.3" />
    <rect id="f-89" x="0.942" y="-8.545" width="0.3" height="0.3" />
    <rect id="f-90" x="0.942" y="-8.545" width="0.3" height="0.3" />
  </g>
</svg>