<?xml version="1.0" encoding="utf-8"?>
<svg xmlns="http://www.w3.org/2000/svg" viewBox="-31.719 -22.734 52.909 33.225">
  <g transform="scale(1,-1)">
    <rect id="mn-2282" x="8.098" y="-8.804" width="0.05" height="0.05" transform="rotate(180,8.123,-8.779)" />
    <rect id="mn-2283" x="8.098" y="-8.601" width="0.05" height="0.05" transform="rotate(180,8.123,-8.576)" />
    <rect id="mn-2284" x="-21.716" y="-2.748" width="0.05" height="0.05" transform="rotate(30.01,-21.691,-2.723)" />
    <rect id="mn-2285" x="-21.716" y="-1.736" width="0.05" height="0.05" transform="rotate(180,-21.691,-1.711)" />
    <rect id="mn-2286" x="-24.498" y="0.099" width="0.05" height="0.05" transform="rotate(227.855,-24.473,0.124)" />
    <rect id="mn-2287" x="-21.716" y="-0.914" width="0.05" height="0.05" transform="rotate(90.004,-21.691,-0.889)" />
    <rect id="mn-2288" x="-21.716" y="-1.31" width="0.05" height="0.05" transform="rotate(240.344,-21.691,-1.285)" />
    <rect id="mn-2289" x="-21.005" y="-1.736" width="0.05" height="0.05" transform="rotate(240,-20.98,-1.711)" />
    <rect id="mn-2290" x="-20.826" y="2.02" width="0.05" height="0.05" transform="rotate(179.403,-20.801,2.045)" />
    <rect id="mn-2291" x="-20.826" y="-1.736" width="0.05" height="0.05" transform="rotate(240,-20.801,-1.711)" />
    <rect id="mn-2292" x="-20.826" y="-1.736" width="0.05" height="0.05" transform="rotate(98.421,-20.801,-1.711)" />
    <rect id="mn-2293" x="-21.005" y="-1.736" width="0.05" height="0.05" transform="rotate(120,-20.98,-1.711)" />
    <rect id="mn-2294" x="-20.902" y="-1.736" width="0.05" height="0.05" />
    <rect id="mn-2295" x="-21.716" y="-1.412" width="0.05" height="0.05" transform="rotate(180,-21.691,-1.387)" />
    <rect id="mn-2296" x="-21.005" y="-1.736" width="0.05" height="0.05" transform="rotate(93.262,-20.98,-1.711)" />
    <rect id="mn-2297" x="-21.005" y="-1.736" width="0.05" height="0.05" transform="rotate(264.213,-20.98,-1.711)" />
    <rect id="mn-2298" x="-19.621" y="0.099" width="0.05" height="0.05" transform="rotate(154.049,-19.596,0.124)" />
    <rect id="mn-2299" x="11.478" y="-8.804" width="0.05" height="0.05" transform="rotate(56.31,11.503,-8.779)" />
    <rect id="mn-2300" x="11.478" y="-8.601" width="0.05" height="0.05" transform="rotate(102.865,11.503,-8.576)" />
    <rect id="mn-2301" x="15.507" y="3.736" width="0.05" height="0.05" transform="rotate(90,15.532,3.761)" />
    <rect id="mn-2302" x="15.507" y="5.437" width="0.05" height="0.05" transform="rotate(90,15.532,5.462)" />
    <rect id="mn-2303" x="-15.294" y="11.329" width="0.05" height="0.05" transform="rotate(90,-15.269,11.354)" />
    <rect id="mn-2304" x="-30.268" y="11.329" width="0.05" height="0.05" transform="rotate(180,-30.243,11.354)" />
    <rect id="mn-2305" x="-30.268" y="11.329" width="0.05" height="0.05" transform="rotate(240,-30.243,11.354)" />
    <rect id="mn-2306" x="-9.85" y="-3.397" width="0.05" height="0.05" />
    <rect id="mn-2307" x="-9.85" y="-2.724" width="0.05" height="0.05" transform="rotate(180,-9.825,-2.699)" />
    <rect id="mn-2308" x="-8.825" y="-2.724" width="0.05" height="0.05" />
    <rect id="mn-2309" x="12.611" y="5.639" width="0.05" height="0.05" transform="rotate(180,12.636,5.664)" />
    <rect id="mn-2310" x="15.485" y="3.777" width="0.05" height="0.05" transform="rotate(120,15.51,3.802)" />
    <rect id="mn-2311" x="15.485" y="3.777" width="0.05" height="0.05" transform="rotate(270,15.51,3.802)" />
    <rect id="mn-2312" x="15.485" y="5.639" width="0.05" height="0.05" transform="rotate(120,15.51,5.664)" />
    <rect id="mn-2313" x="15.485" y="5.639" width="0.05" height="0.05" transform="rotate(120,15.51,5.664)" />
    <rect id="mn-2314" x="15.186" y="5.639" width="0.05" height="0.05" transform="rotate(180,15.211,5.664)" />
    <rect id="mn-2315" x="15.136" y="5.639" width="0.05" height="0.05" transform="rotate(148.6,15.161,5.664)" />
    <rect id="mn-2316" x="12.773" y="12.777" width="0.05" height="0.05" transform="rotate(180,12.798,12.802)" />
    <rect id="mn-2317" x="15.674" y="12.777" width="0.05" height="0.05" transform="rotate(90,15.699,12.802)" />
    <rect id="mn-2318" x="15.674" y="12.777" width="0.05" height="0.05" transform="rotate(180,15.699,12.802)" />
    <rect id="mn-2319" x="6.401" y="12.815" width="0.05" height="0.05" transform="rotate(180,6.426,12.84)" />
    <rect id="mn-2320" x="6.401" y="12.815" width="0.05" height="0.05" transform="rotate(180,6.426,12.84)" />
    <rect id="mn-2321" x="10.652" y="-8.804" width="0.05" height="0.05" transform="rotate(90,10.677,-8.779)" />
    <rect id="mn-2322" x="10.652" y="-7.466" width="0.05" height="0.05" transform="rotate(90,10.677,-7.441)" />
    <rect id="mn-2323" x="2.148" y="-7.466" width="0.05" height="0.05" transform="rotate(270,2.173,-7.441)" />
    <rect id="mn-2324" x="2.148" y="3.949" width="0.05" height="0.05" transform="rotate(120,2.173,3.974)" />
    <rect id="mn-2325" x="2.148" y="3.949" width="0.05" height="0.05" transform="rotate(180,2.173,3.974)" />
    <rect id="mn-2326" x="2.148" y="2.439" width="0.05" height="0.05" transform="rotate(270,2.173,2.464)" />
    <rect id="mn-2327" x="10.449" y="-8.804" width="0.05" height="0.05" transform="rotate(90,10.474,-8.779)" />
    <rect id="mn-2328" x="10.449" y="-7.517" width="0.05" height="0.05" transform="rotate(90,10.474,-7.492)" />
    <rect id="mn-2329" x="2.097" y="-7.517" width="0.05" height="0.05" transform="rotate(270,2.122,-7.492)" />
    <rect id="mn-2330" x="2.097" y="3.949" width="0.05" height="0.05" transform="rotate(120,2.122,3.974)" />
    <rect id="mn-2331" x="2.097" y="3.949" width="0.05" height="0.05" transform="rotate(180,2.122,3.974)" />
    <rect id="mn-2332" x="2.097" y="2.591" width="0.05" height="0.05" transform="rotate(270,2.122,2.616)" />
    <rect id="mn-2333" x="12.559" y="-8.702" width="0.05" height="0.05" />
    <rect id="mn-2334" x="14.871" y="-8.398" width="0.05" height="0.05" transform="rotate(97.5,14.896,-8.373)" />
    <rect id="mn-2335" x="10.042" y="-8.804" width="0.05" height="0.05" transform="rotate(90,10.067,-8.779)" />
    <rect id="mn-2336" x="10.042" y="-7.619" width="0.05" height="0.05" transform="rotate(90,10.067,-7.594)" />
    <rect id="mn-2337" x="1.996" y="-7.619" width="0.05" height="0.05" transform="rotate(270,2.021,-7.594)" />
    <rect id="mn-2338" x="1.996" y="3.949" width="0.05" height="0.05" transform="rotate(120,2.021,3.974)" />
    <rect id="mn-2339" x="1.996" y="3.949" width="0.05" height="0.05" transform="rotate(180,2.021,3.974)" />
    <rect id="mn-2340" x="1.996" y="2.49" width="0.05" height="0.05" transform="rotate(270,2.021,2.515)" />
    <rect id="mn-2341" x="17.524" y="2.49" width="0.05" height="0.05" transform="rotate(90,17.549,2.515)" />
    <rect id="mn-2342" x="17.524" y="0.94" width="0.05" height="0.05" transform="rotate(240,17.549,0.965)" />
    <rect id="mn-2343" x="17.524" y="0.851" width="0.05" height="0.05" transform="rotate(201.091,17.549,0.876)" />
    <rect id="mn-2344" x="17.524" y="0.216" width="0.05" height="0.05" transform="rotate(240,17.549,0.241)" />
    <rect id="mn-2345" x="17.524" y="0.216" width="0.05" height="0.05" transform="rotate(120,17.549,0.241)" />
    <rect id="mn-2346" x="9.839" y="-8.804" width="0.05" height="0.05" transform="rotate(90,9.864,-8.779)" />
    <rect id="mn-2347" x="9.839" y="-7.67" width="0.05" height="0.05" transform="rotate(90,9.864,-7.645)" />
    <rect id="mn-2348" x="1.945" y="-7.67" width="0.05" height="0.05" transform="rotate(270,1.97,-7.645)" />
    <rect id="mn-2349" x="1.945" y="3.949" width="0.05" height="0.05" transform="rotate(120,1.97,3.974)" />
    <rect id="mn-2350" x="1.945" y="3.949" width="0.05" height="0.05" transform="rotate(180,1.97,3.974)" />
    <rect id="mn-2351" x="1.945" y="2.439" width="0.05" height="0.05" transform="rotate(270,1.97,2.464)" />
    <rect id="mn-2352" x="9.636" y="-8.804" width="0.05" height="0.05" transform="rotate(90,9.661,-8.779)" />
    <rect id="mn-2353" x="9.636" y="-7.72" width="0.05" height="0.05" transform="rotate(90,9.661,-7.695)" />
    <rect id="mn-2354" x="1.894" y="-7.72" width="0.05" height="0.05" transform="rotate(270,1.919,-7.695)" />
    <rect id="mn-2355" x="1.894" y="3.949" width="0.05" height="0.05" transform="rotate(120,1.919,3.974)" />
    <rect id="mn-2356" x="1.894" y="3.949" width="0.05" height="0.05" transform="rotate(180,1.919,3.974)" />
    <rect id="mn-2357" x="1.894" y="2.49" width="0.05" height="0.05" />
    <rect id="mn-2358" x="9.433" y="-8.804" width="0.05" height="0.05" transform="rotate(90,9.458,-8.779)" />
    <rect id="mn-2359" x="9.433" y="-7.771" width="0.05" height="0.05" transform="rotate(90,9.458,-7.746)" />
    <rect id="mn-2360" x="1.843" y="-7.771" width="0.05" height="0.05" transform="rotate(270,1.868,-7.746)" />
    <rect id="mn-2361" x="1.843" y="3.949" width="0.05" height="0.05" transform="rotate(120,1.868,3.974)" />
    <rect id="mn-2362" x="1.843" y="3.949" width="0.05" height="0.05" transform="rotate(180,1.868,3.974)" />
    <rect id="mn-2363" x="1.843" y="2.54" width="0.05" height="0.05" />
    <rect id="mn-2364" x="-15.294" y="2.54" width="0.05" height="0.05" transform="rotate(270,-15.269,2.565)" />
    <rect id="mn-2365" x="9.23" y="-8.804" width="0.05" height="0.05" transform="rotate(90,9.255,-8.779)" />
    <rect id="mn-2366" x="9.23" y="-7.822" width="0.05" height="0.05" transform="rotate(90,9.255,-7.797)" />
    <rect id="mn-2367" x="1.793" y="-7.822" width="0.05" height="0.05" transform="rotate(270,1.818,-7.797)" />
    <rect id="mn-2368" x="1.793" y="3.949" width="0.05" height="0.05" transform="rotate(120,1.818,3.974)" />
    <rect id="mn-2369" x="1.793" y="3.949" width="0.05" height="0.05" transform="rotate(180,1.818,3.974)" />
    <rect id="mn-2370" x="1.793" y="2.591" width="0.05" height="0.05" />
    <rect id="mn-2371" x="10.246" y="-8.804" width="0.05" height="0.05" transform="rotate(90,10.271,-8.779)" />
    <rect id="mn-2372" x="10.246" y="-7.568" width="0.05" height="0.05" transform="rotate(90,10.271,-7.543)" />
    <rect id="mn-2373" x="2.047" y="-7.568" width="0.05" height="0.05" transform="rotate(270,2.072,-7.543)" />
    <rect id="mn-2374" x="2.047" y="3.949" width="0.05" height="0.05" transform="rotate(120,2.072,3.974)" />
    <rect id="mn-2375" x="2.047" y="3.949" width="0.05" height="0.05" transform="rotate(180,2.072,3.974)" />
    <rect id="mn-2376" x="2.047" y="2.54" width="0.05" height="0.05" transform="rotate(270,2.072,2.565)" />
    <rect id="mn-2377" x="15.485" y="2.54" width="0.05" height="0.05" />
    <rect id="mn-2378" x="15.485" y="3.353" width="0.05" height="0.05" transform="rotate(120,15.51,3.378)" />
    <rect id="mn-2379" x="15.485" y="3.353" width="0.05" height="0.05" transform="rotate(240,15.51,3.378)" />
    <rect id="mn-2380" x="8.62" y="-8.804" width="0.05" height="0.05" transform="rotate(90,8.645,-8.779)" />
    <rect id="mn-2381" x="8.62" y="-7.974" width="0.05" height="0.05" transform="rotate(90,8.645,-7.949)" />
    <rect id="mn-2382" x="1.64" y="-7.974" width="0.05" height="0.05" transform="rotate(270,1.665,-7.949)" />
    <rect id="mn-2383" x="1.64" y="3.949" width="0.05" height="0.05" transform="rotate(120,1.665,3.974)" />
    <rect id="mn-2384" x="1.64" y="3.949" width="0.05" height="0.05" transform="rotate(180,1.665,3.974)" />
    <rect id="mn-2385" x="8.417" y="-8.804" width="0.05" height="0.05" transform="rotate(90,8.442,-8.779)" />
    <rect id="mn-2386" x="8.417" y="-8.025" width="0.05" height="0.05" transform="rotate(90,8.442,-8)" />
    <rect id="mn-2387" x="1.589" y="-8.025" width="0.05" height="0.05" transform="rotate(270,1.614,-8)" />
    <rect id="mn-2388" x="1.589" y="3.949" width="0.05" height="0.05" transform="rotate(120,1.614,3.974)" />
    <rect id="mn-2389" x="1.589" y="3.949" width="0.05" height="0.05" transform="rotate(180,1.614,3.974)" />
    <rect id="mn-2390" x="1.589" y="2.575" width="0.05" height="0.05" />
    <rect id="mn-2391" x="9.026" y="-8.804" width="0.05" height="0.05" transform="rotate(90,9.051,-8.779)" />
    <rect id="mn-2392" x="9.026" y="-7.873" width="0.05" height="0.05" transform="rotate(90,9.051,-7.848)" />
    <rect id="mn-2393" x="1.742" y="-7.873" width="0.05" height="0.05" transform="rotate(270,1.767,-7.848)" />
    <rect id="mn-2394" x="1.742" y="3.949" width="0.05" height="0.05" transform="rotate(120,1.767,3.974)" />
    <rect id="mn-2395" x="1.742" y="3.949" width="0.05" height="0.05" transform="rotate(180,1.767,3.974)" />
    <rect id="mn-2396" x="1.742" y="2.575" width="0.05" height="0.05" transform="rotate(270,1.767,2.6)" />
    <rect id="mn-2397" x="8.823" y="-8.804" width="0.05" height="0.05" transform="rotate(90,8.848,-8.779)" />
    <rect id="mn-2398" x="8.823" y="-7.924" width="0.05" height="0.05" transform="rotate(90,8.848,-7.899)" />
    <rect id="mn-2399" x="1.691" y="-7.924" width="0.05" height="0.05" transform="rotate(270,1.716,-7.899)" />
    <rect id="mn-2400" x="1.691" y="3.949" width="0.05" height="0.05" transform="rotate(120,1.716,3.974)" />
    <rect id="mn-2401" x="1.691" y="3.949" width="0.05" height="0.05" transform="rotate(180,1.716,3.974)" />
    <rect id="mn-2402" x="11.16" y="-8.68" width="0.05" height="0.05" transform="rotate(90,11.185,-8.655)" />
    <rect id="mn-2403" x="11.16" y="-7.314" width="0.05" height="0.05" transform="rotate(90,11.185,-7.289)" />
    <rect id="mn-2404" x="2.301" y="-7.314" width="0.05" height="0.05" transform="rotate(270,2.326,-7.289)" />
    <rect id="mn-2405" x="2.301" y="3.999" width="0.05" height="0.05" transform="rotate(120,2.326,4.024)" />
    <rect id="mn-2406" x="2.301" y="3.999" width="0.05" height="0.05" transform="rotate(180,2.326,4.024)" />
    <rect id="mn-2407" x="2.301" y="2.591" width="0.05" height="0.05" transform="rotate(270,2.326,2.616)" />
    <rect id="mn-2408" x="11.16" y="-8.68" width="0.05" height="0.05" transform="rotate(180,11.185,-8.655)" />
    <rect id="mn-2409" x="11.16" y="-8.68" width="0.05" height="0.05" transform="rotate(270,11.185,-8.655)" />
    <rect id="mn-2410" x="11.262" y="-8.804" width="0.05" height="0.05" transform="rotate(120,11.287,-8.779)" />
    <rect id="mn-2411" x="11.058" y="-8.804" width="0.05" height="0.05" transform="rotate(120,11.083,-8.779)" />
    <rect id="mn-2412" x="10.855" y="-8.804" width="0.05" height="0.05" transform="rotate(120,10.88,-8.779)" />
    <rect id="mn-2413" x="10.652" y="-8.804" width="0.05" height="0.05" transform="rotate(120,10.677,-8.779)" />
    <rect id="mn-2414" x="10.449" y="-8.804" width="0.05" height="0.05" transform="rotate(120,10.474,-8.779)" />
    <rect id="mn-2415" x="10.246" y="-8.804" width="0.05" height="0.05" transform="rotate(120,10.271,-8.779)" />
    <rect id="mn-2416" x="10.042" y="-8.804" width="0.05" height="0.05" transform="rotate(120,10.067,-8.779)" />
    <rect id="mn-2417" x="9.839" y="-8.804" width="0.05" height="0.05" transform="rotate(120,9.864,-8.779)" />
    <rect id="mn-2418" x="9.636" y="-8.804" width="0.05" height="0.05" transform="rotate(120,9.661,-8.779)" />
    <rect id="mn-2419" x="9.433" y="-8.804" width="0.05" height="0.05" transform="rotate(120,9.458,-8.779)" />
    <rect id="mn-2420" x="9.23" y="-8.804" width="0.05" height="0.05" transform="rotate(120,9.255,-8.779)" />
    <rect id="mn-2421" x="9.026" y="-8.804" width="0.05" height="0.05" transform="rotate(120,9.051,-8.779)" />
    <rect id="mn-2422" x="8.823" y="-8.804" width="0.05" height="0.05" transform="rotate(120,8.848,-8.779)" />
    <rect id="mn-2423" x="8.62" y="-8.804" width="0.05" height="0.05" transform="rotate(120,8.645,-8.779)" />
    <rect id="mn-2424" x="8.417" y="-8.804" width="0.05" height="0.05" transform="rotate(120,8.442,-8.779)" />
    <rect id="mn-2425" x="10.957" y="-8.68" width="0.05" height="0.05" transform="rotate(90,10.982,-8.655)" />
    <rect id="mn-2426" x="10.957" y="-7.365" width="0.05" height="0.05" transform="rotate(90,10.982,-7.34)" />
    <rect id="mn-2427" x="2.25" y="-7.365" width="0.05" height="0.05" transform="rotate(270,2.275,-7.34)" />
    <rect id="mn-2428" x="2.25" y="3.999" width="0.05" height="0.05" transform="rotate(120,2.275,4.024)" />
    <rect id="mn-2429" x="2.25" y="3.999" width="0.05" height="0.05" transform="rotate(180,2.275,4.024)" />
    <rect id="mn-2430" x="2.25" y="2.54" width="0.05" height="0.05" transform="rotate(270,2.275,2.565)" />
    <rect id="mn-2431" x="10.957" y="-8.68" width="0.05" height="0.05" transform="rotate(180,10.982,-8.655)" />
    <rect id="mn-2432" x="10.957" y="-8.68" width="0.05" height="0.05" transform="rotate(270,10.982,-8.655)" />
    <rect id="mn-2433" x="10.754" y="-8.68" width="0.05" height="0.05" transform="rotate(90,10.779,-8.655)" />
    <rect id="mn-2434" x="10.754" y="-7.416" width="0.05" height="0.05" transform="rotate(90,10.779,-7.391)" />
    <rect id="mn-2435" x="2.199" y="-7.416" width="0.05" height="0.05" transform="rotate(270,2.224,-7.391)" />
    <rect id="mn-2436" x="2.199" y="3.999" width="0.05" height="0.05" transform="rotate(120,2.224,4.024)" />
    <rect id="mn-2437" x="2.199" y="3.999" width="0.05" height="0.05" transform="rotate(180,2.224,4.024)" />
    <rect id="mn-2438" x="2.199" y="2.49" width="0.05" height="0.05" />
    <rect id="mn-2439" x="-15.294" y="2.49" width="0.05" height="0.05" transform="rotate(270,-15.269,2.515)" />
    <rect id="mn-2440" x="10.754" y="-8.68" width="0.05" height="0.05" transform="rotate(180,10.779,-8.655)" />
    <rect id="mn-2441" x="10.754" y="-8.68" width="0.05" height="0.05" transform="rotate(270,10.779,-8.655)" />
    <rect id="mn-2442" x="10.55" y="-8.68" width="0.05" height="0.05" transform="rotate(90,10.575,-8.655)" />
    <rect id="mn-2443" x="10.55" y="-7.466" width="0.05" height="0.05" transform="rotate(90,10.575,-7.441)" />
    <rect id="mn-2444" x="2.148" y="-7.466" width="0.05" height="0.05" transform="rotate(270,2.173,-7.441)" />
    <rect id="mn-2445" x="2.148" y="3.999" width="0.05" height="0.05" transform="rotate(120,2.173,4.024)" />
    <rect id="mn-2446" x="2.148" y="3.999" width="0.05" height="0.05" transform="rotate(180,2.173,4.024)" />
    <rect id="mn-2447" x="2.148" y="2.54" width="0.05" height="0.05" />
    <rect id="mn-2448" x="10.55" y="-8.68" width="0.05" height="0.05" transform="rotate(180,10.575,-8.655)" />
    <rect id="mn-2449" x="10.55" y="-8.68" width="0.05" height="0.05" transform="rotate(270,10.575,-8.655)" />
    <rect id="mn-2450" x="10.347" y="-8.68" width="0.05" height="0.05" transform="rotate(90,10.372,-8.655)" />
    <rect id="mn-2451" x="10.347" y="-7.517" width="0.05" height="0.05" transform="rotate(90,10.372,-7.492)" />
    <rect id="mn-2452" x="2.097" y="-7.517" width="0.05" height="0.05" transform="rotate(270,2.122,-7.492)" />
    <rect id="mn-2453" x="10.347" y="-8.68" width="0.05" height="0.05" transform="rotate(180,10.372,-8.655)" />
    <rect id="mn-2454" x="10.347" y="-8.68" width="0.05" height="0.05" transform="rotate(270,10.372,-8.655)" />
    <rect id="mn-2455" x="10.144" y="-8.68" width="0.05" height="0.05" transform="rotate(90,10.169,-8.655)" />
    <rect id="mn-2456" x="10.144" y="-7.568" width="0.05" height="0.05" transform="rotate(90,10.169,-7.543)" />
    <rect id="mn-2457" x="2.047" y="-7.568" width="0.05" height="0.05" transform="rotate(270,2.072,-7.543)" />
    <rect id="mn-2458" x="2.047" y="3.999" width="0.05" height="0.05" transform="rotate(120,2.072,4.024)" />
    <rect id="mn-2459" x="2.047" y="3.999" width="0.05" height="0.05" transform="rotate(120,2.072,4.024)" />
    <rect id="mn-2460" x="10.144" y="-8.68" width="0.05" height="0.05" transform="rotate(180,10.169,-8.655)" />
    <rect id="mn-2461" x="10.144" y="-8.68" width="0.05" height="0.05" transform="rotate(270,10.169,-8.655)" />
    <rect id="mn-2462" x="9.941" y="-8.68" width="0.05" height="0.05" transform="rotate(90,9.966,-8.655)" />
    <rect id="mn-2463" x="9.941" y="-7.619" width="0.05" height="0.05" transform="rotate(90,9.966,-7.594)" />
    <rect id="mn-2464" x="1.996" y="-7.619" width="0.05" height="0.05" transform="rotate(270,2.021,-7.594)" />
    <rect id="mn-2465" x="9.941" y="-8.68" width="0.05" height="0.05" transform="rotate(180,9.966,-8.655)" />
    <rect id="mn-2466" x="9.941" y="-8.68" width="0.05" height="0.05" transform="rotate(270,9.966,-8.655)" />
    <rect id="mn-2467" x="9.738" y="-8.68" width="0.05" height="0.05" transform="rotate(90,9.763,-8.655)" />
    <rect id="mn-2468" x="9.738" y="-7.67" width="0.05" height="0.05" transform="rotate(90,9.763,-7.645)" />
    <rect id="mn-2469" x="1.945" y="-7.67" width="0.05" height="0.05" transform="rotate(270,1.97,-7.645)" />
    <rect id="mn-2470" x="9.738" y="-8.68" width="0.05" height="0.05" transform="rotate(180,9.763,-8.655)" />
    <rect id="mn-2471" x="9.738" y="-8.68" width="0.05" height="0.05" transform="rotate(270,9.763,-8.655)" />
    <rect id="mn-2472" x="9.534" y="-8.68" width="0.05" height="0.05" transform="rotate(90,9.559,-8.655)" />
    <rect id="mn-2473" x="9.534" y="-7.72" width="0.05" height="0.05" transform="rotate(90,9.559,-7.695)" />
    <rect id="mn-2474" x="9.534" y="-8.68" width="0.05" height="0.05" transform="rotate(180,9.559,-8.655)" />
    <rect id="mn-2475" x="9.534" y="-8.68" width="0.05" height="0.05" transform="rotate(270,9.559,-8.655)" />
    <rect id="mn-2476" x="9.331" y="-8.68" width="0.05" height="0.05" transform="rotate(90,9.356,-8.655)" />
    <rect id="mn-2477" x="9.331" y="-7.771" width="0.05" height="0.05" transform="rotate(90,9.356,-7.746)" />
    <rect id="mn-2478" x="1.843" y="-7.771" width="0.05" height="0.05" transform="rotate(270,1.868,-7.746)" />
    <rect id="mn-2479" x="1.843" y="4.08" width="0.05" height="0.05" transform="rotate(180,1.868,4.105)" />
    <rect id="mn-2480" x="1.939" y="4.08" width="0.05" height="0.05" transform="rotate(90,1.964,4.105)" />
    <rect id="mn-2481" x="2.247" y="4.08" width="0.05" height="0.05" transform="rotate(255.522,2.272,4.105)" />
    <rect id="mn-2482" x="6.655" y="4.08" width="0.05" height="0.05" transform="rotate(90,6.68,4.105)" />
    <rect id="mn-2483" x="6.948" y="4.08" width="0.05" height="0.05" transform="rotate(255.522,6.973,4.105)" />
    <rect id="mn-2484" x="7.582" y="4.08" width="0.05" height="0.05" transform="rotate(90,7.607,4.105)" />
    <rect id="mn-2485" x="7.875" y="4.08" width="0.05" height="0.05" transform="rotate(255.522,7.9,4.105)" />
    <rect id="mn-2486" x="12.929" y="4.08" width="0.05" height="0.05" transform="rotate(90,12.954,4.105)" />
    <rect id="mn-2487" x="13.516" y="4.08" width="0.05" height="0.05" transform="rotate(255.522,13.541,4.105)" />
    <rect id="mn-2488" x="15.674" y="4.08" width="0.05" height="0.05" />
    <rect id="mn-2489" x="15.674" y="5.335" width="0.05" height="0.05" transform="rotate(120,15.699,5.36)" />
    <rect id="mn-2490" x="15.674" y="5.513" width="0.05" height="0.05" transform="rotate(93.841,15.699,5.538)" />
    <rect id="mn-2491" x="15.674" y="6.146" width="0.05" height="0.05" transform="rotate(120,15.699,6.171)" />
    <rect id="mn-2492" x="15.674" y="6.324" width="0.05" height="0.05" transform="rotate(93.841,15.699,6.349)" />
    <rect id="mn-2493" x="15.674" y="12.304" width="0.05" height="0.05" transform="rotate(120,15.699,12.329)" />
    <rect id="mn-2494" x="15.674" y="12.304" width="0.05" height="0.05" transform="rotate(90,15.699,12.329)" />
    <rect id="mn-2495" x="15.674" y="12.739" width="0.05" height="0.05" transform="rotate(120,15.699,12.764)" />
    <rect id="mn-2496" x="15.674" y="12.739" width="0.05" height="0.05" transform="rotate(180,15.699,12.764)" />
    <rect id="mn-2497" x="9.331" y="-8.68" width="0.05" height="0.05" transform="rotate(180,9.356,-8.655)" />
    <rect id="mn-2498" x="9.331" y="-8.68" width="0.05" height="0.05" transform="rotate(270,9.356,-8.655)" />
    <rect id="mn-2499" x="9.128" y="-8.68" width="0.05" height="0.05" transform="rotate(90,9.153,-8.655)" />
    <rect id="mn-2500" x="9.128" y="-7.822" width="0.05" height="0.05" transform="rotate(90,9.153,-7.797)" />
    <rect id="mn-2501" x="1.793" y="-7.822" width="0.05" height="0.05" transform="rotate(270,1.818,-7.797)" />
    <rect id="mn-2502" x="1.793" y="4.131" width="0.05" height="0.05" transform="rotate(180,1.818,4.156)" />
    <rect id="mn-2503" x="1.939" y="4.131" width="0.05" height="0.05" transform="rotate(90,1.964,4.156)" />
    <rect id="mn-2504" x="2.247" y="4.131" width="0.05" height="0.05" transform="rotate(255.522,2.272,4.156)" />
    <rect id="mn-2505" x="6.401" y="4.131" width="0.05" height="0.05" />
    <rect id="mn-2506" x="6.401" y="5.328" width="0.05" height="0.05" transform="rotate(120,6.426,5.353)" />
    <rect id="mn-2507" x="6.401" y="5.513" width="0.05" height="0.05" transform="rotate(93.841,6.426,5.538)" />
    <rect id="mn-2508" x="6.401" y="6.146" width="0.05" height="0.05" transform="rotate(120,6.426,6.171)" />
    <rect id="mn-2509" x="6.401" y="6.324" width="0.05" height="0.05" transform="rotate(93.841,6.426,6.349)" />
    <rect id="mn-2510" x="6.401" y="12.283" width="0.05" height="0.05" transform="rotate(120,6.426,12.308)" />
    <rect id="mn-2511" x="6.401" y="12.283" width="0.05" height="0.05" transform="rotate(90,6.426,12.308)" />
    <rect id="mn-2512" x="6.401" y="12.777" width="0.05" height="0.05" transform="rotate(120,6.426,12.802)" />
    <rect id="mn-2513" x="6.401" y="12.777" width="0.05" height="0.05" transform="rotate(180,6.426,12.802)" />
    <rect id="mn-2514" x="9.128" y="-8.68" width="0.05" height="0.05" transform="rotate(180,9.153,-8.655)" />
    <rect id="mn-2515" x="9.128" y="-8.68" width="0.05" height="0.05" transform="rotate(270,9.153,-8.655)" />
    <rect id="mn-2516" x="8.925" y="-8.68" width="0.05" height="0.05" transform="rotate(90,8.95,-8.655)" />
    <rect id="mn-2517" x="8.925" y="-7.873" width="0.05" height="0.05" transform="rotate(90,8.95,-7.848)" />
    <rect id="mn-2518" x="1.742" y="-7.873" width="0.05" height="0.05" transform="rotate(270,1.767,-7.848)" />
    <rect id="mn-2519" x="1.742" y="4.131" width="0.05" height="0.05" transform="rotate(90,1.767,4.156)" />
    <rect id="mn-2520" x="0.75" y="4.131" width="0.05" height="0.05" transform="rotate(180,0.775,4.156)" />
    <rect id="mn-2521" x="0.443" y="4.131" width="0.05" height="0.05" transform="rotate(138.59,0.468,4.156)" />
    <rect id="mn-2522" x="-3.606" y="4.131" width="0.05" height="0.05" transform="rotate(270,-3.581,4.156)" />
    <rect id="mn-2523" x="8.925" y="-8.68" width="0.05" height="0.05" transform="rotate(180,8.95,-8.655)" />
    <rect id="mn-2524" x="8.925" y="-8.68" width="0.05" height="0.05" transform="rotate(270,8.95,-8.655)" />
    <rect id="mn-2525" x="8.722" y="-8.68" width="0.05" height="0.05" transform="rotate(90,8.747,-8.655)" />
    <rect id="mn-2526" x="8.722" y="-7.924" width="0.05" height="0.05" transform="rotate(90,8.747,-7.899)" />
    <rect id="mn-2527" x="1.691" y="-7.924" width="0.05" height="0.05" transform="rotate(270,1.716,-7.899)" />
    <rect id="mn-2528" x="1.691" y="4.08" width="0.05" height="0.05" transform="rotate(90,1.716,4.105)" />
    <rect id="mn-2529" x="0.75" y="4.08" width="0.05" height="0.05" transform="rotate(180,0.775,4.105)" />
    <rect id="mn-2530" x="0.443" y="4.08" width="0.05" height="0.05" transform="rotate(138.59,0.468,4.105)" />
    <rect id="mn-2531" x="-5.35" y="4.08" width="0.05" height="0.05" transform="rotate(180,-5.325,4.105)" />
    <rect id="mn-2532" x="-5.884" y="4.08" width="0.05" height="0.05" transform="rotate(148.6,-5.859,4.105)" />
    <rect id="mn-2533" x="-6.511" y="4.08" width="0.05" height="0.05" transform="rotate(180,-6.486,4.105)" />
    <rect id="mn-2534" x="-7.044" y="4.08" width="0.05" height="0.05" transform="rotate(148.6,-7.019,4.105)" />
    <rect id="mn-2535" x="-9.779" y="4.08" width="0.05" height="0.05" transform="rotate(270,-9.754,4.105)" />
    <rect id="mn-2536" x="-9.779" y="5.193" width="0.05" height="0.05" transform="rotate(120,-9.754,5.218)" />
    <rect id="mn-2537" x="-9.779" y="5.516" width="0.05" height="0.05" transform="rotate(98.421,-9.754,5.541)" />
    <rect id="mn-2538" x="-9.779" y="6.143" width="0.05" height="0.05" transform="rotate(120,-9.754,6.168)" />
    <rect id="mn-2539" x="-9.779" y="6.467" width="0.05" height="0.05" transform="rotate(98.421,-9.754,6.492)" />
    <rect id="mn-2540" x="-9.779" y="10.967" width="0.05" height="0.05" transform="rotate(180,-9.754,10.992)" />
    <rect id="mn-2541" x="-9.779" y="10.945" width="0.05" height="0.05" transform="rotate(90,-9.754,10.97)" />
    <rect id="mn-2542" x="8.722" y="-8.68" width="0.05" height="0.05" transform="rotate(180,8.747,-8.655)" />
    <rect id="mn-2543" x="8.722" y="-8.68" width="0.05" height="0.05" transform="rotate(270,8.747,-8.655)" />
    <rect id="mn-2544" x="8.518" y="-8.68" width="0.05" height="0.05" transform="rotate(90,8.543,-8.655)" />
    <rect id="mn-2545" x="8.518" y="-7.974" width="0.05" height="0.05" transform="rotate(90,8.543,-7.949)" />
    <rect id="mn-2546" x="1.64" y="-7.974" width="0.05" height="0.05" transform="rotate(270,1.665,-7.949)" />
    <rect id="mn-2547" x="1.64" y="4.029" width="0.05" height="0.05" transform="rotate(90,1.665,4.054)" />
    <rect id="mn-2548" x="0.75" y="4.029" width="0.05" height="0.05" transform="rotate(180,0.775,4.054)" />
    <rect id="mn-2549" x="0.443" y="4.029" width="0.05" height="0.05" transform="rotate(138.59,0.468,4.054)" />
    <rect id="mn-2550" x="-5.35" y="4.029" width="0.05" height="0.05" transform="rotate(180,-5.325,4.054)" />
    <rect id="mn-2551" x="-5.884" y="4.029" width="0.05" height="0.05" transform="rotate(148.6,-5.859,4.054)" />
    <rect id="mn-2552" x="-6.511" y="4.029" width="0.05" height="0.05" transform="rotate(180,-6.486,4.054)" />
    <rect id="mn-2553" x="-7.044" y="4.029" width="0.05" height="0.05" transform="rotate(148.6,-7.019,4.054)" />
    <rect id="mn-2554" x="-13.987" y="4.029" width="0.05" height="0.05" transform="rotate(180,-13.962,4.054)" />
    <rect id="mn-2555" x="-14.723" y="4.029" width="0.05" height="0.05" transform="rotate(148.6,-14.698,4.054)" />
    <rect id="mn-2556" x="-17.17" y="4.029" width="0.05" height="0.05" transform="rotate(270,-17.145,4.054)" />
    <rect id="mn-2557" x="-17.17" y="5.193" width="0.05" height="0.05" transform="rotate(120,-17.145,5.218)" />
    <rect id="mn-2558" x="-17.17" y="5.523" width="0.05" height="0.05" transform="rotate(98.421,-17.145,5.548)" />
    <rect id="mn-2559" x="-17.17" y="6.136" width="0.05" height="0.05" transform="rotate(120,-17.145,6.161)" />
    <rect id="mn-2560" x="-17.17" y="6.466" width="0.05" height="0.05" transform="rotate(98.421,-17.145,6.491)" />
    <rect id="mn-2561" x="8.518" y="-8.68" width="0.05" height="0.05" transform="rotate(180,8.543,-8.655)" />
    <rect id="mn-2562" x="8.518" y="-8.68" width="0.05" height="0.05" transform="rotate(270,8.543,-8.655)" />
    <rect id="mn-2563" x="8.315" y="-8.68" width="0.05" height="0.05" transform="rotate(90,8.34,-8.655)" />
    <rect id="mn-2564" x="8.315" y="-8.025" width="0.05" height="0.05" transform="rotate(90,8.34,-8)" />
    <rect id="mn-2565" x="1.589" y="-8.025" width="0.05" height="0.05" transform="rotate(270,1.614,-8)" />
    <rect id="mn-2566" x="1.589" y="3.979" width="0.05" height="0.05" transform="rotate(90,1.614,4.004)" />
    <rect id="mn-2567" x="0.75" y="3.979" width="0.05" height="0.05" transform="rotate(180,0.775,4.004)" />
    <rect id="mn-2568" x="0.443" y="3.979" width="0.05" height="0.05" transform="rotate(138.59,0.468,4.004)" />
    <rect id="mn-2569" x="-5.35" y="3.979" width="0.05" height="0.05" transform="rotate(180,-5.325,4.004)" />
    <rect id="mn-2570" x="-5.884" y="3.979" width="0.05" height="0.05" transform="rotate(148.6,-5.859,4.004)" />
    <rect id="mn-2571" x="-6.511" y="3.979" width="0.05" height="0.05" transform="rotate(180,-6.486,4.004)" />
    <rect id="mn-2572" x="-7.044" y="3.979" width="0.05" height="0.05" transform="rotate(148.6,-7.019,4.004)" />
    <rect id="mn-2573" x="-13.987" y="3.979" width="0.05" height="0.05" transform="rotate(180,-13.962,4.004)" />
    <rect id="mn-2574" x="-14.723" y="3.979" width="0.05" height="0.05" transform="rotate(148.6,-14.698,4.004)" />
    <rect id="mn-2575" x="8.315" y="-8.68" width="0.05" height="0.05" transform="rotate(180,8.34,-8.655)" />
    <rect id="mn-2576" x="8.315" y="-8.68" width="0.05" height="0.05" transform="rotate(270,8.34,-8.655)" />
    <rect id="mn-2577" x="-28.248" y="5.411" width="0.05" height="0.05" transform="rotate(120,-28.223,5.436)" />
    <rect id="mn-2578" x="-28.248" y="3.979" width="0.05" height="0.05" transform="rotate(270,-28.223,4.004)" />
    <rect id="mn-2579" x="-27.382" y="3.979" width="0.05" height="0.05" transform="rotate(90,-27.357,4.004)" />
    <rect id="mn-2580" x="-27.103" y="3.979" width="0.05" height="0.05" transform="rotate(255.522,-27.078,4.004)" />
    <rect id="mn-2581" x="-21.957" y="3.979" width="0.05" height="0.05" transform="rotate(90,-21.932,4.004)" />
    <rect id="mn-2582" x="-21.678" y="3.979" width="0.05" height="0.05" transform="rotate(255.522,-21.653,4.004)" />
    <rect id="mn-2583" x="-21.044" y="3.979" width="0.05" height="0.05" transform="rotate(90,-21.019,4.004)" />
    <rect id="mn-2584" x="-20.765" y="3.979" width="0.05" height="0.05" transform="rotate(255.522,-20.74,4.004)" />
    <rect id="mn-2585" x="11.058" y="-8.804" width="0.05" height="0.05" transform="rotate(90,11.083,-8.779)" />
    <rect id="mn-2586" x="11.058" y="-7.365" width="0.05" height="0.05" transform="rotate(90,11.083,-7.34)" />
    <rect id="mn-2587" x="2.25" y="-7.365" width="0.05" height="0.05" transform="rotate(270,2.275,-7.34)" />
    <rect id="mn-2588" x="2.25" y="3.949" width="0.05" height="0.05" transform="rotate(120,2.275,3.974)" />
    <rect id="mn-2589" x="2.25" y="3.949" width="0.05" height="0.05" transform="rotate(180,2.275,3.974)" />
    <rect id="mn-2590" x="2.25" y="2.54" width="0.05" height="0.05" transform="rotate(270,2.275,2.565)" />
    <rect id="mn-2591" x="15.507" y="2.54" width="0.05" height="0.05" />
    <rect id="mn-2592" x="10.855" y="-8.804" width="0.05" height="0.05" transform="rotate(90,10.88,-8.779)" />
    <rect id="mn-2593" x="10.855" y="-7.416" width="0.05" height="0.05" transform="rotate(90,10.88,-7.391)" />
    <rect id="mn-2594" x="2.199" y="-7.416" width="0.05" height="0.05" transform="rotate(270,2.224,-7.391)" />
    <rect id="mn-2595" x="2.199" y="3.949" width="0.05" height="0.05" transform="rotate(120,2.224,3.974)" />
    <rect id="mn-2596" x="2.199" y="3.949" width="0.05" height="0.05" transform="rotate(180,2.224,3.974)" />
    <rect id="mn-2597" x="2.199" y="2.49" width="0.05" height="0.05" transform="rotate(270,2.224,2.515)" />
    <rect id="mn-2598" x="17.524" y="2.49" width="0.05" height="0.05" transform="rotate(90,17.549,2.515)" />
    <rect id="mn-2599" x="17.524" y="0.94" width="0.05" height="0.05" transform="rotate(240,17.549,0.965)" />
    <rect id="mn-2600" x="17.524" y="0.851" width="0.05" height="0.05" transform="rotate(201.091,17.549,0.876)" />
    <rect id="mn-2601" x="17.524" y="0.216" width="0.05" height="0.05" transform="rotate(240,17.549,0.241)" />
    <rect id="mn-2602" x="17.524" y="0.216" width="0.05" height="0.05" transform="rotate(120,17.549,0.241)" />
    <rect id="mn-2603" x="8.417" y="-8.804" width="0.05" height="0.05" transform="rotate(180,8.442,-8.779)" />
    <rect id="mn-2604" x="8.417" y="-8.804" width="0.05" height="0.05" transform="rotate(240,8.442,-8.779)" />
    <rect id="mn-2605" x="8.62" y="-8.804" width="0.05" height="0.05" transform="rotate(90,8.645,-8.779)" />
    <rect id="mn-2606" x="8.62" y="-8.804" width="0.05" height="0.05" transform="rotate(240,8.645,-8.779)" />
    <rect id="mn-2607" x="8.823" y="-8.804" width="0.05" height="0.05" transform="rotate(90,8.848,-8.779)" />
    <rect id="mn-2608" x="8.823" y="-8.804" width="0.05" height="0.05" transform="rotate(240,8.848,-8.779)" />
    <rect id="mn-2609" x="9.026" y="-8.804" width="0.05" height="0.05" transform="rotate(90,9.051,-8.779)" />
    <rect id="mn-2610" x="9.026" y="-8.804" width="0.05" height="0.05" transform="rotate(240,9.051,-8.779)" />
    <rect id="mn-2611" x="9.23" y="-8.804" width="0.05" height="0.05" transform="rotate(90,9.255,-8.779)" />
    <rect id="mn-2612" x="9.23" y="-8.804" width="0.05" height="0.05" transform="rotate(240,9.255,-8.779)" />
    <rect id="mn-2613" x="9.433" y="-8.804" width="0.05" height="0.05" transform="rotate(90,9.458,-8.779)" />
    <rect id="mn-2614" x="9.433" y="-8.804" width="0.05" height="0.05" transform="rotate(240,9.458,-8.779)" />
    <rect id="mn-2615" x="9.636" y="-8.804" width="0.05" height="0.05" transform="rotate(90,9.661,-8.779)" />
    <rect id="mn-2616" x="9.636" y="-8.804" width="0.05" height="0.05" transform="rotate(240,9.661,-8.779)" />
    <rect id="mn-2617" x="9.839" y="-8.804" width="0.05" height="0.05" transform="rotate(90,9.864,-8.779)" />
    <rect id="mn-2618" x="9.839" y="-8.804" width="0.05" height="0.05" transform="rotate(240,9.864,-8.779)" />
    <rect id="mn-2619" x="10.042" y="-8.804" width="0.05" height="0.05" transform="rotate(90,10.067,-8.779)" />
    <rect id="mn-2620" x="10.042" y="-8.804" width="0.05" height="0.05" transform="rotate(240,10.067,-8.779)" />
    <rect id="mn-2621" x="10.246" y="-8.804" width="0.05" height="0.05" transform="rotate(90,10.271,-8.779)" />
    <rect id="mn-2622" x="10.246" y="-8.804" width="0.05" height="0.05" transform="rotate(240,10.271,-8.779)" />
    <rect id="mn-2623" x="10.449" y="-8.804" width="0.05" height="0.05" transform="rotate(90,10.474,-8.779)" />
    <rect id="mn-2624" x="10.449" y="-8.804" width="0.05" height="0.05" transform="rotate(240,10.474,-8.779)" />
    <rect id="mn-2625" x="10.652" y="-8.804" width="0.05" height="0.05" transform="rotate(90,10.677,-8.779)" />
    <rect id="mn-2626" x="10.652" y="-8.804" width="0.05" height="0.05" transform="rotate(240,10.677,-8.779)" />
    <rect id="mn-2627" x="10.855" y="-8.804" width="0.05" height="0.05" transform="rotate(90,10.88,-8.779)" />
    <rect id="mn-2628" x="10.855" y="-8.804" width="0.05" height="0.05" transform="rotate(240,10.88,-8.779)" />
    <rect id="mn-2629" x="11.058" y="-8.804" width="0.05" height="0.05" transform="rotate(90,11.083,-8.779)" />
    <rect id="mn-2630" x="11.058" y="-8.804" width="0.05" height="0.05" transform="rotate(240,11.083,-8.779)" />
    <rect id="mn-2631" x="11.262" y="-8.804" width="0.05" height="0.05" transform="rotate(90,11.287,-8.779)" />
    <rect id="mn-2632" x="11.262" y="-8.804" width="0.05" height="0.05" transform="rotate(240,11.287,-8.779)" />
    <rect id="mn-2633" x="11.478" y="-8.702" width="0.05" height="0.05" transform="rotate(218.981,11.503,-8.677)" />
    <rect id="mn-2634" x="11.16" y="-8.601" width="0.05" height="0.05" transform="rotate(180,11.185,-8.576)" />
    <rect id="mn-2635" x="11.16" y="-8.624" width="0.05" height="0.05" transform="rotate(248.248,11.185,-8.599)" />
    <rect id="mn-2636" x="10.957" y="-8.601" width="0.05" height="0.05" transform="rotate(180,10.982,-8.576)" />
    <rect id="mn-2637" x="10.957" y="-8.624" width="0.05" height="0.05" transform="rotate(248.248,10.982,-8.599)" />
    <rect id="mn-2638" x="10.754" y="-8.601" width="0.05" height="0.05" transform="rotate(180,10.779,-8.576)" />
    <rect id="mn-2639" x="10.754" y="-8.624" width="0.05" height="0.05" transform="rotate(248.248,10.779,-8.599)" />
    <rect id="mn-2640" x="10.55" y="-8.601" width="0.05" height="0.05" transform="rotate(180,10.575,-8.576)" />
    <rect id="mn-2641" x="10.55" y="-8.624" width="0.05" height="0.05" transform="rotate(248.248,10.575,-8.599)" />
    <rect id="mn-2642" x="10.347" y="-8.601" width="0.05" height="0.05" transform="rotate(180,10.372,-8.576)" />
    <rect id="mn-2643" x="10.347" y="-8.624" width="0.05" height="0.05" transform="rotate(248.248,10.372,-8.599)" />
    <rect id="mn-2644" x="10.144" y="-8.601" width="0.05" height="0.05" transform="rotate(180,10.169,-8.576)" />
    <rect id="mn-2645" x="10.144" y="-8.624" width="0.05" height="0.05" transform="rotate(248.248,10.169,-8.599)" />
    <rect id="mn-2646" x="9.941" y="-8.601" width="0.05" height="0.05" transform="rotate(180,9.966,-8.576)" />
    <rect id="mn-2647" x="9.941" y="-8.624" width="0.05" height="0.05" transform="rotate(248.248,9.966,-8.599)" />
    <rect id="mn-2648" x="9.738" y="-8.601" width="0.05" height="0.05" transform="rotate(180,9.763,-8.576)" />
    <rect id="mn-2649" x="9.738" y="-8.624" width="0.05" height="0.05" transform="rotate(248.248,9.763,-8.599)" />
    <rect id="mn-2650" x="9.534" y="-8.601" width="0.05" height="0.05" transform="rotate(180,9.559,-8.576)" />
    <rect id="mn-2651" x="9.534" y="-8.624" width="0.05" height="0.05" transform="rotate(248.248,9.559,-8.599)" />
    <rect id="mn-2652" x="9.331" y="-8.601" width="0.05" height="0.05" transform="rotate(180,9.356,-8.576)" />
    <rect id="mn-2653" x="9.331" y="-8.624" width="0.05" height="0.05" transform="rotate(248.248,9.356,-8.599)" />
    <rect id="mn-2654" x="9.128" y="-8.601" width="0.05" height="0.05" transform="rotate(180,9.153,-8.576)" />
    <rect id="mn-2655" x="9.128" y="-8.624" width="0.05" height="0.05" transform="rotate(248.248,9.153,-8.599)" />
    <rect id="mn-2656" x="8.925" y="-8.601" width="0.05" height="0.05" transform="rotate(180,8.95,-8.576)" />
    <rect id="mn-2657" x="8.925" y="-8.624" width="0.05" height="0.05" transform="rotate(248.248,8.95,-8.599)" />
    <rect id="mn-2658" x="8.722" y="-8.601" width="0.05" height="0.05" transform="rotate(180,8.747,-8.576)" />
    <rect id="mn-2659" x="8.722" y="-8.624" width="0.05" height="0.05" transform="rotate(248.248,8.747,-8.599)" />
    <rect id="mn-2660" x="8.518" y="-8.601" width="0.05" height="0.05" transform="rotate(180,8.543,-8.576)" />
    <rect id="mn-2661" x="8.518" y="-8.624" width="0.05" height="0.05" transform="rotate(248.248,8.543,-8.599)" />
    <rect id="mn-2662" x="8.315" y="-8.601" width="0.05" height="0.05" transform="rotate(180,8.34,-8.576)" />
    <rect id="mn-2663" x="8.315" y="-8.624" width="0.05" height="0.05" transform="rotate(248.248,8.34,-8.599)" />
    <rect id="mn-2664" x="17.524" y="0.04" width="0.05" height="0.05" transform="rotate(90,17.549,0.065)" />
    <rect id="mn-2665" x="17.524" y="0.04" width="0.05" height="0.05" transform="rotate(90,17.549,0.065)" />
    <rect id="mn-2666" x="15.674" y="12.608" width="0.05" height="0.05" transform="rotate(180,15.699,12.633)" />
    <rect id="mn-2667" x="15.674" y="12.635" width="0.05" height="0.05" transform="rotate(90,15.699,12.66)" />
    <rect id="mn-2668" x="6.401" y="12.608" width="0.05" height="0.05" transform="rotate(180,6.426,12.633)" />
    <rect id="mn-2669" x="6.401" y="12.635" width="0.05" height="0.05" transform="rotate(90,6.426,12.66)" />
    <rect id="mn-2670" x="15.012" y="-9.473" width="0.05" height="0.05" transform="rotate(90,15.037,-9.448)" />
    <rect id="mn-2671" x="1.894" y="-7.72" width="0.05" height="0.05" transform="rotate(270,1.919,-7.695)" />
    <rect id="mn-2672" x="11.262" y="-8.804" width="0.05" height="0.05" transform="rotate(90,11.287,-8.779)" />
    <rect id="mn-2673" x="-28.248" y="5.411" width="0.05" height="0.05" transform="rotate(90,-28.223,5.436)" />
    <rect id="mn-2674" x="10.021" y="2.591" width="0.05" height="0.05" />
    <rect id="mn-2675" x="-9.19" y="2.591" width="0.05" height="0.05" transform="rotate(270,-9.165,2.616)" />
    <rect id="mn-2676" x="6.871" y="2.591" width="0.05" height="0.05" />
    <rect id="mn-2677" x="1.894" y="3.999" width="0.05" height="0.05" transform="rotate(120,1.919,4.024)" />
    <rect id="mn-2678" x="1.996" y="3.999" width="0.05" height="0.05" transform="rotate(120,2.021,4.024)" />
    <rect id="mn-2679" x="1.894" y="3.999" width="0.05" height="0.05" transform="rotate(180,1.919,4.024)" />
    <rect id="mn-2680" x="-15.294" y="10.948" width="0.05" height="0.05" transform="rotate(120,-15.269,10.973)" />
    <rect id="mn-2681" x="-15.294" y="11.329" width="0.05" height="0.05" transform="rotate(90,-15.269,11.354)" />
    <rect id="mn-2682" x="-15.294" y="10.948" width="0.05" height="0.05" transform="rotate(120,-15.269,10.973)" />
    <rect id="mn-2683" x="-15.294" y="11.011" width="0.05" height="0.05" transform="rotate(240,-15.269,11.036)" />
    <rect id="mn-2684" x="2.097" y="3.999" width="0.05" height="0.05" transform="rotate(120,2.122,4.024)" />
    <rect id="mn-2685" x="2.097" y="3.999" width="0.05" height="0.05" transform="rotate(180,2.122,4.024)" />
    <rect id="mn-2686" x="1.996" y="3.999" width="0.05" height="0.05" transform="rotate(180,2.021,4.024)" />
    <rect id="mn-2687" x="1.945" y="3.999" width="0.05" height="0.05" transform="rotate(120,1.97,4.024)" />
    <rect id="mn-2688" x="1.539" y="3.949" width="0.05" height="0.05" transform="rotate(120,1.564,3.974)" />
    <rect id="mn-2689" x="8.214" y="-8.804" width="0.05" height="0.05" transform="rotate(90,8.239,-8.779)" />
    <rect id="mn-2690" x="8.214" y="-8.804" width="0.05" height="0.05" transform="rotate(180,8.239,-8.779)" />
    <rect id="mn-2691" x="8.214" y="-8.804" width="0.05" height="0.05" transform="rotate(240,8.239,-8.779)" />
    <rect id="mn-2692" x="8.214" y="-8.804" width="0.05" height="0.05" transform="rotate(240,8.239,-8.779)" />
    <rect id="mn-2693" x="8.214" y="-8.076" width="0.05" height="0.05" transform="rotate(90,8.239,-8.051)" />
    <rect id="mn-2694" x="1.539" y="-8.076" width="0.05" height="0.05" transform="rotate(270,1.564,-8.051)" />
    <rect id="mn-2695" x="-9.656" y="-1.385" width="0.05" height="0.05" transform="rotate(90,-9.631,-1.36)" />
    <rect id="mn-2696" x="-8.825" y="-1.385" width="0.05" height="0.05" transform="rotate(90,-8.8,-1.36)" />
    <rect id="mn-2697" x="-12.734" y="-1.385" width="0.05" height="0.05" transform="rotate(270,-12.709,-1.36)" />
    <rect id="mn-2698" x="15.507" y="3.277" width="0.05" height="0.05" transform="rotate(120,15.532,3.302)" />
    <rect id="mn-2699" x="15.507" y="3.637" width="0.05" height="0.05" transform="rotate(180,15.532,3.662)" />
    <rect id="mn-2700" x="15.507" y="3.664" width="0.05" height="0.05" transform="rotate(90,15.532,3.689)" />
    <rect id="mn-2701" x="15.507" y="3.736" width="0.05" height="0.05" transform="rotate(180,15.532,3.761)" />
    <rect id="mn-2702" x="-11.462" y="11.902" width="0.05" height="0.05" transform="rotate(315,-11.437,11.927)" />
    <rect id="mn-2703" x="-15.463" y="12.294" width="0.05" height="0.05" transform="rotate(180,-15.438,12.319)" />
    <rect id="mn-2704" x="-15.463" y="12.294" width="0.05" height="0.05" transform="rotate(267.824,-15.438,12.319)" />
    <rect id="mn-2705" x="-15.405" y="12.435" width="0.05" height="0.05" transform="rotate(164.146,-15.38,12.46)" />
    <rect id="mn-2706" x="-15.463" y="11.902" width="0.05" height="0.05" transform="rotate(179.578,-15.438,11.927)" />
    <rect id="mn-2707" x="-15.463" y="11.902" width="0.05" height="0.05" transform="rotate(180,-15.438,11.927)" />
    <rect id="mn-2708" x="-15.463" y="11.902" width="0.05" height="0.05" transform="rotate(247.116,-15.438,11.927)" />
    <rect id="mn-2709" x="12.043" y="11.902" width="0.05" height="0.05" transform="rotate(119.468,12.068,11.927)" />
    <rect id="mn-2710" x="-9.45" y="11.902" width="0.05" height="0.05" transform="rotate(90,-9.425,11.927)" />
    <rect id="mn-2711" x="12.043" y="11.902" width="0.05" height="0.05" transform="rotate(179.578,12.068,11.927)" />
    <rect id="mn-2712" x="-9.45" y="11.902" width="0.05" height="0.05" transform="rotate(179.578,-9.425,11.927)" />
    <rect id="mn-2713" x="0.61" y="11.902" width="0.05" height="0.05" transform="rotate(179.578,0.635,11.927)" />
    <rect id="mn-2714" x="0.61" y="11.902" width="0.05" height="0.05" transform="rotate(120,0.635,11.927)" />
    <rect id="mn-2715" x="12.043" y="11.902" width="0.05" height="0.05" transform="rotate(120,12.068,11.927)" />
    <rect id="mn-2716" x="-9.45" y="11.902" width="0.05" height="0.05" transform="rotate(120,-9.425,11.927)" />
    <rect id="mn-2717" x="-17.865" y="10.845" width="0.05" height="0.05" transform="rotate(45.006,-17.84,10.87)" />
    <rect id="mn-2718" x="-15.405" y="12.405" width="0.05" height="0.05" transform="rotate(128.8,-15.38,12.43)" />
    <rect id="mn-2719" x="-19.306" y="9.404" width="0.05" height="0.05" transform="rotate(180.457,-19.281,9.429)" />
    <rect id="mn-2720" x="-17.865" y="11.766" width="0.05" height="0.05" transform="rotate(180.534,-17.84,11.791)" />
    <rect id="mn-2721" x="3.493" y="2.439" width="0.05" height="0.05" transform="rotate(90,3.518,2.464)" />
    <rect id="mn-2722" x="6.565" y="2.439" width="0.05" height="0.05" transform="rotate(90,6.59,2.464)" />
    <rect id="mn-2723" x="1.64" y="2.525" width="0.05" height="0.05" />
    <rect id="mn-2724" x="-6.352" y="2.54" width="0.05" height="0.05" transform="rotate(90,-6.327,2.565)" />
    <rect id="mn-2725" x="-6.042" y="2.54" width="0.05" height="0.05" transform="rotate(180,-6.017,2.565)" />
    <rect id="mn-2726" x="-4.468" y="2.525" width="0.05" height="0.05" transform="rotate(180,-4.443,2.55)" />
    <rect id="mn-2727" x="1.691" y="2.474" width="0.05" height="0.05" />
    <rect id="mn-2728" x="-8.906" y="2.474" width="0.05" height="0.05" transform="rotate(90,-8.881,2.499)" />
    <rect id="mn-2729" x="-8.507" y="2.525" width="0.05" height="0.05" transform="rotate(180,-8.482,2.55)" />
    <rect id="mn-2730" x="-8.507" y="2.474" width="0.05" height="0.05" transform="rotate(180,-8.482,2.499)" />
    <rect id="mn-2731" x="-3.606" y="6.315" width="0.05" height="0.05" transform="rotate(240,-3.581,6.34)" />
    <rect id="mn-2732" x="-3.606" y="5.344" width="0.05" height="0.05" transform="rotate(120,-3.581,5.369)" />
    <rect id="mn-2733" x="-3.606" y="6.146" width="0.05" height="0.05" transform="rotate(201.091,-3.581,6.171)" />
    <rect id="mn-2734" x="-3.606" y="5.513" width="0.05" height="0.05" transform="rotate(93.841,-3.581,5.538)" />
    <rect id="mn-3962" x="-5.721" y="7.811" width="0.05" height="0.05" transform="rotate(148.6,-5.696,7.836)" />
    <rect id="mn-3963" x="-5.197" y="7.287" width="0.05" height="0.05" transform="rotate(90,-5.172,7.312)" />
    <rect id="mn-3964" x="-5.045" y="8.059" width="0.05" height="0.05" transform="rotate(90,-5.02,8.084)" />
    <rect id="mn-3965" x="-5.045" y="5.805" width="0.05" height="0.05" transform="rotate(270,-5.02,5.83)" />
    <rect id="mn-3966" x="-5.197" y="5.767" width="0.05" height="0.05" transform="rotate(270,-5.172,5.792)" />
    <rect id="mn-3967" x="18.288" y="10.929" width="0.05" height="0.05" transform="rotate(185.301,18.313,10.954)" />
    <rect id="mn-3968" x="-8.015" y="5.004" width="0.05" height="0.05" transform="rotate(315,-7.99,5.029)" />
    <rect id="mn-3969" x="-4.549" y="5.309" width="0.05" height="0.05" transform="rotate(315,-4.524,5.334)" />
    <rect id="mn-3970" x="5.724" y="5.462" width="0.05" height="0.05" transform="rotate(270,5.749,5.487)" />
    <rect id="mn-3971" x="-26.59" y="7.549" width="0.05" height="0.05" transform="rotate(90,-26.565,7.574)" />
    <rect id="mn-3972" x="-25.848" y="4.852" width="0.05" height="0.05" transform="rotate(315,-25.823,4.877)" />
    <rect id="mn-3973" x="-26.59" y="5.594" width="0.05" height="0.05" transform="rotate(270,-26.565,5.619)" />
    <rect id="mn-3974" x="-14.732" y="4.852" width="0.05" height="0.05" transform="rotate(90,-14.707,4.877)" />
    <rect id="mn-3975" x="-29.07" y="10.489" width="0.05" height="0.05" transform="rotate(240,-29.045,10.514)" />
    <rect id="mn-3976" x="-26.854" y="10.489" width="0.05" height="0.05" transform="rotate(120,-26.829,10.514)" />
    <rect id="mn-3977" x="-26.438" y="9.768" width="0.05" height="0.05" transform="rotate(90,-26.413,9.793)" />
    <rect id="mn-3978" x="-26.438" y="8.855" width="0.05" height="0.05" transform="rotate(240,-26.413,8.88)" />
    <rect id="mn-3979" x="-26.438" y="5.657" width="0.05" height="0.05" transform="rotate(270,-26.413,5.682)" />
    <rect id="mn-3980" x="-26.438" y="7.549" width="0.05" height="0.05" transform="rotate(238.705,-26.413,7.574)" />
    <rect id="mn-3981" x="-25.785" y="5.004" width="0.05" height="0.05" transform="rotate(315,-25.76,5.029)" />
    <rect id="mn-3982" x="-14.732" y="5.004" width="0.05" height="0.05" transform="rotate(158.731,-14.707,5.029)" />
    <rect id="mn-3983" x="-13.687" y="5.004" width="0.05" height="0.05" transform="rotate(266.095,-13.662,5.029)" />
    <rect id="mn-3984" x="-5.305" y="6.912" width="0.05" height="0.05" transform="rotate(90,-5.28,6.937)" />
    <rect id="mn-3985" x="-6.044" y="5.004" width="0.05" height="0.05" />
    <rect id="mn-3986" x="-5.305" y="5.744" width="0.05" height="0.05" transform="rotate(45,-5.28,5.769)" />
    <rect id="mn-3987" x="9.852" y="-1.028" width="0.05" height="0.05" transform="rotate(240,9.877,-1.003)" />
    <rect id="mn-3988" x="9.852" y="-1.384" width="0.05" height="0.05" transform="rotate(120,9.877,-1.359)" />
    <rect id="mn-3989" x="9.852" y="-2.552" width="0.05" height="0.05" transform="rotate(120,9.877,-2.527)" />
    <rect id="mn-3990" x="9.852" y="-2.197" width="0.05" height="0.05" transform="rotate(240,9.877,-2.172)" />
    <rect id="mn-3991" x="4.214" y="-1.028" width="0.05" height="0.05" transform="rotate(240,4.239,-1.003)" />
    <rect id="mn-3992" x="4.214" y="-1.384" width="0.05" height="0.05" transform="rotate(120,4.239,-1.359)" />
    <rect id="mn-3993" x="4.214" y="-2.552" width="0.05" height="0.05" transform="rotate(120,4.239,-2.527)" />
    <rect id="mn-3994" x="4.214" y="-2.197" width="0.05" height="0.05" transform="rotate(240,4.239,-2.172)" />
    <rect id="mn-3995" x="-2.644" y="-1.028" width="0.05" height="0.05" transform="rotate(240,-2.619,-1.003)" />
    <rect id="mn-3996" x="-2.644" y="-1.384" width="0.05" height="0.05" transform="rotate(120,-2.619,-1.359)" />
    <rect id="mn-3997" x="-2.644" y="-2.552" width="0.05" height="0.05" transform="rotate(120,-2.619,-2.527)" />
    <rect id="mn-3998" x="-2.644" y="-2.197" width="0.05" height="0.05" transform="rotate(240,-2.619,-2.172)" />
    <rect id="mn-3999" x="-8.483" y="-1.028" width="0.05" height="0.05" transform="rotate(240,-8.458,-1.003)" />
    <rect id="mn-4000" x="-8.483" y="-1.384" width="0.05" height="0.05" transform="rotate(120,-8.458,-1.359)" />
    <rect id="mn-4001" x="-8.483" y="-2.552" width="0.05" height="0.05" transform="rotate(120,-8.458,-2.527)" />
    <rect id="mn-4002" x="-8.483" y="-2.197" width="0.05" height="0.05" transform="rotate(240,-8.458,-2.172)" />
    <rect id="mn-4003" x="-12.598" y="-1.028" width="0.05" height="0.05" transform="rotate(240,-12.573,-1.003)" />
    <rect id="mn-4004" x="-12.598" y="-1.384" width="0.05" height="0.05" transform="rotate(120,-12.573,-1.359)" />
    <rect id="mn-4005" x="-12.598" y="-2.552" width="0.05" height="0.05" transform="rotate(120,-12.573,-2.527)" />
    <rect id="mn-4006" x="-12.598" y="-2.197" width="0.05" height="0.05" transform="rotate(240,-12.573,-2.172)" />
    <rect id="mn-4007" x="-3.864" y="6.595" width="0.05" height="0.05" transform="rotate(240,-3.839,6.62)" />
    <rect id="mn-4008" x="-3.864" y="6.239" width="0.05" height="0.05" transform="rotate(120,-3.839,6.264)" />
    <rect id="mn-4009" x="-3.864" y="5.426" width="0.05" height="0.05" transform="rotate(240,-3.839,5.451)" />
    <rect id="mn-4010" x="-3.864" y="5.071" width="0.05" height="0.05" transform="rotate(211.4,-3.839,5.096)" />
    <rect id="mn-4011" x="-2.648" y="4.293" width="0.05" height="0.05" transform="rotate(90,-2.623,4.318)" />
    <rect id="mn-4012" x="-3.864" y="4.293" width="0.05" height="0.05" transform="rotate(270,-3.839,4.318)" />
    <rect id="mn-4013" x="2.623" y="2.02" width="0.05" height="0.05" transform="rotate(90,2.648,2.045)" />
    <rect id="mn-4014" x="0.102" y="2.02" width="0.05" height="0.05" transform="rotate(90,0.127,2.045)" />
    <rect id="mn-4015" x="0.705" y="2.02" width="0.05" height="0.05" transform="rotate(180,0.73,2.045)" />
    <rect id="mn-4016" x="3.226" y="2.02" width="0.05" height="0.05" transform="rotate(98.421,3.251,2.045)" />
    <rect id="mn-4017" x="7.722" y="2.02" width="0.05" height="0.05" transform="rotate(90,7.747,2.045)" />
    <rect id="mn-4018" x="6.3" y="2.02" width="0.05" height="0.05" transform="rotate(90,6.325,2.045)" />
    <rect id="mn-4019" x="6.808" y="2.02" width="0.05" height="0.05" transform="rotate(180,6.833,2.045)" />
    <rect id="mn-4020" x="8.23" y="2.02" width="0.05" height="0.05" transform="rotate(98.421,8.255,2.045)" />
    <rect id="mn-4021" x="-5.74" y="2.02" width="0.05" height="0.05" transform="rotate(90,-5.715,2.045)" />
    <rect id="mn-4022" x="-6.654" y="2.02" width="0.05" height="0.05" transform="rotate(180,-6.629,2.045)" />
    <rect id="mn-4023" x="-5.232" y="2.02" width="0.05" height="0.05" transform="rotate(261.579,-5.207,2.045)" />
    <rect id="mn-4024" x="-7.162" y="2.02" width="0.05" height="0.05" transform="rotate(148.6,-7.137,2.045)" />
    <rect id="mn-4025" x="-14.02" y="2.02" width="0.05" height="0.05" transform="rotate(90,-13.995,2.045)" />
    <rect id="mn-4026" x="-13.258" y="2.02" width="0.05" height="0.05" transform="rotate(261.579,-13.233,2.045)" />
    <rect id="mn-4027" x="-21.818" y="2.02" width="0.05" height="0.05" transform="rotate(180,-21.793,2.045)" />
    <rect id="mn-4028" x="-20.409" y="2.02" width="0.05" height="0.05" transform="rotate(180,-20.384,2.045)" />
    <rect id="mn-4029" x="-20.904" y="2.02" width="0.05" height="0.05" transform="rotate(90,-20.879,2.045)" />
    <rect id="mn-4030" x="-22.314" y="2.02" width="0.05" height="0.05" transform="rotate(148.6,-22.289,2.045)" />
    <rect id="mn-4031" x="-28.156" y="2.02" width="0.05" height="0.05" transform="rotate(180,-28.131,2.045)" />
    <rect id="mn-4032" x="-26.746" y="2.02" width="0.05" height="0.05" transform="rotate(180,-26.721,2.045)" />
    <rect id="mn-4033" x="-27.241" y="2.02" width="0.05" height="0.05" transform="rotate(90,-27.216,2.045)" />
    <rect id="mn-4034" x="-28.651" y="2.02" width="0.05" height="0.05" transform="rotate(148.6,-28.626,2.045)" />
    <rect id="mn-4035" x="-9.245" y="6.595" width="0.05" height="0.05" transform="rotate(240,-9.22,6.62)" />
    <rect id="mn-4036" x="-9.245" y="6.239" width="0.05" height="0.05" transform="rotate(120,-9.22,6.264)" />
    <rect id="mn-4037" x="-9.245" y="5.426" width="0.05" height="0.05" transform="rotate(240,-9.22,5.451)" />
    <rect id="mn-4038" x="-9.245" y="5.071" width="0.05" height="0.05" transform="rotate(211.4,-9.22,5.096)" />
    <rect id="mn-4039" x="-8.487" y="4.293" width="0.05" height="0.05" transform="rotate(90,-8.462,4.318)" />
    <rect id="mn-4040" x="-9.245" y="4.293" width="0.05" height="0.05" transform="rotate(270,-9.22,4.318)" />
    <rect id="mn-4041" x="-18.199" y="6.595" width="0.05" height="0.05" transform="rotate(240,-18.174,6.62)" />
    <rect id="mn-4042" x="-18.199" y="6.239" width="0.05" height="0.05" transform="rotate(120,-18.174,6.264)" />
    <rect id="mn-4043" x="-18.199" y="5.426" width="0.05" height="0.05" transform="rotate(240,-18.174,5.451)" />
    <rect id="mn-4044" x="-18.199" y="5.071" width="0.05" height="0.05" transform="rotate(211.4,-18.174,5.096)" />
    <rect id="mn-4045" x="-18.199" y="-1.025" width="0.05" height="0.05" transform="rotate(240,-18.174,-1)" />
    <rect id="mn-4046" x="-18.199" y="-1.381" width="0.05" height="0.05" transform="rotate(120,-18.174,-1.356)" />
    <rect id="mn-4047" x="-18.199" y="-2.194" width="0.05" height="0.05" transform="rotate(240,-18.174,-2.169)" />
    <rect id="mn-4048" x="-18.199" y="-2.549" width="0.05" height="0.05" transform="rotate(211.4,-18.174,-2.524)" />
    <rect id="mn-4049" x="-24.53" y="6.595" width="0.05" height="0.05" transform="rotate(240,-24.505,6.62)" />
    <rect id="mn-4050" x="-24.53" y="6.239" width="0.05" height="0.05" transform="rotate(120,-24.505,6.264)" />
    <rect id="mn-4051" x="-24.53" y="5.426" width="0.05" height="0.05" transform="rotate(240,-24.505,5.451)" />
    <rect id="mn-4052" x="-24.53" y="5.071" width="0.05" height="0.05" transform="rotate(211.4,-24.505,5.096)" />
    <rect id="mn-4053" x="-24.53" y="-1.025" width="0.05" height="0.05" transform="rotate(240,-24.505,-1)" />
    <rect id="mn-4054" x="-24.53" y="-1.381" width="0.05" height="0.05" transform="rotate(120,-24.505,-1.356)" />
    <rect id="mn-4055" x="-24.53" y="-2.194" width="0.05" height="0.05" transform="rotate(240,-24.505,-2.169)" />
    <rect id="mn-4056" x="-24.53" y="-2.549" width="0.05" height="0.05" transform="rotate(211.4,-24.505,-2.524)" />
    <rect id="mn-4057" x="-30.702" y="-1.025" width="0.05" height="0.05" transform="rotate(240,-30.677,-1)" />
    <rect id="mn-4058" x="-30.702" y="-1.381" width="0.05" height="0.05" transform="rotate(120,-30.677,-1.356)" />
    <rect id="mn-4059" x="-30.702" y="-2.194" width="0.05" height="0.05" transform="rotate(240,-30.677,-2.169)" />
    <rect id="mn-4060" x="-30.702" y="-2.549" width="0.05" height="0.05" transform="rotate(211.4,-30.677,-2.524)" />
    <rect id="mn-4061" x="4.214" y="6.595" width="0.05" height="0.05" transform="rotate(240,4.239,6.62)" />
    <rect id="mn-4062" x="4.214" y="6.239" width="0.05" height="0.05" transform="rotate(120,4.239,6.264)" />
    <rect id="mn-4063" x="4.214" y="5.426" width="0.05" height="0.05" transform="rotate(240,4.239,5.451)" />
    <rect id="mn-4064" x="4.214" y="5.071" width="0.05" height="0.05" transform="rotate(211.4,4.239,5.096)" />
    <rect id="mn-4065" x="9.852" y="6.595" width="0.05" height="0.05" transform="rotate(240,9.877,6.62)" />
    <rect id="mn-4066" x="9.852" y="6.239" width="0.05" height="0.05" transform="rotate(120,9.877,6.264)" />
    <rect id="mn-4067" x="9.852" y="5.426" width="0.05" height="0.05" transform="rotate(240,9.877,5.451)" />
    <rect id="mn-4068" x="9.852" y="5.071" width="0.05" height="0.05" transform="rotate(211.4,9.877,5.096)" />
    <rect id="mn-4069" x="12.904" y="2.02" width="0.05" height="0.05" transform="rotate(90,12.929,2.045)" />
    <rect id="mn-4070" x="13.945" y="2.02" width="0.05" height="0.05" transform="rotate(261.579,13.97,2.045)" />
    <rect id="mn-4071" x="17.133" y="2.02" width="0.05" height="0.05" />
    <rect id="mn-4072" x="14.529" y="6.595" width="0.05" height="0.05" transform="rotate(240,14.554,6.62)" />
    <rect id="mn-4073" x="14.529" y="6.239" width="0.05" height="0.05" transform="rotate(120,14.554,6.264)" />
    <rect id="mn-4074" x="14.529" y="5.426" width="0.05" height="0.05" transform="rotate(240,14.554,5.451)" />
    <rect id="mn-4075" x="14.529" y="5.071" width="0.05" height="0.05" transform="rotate(211.4,14.554,5.096)" />
    <rect id="mn-4076" x="14.529" y="11.331" width="0.05" height="0.05" transform="rotate(180,14.554,11.356)" />
    <rect id="mn-4077" x="17.12" y="11.331" width="0.05" height="0.05" transform="rotate(90,17.145,11.356)" />
    <rect id="mn-4078" x="15.733" y="-1.678" width="0.05" height="0.05" transform="rotate(90,15.758,-1.653)" />
    <rect id="mn-4079" x="14.529" y="0.927" width="0.05" height="0.05" transform="rotate(240,14.554,0.952)" />
    <rect id="mn-4080" x="16.968" y="-1.46" width="0.05" height="0.05" transform="rotate(120,16.993,-1.435)" />
    <rect id="mn-4081" x="16.968" y="-1.13" width="0.05" height="0.05" transform="rotate(98.421,16.993,-1.105)" />
    <rect id="mn-4082" x="16.968" y="-2.121" width="0.05" height="0.05" transform="rotate(240,16.993,-2.096)" />
    <rect id="mn-4083" x="16.968" y="-2.451" width="0.05" height="0.05" transform="rotate(211.4,16.993,-2.426)" />
    <rect id="mn-4084" x="15.733" y="-2.028" width="0.05" height="0.05" transform="rotate(240,15.758,-2.003)" />
    <rect id="mn-4085" x="0.252" y="8.559" width="0.05" height="0.05" transform="rotate(120,0.277,8.584)" />
    <rect id="mn-4086" x="-5.256" y="8.559" width="0.05" height="0.05" transform="rotate(180,-5.231,8.584)" />
    <rect id="mn-4087" x="-24.53" y="11.402" width="0.05" height="0.05" transform="rotate(90,-24.505,11.427)" />
    <rect id="mn-4088" x="-26.759" y="11.402" width="0.05" height="0.05" transform="rotate(180,-26.734,11.427)" />
    <rect id="mn-4089" x="-27.266" y="11.402" width="0.05" height="0.05" transform="rotate(90,-27.241,11.427)" />
    <rect id="mn-4090" x="-3.864" y="11.545" width="0.05" height="0.05" transform="rotate(180,-3.839,11.57)" />
    <rect id="mn-4091" x="16.968" y="-7.201" width="0.05" height="0.05" />
    <rect id="mn-4092" x="16.164" y="-2.028" width="0.05" height="0.05" />
    <rect id="mn-4093" x="16.968" y="-1.79" width="0.05" height="0.05" transform="rotate(270,16.993,-1.765)" />
    <rect id="mn-4094" x="16.503" y="-1.79" width="0.05" height="0.05" transform="rotate(180,16.528,-1.765)" />
    <rect id="mn-4095" x="-24.53" y="-0.593" width="0.05" height="0.05" transform="rotate(90,-24.505,-0.568)" />
    <rect id="mn-4096" x="-24.615" y="-0.274" width="0.05" height="0.05" transform="rotate(270,-24.59,-0.249)" />
    <rect id="mn-4097" x="18.878" y="4.852" width="0.05" height="0.05" transform="rotate(97.449,18.903,4.877)" />
    <rect id="mn-4098" x="-13.512" y="4.852" width="0.05" height="0.05" transform="rotate(266.095,-13.487,4.877)" />
    <rect id="mn-4099" x="18.091" y="5.004" width="0.05" height="0.05" transform="rotate(90,18.116,5.029)" />
    <rect id="mn-4100" x="18.858" y="5.004" width="0.05" height="0.05" transform="rotate(97.67,18.883,5.029)" />
    <rect id="mn-4101" x="18.941" y="5.157" width="0.05" height="0.05" transform="rotate(97.449,18.966,5.182)" />
    <rect id="mn-4102" x="-4.586" y="5.157" width="0.05" height="0.05" transform="rotate(315,-4.561,5.182)" />
    <rect id="mn-4103" x="18.358" y="5.309" width="0.05" height="0.05" transform="rotate(90,18.383,5.334)" />
    <rect id="mn-4104" x="18.921" y="5.309" width="0.05" height="0.05" transform="rotate(97.856,18.946,5.334)" />
    <rect id="mn-4105" x="18.492" y="5.462" width="0.05" height="0.05" transform="rotate(90,18.517,5.487)" />
    <rect id="mn-4106" x="19.004" y="5.462" width="0.05" height="0.05" transform="rotate(97.939,19.029,5.487)" />
    <rect id="mn-4107" x="20.042" y="-4.64" width="0.05" height="0.05" transform="rotate(91.728,20.067,-4.615)" />
    <rect id="mn-4108" x="20.122" y="-5.245" width="0.05" height="0.05" transform="rotate(95.188,20.147,-5.22)" />
    <rect id="mn-4109" x="18.103" y="0.687" width="0.05" height="0.05" transform="rotate(277.5,18.128,0.712)" />
    <rect id="mn-4110" x="15.341" y="21.667" width="0.05" height="0.05" transform="rotate(185.301,15.366,21.692)" />
    <rect id="mn-4111" x="18.217" y="-2.524" width="0.05" height="0.05" transform="rotate(277.449,18.242,-2.499)" />
    <rect id="mn-4112" x="15.054" y="21.667" width="0.05" height="0.05" transform="rotate(185.265,15.079,21.692)" />
    <rect id="mn-4113" x="-27.927" y="11.402" width="0.05" height="0.05" transform="rotate(180,-27.902,11.427)" />
    <rect id="mn-4114" x="-28.189" y="11.402" width="0.05" height="0.05" transform="rotate(137.285,-28.164,11.427)" />
  </g>
</svg>