<?xml version="1.0" encoding="utf-8"?>
<svg xmlns="http://www.w3.org/2000/svg" viewBox="-31.278 -13.875 53.795 26.021">
  <g transform="scale(1,-1)">
    <path id="pi-1360" d="M 11.287,-8.779 L 11.287,-8.779" />
    <path id="pi-1361" d="M 11.287,-8.779 L 11.287,-8.779" />
    <path id="pi-1362" d="M 11.083,-8.779 L 11.083,-8.779" />
    <path id="pi-1363" d="M 10.88,-8.779 L 10.88,-8.779" />
    <path id="pi-1364" d="M 11.083,-8.779 L 11.083,-8.779" />
    <path id="pi-1365" d="M 10.88,-8.779 L 10.88,-8.779" />
    <path id="pi-1366" d="M 10.677,-8.779 L 10.677,-8.779" />
    <path id="pi-1367" d="M 10.474,-8.779 L 10.474,-8.779" />
    <path id="pi-1368" d="M 10.271,-8.779 L 10.271,-8.779" />
    <path id="pi-1369" d="M 10.067,-8.779 L 10.067,-8.779" />
    <path id="pi-1370" d="M 9.864,-8.779 L 9.864,-8.779" />
    <path id="pi-1371" d="M 9.661,-8.779 L 9.661,-8.779" />
    <path id="pi-1372" d="M 9.458,-8.779 L 9.458,-8.779" />
    <path id="pi-1373" d="M 9.255,-8.779 L 9.255,-8.779" />
    <path id="pi-1374" d="M 9.051,-8.779 L 9.051,-8.779" />
    <path id="pi-1375" d="M 8.848,-8.779 L 8.848,-8.779" />
    <path id="pi-1376" d="M 8.645,-8.779 L 8.645,-8.779" />
    <path id="pi-1377" d="M 8.442,-8.779 L 8.442,-8.779" />
    <path id="pi-1378" d="M 11.185,-8.655 L 11.185,-8.655" />
    <path id="pi-1379" d="M 10.982,-8.655 L 10.982,-8.655" />
    <path id="pi-1380" d="M 10.779,-8.655 L 10.779,-8.655" />
    <path id="pi-1381" d="M 10.575,-8.655 L 10.575,-8.655" />
    <path id="pi-1382" d="M 10.372,-8.655 L 10.372,-8.655" />
    <path id="pi-1383" d="M 10.169,-8.655 L 10.169,-8.655" />
    <path id="pi-1384" d="M 9.966,-8.655 L 9.966,-8.655" />
    <path id="pi-1385" d="M 9.763,-8.655 L 9.763,-8.655" />
    <path id="pi-1386" d="M 9.559,-8.655 L 9.559,-8.655" />
    <path id="pi-1387" d="M 9.356,-8.655 L 9.356,-8.655" />
    <path id="pi-1388" d="M 9.153,-8.655 L 9.153,-8.655" />
    <path id="pi-1389" d="M 8.95,-8.655 L 8.95,-8.655" />
    <path id="pi-1390" d="M 8.747,-8.655 L 8.747,-8.655" />
    <path id="pi-1391" d="M 8.543,-8.655 L 8.543,-8.655" />
    <path id="pi-1392" d="M 8.34,-8.655 L 8.34,-8.655" />
    <path id="pi-1393" d="M 18.803,9.671 L 21.483,-10.692" />
    <path id="pi-1394" d="M -24.406,-4.291 L -21.736,-2.75" />
    <path id="pi-1395" d="M -21.691,-1.789 L -21.691,-2.671" />
    <path id="pi-1396" d="M -24.473,0.124 L -24.473,0.124" />
    <path id="pi-1397" d="M -24.4,0.097 L -21.764,-0.862" />
    <path id="pi-1398" d="M -21.691,-0.967 L -21.691,-1.228" />
    <path id="pi-1399" d="M -21.691,-1.326 L -21.691,-1.639" />
    <path id="pi-1400" d="M -21.691,-1.711 L -21.691,-1.711" />
    <path id="pi-1401" d="M -20.94,-1.711 L -20.841,-1.711" />
    <path id="pi-1402" d="M -20.801,-1.711 L -20.801,-1.711" />
    <path id="pi-1403" d="M -20.801,1.967 L -20.801,-1.634" />
    <path id="pi-1404" d="M -20.98,-1.711 L -20.98,-1.711" />
    <path id="pi-1405" d="M -20.903,-1.711 L -20.877,-1.711" />
    <path id="pi-1406" d="M -20.98,-1.711 L -20.98,-1.711" />
    <path id="pi-1407" d="M -20.98,-1.711 L -20.98,-1.711" />
    <path id="pi-1408" d="M -19.643,0.062 L -20.934,-1.649" />
    <path id="pi-1409" d="M -20.98,-1.711 L -20.98,-1.711" />
    <path id="pi-1410" d="M -19.596,0.124 L -19.596,0.124" />
    <path id="pi-1411" d="M 19.565,1.903 L 21.279,-11.112" />
    <path id="pi-1412" d="M 11.185,-8.655 L 11.185,-8.655" />
    <path id="pi-1413" d="M 10.982,-8.655 L 10.982,-8.655" />
    <path id="pi-1414" d="M 10.779,-8.655 L 10.779,-8.655" />
    <path id="pi-1415" d="M 10.575,-8.655 L 10.575,-8.655" />
    <path id="pi-1416" d="M 10.677,-8.779 L 10.677,-8.779" />
    <path id="pi-1417" d="M 10.474,-8.779 L 10.474,-8.779" />
    <path id="pi-1418" d="M 10.271,-8.779 L 10.271,-8.779" />
    <path id="pi-1419" d="M 10.372,-8.655 L 10.372,-8.655" />
    <path id="pi-1420" d="M 10.169,-8.655 L 10.169,-8.655" />
    <path id="pi-1421" d="M 9.966,-8.655 L 9.966,-8.655" />
    <path id="pi-1422" d="M 9.763,-8.655 L 9.763,-8.655" />
    <path id="pi-1423" d="M 9.559,-8.655 L 9.559,-8.655" />
    <path id="pi-1424" d="M 9.356,-8.655 L 9.356,-8.655" />
    <path id="pi-1425" d="M 9.153,-8.655 L 9.153,-8.655" />
    <path id="pi-1426" d="M 10.067,-8.779 L 10.067,-8.779" />
    <path id="pi-1427" d="M 9.864,-8.779 L 9.864,-8.779" />
    <path id="pi-1428" d="M 9.661,-8.779 L 9.661,-8.779" />
    <path id="pi-1429" d="M 9.458,-8.779 L 9.458,-8.779" />
    <path id="pi-1430" d="M 9.255,-8.779 L 9.255,-8.779" />
    <path id="pi-1431" d="M 9.051,-8.779 L 9.051,-8.779" />
    <path id="pi-1432" d="M 8.95,-8.655 L 8.95,-8.655" />
    <path id="pi-1433" d="M 8.34,-8.655 L 8.34,-8.655" />
    <path id="pi-1434" d="M 8.442,-8.779 L 8.442,-8.779" />
    <path id="pi-1435" d="M 8.543,-8.655 L 8.543,-8.655" />
    <path id="pi-1436" d="M 8.645,-8.779 L 8.645,-8.779" />
    <path id="pi-1437" d="M 8.747,-8.655 L 8.747,-8.655" />
    <path id="pi-1438" d="M 8.848,-8.779 L 8.848,-8.779" />
    <path id="pi-1439" d="M 8.532,-8.779 L 8.554,-8.779" />
    <path id="pi-1440" d="M 8.735,-8.779 L 8.758,-8.779" />
    <path id="pi-1441" d="M 8.939,-8.779 L 8.961,-8.779" />
    <path id="pi-1442" d="M 9.142,-8.779 L 9.164,-8.779" />
    <path id="pi-1443" d="M 9.345,-8.779 L 9.367,-8.779" />
    <path id="pi-1444" d="M 9.548,-8.779 L 9.57,-8.779" />
    <path id="pi-1445" d="M 9.751,-8.779 L 9.774,-8.779" />
    <path id="pi-1446" d="M 9.955,-8.779 L 9.977,-8.779" />
    <path id="pi-1447" d="M 10.158,-8.779 L 10.18,-8.779" />
    <path id="pi-1448" d="M 10.361,-8.779 L 10.383,-8.779" />
    <path id="pi-1449" d="M 10.564,-8.779 L 10.586,-8.779" />
    <path id="pi-1450" d="M 10.767,-8.779 L 10.79,-8.779" />
    <path id="pi-1451" d="M 10.971,-8.779 L 10.993,-8.779" />
    <path id="pi-1452" d="M 11.174,-8.779 L 11.196,-8.779" />
    <path id="pi-1453" d="M 11.377,-8.779 L 11.419,-8.779" />
    <path id="pi-1454" d="M 11.503,-8.732 L 11.503,-8.728" />
    <path id="pi-1455" d="M 11.503,-8.627 L 11.503,-8.622" />
    <path id="pi-1456" d="M 11.419,-8.576 L 11.275,-8.576" />
    <path id="pi-1457" d="M 11.094,-8.576 L 11.072,-8.576" />
    <path id="pi-1458" d="M 10.891,-8.576 L 10.869,-8.576" />
    <path id="pi-1459" d="M 10.688,-8.576 L 10.666,-8.576" />
    <path id="pi-1460" d="M 10.485,-8.576 L 10.463,-8.576" />
    <path id="pi-1461" d="M 10.282,-8.576 L 10.259,-8.576" />
    <path id="pi-1462" d="M 10.078,-8.576 L 10.056,-8.576" />
    <path id="pi-1463" d="M 9.875,-8.576 L 9.853,-8.576" />
    <path id="pi-1464" d="M 9.672,-8.576 L 9.65,-8.576" />
    <path id="pi-1465" d="M 9.469,-8.576 L 9.447,-8.576" />
    <path id="pi-1466" d="M 9.266,-8.576 L 9.243,-8.576" />
    <path id="pi-1467" d="M 9.062,-8.576 L 9.04,-8.576" />
    <path id="pi-1468" d="M 8.859,-8.576 L 8.837,-8.576" />
    <path id="pi-1469" d="M 8.656,-8.576 L 8.634,-8.576" />
    <path id="pi-1470" d="M 8.453,-8.576 L 8.431,-8.576" />
    <path id="pi-1471" d="M 15.532,3.761 L 15.532,3.761" />
    <path id="pi-1472" d="M 15.532,3.775 L 15.532,5.448" />
    <path id="pi-1473" d="M 15.08,5.462 L 13.286,5.462" />
    <path id="pi-1474" d="M -15.269,11.34 L -15.269,11.051" />
    <path id="pi-1475" d="M -15.283,11.354 L -30.229,11.354" />
    <path id="pi-1476" d="M -30.243,11.354 L -30.243,11.354" />
    <path id="pi-1477" d="M -30.243,11.354 L -30.243,11.354" />
    <path id="pi-1478" d="M -30.229,11.354 L -15.283,11.354" />
    <path id="pi-1479" d="M -15.269,11.051 L -15.269,11.34" />
    <path id="pi-1480" d="M -10.439,-3.372 L -9.839,-3.372" />
    <path id="pi-1481" d="M -9.825,-3.358 L -9.825,-2.713" />
    <path id="pi-1482" d="M -9.811,-2.699 L -9.463,-2.699" />
    <path id="pi-1483" d="M -9.422,-2.699 L -8.814,-2.699" />
    <path id="pi-1484" d="M -8.8,-2.684 L -8.8,-2.465" />
    <path id="pi-1485" d="M -8.8,-2.424 L -8.8,-1.375" />
    <path id="pi-1486" d="M -12.688,-1.36 L -9.651,-1.36" />
    <path id="pi-1487" d="M 17.549,0.044 L 17.549,-0.259" />
    <path id="pi-1488" d="M 17.549,0.044 L 17.549,-0.157" />
    <path id="pi-1489" d="M 12.636,4.983 L 12.636,5.65" />
    <path id="pi-1490" d="M 12.651,5.664 L 15.08,5.664" />
    <path id="pi-1491" d="M 15.51,3.601 L 15.51,3.608" />
    <path id="pi-1492" d="M 15.51,3.65 L 15.51,3.788" />
    <path id="pi-1493" d="M 15.51,3.802 L 15.51,3.802" />
    <path id="pi-1494" d="M 15.51,3.816 L 15.51,5.65" />
    <path id="pi-1495" d="M 15.51,5.664 L 15.51,5.664" />
    <path id="pi-1496" d="M 15.496,5.664 L 15.217,5.664" />
    <path id="pi-1497" d="M 15.207,5.664 L 15.165,5.664" />
    <path id="pi-1498" d="M 15.155,5.664 L 15.121,5.664" />
    <path id="pi-1499" d="M 12.798,10.035 L 12.798,10.978" />
    <path id="pi-1500" d="M 12.798,11.019 L 12.798,12.019" />
    <path id="pi-1501" d="M 12.798,12.06 L 12.798,12.787" />
    <path id="pi-1502" d="M 12.813,12.802 L 15.684,12.802" />
    <path id="pi-1503" d="M 15.699,12.802 L 15.699,12.802" />
    <path id="pi-1504" d="M 15.699,12.787 L 15.699,12.667" />
    <path id="pi-1505" d="M 10.498,12.84 L 9.552,12.84" />
    <path id="pi-1506" d="M 9.511,12.84 L 7.901,12.84" />
    <path id="pi-1507" d="M 7.86,12.84 L 6.44,12.84" />
    <path id="pi-1508" d="M 6.426,12.84 L 6.426,12.84" />
    <path id="pi-1509" d="M 6.426,12.825 L 6.426,12.667" />
    <path id="pi-1510" d="M 8.123,-8.576 L 8.25,-8.576" />
    <path id="pi-1511" d="M 10.677,-8.779 L 10.677,-8.779" />
    <path id="pi-1512" d="M 10.677,-8.758 L 10.677,-7.462" />
    <path id="pi-1513" d="M 10.656,-7.441 L 2.194,-7.441" />
    <path id="pi-1514" d="M 2.173,-7.421 L 2.173,3.953" />
    <path id="pi-1515" d="M 2.173,3.974 L 2.173,3.974" />
    <path id="pi-1516" d="M 2.173,3.953 L 2.173,2.484" />
    <path id="pi-1517" d="M 6.57,2.464 L 2.194,2.464" />
    <path id="pi-1518" d="M 10.474,-8.779 L 10.474,-8.779" />
    <path id="pi-1519" d="M 10.474,-8.758 L 10.474,-7.513" />
    <path id="pi-1520" d="M 10.453,-7.492 L 2.143,-7.492" />
    <path id="pi-1521" d="M 2.122,-7.472 L 2.122,3.953" />
    <path id="pi-1522" d="M 2.122,3.974 L 2.122,3.974" />
    <path id="pi-1523" d="M 2.122,3.953 L 2.122,2.637" />
    <path id="pi-1524" d="M 10.025,2.616 L 2.143,2.616" />
    <path id="pi-1525" d="M 13.997,-8.491 L 12.59,-8.677" />
    <path id="pi-1526" d="M 12.579,-8.677 L 11.594,-8.677" />
    <path id="pi-1527" d="M 14.262,-8.457 L 14.812,-8.384" />
    <path id="pi-1528" d="M 15.037,-9.443 L 14.907,-8.456" />
    <path id="pi-1529" d="M 15.037,-10.363 L 15.037,-9.454" />
    <path id="pi-1530" d="M 10.067,-8.779 L 10.067,-8.779" />
    <path id="pi-1531" d="M 10.067,-8.758 L 10.067,-7.614" />
    <path id="pi-1532" d="M 10.047,-7.594 L 2.041,-7.594" />
    <path id="pi-1533" d="M 2.021,-7.573 L 2.021,3.953" />
    <path id="pi-1534" d="M 2.021,3.974 L 2.021,3.974" />
    <path id="pi-1535" d="M 2.021,3.953 L 2.021,2.535" />
    <path id="pi-1536" d="M 2.041,2.515 L 17.528,2.515" />
    <path id="pi-1537" d="M 17.549,2.494 L 17.549,0.977" />
    <path id="pi-1538" d="M 17.549,0.959 L 17.549,0.882" />
    <path id="pi-1539" d="M 17.549,0.864 L 17.549,0.262" />
    <path id="pi-1540" d="M 17.549,0.241 L 17.549,0.241" />
    <path id="pi-1541" d="M 17.443,0.241 L 17.528,0.241" />
    <path id="pi-1542" d="M 9.864,-8.779 L 9.864,-8.779" />
    <path id="pi-1543" d="M 9.864,-8.758 L 9.864,-7.665" />
    <path id="pi-1544" d="M 9.844,-7.645 L 1.991,-7.645" />
    <path id="pi-1545" d="M 1.97,-7.624 L 1.97,3.953" />
    <path id="pi-1546" d="M 1.97,3.974 L 1.97,3.974" />
    <path id="pi-1547" d="M 1.97,3.953 L 1.97,2.484" />
    <path id="pi-1548" d="M 3.497,2.464 L 1.991,2.464" />
    <path id="pi-1549" d="M 9.661,-8.779 L 9.661,-8.779" />
    <path id="pi-1550" d="M 9.661,-8.758 L 9.661,-7.716" />
    <path id="pi-1551" d="M 9.64,-7.695 L 1.94,-7.695" />
    <path id="pi-1552" d="M 1.919,-7.675 L 1.919,3.953" />
    <path id="pi-1553" d="M 1.919,3.974 L 1.919,3.974" />
    <path id="pi-1554" d="M 1.919,3.953 L 1.919,2.535" />
    <path id="pi-1555" d="M 9.458,-8.779 L 9.458,-8.779" />
    <path id="pi-1556" d="M 9.458,-8.758 L 9.458,-7.767" />
    <path id="pi-1557" d="M 9.437,-7.746 L 1.889,-7.746" />
    <path id="pi-1558" d="M 1.868,-7.726 L 1.868,3.953" />
    <path id="pi-1559" d="M 1.868,3.974 L 1.868,3.974" />
    <path id="pi-1560" d="M 1.868,3.953 L 1.868,2.586" />
    <path id="pi-1561" d="M 1.848,2.565 L -15.248,2.565" />
    <path id="pi-1562" d="M -15.269,2.586 L -15.269,10.953" />
    <path id="pi-1563" d="M 9.255,-8.779 L 9.255,-8.779" />
    <path id="pi-1564" d="M 9.255,-8.758 L 9.255,-7.818" />
    <path id="pi-1565" d="M 9.234,-7.797 L 1.838,-7.797" />
    <path id="pi-1566" d="M 1.818,-7.776 L 1.818,3.953" />
    <path id="pi-1567" d="M 1.818,3.974 L 1.818,3.974" />
    <path id="pi-1568" d="M 1.818,3.953 L 1.818,2.637" />
    <path id="pi-1569" d="M 10.271,-8.779 L 10.271,-8.779" />
    <path id="pi-1570" d="M 10.271,-8.758 L 10.271,-7.564" />
    <path id="pi-1571" d="M 10.25,-7.543 L 2.092,-7.543" />
    <path id="pi-1572" d="M 2.072,-7.522 L 2.072,3.953" />
    <path id="pi-1573" d="M 2.072,3.974 L 2.072,3.974" />
    <path id="pi-1574" d="M 2.072,3.953 L 2.072,2.586" />
    <path id="pi-1575" d="M 2.092,2.565 L 15.489,2.565" />
    <path id="pi-1576" d="M 15.51,2.586 L 15.51,3.358" />
    <path id="pi-1577" d="M 15.51,3.378 L 15.51,3.378" />
    <path id="pi-1578" d="M 15.655,3.378 L 15.531,3.378" />
    <path id="pi-1579" d="M 8.645,-8.779 L 8.645,-8.779" />
    <path id="pi-1580" d="M 8.645,-8.758 L 8.645,-7.97" />
    <path id="pi-1581" d="M 8.624,-7.949 L 1.686,-7.949" />
    <path id="pi-1582" d="M 1.665,-7.929 L 1.665,3.953" />
    <path id="pi-1583" d="M 1.665,3.974 L 1.665,3.974" />
    <path id="pi-1584" d="M 1.665,3.953 L 1.665,2.57" />
    <path id="pi-1585" d="M -4.851,2.55 L -6.011,2.55" />
    <path id="pi-1586" d="M 8.442,-8.779 L 8.442,-8.779" />
    <path id="pi-1587" d="M 8.442,-8.758 L 8.442,-8.021" />
    <path id="pi-1588" d="M 8.421,-8 L 1.635,-8" />
    <path id="pi-1589" d="M 1.614,-7.98 L 1.614,3.953" />
    <path id="pi-1590" d="M 1.614,3.974 L 1.614,3.974" />
    <path id="pi-1591" d="M 1.614,3.953 L 1.614,2.621" />
    <path id="pi-1592" d="M -4.154,2.6 L 1.594,2.6" />
    <path id="pi-1593" d="M 9.051,-8.779 L 9.051,-8.779" />
    <path id="pi-1594" d="M 9.051,-8.758 L 9.051,-7.868" />
    <path id="pi-1595" d="M 9.031,-7.848 L 1.787,-7.848" />
    <path id="pi-1596" d="M 1.767,-7.827 L 1.767,3.953" />
    <path id="pi-1597" d="M 1.767,3.974 L 1.767,3.974" />
    <path id="pi-1598" d="M 1.767,3.953 L 1.767,2.621" />
    <path id="pi-1599" d="M 10.025,2.6 L 1.787,2.6" />
    <path id="pi-1600" d="M 8.848,-8.779 L 8.848,-8.779" />
    <path id="pi-1601" d="M 8.848,-8.758 L 8.848,-7.919" />
    <path id="pi-1602" d="M 8.828,-7.899 L 1.737,-7.899" />
    <path id="pi-1603" d="M 1.716,-7.878 L 1.716,3.953" />
    <path id="pi-1604" d="M 1.716,3.974 L 1.716,3.974" />
    <path id="pi-1605" d="M 1.716,3.953 L 1.716,2.519" />
    <path id="pi-1606" d="M -8.89,2.499 L -12.688,2.499" />
    <path id="pi-1607" d="M 8.329,-8.779 L 8.351,-8.779" />
    <path id="pi-1608" d="M 11.185,-8.655 L 11.185,-8.655" />
    <path id="pi-1609" d="M 11.185,-8.635 L 11.185,-7.31" />
    <path id="pi-1610" d="M 11.164,-7.289 L 2.346,-7.289" />
    <path id="pi-1611" d="M 2.326,-7.268 L 2.326,4.004" />
    <path id="pi-1612" d="M 2.326,4.024 L 2.326,4.024" />
    <path id="pi-1613" d="M 2.326,4.004 L 2.326,2.637" />
    <path id="pi-1614" d="M 6.875,2.616 L 2.346,2.616" />
    <path id="pi-1615" d="M 11.185,-8.655 L 11.185,-8.655" />
    <path id="pi-1616" d="M 11.185,-8.654 L 11.185,-8.609" />
    <path id="pi-1617" d="M 11.287,-8.779 L 11.287,-8.779" />
    <path id="pi-1618" d="M 11.083,-8.779 L 11.083,-8.779" />
    <path id="pi-1619" d="M 10.88,-8.779 L 10.88,-8.779" />
    <path id="pi-1620" d="M 10.677,-8.779 L 10.677,-8.779" />
    <path id="pi-1621" d="M 10.474,-8.779 L 10.474,-8.779" />
    <path id="pi-1622" d="M 10.271,-8.779 L 10.271,-8.779" />
    <path id="pi-1623" d="M 10.067,-8.779 L 10.067,-8.779" />
    <path id="pi-1624" d="M 9.864,-8.779 L 9.864,-8.779" />
    <path id="pi-1625" d="M 9.661,-8.779 L 9.661,-8.779" />
    <path id="pi-1626" d="M 9.458,-8.779 L 9.458,-8.779" />
    <path id="pi-1627" d="M 9.255,-8.779 L 9.255,-8.779" />
    <path id="pi-1628" d="M 9.051,-8.779 L 9.051,-8.779" />
    <path id="pi-1629" d="M 8.848,-8.779 L 8.848,-8.779" />
    <path id="pi-1630" d="M 8.645,-8.779 L 8.645,-8.779" />
    <path id="pi-1631" d="M 8.442,-8.779 L 8.442,-8.779" />
    <path id="pi-1632" d="M 10.982,-8.655 L 10.982,-8.655" />
    <path id="pi-1633" d="M 10.982,-8.635 L 10.982,-7.36" />
    <path id="pi-1634" d="M 10.961,-7.34 L 2.295,-7.34" />
    <path id="pi-1635" d="M 2.275,-7.319 L 2.275,4.004" />
    <path id="pi-1636" d="M 2.275,4.024 L 2.275,4.024" />
    <path id="pi-1637" d="M 2.275,4.004 L 2.275,2.586" />
    <path id="pi-1638" d="M 15.511,2.565 L 2.295,2.565" />
    <path id="pi-1639" d="M 10.982,-8.655 L 10.982,-8.655" />
    <path id="pi-1640" d="M 10.982,-8.654 L 10.982,-8.609" />
    <path id="pi-1641" d="M 10.779,-8.655 L 10.779,-8.655" />
    <path id="pi-1642" d="M 10.779,-8.635 L 10.779,-7.411" />
    <path id="pi-1643" d="M 10.758,-7.391 L 2.245,-7.391" />
    <path id="pi-1644" d="M 2.224,-7.37 L 2.224,4.004" />
    <path id="pi-1645" d="M 2.224,4.024 L 2.224,4.024" />
    <path id="pi-1646" d="M 2.224,4.004 L 2.224,2.535" />
    <path id="pi-1647" d="M 2.203,2.515 L -15.248,2.515" />
    <path id="pi-1648" d="M -15.269,2.535 L -15.269,10.953" />
    <path id="pi-1649" d="M 10.779,-8.655 L 10.779,-8.655" />
    <path id="pi-1650" d="M 10.779,-8.654 L 10.779,-8.609" />
    <path id="pi-1651" d="M 10.575,-8.655 L 10.575,-8.655" />
    <path id="pi-1652" d="M 10.575,-8.635 L 10.575,-7.462" />
    <path id="pi-1653" d="M 10.555,-7.441 L 2.194,-7.441" />
    <path id="pi-1654" d="M 2.173,-7.421 L 2.173,4.004" />
    <path id="pi-1655" d="M 2.173,4.024 L 2.173,4.024" />
    <path id="pi-1656" d="M 2.173,4.004 L 2.173,2.586" />
    <path id="pi-1657" d="M 10.575,-8.655 L 10.575,-8.655" />
    <path id="pi-1658" d="M 10.575,-8.654 L 10.575,-8.609" />
    <path id="pi-1659" d="M 10.372,-8.655 L 10.372,-8.655" />
    <path id="pi-1660" d="M 10.372,-8.635 L 10.372,-7.513" />
    <path id="pi-1661" d="M 10.352,-7.492 L 2.143,-7.492" />
    <path id="pi-1662" d="M 2.122,-7.472 L 2.122,4.004" />
    <path id="pi-1663" d="M 2.122,4.024 L 2.122,4.024" />
    <path id="pi-1664" d="M 10.372,-8.655 L 10.372,-8.655" />
    <path id="pi-1665" d="M 10.372,-8.654 L 10.372,-8.609" />
    <path id="pi-1666" d="M 10.169,-8.655 L 10.169,-8.655" />
    <path id="pi-1667" d="M 10.169,-8.635 L 10.169,-7.564" />
    <path id="pi-1668" d="M 10.148,-7.543 L 2.092,-7.543" />
    <path id="pi-1669" d="M 2.072,-7.522 L 2.072,4.004" />
    <path id="pi-1670" d="M 2.072,4.024 L 2.072,4.024" />
    <path id="pi-1671" d="M 10.169,-8.655 L 10.169,-8.655" />
    <path id="pi-1672" d="M 10.169,-8.654 L 10.169,-8.609" />
    <path id="pi-1673" d="M 9.966,-8.655 L 9.966,-8.655" />
    <path id="pi-1674" d="M 9.966,-8.635 L 9.966,-7.614" />
    <path id="pi-1675" d="M 9.945,-7.594 L 2.041,-7.594" />
    <path id="pi-1676" d="M 2.021,4.004 L 2.021,-7.573" />
    <path id="pi-1677" d="M 9.966,-8.655 L 9.966,-8.655" />
    <path id="pi-1678" d="M 9.966,-8.654 L 9.966,-8.609" />
    <path id="pi-1679" d="M 9.763,-8.655 L 9.763,-8.655" />
    <path id="pi-1680" d="M 9.763,-8.635 L 9.763,-7.665" />
    <path id="pi-1681" d="M 9.742,-7.645 L 1.991,-7.645" />
    <path id="pi-1682" d="M 1.97,4.004 L 1.97,-7.624" />
    <path id="pi-1683" d="M 9.763,-8.655 L 9.763,-8.655" />
    <path id="pi-1684" d="M 9.763,-8.654 L 9.763,-8.609" />
    <path id="pi-1685" d="M 9.559,-8.655 L 9.559,-8.655" />
    <path id="pi-1686" d="M 9.559,-8.635 L 9.559,-7.716" />
    <path id="pi-1687" d="M 1.94,-7.695 L 9.539,-7.695" />
    <path id="pi-1688" d="M 9.559,-8.655 L 9.559,-8.655" />
    <path id="pi-1689" d="M 9.559,-8.654 L 9.559,-8.609" />
    <path id="pi-1690" d="M 9.356,-8.655 L 9.356,-8.655" />
    <path id="pi-1691" d="M 9.356,-8.635 L 9.356,-7.767" />
    <path id="pi-1692" d="M 9.336,-7.746 L 1.889,-7.746" />
    <path id="pi-1693" d="M 1.868,-7.726 L 1.868,4.085" />
    <path id="pi-1694" d="M 1.889,4.105 L 1.952,4.105" />
    <path id="pi-1695" d="M 1.97,4.105 L 2.266,4.105" />
    <path id="pi-1696" d="M 2.284,4.105 L 6.668,4.105" />
    <path id="pi-1697" d="M 6.686,4.105 L 6.967,4.105" />
    <path id="pi-1698" d="M 6.985,4.105 L 7.595,4.105" />
    <path id="pi-1699" d="M 7.612,4.105 L 7.894,4.105" />
    <path id="pi-1700" d="M 7.912,4.105 L 12.942,4.105" />
    <path id="pi-1701" d="M 12.96,4.105 L 13.535,4.105" />
    <path id="pi-1702" d="M 13.553,4.105 L 15.678,4.105" />
    <path id="pi-1703" d="M 15.699,4.126 L 15.699,5.348" />
    <path id="pi-1704" d="M 15.699,5.366 L 15.699,5.532" />
    <path id="pi-1705" d="M 15.699,5.55 L 15.699,6.159" />
    <path id="pi-1706" d="M 15.699,6.177 L 15.699,6.343" />
    <path id="pi-1707" d="M 15.699,6.361 L 15.699,12.308" />
    <path id="pi-1708" d="M 15.699,12.329 L 15.699,12.329" />
    <path id="pi-1709" d="M 15.699,12.349 L 15.699,12.743" />
    <path id="pi-1710" d="M 15.699,12.764 L 15.699,12.764" />
    <path id="pi-1711" d="M 15.699,12.578 L 15.699,12.743" />
    <path id="pi-1712" d="M 9.356,-8.655 L 9.356,-8.655" />
    <path id="pi-1713" d="M 9.356,-8.654 L 9.356,-8.609" />
    <path id="pi-1714" d="M 9.153,-8.655 L 9.153,-8.655" />
    <path id="pi-1715" d="M 9.153,-8.635 L 9.153,-7.818" />
    <path id="pi-1716" d="M 9.132,-7.797 L 1.838,-7.797" />
    <path id="pi-1717" d="M 1.818,-7.776 L 1.818,4.135" />
    <path id="pi-1718" d="M 1.838,4.156 L 1.952,4.156" />
    <path id="pi-1719" d="M 1.97,4.156 L 2.266,4.156" />
    <path id="pi-1720" d="M 2.284,4.156 L 6.406,4.156" />
    <path id="pi-1721" d="M 6.426,4.177 L 6.426,5.341" />
    <path id="pi-1722" d="M 6.426,5.359 L 6.426,5.532" />
    <path id="pi-1723" d="M 6.426,5.55 L 6.426,6.159" />
    <path id="pi-1724" d="M 6.426,6.177 L 6.426,6.343" />
    <path id="pi-1725" d="M 6.426,6.361 L 6.426,12.287" />
    <path id="pi-1726" d="M 6.426,12.308 L 6.426,12.308" />
    <path id="pi-1727" d="M 6.426,12.328 L 6.426,12.781" />
    <path id="pi-1728" d="M 6.426,12.802 L 6.426,12.802" />
    <path id="pi-1729" d="M 6.426,12.654 L 6.426,12.781" />
    <path id="pi-1730" d="M 9.153,-8.655 L 9.153,-8.655" />
    <path id="pi-1731" d="M 9.153,-8.654 L 9.153,-8.609" />
    <path id="pi-1732" d="M 8.95,-8.655 L 8.95,-8.655" />
    <path id="pi-1733" d="M 8.95,-8.635 L 8.95,-7.868" />
    <path id="pi-1734" d="M 8.929,-7.848 L 1.787,-7.848" />
    <path id="pi-1735" d="M 1.767,-7.827 L 1.767,4.135" />
    <path id="pi-1736" d="M 1.746,4.156 L 0.787,4.156" />
    <path id="pi-1737" d="M 0.77,4.156 L 0.473,4.156" />
    <path id="pi-1738" d="M 0.456,4.156 L -3.561,4.156" />
    <path id="pi-1739" d="M -3.581,5.357 L -3.581,4.177" />
    <path id="pi-1740" d="M 8.95,-8.655 L 8.95,-8.655" />
    <path id="pi-1741" d="M 8.95,-8.654 L 8.95,-8.609" />
    <path id="pi-1742" d="M 8.747,-8.655 L 8.747,-8.655" />
    <path id="pi-1743" d="M 8.747,-8.635 L 8.747,-7.919" />
    <path id="pi-1744" d="M 8.726,-7.899 L 1.737,-7.899" />
    <path id="pi-1745" d="M 1.716,-7.878 L 1.716,4.085" />
    <path id="pi-1746" d="M 1.695,4.105 L 0.787,4.105" />
    <path id="pi-1747" d="M 0.77,4.105 L 0.473,4.105" />
    <path id="pi-1748" d="M 0.456,4.105 L -5.317,4.105" />
    <path id="pi-1749" d="M -5.331,4.105 L -5.853,4.105" />
    <path id="pi-1750" d="M -5.867,4.105 L -6.477,4.105" />
    <path id="pi-1751" d="M -6.492,4.105 L -7.013,4.105" />
    <path id="pi-1752" d="M -7.027,4.105 L -9.733,4.105" />
    <path id="pi-1753" d="M -9.754,4.126 L -9.754,5.209" />
    <path id="pi-1754" d="M -9.754,5.224 L -9.754,5.535" />
    <path id="pi-1755" d="M -9.754,5.55 L -9.754,6.16" />
    <path id="pi-1756" d="M -9.754,6.174 L -9.754,6.486" />
    <path id="pi-1757" d="M -9.754,6.5 L -9.754,10.97" />
    <path id="pi-1758" d="M -9.234,10.992 L -9.739,10.992" />
    <path id="pi-1759" d="M 8.747,-8.655 L 8.747,-8.655" />
    <path id="pi-1760" d="M 8.747,-8.654 L 8.747,-8.609" />
    <path id="pi-1761" d="M 8.543,-8.655 L 8.543,-8.655" />
    <path id="pi-1762" d="M 8.543,-8.635 L 8.543,-7.97" />
    <path id="pi-1763" d="M 8.523,-7.949 L 1.686,-7.949" />
    <path id="pi-1764" d="M 1.665,-7.929 L 1.665,4.034" />
    <path id="pi-1765" d="M 1.645,4.054 L 0.787,4.054" />
    <path id="pi-1766" d="M 0.77,4.054 L 0.473,4.054" />
    <path id="pi-1767" d="M 0.456,4.054 L -5.317,4.054" />
    <path id="pi-1768" d="M -5.331,4.054 L -5.853,4.054" />
    <path id="pi-1769" d="M -5.867,4.054 L -6.477,4.054" />
    <path id="pi-1770" d="M -6.492,4.054 L -7.013,4.054" />
    <path id="pi-1771" d="M -7.027,4.054 L -13.953,4.054" />
    <path id="pi-1772" d="M -13.968,4.054 L -14.692,4.054" />
    <path id="pi-1773" d="M -14.707,4.054 L -17.124,4.054" />
    <path id="pi-1774" d="M -17.145,4.075 L -17.145,5.21" />
    <path id="pi-1775" d="M -17.145,5.224 L -17.145,5.542" />
    <path id="pi-1776" d="M -17.145,5.557 L -17.145,6.152" />
    <path id="pi-1777" d="M -17.145,6.167 L -17.145,6.485" />
    <path id="pi-1778" d="M -17.145,10.952 L -17.145,6.5" />
    <path id="pi-1779" d="M 8.543,-8.655 L 8.543,-8.655" />
    <path id="pi-1780" d="M 8.543,-8.654 L 8.543,-8.609" />
    <path id="pi-1781" d="M 8.34,-8.655 L 8.34,-8.655" />
    <path id="pi-1782" d="M 8.34,-8.635 L 8.34,-8.021" />
    <path id="pi-1783" d="M 8.32,-8 L 1.635,-8" />
    <path id="pi-1784" d="M 1.614,-7.98 L 1.614,3.983" />
    <path id="pi-1785" d="M 1.594,4.004 L 0.787,4.004" />
    <path id="pi-1786" d="M 0.77,4.004 L 0.473,4.004" />
    <path id="pi-1787" d="M 0.456,4.004 L -5.317,4.004" />
    <path id="pi-1788" d="M -5.331,4.004 L -5.853,4.004" />
    <path id="pi-1789" d="M -5.867,4.004 L -6.477,4.004" />
    <path id="pi-1790" d="M -6.492,4.004 L -7.013,4.004" />
    <path id="pi-1791" d="M -7.027,4.004 L -13.953,4.004" />
    <path id="pi-1792" d="M -13.968,4.004 L -14.692,4.004" />
    <path id="pi-1793" d="M -14.707,4.004 L -20.471,4.004" />
    <path id="pi-1794" d="M 8.34,-8.655 L 8.34,-8.655" />
    <path id="pi-1795" d="M 8.34,-8.654 L 8.34,-8.609" />
    <path id="pi-1796" d="M 1.919,-7.675 L 1.919,4.004" />
    <path id="pi-1797" d="M 1.97,4.024 L 1.97,4.024" />
    <path id="pi-1798" d="M 2.021,4.024 L 2.021,4.024" />
    <path id="pi-1799" d="M -28.223,5.255 L -28.223,5.415" />
    <path id="pi-1800" d="M -28.223,5.436 L -28.223,5.436" />
    <path id="pi-1801" d="M -28.223,5.078 L -28.223,4.024" />
    <path id="pi-1802" d="M -28.202,4.004 L -27.369,4.004" />
    <path id="pi-1803" d="M -27.351,4.004 L -27.084,4.004" />
    <path id="pi-1804" d="M -27.066,4.004 L -21.944,4.004" />
    <path id="pi-1805" d="M -21.926,4.004 L -21.659,4.004" />
    <path id="pi-1806" d="M -21.642,4.004 L -21.03,4.004" />
    <path id="pi-1807" d="M -21.013,4.004 L -20.746,4.004" />
    <path id="pi-1808" d="M -20.728,4.004 L -20.525,4.004" />
    <path id="pi-1809" d="M 11.287,-8.779 L 11.287,-8.779" />
    <path id="pi-1810" d="M 11.083,-8.779 L 11.083,-8.779" />
    <path id="pi-1811" d="M 11.083,-8.758 L 11.083,-7.36" />
    <path id="pi-1812" d="M 11.063,-7.34 L 2.295,-7.34" />
    <path id="pi-1813" d="M 2.275,-7.319 L 2.275,3.953" />
    <path id="pi-1814" d="M 2.275,3.974 L 2.275,3.974" />
    <path id="pi-1815" d="M 2.275,3.953 L 2.275,2.586" />
    <path id="pi-1816" d="M 2.295,2.565 L 15.511,2.565" />
    <path id="pi-1817" d="M 15.532,2.586 L 15.532,3.281" />
    <path id="pi-1818" d="M 15.532,3.302 L 15.532,3.302" />
    <path id="pi-1819" d="M 10.88,-8.779 L 10.88,-8.779" />
    <path id="pi-1820" d="M 10.88,-8.758 L 10.88,-7.411" />
    <path id="pi-1821" d="M 10.86,-7.391 L 2.245,-7.391" />
    <path id="pi-1822" d="M 2.224,-7.37 L 2.224,3.953" />
    <path id="pi-1823" d="M 2.224,3.974 L 2.224,3.974" />
    <path id="pi-1824" d="M 2.224,3.953 L 2.224,2.535" />
    <path id="pi-1825" d="M 2.245,2.515 L 17.528,2.515" />
    <path id="pi-1826" d="M 17.549,2.494 L 17.549,0.977" />
    <path id="pi-1827" d="M 17.549,0.959 L 17.549,0.882" />
    <path id="pi-1828" d="M 17.549,0.864 L 17.549,0.262" />
    <path id="pi-1829" d="M 17.549,0.241 L 17.549,0.241" />
    <path id="pi-1830" d="M 17.443,0.241 L 17.528,0.241" />
    <path id="pi-1831" d="M 15.518,5.462 L 15.121,5.462" />
    <path id="pi-1832" d="M -1.492,5.217 L -1.492,5.217" />
    <path id="pi-1833" d="M -1.492,5.217 L -1.492,5.217" />
    <path id="pi-1834" d="M 1.919,4.024 L 1.919,4.024" />
    <path id="pi-1835" d="M 1.564,-8.03 L 1.564,3.953" />
    <path id="pi-1836" d="M 1.564,3.974 L 1.564,3.974" />
    <path id="pi-1837" d="M 8.218,-8.051 L 1.584,-8.051" />
    <path id="pi-1838" d="M 8.239,-8.779 L 8.239,-8.779" />
    <path id="pi-1839" d="M 8.239,-8.779 L 8.239,-8.779" />
    <path id="pi-1840" d="M 8.239,-8.779 L 8.239,-8.779" />
    <path id="pi-1841" d="M 8.239,-8.758 L 8.239,-8.072" />
    <path id="pi-1842" d="M 8.239,-8.779 L 8.239,-8.779" />
    <path id="pi-1843" d="M 8.123,-8.779 L 8.148,-8.779" />
    <path id="pi-1844" d="M 15.532,3.696 L 15.532,3.746" />
    <path id="pi-1845" d="M 12.026,10.348 L 12.066,11.844" />
    <path id="pi-1846" d="M -11.667,12.157 L -11.462,11.952" />
    <path id="pi-1847" d="M -11.403,11.927 L -9.509,11.927" />
    <path id="pi-1848" d="M -15.438,12.319 L -15.438,12.319" />
    <path id="pi-1849" d="M -15.438,11.927 L -15.438,11.927" />
    <path id="pi-1850" d="M -15.438,11.993 L -15.438,12.254" />
    <path id="pi-1851" d="M -15.435,12.327 L -15.383,12.453" />
    <path id="pi-1852" d="M 12.068,11.927 L 12.068,11.927" />
    <path id="pi-1853" d="M 0.889,11.927 L 11.847,11.927" />
    <path id="pi-1854" d="M -15.322,11.927 L -9.646,11.927" />
    <path id="pi-1855" d="M -9.425,11.927 L -9.425,11.927" />
    <path id="pi-1856" d="M 0.635,11.927 L 0.635,11.927" />
    <path id="pi-1857" d="M -9.171,11.927 L 0.414,11.927" />
    <path id="pi-1858" d="M 0.635,11.927 L 0.635,11.927" />
    <path id="pi-1859" d="M 12.068,11.927 L 12.068,11.927" />
    <path id="pi-1860" d="M -9.425,11.927 L -9.425,11.927" />
    <path id="pi-1861" d="M -19.137,9.573 L -17.931,10.779" />
    <path id="pi-1862" d="M -17.84,10.998 L -17.84,11.588" />
    <path id="pi-1863" d="M -15.38,12.46 L -15.38,12.43" />
    <path id="pi-1864" d="M -15.576,12.379 L -17.644,11.842" />
    <path id="pi-1865" d="M -6.011,2.499 L -4.851,2.499" />
    <path id="pi-1866" d="M -8.473,2.55 L -6.334,2.55" />
    <path id="pi-1867" d="M -9.092,2.565 L -6.336,2.565" />
    <path id="pi-1868" d="M 1.645,2.55 L -4.435,2.55" />
    <path id="pi-1869" d="M 1.695,2.499 L -4.435,2.499" />
    <path id="pi-1870" d="M -6.334,2.499 L -8.473,2.499" />
    <path id="pi-1871" d="M -8.89,2.55 L -9.144,2.55" />
    <path id="pi-1872" d="M -3.581,6.159 L -3.581,5.55" />
    <path id="pi-1873" d="M -3.581,10.925 L -3.581,6.352" />
    <path id="pi-1874" d="M -3.581,6.334 L -3.581,6.177" />
    <path id="pi-1875" d="M -3.581,5.532 L -3.581,5.375" />
  </g>
</svg>