<?xml version="1.0" encoding="utf-8"?>
<svg xmlns="http://www.w3.org/2000/svg" viewBox="-34.441 -13.331 55.540 21.877">
  <g transform="scale(1,-1)">
    <rect id="tm-163" x="-15.009" y="11.963" width="0.3" height="0.3" transform="rotate(240,-14.859,12.113)" />
    <rect id="tm-164" x="-15.009" y="6.772" width="0.3" height="0.3" transform="rotate(240,-14.859,6.922)" />
    <rect id="tm-165" x="-12.456" y="11.963" width="0.3" height="0.3" transform="rotate(240,-12.306,12.113)" />
    <rect id="tm-166" x="-12.456" y="6.772" width="0.3" height="0.3" transform="rotate(240,-12.306,6.922)" />
    <rect id="tm-167" x="-33.373" y="11.963" width="0.3" height="0.3" transform="rotate(240,-33.223,12.113)" />
    <rect id="tm-168" x="-33.373" y="6.518" width="0.3" height="0.3" transform="rotate(240,-33.223,6.668)" />
    <rect id="tm-169" x="-30.821" y="11.963" width="0.3" height="0.3" transform="rotate(240,-30.671,12.113)" />
    <rect id="tm-170" x="-30.821" y="6.518" width="0.3" height="0.3" transform="rotate(240,-30.671,6.668)" />
    <rect id="tm-171" x="12.575" y="-5.217" width="0.3" height="0.3" transform="rotate(120,12.725,-5.067)" />
    <rect id="tm-172" x="12.575" y="-0.239" width="0.3" height="0.3" transform="rotate(120,12.725,-0.089)" />
    <rect id="tm-173" x="15.128" y="-5.217" width="0.3" height="0.3" transform="rotate(120,15.278,-5.067)" />
    <rect id="tm-174" x="15.128" y="-0.239" width="0.3" height="0.3" transform="rotate(120,15.278,-0.089)" />
    <rect id="tm-1965" x="-15.009" y="11.963" width="0.3" height="0.3" transform="rotate(240,-14.859,12.113)" />
    <rect id="tm-1966" x="-15.009" y="6.772" width="0.3" height="0.3" transform="rotate(240,-14.859,6.922)" />
    <rect id="tm-1967" x="-12.456" y="11.963" width="0.3" height="0.3" transform="rotate(240,-12.306,12.113)" />
    <rect id="tm-1968" x="-12.456" y="6.772" width="0.3" height="0.3" transform="rotate(240,-12.306,6.922)" />
    <rect id="tm-1969" x="-33.373" y="11.963" width="0.3" height="0.3" transform="rotate(240,-33.223,12.113)" />
    <rect id="tm-1970" x="-33.373" y="6.518" width="0.3" height="0.3" transform="rotate(240,-33.223,6.668)" />
    <rect id="tm-1971" x="-30.821" y="11.963" width="0.3" height="0.3" transform="rotate(240,-30.671,12.113)" />
    <rect id="tm-1972" x="-30.821" y="6.518" width="0.3" height="0.3" transform="rotate(240,-30.671,6.668)" />
    <rect id="tm-1973" x="12.575" y="-5.217" width="0.3" height="0.3" transform="rotate(120,12.725,-5.067)" />
    <rect id="tm-1974" x="12.575" y="-0.239" width="0.3" height="0.3" transform="rotate(120,12.725,-0.089)" />
    <rect id="tm-1975" x="15.128" y="-5.217" width="0.3" height="0.3" transform="rotate(120,15.278,-5.067)" />
    <rect id="tm-1976" x="15.128" y="-0.239" width="0.3" height="0.3" transform="rotate(120,15.278,-0.089)" />
    <rect id="tm-1977" x="-18.476" y="3.165" width="0.3" height="0.3" transform="rotate(180,-18.326,3.315)" />
    <rect id="tm-1978" x="-18.476" y="0.625" width="0.3" height="0.3" transform="rotate(180,-18.326,0.775)" />
    <rect id="tm-1979" x="-24.807" y="3.165" width="0.3" height="0.3" transform="rotate(180,-24.657,3.315)" />
    <rect id="tm-1980" x="-24.807" y="0.625" width="0.3" height="0.3" transform="rotate(180,-24.657,0.775)" />
    <rect id="tm-1981" x="-30.979" y="3.165" width="0.3" height="0.3" transform="rotate(180,-30.829,3.315)" />
    <rect id="tm-1982" x="-30.979" y="0.625" width="0.3" height="0.3" transform="rotate(180,-30.829,0.775)" />
    <rect id="tm-1983" x="-18.476" y="10.074" width="0.3" height="0.3" transform="rotate(180,-18.326,10.224)" />
    <rect id="tm-1984" x="-18.476" y="7.534" width="0.3" height="0.3" transform="rotate(180,-18.326,7.684)" />
    <rect id="tm-1985" x="-24.807" y="10.074" width="0.3" height="0.3" transform="rotate(180,-24.657,10.224)" />
    <rect id="tm-1986" x="-24.807" y="7.534" width="0.3" height="0.3" transform="rotate(180,-24.657,7.684)" />
    <rect id="tm-1987" x="-18.476" y="-3.744" width="0.3" height="0.3" transform="rotate(180,-18.326,-3.594)" />
    <rect id="tm-1988" x="-18.476" y="-6.284" width="0.3" height="0.3" transform="rotate(180,-18.326,-6.134)" />
    <rect id="tm-1989" x="-24.807" y="-3.744" width="0.3" height="0.3" transform="rotate(180,-24.657,-3.594)" />
    <rect id="tm-1990" x="-24.807" y="-6.284" width="0.3" height="0.3" transform="rotate(180,-24.657,-6.134)" />
    <rect id="tm-1991" x="-30.979" y="-3.744" width="0.3" height="0.3" transform="rotate(180,-30.829,-3.594)" />
    <rect id="tm-1992" x="-30.979" y="-6.284" width="0.3" height="0.3" transform="rotate(180,-30.829,-6.134)" />
    <rect id="tm-1993" x="-12.875" y="3.165" width="0.3" height="0.3" transform="rotate(180,-12.725,3.315)" />
    <rect id="tm-1994" x="-8.761" y="3.165" width="0.3" height="0.3" transform="rotate(180,-8.611,3.315)" />
    <rect id="tm-1995" x="-12.875" y="0.625" width="0.3" height="0.3" transform="rotate(180,-12.725,0.775)" />
    <rect id="tm-1996" x="-8.761" y="0.625" width="0.3" height="0.3" transform="rotate(180,-8.611,0.775)" />
    <rect id="tm-1997" x="-9.523" y="7.534" width="0.3" height="0.3" transform="rotate(180,-9.373,7.684)" />
    <rect id="tm-1998" x="-9.523" y="10.074" width="0.3" height="0.3" transform="rotate(180,-9.373,10.224)" />
    <rect id="tm-1999" x="-12.875" y="-3.744" width="0.3" height="0.3" transform="rotate(180,-12.725,-3.594)" />
    <rect id="tm-2000" x="-8.761" y="-3.744" width="0.3" height="0.3" transform="rotate(180,-8.611,-3.594)" />
    <rect id="tm-2001" x="-12.875" y="-6.284" width="0.3" height="0.3" transform="rotate(180,-12.725,-6.134)" />
    <rect id="tm-2002" x="-8.761" y="-6.284" width="0.3" height="0.3" transform="rotate(180,-8.611,-6.134)" />
    <rect id="tm-2003" x="-2.922" y="-6.284" width="0.3" height="0.3" transform="rotate(180,-2.772,-6.134)" />
    <rect id="tm-2004" x="-2.922" y="0.625" width="0.3" height="0.3" transform="rotate(180,-2.772,0.775)" />
    <rect id="tm-2005" x="-2.922" y="3.165" width="0.3" height="0.3" transform="rotate(180,-2.772,3.315)" />
    <rect id="tm-2006" x="-4.141" y="7.534" width="0.3" height="0.3" transform="rotate(180,-3.991,7.684)" />
    <rect id="tm-2007" x="-4.141" y="10.074" width="0.3" height="0.3" transform="rotate(180,-3.991,10.224)" />
    <rect id="tm-2008" x="3.936" y="10.074" width="0.3" height="0.3" transform="rotate(180,4.086,10.224)" />
    <rect id="tm-2009" x="3.936" y="7.534" width="0.3" height="0.3" transform="rotate(180,4.086,7.684)" />
    <rect id="tm-2010" x="3.936" y="3.165" width="0.3" height="0.3" transform="rotate(180,4.086,3.315)" />
    <rect id="tm-2011" x="3.936" y="0.625" width="0.3" height="0.3" transform="rotate(180,4.086,0.775)" />
    <rect id="tm-2012" x="3.936" y="-6.284" width="0.3" height="0.3" transform="rotate(180,4.086,-6.134)" />
    <rect id="tm-2013" x="3.936" y="-3.744" width="0.3" height="0.3" transform="rotate(180,4.086,-3.594)" />
    <rect id="tm-2014" x="-2.922" y="-3.744" width="0.3" height="0.3" transform="rotate(180,-2.772,-3.594)" />
    <rect id="tm-2015" x="9.575" y="-6.284" width="0.3" height="0.3" transform="rotate(180,9.725,-6.134)" />
    <rect id="tm-2016" x="9.575" y="-3.744" width="0.3" height="0.3" transform="rotate(180,9.725,-3.594)" />
    <rect id="tm-2017" x="9.575" y="0.625" width="0.3" height="0.3" transform="rotate(180,9.725,0.775)" />
    <rect id="tm-2018" x="9.575" y="3.165" width="0.3" height="0.3" transform="rotate(180,9.725,3.315)" />
    <rect id="tm-2019" x="9.575" y="7.534" width="0.3" height="0.3" transform="rotate(180,9.725,7.684)" />
    <rect id="tm-2020" x="9.575" y="10.074" width="0.3" height="0.3" transform="rotate(180,9.725,10.224)" />
    <rect id="tm-2021" x="14.252" y="10.074" width="0.3" height="0.3" transform="rotate(180,14.402,10.224)" />
    <rect id="tm-2022" x="17.3" y="-6.63" width="0.3" height="0.3" transform="rotate(180,17.45,-6.48)" />
    <rect id="tm-2023" x="17.3" y="-4.497" width="0.3" height="0.3" transform="rotate(180,17.45,-4.347)" />
    <rect id="tm-2024" x="17.3" y="-2.973" width="0.3" height="0.3" transform="rotate(180,17.45,-2.823)" />
    <rect id="tm-2025" x="17.3" y="-0.534" width="0.3" height="0.3" transform="rotate(180,17.45,-0.384)" />
    <rect id="tm-2026" x="16.843" y="3.165" width="0.3" height="0.3" transform="rotate(180,16.993,3.315)" />
    <rect id="tm-2027" x="14.252" y="7.534" width="0.3" height="0.3" transform="rotate(180,14.402,7.684)" />
    <rect id="tm-2028" x="16.843" y="10.074" width="0.3" height="0.3" transform="rotate(180,16.993,10.224)" />
    <rect id="tm-2029" x="16.843" y="7.534" width="0.3" height="0.3" transform="rotate(180,16.993,7.684)" />
    <rect id="tm-2030" x="-0.429" y="9.281" width="0.3" height="0.3" transform="rotate(180,-0.279,9.431)" />
    <rect id="tm-2031" x="-0.429" y="11.267" width="0.3" height="0.3" transform="rotate(180,-0.279,11.417)" />
    <rect id="tm-2032" x="-29.144" y="11.124" width="0.3" height="0.3" transform="rotate(180,-28.994,11.274)" />
    <rect id="tm-2033" x="13.807" y="-7.478" width="0.3" height="0.3" transform="rotate(180,13.957,-7.328)" />
    <rect id="tm-2034" x="13.591" y="4.233" width="0.3" height="0.3" transform="rotate(120,13.741,4.383)" />
    <rect id="tm-2035" x="7.711" y="5.292" width="0.3" height="0.3" transform="rotate(120,7.861,5.442)" />
    <rect id="tm-2036" x="13.591" y="4.233" width="0.3" height="0.3" transform="rotate(120,13.741,4.383)" />
    <rect id="tm-2037" x="19.731" y="-1.576" width="0.3" height="0.3" transform="rotate(240,19.881,-1.426)" />
    <rect id="tm-2038" x="17.303" y="-5.595" width="0.3" height="0.3" transform="rotate(120,17.453,-5.445)" />
    <rect id="tm-2039" x="13.591" y="4.233" width="0.3" height="0.3" transform="rotate(120,13.741,4.383)" />
    <rect id="tm-2040" x="7.711" y="5.292" width="0.3" height="0.3" transform="rotate(120,7.861,5.442)" />
    <rect id="tm-2041" x="7.711" y="5.292" width="0.3" height="0.3" transform="rotate(120,7.861,5.442)" />
    <rect id="tm-2042" x="-3.772" y="7.603" width="0.3" height="0.3" transform="rotate(120,-3.622,7.753)" />
    <rect id="tm-2043" x="9.001" y="-5.595" width="0.3" height="0.3" transform="rotate(120,9.151,-5.445)" />
    <rect id="tm-2044" x="4.461" y="-5.595" width="0.3" height="0.3" transform="rotate(120,4.611,-5.445)" />
    <rect id="tm-2045" x="5.215" y="-2.316" width="0.3" height="0.3" transform="rotate(240,5.365,-2.166)" />
    <rect id="tm-2046" x="5.215" y="-2.316" width="0.3" height="0.3" transform="rotate(240,5.365,-2.166)" />
    <rect id="tm-2047" x="15.445" y="9.83" width="0.3" height="0.3" transform="rotate(240,15.595,9.98)" />
    <rect id="tm-2048" x="19.731" y="-1.576" width="0.3" height="0.3" transform="rotate(240,19.881,-1.426)" />
    <rect id="tm-2049" x="-11.041" y="-2.316" width="0.3" height="0.3" transform="rotate(240,-10.891,-2.166)" />
    <rect id="tm-2050" x="-11.041" y="-2.316" width="0.3" height="0.3" transform="rotate(240,-10.891,-2.166)" />
    <rect id="tm-2051" x="-10.758" y="-2.357" width="0.3" height="0.3" transform="rotate(240,-10.608,-2.207)" />
    <rect id="tm-2052" x="-7.489" y="8.408" width="0.3" height="0.3" transform="rotate(240,-7.339,8.558)" />
    <rect id="tm-2053" x="3.248" y="8.92" width="0.3" height="0.3" transform="rotate(240,3.398,9.07)" />
    <rect id="tm-2054" x="-2.734" y="8.308" width="0.3" height="0.3" transform="rotate(240,-2.584,8.458)" />
    <rect id="tm-2055" x="-20.586" y="10.222" width="0.3" height="0.3" transform="rotate(240,-20.436,10.372)" />
    <rect id="tm-2056" x="-16.646" y="4.348" width="0.3" height="0.3" transform="rotate(90,-16.496,4.498)" />
    <rect id="tm-2057" x="-18.728" y="9.877" width="0.3" height="0.3" transform="rotate(240,-18.578,10.027)" />
    <rect id="tm-2058" x="-18.728" y="9.877" width="0.3" height="0.3" transform="rotate(240,-18.578,10.027)" />
    <rect id="tm-2059" x="-18.728" y="9.877" width="0.3" height="0.3" transform="rotate(240,-18.578,10.027)" />
    <rect id="tm-2060" x="-25.465" y="9.877" width="0.3" height="0.3" transform="rotate(240,-25.315,10.027)" />
    <rect id="tm-2061" x="-25.465" y="9.877" width="0.3" height="0.3" transform="rotate(240,-25.315,10.027)" />
    <rect id="tm-2062" x="-25.465" y="9.877" width="0.3" height="0.3" transform="rotate(240,-25.315,10.027)" />
    <rect id="tm-2063" x="-27.435" y="11.628" width="0.3" height="0.3" transform="rotate(90,-27.285,11.778)" />
    <rect id="tm-2064" x="-8.5" y="-6.384" width="0.3" height="0.3" transform="rotate(120,-8.35,-6.234)" />
    <rect id="tm-2065" x="-10.662" y="4.257" width="0.3" height="0.3" transform="rotate(120,-10.512,4.407)" />
    <rect id="tm-2066" x="-10.491" y="4.212" width="0.3" height="0.3" transform="rotate(120,-10.341,4.362)" />
    <rect id="tm-2067" x="-1.344" y="-6.738" width="0.3" height="0.3" transform="rotate(120,-1.194,-6.588)" />
    <rect id="tm-2068" x="-10.491" y="4.212" width="0.3" height="0.3" transform="rotate(120,-10.341,4.362)" />
    <rect id="tm-2069" x="-3.772" y="7.603" width="0.3" height="0.3" transform="rotate(120,-3.622,7.753)" />
    <rect id="tm-2070" x="-10.491" y="4.212" width="0.3" height="0.3" transform="rotate(120,-10.341,4.362)" />
  </g>
</svg>