<?xml version="1.0" encoding="utf-8"?>
<svg xmlns="http://www.w3.org/2000/svg" viewBox="-34.786 -14.289 57.494 33.075">
  <g transform="scale(1,-1)">
    <path id="w-309" d="M -33.68,-8.611 L -33.68,5.779" />
    <path id="w-310" d="M -33.68,13.03 L -30.518,13.03" />
    <path id="w-4" d="M 21.603,-8.11 L 18.86,12.725" />
    <path id="w-311" d="M -33.68,-8.611 L -15.164,-8.611" />
    <path id="w-5" d="M -5.715,-8.611 L -5.715,-9.299" />
    <path id="w-6" d="M -5.715,-9.299 L 1.245,-9.299" />
    <path id="w-7" d="M 12.571,-9.299 L 21.603,-8.11" />
    <path id="w-8" d="M -33.277,13.183 L -33.277,5.855" />
    <path id="w-312" d="M -30.518,5.779 L -30.518,13.03" />
    <path id="w-313" d="M -33.68,5.779 L -30.518,5.779" />
    <path id="w-9" d="M 15.43,-8.922 L 15.431,0.724" />
    <path id="w-10" d="M 12.497,0.724 L 12.497,-9.299" />
    <path id="w-21" d="M -12.154,12.725 L 12.59,12.725" />
    <path id="w-23" d="M 15.431,0.724 L 12.497,0.724" />
    <path id="w-28" d="M -15.164,-8.611 L -5.715,-8.611" />
    <path id="w-29" d="M 1.245,-9.299 L 12.571,-9.299" />
    <path id="w-314" d="M -33.68,5.779 L -33.68,13.03" />
    <path id="w-315" d="M -30.518,12.725 L -15.088,12.725" />
    <path id="w-316" d="M -30.518,7.811 L -27.597,7.811" />
    <path id="w-317" d="M -27.597,7.811 L -27.597,10.325" />
    <path id="w-318" d="M -27.597,10.325 L -30.518,10.325" />
    <path id="w-36" d="M -1.727,5.778 L 1.168,5.778" />
    <path id="w-37" d="M 1.3,8.395 L -1.727,8.395" />
    <path id="w-38" d="M -1.727,5.778 L -1.727,8.395" />
    <path id="w-40" d="M 1.168,5.778 L 1.168,8.395" />
    <path id="w-319" d="M -27.648,-17.681 L -27.648,-8.611" />
    <path id="w-320" d="M -19.723,-17.681 L -19.723,-8.611" />
    <path id="w-321" d="M -27.465,10.325 L -27.465,12.725" />
    <path id="w-322" d="M -1.757,8.395 L -1.757,12.725" />
    <path id="w-323" d="M -1.757,10.465 L 1.3,10.465" />
    <path id="w-72" d="M 15.431,0.779 L 20.433,0.779" />
    <path id="w-80" d="M 12.59,12.725 L 18.86,12.725" />
    <path id="w-81" d="M -15.088,13.03 L -15.088,5.779" />
    <path id="w-82" d="M -12.154,5.779 L -12.154,13.03" />
    <path id="w-96" d="M -15.088,5.779 L -12.154,5.779" />
    <path id="w-99" d="M -15.088,13.03 L -12.154,13.03" />
    <path id="w-324" d="M 1.3,8.395 L 1.3,12.725" />
    <path id="w-151" d="M 15.43,-6.134 L 12.497,-6.134" />
    <path id="w-325" d="M -30.493,10.325 L -27.597,10.325" />
    <path id="w-326" d="M -30.493,7.811 L -30.493,10.325" />
    <path id="w-327" d="M -27.597,7.811 L -30.493,7.811" />
    <path id="w-328" d="M -27.597,10.325 L -27.597,7.811" />
    <path id="w-329" d="M -1.727,8.395 L 1.168,8.395" />
    <path id="w-330" d="M -1.727,5.778 L -1.727,8.395" />
    <path id="w-331" d="M 1.168,5.778 L -1.727,5.778" />
    <path id="w-332" d="M 1.168,8.395 L 1.168,5.778" />
    <path id="w-1070" d="M 15.634,-1.41 L 15.634,-6.033" />
  </g>
</svg>