<?xml version="1.0" encoding="utf-8"?>
<svg xmlns="http://www.w3.org/2000/svg" viewBox="-134.188 188.786 25.516 31.612">
  <g transform="scale(1,-1)">
    <polygon id="sp-23" points="-115.355,-189.394 -133.495,-189.394 -133.495,-201.445 -125.326,-201.445 -115.355,-201.445 -115.355,-199.12 -115.355,-195.158" fill="rgba(0,0,255,0.1)" stroke="blue" stroke-width="0.05" />
    <polygon id="sp-24" points="-133.495,-201.559 -133.495,-206.132 -126.186,-206.132 -126.184,-206.128 -125.383,-204.733 -125.383,-201.559" fill="rgba(0,0,255,0.1)" stroke="blue" stroke-width="0.05" />
    <polygon id="sp-25" points="-109.28,-216.64 -109.28,-208.436 -118.799,-208.436 -118.892,-208.436 -118.892,-216.64" fill="rgba(0,0,255,0.1)" stroke="blue" stroke-width="0.05" />
    <polygon id="sp-30" points="-111.698,-189.394 -115.241,-189.394 -115.241,-195.101 -111.698,-195.101" fill="rgba(0,0,255,0.1)" stroke="blue" stroke-width="0.05" />
    <polygon id="sp-31" points="-111.698,-195.215 -115.241,-195.215 -115.241,-199.063 -112.612,-199.063 -111.698,-199.063" fill="rgba(0,0,255,0.1)" stroke="blue" stroke-width="0.05" />
    <polygon id="sp-32" points="-115.241,-199.178 -115.241,-201.445 -112.669,-201.445 -112.669,-199.178" fill="rgba(0,0,255,0.1)" stroke="blue" stroke-width="0.05" />
    <polygon id="sp-33" points="-133.495,-208.263 -128.916,-210.89 -126.186,-206.132 -133.495,-206.132" fill="rgba(0,0,255,0.1)" stroke="blue" stroke-width="0.05" />
    <polygon id="sp-34" points="-128.916,-210.89 -133.58,-208.214 -133.58,-211.846 -119.735,-219.79 -118.892,-219.79 -118.892,-216.64 -118.898,-216.64 -118.898,-208.375 -125.311,-204.696 -126.145,-206.15 -126.184,-206.128 -126.186,-206.132" fill="rgba(0,0,255,0.1)" stroke="blue" stroke-width="0.05" />
  </g>
</svg>