<?xml version="1.0" encoding="utf-8"?>
<svg xmlns="http://www.w3.org/2000/svg" viewBox="-129.698 192.945 17.972 21.330">
  <g transform="scale(1,-1)">
    <line id="du-18" x1="-128.831" y1="-195.158" x2="-112.597" y2="-195.158" stroke="black" stroke-width="0.305" stroke-linecap="square" />
    <line id="du-19" x1="-129.288" y1="-195.158" x2="-129.288" y2="-195.158" stroke="black" stroke-width="0.305" stroke-linecap="square" />
    <line id="du-20" x1="-121.649" y1="-195.158" x2="-121.649" y2="-195.158" stroke="black" stroke-width="0.305" stroke-linecap="square" />
    <line id="du-21" x1="-112.14" y1="-195.615" x2="-112.14" y2="-200.471" stroke="black" stroke-width="0.305" stroke-linecap="square" />
    <line id="du-22" x1="-112.14" y1="-197.749" x2="-112.14" y2="-197.749" stroke="black" stroke-width="0.254" stroke-linecap="square" />
    <line id="du-23" x1="-112.902" y1="-193.355" x2="-112.902" y2="-193.355" stroke="black" stroke-width="0.254" stroke-linecap="square" />
    <line id="du-24" x1="-112.902" y1="-194.904" x2="-112.902" y2="-193.507" stroke="black" stroke-width="0.254" stroke-linecap="square" />
    <line id="du-25" x1="-112.14" y1="-210.055" x2="-112.14" y2="-201.182" stroke="black" stroke-width="0.305" stroke-linecap="square" />
    <line id="du-26" x1="-113.469" y1="-204.855" x2="-113.469" y2="-204.855" stroke="black" stroke-width="0.305" stroke-linecap="square" />
    <line id="du-27" x1="-112.394" y1="-204.855" x2="-113.012" y2="-204.855" stroke="black" stroke-width="0.305" stroke-linecap="square" />
    <line id="du-28" x1="-112.597" y1="-210.512" x2="-125.936" y2="-210.512" stroke="black" stroke-width="0.305" stroke-linecap="square" />
    <line id="du-29" x1="-126.393" y1="-210.512" x2="-126.393" y2="-210.512" stroke="black" stroke-width="0.305" stroke-linecap="square" />
    <line id="du-30" x1="-113.469" y1="-213.865" x2="-113.469" y2="-213.865" stroke="black" stroke-width="0.305" stroke-linecap="square" />
    <line id="du-31" x1="-113.469" y1="-210.766" x2="-113.469" y2="-213.408" stroke="black" stroke-width="0.305" stroke-linecap="square" />
    <line id="du-32" x1="-112.136" y1="-200.826" x2="-112.136" y2="-200.826" stroke="black" stroke-width="0.508" stroke-linecap="square" />
  </g>
</svg>