<?xml version="1.0" encoding="utf-8"?>
<svg xmlns="http://www.w3.org/2000/svg" viewBox="-16.763 -31.192 73.836 56.08">
  <g transform="scale(1,-1)">
    <polygon id="cl-20" points="23.8,22.325 23.8,24.539 21.282,24.539 21.282,22.325" />
    <polygon id="cl-21" points="19.982,24.678 24.369,24.678 24.369,30.489 19.982,30.489" />
    <polygon id="cl-22" points="17.282,24.678 19.843,24.678 19.843,30.489 17.282,30.489" />
    <polygon id="cl-23" points="12.082,22.478 17.143,22.478 17.143,30.489 12.082,30.489" />
    <polygon id="cl-24" points="8.482,26.928 11.943,26.928 11.943,30.489 8.482,30.489" />
    <polygon id="cl-25" points="11.943,26.789 8.582,26.789 8.582,24.678 11.943,24.678" />
    <polygon id="cl-26" points="4.814,24.678 8.043,24.678 8.043,26.789 4.814,26.789" />
    <polygon id="cl-27" points="-9.697,17.743 -1.517,17.743 -1.517,22.408 1.875,22.408 1.875,28.308 2.014,28.308 2.014,22.478 4.675,22.478 4.675,26.928 8.343,26.928 8.343,30.489 6.648,30.489 6.648,30.589 -9.797,30.589 -9.797,22.478 -9.697,22.478" />
    <polygon id="cl-28" points="-4.097,14.499 -4.097,14.36 -9.697,14.36 -9.697,10.699 -1.586,10.699 -1.586,17.604 -9.697,17.604 -9.697,14.499" />
    <polygon id="cl-29" points="-1.586,5.499 -1.586,10.56 -9.697,10.56 -9.697,5.499" />
    <polygon id="cl-30" points="-9.797,-11.67 -1.586,-11.67 -1.586,2.26 -7.086,2.26 -7.086,5.36 -9.697,5.36 -9.697,2.33 -9.797,2.33" />
    <polygon id="cl-31" points="-1.586,-23.281 -1.586,-15.055 -1.586,-11.809 -9.797,-11.809 -9.797,-23.281" />
    <polygon id="cl-32" points="3.923,-15.07 3.923,-17.246 7.175,-17.246 7.175,-15.07" />
    <polygon id="cl-33" points="7.175,-17.385 3.923,-17.385 3.923,-23.181 7.175,-23.181" />
    <polygon id="cl-34" points="9.675,-23.181 9.675,-17.385 7.314,-17.385 7.314,-23.181" />
    <polygon id="cl-35" points="12.578,-17.385 10.314,-17.385 10.314,-23.181 12.578,-23.181" />
    <polygon id="cl-36" points="21.647,-23.281 21.647,-15.07 12.716,-15.07 12.716,-23.281" />
    <polygon id="cl-37" points="27.647,-23.281 27.647,-15.07 21.785,-15.07 21.785,-23.281" />
    <polygon id="cl-38" points="31.647,-23.281 31.647,-15.07 27.785,-15.07 27.785,-23.281" />
    <polygon id="cl-39" points="35.647,-23.281 35.647,-15.07 31.785,-15.07 31.785,-23.281" />
    <polygon id="cl-40" points="39.647,-23.281 39.647,-15.07 35.785,-15.07 35.785,-23.281" />
    <polygon id="cl-41" points="45.647,-23.281 45.647,-15.07 39.785,-15.07 39.785,-23.281" />
    <polygon id="cl-42" points="49.647,-23.281 49.647,-15.07 45.785,-15.07 45.785,-23.281" />
    <polygon id="cl-43" points="53.53,-15.07 49.785,-15.07 49.785,-23.281 53.53,-23.281" />
    <polygon id="cl-64" points="56.47,-12.335 7.245,-12.335 7.245,-6.796 6.448,-6.796 6.448,-6.571 7.245,-6.571 7.245,-0.802 6.448,-0.802 6.448,-0.577 7.245,-0.577 7.245,9.798 6.448,9.798 6.448,10.023 7.245,10.023 7.245,17.561 6.448,17.561 6.448,17.674 -1.447,17.674 -1.447,-14.931 -1.386,-14.931 -1.386,-15.915 1.254,-15.915 1.254,-14.931 7.314,-14.931 7.314,-17.246 8.875,-17.246 8.875,-14.931 11.016,-14.931 11.016,-17.246 12.578,-17.246 12.578,-14.931 53.73,-14.931 53.73,-15.915 56.37,-15.915 56.37,-14.931 56.47,-14.931" />
    <polygon id="cl-65" points="27.209,23.323 24.569,23.323 24.569,22.186 21.143,22.186 21.143,24.539 17.282,24.539 17.282,22.339 11.943,22.339 11.943,24.539 9.782,24.539 9.782,22.339 6.975,22.339 6.975,24.539 4.814,24.539 4.814,22.339 1.945,22.339 1.945,22.408 -1.517,22.408 -1.517,17.674 6.448,17.674 6.448,17.786 7.245,17.786 7.245,19.618 27.36,19.618 27.36,22.339 27.209,22.339" />
  </g>
</svg>