<?xml version="1.0" encoding="utf-8"?>
<svg xmlns="http://www.w3.org/2000/svg" viewBox="-16.763 -31.192 73.836 56.08">
  <g transform="scale(1,-1)">
    <rect id="sc-56" x="-9.352" y="29.994" width="0.3" height="0" transform="rotate(180,-9.202,29.994)" />
    <rect id="sc-57" x="-9.352" y="22.679" width="0.3" height="0" transform="rotate(180,-9.202,22.679)" />
    <rect id="sc-58" x="-9.352" y="19.427" width="0.3" height="0" transform="rotate(180,-9.202,19.427)" />
    <rect id="sc-59" x="-9.352" y="13.128" width="0.3" height="0" transform="rotate(180,-9.202,13.128)" />
    <rect id="sc-60" x="-9.352" y="6.829" width="0.3" height="0" transform="rotate(180,-9.202,6.829)" />
    <rect id="sc-61" x="-9.352" y="0.53" width="0.3" height="0" transform="rotate(180,-9.202,0.53)" />
    <rect id="sc-62" x="-9.352" y="-5.769" width="0.3" height="0" transform="rotate(180,-9.202,-5.769)" />
    <rect id="sc-63" x="-9.352" y="-12.069" width="0.3" height="0" transform="rotate(180,-9.202,-12.069)" />
    <rect id="sc-64" x="-9.352" y="-15.32" width="0.3" height="0" transform="rotate(180,-9.202,-15.32)" />
    <rect id="sc-65" x="-9.352" y="-22.635" width="0.3" height="0" transform="rotate(180,-9.202,-22.635)" />
    <rect id="sc-66" x="0.605" y="29.994" width="0.3" height="0" transform="rotate(180,0.755,29.994)" />
    <rect id="sc-67" x="0.605" y="22.679" width="0.3" height="0" transform="rotate(180,0.755,22.679)" />
    <rect id="sc-68" x="0.605" y="19.427" width="0.3" height="0" transform="rotate(180,0.755,19.427)" />
    <rect id="sc-69" x="0.605" y="13.128" width="0.3" height="0" transform="rotate(180,0.755,13.128)" />
    <rect id="sc-70" x="0.605" y="6.829" width="0.3" height="0" transform="rotate(180,0.755,6.829)" />
    <rect id="sc-71" x="0.605" y="0.53" width="0.3" height="0" transform="rotate(180,0.755,0.53)" />
    <rect id="sc-72" x="0.605" y="-5.769" width="0.3" height="0" transform="rotate(180,0.755,-5.769)" />
    <rect id="sc-73" x="0.605" y="-12.069" width="0.3" height="0" transform="rotate(180,0.755,-12.069)" />
    <rect id="sc-74" x="6.498" y="29.994" width="0.3" height="0" transform="rotate(180,6.648,29.994)" />
    <rect id="sc-75" x="6.498" y="22.679" width="0.3" height="0" transform="rotate(180,6.648,22.679)" />
    <rect id="sc-76" x="6.498" y="19.427" width="0.3" height="0" transform="rotate(180,6.648,19.427)" />
    <rect id="sc-77" x="6.498" y="13.128" width="0.3" height="0" transform="rotate(180,6.648,13.128)" />
    <rect id="sc-78" x="6.498" y="6.829" width="0.3" height="0" transform="rotate(180,6.648,6.829)" />
    <rect id="sc-79" x="6.498" y="0.53" width="0.3" height="0" transform="rotate(180,6.648,0.53)" />
    <rect id="sc-80" x="6.498" y="-5.769" width="0.3" height="0" transform="rotate(180,6.648,-5.769)" />
    <rect id="sc-81" x="6.498" y="-12.069" width="0.3" height="0" transform="rotate(180,6.648,-12.069)" />
    <rect id="sc-82" x="6.498" y="-22.635" width="0.3" height="0" transform="rotate(180,6.648,-22.635)" />
    <rect id="sc-83" x="6.498" y="-1.413" width="0.3" height="0" transform="rotate(180,6.648,-1.413)" />
    <rect id="sc-84" x="12.797" y="29.994" width="0.3" height="0" transform="rotate(180,12.947,29.994)" />
    <rect id="sc-85" x="12.797" y="22.679" width="0.3" height="0" transform="rotate(180,12.947,22.679)" />
    <rect id="sc-86" x="12.797" y="-15.32" width="0.3" height="0" transform="rotate(180,12.947,-15.32)" />
    <rect id="sc-87" x="12.797" y="-22.635" width="0.3" height="0" transform="rotate(180,12.947,-22.635)" />
    <rect id="sc-88" x="19.299" y="29.994" width="0.3" height="0" transform="rotate(180,19.449,29.994)" />
    <rect id="sc-89" x="19.299" y="22.679" width="0.3" height="0" transform="rotate(180,19.449,22.679)" />
    <rect id="sc-90" x="19.299" y="-15.32" width="0.3" height="0" transform="rotate(180,19.449,-15.32)" />
    <rect id="sc-91" x="19.299" y="-22.635" width="0.3" height="0" transform="rotate(180,19.449,-22.635)" />
    <rect id="sc-92" x="25.802" y="-15.32" width="0.3" height="0" transform="rotate(180,25.952,-15.32)" />
    <rect id="sc-93" x="25.802" y="-22.635" width="0.3" height="0" transform="rotate(180,25.952,-22.635)" />
    <rect id="sc-94" x="32.304" y="-15.32" width="0.3" height="0" transform="rotate(180,32.454,-15.32)" />
    <rect id="sc-95" x="32.304" y="-22.635" width="0.3" height="0" transform="rotate(180,32.454,-22.635)" />
    <rect id="sc-96" x="38.806" y="-15.32" width="0.3" height="0" transform="rotate(180,38.956,-15.32)" />
    <rect id="sc-97" x="38.806" y="-22.635" width="0.3" height="0" transform="rotate(180,38.956,-22.635)" />
    <rect id="sc-98" x="45.309" y="-15.32" width="0.3" height="0" transform="rotate(180,45.459,-15.32)" />
    <rect id="sc-99" x="45.309" y="-22.635" width="0.3" height="0" transform="rotate(180,45.459,-22.635)" />
    <rect id="sc-100" x="-2.037" y="29.994" width="0.3" height="0" transform="rotate(180,-1.887,29.994)" />
    <rect id="sc-101" x="-2.037" y="22.679" width="0.3" height="0" transform="rotate(180,-1.887,22.679)" />
    <rect id="sc-102" x="-2.037" y="19.427" width="0.3" height="0" transform="rotate(180,-1.887,19.427)" />
    <rect id="sc-103" x="-2.037" y="13.128" width="0.3" height="0" transform="rotate(180,-1.887,13.128)" />
    <rect id="sc-104" x="-2.037" y="6.829" width="0.3" height="0" transform="rotate(180,-1.887,6.829)" />
    <rect id="sc-105" x="-2.037" y="0.53" width="0.3" height="0" transform="rotate(180,-1.887,0.53)" />
    <rect id="sc-106" x="-2.037" y="-5.769" width="0.3" height="0" transform="rotate(180,-1.887,-5.769)" />
    <rect id="sc-107" x="-2.037" y="-12.069" width="0.3" height="0" transform="rotate(180,-1.887,-12.069)" />
    <rect id="sc-108" x="-2.037" y="-15.32" width="0.3" height="0" transform="rotate(180,-1.887,-15.32)" />
    <rect id="sc-109" x="-2.037" y="-22.635" width="0.3" height="0" transform="rotate(180,-1.887,-22.635)" />
  </g>
</svg>