<?xml version="1.0" encoding="utf-8"?>
<svg xmlns="http://www.w3.org/2000/svg" viewBox="-16.763 -31.192 73.836 56.08">
  <g transform="scale(1,-1)">
    <rect id="tm-28" x="-0.236" y="-12.585" width="0.3" height="0.3" transform="rotate(270,-0.086,-12.435)" />
    <rect id="tm-29" x="5.009" y="-12.626" width="0.3" height="0.3" transform="rotate(270,5.159,-12.476)" />
    <rect id="tm-30" x="-0.236" y="-8.085" width="0.3" height="0.3" transform="rotate(270,-0.086,-7.935)" />
    <rect id="tm-31" x="5.009" y="-8.126" width="0.3" height="0.3" transform="rotate(270,5.159,-7.976)" />
    <rect id="tm-32" x="-0.236" y="-3.585" width="0.3" height="0.3" transform="rotate(270,-0.086,-3.435)" />
    <rect id="tm-33" x="5.009" y="-3.626" width="0.3" height="0.3" transform="rotate(270,5.159,-3.476)" />
    <rect id="tm-34" x="-0.236" y="0.915" width="0.3" height="0.3" transform="rotate(270,-0.086,1.065)" />
    <rect id="tm-35" x="5.009" y="0.874" width="0.3" height="0.3" transform="rotate(270,5.159,1.024)" />
    <rect id="tm-36" x="-0.236" y="5.415" width="0.3" height="0.3" transform="rotate(270,-0.086,5.565)" />
    <rect id="tm-37" x="5.009" y="5.374" width="0.3" height="0.3" transform="rotate(270,5.159,5.524)" />
    <rect id="tm-38" x="-0.236" y="9.915" width="0.3" height="0.3" transform="rotate(270,-0.086,10.065)" />
    <rect id="tm-39" x="5.009" y="9.874" width="0.3" height="0.3" transform="rotate(270,5.159,10.024)" />
    <rect id="tm-40" x="-0.236" y="14.415" width="0.3" height="0.3" transform="rotate(270,-0.086,14.565)" />
    <rect id="tm-41" x="5.009" y="14.374" width="0.3" height="0.3" transform="rotate(270,5.159,14.524)" />
  </g>
</svg>