<?xml version="1.0" encoding="utf-8"?>
<svg xmlns="http://www.w3.org/2000/svg" viewBox="-16.763 -31.192 73.836 56.08">
  <g transform="scale(1,-1)">
    <path id="w-47" d="M 24.469,22.255 L 21.213,22.255" />
    <path id="w-48" d="M 1.354,-15 L 7.245,-15" />
    <path id="w-49" d="M 21.213,24.608 L 21.213,22.255" />
    <path id="w-50" d="M 17.213,24.608 L 24.469,24.608" />
    <path id="w-51" d="M 23.869,24.608 L 23.869,22.255" />
    <path id="w-52" d="M 3.854,-17.315 L 3.854,-15" />
    <path id="w-53" d="M 7.245,-23.333 L 7.245,-15" />
    <path id="w-54" d="M 12.647,-23.333 L 12.647,-15" />
    <path id="w-55" d="M 12.647,-17.315 L 3.854,-17.315" />
    <path id="w-56" d="M 8.945,-17.315 L 8.945,-15" />
    <path id="w-57" d="M 10.947,-17.315 L 10.947,-15" />
    <path id="w-58" d="M 9.745,-17.315 L 9.745,-23.333" />
    <path id="w-59" d="M 10.245,-17.315 L 10.245,-23.333" />
    <path id="w-60" d="M 8.945,-15 L 10.947,-15" />
    <path id="w-61" d="M 12.647,-15 L 53.63,-15" />
    <path id="w-78" d="M 49.716,-15 L 49.716,-23.206" />
    <path id="w-80" d="M 45.716,-15 L 45.716,-23.2" />
    <path id="w-81" d="M 39.716,-15 L 39.716,-23.2" />
    <path id="w-82" d="M 35.716,-15 L 35.716,-23.2" />
    <path id="w-83" d="M 31.716,-15 L 31.716,-23.206" />
    <path id="w-84" d="M 27.716,-15 L 27.716,-23.206" />
    <path id="w-85" d="M 21.716,-15 L 21.716,-23.206" />
    <path id="w-86" d="M -9.722,-11.74 L -1.517,-11.74" />
    <path id="w-87" d="M -7.017,2.33 L -1.517,2.33" />
    <path id="w-88" d="M -9.849,5.43 L -1.517,5.43" />
    <path id="w-89" d="M -7.017,5.43 L -7.017,2.33" />
    <path id="w-90" d="M -9.849,10.63 L -1.517,10.63" />
    <path id="w-91" d="M -9.849,14.43 L -4.097,14.43" />
    <path id="w-92" d="M -9.849,17.674 L -1.517,17.674" />
    <path id="w-93" d="M 1.945,28.308 L 1.945,22.408" />
    <path id="w-94" d="M 8.413,30.641 L 8.413,26.858" />
    <path id="w-95" d="M 17.213,30.641 L 17.213,22.408" />
    <path id="w-96" d="M 19.913,30.641 L 19.913,24.608" />
    <path id="w-97" d="M 12.013,30.641 L 12.013,22.408" />
    <path id="w-98" d="M 4.745,26.858 L 12.013,26.858" />
    <path id="w-99" d="M 4.745,26.858 L 4.745,22.408" />
    <path id="w-100" d="M 7.045,24.608 L 7.045,22.408" />
    <path id="w-101" d="M 4.745,24.608 L 12.013,24.608" />
    <path id="w-102" d="M 9.713,24.608 L 9.713,22.408" />
    <path id="w-103" d="M 8.513,26.858 L 8.513,24.608" />
    <path id="w-104" d="M 8.113,26.858 L 8.113,24.608" />
    <path id="w-105" d="M 17.213,22.408 L 12.013,22.408" />
    <path id="w-106" d="M 4.745,22.408 L 1.945,22.408" />
    <path id="w-107" d="M 9.713,22.408 L 7.045,22.408" />
    <path id="w-108" d="M -1.517,17.674 L -1.517,-14.931" />
  </g>
</svg>