<?xml version="1.0" encoding="utf-8"?>
<svg xmlns="http://www.w3.org/2000/svg" viewBox="-28.323 -6.505 41.546 15.55">
  <g transform="scale(1,-1)">
    <rect id="if-18" x="-15.161" y="-1.915" width="0.3" height="0.3" fill="black" />
    <rect id="if-19" x="-15.161" y="-1.915" width="0.3" height="0.3" fill="black" />
    <rect id="if-20" x="-21.486" y="-1.915" width="0.3" height="0.3" fill="black" />
    <rect id="if-21" x="-21.486" y="-1.915" width="0.3" height="0.3" fill="black" />
    <rect id="if-22" x="7.14" y="-1.915" width="0.3" height="0.3" fill="black" />
    <rect id="if-23" x="7.14" y="-1.915" width="0.3" height="0.3" fill="black" />
    <rect id="if-24" x="0.942" y="-1.915" width="0.3" height="0.3" fill="black" />
    <rect id="if-25" x="0.942" y="-1.915" width="0.3" height="0.3" fill="black" />
    <rect id="if-26" x="-6.322" y="-1.915" width="0.3" height="0.3" fill="black" />
    <rect id="if-27" x="-6.322" y="-1.915" width="0.3" height="0.3" fill="black" />
    <rect id="if-28" x="-6.322" y="5.705" width="0.3" height="0.3" fill="black" transform="rotate(360,-6.172,5.855)" />
    <rect id="if-29" x="-6.322" y="5.705" width="0.3" height="0.3" fill="black" transform="rotate(360,-6.172,5.855)" />
    <rect id="if-30" x="7.14" y="5.705" width="0.3" height="0.3" fill="black" transform="rotate(360,7.29,5.855)" />
    <rect id="if-31" x="7.14" y="5.705" width="0.3" height="0.3" fill="black" transform="rotate(360,7.29,5.855)" />
    <rect id="if-32" x="12.423" y="5.705" width="0.3" height="0.3" fill="black" transform="rotate(360,12.573,5.855)" />
    <rect id="if-33" x="12.423" y="5.705" width="0.3" height="0.3" fill="black" transform="rotate(360,12.573,5.855)" />
    <rect id="if-34" x="-21.486" y="5.705" width="0.3" height="0.3" fill="black" transform="rotate(360,-21.336,5.855)" />
    <rect id="if-35" x="-21.486" y="5.705" width="0.3" height="0.3" fill="black" transform="rotate(360,-21.336,5.855)" />
    <rect id="if-36" x="-27.823" y="5.705" width="0.3" height="0.3" fill="black" transform="rotate(360,-27.673,5.855)" />
    <rect id="if-37" x="-27.823" y="5.705" width="0.3" height="0.3" fill="black" transform="rotate(360,-27.673,5.855)" />
    <rect id="if-38" x="-27.823" y="-1.915" width="0.3" height="0.3" fill="black" />
    <rect id="if-39" x="-27.823" y="-1.915" width="0.3" height="0.3" fill="black" />
    <rect id="if-73" x="7.14" y="-8.545" width="0.3" height="0.3" fill="black" />
    <rect id="if-74" x="7.14" y="-8.545" width="0.3" height="0.3" fill="black" />
    <rect id="if-75" x="0.942" y="-8.545" width="0.3" height="0.3" fill="black" />
    <rect id="if-76" x="0.942" y="-8.545" width="0.3" height="0.3" fill="black" />
  </g>
</svg>