<?xml version="1.0" encoding="utf-8"?>
<svg xmlns="http://www.w3.org/2000/svg" viewBox="-33.876 -13.225 55.638 22.729">
  <g transform="scale(1,-1)">
    <polygon id="ss-13" points="-15.316,5.55 -15.316,12.421 -30.366,12.421 -30.366,10.452 -27.368,10.452 -27.368,7.684 -28.461,7.684 -28.461,7.938 -29.731,7.938 -29.731,7.684 -30.366,7.684 -30.366,7.176 -30.67,7.176 -30.67,6.16 -30.366,6.16 -30.366,5.55 -33.376,5.55 -33.376,-8.306 -27.368,-8.306 -27.368,-8.915 -20.053,-8.915 -20.053,-8.306 -15.316,-8.306 -5.715,-8.306 -5.715,-9.004 12.49,-9.004 21.262,-7.85 18.593,12.421 12.268,12.421 -12.001,12.421 -12.001,5.55 -13.691,5.55 -13.691,6.007 -14.707,6.007 -14.707,5.55" fill="rgba(128,128,128,0.2)" stroke="gray" stroke-width="0.05" />
    <polygon id="ss-15" points="-33.376,6.007 -30.67,6.007 -30.67,7.811 -30.67,10.325 -30.67,12.725 -33.376,12.725" fill="rgba(128,128,128,0.2)" stroke="gray" stroke-width="0.05" />
    <polygon id="ss-16" points="-14.859,6.007 -12.306,6.007 -12.306,12.725 -14.859,12.725" fill="rgba(128,128,128,0.2)" stroke="gray" stroke-width="0.05" />
    <polygon id="ss-17" points="12.725,-5.982 15.278,-5.982 15.278,0.571 12.725,0.571" fill="rgba(128,128,128,0.2)" stroke="gray" stroke-width="0.05" />
  </g>
</svg>