<?xml version="1.0" encoding="utf-8"?>
<svg xmlns="http://www.w3.org/2000/svg" viewBox="-133.85 188.888 22.611 13.501">
  <g transform="scale(1,-1)">
    <rect id="mn-311" x="-111.825" y="-196.758" width="0.05" height="0.05" fill="black" transform="rotate(180,-111.8,-196.733)" />
    <rect id="mn-312" x="-111.825" y="-196.783" width="0.05" height="0.05" fill="black" transform="rotate(270,-111.8,-196.758)" />
    <rect id="mn-313" x="-111.842" y="-199.329" width="0.05" height="0.05" fill="black" transform="rotate(180,-111.817,-199.304)" />
    <rect id="mn-314" x="-111.842" y="-199.224" width="0.05" height="0.05" fill="black" transform="rotate(90,-111.817,-199.199)" />
    <rect id="mn-315" x="-111.842" y="-197.723" width="0.05" height="0.05" fill="black" transform="rotate(120,-111.817,-197.698)" />
    <rect id="mn-316" x="-111.842" y="-197.723" width="0.05" height="0.05" fill="black" transform="rotate(240,-111.817,-197.698)" />
    <rect id="mn-317" x="-111.842" y="-198.536" width="0.05" height="0.05" fill="black" transform="rotate(120,-111.817,-198.511)" />
    <rect id="mn-318" x="-111.842" y="-198.536" width="0.05" height="0.05" fill="black" transform="rotate(240,-111.817,-198.511)" />
    <rect id="mn-319" x="-111.842" y="-198.986" width="0.05" height="0.05" fill="black" transform="rotate(180,-111.817,-198.961)" />
    <rect id="mn-320" x="-113.128" y="-198.986" width="0.05" height="0.05" fill="black" transform="rotate(90,-113.103,-198.961)" />
    <rect id="mn-321" x="-113.128" y="-198.986" width="0.05" height="0.05" fill="black" transform="rotate(240,-113.103,-198.961)" />
    <rect id="mn-322" x="-115.193" y="-198.986" width="0.05" height="0.05" fill="black" transform="rotate(240,-115.168,-198.961)" />
    <rect id="mn-323" x="-115.193" y="-198.986" width="0.05" height="0.05" fill="black" transform="rotate(240,-115.168,-198.961)" />
    <rect id="mn-324" x="-115.193" y="-198.163" width="0.05" height="0.05" fill="black" transform="rotate(120,-115.168,-198.138)" />
    <rect id="mn-325" x="-115.193" y="-198.163" width="0.05" height="0.05" fill="black" transform="rotate(270,-115.168,-198.138)" />
    <rect id="mn-326" x="-115.193" y="-198.163" width="0.05" height="0.05" fill="black" transform="rotate(240,-115.168,-198.138)" />
    <rect id="mn-327" x="-115.193" y="-189.438" width="0.05" height="0.05" fill="black" transform="rotate(180,-115.168,-189.413)" />
    <rect id="mn-328" x="-111.789" y="-189.438" width="0.05" height="0.05" fill="black" transform="rotate(90,-111.764,-189.413)" />
    <rect id="mn-329" x="-111.789" y="-193.73" width="0.05" height="0.05" fill="black" transform="rotate(270,-111.764,-193.705)" />
    <rect id="mn-330" x="-111.789" y="-193.373" width="0.05" height="0.05" fill="black" transform="rotate(240,-111.764,-193.348)" />
    <rect id="mn-331" x="-111.789" y="-193.373" width="0.05" height="0.05" fill="black" transform="rotate(180,-111.764,-193.348)" />
    <rect id="mn-332" x="-111.789" y="-193.373" width="0.05" height="0.05" fill="black" transform="rotate(120,-111.764,-193.348)" />
    <rect id="mn-333" x="-111.789" y="-192.23" width="0.05" height="0.05" fill="black" transform="rotate(240,-111.764,-192.205)" />
    <rect id="mn-334" x="-111.789" y="-192.23" width="0.05" height="0.05" fill="black" transform="rotate(180,-111.764,-192.205)" />
    <rect id="mn-335" x="-111.789" y="-192.23" width="0.05" height="0.05" fill="black" transform="rotate(120,-111.764,-192.205)" />
    <rect id="mn-336" x="-111.789" y="-191.087" width="0.05" height="0.05" fill="black" transform="rotate(240,-111.764,-191.062)" />
    <rect id="mn-337" x="-111.789" y="-191.087" width="0.05" height="0.05" fill="black" transform="rotate(180,-111.764,-191.062)" />
    <rect id="mn-338" x="-111.789" y="-191.087" width="0.05" height="0.05" fill="black" transform="rotate(120,-111.764,-191.062)" />
    <rect id="mn-339" x="-111.789" y="-189.944" width="0.05" height="0.05" fill="black" transform="rotate(240,-111.764,-189.919)" />
    <rect id="mn-340" x="-111.789" y="-189.944" width="0.05" height="0.05" fill="black" transform="rotate(180,-111.764,-189.919)" />
    <rect id="mn-341" x="-111.789" y="-189.944" width="0.05" height="0.05" fill="black" transform="rotate(120,-111.764,-189.919)" />
    <rect id="mn-342" x="-115.193" y="-189.944" width="0.05" height="0.05" fill="black" transform="rotate(120,-115.168,-189.919)" />
    <rect id="mn-343" x="-115.193" y="-189.944" width="0.05" height="0.05" fill="black" transform="rotate(270,-115.168,-189.919)" />
    <rect id="mn-344" x="-115.193" y="-189.944" width="0.05" height="0.05" fill="black" transform="rotate(240,-115.168,-189.919)" />
    <rect id="mn-345" x="-115.193" y="-191.087" width="0.05" height="0.05" fill="black" transform="rotate(120,-115.168,-191.062)" />
    <rect id="mn-346" x="-115.193" y="-191.087" width="0.05" height="0.05" fill="black" transform="rotate(270,-115.168,-191.062)" />
    <rect id="mn-347" x="-115.193" y="-191.087" width="0.05" height="0.05" fill="black" transform="rotate(240,-115.168,-191.062)" />
    <rect id="mn-348" x="-115.193" y="-192.23" width="0.05" height="0.05" fill="black" transform="rotate(120,-115.168,-192.205)" />
    <rect id="mn-349" x="-115.193" y="-192.23" width="0.05" height="0.05" fill="black" transform="rotate(270,-115.168,-192.205)" />
    <rect id="mn-350" x="-115.193" y="-192.23" width="0.05" height="0.05" fill="black" transform="rotate(240,-115.168,-192.205)" />
    <rect id="mn-351" x="-115.193" y="-193.373" width="0.05" height="0.05" fill="black" transform="rotate(120,-115.168,-193.348)" />
    <rect id="mn-352" x="-115.193" y="-193.373" width="0.05" height="0.05" fill="black" transform="rotate(270,-115.168,-193.348)" />
    <rect id="mn-353" x="-115.193" y="-193.373" width="0.05" height="0.05" fill="black" transform="rotate(240,-115.168,-193.348)" />
    <rect id="mn-354" x="-115.193" y="-197.02" width="0.05" height="0.05" fill="black" transform="rotate(120,-115.168,-196.995)" />
    <rect id="mn-355" x="-115.193" y="-197.02" width="0.05" height="0.05" fill="black" transform="rotate(270,-115.168,-196.995)" />
    <rect id="mn-356" x="-115.193" y="-197.02" width="0.05" height="0.05" fill="black" transform="rotate(240,-115.168,-196.995)" />
    <rect id="mn-357" x="-115.193" y="-195.299" width="0.05" height="0.05" fill="black" transform="rotate(90,-115.168,-195.274)" />
    <rect id="mn-358" x="-113.009" y="-195.299" width="0.05" height="0.05" fill="black" />
    <rect id="mn-359" x="-114.688" y="-195.299" width="0.05" height="0.05" fill="black" transform="rotate(120,-114.663,-195.274)" />
    <rect id="mn-360" x="-114.688" y="-195.299" width="0.05" height="0.05" fill="black" transform="rotate(90,-114.663,-195.274)" />
    <rect id="mn-361" x="-114.688" y="-195.299" width="0.05" height="0.05" fill="black" transform="rotate(120,-114.663,-195.274)" />
    <rect id="mn-362" x="-113.85" y="-195.299" width="0.05" height="0.05" fill="black" transform="rotate(90,-113.825,-195.274)" />
    <rect id="mn-363" x="-113.85" y="-195.299" width="0.05" height="0.05" fill="black" transform="rotate(240,-113.825,-195.274)" />
    <rect id="mn-364" x="-113.85" y="-195.299" width="0.05" height="0.05" fill="black" transform="rotate(180,-113.825,-195.274)" />
    <rect id="mn-365" x="-113.088" y="-195.299" width="0.05" height="0.05" fill="black" transform="rotate(90,-113.063,-195.274)" />
    <rect id="mn-366" x="-113.088" y="-195.299" width="0.05" height="0.05" fill="black" transform="rotate(240,-113.063,-195.274)" />
    <rect id="mn-367" x="-113.088" y="-195.299" width="0.05" height="0.05" fill="black" transform="rotate(180,-113.063,-195.274)" />
    <rect id="mn-368" x="-115.193" y="-195.058" width="0.05" height="0.05" fill="black" transform="rotate(90,-115.168,-195.033)" />
    <rect id="mn-369" x="-112.983" y="-195.058" width="0.05" height="0.05" fill="black" />
    <rect id="mn-370" x="-114.891" y="-195.058" width="0.05" height="0.05" fill="black" transform="rotate(240,-114.866,-195.033)" />
    <rect id="mn-371" x="-114.891" y="-195.058" width="0.05" height="0.05" fill="black" transform="rotate(90,-114.866,-195.033)" />
    <rect id="mn-372" x="-114.891" y="-195.058" width="0.05" height="0.05" fill="black" transform="rotate(120,-114.866,-195.033)" />
    <rect id="mn-373" x="-114.053" y="-195.058" width="0.05" height="0.05" fill="black" transform="rotate(90,-114.028,-195.033)" />
    <rect id="mn-374" x="-114.053" y="-195.058" width="0.05" height="0.05" fill="black" transform="rotate(120,-114.028,-195.033)" />
    <rect id="mn-375" x="-114.053" y="-195.058" width="0.05" height="0.05" fill="black" transform="rotate(270,-114.028,-195.033)" />
    <rect id="mn-376" x="-113.291" y="-195.058" width="0.05" height="0.05" fill="black" transform="rotate(90,-113.266,-195.033)" />
    <rect id="mn-377" x="-113.291" y="-195.058" width="0.05" height="0.05" fill="black" transform="rotate(120,-113.266,-195.033)" />
    <rect id="mn-378" x="-113.291" y="-195.058" width="0.05" height="0.05" fill="black" transform="rotate(270,-113.266,-195.033)" />
    <rect id="mn-379" x="-111.989" y="-199.33" width="0.05" height="0.05" fill="black" transform="rotate(180,-111.964,-199.305)" />
    <rect id="mn-380" x="-111.989" y="-199.225" width="0.05" height="0.05" fill="black" transform="rotate(90,-111.964,-199.2)" />
    <rect id="mn-381" x="-111.989" y="-199" width="0.05" height="0.05" fill="black" transform="rotate(90,-111.964,-198.975)" />
    <rect id="mn-382" x="-115.215" y="-199" width="0.05" height="0.05" fill="black" transform="rotate(270,-115.19,-198.975)" />
    <rect id="mn-383" x="-115.215" y="-194.986" width="0.05" height="0.05" fill="black" transform="rotate(180,-115.19,-194.961)" />
    <rect id="mn-384" x="-113.088" y="-194.986" width="0.05" height="0.05" fill="black" transform="rotate(90,-113.063,-194.961)" />
    <rect id="mn-385" x="-113.153" y="-194.986" width="0.05" height="0.05" fill="black" />
    <rect id="mn-386" x="-113.088" y="-194.986" width="0.05" height="0.05" fill="black" transform="rotate(270,-113.063,-194.961)" />
    <rect id="mn-387" x="-113.85" y="-194.986" width="0.05" height="0.05" fill="black" transform="rotate(90,-113.825,-194.961)" />
    <rect id="mn-388" x="-113.85" y="-194.986" width="0.05" height="0.05" fill="black" transform="rotate(120,-113.825,-194.961)" />
    <rect id="mn-389" x="-113.85" y="-194.986" width="0.05" height="0.05" fill="black" transform="rotate(270,-113.825,-194.961)" />
    <rect id="mn-390" x="-114.688" y="-194.986" width="0.05" height="0.05" fill="black" transform="rotate(240,-114.663,-194.961)" />
    <rect id="mn-391" x="-114.688" y="-194.986" width="0.05" height="0.05" fill="black" transform="rotate(90,-114.663,-194.961)" />
    <rect id="mn-392" x="-114.688" y="-194.986" width="0.05" height="0.05" fill="black" transform="rotate(120,-114.663,-194.961)" />
    <rect id="mn-393" x="-115.215" y="-195.353" width="0.05" height="0.05" fill="black" transform="rotate(90,-115.19,-195.328)" />
    <rect id="mn-394" x="-113.291" y="-195.353" width="0.05" height="0.05" fill="black" transform="rotate(90,-113.266,-195.328)" />
    <rect id="mn-395" x="-113.357" y="-195.353" width="0.05" height="0.05" fill="black" />
    <rect id="mn-396" x="-113.291" y="-195.353" width="0.05" height="0.05" fill="black" transform="rotate(180,-113.266,-195.328)" />
    <rect id="mn-397" x="-114.053" y="-195.353" width="0.05" height="0.05" fill="black" transform="rotate(120,-114.028,-195.328)" />
    <rect id="mn-398" x="-114.053" y="-195.353" width="0.05" height="0.05" fill="black" transform="rotate(90,-114.028,-195.328)" />
    <rect id="mn-399" x="-114.053" y="-195.353" width="0.05" height="0.05" fill="black" transform="rotate(120,-114.028,-195.328)" />
    <rect id="mn-400" x="-114.891" y="-195.353" width="0.05" height="0.05" fill="black" transform="rotate(120,-114.866,-195.328)" />
    <rect id="mn-401" x="-114.891" y="-195.353" width="0.05" height="0.05" fill="black" transform="rotate(90,-114.866,-195.328)" />
    <rect id="mn-402" x="-114.891" y="-195.353" width="0.05" height="0.05" fill="black" transform="rotate(120,-114.866,-195.328)" />
    <rect id="mn-403" x="-113.128" y="-199.02" width="0.05" height="0.05" fill="black" transform="rotate(270,-113.103,-198.995)" />
    <rect id="mn-404" x="-113.128" y="-198.723" width="0.05" height="0.05" fill="black" />
    <rect id="mn-405" x="-113.128" y="-198.828" width="0.05" height="0.05" fill="black" transform="rotate(270,-113.103,-198.803)" />
    <rect id="mn-406" x="-115.138" y="-198.723" width="0.05" height="0.05" fill="black" transform="rotate(270,-115.113,-198.698)" />
    <rect id="mn-407" x="-114.725" y="-198.163" width="0.05" height="0.05" fill="black" transform="rotate(120,-114.7,-198.138)" />
    <rect id="mn-408" x="-115.138" y="-198.163" width="0.05" height="0.05" fill="black" transform="rotate(180,-115.113,-198.138)" />
    <rect id="mn-409" x="-114.725" y="-197.02" width="0.05" height="0.05" fill="black" transform="rotate(120,-114.7,-196.995)" />
    <rect id="mn-410" x="-115.138" y="-197.02" width="0.05" height="0.05" fill="black" transform="rotate(180,-115.113,-196.995)" />
    <rect id="mn-411" x="-114.725" y="-193.373" width="0.05" height="0.05" fill="black" transform="rotate(120,-114.7,-193.348)" />
    <rect id="mn-412" x="-115.138" y="-193.373" width="0.05" height="0.05" fill="black" transform="rotate(180,-115.113,-193.348)" />
    <rect id="mn-413" x="-114.725" y="-192.23" width="0.05" height="0.05" fill="black" transform="rotate(120,-114.7,-192.205)" />
    <rect id="mn-414" x="-115.138" y="-192.23" width="0.05" height="0.05" fill="black" transform="rotate(180,-115.113,-192.205)" />
    <rect id="mn-415" x="-114.725" y="-191.087" width="0.05" height="0.05" fill="black" transform="rotate(120,-114.7,-191.062)" />
    <rect id="mn-416" x="-115.138" y="-191.087" width="0.05" height="0.05" fill="black" transform="rotate(180,-115.113,-191.062)" />
    <rect id="mn-417" x="-114.725" y="-189.944" width="0.05" height="0.05" fill="black" transform="rotate(120,-114.7,-189.919)" />
    <rect id="mn-418" x="-115.138" y="-189.944" width="0.05" height="0.05" fill="black" transform="rotate(180,-115.113,-189.919)" />
    <rect id="mn-419" x="-115.138" y="-189.626" width="0.05" height="0.05" fill="black" transform="rotate(90,-115.113,-189.601)" />
    <rect id="mn-420" x="-115.138" y="-194.548" width="0.05" height="0.05" fill="black" transform="rotate(90,-115.113,-194.523)" />
    <rect id="mn-421" x="-112.878" y="-194.548" width="0.05" height="0.05" fill="black" />
    <rect id="mn-422" x="-114.79" y="-194.796" width="0.05" height="0.05" fill="black" transform="rotate(270,-114.765,-194.771)" />
    <rect id="mn-423" x="-114.79" y="-194.548" width="0.05" height="0.05" fill="black" />
    <rect id="mn-424" x="-114.79" y="-194.653" width="0.05" height="0.05" fill="black" transform="rotate(270,-114.765,-194.628)" />
    <rect id="mn-425" x="-113.951" y="-194.796" width="0.05" height="0.05" fill="black" transform="rotate(270,-113.926,-194.771)" />
    <rect id="mn-426" x="-113.951" y="-194.548" width="0.05" height="0.05" fill="black" />
    <rect id="mn-427" x="-113.951" y="-194.653" width="0.05" height="0.05" fill="black" transform="rotate(270,-113.926,-194.628)" />
    <rect id="mn-428" x="-113.189" y="-194.796" width="0.05" height="0.05" fill="black" transform="rotate(270,-113.164,-194.771)" />
    <rect id="mn-429" x="-113.189" y="-194.548" width="0.05" height="0.05" fill="black" />
    <rect id="mn-430" x="-113.189" y="-194.653" width="0.05" height="0.05" fill="black" transform="rotate(270,-113.164,-194.628)" />
    <rect id="mn-431" x="-115.138" y="-195.842" width="0.05" height="0.05" fill="black" transform="rotate(90,-115.113,-195.817)" />
    <rect id="mn-432" x="-112.878" y="-195.842" width="0.05" height="0.05" fill="black" />
    <rect id="mn-433" x="-114.79" y="-195.57" width="0.05" height="0.05" fill="black" transform="rotate(180,-114.765,-195.545)" />
    <rect id="mn-434" x="-114.79" y="-195.842" width="0.05" height="0.05" fill="black" transform="rotate(180,-114.765,-195.817)" />
    <rect id="mn-435" x="-114.79" y="-195.737" width="0.05" height="0.05" fill="black" transform="rotate(90,-114.765,-195.712)" />
    <rect id="mn-436" x="-113.189" y="-195.57" width="0.05" height="0.05" fill="black" transform="rotate(180,-113.164,-195.545)" />
    <rect id="mn-437" x="-113.189" y="-195.842" width="0.05" height="0.05" fill="black" transform="rotate(180,-113.164,-195.817)" />
    <rect id="mn-438" x="-113.189" y="-195.737" width="0.05" height="0.05" fill="black" transform="rotate(90,-113.164,-195.712)" />
    <rect id="mn-439" x="-113.951" y="-195.57" width="0.05" height="0.05" fill="black" transform="rotate(180,-113.926,-195.545)" />
    <rect id="mn-440" x="-113.951" y="-195.842" width="0.05" height="0.05" fill="black" transform="rotate(180,-113.926,-195.817)" />
    <rect id="mn-441" x="-113.951" y="-195.737" width="0.05" height="0.05" fill="black" transform="rotate(90,-113.926,-195.712)" />
    <rect id="mn-442" x="-112.136" y="-199.329" width="0.05" height="0.05" fill="black" transform="rotate(180,-112.111,-199.304)" />
    <rect id="mn-443" x="-111.791" y="-198.536" width="0.05" height="0.05" fill="black" transform="rotate(120,-111.766,-198.511)" />
    <rect id="mn-444" x="-112.136" y="-198.536" width="0.05" height="0.05" fill="black" transform="rotate(180,-112.111,-198.511)" />
    <rect id="mn-445" x="-112.031" y="-198.536" width="0.05" height="0.05" fill="black" transform="rotate(90,-112.006,-198.511)" />
    <rect id="mn-446" x="-111.791" y="-197.723" width="0.05" height="0.05" fill="black" transform="rotate(120,-111.766,-197.698)" />
    <rect id="mn-447" x="-112.136" y="-197.723" width="0.05" height="0.05" fill="black" transform="rotate(180,-112.111,-197.698)" />
    <rect id="mn-448" x="-112.031" y="-197.723" width="0.05" height="0.05" fill="black" transform="rotate(90,-112.006,-197.698)" />
    <rect id="mn-449" x="-111.791" y="-196.758" width="0.05" height="0.05" fill="black" transform="rotate(120,-111.766,-196.733)" />
    <rect id="mn-450" x="-112.136" y="-196.758" width="0.05" height="0.05" fill="black" transform="rotate(180,-112.111,-196.733)" />
    <rect id="mn-451" x="-112.031" y="-196.758" width="0.05" height="0.05" fill="black" transform="rotate(90,-112.006,-196.733)" />
    <rect id="mn-452" x="-112.49" y="-198.723" width="0.05" height="0.05" fill="black" transform="rotate(90,-112.465,-198.698)" />
    <rect id="mn-453" x="-112.136" y="-198.977" width="0.05" height="0.05" fill="black" transform="rotate(270,-112.111,-198.952)" />
    <rect id="mn-454" x="-112.49" y="-198.977" width="0.05" height="0.05" fill="black" transform="rotate(270,-112.465,-198.952)" />
    <rect id="mn-455" x="-112.136" y="-194.087" width="0.05" height="0.05" fill="black" transform="rotate(180,-112.111,-194.062)" />
    <rect id="mn-456" x="-111.831" y="-194.087" width="0.05" height="0.05" fill="black" />
    <rect id="mn-457" x="-111.831" y="-189.668" width="0.05" height="0.05" fill="black" transform="rotate(90,-111.806,-189.643)" />
    <rect id="mn-458" x="-112.284" y="-193.373" width="0.05" height="0.05" fill="black" transform="rotate(240,-112.259,-193.348)" />
    <rect id="mn-459" x="-111.831" y="-193.373" width="0.05" height="0.05" fill="black" transform="rotate(180,-111.806,-193.348)" />
    <rect id="mn-460" x="-112.284" y="-192.23" width="0.05" height="0.05" fill="black" transform="rotate(240,-112.259,-192.205)" />
    <rect id="mn-461" x="-111.831" y="-192.23" width="0.05" height="0.05" fill="black" transform="rotate(180,-111.806,-192.205)" />
    <rect id="mn-462" x="-112.284" y="-191.087" width="0.05" height="0.05" fill="black" transform="rotate(240,-112.259,-191.062)" />
    <rect id="mn-463" x="-111.831" y="-191.087" width="0.05" height="0.05" fill="black" transform="rotate(180,-111.806,-191.062)" />
    <rect id="mn-464" x="-112.284" y="-189.944" width="0.05" height="0.05" fill="black" transform="rotate(240,-112.259,-189.919)" />
    <rect id="mn-465" x="-111.831" y="-189.944" width="0.05" height="0.05" fill="black" transform="rotate(180,-111.806,-189.919)" />
    <rect id="mn-776" x="-115.193" y="-198.865" width="0.05" height="0.05" fill="black" transform="rotate(180,-115.168,-198.84)" />
    <rect id="mn-777" x="-115.215" y="-198.743" width="0.05" height="0.05" fill="black" transform="rotate(180,-115.19,-198.718)" />
    <rect id="mn-778" x="-115.453" y="-201.357" width="0.05" height="0.05" fill="black" transform="rotate(90,-115.428,-201.332)" />
    <rect id="mn-779" x="-115.453" y="-198.865" width="0.05" height="0.05" fill="black" transform="rotate(180,-115.428,-198.84)" />
    <rect id="mn-780" x="-115.453" y="-201.357" width="0.05" height="0.05" fill="black" transform="rotate(270,-115.428,-201.332)" />
    <rect id="mn-781" x="-115.453" y="-201.361" width="0.05" height="0.05" fill="black" />
    <rect id="mn-782" x="-115.453" y="-201.094" width="0.05" height="0.05" fill="black" transform="rotate(119.985,-115.428,-201.069)" />
    <rect id="mn-783" x="-115.453" y="-198.743" width="0.05" height="0.05" fill="black" transform="rotate(180,-115.428,-198.718)" />
    <rect id="mn-784" x="-115.453" y="-201.094" width="0.05" height="0.05" fill="black" transform="rotate(269.974,-115.428,-201.069)" />
    <rect id="mn-785" x="-132.876" y="-201.357" width="0.05" height="0.05" fill="black" transform="rotate(90,-132.851,-201.332)" />
    <rect id="mn-786" x="-132.876" y="-201.357" width="0.05" height="0.05" fill="black" transform="rotate(240,-132.851,-201.332)" />
    <rect id="mn-787" x="-132.876" y="-201.641" width="0.05" height="0.05" fill="black" transform="rotate(270,-132.851,-201.616)" />
    <rect id="mn-788" x="-132.876" y="-201.357" width="0.05" height="0.05" fill="black" transform="rotate(180,-132.851,-201.332)" />
    <rect id="mn-789" x="-131.801" y="-201.357" width="0.05" height="0.05" fill="black" transform="rotate(90,-131.776,-201.332)" />
    <rect id="mn-790" x="-131.801" y="-201.357" width="0.05" height="0.05" fill="black" transform="rotate(240,-131.776,-201.332)" />
    <rect id="mn-791" x="-131.801" y="-201.641" width="0.05" height="0.05" fill="black" transform="rotate(270,-131.776,-201.616)" />
    <rect id="mn-792" x="-131.801" y="-201.357" width="0.05" height="0.05" fill="black" transform="rotate(180,-131.776,-201.332)" />
    <rect id="mn-793" x="-133.079" y="-201.361" width="0.05" height="0.05" fill="black" transform="rotate(90,-133.054,-201.336)" />
    <rect id="mn-794" x="-133.079" y="-201.361" width="0.05" height="0.05" fill="black" transform="rotate(240,-133.054,-201.336)" />
    <rect id="mn-795" x="-133.079" y="-201.641" width="0.05" height="0.05" fill="black" transform="rotate(270,-133.054,-201.616)" />
    <rect id="mn-796" x="-133.079" y="-201.361" width="0.05" height="0.05" fill="black" transform="rotate(180,-133.054,-201.336)" />
    <rect id="mn-797" x="-132.004" y="-201.361" width="0.05" height="0.05" fill="black" transform="rotate(90,-131.979,-201.336)" />
    <rect id="mn-798" x="-132.004" y="-201.361" width="0.05" height="0.05" fill="black" transform="rotate(240,-131.979,-201.336)" />
    <rect id="mn-799" x="-132.004" y="-201.641" width="0.05" height="0.05" fill="black" transform="rotate(270,-131.979,-201.616)" />
    <rect id="mn-800" x="-132.004" y="-201.361" width="0.05" height="0.05" fill="black" transform="rotate(180,-131.979,-201.336)" />
    <rect id="mn-801" x="-115.138" y="-198.444" width="0.05" height="0.05" fill="black" transform="rotate(180,-115.113,-198.419)" />
    <rect id="mn-802" x="-115.519" y="-198.444" width="0.05" height="0.05" fill="black" transform="rotate(180,-115.494,-198.419)" />
    <rect id="mn-803" x="-115.519" y="-201.315" width="0.05" height="0.05" fill="black" />
    <rect id="mn-804" x="-133.35" y="-201.315" width="0.05" height="0.05" fill="black" transform="rotate(180,-133.325,-201.29)" />
  </g>
</svg>