<?xml version="1.0" encoding="utf-8"?>
<svg xmlns="http://www.w3.org/2000/svg" viewBox="-133.85 188.888 22.611 13.501">
  <g transform="scale(1,-1)">
    <line id="pi-325" x1="-115.168" y1="-198.904" x2="-115.168" y2="-198.91" stroke="black" stroke-width="0.051" stroke-linecap="square" />
    <line id="pi-326" x1="-111.8" y1="-196.733" x2="-111.8" y2="-196.733" stroke="black" stroke-width="0.025" stroke-linecap="square" />
    <line id="pi-327" x1="-111.8" y1="-197.698" x2="-111.8" y2="-197.698" stroke="black" stroke-width="0.025" stroke-linecap="square" />
    <line id="pi-328" x1="-111.817" y1="-196.834" x2="-111.817" y2="-197.634" stroke="black" stroke-width="0.051" stroke-linecap="square" />
    <line id="pi-329" x1="-111.8" y1="-198.511" x2="-111.8" y2="-198.511" stroke="black" stroke-width="0.025" stroke-linecap="square" />
    <line id="pi-330" x1="-111.817" y1="-199.025" x2="-111.817" y2="-199.097" stroke="black" stroke-width="0.051" stroke-linecap="square" />
    <line id="pi-331" x1="-111.817" y1="-197.762" x2="-111.817" y2="-198.447" stroke="black" stroke-width="0.051" stroke-linecap="square" />
    <line id="pi-332" x1="-111.817" y1="-198.575" x2="-111.817" y2="-198.897" stroke="black" stroke-width="0.051" stroke-linecap="square" />
    <line id="pi-333" x1="-113.103" y1="-198.961" x2="-113.103" y2="-198.961" stroke="black" stroke-width="0.025" stroke-linecap="square" />
    <line id="pi-334" x1="-113.167" y1="-198.961" x2="-115.117" y2="-198.961" stroke="black" stroke-width="0.051" stroke-linecap="square" />
    <line id="pi-335" x1="-111.881" y1="-198.961" x2="-113.039" y2="-198.961" stroke="black" stroke-width="0.051" stroke-linecap="square" />
    <line id="pi-336" x1="-115.168" y1="-198.961" x2="-115.168" y2="-198.961" stroke="black" stroke-width="0.051" stroke-linecap="square" />
    <line id="pi-337" x1="-115.073" y1="-198.138" x2="-115.153" y2="-198.138" stroke="black" stroke-width="0.013" stroke-linecap="square" />
    <line id="pi-338" x1="-115.168" y1="-198.138" x2="-115.168" y2="-198.138" stroke="black" stroke-width="0.013" stroke-linecap="square" />
    <line id="pi-339" x1="-115.168" y1="-189.855" x2="-115.168" y2="-189.464" stroke="black" stroke-width="0.051" stroke-linecap="square" />
    <line id="pi-340" x1="-115.117" y1="-189.413" x2="-111.815" y2="-189.413" stroke="black" stroke-width="0.051" stroke-linecap="square" />
    <line id="pi-341" x1="-111.764" y1="-193.412" x2="-111.764" y2="-193.705" stroke="black" stroke-width="0.051" stroke-linecap="square" />
    <line id="pi-342" x1="-111.886" y1="-193.348" x2="-111.779" y2="-193.348" stroke="black" stroke-width="0.013" stroke-linecap="square" />
    <line id="pi-343" x1="-111.764" y1="-193.348" x2="-111.764" y2="-193.348" stroke="black" stroke-width="0.013" stroke-linecap="square" />
    <line id="pi-344" x1="-111.764" y1="-192.269" x2="-111.764" y2="-193.284" stroke="black" stroke-width="0.051" stroke-linecap="square" />
    <line id="pi-345" x1="-111.886" y1="-192.205" x2="-111.779" y2="-192.205" stroke="black" stroke-width="0.013" stroke-linecap="square" />
    <line id="pi-346" x1="-111.764" y1="-192.205" x2="-111.764" y2="-192.205" stroke="black" stroke-width="0.013" stroke-linecap="square" />
    <line id="pi-347" x1="-111.764" y1="-191.126" x2="-111.764" y2="-192.141" stroke="black" stroke-width="0.051" stroke-linecap="square" />
    <line id="pi-348" x1="-111.886" y1="-191.062" x2="-111.779" y2="-191.062" stroke="black" stroke-width="0.013" stroke-linecap="square" />
    <line id="pi-349" x1="-111.764" y1="-191.062" x2="-111.764" y2="-191.062" stroke="black" stroke-width="0.013" stroke-linecap="square" />
    <line id="pi-350" x1="-111.764" y1="-189.983" x2="-111.764" y2="-190.998" stroke="black" stroke-width="0.051" stroke-linecap="square" />
    <line id="pi-351" x1="-111.886" y1="-189.919" x2="-111.779" y2="-189.919" stroke="black" stroke-width="0.013" stroke-linecap="square" />
    <line id="pi-352" x1="-111.764" y1="-189.919" x2="-111.764" y2="-189.919" stroke="black" stroke-width="0.013" stroke-linecap="square" />
    <line id="pi-353" x1="-111.764" y1="-189.464" x2="-111.764" y2="-189.855" stroke="black" stroke-width="0.051" stroke-linecap="square" />
    <line id="pi-354" x1="-115.073" y1="-189.919" x2="-115.153" y2="-189.919" stroke="black" stroke-width="0.013" stroke-linecap="square" />
    <line id="pi-355" x1="-115.168" y1="-189.919" x2="-115.168" y2="-189.919" stroke="black" stroke-width="0.013" stroke-linecap="square" />
    <line id="pi-356" x1="-115.168" y1="-190.998" x2="-115.168" y2="-189.983" stroke="black" stroke-width="0.051" stroke-linecap="square" />
    <line id="pi-357" x1="-115.073" y1="-191.062" x2="-115.153" y2="-191.062" stroke="black" stroke-width="0.013" stroke-linecap="square" />
    <line id="pi-358" x1="-115.168" y1="-191.062" x2="-115.168" y2="-191.062" stroke="black" stroke-width="0.013" stroke-linecap="square" />
    <line id="pi-359" x1="-115.168" y1="-192.141" x2="-115.168" y2="-191.126" stroke="black" stroke-width="0.051" stroke-linecap="square" />
    <line id="pi-360" x1="-115.073" y1="-192.205" x2="-115.153" y2="-192.205" stroke="black" stroke-width="0.013" stroke-linecap="square" />
    <line id="pi-361" x1="-115.168" y1="-192.205" x2="-115.168" y2="-192.205" stroke="black" stroke-width="0.013" stroke-linecap="square" />
    <line id="pi-362" x1="-115.168" y1="-193.284" x2="-115.168" y2="-192.269" stroke="black" stroke-width="0.051" stroke-linecap="square" />
    <line id="pi-363" x1="-115.073" y1="-193.348" x2="-115.153" y2="-193.348" stroke="black" stroke-width="0.013" stroke-linecap="square" />
    <line id="pi-364" x1="-115.168" y1="-193.348" x2="-115.168" y2="-193.348" stroke="black" stroke-width="0.013" stroke-linecap="square" />
    <line id="pi-365" x1="-115.168" y1="-194.969" x2="-115.168" y2="-193.412" stroke="black" stroke-width="0.051" stroke-linecap="square" />
    <line id="pi-366" x1="-115.073" y1="-196.995" x2="-115.153" y2="-196.995" stroke="black" stroke-width="0.013" stroke-linecap="square" />
    <line id="pi-367" x1="-115.168" y1="-196.995" x2="-115.168" y2="-196.995" stroke="black" stroke-width="0.013" stroke-linecap="square" />
    <line id="pi-368" x1="-115.168" y1="-198.074" x2="-115.168" y2="-197.059" stroke="black" stroke-width="0.051" stroke-linecap="square" />
    <line id="pi-369" x1="-112.999" y1="-195.274" x2="-112.984" y2="-195.274" stroke="black" stroke-width="0.051" stroke-linecap="square" />
    <line id="pi-370" x1="-115.168" y1="-196.931" x2="-115.168" y2="-195.338" stroke="black" stroke-width="0.051" stroke-linecap="square" />
    <line id="pi-371" x1="-114.663" y1="-195.418" x2="-114.663" y2="-195.289" stroke="black" stroke-width="0.013" stroke-linecap="square" />
    <line id="pi-372" x1="-114.663" y1="-195.274" x2="-114.663" y2="-195.274" stroke="black" stroke-width="0.013" stroke-linecap="square" />
    <line id="pi-373" x1="-115.104" y1="-195.274" x2="-114.727" y2="-195.274" stroke="black" stroke-width="0.051" stroke-linecap="square" />
    <line id="pi-374" x1="-113.825" y1="-195.418" x2="-113.825" y2="-195.289" stroke="black" stroke-width="0.013" stroke-linecap="square" />
    <line id="pi-375" x1="-113.825" y1="-195.274" x2="-113.825" y2="-195.274" stroke="black" stroke-width="0.013" stroke-linecap="square" />
    <line id="pi-376" x1="-114.599" y1="-195.274" x2="-113.889" y2="-195.274" stroke="black" stroke-width="0.051" stroke-linecap="square" />
    <line id="pi-377" x1="-113.063" y1="-195.418" x2="-113.063" y2="-195.289" stroke="black" stroke-width="0.013" stroke-linecap="square" />
    <line id="pi-378" x1="-113.063" y1="-195.274" x2="-113.063" y2="-195.274" stroke="black" stroke-width="0.013" stroke-linecap="square" />
    <line id="pi-379" x1="-113.761" y1="-195.274" x2="-113.127" y2="-195.274" stroke="black" stroke-width="0.051" stroke-linecap="square" />
    <line id="pi-380" x1="-113.202" y1="-195.033" x2="-112.958" y2="-195.033" stroke="black" stroke-width="0.051" stroke-linecap="square" />
    <line id="pi-381" x1="-115.168" y1="-195.21" x2="-115.168" y2="-195.097" stroke="black" stroke-width="0.051" stroke-linecap="square" />
    <line id="pi-382" x1="-114.866" y1="-194.898" x2="-114.866" y2="-195.019" stroke="black" stroke-width="0.013" stroke-linecap="square" />
    <line id="pi-383" x1="-114.866" y1="-195.033" x2="-114.866" y2="-195.033" stroke="black" stroke-width="0.013" stroke-linecap="square" />
    <line id="pi-384" x1="-115.104" y1="-195.033" x2="-114.93" y2="-195.033" stroke="black" stroke-width="0.051" stroke-linecap="square" />
    <line id="pi-385" x1="-114.028" y1="-194.898" x2="-114.028" y2="-195.019" stroke="black" stroke-width="0.013" stroke-linecap="square" />
    <line id="pi-386" x1="-114.028" y1="-195.033" x2="-114.028" y2="-195.033" stroke="black" stroke-width="0.013" stroke-linecap="square" />
    <line id="pi-387" x1="-114.802" y1="-195.033" x2="-114.092" y2="-195.033" stroke="black" stroke-width="0.051" stroke-linecap="square" />
    <line id="pi-388" x1="-113.266" y1="-194.898" x2="-113.266" y2="-195.019" stroke="black" stroke-width="0.013" stroke-linecap="square" />
    <line id="pi-389" x1="-113.266" y1="-195.033" x2="-113.266" y2="-195.033" stroke="black" stroke-width="0.013" stroke-linecap="square" />
    <line id="pi-390" x1="-113.964" y1="-195.033" x2="-113.33" y2="-195.033" stroke="black" stroke-width="0.051" stroke-linecap="square" />
    <line id="pi-391" x1="-111.964" y1="-199.098" x2="-111.964" y2="-199" stroke="black" stroke-width="0.025" stroke-linecap="square" />
    <line id="pi-392" x1="-111.989" y1="-198.975" x2="-115.165" y2="-198.975" stroke="black" stroke-width="0.025" stroke-linecap="square" />
    <line id="pi-393" x1="-115.19" y1="-195.29" x2="-115.19" y2="-194.986" stroke="black" stroke-width="0.025" stroke-linecap="square" />
    <line id="pi-394" x1="-113.787" y1="-194.961" x2="-113.128" y2="-194.961" stroke="black" stroke-width="0.025" stroke-linecap="square" />
    <line id="pi-395" x1="-113.063" y1="-194.898" x2="-113.063" y2="-194.947" stroke="black" stroke-width="0.013" stroke-linecap="square" />
    <line id="pi-396" x1="-113.063" y1="-194.961" x2="-113.063" y2="-194.961" stroke="black" stroke-width="0.013" stroke-linecap="square" />
    <line id="pi-397" x1="-113.825" y1="-194.898" x2="-113.825" y2="-194.947" stroke="black" stroke-width="0.013" stroke-linecap="square" />
    <line id="pi-398" x1="-113.825" y1="-194.961" x2="-113.825" y2="-194.961" stroke="black" stroke-width="0.013" stroke-linecap="square" />
    <line id="pi-399" x1="-114.625" y1="-194.961" x2="-113.863" y2="-194.961" stroke="black" stroke-width="0.025" stroke-linecap="square" />
    <line id="pi-400" x1="-114.663" y1="-194.898" x2="-114.663" y2="-194.947" stroke="black" stroke-width="0.013" stroke-linecap="square" />
    <line id="pi-401" x1="-114.663" y1="-194.961" x2="-114.663" y2="-194.961" stroke="black" stroke-width="0.013" stroke-linecap="square" />
    <line id="pi-402" x1="-115.165" y1="-194.961" x2="-114.701" y2="-194.961" stroke="black" stroke-width="0.025" stroke-linecap="square" />
    <line id="pi-403" x1="-113.99" y1="-195.328" x2="-113.332" y2="-195.328" stroke="black" stroke-width="0.025" stroke-linecap="square" />
    <line id="pi-404" x1="-115.19" y1="-198.68" x2="-115.19" y2="-195.366" stroke="black" stroke-width="0.025" stroke-linecap="square" />
    <line id="pi-405" x1="-113.266" y1="-195.418" x2="-113.266" y2="-195.343" stroke="black" stroke-width="0.013" stroke-linecap="square" />
    <line id="pi-406" x1="-113.266" y1="-195.328" x2="-113.266" y2="-195.328" stroke="black" stroke-width="0.013" stroke-linecap="square" />
    <line id="pi-407" x1="-114.028" y1="-195.418" x2="-114.028" y2="-195.343" stroke="black" stroke-width="0.013" stroke-linecap="square" />
    <line id="pi-408" x1="-114.028" y1="-195.328" x2="-114.028" y2="-195.328" stroke="black" stroke-width="0.013" stroke-linecap="square" />
    <line id="pi-409" x1="-114.828" y1="-195.328" x2="-114.066" y2="-195.328" stroke="black" stroke-width="0.025" stroke-linecap="square" />
    <line id="pi-410" x1="-114.866" y1="-195.418" x2="-114.866" y2="-195.343" stroke="black" stroke-width="0.013" stroke-linecap="square" />
    <line id="pi-411" x1="-114.866" y1="-195.328" x2="-114.866" y2="-195.328" stroke="black" stroke-width="0.013" stroke-linecap="square" />
    <line id="pi-412" x1="-115.152" y1="-195.328" x2="-114.904" y2="-195.328" stroke="black" stroke-width="0.025" stroke-linecap="square" />
    <line id="pi-413" x1="-113.103" y1="-198.995" x2="-113.103" y2="-198.995" stroke="black" stroke-width="0.051" stroke-linecap="square" />
    <line id="pi-414" x1="-113.103" y1="-198.944" x2="-113.103" y2="-198.905" stroke="black" stroke-width="0.051" stroke-linecap="square" />
    <line id="pi-415" x1="-113.208" y1="-198.698" x2="-115.011" y2="-198.698" stroke="black" stroke-width="0.102" stroke-linecap="square" />
    <line id="pi-416" x1="-112.998" y1="-198.698" x2="-112.567" y2="-198.698" stroke="black" stroke-width="0.102" stroke-linecap="square" />
    <line id="pi-417" x1="-114.7" y1="-198.138" x2="-114.7" y2="-198.138" stroke="black" stroke-width="0.102" stroke-linecap="square" />
    <line id="pi-418" x1="-114.802" y1="-198.138" x2="-115.008" y2="-198.138" stroke="black" stroke-width="0.102" stroke-linecap="square" />
    <line id="pi-419" x1="-115.113" y1="-198.314" x2="-115.113" y2="-198.243" stroke="black" stroke-width="0.102" stroke-linecap="square" />
    <line id="pi-420" x1="-114.7" y1="-196.995" x2="-114.7" y2="-196.995" stroke="black" stroke-width="0.102" stroke-linecap="square" />
    <line id="pi-421" x1="-114.802" y1="-196.995" x2="-115.008" y2="-196.995" stroke="black" stroke-width="0.102" stroke-linecap="square" />
    <line id="pi-422" x1="-115.113" y1="-198.033" x2="-115.113" y2="-197.1" stroke="black" stroke-width="0.102" stroke-linecap="square" />
    <line id="pi-423" x1="-114.7" y1="-193.348" x2="-114.7" y2="-193.348" stroke="black" stroke-width="0.102" stroke-linecap="square" />
    <line id="pi-424" x1="-114.802" y1="-193.348" x2="-115.008" y2="-193.348" stroke="black" stroke-width="0.102" stroke-linecap="square" />
    <line id="pi-425" x1="-115.113" y1="-194.418" x2="-115.113" y2="-193.453" stroke="black" stroke-width="0.102" stroke-linecap="square" />
    <line id="pi-426" x1="-114.7" y1="-192.205" x2="-114.7" y2="-192.205" stroke="black" stroke-width="0.102" stroke-linecap="square" />
    <line id="pi-427" x1="-114.802" y1="-192.205" x2="-115.008" y2="-192.205" stroke="black" stroke-width="0.102" stroke-linecap="square" />
    <line id="pi-428" x1="-115.113" y1="-193.243" x2="-115.113" y2="-192.31" stroke="black" stroke-width="0.102" stroke-linecap="square" />
    <line id="pi-429" x1="-114.7" y1="-191.062" x2="-114.7" y2="-191.062" stroke="black" stroke-width="0.102" stroke-linecap="square" />
    <line id="pi-430" x1="-114.802" y1="-191.062" x2="-115.008" y2="-191.062" stroke="black" stroke-width="0.102" stroke-linecap="square" />
    <line id="pi-431" x1="-115.113" y1="-192.1" x2="-115.113" y2="-191.167" stroke="black" stroke-width="0.102" stroke-linecap="square" />
    <line id="pi-432" x1="-114.7" y1="-189.919" x2="-114.7" y2="-189.919" stroke="black" stroke-width="0.102" stroke-linecap="square" />
    <line id="pi-433" x1="-114.802" y1="-189.919" x2="-115.008" y2="-189.919" stroke="black" stroke-width="0.102" stroke-linecap="square" />
    <line id="pi-434" x1="-115.113" y1="-189.814" x2="-115.113" y2="-189.601" stroke="black" stroke-width="0.102" stroke-linecap="square" />
    <line id="pi-435" x1="-115.113" y1="-190.957" x2="-115.113" y2="-190.024" stroke="black" stroke-width="0.102" stroke-linecap="square" />
    <line id="pi-436" x1="-113.059" y1="-194.523" x2="-112.853" y2="-194.523" stroke="black" stroke-width="0.102" stroke-linecap="square" />
    <line id="pi-437" x1="-115.113" y1="-195.712" x2="-115.113" y2="-194.628" stroke="black" stroke-width="0.102" stroke-linecap="square" />
    <line id="pi-438" x1="-114.765" y1="-194.771" x2="-114.765" y2="-194.771" stroke="black" stroke-width="0.038" stroke-linecap="square" />
    <line id="pi-439" x1="-114.765" y1="-194.733" x2="-114.765" y2="-194.73" stroke="black" stroke-width="0.038" stroke-linecap="square" />
    <line id="pi-440" x1="-115.008" y1="-194.523" x2="-114.87" y2="-194.523" stroke="black" stroke-width="0.102" stroke-linecap="square" />
    <line id="pi-441" x1="-113.926" y1="-194.771" x2="-113.926" y2="-194.771" stroke="black" stroke-width="0.038" stroke-linecap="square" />
    <line id="pi-442" x1="-113.926" y1="-194.733" x2="-113.926" y2="-194.73" stroke="black" stroke-width="0.038" stroke-linecap="square" />
    <line id="pi-443" x1="-114.66" y1="-194.523" x2="-114.031" y2="-194.523" stroke="black" stroke-width="0.102" stroke-linecap="square" />
    <line id="pi-444" x1="-113.164" y1="-194.771" x2="-113.164" y2="-194.771" stroke="black" stroke-width="0.038" stroke-linecap="square" />
    <line id="pi-445" x1="-113.164" y1="-194.733" x2="-113.164" y2="-194.73" stroke="black" stroke-width="0.038" stroke-linecap="square" />
    <line id="pi-446" x1="-113.821" y1="-194.523" x2="-113.269" y2="-194.523" stroke="black" stroke-width="0.102" stroke-linecap="square" />
    <line id="pi-447" x1="-113.059" y1="-195.817" x2="-112.853" y2="-195.817" stroke="black" stroke-width="0.102" stroke-linecap="square" />
    <line id="pi-448" x1="-115.113" y1="-196.89" x2="-115.113" y2="-195.922" stroke="black" stroke-width="0.102" stroke-linecap="square" />
    <line id="pi-449" x1="-114.765" y1="-195.545" x2="-114.765" y2="-195.545" stroke="black" stroke-width="0.038" stroke-linecap="square" />
    <line id="pi-450" x1="-114.765" y1="-195.583" x2="-114.765" y2="-195.61" stroke="black" stroke-width="0.038" stroke-linecap="square" />
    <line id="pi-451" x1="-115.008" y1="-195.817" x2="-114.87" y2="-195.817" stroke="black" stroke-width="0.102" stroke-linecap="square" />
    <line id="pi-452" x1="-113.164" y1="-195.545" x2="-113.164" y2="-195.545" stroke="black" stroke-width="0.038" stroke-linecap="square" />
    <line id="pi-453" x1="-113.164" y1="-195.583" x2="-113.164" y2="-195.61" stroke="black" stroke-width="0.038" stroke-linecap="square" />
    <line id="pi-454" x1="-113.821" y1="-195.817" x2="-113.269" y2="-195.817" stroke="black" stroke-width="0.102" stroke-linecap="square" />
    <line id="pi-455" x1="-113.926" y1="-195.545" x2="-113.926" y2="-195.545" stroke="black" stroke-width="0.038" stroke-linecap="square" />
    <line id="pi-456" x1="-113.926" y1="-195.583" x2="-113.926" y2="-195.61" stroke="black" stroke-width="0.038" stroke-linecap="square" />
    <line id="pi-457" x1="-114.66" y1="-195.817" x2="-114.031" y2="-195.817" stroke="black" stroke-width="0.102" stroke-linecap="square" />
    <line id="pi-458" x1="-111.766" y1="-198.511" x2="-111.766" y2="-198.511" stroke="black" stroke-width="0.051" stroke-linecap="square" />
    <line id="pi-459" x1="-111.817" y1="-198.511" x2="-111.904" y2="-198.511" stroke="black" stroke-width="0.051" stroke-linecap="square" />
    <line id="pi-460" x1="-112.111" y1="-198.847" x2="-112.111" y2="-198.616" stroke="black" stroke-width="0.102" stroke-linecap="square" />
    <line id="pi-461" x1="-111.766" y1="-197.698" x2="-111.766" y2="-197.698" stroke="black" stroke-width="0.051" stroke-linecap="square" />
    <line id="pi-462" x1="-111.817" y1="-197.698" x2="-111.904" y2="-197.698" stroke="black" stroke-width="0.051" stroke-linecap="square" />
    <line id="pi-463" x1="-112.111" y1="-198.406" x2="-112.111" y2="-197.803" stroke="black" stroke-width="0.102" stroke-linecap="square" />
    <line id="pi-464" x1="-111.766" y1="-196.733" x2="-111.766" y2="-196.733" stroke="black" stroke-width="0.051" stroke-linecap="square" />
    <line id="pi-465" x1="-111.817" y1="-196.733" x2="-111.904" y2="-196.733" stroke="black" stroke-width="0.051" stroke-linecap="square" />
    <line id="pi-466" x1="-112.111" y1="-196.628" x2="-112.111" y2="-194.164" stroke="black" stroke-width="0.102" stroke-linecap="square" />
    <line id="pi-467" x1="-112.111" y1="-197.593" x2="-112.111" y2="-196.838" stroke="black" stroke-width="0.102" stroke-linecap="square" />
    <line id="pi-468" x1="-112.465" y1="-198.8" x2="-112.465" y2="-198.85" stroke="black" stroke-width="0.102" stroke-linecap="square" />
    <line id="pi-469" x1="-112.216" y1="-198.952" x2="-112.363" y2="-198.952" stroke="black" stroke-width="0.102" stroke-linecap="square" />
    <line id="pi-470" x1="-112.111" y1="-199.199" x2="-112.111" y2="-199.057" stroke="black" stroke-width="0.102" stroke-linecap="square" />
    <line id="pi-471" x1="-112.009" y1="-194.062" x2="-111.908" y2="-194.062" stroke="black" stroke-width="0.102" stroke-linecap="square" />
    <line id="pi-472" x1="-111.806" y1="-189.814" x2="-111.806" y2="-189.643" stroke="black" stroke-width="0.102" stroke-linecap="square" />
    <line id="pi-473" x1="-112.259" y1="-193.348" x2="-112.259" y2="-193.348" stroke="black" stroke-width="0.102" stroke-linecap="square" />
    <line id="pi-474" x1="-112.157" y1="-193.348" x2="-111.911" y2="-193.348" stroke="black" stroke-width="0.102" stroke-linecap="square" />
    <line id="pi-475" x1="-111.806" y1="-193.96" x2="-111.806" y2="-193.453" stroke="black" stroke-width="0.102" stroke-linecap="square" />
    <line id="pi-476" x1="-112.259" y1="-192.205" x2="-112.259" y2="-192.205" stroke="black" stroke-width="0.102" stroke-linecap="square" />
    <line id="pi-477" x1="-112.157" y1="-192.205" x2="-111.911" y2="-192.205" stroke="black" stroke-width="0.102" stroke-linecap="square" />
    <line id="pi-478" x1="-111.806" y1="-193.243" x2="-111.806" y2="-192.31" stroke="black" stroke-width="0.102" stroke-linecap="square" />
    <line id="pi-479" x1="-112.259" y1="-191.062" x2="-112.259" y2="-191.062" stroke="black" stroke-width="0.102" stroke-linecap="square" />
    <line id="pi-480" x1="-112.157" y1="-191.062" x2="-111.911" y2="-191.062" stroke="black" stroke-width="0.102" stroke-linecap="square" />
    <line id="pi-481" x1="-111.806" y1="-192.1" x2="-111.806" y2="-191.167" stroke="black" stroke-width="0.102" stroke-linecap="square" />
    <line id="pi-482" x1="-112.259" y1="-189.919" x2="-112.259" y2="-189.919" stroke="black" stroke-width="0.102" stroke-linecap="square" />
    <line id="pi-483" x1="-112.157" y1="-189.919" x2="-111.911" y2="-189.919" stroke="black" stroke-width="0.102" stroke-linecap="square" />
    <line id="pi-484" x1="-111.806" y1="-190.957" x2="-111.806" y2="-190.024" stroke="black" stroke-width="0.102" stroke-linecap="square" />
    <line id="pi-805" x1="-115.232" y1="-198.84" x2="-115.377" y2="-198.84" stroke="black" stroke-width="0.051" stroke-linecap="square" />
    <line id="pi-806" x1="-115.168" y1="-198.202" x2="-115.168" y2="-198.776" stroke="black" stroke-width="0.051" stroke-linecap="square" />
    <line id="pi-807" x1="-115.428" y1="-198.891" x2="-115.428" y2="-201.281" stroke="black" stroke-width="0.051" stroke-linecap="square" />
    <line id="pi-808" x1="-115.228" y1="-198.718" x2="-115.403" y2="-198.718" stroke="black" stroke-width="0.025" stroke-linecap="square" />
    <line id="pi-809" x1="-115.19" y1="-198.95" x2="-115.19" y2="-198.756" stroke="black" stroke-width="0.025" stroke-linecap="square" />
    <line id="pi-810" x1="-115.428" y1="-198.743" x2="-115.428" y2="-201.044" stroke="black" stroke-width="0.025" stroke-linecap="square" />
    <line id="pi-811" x1="-132.915" y1="-201.332" x2="-133.172" y2="-201.332" stroke="black" stroke-width="0.051" stroke-linecap="square" />
    <line id="pi-812" x1="-115.428" y1="-201.332" x2="-115.428" y2="-201.332" stroke="black" stroke-width="0.051" stroke-linecap="square" />
    <line id="pi-813" x1="-133.092" y1="-201.336" x2="-133.131" y2="-201.336" stroke="black" stroke-width="0.025" stroke-linecap="square" />
    <line id="pi-814" x1="-115.428" y1="-201.311" x2="-115.428" y2="-201.094" stroke="black" stroke-width="0.025" stroke-linecap="square" />
    <line id="pi-815" x1="-115.428" y1="-201.069" x2="-115.428" y2="-201.069" stroke="black" stroke-width="0.025" stroke-linecap="square" />
    <line id="pi-816" x1="-132.851" y1="-201.616" x2="-132.851" y2="-201.616" stroke="black" stroke-width="0.013" stroke-linecap="square" />
    <line id="pi-817" x1="-132.851" y1="-201.601" x2="-132.851" y2="-201.346" stroke="black" stroke-width="0.013" stroke-linecap="square" />
    <line id="pi-818" x1="-132.851" y1="-201.332" x2="-132.851" y2="-201.332" stroke="black" stroke-width="0.013" stroke-linecap="square" />
    <line id="pi-819" x1="-131.84" y1="-201.332" x2="-132.787" y2="-201.332" stroke="black" stroke-width="0.051" stroke-linecap="square" />
    <line id="pi-820" x1="-131.776" y1="-201.616" x2="-131.776" y2="-201.616" stroke="black" stroke-width="0.013" stroke-linecap="square" />
    <line id="pi-821" x1="-131.776" y1="-201.601" x2="-131.776" y2="-201.346" stroke="black" stroke-width="0.013" stroke-linecap="square" />
    <line id="pi-822" x1="-131.776" y1="-201.332" x2="-131.776" y2="-201.332" stroke="black" stroke-width="0.013" stroke-linecap="square" />
    <line id="pi-823" x1="-115.479" y1="-201.332" x2="-131.712" y2="-201.332" stroke="black" stroke-width="0.051" stroke-linecap="square" />
    <line id="pi-824" x1="-133.054" y1="-201.616" x2="-133.054" y2="-201.616" stroke="black" stroke-width="0.013" stroke-linecap="square" />
    <line id="pi-825" x1="-133.054" y1="-201.601" x2="-133.054" y2="-201.351" stroke="black" stroke-width="0.013" stroke-linecap="square" />
    <line id="pi-826" x1="-133.054" y1="-201.336" x2="-133.054" y2="-201.336" stroke="black" stroke-width="0.013" stroke-linecap="square" />
    <line id="pi-827" x1="-132.017" y1="-201.336" x2="-133.016" y2="-201.336" stroke="black" stroke-width="0.025" stroke-linecap="square" />
    <line id="pi-828" x1="-131.979" y1="-201.616" x2="-131.979" y2="-201.616" stroke="black" stroke-width="0.013" stroke-linecap="square" />
    <line id="pi-829" x1="-131.979" y1="-201.601" x2="-131.979" y2="-201.351" stroke="black" stroke-width="0.013" stroke-linecap="square" />
    <line id="pi-830" x1="-131.979" y1="-201.336" x2="-131.979" y2="-201.336" stroke="black" stroke-width="0.013" stroke-linecap="square" />
    <line id="pi-831" x1="-115.453" y1="-201.336" x2="-131.941" y2="-201.336" stroke="black" stroke-width="0.025" stroke-linecap="square" />
    <line id="pi-832" x1="-115.218" y1="-198.419" x2="-115.392" y2="-198.419" stroke="black" stroke-width="0.102" stroke-linecap="square" />
    <line id="pi-833" x1="-115.113" y1="-198.596" x2="-115.113" y2="-198.524" stroke="black" stroke-width="0.102" stroke-linecap="square" />
    <line id="pi-834" x1="-115.494" y1="-198.521" x2="-115.494" y2="-201.188" stroke="black" stroke-width="0.102" stroke-linecap="square" />
    <line id="pi-835" x1="-133.315" y1="-201.29" x2="-133.325" y2="-201.29" stroke="black" stroke-width="0.102" stroke-linecap="square" />
    <line id="pi-838" x1="-132.24" y1="-201.29" x2="-132.59" y2="-201.29" stroke="black" stroke-width="0.102" stroke-linecap="square" />
    <line id="pi-841" x1="-132.8" y1="-201.29" x2="-133.105" y2="-201.29" stroke="black" stroke-width="0.102" stroke-linecap="square" />
    <line id="pi-844" x1="-115.596" y1="-201.29" x2="-131.516" y2="-201.29" stroke="black" stroke-width="0.102" stroke-linecap="square" />
    <line id="pi-847" x1="-131.726" y1="-201.29" x2="-132.03" y2="-201.29" stroke="black" stroke-width="0.102" stroke-linecap="square" />
  </g>
</svg>