<?xml version="1.0" encoding="utf-8"?>
<svg xmlns="http://www.w3.org/2000/svg" viewBox="-30.829 -13.68 52.812 25.292">
  <g transform="scale(1,-1)">
    <line id="pi-276" x1="-19.796" y1="8.08" x2="-19.81" y2="8.08" stroke="black" stroke-width="0.1" stroke-linecap="square" />
    <line id="pi-277" x1="-19.796" y1="9.068" x2="-19.81" y2="9.068" stroke="black" stroke-width="0.1" stroke-linecap="square" />
    <line id="pi-278" x1="-19.888" y1="9.068" x2="-19.888" y2="9.068" stroke="black" stroke-width="0.1" stroke-linecap="square" />
    <line id="pi-279" x1="-19.888" y1="9.013" x2="-19.888" y2="8.158" stroke="black" stroke-width="0.1" stroke-linecap="square" />
    <line id="pi-280" x1="-19.888" y1="12.275" x2="-19.888" y2="12.275" stroke="black" stroke-width="0.1" stroke-linecap="square" />
    <line id="pi-281" x1="-19.888" y1="8.08" x2="-19.888" y2="8.08" stroke="black" stroke-width="0.1" stroke-linecap="square" />
    <line id="pi-282" x1="-19.888" y1="12.197" x2="-19.888" y2="9.146" stroke="black" stroke-width="0.1" stroke-linecap="square" />
    <line id="pi-740" x1="-30.032" y1="10.941" x2="-30.032" y2="10.941" stroke="black" stroke-width="0.1" stroke-linecap="square" />
    <line id="pi-741" x1="-28.902" y1="12.71" x2="-28.902" y2="12.886" stroke="black" stroke-width="0.1" stroke-linecap="square" />
    <line id="pi-742" x1="-28.902" y1="12.964" x2="-28.902" y2="12.964" stroke="black" stroke-width="0.1" stroke-linecap="square" />
    <line id="pi-743" x1="-27.862" y1="10.56" x2="-27.862" y2="10.409" stroke="black" stroke-width="0.1" stroke-linecap="square" />
    <line id="pi-744" x1="-27.862" y1="10.331" x2="-27.862" y2="10.331" stroke="black" stroke-width="0.1" stroke-linecap="square" />
    <line id="pi-745" x1="-22.746" y1="12.71" x2="-22.746" y2="12.733" stroke="black" stroke-width="0.1" stroke-linecap="square" />
    <line id="pi-746" x1="-22.746" y1="12.811" x2="-22.746" y2="12.811" stroke="black" stroke-width="0.1" stroke-linecap="square" />
    <line id="pi-747" x1="-28.902" y1="11.795" x2="-28.902" y2="11.795" stroke="black" stroke-width="0.1" stroke-linecap="square" />
    <line id="pi-748" x1="-22.746" y1="11.795" x2="-22.746" y2="11.795" stroke="black" stroke-width="0.1" stroke-linecap="square" />
    <line id="pi-774" x1="-24.473" y1="-4.33" x2="-24.473" y2="-4.33" stroke="black" stroke-width="0.1" stroke-linecap="square" />
    <line id="pi-780" x1="-21.691" y1="-1.711" x2="-21.691" y2="-1.711" stroke="black" stroke-width="0.1" stroke-linecap="square" />
    <line id="pi-788" x1="-21.691" y1="-1.634" x2="-21.691" y2="-1.465" stroke="black" stroke-width="0.1" stroke-linecap="square" />
    <line id="pi-789" x1="-21.613" y1="-1.387" x2="-21.058" y2="-1.387" stroke="black" stroke-width="0.1" stroke-linecap="square" />
    <line id="pi-790" x1="-20.98" y1="-1.634" x2="-20.98" y2="-1.465" stroke="black" stroke-width="0.1" stroke-linecap="square" />
    <line id="pi-793" x1="-19.596" y1="-4.359" x2="-19.596" y2="-4.359" stroke="black" stroke-width="0.1" stroke-linecap="square" />
    <line id="pi-794" x1="-19.632" y1="-4.29" x2="-20.722" y2="-2.206" stroke="black" stroke-width="0.1" stroke-linecap="square" />
    <line id="pi-795" x1="-20.758" y1="-2.137" x2="-20.758" y2="-2.137" stroke="black" stroke-width="0.1" stroke-linecap="square" />
    <line id="pi-796" x1="-20.794" y1="-2.068" x2="-20.838" y2="-1.985" stroke="black" stroke-width="0.1" stroke-linecap="square" />
    <line id="pi-797" x1="-20.883" y1="-1.898" x2="-20.947" y2="-1.775" stroke="black" stroke-width="0.1" stroke-linecap="square" />
    <line id="pi-802" x1="-28.793" y1="11.262" x2="-28.862" y2="11.331" stroke="black" stroke-width="0.1" stroke-linecap="square" />
    <line id="pi-803" x1="-28.902" y1="11.741" x2="-28.902" y2="11.428" stroke="black" stroke-width="0.1" stroke-linecap="square" />
    <line id="pi-804" x1="-28.902" y1="12.886" x2="-28.902" y2="12.353" stroke="black" stroke-width="0.1" stroke-linecap="square" />
    <line id="pi-805" x1="-29.955" y1="10.941" x2="-29.061" y2="10.941" stroke="black" stroke-width="0.1" stroke-linecap="square" />
    <line id="pi-806" x1="-28.793" y1="11.152" x2="-28.963" y2="10.981" stroke="black" stroke-width="0.1" stroke-linecap="square" />
    <line id="pi-807" x1="-27.917" y1="10.386" x2="-28.7" y2="11.169" stroke="black" stroke-width="0.1" stroke-linecap="square" />
    <line id="pi-808" x1="-28.902" y1="12.275" x2="-28.902" y2="12.275" stroke="black" stroke-width="0.1" stroke-linecap="square" />
    <line id="pi-810" x1="-28.902" y1="12.197" x2="-28.902" y2="11.873" stroke="black" stroke-width="0.1" stroke-linecap="square" />
    <line id="pi-811" x1="-28.902" y1="12.275" x2="-28.902" y2="12.275" stroke="black" stroke-width="0.1" stroke-linecap="square" />
    <line id="pi-812" x1="-22.746" y1="12.733" x2="-22.746" y2="12.353" stroke="black" stroke-width="0.1" stroke-linecap="square" />
    <line id="pi-813" x1="-22.746" y1="12.275" x2="-22.746" y2="12.275" stroke="black" stroke-width="0.1" stroke-linecap="square" />
    <line id="pi-815" x1="-22.746" y1="12.197" x2="-22.746" y2="11.873" stroke="black" stroke-width="0.1" stroke-linecap="square" />
    <line id="pi-816" x1="-22.746" y1="12.275" x2="-22.746" y2="12.275" stroke="black" stroke-width="0.1" stroke-linecap="square" />
    <line id="pi-869" x1="-19.796" y1="10.211" x2="-19.874" y2="10.211" stroke="black" stroke-width="0.1" stroke-linecap="square" />
    <line id="pi-870" x1="-19.796" y1="8.966" x2="-19.874" y2="8.966" stroke="black" stroke-width="0.1" stroke-linecap="square" />
    <line id="pi-871" x1="-19.796" y1="7.979" x2="-19.874" y2="7.979" stroke="black" stroke-width="0.1" stroke-linecap="square" />
    <line id="pi-1444" x1="-17.145" y1="10.973" x2="-17.145" y2="10.973" stroke="black" stroke-width="0.1" stroke-linecap="square" />
    <line id="pi-1446" x1="-17.145" y1="10.805" x2="-17.145" y2="10.805" stroke="black" stroke-width="0.1" stroke-linecap="square" />
    <line id="pi-1449" x1="-20.498" y1="12.633" x2="-20.498" y2="12.633" stroke="black" stroke-width="0.1" stroke-linecap="square" />
    <line id="pi-1451" x1="-20.498" y1="12.802" x2="-20.498" y2="12.802" stroke="black" stroke-width="0.1" stroke-linecap="square" />
    <line id="pi-1452" x1="-20.498" y1="12.781" x2="-20.498" y2="12.379" stroke="black" stroke-width="0.1" stroke-linecap="square" />
    <line id="pi-1453" x1="-20.498" y1="12.359" x2="-20.498" y2="12.359" stroke="black" stroke-width="0.1" stroke-linecap="square" />
    <line id="pi-1454" x1="-20.498" y1="12.338" x2="-20.498" y2="6.5" stroke="black" stroke-width="0.1" stroke-linecap="square" />
    <line id="pi-1455" x1="-20.498" y1="6.485" x2="-20.498" y2="6.167" stroke="black" stroke-width="0.1" stroke-linecap="square" />
    <line id="pi-1456" x1="-20.498" y1="6.152" x2="-20.498" y2="5.557" stroke="black" stroke-width="0.1" stroke-linecap="square" />
    <line id="pi-1457" x1="-20.498" y1="5.542" x2="-20.498" y2="5.224" stroke="black" stroke-width="0.1" stroke-linecap="square" />
    <line id="pi-1458" x1="-20.498" y1="5.21" x2="-20.498" y2="4.031" stroke="black" stroke-width="0.1" stroke-linecap="square" />
    <line id="pi-1459" x1="-28.223" y1="5.566" x2="-28.223" y2="5.752" stroke="black" stroke-width="0.1" stroke-linecap="square" />
    <line id="pi-1460" x1="-28.223" y1="5.766" x2="-28.223" y2="5.766" stroke="black" stroke-width="0.1" stroke-linecap="square" />
    <line id="pi-1461" x1="-28.223" y1="5.752" x2="-28.223" y2="5.45" stroke="black" stroke-width="0.1" stroke-linecap="square" />
    <line id="pi-1462" x1="-28.223" y1="5.436" x2="-28.223" y2="5.436" stroke="black" stroke-width="0.1" stroke-linecap="square" />
    <line id="pi-1625" x1="-19.888" y1="10.211" x2="-19.888" y2="10.211" stroke="black" stroke-width="0.1" stroke-linecap="square" />
    <line id="pi-1626" x1="-19.888" y1="6.531" x2="-19.888" y2="6.531" stroke="black" stroke-width="0.1" stroke-linecap="square" />
    <line id="pi-1627" x1="-19.796" y1="6.531" x2="-19.874" y2="6.531" stroke="black" stroke-width="0.1" stroke-linecap="square" />
    <line id="pi-1628" x1="-19.888" y1="8.161" x2="-19.888" y2="6.545" stroke="black" stroke-width="0.1" stroke-linecap="square" />
    <line id="pi-1629" x1="-19.796" y1="9.169" x2="-19.874" y2="9.169" stroke="black" stroke-width="0.1" stroke-linecap="square" />
    <line id="pi-1630" x1="-19.888" y1="9.169" x2="-19.888" y2="9.169" stroke="black" stroke-width="0.1" stroke-linecap="square" />
    <line id="pi-1631" x1="-19.888" y1="10.19" x2="-19.888" y2="9.19" stroke="black" stroke-width="0.1" stroke-linecap="square" />
    <line id="pi-1632" x1="-19.796" y1="8.182" x2="-19.874" y2="8.182" stroke="black" stroke-width="0.1" stroke-linecap="square" />
    <line id="pi-1633" x1="-19.888" y1="8.182" x2="-19.888" y2="8.182" stroke="black" stroke-width="0.1" stroke-linecap="square" />
    <line id="pi-1634" x1="-19.888" y1="9.149" x2="-19.888" y2="8.203" stroke="black" stroke-width="0.1" stroke-linecap="square" />
    <line id="pi-1635" x1="-19.888" y1="8.966" x2="-19.888" y2="8.966" stroke="black" stroke-width="0.1" stroke-linecap="square" />
    <line id="pi-1636" x1="-19.888" y1="8.987" x2="-19.888" y2="10.959" stroke="black" stroke-width="0.1" stroke-linecap="square" />
    <line id="pi-1637" x1="-19.888" y1="8.946" x2="-19.888" y2="7.993" stroke="black" stroke-width="0.1" stroke-linecap="square" />
    <line id="pi-1638" x1="-19.888" y1="7.979" x2="-19.888" y2="7.979" stroke="black" stroke-width="0.1" stroke-linecap="square" />
    <line id="pi-1639" x1="-19.888" y1="10.231" x2="-19.888" y2="10.959" stroke="black" stroke-width="0.1" stroke-linecap="square" />
    <line id="pi-1640" x1="-19.874" y1="10.973" x2="-17.312" y2="10.973" stroke="black" stroke-width="0.1" stroke-linecap="square" />
    <line id="pi-1641" x1="-19.874" y1="10.973" x2="-17.235" y2="10.973" stroke="black" stroke-width="0.1" stroke-linecap="square" />
    <line id="pi-1642" x1="-17.145" y1="10.805" x2="-17.145" y2="10.805" stroke="black" stroke-width="0.1" stroke-linecap="square" />
    <line id="pi-1643" x1="-17.221" y1="10.973" x2="-17.221" y2="10.973" stroke="black" stroke-width="0.1" stroke-linecap="square" />
    <line id="pi-1644" x1="-17.207" y1="10.973" x2="-17.159" y2="10.973" stroke="black" stroke-width="0.1" stroke-linecap="square" />
    <line id="pi-1646" x1="-17.297" y1="10.959" x2="-17.297" y2="10.819" stroke="black" stroke-width="0.1" stroke-linecap="square" />
    <line id="pi-1647" x1="-17.297" y1="10.973" x2="-17.297" y2="10.973" stroke="black" stroke-width="0.1" stroke-linecap="square" />
    <line id="pi-1648" x1="-17.145" y1="10.839" x2="-17.145" y2="10.959" stroke="black" stroke-width="0.1" stroke-linecap="square" />
    <line id="pi-1649" x1="-17.145" y1="10.805" x2="-17.145" y2="10.805" stroke="black" stroke-width="0.1" stroke-linecap="square" />
    <line id="pi-1650" x1="-17.145" y1="10.952" x2="-17.145" y2="10.825" stroke="black" stroke-width="0.1" stroke-linecap="square" />
    <line id="pi-1651" x1="-20.498" y1="12.633" x2="-20.498" y2="12.633" stroke="black" stroke-width="0.1" stroke-linecap="square" />
    <line id="pi-1652" x1="-20.498" y1="12.781" x2="-20.498" y2="12.654" stroke="black" stroke-width="0.1" stroke-linecap="square" />
    <line id="pi-1653" x1="-20.498" y1="12.667" x2="-20.498" y2="12.829" stroke="black" stroke-width="0.1" stroke-linecap="square" />
    <line id="pi-1654" x1="-20.498" y1="12.633" x2="-20.498" y2="12.633" stroke="black" stroke-width="0.1" stroke-linecap="square" />
    <line id="pi-1655" x1="-20.512" y1="12.843" x2="-20.56" y2="12.843" stroke="black" stroke-width="0.1" stroke-linecap="square" />
    <line id="pi-1656" x1="-20.574" y1="12.843" x2="-20.574" y2="12.843" stroke="black" stroke-width="0.1" stroke-linecap="square" />
    <line id="pi-1657" x1="-28.8" y1="12.71" x2="-28.8" y2="12.829" stroke="black" stroke-width="0.1" stroke-linecap="square" />
    <line id="pi-1658" x1="-28.8" y1="12.843" x2="-28.8" y2="12.843" stroke="black" stroke-width="0.1" stroke-linecap="square" />
    <line id="pi-1659" x1="-22.665" y1="12.843" x2="-28.78" y2="12.843" stroke="black" stroke-width="0.1" stroke-linecap="square" />
    <line id="pi-1660" x1="-22.644" y1="12.71" x2="-22.644" y2="12.829" stroke="black" stroke-width="0.1" stroke-linecap="square" />
    <line id="pi-1661" x1="-22.644" y1="12.843" x2="-22.644" y2="12.843" stroke="black" stroke-width="0.1" stroke-linecap="square" />
    <line id="pi-1662" x1="-20.588" y1="12.843" x2="-22.623" y2="12.843" stroke="black" stroke-width="0.1" stroke-linecap="square" />
    <line id="pi-1663" x1="-22.847" y1="12.71" x2="-22.847" y2="12.822" stroke="black" stroke-width="0.1" stroke-linecap="square" />
    <line id="pi-1664" x1="-22.868" y1="12.843" x2="-28.65" y2="12.843" stroke="black" stroke-width="0.1" stroke-linecap="square" />
    <line id="pi-1665" x1="-28.664" y1="12.843" x2="-28.664" y2="12.843" stroke="black" stroke-width="0.1" stroke-linecap="square" />
    <line id="pi-1666" x1="-29.004" y1="12.71" x2="-29.004" y2="12.829" stroke="black" stroke-width="0.1" stroke-linecap="square" />
    <line id="pi-1667" x1="-29.004" y1="12.843" x2="-29.004" y2="12.843" stroke="black" stroke-width="0.1" stroke-linecap="square" />
    <line id="pi-1668" x1="-28.678" y1="12.843" x2="-28.983" y2="12.843" stroke="black" stroke-width="0.1" stroke-linecap="square" />
    <line id="pi-1669" x1="-22.827" y1="12.843" x2="-22.752" y2="12.843" stroke="black" stroke-width="0.1" stroke-linecap="square" />
    <line id="pi-1670" x1="-22.723" y1="12.843" x2="-20.664" y2="12.843" stroke="black" stroke-width="0.1" stroke-linecap="square" />
    <line id="pi-1671" x1="-22.738" y1="12.843" x2="-22.738" y2="12.843" stroke="black" stroke-width="0.1" stroke-linecap="square" />
    <line id="pi-1673" x1="-20.65" y1="12.648" x2="-20.65" y2="12.829" stroke="black" stroke-width="0.1" stroke-linecap="square" />
    <line id="pi-1674" x1="-20.65" y1="12.843" x2="-20.65" y2="12.843" stroke="black" stroke-width="0.1" stroke-linecap="square" />
    <line id="pi-1675" x1="-29.024" y1="12.843" x2="-30.17" y2="12.843" stroke="black" stroke-width="0.1" stroke-linecap="square" />
    <line id="pi-1676" x1="-30.29" y1="10.819" x2="-30.29" y2="10.512" stroke="black" stroke-width="0.1" stroke-linecap="square" />
    <line id="pi-1677" x1="-28.821" y1="12.843" x2="-30.17" y2="12.843" stroke="black" stroke-width="0.1" stroke-linecap="square" />
    <line id="pi-1678" x1="-30.29" y1="11.022" x2="-30.29" y2="10.512" stroke="black" stroke-width="0.1" stroke-linecap="square" />
    <line id="pi-1679" x1="-30.185" y1="12.829" x2="-30.185" y2="12.179" stroke="black" stroke-width="0.1" stroke-linecap="square" />
    <line id="pi-1680" x1="-30.185" y1="12.829" x2="-30.185" y2="12.179" stroke="black" stroke-width="0.1" stroke-linecap="square" />
    <line id="pi-1681" x1="-30.199" y1="12.164" x2="-30.275" y2="12.164" stroke="black" stroke-width="0.1" stroke-linecap="square" />
    <line id="pi-1682" x1="-30.199" y1="12.164" x2="-30.275" y2="12.164" stroke="black" stroke-width="0.1" stroke-linecap="square" />
    <line id="pi-1683" x1="-27.964" y1="10.56" x2="-27.964" y2="10.512" stroke="black" stroke-width="0.1" stroke-linecap="square" />
    <line id="pi-1684" x1="-27.964" y1="10.498" x2="-27.964" y2="10.498" stroke="black" stroke-width="0.1" stroke-linecap="square" />
    <line id="pi-1685" x1="-30.275" y1="10.498" x2="-27.978" y2="10.498" stroke="black" stroke-width="0.1" stroke-linecap="square" />
    <line id="pi-1686" x1="-27.761" y1="10.56" x2="-27.761" y2="10.512" stroke="black" stroke-width="0.1" stroke-linecap="square" />
    <line id="pi-1687" x1="-27.761" y1="10.498" x2="-27.761" y2="10.498" stroke="black" stroke-width="0.1" stroke-linecap="square" />
    <line id="pi-1688" x1="-30.275" y1="10.498" x2="-27.775" y2="10.498" stroke="black" stroke-width="0.1" stroke-linecap="square" />
    <line id="pi-1689" x1="-30.185" y1="11.043" x2="-30.223" y2="11.043" stroke="black" stroke-width="0.1" stroke-linecap="square" />
    <line id="pi-1690" x1="-30.269" y1="11.043" x2="-30.251" y2="11.043" stroke="black" stroke-width="0.1" stroke-linecap="square" />
    <line id="pi-1691" x1="-30.29" y1="12.15" x2="-30.29" y2="11.063" stroke="black" stroke-width="0.1" stroke-linecap="square" />
    <line id="pi-1692" x1="-30.237" y1="11.043" x2="-30.237" y2="11.043" stroke="black" stroke-width="0.1" stroke-linecap="square" />
    <line id="pi-1693" x1="-30.185" y1="10.839" x2="-30.275" y2="10.839" stroke="black" stroke-width="0.1" stroke-linecap="square" />
    <line id="pi-1694" x1="-30.29" y1="10.839" x2="-30.29" y2="10.839" stroke="black" stroke-width="0.1" stroke-linecap="square" />
    <line id="pi-1695" x1="-30.29" y1="12.15" x2="-30.29" y2="10.86" stroke="black" stroke-width="0.1" stroke-linecap="square" />
  </g>
</svg>