<?xml version="1.0" encoding="utf-8"?>
<svg xmlns="http://www.w3.org/2000/svg" viewBox="-33.918 -13.687 55.2 23.839">
  <g transform="scale(1,-1)">
    <line id="du-447" x1="19.104" y1="-1.726" x2="19.104" y2="-3.061" stroke="black" stroke-width="0.203" stroke-linecap="square" />
    <line id="du-448" x1="19.612" y1="-2.657" x2="19.612" y2="-7.011" stroke="black" stroke-width="0.203" stroke-linecap="square" />
    <line id="du-449" x1="19.347" y1="-7.313" x2="13.87" y2="-8.034" stroke="black" stroke-width="0.203" stroke-linecap="square" />
    <line id="du-450" x1="18.799" y1="-3.366" x2="16.31" y2="-3.366" stroke="black" stroke-width="0.203" stroke-linecap="square" />
    <line id="du-451" x1="16.005" y1="-3.67" x2="16.005" y2="-6.349" stroke="black" stroke-width="0.203" stroke-linecap="square" />
    <line id="du-452" x1="19.612" y1="-2.53" x2="19.612" y2="-2.53" stroke="black" stroke-width="0.152" stroke-linecap="square" />
    <line id="du-453" x1="19.612" y1="-1.726" x2="19.612" y2="-2.403" stroke="black" stroke-width="0.203" stroke-linecap="square" />
    <line id="du-454" x1="19.612" y1="-2.301" x2="19.612" y2="-1.946" stroke="black" stroke-width="0.152" stroke-linecap="square" />
    <line id="du-455" x1="19.612" y1="-0.296" x2="19.612" y2="0.009" stroke="black" stroke-width="0.102" stroke-linecap="square" />
    <line id="du-456" x1="19.764" y1="0.161" x2="19.891" y2="0.161" stroke="black" stroke-width="0.102" stroke-linecap="square" />
    <line id="du-457" x1="20.043" y1="0.009" x2="20.043" y2="-0.868" stroke="black" stroke-width="0.102" stroke-linecap="square" />
    <line id="du-458" x1="20.088" y1="-0.976" x2="20.39" y2="-1.277" stroke="black" stroke-width="0.102" stroke-linecap="square" />
    <line id="du-459" x1="20.434" y1="-1.385" x2="20.434" y2="-7.411" stroke="black" stroke-width="0.102" stroke-linecap="square" />
    <line id="du-460" x1="19.104" y1="-0.296" x2="19.104" y2="0.009" stroke="black" stroke-width="0.102" stroke-linecap="square" />
    <line id="du-461" x1="18.951" y1="0.161" x2="15.903" y2="0.161" stroke="black" stroke-width="0.102" stroke-linecap="square" />
    <line id="du-462" x1="15.751" y1="0.009" x2="15.751" y2="-4.821" stroke="black" stroke-width="0.102" stroke-linecap="square" />
    <line id="du-463" x1="20.302" y1="-7.562" x2="19.556" y2="-7.661" stroke="black" stroke-width="0.102" stroke-linecap="square" />
    <line id="du-464" x1="19.423" y1="-7.822" x2="19.455" y2="-8.06" stroke="black" stroke-width="0.102" stroke-linecap="square" />
    <line id="du-465" x1="19.525" y1="-8.596" x2="19.462" y2="-8.113" stroke="black" stroke-width="0.102" stroke-linecap="square" />
    <line id="du-466" x1="15.751" y1="-5.099" x2="15.751" y2="-6.068" stroke="black" stroke-width="0.102" stroke-linecap="square" />
    <line id="du-467" x1="15.751" y1="-4.928" x2="15.751" y2="-4.992" stroke="black" stroke-width="0.102" stroke-linecap="square" />
    <line id="du-468" x1="5.096" y1="-3.749" x2="5.096" y2="-4.075" stroke="black" stroke-width="0.203" stroke-linecap="square" />
    <line id="du-469" x1="4.588" y1="-2.466" x2="4.588" y2="-3.923" stroke="black" stroke-width="0.203" stroke-linecap="square" />
    <line id="du-470" x1="5.096" y1="-1.036" x2="5.096" y2="-0.572" stroke="black" stroke-width="0.102" stroke-linecap="square" />
    <line id="du-471" x1="4.588" y1="-1.036" x2="4.588" y2="-0.572" stroke="black" stroke-width="0.102" stroke-linecap="square" />
    <line id="du-472" x1="5.096" y1="-4.204" x2="5.096" y2="-4.381" stroke="black" stroke-width="0.203" stroke-linecap="square" />
    <line id="du-473" x1="5.096" y1="-4.51" x2="5.096" y2="-7.237" stroke="black" stroke-width="0.203" stroke-linecap="square" />
    <line id="du-474" x1="5.801" y1="-7.942" x2="10.592" y2="-7.942" stroke="black" stroke-width="0.203" stroke-linecap="square" />
    <line id="du-475" x1="5.02" y1="-7.942" x2="2.962" y2="-7.942" stroke="black" stroke-width="0.203" stroke-linecap="square" />
    <line id="du-476" x1="5.303" y1="-7.57" x2="5.185" y2="-7.452" stroke="black" stroke-width="0.203" stroke-linecap="square" />
    <line id="du-477" x1="5.303" y1="-7.786" x2="5.236" y2="-7.853" stroke="black" stroke-width="0.203" stroke-linecap="square" />
    <line id="du-478" x1="5.586" y1="-7.853" x2="5.519" y2="-7.786" stroke="black" stroke-width="0.203" stroke-linecap="square" />
    <line id="du-479" x1="4.283" y1="-4.227" x2="2.225" y2="-4.227" stroke="black" stroke-width="0.203" stroke-linecap="square" />
    <line id="du-480" x1="2.009" y1="-4.317" x2="1.712" y2="-4.614" stroke="black" stroke-width="0.203" stroke-linecap="square" />
    <line id="du-481" x1="1.622" y1="-4.83" x2="1.622" y2="-7.852" stroke="black" stroke-width="0.203" stroke-linecap="square" />
    <line id="du-482" x1="5.096" y1="-2.777" x2="5.096" y2="-2.777" stroke="black" stroke-width="0.152" stroke-linecap="square" />
    <line id="du-483" x1="5.096" y1="-2.466" x2="5.096" y2="-2.65" stroke="black" stroke-width="0.203" stroke-linecap="square" />
    <line id="du-484" x1="5.096" y1="-2.625" x2="5.096" y2="-2.447" stroke="black" stroke-width="0.152" stroke-linecap="square" />
    <line id="du-485" x1="5.248" y1="-3.177" x2="7.853" y2="-3.177" stroke="black" stroke-width="0.203" stroke-linecap="square" />
    <line id="du-486" x1="5.096" y1="-2.904" x2="5.096" y2="-3.025" stroke="black" stroke-width="0.203" stroke-linecap="square" />
    <line id="du-487" x1="8.169" y1="-2.86" x2="8.169" y2="-0.749" stroke="black" stroke-width="0.203" stroke-linecap="square" />
    <line id="du-488" x1="3.302" y1="-3.596" x2="4.691" y2="-3.596" stroke="black" stroke-width="0.203" stroke-linecap="square" />
    <line id="du-489" x1="3.086" y1="-3.507" x2="2.937" y2="-3.358" stroke="black" stroke-width="0.203" stroke-linecap="square" />
    <line id="du-490" x1="2.848" y1="-3.142" x2="2.848" y2="-0.749" stroke="black" stroke-width="0.203" stroke-linecap="square" />
    <line id="du-491" x1="8.08" y1="-3.076" x2="8.068" y2="-3.088" stroke="black" stroke-width="0.203" stroke-linecap="square" />
    <line id="du-492" x1="4.435" y1="-0.419" x2="2.149" y2="-0.419" stroke="black" stroke-width="0.102" stroke-linecap="square" />
    <line id="du-493" x1="1.997" y1="-4.331" x2="1.997" y2="-7.996" stroke="black" stroke-width="0.102" stroke-linecap="square" />
    <line id="du-494" x1="5.248" y1="-0.419" x2="5.858" y2="-0.419" stroke="black" stroke-width="0.102" stroke-linecap="square" />
    <line id="du-495" x1="6.01" y1="-0.572" x2="6.01" y2="-4.084" stroke="black" stroke-width="0.102" stroke-linecap="square" />
    <line id="du-496" x1="1.997" y1="-0.572" x2="1.997" y2="-3.92" stroke="black" stroke-width="0.102" stroke-linecap="square" />
    <line id="du-497" x1="1.997" y1="-4.199" x2="1.997" y2="-4.052" stroke="black" stroke-width="0.102" stroke-linecap="square" />
    <line id="du-498" x1="3.531" y1="-8.148" x2="2.632" y2="-8.148" stroke="black" stroke-width="0.102" stroke-linecap="square" />
    <line id="du-499" x1="2.105" y1="-8.148" x2="2.524" y2="-8.148" stroke="black" stroke-width="0.102" stroke-linecap="square" />
    <line id="du-500" x1="6.163" y1="-4.237" x2="11.561" y2="-4.237" stroke="black" stroke-width="0.102" stroke-linecap="square" />
    <line id="du-501" x1="12.03" y1="-4.389" x2="12.03" y2="-7.996" stroke="black" stroke-width="0.102" stroke-linecap="square" />
    <line id="du-502" x1="11.922" y1="-4.237" x2="11.668" y2="-4.237" stroke="black" stroke-width="0.102" stroke-linecap="square" />
    <line id="du-503" x1="11.922" y1="-8.148" x2="11.503" y2="-8.148" stroke="black" stroke-width="0.102" stroke-linecap="square" />
    <line id="du-504" x1="11.122" y1="-8.148" x2="11.395" y2="-8.148" stroke="black" stroke-width="0.102" stroke-linecap="square" />
    <line id="du-505" x1="10.973" y1="-9.508" x2="10.97" y2="-8.301" stroke="black" stroke-width="0.102" stroke-linecap="square" />
    <line id="du-506" x1="-11.668" y1="-2.466" x2="-11.668" y2="-3.923" stroke="black" stroke-width="0.203" stroke-linecap="square" />
    <line id="du-507" x1="-11.16" y1="-1.036" x2="-11.16" y2="-0.427" stroke="black" stroke-width="0.102" stroke-linecap="square" />
    <line id="du-508" x1="-11.668" y1="-1.036" x2="-11.668" y2="-0.427" stroke="black" stroke-width="0.102" stroke-linecap="square" />
    <line id="du-509" x1="-11.16" y1="-4.204" x2="-11.16" y2="-4.381" stroke="black" stroke-width="0.203" stroke-linecap="square" />
    <line id="du-510" x1="-11.16" y1="-4.51" x2="-11.16" y2="-7.237" stroke="black" stroke-width="0.203" stroke-linecap="square" />
    <line id="du-511" x1="-10.455" y1="-7.942" x2="-7.96" y2="-7.942" stroke="black" stroke-width="0.203" stroke-linecap="square" />
    <line id="du-512" x1="-11.236" y1="-7.942" x2="-13.294" y2="-7.942" stroke="black" stroke-width="0.203" stroke-linecap="square" />
    <line id="du-513" x1="-10.953" y1="-7.57" x2="-11.071" y2="-7.452" stroke="black" stroke-width="0.203" stroke-linecap="square" />
    <line id="du-514" x1="-10.953" y1="-7.786" x2="-11.02" y2="-7.853" stroke="black" stroke-width="0.203" stroke-linecap="square" />
    <line id="du-515" x1="-10.67" y1="-7.853" x2="-10.737" y2="-7.786" stroke="black" stroke-width="0.203" stroke-linecap="square" />
    <line id="du-516" x1="-11.973" y1="-4.227" x2="-14.031" y2="-4.227" stroke="black" stroke-width="0.203" stroke-linecap="square" />
    <line id="du-517" x1="-14.247" y1="-4.317" x2="-14.544" y2="-4.614" stroke="black" stroke-width="0.203" stroke-linecap="square" />
    <line id="du-518" x1="-14.634" y1="-4.83" x2="-14.634" y2="-7.852" stroke="black" stroke-width="0.203" stroke-linecap="square" />
    <line id="du-519" x1="-11.16" y1="-2.777" x2="-11.16" y2="-2.777" stroke="black" stroke-width="0.152" stroke-linecap="square" />
    <line id="du-520" x1="-11.16" y1="-2.466" x2="-11.16" y2="-2.65" stroke="black" stroke-width="0.203" stroke-linecap="square" />
    <line id="du-521" x1="-11.16" y1="-2.625" x2="-11.16" y2="-2.447" stroke="black" stroke-width="0.152" stroke-linecap="square" />
    <line id="du-522" x1="-11.008" y1="-3.329" x2="-8.48" y2="-3.329" stroke="black" stroke-width="0.203" stroke-linecap="square" />
    <line id="du-523" x1="-11.16" y1="-2.904" x2="-11.16" y2="-3.177" stroke="black" stroke-width="0.203" stroke-linecap="square" />
    <line id="du-524" x1="-8.087" y1="-2.936" x2="-8.087" y2="-0.749" stroke="black" stroke-width="0.203" stroke-linecap="square" />
    <line id="du-525" x1="-12.853" y1="-3.698" x2="-11.616" y2="-3.698" stroke="black" stroke-width="0.203" stroke-linecap="square" />
    <line id="du-526" x1="-13.068" y1="-3.608" x2="-13.319" y2="-3.358" stroke="black" stroke-width="0.203" stroke-linecap="square" />
    <line id="du-527" x1="-13.408" y1="-3.142" x2="-13.408" y2="-0.749" stroke="black" stroke-width="0.203" stroke-linecap="square" />
    <line id="du-528" x1="-8.176" y1="-3.152" x2="-8.264" y2="-3.24" stroke="black" stroke-width="0.203" stroke-linecap="square" />
    <line id="du-529" x1="-11.821" y1="-0.274" x2="-14.107" y2="-0.274" stroke="black" stroke-width="0.102" stroke-linecap="square" />
    <line id="du-530" x1="-14.259" y1="-4.331" x2="-14.259" y2="-7.996" stroke="black" stroke-width="0.102" stroke-linecap="square" />
    <line id="du-531" x1="-11.008" y1="-0.274" x2="-10.398" y2="-0.274" stroke="black" stroke-width="0.102" stroke-linecap="square" />
    <line id="du-532" x1="-10.246" y1="-0.427" x2="-10.246" y2="-4.084" stroke="black" stroke-width="0.102" stroke-linecap="square" />
    <line id="du-533" x1="-14.259" y1="-0.427" x2="-14.259" y2="-3.92" stroke="black" stroke-width="0.102" stroke-linecap="square" />
    <line id="du-534" x1="-12.71" y1="-8.899" x2="-12.71" y2="-8.301" stroke="black" stroke-width="0.102" stroke-linecap="square" />
    <line id="du-535" x1="-14.259" y1="-4.199" x2="-14.259" y2="-4.052" stroke="black" stroke-width="0.102" stroke-linecap="square" />
    <line id="du-536" x1="-12.862" y1="-8.148" x2="-13.84" y2="-8.148" stroke="black" stroke-width="0.102" stroke-linecap="square" />
    <line id="du-537" x1="-14.151" y1="-8.148" x2="-13.948" y2="-8.148" stroke="black" stroke-width="0.102" stroke-linecap="square" />
    <line id="du-538" x1="-8.747" y1="-8.899" x2="-8.747" y2="-8.301" stroke="black" stroke-width="0.102" stroke-linecap="square" />
    <line id="du-539" x1="-10.093" y1="-4.237" x2="-7.972" y2="-4.237" stroke="black" stroke-width="0.102" stroke-linecap="square" />
    <line id="du-540" x1="-7.503" y1="-4.389" x2="-7.503" y2="-7.996" stroke="black" stroke-width="0.102" stroke-linecap="square" />
    <line id="du-541" x1="-7.61" y1="-4.237" x2="-7.864" y2="-4.237" stroke="black" stroke-width="0.102" stroke-linecap="square" />
    <line id="du-542" x1="-7.61" y1="-8.148" x2="-7.813" y2="-8.148" stroke="black" stroke-width="0.102" stroke-linecap="square" />
    <line id="du-543" x1="-8.595" y1="-8.148" x2="-7.921" y2="-8.148" stroke="black" stroke-width="0.102" stroke-linecap="square" />
    <line id="du-544" x1="-18.847" y1="5.048" x2="-18.847" y2="2.939" stroke="black" stroke-width="0.203" stroke-linecap="square" />
    <line id="du-545" x1="-26.096" y1="5.049" x2="-26.096" y2="2.939" stroke="black" stroke-width="0.203" stroke-linecap="square" />
    <line id="du-546" x1="-18.847" y1="9.727" x2="-18.847" y2="6.659" stroke="black" stroke-width="0.203" stroke-linecap="square" />
    <line id="du-547" x1="-18.847" y1="6" x2="-18.847" y2="5.706" stroke="black" stroke-width="0.203" stroke-linecap="square" />
    <line id="du-548" x1="-18.847" y1="6.443" x2="-18.847" y2="6.216" stroke="black" stroke-width="0.203" stroke-linecap="square" />
    <line id="du-549" x1="-18.847" y1="5.491" x2="-18.847" y2="5.263" stroke="black" stroke-width="0.203" stroke-linecap="square" />
    <line id="du-550" x1="-25.584" y1="9.727" x2="-25.584" y2="7.477" stroke="black" stroke-width="0.203" stroke-linecap="square" />
    <line id="du-551" x1="-26.096" y1="6.001" x2="-26.096" y2="5.708" stroke="black" stroke-width="0.203" stroke-linecap="square" />
    <line id="du-552" x1="-26.096" y1="6.394" x2="-26.096" y2="6.217" stroke="black" stroke-width="0.203" stroke-linecap="square" />
    <line id="du-553" x1="-26.096" y1="5.492" x2="-26.096" y2="5.265" stroke="black" stroke-width="0.203" stroke-linecap="square" />
    <line id="du-554" x1="-26.096" y1="6.61" x2="-26.096" y2="6.713" stroke="black" stroke-width="0.203" stroke-linecap="square" />
    <line id="du-555" x1="-25.673" y1="7.262" x2="-26.007" y2="6.928" stroke="black" stroke-width="0.203" stroke-linecap="square" />
    <line id="du-556" x1="-29.373" y1="1.497" x2="-31.735" y2="1.497" stroke="black" stroke-width="0.203" stroke-linecap="square" />
    <line id="du-557" x1="-25.146" y1="1.497" x2="-22.667" y2="1.497" stroke="black" stroke-width="0.203" stroke-linecap="square" />
    <line id="du-558" x1="-17.44" y1="1.497" x2="-18.72" y2="1.497" stroke="black" stroke-width="0.203" stroke-linecap="square" />
    <line id="du-559" x1="-26.096" y1="2.724" x2="-26.096" y2="2.496" stroke="black" stroke-width="0.203" stroke-linecap="square" />
    <line id="du-560" x1="-26.096" y1="2.28" x2="-26.096" y2="2.107" stroke="black" stroke-width="0.203" stroke-linecap="square" />
    <line id="du-561" x1="-26.491" y1="1.586" x2="-26.185" y2="1.892" stroke="black" stroke-width="0.203" stroke-linecap="square" />
    <line id="du-562" x1="-18.847" y1="2.724" x2="-18.847" y2="2.496" stroke="black" stroke-width="0.203" stroke-linecap="square" />
    <line id="du-563" x1="-18.847" y1="2.28" x2="-18.847" y2="2.107" stroke="black" stroke-width="0.203" stroke-linecap="square" />
    <line id="du-564" x1="-18.981" y1="1.847" x2="-18.936" y2="1.892" stroke="black" stroke-width="0.203" stroke-linecap="square" />
    <line id="du-565" x1="-18.936" y1="1.586" x2="-18.981" y2="1.631" stroke="black" stroke-width="0.203" stroke-linecap="square" />
    <line id="du-566" x1="-19.241" y1="1.586" x2="-19.196" y2="1.631" stroke="black" stroke-width="0.203" stroke-linecap="square" />
    <line id="du-567" x1="-29.221" y1="1.389" x2="-29.221" y2="1.191" stroke="black" stroke-width="0.203" stroke-linecap="square" />
    <line id="du-568" x1="-26.706" y1="1.497" x2="-29.068" y2="1.497" stroke="black" stroke-width="0.203" stroke-linecap="square" />
    <line id="du-569" x1="-29.221" y1="0.976" x2="-29.221" y2="0.089" stroke="black" stroke-width="0.203" stroke-linecap="square" />
    <line id="du-570" x1="-29.248" y1="-0.038" x2="-29.853" y2="-1.364" stroke="black" stroke-width="0.203" stroke-linecap="square" />
    <line id="du-571" x1="-22.515" y1="1.389" x2="-22.515" y2="1.191" stroke="black" stroke-width="0.203" stroke-linecap="square" />
    <line id="du-572" x1="-22.515" y1="0.976" x2="-22.515" y2="0.356" stroke="black" stroke-width="0.203" stroke-linecap="square" />
    <line id="du-573" x1="-22.543" y1="0.229" x2="-23.248" y2="-1.318" stroke="black" stroke-width="0.203" stroke-linecap="square" />
    <line id="du-574" x1="-19.457" y1="1.497" x2="-22.363" y2="1.497" stroke="black" stroke-width="0.203" stroke-linecap="square" />
    <line id="du-575" x1="-17.135" y1="1.282" x2="-17.135" y2="1.191" stroke="black" stroke-width="0.203" stroke-linecap="square" />
    <line id="du-576" x1="-17.135" y1="0.976" x2="-17.135" y2="0.356" stroke="black" stroke-width="0.203" stroke-linecap="square" />
    <line id="du-577" x1="-17.162" y1="0.229" x2="-17.741" y2="-1.041" stroke="black" stroke-width="0.203" stroke-linecap="square" />
    <line id="du-578" x1="-27.263" y1="6.001" x2="-27.263" y2="5.834" stroke="black" stroke-width="0.203" stroke-linecap="square" />
    <line id="du-579" x1="-27.263" y1="6.394" x2="-27.263" y2="6.217" stroke="black" stroke-width="0.203" stroke-linecap="square" />
    <line id="du-580" x1="-27.263" y1="7.957" x2="-27.263" y2="6.61" stroke="black" stroke-width="0.203" stroke-linecap="square" />
    <line id="du-581" x1="-15.725" y1="8.326" x2="-15.725" y2="1.137" stroke="black" stroke-width="0.203" stroke-linecap="square" />
    <line id="du-582" x1="-19.355" y1="9.727" x2="-19.355" y2="9.701" stroke="black" stroke-width="0.203" stroke-linecap="square" />
    <line id="du-583" x1="-16.796" y1="9.397" x2="-18.822" y2="9.397" stroke="black" stroke-width="0.203" stroke-linecap="square" />
    <line id="du-584" x1="-16.581" y1="9.307" x2="-15.815" y2="8.541" stroke="black" stroke-width="0.203" stroke-linecap="square" />
    <line id="du-585" x1="-19.139" y1="9.397" x2="-19.038" y2="9.397" stroke="black" stroke-width="0.203" stroke-linecap="square" />
    <line id="du-586" x1="-26.092" y1="9.727" x2="-26.092" y2="9.38" stroke="black" stroke-width="0.203" stroke-linecap="square" />
    <line id="du-587" x1="-27.174" y1="8.172" x2="-26.181" y2="9.164" stroke="black" stroke-width="0.203" stroke-linecap="square" />
    <line id="du-588" x1="-27.352" y1="5.619" x2="-27.497" y2="5.474" stroke="black" stroke-width="0.203" stroke-linecap="square" />
    <line id="du-589" x1="-27.712" y1="5.385" x2="-32.489" y2="5.385" stroke="black" stroke-width="0.203" stroke-linecap="square" />
    <line id="du-590" x1="-32.705" y1="5.295" x2="-33.28" y2="4.72" stroke="black" stroke-width="0.203" stroke-linecap="square" />
    <line id="du-591" x1="-33.37" y1="4.504" x2="-33.37" y2="1.735" stroke="black" stroke-width="0.203" stroke-linecap="square" />
    <line id="du-592" x1="-26.092" y1="11.157" x2="-26.092" y2="11.892" stroke="black" stroke-width="0.102" stroke-linecap="square" />
    <line id="du-593" x1="-25.584" y1="11.157" x2="-25.584" y2="12.019" stroke="black" stroke-width="0.102" stroke-linecap="square" />
    <line id="du-594" x1="-19.355" y1="11.157" x2="-19.355" y2="12.019" stroke="black" stroke-width="0.102" stroke-linecap="square" />
    <line id="du-595" x1="-18.847" y1="11.157" x2="-18.847" y2="12.019" stroke="black" stroke-width="0.102" stroke-linecap="square" />
    <line id="du-596" x1="-17.907" y1="12.171" x2="-18.472" y2="12.171" stroke="black" stroke-width="0.102" stroke-linecap="square" />
    <line id="du-597" x1="-18.748" y1="12.171" x2="-18.588" y2="12.171" stroke="black" stroke-width="0.102" stroke-linecap="square" />
    <line id="du-598" x1="-21.565" y1="12.171" x2="-19.687" y2="12.171" stroke="black" stroke-width="0.102" stroke-linecap="square" />
    <line id="du-599" x1="-19.443" y1="12.171" x2="-19.563" y2="12.171" stroke="black" stroke-width="0.102" stroke-linecap="square" />
    <line id="du-600" x1="-24.257" y1="12.171" x2="-25.216" y2="12.171" stroke="black" stroke-width="0.102" stroke-linecap="square" />
    <line id="du-601" x1="-25.324" y1="12.171" x2="-25.476" y2="12.171" stroke="black" stroke-width="0.102" stroke-linecap="square" />
    <line id="du-602" x1="-28.067" y1="12.044" x2="-26.46" y2="12.044" stroke="black" stroke-width="0.102" stroke-linecap="square" />
    <line id="du-603" x1="-26.352" y1="12.044" x2="-26.2" y2="12.044" stroke="black" stroke-width="0.102" stroke-linecap="square" />
    <line id="du-604" x1="-10.072" y1="3.232" x2="-10.072" y2="3.149" stroke="black" stroke-width="0.102" stroke-linecap="square" />
    <line id="du-605" x1="-10.174" y1="3.048" x2="-10.631" y2="3.048" stroke="black" stroke-width="0.102" stroke-linecap="square" />
    <line id="du-606" x1="-9.564" y1="3.232" x2="-9.564" y2="3.003" stroke="black" stroke-width="0.102" stroke-linecap="square" />
    <line id="du-607" x1="-9.666" y1="2.902" x2="-10.796" y2="2.902" stroke="black" stroke-width="0.102" stroke-linecap="square" />
    <line id="du-608" x1="-10.733" y1="3.149" x2="-10.733" y2="5.246" stroke="black" stroke-width="0.102" stroke-linecap="square" />
    <line id="du-609" x1="-10.898" y1="3.003" x2="-10.898" y2="4.998" stroke="black" stroke-width="0.102" stroke-linecap="square" />
    <line id="du-610" x1="-10.733" y1="5.378" x2="-10.733" y2="5.518" stroke="black" stroke-width="0.102" stroke-linecap="square" />
    <line id="du-611" x1="-10.733" y1="5.65" x2="-10.733" y2="5.982" stroke="black" stroke-width="0.102" stroke-linecap="square" />
    <line id="du-612" x1="-10.733" y1="6.114" x2="-10.733" y2="6.331" stroke="black" stroke-width="0.102" stroke-linecap="square" />
    <line id="du-613" x1="-10.733" y1="6.463" x2="-10.733" y2="11.9" stroke="black" stroke-width="0.102" stroke-linecap="square" />
    <line id="du-614" x1="-11.311" y1="6.476" x2="-11.311" y2="12.103" stroke="black" stroke-width="0.102" stroke-linecap="square" />
    <line id="du-615" x1="-11.311" y1="6.344" x2="-11.311" y2="6.13" stroke="black" stroke-width="0.102" stroke-linecap="square" />
    <line id="du-616" x1="-11.311" y1="5.998" x2="-11.311" y2="5.711" stroke="black" stroke-width="0.102" stroke-linecap="square" />
    <line id="du-617" x1="-10.943" y1="5.105" x2="-11.195" y2="5.358" stroke="black" stroke-width="0.102" stroke-linecap="square" />
    <line id="du-618" x1="-11.279" y1="5.442" x2="-11.295" y2="5.458" stroke="black" stroke-width="0.102" stroke-linecap="square" />
    <line id="du-619" x1="-11.311" y1="5.492" x2="-11.311" y2="5.579" stroke="black" stroke-width="0.102" stroke-linecap="square" />
    <line id="du-620" x1="-11.159" y1="12.256" x2="-10.967" y2="12.256" stroke="black" stroke-width="0.102" stroke-linecap="square" />
    <line id="du-621" x1="-10.833" y1="12.256" x2="-10.669" y2="12.256" stroke="black" stroke-width="0.102" stroke-linecap="square" />
    <line id="du-622" x1="-10.688" y1="12.008" x2="-10.485" y2="12.211" stroke="black" stroke-width="0.102" stroke-linecap="square" />
    <line id="du-623" x1="-10.377" y1="12.256" x2="-7.336" y2="12.256" stroke="black" stroke-width="0.102" stroke-linecap="square" />
    <line id="du-624" x1="-7.228" y1="12.256" x2="-6.893" y2="12.256" stroke="black" stroke-width="0.102" stroke-linecap="square" />
    <line id="du-625" x1="-6.785" y1="12.408" x2="-6.785" y2="13.037" stroke="black" stroke-width="0.102" stroke-linecap="square" />
    <line id="du-626" x1="-10.072" y1="6.54" x2="-10.072" y2="11.851" stroke="black" stroke-width="0.203" stroke-linecap="square" />
    <line id="du-627" x1="-10.072" y1="4.759" x2="-10.072" y2="4.662" stroke="black" stroke-width="0.203" stroke-linecap="square" />
    <line id="du-628" x1="-10.072" y1="5.424" x2="-10.072" y2="5.512" stroke="black" stroke-width="0.203" stroke-linecap="square" />
    <line id="du-629" x1="-10.072" y1="5.776" x2="-10.072" y2="5.924" stroke="black" stroke-width="0.203" stroke-linecap="square" />
    <line id="du-630" x1="-10.072" y1="6.276" x2="-10.072" y2="6.188" stroke="black" stroke-width="0.203" stroke-linecap="square" />
    <line id="du-631" x1="-10.072" y1="4.911" x2="-10.072" y2="4.911" stroke="black" stroke-width="0.203" stroke-linecap="square" />
    <line id="du-632" x1="-10.072" y1="5.16" x2="-10.072" y2="5.063" stroke="black" stroke-width="0.203" stroke-linecap="square" />
    <line id="du-633" x1="-9.564" y1="6.643" x2="-9.564" y2="6.581" stroke="black" stroke-width="0.203" stroke-linecap="square" />
    <line id="du-634" x1="-9.26" y1="6.948" x2="-7.278" y2="6.948" stroke="black" stroke-width="0.203" stroke-linecap="square" />
    <line id="du-635" x1="-6.974" y1="7.253" x2="-6.974" y2="11.851" stroke="black" stroke-width="0.203" stroke-linecap="square" />
    <line id="du-636" x1="-9.564" y1="4.662" x2="-9.564" y2="5.16" stroke="black" stroke-width="0.203" stroke-linecap="square" />
    <line id="du-637" x1="-9.564" y1="5.776" x2="-9.564" y2="6.153" stroke="black" stroke-width="0.203" stroke-linecap="square" />
    <line id="du-638" x1="-9.564" y1="5.424" x2="-9.564" y2="5.512" stroke="black" stroke-width="0.203" stroke-linecap="square" />
    <line id="du-639" x1="-9.564" y1="6.428" x2="-9.564" y2="6.306" stroke="black" stroke-width="0.203" stroke-linecap="square" />
    <line id="du-640" x1="8.638" y1="6.92" x2="8.638" y2="5.742" stroke="black" stroke-width="0.203" stroke-linecap="square" />
    <line id="du-641" x1="8.13" y1="6.358" x2="8.13" y2="6.721" stroke="black" stroke-width="0.203" stroke-linecap="square" />
    <line id="du-642" x1="8.13" y1="4.312" x2="8.13" y2="4.287" stroke="black" stroke-width="0.102" stroke-linecap="square" />
    <line id="du-643" x1="8.638" y1="4.312" x2="8.638" y2="4.287" stroke="black" stroke-width="0.102" stroke-linecap="square" />
    <line id="du-644" x1="7.978" y1="4.134" x2="7.063" y2="4.134" stroke="black" stroke-width="0.102" stroke-linecap="square" />
    <line id="du-645" x1="6.911" y1="4.287" x2="6.911" y2="7.119" stroke="black" stroke-width="0.102" stroke-linecap="square" />
    <line id="du-646" x1="8.791" y1="4.134" x2="9.146" y2="4.134" stroke="black" stroke-width="0.102" stroke-linecap="square" />
    <line id="du-647" x1="9.299" y1="4.287" x2="9.299" y2="7.234" stroke="black" stroke-width="0.102" stroke-linecap="square" />
    <line id="du-648" x1="2.034" y1="7.767" x2="5.756" y2="7.767" stroke="black" stroke-width="0.102" stroke-linecap="square" />
    <line id="du-649" x1="6.866" y1="7.227" x2="6.378" y2="7.715" stroke="black" stroke-width="0.102" stroke-linecap="square" />
    <line id="du-650" x1="9.705" y1="9.857" x2="8.283" y2="9.857" stroke="black" stroke-width="0.203" stroke-linecap="square" />
    <line id="du-651" x1="8.943" y1="7.767" x2="10.595" y2="7.767" stroke="black" stroke-width="0.203" stroke-linecap="square" />
    <line id="du-652" x1="8.638" y1="7.462" x2="8.638" y2="7.416" stroke="black" stroke-width="0.203" stroke-linecap="square" />
    <line id="du-653" x1="8.638" y1="7.2" x2="8.638" y2="7.135" stroke="black" stroke-width="0.203" stroke-linecap="square" />
    <line id="du-654" x1="9.767" y1="12.41" x2="10.024" y2="12.153" stroke="black" stroke-width="0.102" stroke-linecap="square" />
    <line id="du-655" x1="10.066" y1="12.016" x2="10.066" y2="7.539" stroke="black" stroke-width="0.102" stroke-linecap="square" />
    <line id="du-656" x1="9.947" y1="7.387" x2="9.418" y2="7.387" stroke="black" stroke-width="0.102" stroke-linecap="square" />
    <line id="du-657" x1="11.422" y1="8.593" x2="11.422" y2="11.577" stroke="black" stroke-width="0.203" stroke-linecap="square" />
    <line id="du-658" x1="11.332" y1="8.378" x2="10.81" y2="7.856" stroke="black" stroke-width="0.203" stroke-linecap="square" />
    <line id="du-659" x1="8.13" y1="6.936" x2="8.13" y2="6.986" stroke="black" stroke-width="0.203" stroke-linecap="square" />
    <line id="du-660" x1="8.13" y1="9.705" x2="8.13" y2="7.202" stroke="black" stroke-width="0.203" stroke-linecap="square" />
    <line id="du-661" x1="1.882" y1="7.919" x2="1.882" y2="12.078" stroke="black" stroke-width="0.102" stroke-linecap="square" />
    <line id="du-662" x1="6.262" y1="7.767" x2="5.827" y2="7.767" stroke="black" stroke-width="0.102" stroke-linecap="square" />
    <line id="du-663" x1="1.882" y1="12.186" x2="1.882" y2="12.376" stroke="black" stroke-width="0.102" stroke-linecap="square" />
    <line id="du-664" x1="4.133" y1="9.401" x2="4.133" y2="3.057" stroke="black" stroke-width="0.203" stroke-linecap="square" />
    <line id="du-665" x1="4.286" y1="9.857" x2="7.978" y2="9.857" stroke="black" stroke-width="0.203" stroke-linecap="square" />
    <line id="du-666" x1="2.644" y1="9.857" x2="3.981" y2="9.857" stroke="black" stroke-width="0.203" stroke-linecap="square" />
    <line id="du-667" x1="4.133" y1="9.554" x2="4.133" y2="9.725" stroke="black" stroke-width="0.203" stroke-linecap="square" />
    <line id="du-668" x1="8.13" y1="6.231" x2="8.13" y2="6.231" stroke="black" stroke-width="0.152" stroke-linecap="square" />
    <line id="du-669" x1="8.13" y1="5.742" x2="8.13" y2="6.104" stroke="black" stroke-width="0.203" stroke-linecap="square" />
    <line id="du-670" x1="8.13" y1="6.079" x2="8.13" y2="5.927" stroke="black" stroke-width="0.152" stroke-linecap="square" />
    <line id="du-671" x1="14.518" y1="4.683" x2="14.518" y2="5.984" stroke="black" stroke-width="0.203" stroke-linecap="square" />
    <line id="du-672" x1="14.01" y1="5.681" x2="14.01" y2="12.151" stroke="black" stroke-width="0.203" stroke-linecap="square" />
    <line id="du-673" x1="14.518" y1="3.253" x2="14.518" y2="3.119" stroke="black" stroke-width="0.102" stroke-linecap="square" />
    <line id="du-674" x1="14.01" y1="3.253" x2="14.01" y2="3.119" stroke="black" stroke-width="0.102" stroke-linecap="square" />
    <line id="du-675" x1="18.059" y1="6.289" x2="15.03" y2="6.289" stroke="black" stroke-width="0.203" stroke-linecap="square" />
    <line id="du-676" x1="18.274" y1="6.378" x2="19.019" y2="7.122" stroke="black" stroke-width="0.203" stroke-linecap="square" />
    <line id="du-677" x1="19.105" y1="7.378" x2="18.497" y2="11.998" stroke="black" stroke-width="0.203" stroke-linecap="square" />
    <line id="du-678" x1="14.795" y1="6.289" x2="14.903" y2="6.289" stroke="black" stroke-width="0.203" stroke-linecap="square" />
    <line id="du-679" x1="14.01" y1="5.554" x2="14.01" y2="5.554" stroke="black" stroke-width="0.152" stroke-linecap="square" />
    <line id="du-680" x1="14.01" y1="5.125" x2="14.01" y2="5.427" stroke="black" stroke-width="0.203" stroke-linecap="square" />
    <line id="du-681" x1="14.01" y1="5.325" x2="14.01" y2="4.995" stroke="black" stroke-width="0.152" stroke-linecap="square" />
    <line id="du-682" x1="14.449" y1="4.998" x2="16.044" y2="4.998" stroke="black" stroke-width="0.152" stroke-linecap="square" />
    <line id="du-683" x1="16.272" y1="4.77" x2="16.272" y2="3.525" stroke="black" stroke-width="0.152" stroke-linecap="square" />
    <line id="du-684" x1="13.857" y1="2.966" x2="13.146" y2="2.966" stroke="black" stroke-width="0.102" stroke-linecap="square" />
    <line id="du-685" x1="12.994" y1="6.229" x2="12.994" y2="6.016" stroke="black" stroke-width="0.102" stroke-linecap="square" />
    <line id="du-686" x1="12.994" y1="3.074" x2="12.994" y2="3.2" stroke="black" stroke-width="0.102" stroke-linecap="square" />
    <line id="du-687" x1="12.994" y1="5.872" x2="12.994" y2="3.307" stroke="black" stroke-width="0.102" stroke-linecap="square" />
    <line id="du-688" x1="12.994" y1="6.372" x2="12.994" y2="11.961" stroke="black" stroke-width="0.102" stroke-linecap="square" />
    <line id="du-689" x1="13.062" y1="12.102" x2="13.467" y2="12.336" stroke="black" stroke-width="0.102" stroke-linecap="square" />
    <line id="du-690" x1="13.535" y1="12.476" x2="13.535" y2="13.037" stroke="black" stroke-width="0.102" stroke-linecap="square" />
    <line id="du-691" x1="14.67" y1="2.966" x2="17.193" y2="2.966" stroke="black" stroke-width="0.102" stroke-linecap="square" />
    <line id="du-692" x1="17.345" y1="6.776" x2="17.345" y2="12.027" stroke="black" stroke-width="0.102" stroke-linecap="square" />
    <line id="du-693" x1="17.345" y1="3.119" x2="17.345" y2="6.307" stroke="black" stroke-width="0.102" stroke-linecap="square" />
    <line id="du-694" x1="17.345" y1="12.159" x2="17.345" y2="12.364" stroke="black" stroke-width="0.102" stroke-linecap="square" />
    <line id="du-695" x1="17.345" y1="6.439" x2="17.345" y2="6.645" stroke="black" stroke-width="0.102" stroke-linecap="square" />
    <line id="du-872" x1="-5.406" y1="6.944" x2="-3.089" y2="6.944" stroke="black" stroke-width="0.203" stroke-linecap="square" />
    <line id="du-873" x1="-5.803" y1="6.459" x2="-5.582" y2="6.842" stroke="black" stroke-width="0.203" stroke-linecap="square" />
    <line id="du-874" x1="-2.886" y1="6.679" x2="-2.886" y2="5.282" stroke="black" stroke-width="0.152" stroke-linecap="square" />
    <line id="du-967" x1="-17.755" y1="13.037" x2="-17.755" y2="12.324" stroke="black" stroke-width="0.102" stroke-linecap="square" />
    <line id="du-968" x1="-24.105" y1="13.037" x2="-24.105" y2="12.324" stroke="black" stroke-width="0.102" stroke-linecap="square" />
    <line id="du-975" x1="-11.16" y1="-3.545" x2="-11.16" y2="-3.482" stroke="black" stroke-width="0.203" stroke-linecap="square" />
    <line id="du-976" x1="-11.16" y1="-3.85" x2="-11.16" y2="-4.075" stroke="black" stroke-width="0.203" stroke-linecap="square" />
    <line id="du-977" x1="-11.463" y1="-3.698" x2="-11.292" y2="-3.698" stroke="black" stroke-width="0.203" stroke-linecap="square" />
    <line id="du-979" x1="1.882" y1="13.037" x2="1.882" y2="12.484" stroke="black" stroke-width="0.102" stroke-linecap="square" />
    <line id="du-983" x1="14.318" y1="4.998" x2="14.134" y2="4.998" stroke="black" stroke-width="0.152" stroke-linecap="square" />
    <line id="du-984" x1="14.01" y1="4.683" x2="14.01" y2="4.871" stroke="black" stroke-width="0.203" stroke-linecap="square" />
    <line id="du-987" x1="4.866" y1="-3.596" x2="4.971" y2="-3.596" stroke="black" stroke-width="0.203" stroke-linecap="square" />
    <line id="du-988" x1="5.096" y1="-3.329" x2="5.096" y2="-3.444" stroke="black" stroke-width="0.203" stroke-linecap="square" />
    <line id="du-1023" x1="3.683" y1="-9.508" x2="3.683" y2="-8.301" stroke="black" stroke-width="0.102" stroke-linecap="square" />
    <line id="du-1024" x1="16.142" y1="-9.048" x2="15.752" y2="-6.088" stroke="black" stroke-width="0.102" stroke-linecap="square" />
    <line id="du-1025" x1="17.345" y1="13.043" x2="17.345" y2="12.496" stroke="black" stroke-width="0.102" stroke-linecap="square" />
    <line id="du-1026" x1="9.725" y1="13.043" x2="9.725" y2="12.547" stroke="black" stroke-width="0.102" stroke-linecap="square" />
    <line id="du-1027" x1="-10.595" y1="13.043" x2="-10.595" y2="12.408" stroke="black" stroke-width="0.102" stroke-linecap="square" />
    <line id="du-1028" x1="-21.717" y1="13.043" x2="-21.717" y2="12.324" stroke="black" stroke-width="0.102" stroke-linecap="square" />
    <line id="du-1029" x1="-28.219" y1="13.043" x2="-28.219" y2="12.197" stroke="black" stroke-width="0.102" stroke-linecap="square" />
  </g>
</svg>