<?xml version="1.0" encoding="utf-8"?>
<svg xmlns="http://www.w3.org/2000/svg" viewBox="-33.918 -13.687 55.2 23.839">
  <g transform="scale(1,-1)">
    <rect id="tm-164" x="16.445" y="-7.722" width="0.3" height="0.3" fill="black" transform="rotate(269.755,16.595,-7.572)" />
    <rect id="tm-165" x="14.323" y="-8.002" width="0.3" height="0.3" fill="black" transform="rotate(269.755,14.473,-7.852)" />
    <rect id="tm-166" x="18.402" y="-7.465" width="0.3" height="0.3" fill="black" transform="rotate(269.755,18.552,-7.315)" />
    <rect id="tm-167" x="19.36" y="-6.551" width="0.3" height="0.3" fill="black" transform="rotate(120,19.51,-6.401)" />
    <rect id="tm-168" x="19.36" y="-5.243" width="0.3" height="0.3" fill="black" transform="rotate(120,19.51,-5.093)" />
    <rect id="tm-169" x="19.36" y="-3.566" width="0.3" height="0.3" fill="black" transform="rotate(120,19.51,-3.416)" />
    <rect id="tm-171" x="3.381" y="-7.991" width="0.3" height="0.3" fill="black" transform="rotate(90,3.531,-7.841)" />
    <rect id="tm-172" x="7.648" y="-7.991" width="0.3" height="0.3" fill="black" transform="rotate(180,7.798,-7.841)" />
    <rect id="tm-173" x="6.429" y="-7.991" width="0.3" height="0.3" fill="black" transform="rotate(180,6.579,-7.841)" />
    <rect id="tm-174" x="4.6" y="-7.991" width="0.3" height="0.3" fill="black" transform="rotate(90,4.75,-7.841)" />
    <rect id="tm-175" x="5.047" y="-6.792" width="0.3" height="0.3" fill="black" transform="rotate(120,5.197,-6.642)" />
    <rect id="tm-176" x="5.047" y="-5.446" width="0.3" height="0.3" fill="black" transform="rotate(120,5.197,-5.296)" />
    <rect id="tm-177" x="4.844" y="-5.446" width="0.3" height="0.3" fill="black" transform="rotate(120,4.994,-5.296)" />
    <rect id="tm-178" x="4.844" y="-6.792" width="0.3" height="0.3" fill="black" transform="rotate(120,4.994,-6.642)" />
    <rect id="tm-180" x="8.121" y="-2.728" width="0.3" height="0.3" fill="black" transform="rotate(240,8.271,-2.578)" />
    <rect id="tm-181" x="8.121" y="-1.331" width="0.3" height="0.3" fill="black" transform="rotate(240,8.271,-1.181)" />
    <rect id="tm-182" x="2.596" y="-2.775" width="0.3" height="0.3" fill="black" transform="rotate(240,2.746,-2.625)" />
    <rect id="tm-183" x="2.596" y="-1.186" width="0.3" height="0.3" fill="black" transform="rotate(240,2.746,-1.036)" />
    <rect id="tm-184" x="8.861" y="-7.991" width="0.3" height="0.3" fill="black" transform="rotate(180,9.011,-7.841)" />
    <rect id="tm-185" x="10.078" y="-7.991" width="0.3" height="0.3" fill="black" transform="rotate(180,10.228,-7.841)" />
    <rect id="tm-187" x="-12.875" y="-7.991" width="0.3" height="0.3" fill="black" transform="rotate(90,-12.725,-7.841)" />
    <rect id="tm-188" x="-8.608" y="-7.991" width="0.3" height="0.3" fill="black" transform="rotate(180,-8.458,-7.841)" />
    <rect id="tm-189" x="-9.827" y="-7.991" width="0.3" height="0.3" fill="black" transform="rotate(180,-9.677,-7.841)" />
    <rect id="tm-190" x="-11.656" y="-7.991" width="0.3" height="0.3" fill="black" transform="rotate(90,-11.506,-7.841)" />
    <rect id="tm-191" x="-11.209" y="-6.792" width="0.3" height="0.3" fill="black" transform="rotate(120,-11.059,-6.642)" />
    <rect id="tm-192" x="-11.209" y="-5.446" width="0.3" height="0.3" fill="black" transform="rotate(120,-11.059,-5.296)" />
    <rect id="tm-193" x="-11.412" y="-5.446" width="0.3" height="0.3" fill="black" transform="rotate(120,-11.262,-5.296)" />
    <rect id="tm-194" x="-11.412" y="-6.792" width="0.3" height="0.3" fill="black" transform="rotate(120,-11.262,-6.642)" />
    <rect id="tm-196" x="-8.135" y="-2.728" width="0.3" height="0.3" fill="black" transform="rotate(240,-7.985,-2.578)" />
    <rect id="tm-197" x="-8.135" y="-1.331" width="0.3" height="0.3" fill="black" transform="rotate(240,-7.985,-1.181)" />
    <rect id="tm-198" x="-13.66" y="-2.775" width="0.3" height="0.3" fill="black" transform="rotate(240,-13.51,-2.625)" />
    <rect id="tm-199" x="-13.66" y="-1.186" width="0.3" height="0.3" fill="black" transform="rotate(240,-13.51,-1.036)" />
    <rect id="tm-201" x="-29.608" y="-0.893" width="0.3" height="0.3" fill="black" transform="rotate(107.017,-29.458,-0.743)" />
    <rect id="tm-202" x="-29.793" y="-0.809" width="0.3" height="0.3" fill="black" transform="rotate(107.017,-29.643,-0.659)" />
    <rect id="tm-203" x="-30.704" y="1.449" width="0.3" height="0.3" fill="black" transform="rotate(90,-30.554,1.599)" />
    <rect id="tm-204" x="-28.037" y="1.449" width="0.3" height="0.3" fill="black" transform="rotate(90,-27.887,1.599)" />
    <rect id="tm-205" x="-26.348" y="3.114" width="0.3" height="0.3" fill="black" transform="rotate(120,-26.198,3.264)" />
    <rect id="tm-206" x="-26.348" y="4.562" width="0.3" height="0.3" fill="black" transform="rotate(120,-26.198,4.712)" />
    <rect id="tm-207" x="-26.145" y="3.844" width="0.3" height="0.3" fill="black" transform="rotate(120,-25.995,3.994)" />
    <rect id="tm-208" x="-25.836" y="8.804" width="0.3" height="0.3" fill="black" transform="rotate(120,-25.686,8.954)" />
    <rect id="tm-209" x="-25.632" y="8.169" width="0.3" height="0.3" fill="black" transform="rotate(120,-25.482,8.319)" />
    <rect id="tm-210" x="-17.572" y="-0.737" width="0.3" height="0.3" fill="black" transform="rotate(107.017,-17.422,-0.587)" />
    <rect id="tm-211" x="-17.757" y="-0.652" width="0.3" height="0.3" fill="black" transform="rotate(107.017,-17.607,-0.502)" />
    <rect id="tm-212" x="-23.138" y="-0.652" width="0.3" height="0.3" fill="black" transform="rotate(107.017,-22.988,-0.502)" />
    <rect id="tm-213" x="-22.953" y="-0.737" width="0.3" height="0.3" fill="black" transform="rotate(107.017,-22.803,-0.587)" />
    <rect id="tm-214" x="-24.057" y="1.449" width="0.3" height="0.3" fill="black" transform="rotate(180,-23.907,1.599)" />
    <rect id="tm-215" x="-21.06" y="1.449" width="0.3" height="0.3" fill="black" transform="rotate(90,-20.91,1.599)" />
    <rect id="tm-216" x="-18.23" y="1.449" width="0.3" height="0.3" fill="black" transform="rotate(90,-18.08,1.599)" />
    <rect id="tm-217" x="-19.098" y="3.114" width="0.3" height="0.3" fill="black" transform="rotate(120,-18.948,3.264)" />
    <rect id="tm-218" x="-19.098" y="4.562" width="0.3" height="0.3" fill="black" transform="rotate(120,-18.948,4.712)" />
    <rect id="tm-219" x="-18.895" y="3.843" width="0.3" height="0.3" fill="black" transform="rotate(120,-18.745,3.993)" />
    <rect id="tm-220" x="-19.098" y="8.804" width="0.3" height="0.3" fill="black" transform="rotate(120,-18.948,8.954)" />
    <rect id="tm-221" x="-18.895" y="8.168" width="0.3" height="0.3" fill="black" transform="rotate(120,-18.745,8.318)" />
    <rect id="tm-226" x="-10.121" y="11.14" width="0.3" height="0.3" fill="black" transform="rotate(240,-9.971,11.29)" />
    <rect id="tm-227" x="-10.121" y="7.381" width="0.3" height="0.3" fill="black" transform="rotate(240,-9.971,7.531)" />
    <rect id="tm-228" x="-10.121" y="9.21" width="0.3" height="0.3" fill="black" transform="rotate(240,-9.971,9.36)" />
    <rect id="tm-229" x="-10.324" y="9.21" width="0.3" height="0.3" fill="black" transform="rotate(240,-10.174,9.36)" />
    <rect id="tm-230" x="2.822" y="9.605" width="0.3" height="0.3" fill="black" transform="rotate(90,2.972,9.755)" />
    <rect id="tm-231" x="2.822" y="9.809" width="0.3" height="0.3" fill="black" transform="rotate(90,2.972,9.959)" />
    <rect id="tm-232" x="4.907" y="9.605" width="0.3" height="0.3" fill="black" transform="rotate(90,5.057,9.755)" />
    <rect id="tm-233" x="4.907" y="9.809" width="0.3" height="0.3" fill="black" transform="rotate(90,5.057,9.959)" />
    <rect id="tm-234" x="6.937" y="9.809" width="0.3" height="0.3" fill="black" transform="rotate(90,7.087,9.959)" />
    <rect id="tm-235" x="6.937" y="9.605" width="0.3" height="0.3" fill="black" transform="rotate(90,7.087,9.755)" />
    <rect id="tm-236" x="9.098" y="9.809" width="0.3" height="0.3" fill="black" transform="rotate(270,9.248,9.959)" />
    <rect id="tm-237" x="9.098" y="9.605" width="0.3" height="0.3" fill="black" transform="rotate(90,9.248,9.755)" />
    <rect id="tm-239" x="4.085" y="7.728" width="0.3" height="0.3" fill="black" transform="rotate(240,4.235,7.878)" />
    <rect id="tm-240" x="4.085" y="4.282" width="0.3" height="0.3" fill="black" transform="rotate(120,4.235,4.432)" />
    <rect id="tm-242" x="13.961" y="6.855" width="0.3" height="0.3" fill="black" transform="rotate(240,14.111,7.005)" />
    <rect id="tm-243" x="13.961" y="8.531" width="0.3" height="0.3" fill="black" transform="rotate(240,14.111,8.681)" />
    <rect id="tm-244" x="13.961" y="9.903" width="0.3" height="0.3" fill="black" transform="rotate(240,14.111,10.053)" />
    <rect id="tm-245" x="13.961" y="11.579" width="0.3" height="0.3" fill="black" transform="rotate(240,14.111,11.729)" />
    <rect id="tm-247" x="16.198" y="3.693" width="0.3" height="0.3" fill="black" transform="rotate(120,16.348,3.843)" />
    <rect id="tm-404" x="-12.86" y="-9.043" width="0.3" height="0.3" fill="black" transform="rotate(270,-12.71,-8.893)" />
    <rect id="tm-405" x="-14.682" y="-6.491" width="0.3" height="0.3" fill="black" transform="rotate(120,-14.532,-6.341)" />
    <rect id="tm-406" x="-14.682" y="-5.446" width="0.3" height="0.3" fill="black" transform="rotate(120,-14.532,-5.296)" />
    <rect id="tm-407" x="-14.682" y="-7.529" width="0.3" height="0.3" fill="black" transform="rotate(120,-14.532,-7.379)" />
    <rect id="tm-408" x="-13.152" y="-4.479" width="0.3" height="0.3" fill="black" transform="rotate(90,-13.002,-4.329)" />
    <rect id="tm-409" x="3.533" y="-9.652" width="0.3" height="0.3" fill="black" transform="rotate(90,3.683,-9.502)" />
    <rect id="tm-410" x="15.991" y="-9.191" width="0.3" height="0.3" fill="black" transform="rotate(90.245,16.141,-9.041)" />
    <rect id="tm-411" x="15.956" y="-6.005" width="0.3" height="0.3" fill="black" transform="rotate(120,16.106,-5.855)" />
    <rect id="tm-412" x="15.956" y="-4.336" width="0.3" height="0.3" fill="black" transform="rotate(120,16.106,-4.186)" />
    <rect id="tm-413" x="17.404" y="-3.617" width="0.3" height="0.3" fill="black" transform="rotate(90,17.554,-3.467)" />
    <rect id="tm-414" x="18.55" y="9.525" width="0.3" height="0.3" fill="black" transform="rotate(244.231,18.7,9.675)" />
    <rect id="tm-415" x="18.325" y="11.233" width="0.3" height="0.3" fill="black" transform="rotate(244.231,18.475,11.383)" />
    <rect id="tm-416" x="18.758" y="7.948" width="0.3" height="0.3" fill="black" transform="rotate(244.231,18.908,8.098)" />
    <rect id="tm-417" x="16.394" y="6.241" width="0.3" height="0.3" fill="black" transform="rotate(270,16.544,6.391)" />
    <rect id="tm-418" x="17.195" y="12.887" width="0.3" height="0.3" fill="black" transform="rotate(180,17.345,13.037)" />
    <rect id="tm-419" x="11.17" y="10.891" width="0.3" height="0.3" fill="black" transform="rotate(240,11.32,11.041)" />
    <rect id="tm-420" x="11.17" y="8.981" width="0.3" height="0.3" fill="black" transform="rotate(240,11.32,9.131)" />
    <rect id="tm-421" x="9.619" y="7.718" width="0.3" height="0.3" fill="black" transform="rotate(180,9.769,7.868)" />
    <rect id="tm-422" x="9.575" y="12.887" width="0.3" height="0.3" fill="black" transform="rotate(180,9.725,13.037)" />
    <rect id="tm-423" x="-8.419" y="6.899" width="0.3" height="0.3" fill="black" transform="rotate(180,-8.269,7.049)" />
    <rect id="tm-424" x="-7.225" y="7.554" width="0.3" height="0.3" fill="black" transform="rotate(240,-7.075,7.704)" />
    <rect id="tm-425" x="-7.225" y="9.402" width="0.3" height="0.3" fill="black" transform="rotate(240,-7.075,9.552)" />
    <rect id="tm-426" x="-7.225" y="11.14" width="0.3" height="0.3" fill="black" transform="rotate(240,-7.075,11.29)" />
    <rect id="tm-427" x="-10.745" y="12.887" width="0.3" height="0.3" fill="black" transform="rotate(180,-10.595,13.037)" />
    <rect id="tm-428" x="-17.959" y="9.145" width="0.3" height="0.3" fill="black" transform="rotate(90,-17.809,9.295)" />
    <rect id="tm-429" x="-16.42" y="8.702" width="0.3" height="0.3" fill="black" transform="rotate(148.6,-16.27,8.852)" />
    <rect id="tm-430" x="-15.977" y="7.103" width="0.3" height="0.3" fill="black" transform="rotate(120,-15.827,7.253)" />
    <rect id="tm-431" x="-15.977" y="1.742" width="0.3" height="0.3" fill="black" transform="rotate(120,-15.827,1.892)" />
    <rect id="tm-432" x="-15.977" y="3.843" width="0.3" height="0.3" fill="black" transform="rotate(120,-15.827,3.993)" />
    <rect id="tm-433" x="-15.977" y="5.429" width="0.3" height="0.3" fill="black" transform="rotate(120,-15.827,5.579)" />
    <rect id="tm-434" x="-21.867" y="12.887" width="0.3" height="0.3" fill="black" transform="rotate(180,-21.717,13.037)" />
    <rect id="tm-435" x="-28.369" y="12.887" width="0.3" height="0.3" fill="black" transform="rotate(180,-28.219,13.037)" />
    <rect id="tm-436" x="-26.899" y="8.59" width="0.3" height="0.3" fill="black" transform="rotate(211.4,-26.749,8.74)" />
    <rect id="tm-437" x="-27.311" y="7.133" width="0.3" height="0.3" fill="black" transform="rotate(120,-27.161,7.283)" />
    <rect id="tm-438" x="-30.251" y="5.133" width="0.3" height="0.3" fill="black" transform="rotate(90,-30.101,5.283)" />
    <rect id="tm-439" x="-28.585" y="5.133" width="0.3" height="0.3" fill="black" transform="rotate(90,-28.435,5.283)" />
    <rect id="tm-440" x="-31.885" y="5.133" width="0.3" height="0.3" fill="black" transform="rotate(90,-31.735,5.283)" />
    <rect id="tm-441" x="-33.418" y="3.844" width="0.3" height="0.3" fill="black" transform="rotate(120,-33.268,3.994)" />
    <rect id="tm-442" x="-33.418" y="2.13" width="0.3" height="0.3" fill="black" transform="rotate(120,-33.268,2.28)" />
    <rect id="tm-485" x="3.104" y="-4.479" width="0.3" height="0.3" fill="black" transform="rotate(90,3.254,-4.329)" />
    <rect id="tm-486" x="1.574" y="-5.446" width="0.3" height="0.3" fill="black" transform="rotate(120,1.724,-5.296)" />
    <rect id="tm-487" x="1.574" y="-7.387" width="0.3" height="0.3" fill="black" transform="rotate(120,1.724,-7.237)" />
  </g>
</svg>