<?xml version="1.0" encoding="utf-8"?>
<svg xmlns="http://www.w3.org/2000/svg" viewBox="-34.485 -31.672 64.597 49.853">
  <g transform="scale(1,-1)">
    <line id="d-7" data-host="w-414" x1="13.379" y1="0.724" x2="13.379" y2="0.724" stroke="white" stroke-width="0.325" />
    <line id="d-24" data-host="w-835" x1="-10.478" y1="-0.629" x2="-10.478" y2="-0.629" stroke="white" stroke-width="0.204" />
    <line id="d-26" data-host="w-831" x1="7.794" y1="3.981" x2="7.794" y2="3.981" stroke="white" stroke-width="0.204" />
    <line id="d-27" data-host="w-67" x1="-8.886" y1="0.76" x2="-8.886" y2="0.76" stroke="white" stroke-width="0.176" />
    <line id="d-28" data-host="w-80" x1="6.631" y1="2.745" x2="6.631" y2="2.745" stroke="white" stroke-width="0.176" />
    <line id="d-47" data-host="w-1030" x1="-9.112" y1="4.975" x2="-9.112" y2="4.975" stroke="white" stroke-width="0.204" />
    <line id="d-48" data-host="w-65" x1="-7.269" y1="2.745" x2="-7.269" y2="2.745" stroke="white" stroke-width="0.176" />
    <line id="d-52" data-host="w-216" x1="-4.653" y1="5.09" x2="-4.653" y2="5.09" stroke="white" stroke-width="0.144" />
    <line id="d-54" data-host="w-225" x1="14.572" y1="2.077" x2="14.572" y2="2.077" stroke="white" stroke-width="0.144" />
    <line id="d-64" data-host="w-250" x1="-12.968" y1="5.855" x2="-12.968" y2="5.855" stroke="white" stroke-width="0.325" />
    <line id="d-69" data-host="w-365" x1="1.092" y1="4.888" x2="1.092" y2="4.888" stroke="white" stroke-width="0.318" />
    <line id="d-85" data-host="w-65" x1="-5.43" y1="2.745" x2="-5.43" y2="2.745" stroke="white" stroke-width="0.176" />
    <line id="d-92" data-host="w-136" x1="6.772" y1="6.723" x2="6.772" y2="6.723" stroke="white" stroke-width="0.144" />
    <line id="d-97" data-host="w-440" x1="-12.068" y1="1.429" x2="-12.068" y2="1.429" stroke="white" stroke-width="0.16" />
    <line id="d-117" data-host="w-114" x1="-9.306" y1="-3.37" x2="-9.306" y2="-3.37" stroke="white" stroke-width="0.144" />
    <line id="d-132" data-host="w-706" x1="3.369" y1="12.87" x2="3.369" y2="12.87" stroke="white" stroke-width="0.341" />
  </g>
</svg>