<?xml version="1.0" encoding="utf-8"?>
<svg xmlns="http://www.w3.org/2000/svg" viewBox="-33.717 -14.749 49.489 18.827">
  <g transform="scale(1,-1)">
    <polygon id="sl-5" points="-32.099,7.861 -33.217,7.861 -33.217,6.013 -30.677,6.013 -30.677,7.83 -31.794,7.83 -31.794,7.296 -32.099,7.296" fill="rgba(128,128,128,0.2)" stroke="gray" stroke-width="0.05" />
    <polygon id="sl-10" points="-8.401,2.823 -8.401,6.353 -11.922,6.353 -11.922,2.823" fill="rgba(128,128,128,0.2)" stroke="gray" stroke-width="0.05" />
    <polygon id="sl-13" points="-13.735,8.039 -14.853,8.039 -14.853,6.013 -13.475,6.013 -12.459,6.013 -12.313,6.013 -12.313,7.633 -13.437,7.633 -13.735,7.633" fill="rgba(128,128,128,0.2)" stroke="gray" stroke-width="0.05" />
    <polygon id="sl-63" points="2.121,6.642 1.486,6.642" fill="rgba(128,128,128,0.2)" stroke="gray" stroke-width="0.05" />
    <polygon id="sl-77" points="14.154,-1.232 15.272,-1.232 15.272,0.565 13.894,0.565 12.878,0.565 12.732,0.565 12.732,-0.921 13.849,-0.921 13.849,-0.692 14.154,-0.692" fill="rgba(128,128,128,0.2)" stroke="gray" stroke-width="0.05" />
    <polygon id="sl-82" points="3.989,14.249 2.74,14.249 2.74,13.03 5.28,13.03 5.28,14.249" fill="rgba(128,128,128,0.2)" stroke="gray" stroke-width="0.05" />
    <polygon id="sl-111" points="-1.918,6.471 -4.788,6.471 -4.788,5.988 -4.788,5.721 -4.788,2.823 -4.788,2.791 -1.629,2.791 -1.568,2.791 -1.568,5.69 -1.918,5.69" fill="rgba(128,128,128,0.2)" stroke="gray" stroke-width="0.05" />
    <polygon id="sl-113" points="10.69,3.997 10.69,5.715 10.69,5.982 10.69,6.956 5.42,6.956 5.42,3.997" fill="rgba(128,128,128,0.2)" stroke="gray" stroke-width="0.05" />
    <polygon id="sl-117" points="-8.112,-3.578 -8.112,-0.645 -13.383,-0.645 -13.383,-3.578" fill="rgba(128,128,128,0.2)" stroke="gray" stroke-width="0.05" />
    <polygon id="sl-138" points="-9.188,2.791 -6.29,2.791 -6.29,12.71 -6.29,12.725 -12.002,12.725 -12.002,12.71 -12.002,5.582 -9.188,5.582" fill="rgba(128,128,128,0.2)" stroke="gray" stroke-width="0.05" />
    <polygon id="sl-139" points="-12.002,2.791 -9.188,2.791 -9.188,5.582 -12.002,5.582" fill="rgba(128,128,128,0.2)" stroke="gray" stroke-width="0.05" />
    <polygon id="sl-140" points="-6.055,2.791 -4.099,2.791 -4.099,4.175 -4.607,4.175 -4.607,5.69 -1.854,5.69 -1.854,8.522 0.975,8.522 0.975,12.71 0.975,12.725 -6.055,12.725 -6.055,12.71" fill="rgba(128,128,128,0.2)" stroke="gray" stroke-width="0.05" />
    <polygon id="sl-141" points="-4.099,2.791 -1.597,2.791 -1.597,5.69 -1.854,5.69 -4.607,5.69 -4.607,4.175 -4.099,4.175" fill="rgba(128,128,128,0.2)" stroke="gray" stroke-width="0.05" />
    <polygon id="sl-142" points="6.14,4.607 6.14,6.102 7.404,6.102 7.404,6.617 9.97,6.617 9.97,4.058 7.087,4.058 7.087,4.607" fill="rgba(128,128,128,0.2)" stroke="gray" stroke-width="0.05" />
    <polygon id="sl-143" points="6.14,6.102 6.14,4.607 7.087,4.607 7.087,4.058 9.97,4.058 9.97,6.617 7.404,6.617 7.404,6.102" fill="rgba(128,128,128,0.2)" stroke="gray" stroke-width="0.05" />
    <polygon id="sl-180" points="-12.662,-3.264 -12.662,-0.705 -9.871,-0.705 -9.871,-1.314 -8.68,-1.314 -8.68,-2.657 -9.871,-2.657 -9.871,-3.264" fill="rgba(128,128,128,0.2)" stroke="gray" stroke-width="0.05" />
    <polygon id="sl-181" points="-12.662,-3.264 -9.871,-3.264 -9.871,-2.657 -8.68,-2.657 -8.68,-1.314 -9.871,-1.314 -9.871,-0.705 -12.662,-0.705" fill="rgba(128,128,128,0.2)" stroke="gray" stroke-width="0.05" />
  </g>
</svg>