<?xml version="1.0" encoding="utf-8"?>
<svg xmlns="http://www.w3.org/2000/svg" viewBox="-34.485 -31.672 64.597 49.853">
  <g transform="scale(1,-1)">
    <polygon id="sp-2" points="15.278,-5.982 15.278,0.571 12.725,0.571 12.725,-5.982" fill="rgba(0,0,255,0.1)" stroke="blue" stroke-width="0.05" />
    <polygon id="sp-15" points="-5.867,0.895 0.787,0.895 0.787,1.067 1.397,1.067 1.397,0.838 6.985,0.838 6.985,1.067 7.595,1.067 7.595,0.838 12.189,0.838 12.189,0.956 12.573,0.956 14.51,0.956 14.51,2.667 12.573,2.667 2.811,2.667 0.943,2.667 0.943,4.127 0.943,5.674 -1.413,5.674 -1.413,2.667 -6.172,2.667 -11.998,2.667 -11.998,0.838 -6.477,0.838 -6.477,1.067 -5.867,1.067" fill="rgba(0,0,255,0.1)" stroke="blue" stroke-width="0.05" />
    <polygon id="sp-16" points="-14.945,0.457 -14.945,-3.569 -14.707,-3.569 -14.707,-4.178 -14.945,-4.178 -14.945,-7.944 -14.7,-7.944 -14.7,-8.414 -14.402,-8.414 -7.087,-8.414 -6.477,-8.414 -6.477,-8.077 -6.321,-8.077 -6.321,-4.178 -6.477,-4.178 -6.477,-3.569 -6.321,-3.569 -6.321,0.457 -6.477,0.457 -6.477,0.683 -12.068,0.683 -13.902,0.683 -14.656,0.683 -14.656,0.457" fill="rgba(0,0,255,0.1)" stroke="blue" stroke-width="0.05" />
    <polygon id="sp-17" points="-6.321,6.16 -6.321,12.332 -6.477,12.332 -6.477,12.71 -11.922,12.71 -11.922,5.663 -11.922,2.823 -6.321,2.823 -6.321,5.55 -6.477,5.55 -6.477,6.16" fill="rgba(0,0,255,0.1)" stroke="blue" stroke-width="0.05" />
    <polygon id="sp-18" points="-6.023,12.332 -6.023,6.16 -5.867,6.16 -5.867,5.55 -6.023,5.55 -6.023,2.823 -1.902,2.823 -1.902,5.674 -1.934,5.674 -1.934,8.601 0.943,8.601 0.943,12.332 0.787,12.332 0.787,12.71 -5.867,12.71 -5.867,12.332" fill="rgba(0,0,255,0.1)" stroke="blue" stroke-width="0.05" />
    <polygon id="sp-19" points="1.241,12.332 1.241,8.561 1.273,8.561 1.273,7.228 2.873,7.228 2.873,6.159 2.873,4.127 2.873,4.05 2.873,4.048 2.873,2.823 12.424,2.823 12.424,5.55 12.268,5.55 12.268,6.159 12.424,6.159 12.424,8.044 12.424,12.332 12.268,12.332 12.268,12.71 7.595,12.71 7.595,12.332 6.985,12.332 6.985,12.71 1.397,12.71 1.397,12.332" fill="rgba(0,0,255,0.1)" stroke="blue" stroke-width="0.05" />
    <polygon id="sp-50" points="-27.978,12.71 -30.197,12.71 -30.197,10.531 -27.464,10.531 -27.464,7.604 -30.286,7.604 -30.286,5.826 -27.978,5.826 -27.978,6.175 -27.368,6.175 -27.368,5.721 -21.641,5.721 -21.641,6.175 -21.031,6.175 -21.031,5.721 -17.577,5.721 -17.577,12.09 -18.015,12.09 -18.015,12.71 -21.031,12.71 -21.031,12.332 -21.641,12.332 -21.641,12.71 -27.368,12.71 -27.368,12.332 -27.978,12.332" fill="rgba(0,0,255,0.1)" stroke="blue" stroke-width="0.05" />
  </g>
</svg>