<?xml version="1.0" encoding="utf-8"?>
<svg xmlns="http://www.w3.org/2000/svg" viewBox="-34.485 -31.672 64.597 49.853">
  <g transform="scale(1,-1)">
    <rect id="tm-1" x="-8.561" y="-3.408" width="0.3" height="0.3" fill="black" transform="rotate(90,-8.411,-3.258)" />
    <rect id="tm-6" x="-8.561" y="-2.112" width="0.3" height="0.3" fill="black" transform="rotate(90,-8.411,-1.962)" />
    <rect id="tm-7" x="-8.561" y="-2.76" width="0.3" height="0.3" fill="black" transform="rotate(90,-8.411,-2.61)" />
    <rect id="tm-16" x="-14.25" y="-4.446" width="0.3" height="0.3" fill="black" transform="rotate(180,-14.1,-4.296)" />
    <rect id="tm-17" x="-14.25" y="-2.261" width="0.3" height="0.3" fill="black" transform="rotate(180,-14.1,-2.111)" />
    <rect id="tm-18" x="-14.25" y="-0.077" width="0.3" height="0.3" fill="black" transform="rotate(180,-14.1,0.073)" />
    <rect id="tm-19" x="-10.897" y="-0.077" width="0.3" height="0.3" fill="black" transform="rotate(180,-10.747,0.073)" />
    <rect id="tm-20" x="-10.897" y="-4.446" width="0.3" height="0.3" fill="black" transform="rotate(180,-10.747,-4.296)" />
    <rect id="tm-21" x="-7.538" y="-4.446" width="0.3" height="0.3" fill="black" transform="rotate(180,-7.388,-4.296)" />
    <rect id="tm-22" x="-7.538" y="-2.261" width="0.3" height="0.3" fill="black" transform="rotate(180,-7.388,-2.111)" />
    <rect id="tm-23" x="-7.538" y="-0.077" width="0.3" height="0.3" fill="black" transform="rotate(180,-7.388,0.073)" />
    <rect id="tm-40" x="-9.091" y="1.603" width="0.3" height="0.3" fill="black" />
    <rect id="tm-41" x="-2.69" y="1.603" width="0.3" height="0.3" fill="black" />
    <rect id="tm-42" x="3.711" y="1.603" width="0.3" height="0.3" fill="black" />
    <rect id="tm-43" x="10.112" y="1.603" width="0.3" height="0.3" fill="black" />
    <rect id="tm-51" x="-0.385" y="4.02" width="0.3" height="0.3" fill="black" transform="rotate(180,-0.235,4.17)" />
    <rect id="tm-55" x="-29.255" y="11.991" width="0.3" height="0.3" fill="black" transform="rotate(180,-29.105,12.141)" />
    <rect id="tm-56" x="-26.426" y="11.991" width="0.3" height="0.3" fill="black" transform="rotate(180,-26.276,12.141)" />
    <rect id="tm-57" x="-24.344" y="11.991" width="0.3" height="0.3" fill="black" transform="rotate(180,-24.194,12.141)" />
    <rect id="tm-58" x="-22.261" y="11.991" width="0.3" height="0.3" fill="black" transform="rotate(180,-22.111,12.141)" />
    <rect id="tm-59" x="-19.568" y="11.991" width="0.3" height="0.3" fill="black" transform="rotate(180,-19.418,12.141)" />
    <rect id="tm-60" x="-26.804" y="8.981" width="0.3" height="0.3" fill="black" transform="rotate(180,-26.654,9.131)" />
    <rect id="tm-61" x="-29.13" y="6.565" width="0.3" height="0.3" fill="black" transform="rotate(180,-28.98,6.715)" />
    <rect id="tm-62" x="-26.082" y="6.525" width="0.3" height="0.3" fill="black" transform="rotate(180,-25.932,6.675)" />
    <rect id="tm-63" x="-23.034" y="6.525" width="0.3" height="0.3" fill="black" transform="rotate(180,-22.884,6.675)" />
    <rect id="tm-64" x="-19.986" y="6.525" width="0.3" height="0.3" fill="black" transform="rotate(180,-19.836,6.675)" />
    <rect id="tm-65" x="-23.756" y="8.981" width="0.3" height="0.3" fill="black" transform="rotate(180,-23.606,9.131)" />
    <rect id="tm-66" x="-20.708" y="8.981" width="0.3" height="0.3" fill="black" transform="rotate(180,-20.558,9.131)" />
    <rect id="tm-67" x="-10.548" y="7.226" width="0.3" height="0.3" fill="black" transform="rotate(180,-10.398,7.376)" />
    <rect id="tm-68" x="-7.538" y="4.501" width="0.3" height="0.3" fill="black" transform="rotate(180,-7.388,4.651)" />
    <rect id="tm-69" x="-7.538" y="7.226" width="0.3" height="0.3" fill="black" transform="rotate(180,-7.388,7.376)" />
    <rect id="tm-70" x="11.258" y="7.492" width="0.3" height="0.3" fill="black" transform="rotate(180,11.408,7.642)" />
    <rect id="tm-71" x="11.258" y="5.308" width="0.3" height="0.3" fill="black" transform="rotate(180,11.408,5.458)" />
    <rect id="tm-72" x="11.258" y="3.123" width="0.3" height="0.3" fill="black" transform="rotate(180,11.408,3.273)" />
    <rect id="tm-73" x="7.905" y="3.123" width="0.3" height="0.3" fill="black" transform="rotate(180,8.055,3.273)" />
    <rect id="tm-74" x="7.905" y="7.492" width="0.3" height="0.3" fill="black" transform="rotate(180,8.055,7.642)" />
    <rect id="tm-75" x="4.546" y="7.492" width="0.3" height="0.3" fill="black" transform="rotate(180,4.696,7.642)" />
    <rect id="tm-76" x="4.546" y="5.308" width="0.3" height="0.3" fill="black" transform="rotate(180,4.696,5.458)" />
    <rect id="tm-77" x="4.546" y="3.123" width="0.3" height="0.3" fill="black" transform="rotate(180,4.696,3.273)" />
    <rect id="tm-86" x="5.568" y="5.176" width="0.3" height="0.3" fill="black" transform="rotate(90,5.718,5.326)" />
    <rect id="tm-87" x="5.568" y="6.471" width="0.3" height="0.3" fill="black" transform="rotate(90,5.718,6.621)" />
    <rect id="tm-88" x="5.568" y="5.824" width="0.3" height="0.3" fill="black" transform="rotate(90,5.718,5.974)" />
    <rect id="tm-98" x="-8.869" y="5.854" width="0.3" height="0.3" fill="black" transform="rotate(180,-8.719,6.004)" />
    <rect id="tm-99" x="-10.164" y="5.854" width="0.3" height="0.3" fill="black" transform="rotate(180,-10.014,6.004)" />
    <rect id="tm-100" x="-9.516" y="5.854" width="0.3" height="0.3" fill="black" transform="rotate(180,-9.366,6.004)" />
    <rect id="tm-119" x="-2.388" y="5.962" width="0.3" height="0.3" fill="black" transform="rotate(180,-2.238,6.112)" />
    <rect id="tm-120" x="-3.684" y="5.962" width="0.3" height="0.3" fill="black" transform="rotate(180,-3.534,6.112)" />
    <rect id="tm-121" x="-3.036" y="5.962" width="0.3" height="0.3" fill="black" transform="rotate(180,-2.886,6.112)" />
    <rect id="tm-125" x="-5.411" y="7.226" width="0.3" height="0.3" fill="black" transform="rotate(180,-5.261,7.376)" />
    <rect id="tm-126" x="-3.315" y="7.226" width="0.3" height="0.3" fill="black" transform="rotate(180,-3.165,7.376)" />
    <rect id="tm-127" x="-5.411" y="4.501" width="0.3" height="0.3" fill="black" transform="rotate(180,-5.261,4.651)" />
    <rect id="tm-128" x="-10.548" y="7.226" width="0.3" height="0.3" fill="black" transform="rotate(180,-10.398,7.376)" />
    <rect id="tm-129" x="-7.538" y="4.501" width="0.3" height="0.3" fill="black" transform="rotate(180,-7.388,4.651)" />
    <rect id="tm-130" x="-7.538" y="7.226" width="0.3" height="0.3" fill="black" transform="rotate(180,-7.388,7.376)" />
    <rect id="tm-131" x="11.258" y="7.492" width="0.3" height="0.3" fill="black" transform="rotate(180,11.408,7.642)" />
    <rect id="tm-132" x="11.258" y="5.308" width="0.3" height="0.3" fill="black" transform="rotate(180,11.408,5.458)" />
    <rect id="tm-133" x="11.258" y="3.123" width="0.3" height="0.3" fill="black" transform="rotate(180,11.408,3.273)" />
    <rect id="tm-134" x="7.905" y="3.123" width="0.3" height="0.3" fill="black" transform="rotate(180,8.055,3.273)" />
    <rect id="tm-135" x="7.905" y="7.492" width="0.3" height="0.3" fill="black" transform="rotate(180,8.055,7.642)" />
    <rect id="tm-136" x="4.546" y="7.492" width="0.3" height="0.3" fill="black" transform="rotate(180,4.696,7.642)" />
    <rect id="tm-137" x="4.546" y="5.308" width="0.3" height="0.3" fill="black" transform="rotate(180,4.696,5.458)" />
    <rect id="tm-138" x="4.546" y="3.123" width="0.3" height="0.3" fill="black" transform="rotate(180,4.696,3.273)" />
    <rect id="tm-139" x="-10.548" y="7.226" width="0.3" height="0.3" fill="black" transform="rotate(180,-10.398,7.376)" />
    <rect id="tm-140" x="-7.538" y="4.501" width="0.3" height="0.3" fill="black" transform="rotate(180,-7.388,4.651)" />
    <rect id="tm-141" x="-7.538" y="7.226" width="0.3" height="0.3" fill="black" transform="rotate(180,-7.388,7.376)" />
    <rect id="tm-142" x="11.258" y="7.492" width="0.3" height="0.3" fill="black" transform="rotate(180,11.408,7.642)" />
    <rect id="tm-143" x="11.258" y="5.308" width="0.3" height="0.3" fill="black" transform="rotate(180,11.408,5.458)" />
    <rect id="tm-144" x="11.258" y="3.123" width="0.3" height="0.3" fill="black" transform="rotate(180,11.408,3.273)" />
    <rect id="tm-145" x="7.905" y="3.123" width="0.3" height="0.3" fill="black" transform="rotate(180,8.055,3.273)" />
    <rect id="tm-146" x="7.905" y="7.492" width="0.3" height="0.3" fill="black" transform="rotate(180,8.055,7.642)" />
    <rect id="tm-147" x="4.546" y="7.492" width="0.3" height="0.3" fill="black" transform="rotate(180,4.696,7.642)" />
    <rect id="tm-148" x="4.546" y="5.308" width="0.3" height="0.3" fill="black" transform="rotate(180,4.696,5.458)" />
    <rect id="tm-149" x="4.546" y="3.123" width="0.3" height="0.3" fill="black" transform="rotate(180,4.696,3.273)" />
    <rect id="tm-150" x="-5.411" y="7.226" width="0.3" height="0.3" fill="black" transform="rotate(180,-5.261,7.376)" />
    <rect id="tm-151" x="-3.315" y="7.226" width="0.3" height="0.3" fill="black" transform="rotate(180,-3.165,7.376)" />
    <rect id="tm-152" x="-5.411" y="4.501" width="0.3" height="0.3" fill="black" transform="rotate(180,-5.261,4.651)" />
    <rect id="tm-153" x="-10.548" y="7.226" width="0.3" height="0.3" fill="black" transform="rotate(180,-10.398,7.376)" />
    <rect id="tm-154" x="-7.538" y="4.501" width="0.3" height="0.3" fill="black" transform="rotate(180,-7.388,4.651)" />
    <rect id="tm-155" x="-7.538" y="7.226" width="0.3" height="0.3" fill="black" transform="rotate(180,-7.388,7.376)" />
    <rect id="tm-156" x="11.258" y="7.492" width="0.3" height="0.3" fill="black" transform="rotate(180,11.408,7.642)" />
    <rect id="tm-157" x="11.258" y="5.308" width="0.3" height="0.3" fill="black" transform="rotate(180,11.408,5.458)" />
    <rect id="tm-158" x="11.258" y="3.123" width="0.3" height="0.3" fill="black" transform="rotate(180,11.408,3.273)" />
    <rect id="tm-159" x="7.905" y="3.123" width="0.3" height="0.3" fill="black" transform="rotate(180,8.055,3.273)" />
    <rect id="tm-160" x="7.905" y="7.492" width="0.3" height="0.3" fill="black" transform="rotate(180,8.055,7.642)" />
    <rect id="tm-161" x="4.546" y="7.492" width="0.3" height="0.3" fill="black" transform="rotate(180,4.696,7.642)" />
    <rect id="tm-162" x="4.546" y="5.308" width="0.3" height="0.3" fill="black" transform="rotate(180,4.696,5.458)" />
    <rect id="tm-163" x="4.546" y="3.123" width="0.3" height="0.3" fill="black" transform="rotate(180,4.696,3.273)" />
    <rect id="tm-179" x="1.83" y="4.993" width="0.3" height="0.3" fill="black" transform="rotate(180,1.98,5.143)" />
    <rect id="tm-183" x="0.942" y="-6.17" width="0.3" height="0.3" fill="black" transform="rotate(90,1.092,-6.02)" />
    <rect id="tm-184" x="0.942" y="-1.903" width="0.3" height="0.3" fill="black" transform="rotate(90,1.092,-1.753)" />
    <rect id="tm-185" x="-6.322" y="-6.17" width="0.3" height="0.3" fill="black" transform="rotate(90,-6.172,-6.02)" />
    <rect id="tm-186" x="-6.322" y="-1.903" width="0.3" height="0.3" fill="black" transform="rotate(90,-6.172,-1.753)" />
    <rect id="tm-206" x="12.575" y="-0.239" width="0.3" height="0.3" fill="black" transform="rotate(120,12.725,-0.089)" />
    <rect id="tm-207" x="12.575" y="-5.217" width="0.3" height="0.3" fill="black" transform="rotate(120,12.725,-5.067)" />
    <rect id="tm-209" x="15.128" y="-0.239" width="0.3" height="0.3" fill="black" transform="rotate(120,15.278,-0.089)" />
    <rect id="tm-210" x="15.128" y="-5.217" width="0.3" height="0.3" fill="black" transform="rotate(120,15.278,-5.067)" />
    <rect id="tm-225" x="-15.009" y="6.772" width="0.3" height="0.3" fill="black" transform="rotate(240,-14.859,6.922)" />
    <rect id="tm-226" x="-15.009" y="11.963" width="0.3" height="0.3" fill="black" transform="rotate(240,-14.859,12.113)" />
    <rect id="tm-237" x="-12.456" y="6.772" width="0.3" height="0.3" fill="black" transform="rotate(240,-12.306,6.922)" />
    <rect id="tm-238" x="-12.456" y="11.963" width="0.3" height="0.3" fill="black" transform="rotate(240,-12.306,12.113)" />
    <rect id="tm-249" x="-33.373" y="6.518" width="0.3" height="0.3" fill="black" transform="rotate(240,-33.223,6.668)" />
    <rect id="tm-250" x="-33.373" y="11.963" width="0.3" height="0.3" fill="black" transform="rotate(240,-33.223,12.113)" />
    <rect id="tm-261" x="-30.821" y="6.518" width="0.3" height="0.3" fill="black" transform="rotate(240,-30.671,6.668)" />
    <rect id="tm-262" x="-30.821" y="11.963" width="0.3" height="0.3" fill="black" transform="rotate(240,-30.671,12.113)" />
    <rect id="tm-409" x="-4.233" y="2.746" width="0.3" height="0.3" fill="black" transform="rotate(180,-4.083,2.896)" />
    <rect id="tm-410" x="-4.233" y="3.812" width="0.3" height="0.3" fill="black" transform="rotate(180,-4.083,3.962)" />
  </g>
</svg>