<?xml version="1.0" encoding="utf-8"?>
<svg xmlns="http://www.w3.org/2000/svg" viewBox="-15.703 -13.683 35.622 23.427">
  <g transform="scale(1,-1)">
    <line id="w-29" x1="-6.172" y1="12.87" x2="-6.172" y2="2.745" stroke="black" stroke-width="0.298" stroke-linecap="square" />
    <line id="w-51" x1="1.092" y1="12.87" x2="1.092" y2="8.561" stroke="black" stroke-width="0.298" stroke-linecap="square" />
    <line id="w-64" x1="12.573" y1="12.87" x2="12.573" y2="2.745" stroke="black" stroke-width="0.298" stroke-linecap="square" />
    <line id="w-65" x1="-12.03" y1="2.745" x2="-1.521" y2="2.745" stroke="black" stroke-width="0.156" stroke-linecap="square" />
    <line id="w-66" x1="12.229" y1="0.76" x2="1.092" y2="0.76" stroke="black" stroke-width="0.156" stroke-linecap="square" />
    <line id="w-67" x1="-6.172" y1="0.76" x2="-15.13" y2="0.76" stroke="black" stroke-width="0.156" stroke-linecap="square" />
    <line id="w-68" x1="-6.172" y1="0.76" x2="-6.172" y2="-8.395" stroke="black" stroke-width="0.298" stroke-linecap="square" />
    <line id="w-69" x1="1.092" y1="0.76" x2="1.092" y2="-9.082" stroke="black" stroke-width="0.298" stroke-linecap="square" />
    <line id="w-80" x1="1.092" y1="2.745" x2="15.554" y2="2.745" stroke="black" stroke-width="0.156" stroke-linecap="square" />
    <line id="w-112" x1="-13.491" y1="-0.598" x2="-12.738" y2="-0.598" stroke="black" stroke-width="0.124" stroke-linecap="square" />
    <line id="w-113" x1="-12.738" y1="-3.624" x2="-12.738" y2="-0.629" stroke="black" stroke-width="0.184" stroke-linecap="square" />
    <line id="w-114" x1="-8.757" y1="-3.37" x2="-9.825" y2="-3.37" stroke="black" stroke-width="0.124" stroke-linecap="square" />
    <line id="w-115" x1="-8.726" y1="-0.598" x2="-8.726" y2="-1.36" stroke="black" stroke-width="0.124" stroke-linecap="square" />
    <line id="w-116" x1="-13.491" y1="-3.624" x2="-12.738" y2="-3.624" stroke="black" stroke-width="0.124" stroke-linecap="square" />
    <line id="w-117" x1="-9.825" y1="-1.36" x2="-8.726" y2="-1.36" stroke="black" stroke-width="0.124" stroke-linecap="square" />
    <line id="w-118" x1="-8.757" y1="-3.624" x2="-8.004" y2="-3.624" stroke="black" stroke-width="0.124" stroke-linecap="square" />
    <line id="w-119" x1="-9.825" y1="-3.34" x2="-9.825" y2="-2.734" stroke="black" stroke-width="0.124" stroke-linecap="square" />
    <line id="w-120" x1="-12.738" y1="-1.535" x2="-11.935" y2="-1.535" stroke="black" stroke-width="0.124" stroke-linecap="square" />
    <line id="w-121" x1="-8.726" y1="-0.598" x2="-8.004" y2="-0.598" stroke="black" stroke-width="0.124" stroke-linecap="square" />
    <line id="w-122" x1="-9.825" y1="-0.598" x2="-8.726" y2="-0.598" stroke="black" stroke-width="0.124" stroke-linecap="square" />
    <line id="w-134" x1="10.798" y1="3.951" x2="10.046" y2="3.951" stroke="black" stroke-width="0.124" stroke-linecap="square" />
    <line id="w-135" x1="10.046" y1="6.977" x2="10.046" y2="3.981" stroke="black" stroke-width="0.184" stroke-linecap="square" />
    <line id="w-136" x1="6.064" y1="6.723" x2="7.45" y2="6.723" stroke="black" stroke-width="0.124" stroke-linecap="square" />
    <line id="w-137" x1="6.034" y1="3.951" x2="6.034" y2="4.653" stroke="black" stroke-width="0.124" stroke-linecap="square" />
    <line id="w-138" x1="10.798" y1="6.977" x2="10.046" y2="6.977" stroke="black" stroke-width="0.124" stroke-linecap="square" />
    <line id="w-139" x1="7.133" y1="3.981" x2="7.133" y2="4.653" stroke="black" stroke-width="0.124" stroke-linecap="square" />
    <line id="w-140" x1="7.133" y1="4.653" x2="6.034" y2="4.653" stroke="black" stroke-width="0.124" stroke-linecap="square" />
    <line id="w-141" x1="6.064" y1="6.977" x2="5.312" y2="6.977" stroke="black" stroke-width="0.124" stroke-linecap="square" />
    <line id="w-142" x1="7.099" y1="6.09" x2="7.099" y2="5.661" stroke="black" stroke-width="0.057" stroke-linecap="square" />
    <line id="w-143" x1="10.046" y1="4.866" x2="9.242" y2="4.866" stroke="black" stroke-width="0.124" stroke-linecap="square" />
    <line id="w-144" x1="6.034" y1="3.951" x2="5.312" y2="3.951" stroke="black" stroke-width="0.124" stroke-linecap="square" />
    <line id="w-145" x1="7.133" y1="3.951" x2="6.034" y2="3.951" stroke="black" stroke-width="0.124" stroke-linecap="square" />
    <line id="w-209" x1="15.554" y1="0.724" x2="15.554" y2="2.745" stroke="black" stroke-width="0.216" stroke-linecap="square" />
    <line id="w-210" x1="-9.112" y1="2.745" x2="-9.112" y2="4.077" stroke="black" stroke-width="0.184" stroke-linecap="square" />
    <line id="w-211" x1="-8.352" y1="2.745" x2="-8.352" y2="4.077" stroke="black" stroke-width="0.124" stroke-linecap="square" />
    <line id="w-212" x1="-12.154" y1="5.658" x2="-8.352" y2="5.658" stroke="black" stroke-width="0.184" stroke-linecap="square" />
    <line id="w-213" x1="-8.352" y1="5.658" x2="-8.352" y2="6.48" stroke="black" stroke-width="0.124" stroke-linecap="square" />
    <line id="w-214" x1="-12.03" y1="4.713" x2="-11.008" y2="4.713" stroke="black" stroke-width="0.124" stroke-linecap="square" />
    <line id="w-215" x1="-12.03" y1="3.675" x2="-11.008" y2="3.675" stroke="black" stroke-width="0.124" stroke-linecap="square" />
    <line id="w-216" x1="-4.653" y1="4.129" x2="-4.653" y2="5.766" stroke="black" stroke-width="0.124" stroke-linecap="square" />
    <line id="w-217" x1="-4.175" y1="2.745" x2="-4.175" y2="4.129" stroke="black" stroke-width="0.184" stroke-linecap="square" />
    <line id="w-218" x1="-4.82" y1="2.745" x2="-4.82" y2="4.129" stroke="black" stroke-width="0.152" stroke-linecap="square" />
    <line id="w-219" x1="-4.82" y1="4.129" x2="-4.175" y2="4.129" stroke="black" stroke-width="0.124" stroke-linecap="square" />
    <line id="w-220" x1="-4.623" y1="5.766" x2="-1.934" y2="5.766" stroke="black" stroke-width="0.184" stroke-linecap="square" />
    <line id="w-221" x1="-1.521" y1="5.713" x2="-1.521" y2="2.745" stroke="black" stroke-width="0.216" stroke-linecap="square" />
    <line id="w-222" x1="-1.521" y1="4.697" x2="-2.515" y2="4.697" stroke="black" stroke-width="0.124" stroke-linecap="square" />
    <line id="w-225" x1="14.572" y1="0.916" x2="14.572" y2="2.745" stroke="black" stroke-width="0.124" stroke-linecap="square" />
    <line id="w-249" x1="-12.154" y1="5.855" x2="-12.154" y2="12.865" stroke="black" stroke-width="0.305" stroke-linecap="square" />
    <line id="w-260" x1="-12.03" y1="2.745" x2="-12.03" y2="5.663" stroke="black" stroke-width="0.216" stroke-linecap="square" />
    <line id="w-261" x1="-13.902" y1="5.663" x2="-13.902" y2="0.76" stroke="black" stroke-width="0.124" stroke-linecap="square" />
    <line id="w-262" x1="-13.902" y1="2.729" x2="-15.13" y2="2.729" stroke="black" stroke-width="0.124" stroke-linecap="square" />
    <line id="w-302" x1="-14.402" y1="-8.713" x2="-7.087" y2="-8.713" stroke="black" stroke-width="0.251" stroke-linecap="square" />
    <line id="w-361" x1="1.397" y1="-9.244" x2="12.592" y2="-9.244" stroke="black" stroke-width="0.168" stroke-linecap="square" />
    <line id="w-365" x1="1.092" y1="5.713" x2="1.092" y2="2.745" stroke="black" stroke-width="0.298" stroke-linecap="square" />
    <line id="w-378" x1="-8.757" y1="-1.36" x2="-8.757" y2="-3.624" stroke="black" stroke-width="0.184" stroke-linecap="square" />
    <line id="w-380" x1="6.064" y1="4.653" x2="6.064" y2="6.977" stroke="black" stroke-width="0.184" stroke-linecap="square" />
    <line id="w-388" x1="7.45" y1="6.723" x2="7.45" y2="6.09" stroke="black" stroke-width="0.124" stroke-linecap="square" />
    <line id="w-389" x1="7.099" y1="5.661" x2="7.483" y2="5.661" stroke="black" stroke-width="0.057" stroke-linecap="square" />
    <line id="w-400" x1="7.099" y1="6.09" x2="7.483" y2="6.09" stroke="black" stroke-width="0.057" stroke-linecap="square" />
    <line id="w-401" x1="7.483" y1="6.09" x2="7.483" y2="5.661" stroke="black" stroke-width="0.057" stroke-linecap="square" />
    <line id="w-402" x1="6.064" y1="6.026" x2="7.099" y2="6.026" stroke="black" stroke-width="0.184" stroke-linecap="square" />
    <line id="w-411" x1="-15.011" y1="13.183" x2="-15.011" y2="12.865" stroke="black" stroke-width="0.305" stroke-linecap="square" />
    <line id="w-412" x1="-12.154" y1="12.865" x2="-12.154" y2="13.183" stroke="black" stroke-width="0.305" stroke-linecap="square" />
    <line id="w-440" x1="-12.068" y1="2.745" x2="-12.068" y2="0.76" stroke="black" stroke-width="0.14" stroke-linecap="square" />
    <line id="w-441" x1="1.233" y1="8.561" x2="-1.894" y2="8.561" stroke="black" stroke-width="0.079" stroke-linecap="square" />
    <line id="w-442" x1="-1.894" y1="8.561" x2="-1.894" y2="5.713" stroke="black" stroke-width="0.079" stroke-linecap="square" />
    <line id="w-443" x1="1.233" y1="8.561" x2="1.233" y2="7.15" stroke="black" stroke-width="0.079" stroke-linecap="square" />
    <line id="w-444" x1="15.623" y1="0.876" x2="15.623" y2="-8.184" stroke="black" stroke-width="0.079" stroke-linecap="square" />
    <line id="w-445" x1="-11.962" y1="12.87" x2="-11.962" y2="5.663" stroke="black" stroke-width="0.079" stroke-linecap="square" />
    <line id="w-446" x1="1.218" y1="5.713" x2="-1.894" y2="5.713" stroke="black" stroke-width="0.079" stroke-linecap="square" />
    <line id="w-447" x1="15.554" y1="0.916" x2="12.229" y2="0.916" stroke="black" stroke-width="0.079" stroke-linecap="square" />
    <line id="w-448" x1="-11.962" y1="5.663" x2="-15.203" y2="5.663" stroke="black" stroke-width="0.079" stroke-linecap="square" />
    <line id="w-449" x1="1.218" y1="5.713" x2="1.218" y2="6.159" stroke="black" stroke-width="0.048" stroke-linecap="square" />
    <line id="w-502" x1="7.45" y1="6.693" x2="10.046" y2="6.693" stroke="black" stroke-width="0.184" stroke-linecap="square" />
    <line id="w-570" x1="2.811" y1="4.05" x2="2.811" y2="2.745" stroke="black" stroke-width="0.124" stroke-linecap="square" />
    <line id="w-584" x1="-9.825" y1="-3.34" x2="-12.738" y2="-3.34" stroke="black" stroke-width="0.184" stroke-linecap="square" />
    <line id="w-589" x1="-9.825" y1="-2.734" x2="-8.757" y2="-2.734" stroke="black" stroke-width="0.184" stroke-linecap="square" />
    <line id="w-594" x1="-6.475" y1="-8.498" x2="-14.754" y2="-8.498" stroke="black" stroke-width="0.168" stroke-linecap="square" />
    <line id="w-598" x1="-15.13" y1="-7.998" x2="-14.754" y2="-7.998" stroke="black" stroke-width="0.108" stroke-linecap="square" />
    <line id="w-599" x1="-14.754" y1="-7.998" x2="-14.754" y2="-8.498" stroke="black" stroke-width="0.108" stroke-linecap="square" />
    <line id="w-606" x1="-14.765" y1="-3.874" x2="-6.477" y2="-3.874" stroke="black" stroke-width="0.267" stroke-linecap="square" />
    <line id="w-619" x1="-14.765" y1="-8.379" x2="-6.477" y2="-8.379" stroke="black" stroke-width="0.235" stroke-linecap="square" />
    <line id="w-648" x1="-0.392" y1="-8.542" x2="-4.688" y2="-8.542" stroke="black" stroke-width="0.168" stroke-linecap="square" />
    <line id="w-649" x1="-4.688" y1="-8.784" x2="-6.02" y2="-8.784" stroke="black" stroke-width="0.168" stroke-linecap="square" />
    <line id="w-651" x1="-5.907" y1="-8.784" x2="-5.907" y2="-8.553" stroke="black" stroke-width="0.079" stroke-linecap="square" />
    <line id="w-652" x1="-4.688" y1="-8.868" x2="-4.688" y2="-8.542" stroke="black" stroke-width="0.079" stroke-linecap="square" />
    <line id="w-653" x1="-0.392" y1="-8.784" x2="0.939" y2="-8.784" stroke="black" stroke-width="0.168" stroke-linecap="square" />
    <line id="w-654" x1="0.827" y1="-8.784" x2="0.827" y2="-8.553" stroke="black" stroke-width="0.079" stroke-linecap="square" />
    <line id="w-655" x1="-0.392" y1="-8.868" x2="-0.392" y2="-8.542" stroke="black" stroke-width="0.079" stroke-linecap="square" />
    <line id="w-663" x1="19.419" y1="9.586" x2="18.987" y2="12.87" stroke="black" stroke-width="0.321" stroke-linecap="square" />
    <line id="w-679" x1="1.397" y1="0.756" x2="6.985" y2="0.756" stroke="black" stroke-width="0.267" stroke-linecap="square" />
    <line id="w-680" x1="-6.172" y1="0.762" x2="0.787" y2="0.762" stroke="black" stroke-width="0.267" stroke-linecap="square" />
    <line id="w-684" x1="-5.805" y1="-9.096" x2="-5.805" y2="-8.868" stroke="black" stroke-width="0.079" stroke-linecap="square" />
    <line id="w-685" x1="-4.761" y1="-9.096" x2="-4.761" y2="-8.868" stroke="black" stroke-width="0.079" stroke-linecap="square" />
    <line id="w-686" x1="-0.319" y1="-9.096" x2="-0.319" y2="-8.868" stroke="black" stroke-width="0.079" stroke-linecap="square" />
    <line id="w-687" x1="0.725" y1="-9.096" x2="0.725" y2="-8.868" stroke="black" stroke-width="0.079" stroke-linecap="square" />
    <line id="w-696" x1="12.573" y1="8.036" x2="12.827" y2="8.036" stroke="black" stroke-width="0.108" stroke-linecap="square" />
    <line id="w-706" x1="-12.001" y1="12.87" x2="18.987" y2="12.87" stroke="black" stroke-width="0.321" stroke-linecap="square" />
    <line id="w-829" x1="-4.623" y1="5.766" x2="-4.623" y2="6.569" stroke="black" stroke-width="0.184" stroke-linecap="square" />
    <line id="w-831" x1="10.046" y1="3.981" x2="7.133" y2="3.981" stroke="black" stroke-width="0.184" stroke-linecap="square" />
    <line id="w-835" x1="-12.738" y1="-0.629" x2="-9.825" y2="-0.629" stroke="black" stroke-width="0.184" stroke-linecap="square" />
    <line id="w-843" x1="-11.922" y1="6.407" x2="-8.347" y2="6.407" stroke="black" stroke-width="0.108" stroke-linecap="square" />
    <line id="w-844" x1="-8.347" y1="6.407" x2="-8.347" y2="2.823" stroke="black" stroke-width="0.108" stroke-linecap="square" />
    <line id="w-885" x1="-14.765" y1="0.762" x2="-6.477" y2="0.762" stroke="black" stroke-width="0.267" stroke-linecap="square" />
    <line id="w-886" x1="-11.962" y1="5.855" x2="-6.477" y2="5.855" stroke="black" stroke-width="0.267" stroke-linecap="square" />
    <line id="w-888" x1="7.595" y1="0.756" x2="12.229" y2="0.756" stroke="black" stroke-width="0.267" stroke-linecap="square" />
    <line id="w-892" x1="-5.867" y1="5.855" x2="-1.727" y2="5.855" stroke="black" stroke-width="0.267" stroke-linecap="square" />
    <line id="w-904" x1="1.067" y1="5.849" x2="6.985" y2="5.849" stroke="black" stroke-width="0.267" stroke-linecap="square" />
    <line id="w-905" x1="1.092" y1="12.646" x2="6.985" y2="12.646" stroke="black" stroke-width="0.235" stroke-linecap="square" />
    <line id="w-913" x1="7.595" y1="5.849" x2="12.268" y2="5.849" stroke="black" stroke-width="0.267" stroke-linecap="square" />
    <line id="w-914" x1="7.265" y1="12.646" x2="12.275" y2="12.646" stroke="black" stroke-width="0.235" stroke-linecap="square" />
    <line id="w-915" x1="12.827" y1="12.646" x2="18.502" y2="12.646" stroke="black" stroke-width="0.235" stroke-linecap="square" />
    <line id="w-933" x1="-4.842" y1="2.823" x2="-4.842" y2="6.525" stroke="black" stroke-width="0.108" stroke-linecap="square" />
    <line id="w-934" x1="-4.842" y1="6.525" x2="-1.934" y2="6.525" stroke="black" stroke-width="0.108" stroke-linecap="square" />
    <line id="w-939" x1="5.366" y1="7.01" x2="10.744" y2="7.01" stroke="black" stroke-width="0.108" stroke-linecap="square" />
    <line id="w-940" x1="10.744" y1="7.01" x2="10.744" y2="3.943" stroke="black" stroke-width="0.108" stroke-linecap="square" />
    <line id="w-941" x1="10.744" y1="3.943" x2="5.366" y2="3.943" stroke="black" stroke-width="0.108" stroke-linecap="square" />
    <line id="w-942" x1="5.366" y1="3.943" x2="5.366" y2="7.01" stroke="black" stroke-width="0.108" stroke-linecap="square" />
    <line id="w-955" x1="-13.437" y1="-0.591" x2="-8.058" y2="-0.591" stroke="black" stroke-width="0.108" stroke-linecap="square" />
    <line id="w-956" x1="-8.058" y1="-0.591" x2="-8.058" y2="-3.632" stroke="black" stroke-width="0.108" stroke-linecap="square" />
    <line id="w-957" x1="-8.058" y1="-3.632" x2="-13.437" y2="-3.632" stroke="black" stroke-width="0.108" stroke-linecap="square" />
    <line id="w-958" x1="-13.437" y1="-3.632" x2="-13.437" y2="-0.591" stroke="black" stroke-width="0.108" stroke-linecap="square" />
    <line id="w-1030" x1="-9.112" y1="4.077" x2="-9.112" y2="5.658" stroke="black" stroke-width="0.184" stroke-linecap="square" />
    <line id="w-1037" x1="-9.112" y1="4.077" x2="-8.352" y2="4.077" stroke="black" stroke-width="0.184" stroke-linecap="square" />
    <line id="w-1067" x1="-9.825" y1="-2.734" x2="-9.825" y2="-0.629" stroke="black" stroke-width="0.124" stroke-linecap="square" />
  </g>
</svg>