<?xml version="1.0" encoding="utf-8"?>
<svg xmlns="http://www.w3.org/2000/svg" viewBox="-34.485 -31.672 64.597 49.853">
  <g transform="scale(1,-1)">
    <line id="wn-19" data-host="w-706" x1="-10.607" y1="12.87" x2="-10.607" y2="12.87" stroke="white" stroke-width="0.341" />
    <line id="wn-20" data-host="w-706" x1="-8.066" y1="12.87" x2="-8.066" y2="12.87" stroke="white" stroke-width="0.341" />
    <line id="wn-21" data-host="w-706" x1="-2.983" y1="12.87" x2="-2.983" y2="12.87" stroke="white" stroke-width="0.341" />
    <line id="wn-22" data-host="w-706" x1="10.992" y1="12.87" x2="10.992" y2="12.87" stroke="white" stroke-width="0.341" />
    <line id="wn-23" data-host="w-706" x1="-0.442" y1="12.87" x2="-0.442" y2="12.87" stroke="white" stroke-width="0.341" />
    <line id="wn-24" data-host="w-706" x1="8.451" y1="12.87" x2="8.451" y2="12.87" stroke="white" stroke-width="0.341" />
    <line id="wn-57" data-host="w-594" x1="-7.212" y1="-8.498" x2="-8.304" y2="-8.498" stroke="white" stroke-width="0.188" />
    <line id="wn-58" data-host="w-594" x1="-9.191" y1="-8.498" x2="-10.283" y2="-8.498" stroke="white" stroke-width="0.188" />
    <line id="wn-59" data-host="w-594" x1="-11.17" y1="-8.498" x2="-12.262" y2="-8.498" stroke="white" stroke-width="0.188" />
    <line id="wn-60" data-host="w-594" x1="-13.157" y1="-8.498" x2="-14.249" y2="-8.498" stroke="white" stroke-width="0.188" />
    <line id="wn-69" data-host="w-648" x1="-2.006" y1="-8.542" x2="-3.073" y2="-8.542" stroke="white" stroke-width="0.188" />
    <line id="wn-70" data-host="w-648" x1="-3.366" y1="-8.542" x2="-4.052" y2="-8.542" stroke="white" stroke-width="0.188" />
    <line id="wn-71" data-host="w-648" x1="-1.028" y1="-8.542" x2="-1.714" y2="-8.542" stroke="white" stroke-width="0.188" />
    <line id="wn-72" data-host="w-649" x1="-4.801" y1="-8.784" x2="-5.766" y2="-8.784" stroke="white" stroke-width="0.188" />
    <line id="wn-73" data-host="w-653" x1="-0.28" y1="-8.784" x2="0.685" y2="-8.784" stroke="white" stroke-width="0.188" />
  </g>
</svg>