<?xml version="1.0" encoding="utf-8"?>
<svg xmlns="http://www.w3.org/2000/svg" viewBox="-132.814 191.122 21.080 15.546">
  <g transform="scale(1,-1)">
    <line id="du-61" x1="-112.597" y1="-195.158" x2="-132.409" y2="-195.158" stroke="black" stroke-width="0.305" stroke-linecap="square" />
    <line id="du-62" x1="-121.649" y1="-195.158" x2="-121.649" y2="-195.158" stroke="black" stroke-width="0.305" stroke-linecap="square" />
    <line id="du-63" x1="-112.14" y1="-195.615" x2="-112.14" y2="-200.471" stroke="black" stroke-width="0.305" stroke-linecap="square" />
    <line id="du-64" x1="-112.14" y1="-197.749" x2="-112.14" y2="-197.749" stroke="black" stroke-width="0.254" stroke-linecap="square" />
    <line id="du-65" x1="-112.902" y1="-193.355" x2="-112.902" y2="-193.355" stroke="black" stroke-width="0.254" stroke-linecap="square" />
    <line id="du-66" x1="-112.902" y1="-194.904" x2="-112.902" y2="-193.507" stroke="black" stroke-width="0.254" stroke-linecap="square" />
    <line id="du-67" x1="-112.14" y1="-201.182" x2="-112.14" y2="-206.262" stroke="black" stroke-width="0.305" stroke-linecap="square" />
    <line id="du-68" x1="-113.469" y1="-204.855" x2="-113.469" y2="-204.855" stroke="black" stroke-width="0.305" stroke-linecap="square" />
    <line id="du-69" x1="-112.394" y1="-204.855" x2="-113.012" y2="-204.855" stroke="black" stroke-width="0.305" stroke-linecap="square" />
    <line id="du-70" x1="-130.9" y1="-191.527" x2="-130.9" y2="-191.527" stroke="black" stroke-width="0.305" stroke-linecap="square" />
    <line id="du-71" x1="-130.9" y1="-194.904" x2="-130.9" y2="-191.985" stroke="black" stroke-width="0.305" stroke-linecap="square" />
    <line id="du-72" x1="-130.9" y1="-197.749" x2="-130.9" y2="-197.749" stroke="black" stroke-width="0.305" stroke-linecap="square" />
    <line id="du-73" x1="-130.9" y1="-195.412" x2="-130.9" y2="-197.292" stroke="black" stroke-width="0.305" stroke-linecap="square" />
    <line id="du-74" x1="-126.176" y1="-191.527" x2="-126.176" y2="-191.527" stroke="black" stroke-width="0.305" stroke-linecap="square" />
    <line id="du-75" x1="-126.176" y1="-194.904" x2="-126.176" y2="-191.985" stroke="black" stroke-width="0.305" stroke-linecap="square" />
    <line id="du-76" x1="-122.061" y1="-191.527" x2="-122.061" y2="-191.527" stroke="black" stroke-width="0.305" stroke-linecap="square" />
    <line id="du-77" x1="-122.061" y1="-194.904" x2="-122.061" y2="-191.985" stroke="black" stroke-width="0.305" stroke-linecap="square" />
    <line id="du-78" x1="-117.641" y1="-191.527" x2="-117.641" y2="-191.527" stroke="black" stroke-width="0.305" stroke-linecap="square" />
    <line id="du-79" x1="-117.641" y1="-194.904" x2="-117.641" y2="-191.985" stroke="black" stroke-width="0.305" stroke-linecap="square" />
    <line id="du-80" x1="-126.176" y1="-197.749" x2="-126.176" y2="-197.749" stroke="black" stroke-width="0.305" stroke-linecap="square" />
    <line id="du-81" x1="-126.176" y1="-195.412" x2="-126.176" y2="-197.292" stroke="black" stroke-width="0.305" stroke-linecap="square" />
  </g>
</svg>