<?xml version="1.0" encoding="utf-8"?>
<svg xmlns="http://www.w3.org/2000/svg" viewBox="-133.979 188.910 25.184 20.931">
  <g transform="scale(1,-1)">
    <polygon id="sp-52" points="-120.194,-189.394 -124.112,-189.394 -124.112,-193.971 -120.194,-193.971" fill="rgba(0,0,255,0.1)" stroke="blue" stroke-width="0.05" />
    <polygon id="sp-53" points="-115.355,-189.394 -120.08,-189.394 -120.08,-193.971 -115.355,-193.971" fill="rgba(0,0,255,0.1)" stroke="blue" stroke-width="0.05" />
    <polygon id="sp-54" points="-124.226,-189.394 -128.188,-189.394 -128.188,-193.971 -127.484,-193.971 -124.226,-193.971" fill="rgba(0,0,255,0.1)" stroke="blue" stroke-width="0.05" />
    <polygon id="sp-55" points="-128.303,-189.394 -133.495,-189.394 -133.495,-199.946 -127.541,-203.363 -127.541,-194.085 -128.303,-194.085" fill="rgba(0,0,255,0.1)" stroke="blue" stroke-width="0.05" />
    <polygon id="sp-57" points="-125.269,-201.445 -117.153,-201.445 -117.153,-196.125 -125.269,-196.125" fill="rgba(0,0,255,0.1)" stroke="blue" stroke-width="0.05" />
    <polygon id="sp-58" points="-109.28,-209.356 -109.28,-204.054 -117.039,-204.054 -117.039,-209.356" fill="rgba(0,0,255,0.1)" stroke="blue" stroke-width="0.05" />
    <polygon id="sp-59" points="-111.698,-189.394 -115.241,-189.394 -115.241,-194.028 -115.241,-195.101 -111.698,-195.101" fill="rgba(0,0,255,0.1)" stroke="blue" stroke-width="0.05" />
    <polygon id="sp-60" points="-111.698,-195.215 -115.241,-195.215 -115.241,-199.063 -112.612,-199.063 -111.698,-199.063" fill="rgba(0,0,255,0.1)" stroke="blue" stroke-width="0.05" />
    <polygon id="sp-61" points="-115.241,-201.445 -112.669,-201.445 -112.669,-199.178 -115.241,-199.178" fill="rgba(0,0,255,0.1)" stroke="blue" stroke-width="0.05" />
  </g>
</svg>