<?xml version="1.0" encoding="utf-8"?>
<svg xmlns="http://www.w3.org/2000/svg" viewBox="-134.173 188.716 25.570 21.131">
  <g transform="scale(1,-1)">
    <line id="w-67" x1="-109.094" y1="-189.208" x2="-133.681" y2="-189.208" stroke="black" stroke-width="0.371" stroke-linecap="square" />
    <line id="w-68" x1="-109.094" y1="-189.208" x2="-109.094" y2="-209.356" stroke="black" stroke-width="0.371" stroke-linecap="square" />
    <line id="w-69" x1="-133.681" y1="-189.208" x2="-133.681" y2="-199.839" stroke="black" stroke-width="0.371" stroke-linecap="square" />
    <line id="w-70" x1="-128.246" y1="-189.208" x2="-128.246" y2="-194.028" stroke="black" stroke-width="0.114" stroke-linecap="square" />
    <line id="w-71" x1="-124.169" y1="-189.208" x2="-124.169" y2="-194.028" stroke="black" stroke-width="0.114" stroke-linecap="square" />
    <line id="w-72" x1="-120.137" y1="-194.028" x2="-120.137" y2="-189.208" stroke="black" stroke-width="0.114" stroke-linecap="square" />
    <line id="w-73" x1="-111.64" y1="-201.502" x2="-115.298" y2="-201.502" stroke="black" stroke-width="0.114" stroke-linecap="square" />
    <line id="w-74" x1="-115.298" y1="-194.028" x2="-128.246" y2="-194.028" stroke="black" stroke-width="0.114" stroke-linecap="square" />
    <line id="w-75" x1="-111.64" y1="-189.208" x2="-111.64" y2="-195.158" stroke="black" stroke-width="0.114" stroke-linecap="square" />
    <line id="w-76" x1="-111.64" y1="-195.158" x2="-115.298" y2="-195.158" stroke="black" stroke-width="0.114" stroke-linecap="square" />
    <line id="w-77" x1="-115.298" y1="-195.158" x2="-115.298" y2="-189.208" stroke="black" stroke-width="0.114" stroke-linecap="square" />
    <line id="w-78" x1="-115.298" y1="-195.158" x2="-115.298" y2="-201.502" stroke="black" stroke-width="0.114" stroke-linecap="square" />
    <line id="w-79" x1="-115.298" y1="-199.12" x2="-111.64" y2="-199.12" stroke="black" stroke-width="0.114" stroke-linecap="square" />
    <line id="w-80" x1="-111.64" y1="-195.158" x2="-111.64" y2="-199.12" stroke="black" stroke-width="0.114" stroke-linecap="square" />
    <line id="w-81" x1="-111.64" y1="-199.12" x2="-111.64" y2="-201.502" stroke="black" stroke-width="0.114" stroke-linecap="square" />
    <line id="w-82" x1="-111.64" y1="-201.502" x2="-115.298" y2="-201.502" stroke="black" stroke-width="0.114" stroke-linecap="square" />
    <line id="w-83" x1="-112.612" y1="-199.12" x2="-112.612" y2="-201.502" stroke="black" stroke-width="0.114" stroke-linecap="square" />
    <line id="w-84" x1="-127.484" y1="-203.395" x2="-127.484" y2="-194.028" stroke="black" stroke-width="0.114" stroke-linecap="square" />
    <line id="w-85" x1="-109.094" y1="-203.997" x2="-117.096" y2="-203.997" stroke="black" stroke-width="0.114" stroke-linecap="square" />
    <line id="w-86" x1="-117.096" y1="-203.997" x2="-117.096" y2="-209.356" stroke="black" stroke-width="0.114" stroke-linecap="square" />
    <line id="w-87" x1="-117.096" y1="-201.502" x2="-125.326" y2="-201.502" stroke="black" stroke-width="0.114" stroke-linecap="square" />
    <line id="w-88" x1="-117.096" y1="-196.067" x2="-117.096" y2="-201.502" stroke="black" stroke-width="0.114" stroke-linecap="square" />
    <line id="w-89" x1="-125.326" y1="-196.067" x2="-117.096" y2="-196.067" stroke="black" stroke-width="0.114" stroke-linecap="square" />
    <line id="w-90" x1="-125.326" y1="-201.502" x2="-125.326" y2="-196.067" stroke="black" stroke-width="0.114" stroke-linecap="square" />
  </g>
</svg>