<?xml version="1.0" encoding="utf-8"?>
<svg xmlns="http://www.w3.org/2000/svg" viewBox="-34.18 -13.53 56.284 23.339">
  <g transform="scale(1,-1)">
    <line id="sw-17" x1="15.431" y1="-6.134" x2="15.431" y2="0.724" stroke="black" stroke-width="0.305" stroke-linecap="square" />
    <line id="sw-18" x1="15.431" y1="0.724" x2="12.497" y2="0.724" stroke="black" stroke-width="0.305" stroke-linecap="square" />
    <line id="sw-19" x1="12.497" y1="0.724" x2="12.497" y2="-9.309" stroke="black" stroke-width="0.457" stroke-linecap="square" />
    <line id="sw-21" x1="-12.154" y1="5.779" x2="-12.154" y2="13.03" stroke="black" stroke-width="0.305" stroke-linecap="square" />
    <line id="sw-22" x1="-15.088" y1="13.03" x2="-15.088" y2="5.779" stroke="black" stroke-width="0.457" stroke-linecap="square" />
    <line id="sw-28" x1="18.86" y1="12.725" x2="21.604" y2="-8.112" stroke="black" stroke-width="0.61" stroke-linecap="square" />
    <line id="sw-29" x1="-33.68" y1="-8.611" x2="-33.68" y2="5.779" stroke="black" stroke-width="0.61" stroke-linecap="square" />
    <line id="sw-30" x1="-33.68" y1="-8.611" x2="-15.316" y2="-8.611" stroke="black" stroke-width="0.61" stroke-linecap="square" />
    <line id="sw-31" x1="-6.02" y1="-8.611" x2="-6.02" y2="-9.309" stroke="black" stroke-width="0.61" stroke-linecap="square" />
    <line id="sw-32" x1="-6.02" y1="-9.309" x2="12.51" y2="-9.309" stroke="black" stroke-width="0.61" stroke-linecap="square" />
    <line id="sw-33" x1="21.604" y1="-8.112" x2="12.51" y2="-9.309" stroke="black" stroke-width="0.61" stroke-linecap="square" />
    <line id="sw-34" x1="12.268" y1="12.725" x2="18.86" y2="12.725" stroke="black" stroke-width="0.61" stroke-linecap="square" />
    <line id="sw-35" x1="-15.088" y1="13.03" x2="-12.154" y2="13.03" stroke="black" stroke-width="0.61" stroke-linecap="square" />
    <line id="sw-36" x1="-15.316" y1="-8.611" x2="-6.02" y2="-8.611" stroke="black" stroke-width="0.61" stroke-linecap="square" />
    <line id="sw-39" x1="-12.154" y1="12.725" x2="12.268" y2="12.725" stroke="black" stroke-width="0.61" stroke-linecap="square" />
    <line id="sw-41" x1="-30.518" y1="12.725" x2="-15.088" y2="12.725" stroke="black" stroke-width="0.61" stroke-linecap="square" />
    <line id="sw-42" x1="-12.154" y1="5.779" x2="-15.088" y2="5.779" stroke="black" stroke-width="0.457" stroke-linecap="square" />
    <line id="sw-50" x1="15.431" y1="-6.134" x2="12.497" y2="-6.134" stroke="black" stroke-width="0.305" stroke-linecap="square" />
  </g>
</svg>