<?xml version="1.0" encoding="utf-8"?>
<svg xmlns="http://www.w3.org/2000/svg" viewBox="-33.648 -13.21 52.995 22.721">
  <g transform="scale(1,-1)">
    <polygon id="sp-51" points="-15.3,12.71 -30.229,12.71 -30.229,10.589 -27.503,10.589 -25.692,10.589 -25.692,5.753 -27.978,5.753 -27.978,7.547 -30.229,7.547 -30.229,5.634 -30.229,5.481 -30.229,5.04 -30.593,4.969 -32.146,2.661 -33.142,0.476 -33.148,0.479 -33.148,0.269 -32.59,0.269 -32.443,0.269 -32.427,0.262 -32.427,0.269 -32.34,0.269 -32.34,0.222 -28.228,-1.651 -27.09,0.845 -26.799,0.712 -26.797,0.711 -25.851,0.28 -21.636,-1.641 -20.498,0.855 -20.206,0.722 -20.205,0.722 -19.259,0.291 -15.043,-1.63 -13.906,0.866 -13.614,0.733 -13.613,0.732 -12.666,0.301 -8.451,-1.62 -7.875,-0.355 -7.875,-0.175 -8.058,-0.175 -8.058,0.609 -10.225,2.533 -11.376,3.712 -11.376,4.011 -6.055,4.011 -6.055,1.698 -5.998,1.621 -5.998,1.103 0.918,1.103 0.918,1.621 0.972,1.699 0.972,2.502 3.34,2.502 3.855,0.878 3.837,0.84 3.771,0.695 6.454,-0.527 6.959,0.583 8.261,-0.011 9.433,-0.544 9.456,-0.493 9.518,-0.356 7.135,2.502 12.421,2.502 12.421,1.013 15.583,1.013 15.583,2.497 18.793,2.497 18.793,3.722 18.78,3.722 18.78,11.556 18.793,11.643 18.793,12.123 18.793,12.71 18.847,12.709 18.846,12.71 -11.865,12.71 -11.865,12.506 -10.77,12.506 -10.77,5.236 -12.002,5.236 -12.002,5.566 -15.203,5.566 -17.602,5.566 -17.602,11.027 -15.3,11.027" fill="rgba(0,0,255,0.1)" stroke="blue" stroke-width="0.05" />
    <polygon id="sp-52" points="-5.998,-0.168 -5.998,-1.535 -5.998,-1.95 -5.998,-7.758 -4.628,-7.758 -4.628,-9.011 -0.452,-9.011 -0.452,-7.758 0.918,-7.758 0.918,-1.95 0.918,-1.535 0.918,1.103 -5.998,1.103" fill="rgba(0,0,255,0.1)" stroke="blue" stroke-width="0.05" />
    <polygon id="sp-53" points="-17.342,5.826 -15.203,5.826 -15.203,6.007 -15.164,6.007 -15.164,10.766 -15.232,10.766 -17.342,10.766" fill="rgba(0,0,255,0.1)" stroke="blue" stroke-width="0.05" />
  </g>
</svg>