<?xml version="1.0" encoding="utf-8"?>
<svg xmlns="http://www.w3.org/2000/svg" viewBox="-33.955 -13 54.937 15.555">
  <g transform="scale(1,-1)">
    <line id="w-738" x1="-30.236" y1="5.634" x2="-30.236" y2="5.044" stroke="black" stroke-width="0.013" stroke-linecap="square" />
    <line id="w-741" x1="-32.153" y1="2.661" x2="-33.148" y2="0.479" stroke="black" stroke-width="0.013" stroke-linecap="square" />
    <line id="w-742" x1="-33.148" y1="0.479" x2="-33.455" y2="0.479" stroke="black" stroke-width="0.013" stroke-linecap="square" />
    <line id="w-743" x1="-33.455" y1="0.479" x2="-33.455" y2="5.634" stroke="black" stroke-width="0.013" stroke-linecap="square" />
    <line id="w-746" x1="-8.052" y1="0.613" x2="-8.052" y2="-0.168" stroke="black" stroke-width="0.013" stroke-linecap="square" />
    <line id="w-747" x1="-8.052" y1="-0.168" x2="-6.171" y2="-0.168" stroke="black" stroke-width="0.013" stroke-linecap="square" />
    <line id="w-748" x1="-6.061" y1="4.005" x2="-11.37" y2="4.005" stroke="black" stroke-width="0.013" stroke-linecap="square" />
    <line id="w-749" x1="-6.061" y1="1.698" x2="-6.061" y2="4.005" stroke="black" stroke-width="0.013" stroke-linecap="square" />
    <line id="w-750" x1="-11.37" y1="4.005" x2="-11.37" y2="3.715" stroke="black" stroke-width="0.013" stroke-linecap="square" />
    <line id="w-751" x1="-27.972" y1="7.615" x2="-27.972" y2="5.759" stroke="black" stroke-width="0.013" stroke-linecap="square" />
    <line id="w-752" x1="-27.972" y1="5.759" x2="-25.698" y2="5.759" stroke="black" stroke-width="0.013" stroke-linecap="square" />
    <line id="w-753" x1="-25.698" y1="5.759" x2="-25.698" y2="10.582" stroke="black" stroke-width="0.013" stroke-linecap="square" />
    <line id="w-754" x1="-25.698" y1="10.582" x2="-27.503" y2="10.582" stroke="black" stroke-width="0.013" stroke-linecap="square" />
    <line id="w-755" x1="-8.553" y1="8.658" x2="-8.553" y2="9.033" stroke="black" stroke-width="0.013" stroke-linecap="square" />
    <line id="w-756" x1="-8.553" y1="9.033" x2="-6.464" y2="9.033" stroke="black" stroke-width="0.013" stroke-linecap="square" />
    <line id="w-757" x1="-6.464" y1="9.033" x2="-6.464" y2="8.658" stroke="black" stroke-width="0.013" stroke-linecap="square" />
    <line id="w-758" x1="-5.232" y1="8.658" x2="-5.232" y2="9.033" stroke="black" stroke-width="0.013" stroke-linecap="square" />
    <line id="w-759" x1="-5.232" y1="9.033" x2="-3.131" y2="9.033" stroke="black" stroke-width="0.013" stroke-linecap="square" />
    <line id="w-760" x1="-3.131" y1="9.033" x2="-3.131" y2="8.658" stroke="black" stroke-width="0.013" stroke-linecap="square" />
    <line id="w-761" x1="-8.553" y1="5.242" x2="-8.553" y2="5.617" stroke="black" stroke-width="0.013" stroke-linecap="square" />
    <line id="w-762" x1="-1.003" y1="5.242" x2="-8.553" y2="5.242" stroke="black" stroke-width="0.013" stroke-linecap="square" />
    <line id="w-763" x1="-1.003" y1="5.617" x2="-1.003" y2="5.242" stroke="black" stroke-width="0.013" stroke-linecap="square" />
    <line id="w-764" x1="0.724" y1="4.172" x2="0.972" y2="4.172" stroke="black" stroke-width="0.013" stroke-linecap="square" />
    <line id="w-765" x1="0.724" y1="3.727" x2="0.724" y2="4.172" stroke="black" stroke-width="0.013" stroke-linecap="square" />
    <line id="w-766" x1="3.229" y1="3.727" x2="0.724" y2="3.727" stroke="black" stroke-width="0.013" stroke-linecap="square" />
    <line id="w-767" x1="3.229" y1="8.652" x2="3.229" y2="3.727" stroke="black" stroke-width="0.013" stroke-linecap="square" />
    <line id="w-768" x1="2.931" y1="8.652" x2="3.229" y2="8.652" stroke="black" stroke-width="0.013" stroke-linecap="square" />
    <line id="w-769" x1="-10.776" y1="5.242" x2="-11.995" y2="5.242" stroke="black" stroke-width="0.013" stroke-linecap="square" />
    <line id="w-770" x1="-10.776" y1="12.5" x2="-10.776" y2="5.242" stroke="black" stroke-width="0.013" stroke-linecap="square" />
    <line id="w-771" x1="-11.865" y1="12.5" x2="-10.776" y2="12.5" stroke="black" stroke-width="0.013" stroke-linecap="square" />
    <line id="w-772" x1="-11.995" y1="5.242" x2="-11.995" y2="5.566" stroke="black" stroke-width="0.013" stroke-linecap="square" />
    <line id="w-773" x1="-6.42" y1="10.265" x2="-6.42" y2="12.5" stroke="black" stroke-width="0.013" stroke-linecap="square" />
    <line id="w-774" x1="-5.925" y1="10.265" x2="-6.42" y2="10.265" stroke="black" stroke-width="0.013" stroke-linecap="square" />
    <line id="w-775" x1="-5.925" y1="12.5" x2="-5.925" y2="10.265" stroke="black" stroke-width="0.013" stroke-linecap="square" />
    <line id="w-776" x1="-6.42" y1="12.5" x2="-5.925" y2="12.5" stroke="black" stroke-width="0.013" stroke-linecap="square" />
    <line id="w-777" x1="-1.899" y1="12.5" x2="-1.403" y2="12.5" stroke="black" stroke-width="0.013" stroke-linecap="square" />
    <line id="w-778" x1="-1.899" y1="8.658" x2="-1.899" y2="12.5" stroke="black" stroke-width="0.013" stroke-linecap="square" />
    <line id="w-779" x1="-1.403" y1="12.5" x2="-1.403" y2="8.658" stroke="black" stroke-width="0.013" stroke-linecap="square" />
    <line id="w-780" x1="18.787" y1="11.556" x2="19.818" y2="3.722" stroke="black" stroke-width="0.013" stroke-linecap="square" />
    <line id="w-781" x1="19.818" y1="3.722" x2="18.787" y2="3.722" stroke="black" stroke-width="0.013" stroke-linecap="square" />
    <line id="w-782" x1="18.787" y1="3.722" x2="18.787" y2="11.556" stroke="black" stroke-width="0.013" stroke-linecap="square" />
    <line id="w-783" x1="11.478" y1="-1.246" x2="9.526" y2="-0.357" stroke="black" stroke-width="0.013" stroke-linecap="square" />
    <line id="w-785" x1="7.152" y1="2.496" x2="12.414" y2="2.496" stroke="black" stroke-width="0.013" stroke-linecap="square" />
    <line id="w-786" x1="12.414" y1="2.496" x2="12.414" y2="1.013" stroke="black" stroke-width="0.013" stroke-linecap="square" />
    <line id="w-787" x1="11.767" y1="-0.613" x2="11.478" y2="-1.246" stroke="black" stroke-width="0.013" stroke-linecap="square" />
    <line id="w-788" x1="12.284" y1="-0.613" x2="11.767" y2="-0.613" stroke="black" stroke-width="0.013" stroke-linecap="square" />
    <line id="w-789" x1="0.978" y1="1.699" x2="0.978" y2="2.496" stroke="black" stroke-width="0.013" stroke-linecap="square" />
    <line id="w-790" x1="3.333" y1="2.496" x2="0.978" y2="2.496" stroke="black" stroke-width="0.013" stroke-linecap="square" />
    <line id="w-791" x1="2.117" y1="-0.229" x2="1.264" y2="-0.229" stroke="black" stroke-width="0.013" stroke-linecap="square" />
    <line id="w-792" x1="2.816" y1="1.305" x2="2.117" y2="-0.229" stroke="black" stroke-width="0.013" stroke-linecap="square" />
    <line id="w-793" x1="3.899" y1="0.812" x2="2.816" y2="1.305" stroke="black" stroke-width="0.013" stroke-linecap="square" />
    <line id="w-795" x1="19.98" y1="2.49" x2="20.482" y2="-1.323" stroke="black" stroke-width="0.013" stroke-linecap="square" />
    <line id="w-796" x1="15.589" y1="2.49" x2="19.98" y2="2.49" stroke="black" stroke-width="0.013" stroke-linecap="square" />
    <line id="w-797" x1="15.589" y1="1.013" x2="15.589" y2="2.49" stroke="black" stroke-width="0.013" stroke-linecap="square" />
    <line id="w-798" x1="16.984" y1="-0.613" x2="15.719" y2="-0.613" stroke="black" stroke-width="0.013" stroke-linecap="square" />
    <line id="w-799" x1="20.149" y1="-2.055" x2="16.984" y2="-0.613" stroke="black" stroke-width="0.013" stroke-linecap="square" />
    <line id="w-800" x1="20.482" y1="-1.323" x2="20.149" y2="-2.055" stroke="black" stroke-width="0.013" stroke-linecap="square" />
  </g>
</svg>