<?xml version="1.0" encoding="utf-8"?>
<svg xmlns="http://www.w3.org/2000/svg" viewBox="-34.315 -23.322 56.245 32.983">
  <g transform="scale(1,-1)">
    <rect id="tm-48" x="-2.69" y="1.603" width="0.3" height="0.3" fill="black" />
    <rect id="tm-49" x="-2.69" y="4.244" width="0.3" height="0.3" fill="black" />
    <rect id="tm-52" x="-0.48" y="4.244" width="0.3" height="0.3" fill="black" transform="rotate(180,-0.33,4.394)" />
    <rect id="tm-53" x="-0.48" y="1.603" width="0.3" height="0.3" fill="black" transform="rotate(180,-0.33,1.753)" />
    <rect id="tm-54" x="-29.101" y="6.525" width="0.3" height="0.3" fill="black" transform="rotate(180,-28.951,6.675)" />
    <rect id="tm-164" x="1.83" y="4.993" width="0.3" height="0.3" fill="black" transform="rotate(180,1.98,5.143)" />
    <rect id="tm-167" x="-12.072" y="7.954" width="0.3" height="0.3" fill="black" transform="rotate(240,-11.922,8.104)" />
    <rect id="tm-168" x="-12.072" y="8.942" width="0.3" height="0.3" fill="black" transform="rotate(120,-11.922,9.092)" />
    <rect id="tm-169" x="-6.173" y="1.361" width="0.3" height="0.3" fill="black" transform="rotate(240,-6.023,1.511)" />
    <rect id="tm-170" x="-6.173" y="5.041" width="0.3" height="0.3" fill="black" transform="rotate(120,-6.023,5.191)" />
    <rect id="tm-171" x="12.731" y="10.747" width="0.3" height="0.3" fill="black" transform="rotate(240,12.881,10.897)" />
    <rect id="tm-172" x="12.731" y="9.759" width="0.3" height="0.3" fill="black" transform="rotate(120,12.881,9.909)" />
    <rect id="tm-173" x="9.262" y="12.56" width="0.3" height="0.3" fill="black" transform="rotate(180,9.412,12.71)" />
    <rect id="tm-174" x="10.25" y="12.56" width="0.3" height="0.3" fill="black" transform="rotate(90,10.4,12.71)" />
    <rect id="tm-175" x="1.83" y="4.993" width="0.3" height="0.3" fill="black" transform="rotate(180,1.98,5.143)" />
    <rect id="tm-176" x="1.83" y="4.993" width="0.3" height="0.3" fill="black" transform="rotate(180,1.98,5.143)" />
    <rect id="tm-177" x="1.83" y="4.993" width="0.3" height="0.3" fill="black" transform="rotate(180,1.98,5.143)" />
    <rect id="tm-178" x="1.83" y="4.993" width="0.3" height="0.3" fill="black" transform="rotate(180,1.98,5.143)" />
    <rect id="tm-219" x="12.575" y="-7.275" width="0.3" height="0.3" fill="black" transform="rotate(120,12.725,-7.125)" />
    <rect id="tm-220" x="15.128" y="-7.275" width="0.3" height="0.3" fill="black" transform="rotate(120,15.278,-7.125)" />
    <rect id="tm-238" x="12.575" y="-5.217" width="0.3" height="0.3" fill="black" transform="rotate(120,12.725,-5.067)" />
    <rect id="tm-239" x="15.128" y="-5.217" width="0.3" height="0.3" fill="black" transform="rotate(120,15.278,-5.067)" />
    <rect id="tm-248" x="-15.009" y="11.963" width="0.3" height="0.3" fill="black" transform="rotate(240,-14.859,12.113)" />
    <rect id="tm-249" x="-15.009" y="6.772" width="0.3" height="0.3" fill="black" transform="rotate(240,-14.859,6.922)" />
    <rect id="tm-260" x="-12.456" y="11.963" width="0.3" height="0.3" fill="black" transform="rotate(240,-12.306,12.113)" />
    <rect id="tm-261" x="-12.456" y="6.772" width="0.3" height="0.3" fill="black" transform="rotate(240,-12.306,6.922)" />
    <rect id="tm-272" x="-33.373" y="11.963" width="0.3" height="0.3" fill="black" transform="rotate(240,-33.223,12.113)" />
    <rect id="tm-273" x="-33.373" y="6.518" width="0.3" height="0.3" fill="black" transform="rotate(240,-33.223,6.668)" />
    <rect id="tm-284" x="-30.821" y="11.963" width="0.3" height="0.3" fill="black" transform="rotate(240,-30.671,12.113)" />
    <rect id="tm-285" x="-30.821" y="6.518" width="0.3" height="0.3" fill="black" transform="rotate(240,-30.671,6.668)" />
    <rect id="tm-290" x="12.575" y="-0.239" width="0.3" height="0.3" fill="black" transform="rotate(120,12.725,-0.089)" />
    <rect id="tm-293" x="15.128" y="-0.239" width="0.3" height="0.3" fill="black" transform="rotate(120,15.278,-0.089)" />
    <rect id="tm-533" x="13.795" y="10.962" width="0.3" height="0.3" fill="black" transform="rotate(180,13.945,11.112)" />
    <rect id="tm-534" x="13.795" y="11.877" width="0.3" height="0.3" fill="black" transform="rotate(180,13.945,12.027)" />
    <rect id="tm-535" x="13.795" y="9.591" width="0.3" height="0.3" fill="black" transform="rotate(180,13.945,9.741)" />
    <rect id="tm-536" x="13.795" y="8.524" width="0.3" height="0.3" fill="black" transform="rotate(180,13.945,8.674)" />
    <rect id="tm-738" x="12.731" y="11.262" width="0.3" height="0.3" fill="black" transform="rotate(120,12.881,11.412)" />
    <rect id="tm-739" x="12.731" y="9.235" width="0.3" height="0.3" fill="black" transform="rotate(120,12.881,9.385)" />
    <rect id="tm-740" x="13.795" y="7.832" width="0.3" height="0.3" fill="black" transform="rotate(90,13.945,7.982)" />
    <rect id="tm-741" x="12.572" y="6.924" width="0.3" height="0.3" fill="black" transform="rotate(120,12.722,7.074)" />
    <rect id="tm-742" x="12.572" y="4.028" width="0.3" height="0.3" fill="black" transform="rotate(120,12.722,4.178)" />
    <rect id="tm-743" x="14.099" y="2.673" width="0.3" height="0.3" fill="black" transform="rotate(180,14.249,2.823)" />
    <rect id="tm-744" x="19.268" y="8.147" width="0.3" height="0.3" fill="black" transform="rotate(244.231,19.418,8.297)" />
    <rect id="tm-745" x="19.918" y="3.21" width="0.3" height="0.3" fill="black" transform="rotate(244.231,20.068,3.36)" />
    <rect id="tm-746" x="20.537" y="-1.495" width="0.3" height="0.3" fill="black" transform="rotate(244.231,20.687,-1.345)" />
    <rect id="tm-747" x="21.13" y="-5.998" width="0.3" height="0.3" fill="black" transform="rotate(244.231,21.28,-5.848)" />
    <rect id="tm-748" x="15.512" y="-6.005" width="0.3" height="0.3" fill="black" transform="rotate(120,15.662,-5.855)" />
    <rect id="tm-749" x="15.512" y="-2.83" width="0.3" height="0.3" fill="black" transform="rotate(120,15.662,-2.68)" />
    <rect id="tm-750" x="15.512" y="0.002" width="0.3" height="0.3" fill="black" transform="rotate(120,15.662,0.152)" />
    <rect id="tm-1023" x="12.731" y="11.836" width="0.3" height="0.3" fill="black" transform="rotate(120,12.881,11.986)" />
    <rect id="tm-1024" x="12.731" y="8.744" width="0.3" height="0.3" fill="black" transform="rotate(120,12.881,8.894)" />
    <rect id="tm-1047" x="15.359" y="-8.669" width="0.3" height="0.3" fill="black" transform="rotate(244.231,15.509,-8.519)" />
    <rect id="tm-1048" x="18.804" y="11.668" width="0.3" height="0.3" fill="black" transform="rotate(244.231,18.954,11.818)" />
    <rect id="tm-1061" x="15.954" y="12.56" width="0.3" height="0.3" fill="black" transform="rotate(90,16.104,12.71)" />
  </g>
</svg>