<?xml version="1.0" encoding="utf-8"?>
<svg xmlns="http://www.w3.org/2000/svg" viewBox="-6.284 -13.149 22.286 22.829">
  <g transform="scale(1,-1)">
    <polygon id="cl-1" points="-3.766,0.895 0.943,0.895 0.943,5.674 -1.894,5.674 -3.766,5.674" />
    <polygon id="cl-2" points="12.881,10.465 15.015,10.465 15.015,12.71 12.881,12.71" />
    <polygon id="cl-3" points="15.015,10.341 12.881,10.341 12.881,8.106 15.015,8.106" />
    <polygon id="cl-4" points="-5.845,-8.868 -5.845,-9.096 -4.721,-9.096 -4.721,-8.868 -4.801,-8.868 -5.766,-8.868" />
    <polygon id="cl-5" points="0.765,-8.868 0.686,-8.868 -0.279,-8.868 -0.359,-8.868 -0.359,-9.096 0.765,-9.096" />
    <polygon id="cl-6" points="13.221,-8.252 13.221,-9.241 15.563,-8.933 15.563,-8.252" />
    <polygon id="cl-7" points="15.278,-7.811 15.278,-6.287 12.725,-6.287 12.725,-7.811" />
  </g>
</svg>