<?xml version="1.0" encoding="utf-8"?>
<svg xmlns="http://www.w3.org/2000/svg" viewBox="-21.273 -13.812 40.277 22.526">
  <g transform="scale(1,-1)">
    <path id="du-1" d="M 17.722,-5.145 L 17.722,-4.183" />
    <path id="du-2" d="M -7.788,11.232 L -7.788,10.892" />
    <path id="du-3" d="M -2.858,11.232 L -2.858,10.457" />
    <path id="du-4" d="M 17.722,-6.575 L 17.722,-7.94" />
    <path id="du-5" d="M 18.23,-6.575 L 18.23,-7.205" />
    <path id="du-1054" d="M -20.498,12.583 L -20.498,12.583" />
    <path id="du-1055" d="M -9.22,10.778 L -9.22,10.778" />
    <path id="du-1056" d="M 6.426,12.583 L 6.426,12.583" />
    <path id="du-1057" d="M -17.145,12.402 L -17.145,12.402" />
    <path id="du-1058" d="M -17.145,10.754 L -17.145,10.754" />
    <path id="du-1059" d="M -17.145,10.798 L -17.145,10.929" />
    <path id="du-1060" d="M -17.145,11.126 L -17.145,12.249" />
    <path id="du-1061" d="M -17.145,10.973 L -17.145,10.973" />
    <path id="du-1062" d="M -3.734,10.93 L -3.734,11.232" />
    <path id="du-1063" d="M -3.734,10.778 L -3.734,10.778" />
    <path id="du-1064" d="M -9.22,11.232 L -9.22,10.93" />
    <path id="du-1065" d="M -20.498,13.037 L -20.498,12.735" />
  </g>
</svg>