<?xml version="1.0" encoding="utf-8"?>
<svg xmlns="http://www.w3.org/2000/svg" viewBox="-28.643 -13.772 49.162 12.698">
  <g transform="scale(1,-1)">
    <rect id="mn-1" x="-11.074" y="7.572" width="0.05" height="0.05" transform="rotate(120,-11.049,7.597)" />
    <rect id="mn-2" x="-10.605" y="8.155" width="0.05" height="0.05" transform="rotate(240,-10.58,8.18)" />
    <rect id="mn-3" x="-11.074" y="9.765" width="0.05" height="0.05" transform="rotate(120,-11.049,9.79)" />
    <rect id="mn-998" x="-17.17" y="10.729" width="0.05" height="0.05" transform="rotate(90,-17.145,10.754)" />
    <rect id="mn-999" x="-17.17" y="10.948" width="0.05" height="0.05" transform="rotate(148.6,-17.145,10.973)" />
    <rect id="mn-1000" x="-17.17" y="10.948" width="0.05" height="0.05" transform="rotate(90,-17.145,10.973)" />
    <rect id="mn-1001" x="-17.17" y="12.377" width="0.05" height="0.05" transform="rotate(180,-17.145,12.402)" />
    <rect id="mn-1002" x="6.401" y="12.558" width="0.05" height="0.05" transform="rotate(90,6.426,12.583)" />
    <rect id="mn-1003" x="-3.759" y="10.753" width="0.05" height="0.05" transform="rotate(90,-3.734,10.778)" />
    <rect id="mn-1004" x="-9.245" y="10.753" width="0.05" height="0.05" transform="rotate(90,-9.22,10.778)" />
    <rect id="mn-1005" x="-20.523" y="12.558" width="0.05" height="0.05" transform="rotate(90,-20.498,12.583)" />
    <rect id="mn-1006" x="13.364" y="8.538" width="0.05" height="0.05" transform="rotate(270,13.389,8.563)" />
    <rect id="mn-1007" x="13.364" y="12.218" width="0.05" height="0.05" transform="rotate(90,13.389,12.243)" />
    <rect id="mn-1008" x="14.278" y="12.25" width="0.05" height="0.05" transform="rotate(179.156,14.303,12.275)" />
    <rect id="mn-1009" x="13.364" y="12.218" width="0.05" height="0.05" transform="rotate(241.148,13.389,12.243)" />
    <rect id="mn-1010" x="14.278" y="12.25" width="0.05" height="0.05" transform="rotate(94.353,14.303,12.275)" />
    <rect id="mn-1011" x="12.773" y="9.886" width="0.05" height="0.05" transform="rotate(180,12.798,9.911)" />
    <rect id="mn-1012" x="12.773" y="9.886" width="0.05" height="0.05" transform="rotate(240,12.798,9.911)" />
    <rect id="mn-1013" x="13.364" y="9.886" width="0.05" height="0.05" transform="rotate(90,13.389,9.911)" />
    <rect id="mn-1014" x="13.364" y="9.888" width="0.05" height="0.05" transform="rotate(239.309,13.389,9.913)" />
    <rect id="mn-1015" x="13.364" y="9.886" width="0.05" height="0.05" transform="rotate(120,13.389,9.911)" />
    <rect id="mn-1016" x="12.773" y="10.872" width="0.05" height="0.05" transform="rotate(240,12.798,10.897)" />
    <rect id="mn-1017" x="13.364" y="10.872" width="0.05" height="0.05" transform="rotate(239.309,13.389,10.897)" />
    <rect id="mn-1018" x="13.364" y="10.872" width="0.05" height="0.05" transform="rotate(120,13.389,10.897)" />
    <rect id="mn-1019" x="13.364" y="10.872" width="0.05" height="0.05" transform="rotate(90,13.389,10.897)" />
    <rect id="mn-1020" x="12.773" y="10.872" width="0.05" height="0.05" transform="rotate(240,12.798,10.897)" />
    <rect id="mn-1021" x="12.953" y="11.742" width="0.05" height="0.05" transform="rotate(214.045,12.978,11.767)" />
    <rect id="mn-1022" x="13.364" y="12.218" width="0.05" height="0.05" transform="rotate(263.005,13.389,12.243)" />
    <rect id="mn-1023" x="10.306" y="6.144" width="0.05" height="0.05" transform="rotate(240,10.331,6.169)" />
    <rect id="mn-1024" x="10.306" y="5.999" width="0.05" height="0.05" transform="rotate(211.4,10.331,6.024)" />
    <rect id="mn-1025" x="10.306" y="5.265" width="0.05" height="0.05" transform="rotate(179.691,10.331,5.29)" />
    <rect id="mn-1026" x="10.306" y="5.389" width="0.05" height="0.05" transform="rotate(94.104,10.331,5.414)" />
    <rect id="mn-1027" x="10.306" y="5.56" width="0.05" height="0.05" transform="rotate(240,10.331,5.585)" />
    <rect id="mn-1028" x="18.62" y="11.349" width="0.05" height="0.05" transform="rotate(185.301,18.645,11.374)" />
    <rect id="mn-1029" x="14.278" y="12.25" width="0.05" height="0.05" transform="rotate(240,14.303,12.275)" />
    <rect id="mn-1030" x="-21.361" y="2.02" width="0.05" height="0.05" transform="rotate(179.578,-21.336,2.045)" />
    <rect id="mn-1031" x="-15.036" y="2.02" width="0.05" height="0.05" transform="rotate(179.578,-15.011,2.045)" />
    <rect id="mn-1032" x="-6.197" y="2.02" width="0.05" height="0.05" transform="rotate(179.578,-6.172,2.045)" />
    <rect id="mn-1033" x="1.067" y="2.02" width="0.05" height="0.05" transform="rotate(179.578,1.092,2.045)" />
    <rect id="mn-1034" x="7.265" y="2.02" width="0.05" height="0.05" transform="rotate(179.578,7.29,2.045)" />
    <rect id="mn-1035" x="12.548" y="2.02" width="0.05" height="0.05" transform="rotate(179.578,12.573,2.045)" />
    <rect id="mn-1036" x="-27.698" y="2.02" width="0.05" height="0.05" transform="rotate(240.015,-27.673,2.045)" />
    <rect id="mn-1037" x="19.523" y="2.02" width="0.05" height="0.05" transform="rotate(97.005,19.548,2.045)" />
    <rect id="mn-1038" x="12.812" y="10.77" width="0.05" height="0.05" transform="rotate(120,12.837,10.795)" />
    <rect id="mn-1039" x="12.812" y="10.77" width="0.05" height="0.05" transform="rotate(180,12.837,10.795)" />
    <rect id="mn-1040" x="12.813" y="9.784" width="0.05" height="0.05" transform="rotate(180,12.838,9.809)" />
    <rect id="mn-1041" x="12.813" y="9.784" width="0.05" height="0.05" transform="rotate(90.109,12.838,9.809)" />
    <rect id="mn-1042" x="12.812" y="12.777" width="0.05" height="0.05" transform="rotate(180,12.837,12.802)" />
    <rect id="mn-1043" x="15.521" y="12.608" width="0.05" height="0.05" transform="rotate(270,15.546,12.633)" />
    <rect id="mn-1044" x="15.521" y="12.777" width="0.05" height="0.05" transform="rotate(90,15.546,12.802)" />
    <rect id="mn-1045" x="15.521" y="12.739" width="0.05" height="0.05" transform="rotate(240,15.546,12.764)" />
    <rect id="mn-1046" x="15.521" y="12.739" width="0.05" height="0.05" transform="rotate(120,15.546,12.764)" />
    <rect id="mn-1047" x="6.249" y="12.608" width="0.05" height="0.05" transform="rotate(270,6.274,12.633)" />
    <rect id="mn-1048" x="15.674" y="12.532" width="0.05" height="0.05" transform="rotate(90,15.699,12.557)" />
    <rect id="mn-1049" x="15.674" y="12.608" width="0.05" height="0.05" transform="rotate(120,15.699,12.633)" />
    <rect id="mn-1050" x="12.773" y="8.335" width="0.05" height="0.05" transform="rotate(180,12.798,8.36)" />
    <rect id="mn-1051" x="12.773" y="8.335" width="0.05" height="0.05" transform="rotate(90,12.798,8.36)" />
    <rect id="mn-1052" x="12.773" y="12.015" width="0.05" height="0.05" transform="rotate(180,12.798,12.04)" />
    <rect id="mn-1053" x="15.674" y="12.608" width="0.05" height="0.05" transform="rotate(240,15.699,12.633)" />
    <rect id="mn-1054" x="12.773" y="9.99" width="0.05" height="0.05" transform="rotate(180,12.798,10.015)" />
    <rect id="mn-1055" x="12.773" y="10.973" width="0.05" height="0.05" transform="rotate(90,12.798,10.998)" />
    <rect id="mn-1056" x="12.773" y="12.015" width="0.05" height="0.05" transform="rotate(120,12.798,12.04)" />
    <rect id="mn-1057" x="15.674" y="12.532" width="0.05" height="0.05" transform="rotate(270,15.699,12.557)" />
    <rect id="mn-1058" x="6.401" y="12.608" width="0.05" height="0.05" transform="rotate(240,6.426,12.633)" />
    <rect id="mn-1059" x="19.38" y="2.02" width="0.05" height="0.05" transform="rotate(180.42,19.405,2.045)" />
    <rect id="mn-1060" x="12.548" y="2.02" width="0.05" height="0.05" transform="rotate(240,12.573,2.045)" />
    <rect id="mn-1061" x="7.176" y="2.02" width="0.05" height="0.05" transform="rotate(180,7.201,2.045)" />
    <rect id="mn-1062" x="7.265" y="2.02" width="0.05" height="0.05" transform="rotate(240,7.29,2.045)" />
  </g>
</svg>