<?xml version="1.0" encoding="utf-8"?>
<svg xmlns="http://www.w3.org/2000/svg" viewBox="-28.612 -13.764 48.851 12.659">
  <g transform="scale(1,-1)">
    <path id="pi-1" d="M 13.389,12.243 L 13.389,12.243" />
    <path id="pi-2" d="M 13.389,8.563 L 13.389,8.563" />
    <path id="pi-3" d="M 13.513,12.247 L 14.18,12.27" />
    <path id="pi-4" d="M 14.303,12.275 L 14.303,12.275" />
    <path id="pi-5" d="M 12.881,9.911 L 12.876,9.911" />
    <path id="pi-6" d="M 12.798,9.911 L 12.798,9.911" />
    <path id="pi-7" d="M 12.876,9.911 L 13.311,9.911" />
    <path id="pi-8" d="M 13.389,9.911 L 13.389,9.911" />
    <path id="pi-9" d="M 13.389,11.039 L 13.389,12.1" />
    <path id="pi-10" d="M 13.389,8.706 L 13.389,9.803" />
    <path id="pi-11" d="M 12.876,10.897 L 12.881,10.897" />
    <path id="pi-12" d="M 12.798,10.897 L 12.798,10.897" />
    <path id="pi-13" d="M 12.876,10.897 L 13.311,10.897" />
    <path id="pi-14" d="M 13.389,10.897 L 13.389,10.897" />
    <path id="pi-15" d="M 13.389,10.056 L 13.389,10.786" />
    <path id="pi-16" d="M 13.389,12.243 L 13.389,12.243" />
    <path id="pi-17" d="M 13.299,12.139 L 13.028,11.826" />
    <path id="pi-18" d="M 13.389,12.243 L 13.389,12.243" />
    <path id="pi-19" d="M 10.331,6.637 L 10.331,6.226" />
    <path id="pi-20" d="M 10.331,6.129 L 10.331,6.065" />
    <path id="pi-21" d="M 10.331,5.967 L 10.331,5.643" />
    <path id="pi-22" d="M 10.331,5.499 L 10.331,5.536" />
    <path id="pi-23" d="M -14.933,2.045 L -6.226,2.045" />
    <path id="pi-24" d="M -6.094,2.045 L 1.038,2.045" />
    <path id="pi-25" d="M 1.17,2.045 L 7.121,2.045" />
    <path id="pi-26" d="M 7.406,2.045 L 12.484,2.045" />
    <path id="pi-27" d="M 12.689,2.045 L 19.299,2.045" />
    <path id="pi-28" d="M -27.673,2.045 L -27.673,2.045" />
    <path id="pi-29" d="M -21.336,2.045 L -21.336,2.045" />
    <path id="pi-30" d="M -15.011,2.045 L -15.011,2.045" />
    <path id="pi-31" d="M -6.172,2.045 L -6.172,2.045" />
    <path id="pi-32" d="M 1.092,2.045 L 1.092,2.045" />
    <path id="pi-33" d="M 7.29,2.045 L 7.29,2.045" />
    <path id="pi-34" d="M 12.573,2.045 L 12.573,2.045" />
    <path id="pi-35" d="M -21.258,2.045 L -20.855,2.045" />
    <path id="pi-36" d="M -21.39,2.045 L -27.595,2.045" />
    <path id="pi-37" d="M -15.065,2.045 L -20.723,2.045" />
    <path id="pi-38" d="M 12.837,10.795 L 12.837,10.795" />
    <path id="pi-39" d="M 12.851,10.795 L 12.881,10.795" />
    <path id="pi-40" d="M 12.837,10.816 L 12.837,12.787" />
    <path id="pi-41" d="M 12.881,9.809 L 12.852,9.809" />
    <path id="pi-42" d="M 12.837,9.823 L 12.837,10.774" />
    <path id="pi-43" d="M 12.838,9.809 L 12.838,9.809" />
    <path id="pi-44" d="M 15.546,12.633 L 15.546,12.633" />
    <path id="pi-45" d="M 12.851,12.802 L 15.532,12.802" />
    <path id="pi-46" d="M 15.546,12.764 L 15.546,12.764" />
    <path id="pi-47" d="M 15.546,12.749 L 15.546,12.648" />
    <path id="pi-48" d="M 15.546,12.787 L 15.546,12.778" />
    <path id="pi-49" d="M 6.274,12.633 L 6.274,12.633" />
    <path id="pi-50" d="M 6.274,12.648 L 6.274,12.825" />
    <path id="pi-51" d="M -9.22,10.828 L -9.22,10.828" />
    <path id="pi-52" d="M 6.426,12.633 L 6.426,12.633" />
    <path id="pi-53" d="M 15.699,12.557 L 15.699,12.557" />
    <path id="pi-54" d="M 15.699,12.578 L 15.699,12.613" />
    <path id="pi-55" d="M 15.699,12.633 L 15.699,12.633" />
    <path id="pi-56" d="M 12.881,10.012 L 12.819,10.014" />
    <path id="pi-57" d="M 12.881,8.36 L 12.813,8.36" />
    <path id="pi-58" d="M 12.798,8.36 L 12.798,8.36" />
    <path id="pi-59" d="M 12.798,8.374 L 12.798,9.994" />
    <path id="pi-60" d="M 12.881,12.04 L 12.813,12.04" />
    <path id="pi-61" d="M 12.798,12.04 L 12.798,12.04" />
    <path id="pi-62" d="M 12.881,10.998 L 12.819,10.998" />
    <path id="pi-63" d="M 15.699,12.633 L 15.699,12.633" />
    <path id="pi-64" d="M 15.699,12.557 L 15.699,12.557" />
    <path id="pi-65" d="M -3.886,10.828 L -3.886,10.828" />
    <path id="pi-66" d="M -9.373,10.828 L -9.373,10.828" />
  </g>
</svg>