<?xml version="1.0" encoding="utf-8"?>
<svg xmlns="http://www.w3.org/2000/svg" viewBox="-28.534 -24.013 51.414 61.948">
  <g transform="scale(1,-1)">
    <polygon id="sl-1" points="14.154,-3.016 14.154,-4.921 13.849,-4.921 13.849,-4.483 12.732,-4.483 12.732,-5.975 12.859,-5.975 12.859,-6.115 13.862,-6.115 13.862,-5.975 15.272,-5.975 15.272,-3.016" />
    <polygon id="sl-2" points="16.631,12.878 15.03,12.878 15.03,8.09 12.69,8.09 12.69,2.715 12.722,2.715 15.554,2.715 15.554,0.876 15.583,0.876 15.583,-8.929 16.18,-8.851 16.164,-8.728 17.272,-8.582 17.179,-7.877 17.291,-7.862 17.594,-7.822 19.949,-7.512 20.042,-8.217 21.15,-8.071 21.146,-8.043 21.285,-8.025 21.338,-8.018 21.288,-7.64 21.688,-7.587 20.761,-0.543 20.3,-0.543 19.296,-0.543 19.296,0.683 19.296,0.876 19.296,1.051 20.09,1.051 20.551,1.051 19.235,11.049 16.631,11.049" />
    <polygon id="sl-3" points="12.592,-9.604 12.592,-9.324 12.58,-9.233 11.532,-9.233 11.532,-8.522 8.738,-8.522 8.738,-9.233 7.62,-9.233 7.62,-9.176 6.985,-9.176 6.985,-9.233 5.944,-9.233 5.944,-8.522 3.15,-8.522 3.15,-9.233 2.032,-9.233 2.032,-9.176 1.039,-9.176 1.039,-9.604" />
    <polygon id="sl-4" points="13.221,-8.115 13.221,-9.041 15.537,-8.736 15.455,-8.115" />
    <polygon id="sl-5" points="21.202,-8.47 21.15,-8.071 20.042,-8.217 19.949,-7.512 17.179,-7.877 17.272,-8.582 16.164,-8.728 16.18,-8.851 15.563,-8.932 15.599,-9.208" />
    <polygon id="sl-6" points="16.631,12.878 16.631,12.421 16.631,11.049 19.235,11.049 18.994,12.878 18.533,12.878 18.412,12.878 18.412,13.03 16.888,13.03 16.888,12.878" />
    <polygon id="sl-7" points="12.69,12.878 12.69,12.421 12.69,8.09 15.03,8.09 15.03,12.421 15.03,12.878" />
    <polygon id="sl-8" points="-15.199,14.691 -15.199,13.472 -13.446,13.472 -13.446,14.691" />
    <polygon id="sl-192" points="-27.343,-24.209 -20.028,-24.209 -20.028,-8.915 -27.343,-8.915" />
    <polygon id="sl-193" points="-27.343,-36.743 -20.028,-34.305 -20.028,-24.209 -27.343,-24.209" />
    <polygon id="sl-195" points="17.043,22.822 13.69,22.822 13.69,20.561 17.043,20.561" />
  </g>
</svg>