<?xml version="1.0" encoding="utf-8"?>
<svg xmlns="http://www.w3.org/2000/svg" viewBox="-35.022 -14.372 51.642 61.829">
  <g transform="scale(1,-1)">
    <path id="sw-12" d="M -30.518,13.183 L -33.833,13.183" />
    <path id="sw-13" d="M -33.833,13.183 L -33.833,5.855" />
    <path id="sw-14" d="M -12.154,5.855 L -12.154,13.183" />
    <path id="sw-15" d="M -12.154,13.183 L -15.011,13.183" />
    <path id="sw-16" d="M -15.011,13.183 L -15.011,5.855" />
    <path id="sw-23" d="M 15.431,-6.134 L 12.573,-6.134" />
    <path id="sw-24" d="M 15.431,0.724 L 12.573,0.724" />
    <path id="sw-25" d="M 15.431,-6.134 L 15.431,0.724" />
    <path id="sw-26" d="M 12.573,0.724 L 12.573,-6.134" />
    <path id="sw-51" d="M -14.768,-46.268 L -18.199,-46.268" />
    <path id="sw-54" d="M -27.724,-21.505 L -27.724,-36.743" />
    <path id="sw-55" d="M -19.647,-21.74 L -19.647,-34.305" />
    <path id="sw-56" d="M -27.724,-21.505 L -19.647,-21.74" />
    <path id="sw-57" d="M -27.724,-8.611 L -27.724,-21.505" />
    <path id="sw-58" d="M -19.647,-8.611 L -19.647,-21.74" />
  </g>
</svg>