<?xml version="1.0" encoding="utf-8"?>
<svg xmlns="http://www.w3.org/2000/svg" viewBox="-34.469 -14.276 56.995 24.401">
  <g transform="scale(1,-1)">
    <rect id="tm-149" x="-2.69" y="1.603" width="0.3" height="0.3" />
    <rect id="tm-150" x="-2.69" y="4.244" width="0.3" height="0.3" />
    <rect id="tm-151" x="-0.48" y="4.244" width="0.3" height="0.3" transform="rotate(180,-0.33,4.394)" />
    <rect id="tm-152" x="-0.48" y="1.603" width="0.3" height="0.3" transform="rotate(180,-0.33,1.753)" />
    <rect id="tm-153" x="12.731" y="10.747" width="0.3" height="0.3" transform="rotate(240,12.881,10.897)" />
    <rect id="tm-154" x="12.731" y="9.759" width="0.3" height="0.3" transform="rotate(120,12.881,9.909)" />
    <rect id="tm-155" x="12.575" y="-7.275" width="0.3" height="0.3" transform="rotate(120,12.725,-7.125)" />
    <rect id="tm-156" x="15.128" y="-7.275" width="0.3" height="0.3" transform="rotate(120,15.278,-7.125)" />
    <rect id="tm-157" x="12.575" y="-5.217" width="0.3" height="0.3" transform="rotate(120,12.725,-5.067)" />
    <rect id="tm-158" x="15.128" y="-5.217" width="0.3" height="0.3" transform="rotate(120,15.278,-5.067)" />
    <rect id="tm-159" x="-15.009" y="11.963" width="0.3" height="0.3" transform="rotate(240,-14.859,12.113)" />
    <rect id="tm-160" x="-12.456" y="11.963" width="0.3" height="0.3" transform="rotate(240,-12.306,12.113)" />
    <rect id="tm-161" x="12.575" y="-0.239" width="0.3" height="0.3" transform="rotate(120,12.725,-0.089)" />
    <rect id="tm-162" x="15.128" y="-0.239" width="0.3" height="0.3" transform="rotate(120,15.278,-0.089)" />
    <rect id="tm-473" x="13.642" y="11.412" width="0.3" height="0.3" transform="rotate(180,13.792,11.562)" />
    <rect id="tm-474" x="13.642" y="9.025" width="0.3" height="0.3" transform="rotate(180,13.792,9.175)" />
    <rect id="tm-475" x="16.591" y="-9.029" width="0.3" height="0.3" transform="rotate(90.245,16.741,-8.879)" />
    <rect id="tm-957" x="15.549" y="12.88" width="0.3" height="0.3" transform="rotate(180,15.699,13.03)" />
    <rect id="tm-958" x="6.276" y="12.88" width="0.3" height="0.3" transform="rotate(180,6.426,13.03)" />
    <rect id="tm-959" x="-9.37" y="11.075" width="0.3" height="0.3" transform="rotate(180,-9.22,11.225)" />
    <rect id="tm-960" x="-20.648" y="12.88" width="0.3" height="0.3" transform="rotate(180,-20.498,13.03)" />
    <rect id="tm-961" x="-3.884" y="11.075" width="0.3" height="0.3" transform="rotate(180,-3.734,11.225)" />
    <rect id="tm-1132" x="-2.69" y="1.603" width="0.3" height="0.3" />
    <rect id="tm-1133" x="-2.69" y="4.244" width="0.3" height="0.3" />
    <rect id="tm-1134" x="-0.48" y="4.244" width="0.3" height="0.3" transform="rotate(180,-0.33,4.394)" />
    <rect id="tm-1135" x="-0.48" y="1.603" width="0.3" height="0.3" transform="rotate(180,-0.33,1.753)" />
    <rect id="tm-1136" x="-29.101" y="6.525" width="0.3" height="0.3" transform="rotate(180,-28.951,6.675)" />
    <rect id="tm-1137" x="1.83" y="4.993" width="0.3" height="0.3" transform="rotate(180,1.98,5.143)" />
    <rect id="tm-1138" x="-12.072" y="7.954" width="0.3" height="0.3" transform="rotate(240,-11.922,8.104)" />
    <rect id="tm-1139" x="-12.072" y="8.942" width="0.3" height="0.3" transform="rotate(120,-11.922,9.092)" />
    <rect id="tm-1140" x="-6.173" y="1.361" width="0.3" height="0.3" transform="rotate(240,-6.023,1.511)" />
    <rect id="tm-1141" x="-6.173" y="5.041" width="0.3" height="0.3" transform="rotate(120,-6.023,5.191)" />
    <rect id="tm-1142" x="12.731" y="10.747" width="0.3" height="0.3" transform="rotate(240,12.881,10.897)" />
    <rect id="tm-1143" x="12.731" y="9.759" width="0.3" height="0.3" transform="rotate(120,12.881,9.909)" />
    <rect id="tm-1144" x="9.262" y="12.56" width="0.3" height="0.3" transform="rotate(180,9.412,12.71)" />
    <rect id="tm-1145" x="10.25" y="12.56" width="0.3" height="0.3" transform="rotate(90,10.4,12.71)" />
    <rect id="tm-1146" x="1.83" y="4.993" width="0.3" height="0.3" transform="rotate(180,1.98,5.143)" />
    <rect id="tm-1147" x="1.83" y="4.993" width="0.3" height="0.3" transform="rotate(180,1.98,5.143)" />
    <rect id="tm-1148" x="1.83" y="4.993" width="0.3" height="0.3" transform="rotate(180,1.98,5.143)" />
    <rect id="tm-1149" x="1.83" y="4.993" width="0.3" height="0.3" transform="rotate(180,1.98,5.143)" />
    <rect id="tm-1150" x="12.575" y="-7.275" width="0.3" height="0.3" transform="rotate(120,12.725,-7.125)" />
    <rect id="tm-1151" x="15.128" y="-7.275" width="0.3" height="0.3" transform="rotate(120,15.278,-7.125)" />
    <rect id="tm-1152" x="12.575" y="-5.217" width="0.3" height="0.3" transform="rotate(120,12.725,-5.067)" />
    <rect id="tm-1153" x="15.128" y="-5.217" width="0.3" height="0.3" transform="rotate(120,15.278,-5.067)" />
    <rect id="tm-1154" x="-15.009" y="11.963" width="0.3" height="0.3" transform="rotate(240,-14.859,12.113)" />
    <rect id="tm-1155" x="-15.009" y="6.772" width="0.3" height="0.3" transform="rotate(240,-14.859,6.922)" />
    <rect id="tm-1156" x="-12.456" y="11.963" width="0.3" height="0.3" transform="rotate(240,-12.306,12.113)" />
    <rect id="tm-1157" x="-12.456" y="6.772" width="0.3" height="0.3" transform="rotate(240,-12.306,6.922)" />
    <rect id="tm-1158" x="-33.373" y="11.963" width="0.3" height="0.3" transform="rotate(240,-33.223,12.113)" />
    <rect id="tm-1159" x="-33.373" y="6.518" width="0.3" height="0.3" transform="rotate(240,-33.223,6.668)" />
    <rect id="tm-1160" x="-30.821" y="11.963" width="0.3" height="0.3" transform="rotate(240,-30.671,12.113)" />
    <rect id="tm-1161" x="-30.821" y="6.518" width="0.3" height="0.3" transform="rotate(240,-30.671,6.668)" />
    <rect id="tm-1162" x="12.575" y="-0.239" width="0.3" height="0.3" transform="rotate(120,12.725,-0.089)" />
    <rect id="tm-1163" x="15.128" y="-0.239" width="0.3" height="0.3" transform="rotate(120,15.278,-0.089)" />
    <rect id="tm-1164" x="13.795" y="10.962" width="0.3" height="0.3" transform="rotate(180,13.945,11.112)" />
    <rect id="tm-1165" x="13.795" y="11.877" width="0.3" height="0.3" transform="rotate(180,13.945,12.027)" />
    <rect id="tm-1166" x="13.795" y="9.591" width="0.3" height="0.3" transform="rotate(180,13.945,9.741)" />
    <rect id="tm-1167" x="13.795" y="8.524" width="0.3" height="0.3" transform="rotate(180,13.945,8.674)" />
    <rect id="tm-1168" x="12.731" y="11.262" width="0.3" height="0.3" transform="rotate(120,12.881,11.412)" />
    <rect id="tm-1169" x="12.731" y="9.235" width="0.3" height="0.3" transform="rotate(120,12.881,9.385)" />
    <rect id="tm-1170" x="13.795" y="7.832" width="0.3" height="0.3" transform="rotate(90,13.945,7.982)" />
    <rect id="tm-1171" x="12.572" y="6.924" width="0.3" height="0.3" transform="rotate(120,12.722,7.074)" />
    <rect id="tm-1172" x="12.572" y="4.028" width="0.3" height="0.3" transform="rotate(120,12.722,4.178)" />
    <rect id="tm-1173" x="14.099" y="2.673" width="0.3" height="0.3" transform="rotate(180,14.249,2.823)" />
    <rect id="tm-1174" x="19.268" y="8.147" width="0.3" height="0.3" transform="rotate(244.231,19.418,8.297)" />
    <rect id="tm-1175" x="19.918" y="3.21" width="0.3" height="0.3" transform="rotate(244.231,20.068,3.36)" />
    <rect id="tm-1176" x="20.537" y="-1.495" width="0.3" height="0.3" transform="rotate(244.231,20.687,-1.345)" />
    <rect id="tm-1177" x="21.13" y="-5.998" width="0.3" height="0.3" transform="rotate(244.231,21.28,-5.848)" />
    <rect id="tm-1178" x="15.512" y="-6.005" width="0.3" height="0.3" transform="rotate(120,15.662,-5.855)" />
    <rect id="tm-1179" x="15.512" y="-2.83" width="0.3" height="0.3" transform="rotate(120,15.662,-2.68)" />
    <rect id="tm-1180" x="15.512" y="0.002" width="0.3" height="0.3" transform="rotate(120,15.662,0.152)" />
    <rect id="tm-1181" x="12.731" y="11.836" width="0.3" height="0.3" transform="rotate(120,12.881,11.986)" />
    <rect id="tm-1182" x="12.731" y="8.744" width="0.3" height="0.3" transform="rotate(120,12.881,8.894)" />
    <rect id="tm-1183" x="15.359" y="-8.669" width="0.3" height="0.3" transform="rotate(244.231,15.509,-8.519)" />
    <rect id="tm-1184" x="18.804" y="11.668" width="0.3" height="0.3" transform="rotate(244.231,18.954,11.818)" />
    <rect id="tm-1185" x="15.954" y="12.56" width="0.3" height="0.3" transform="rotate(90,16.104,12.71)" />
  </g>
</svg>