<?xml version="1.0" encoding="utf-8"?>
<svg xmlns="http://www.w3.org/2000/svg" viewBox="-34.951 -13.087 58.146 23.656">
  <g transform="scale(1,-1)">
    <path id="w-1071" d="M -33.833,-8.689 L -15.011,-8.689" />
    <path id="w-1110" d="M 1.092,-9.248 L 2.032,-9.248" />
    <path id="w-1111" d="M 12.576,-9.248 L 21.144,-8.12" />
    <path id="w-1072" d="M 21.758,-8.116 L 21.688,-7.587" />
    <path id="w-1073" d="M 1.092,-9.451 L 1.092,-8.385" />
    <path id="w-1074" d="M -6.172,-9.451 L -6.172,-8.385" />
    <path id="w-1075" d="M -33.833,-8.689 L -33.833,-7.927" />
    <path id="w-1112" d="M -15.011,-8.74 L -15.011,-8.052" />
    <path id="w-1113" d="M -15.011,-8.74 L -14.402,-8.74" />
    <path id="w-1076" d="M -6.172,-9.451 L -5.867,-9.451" />
    <path id="w-1085" d="M 22.077,-8.202 L 19.729,9.627" />
    <path id="w-1114" d="M 2.032,-9.248 L 12.576,-9.248" />
    <path id="w-1115" d="M 21.144,-8.12 L 21.748,-8.041" />
    <path id="w-1116" d="M -14.402,-8.74 L -7.087,-8.74" />
    <path id="w-1117" d="M -7.087,-8.74 L -6.172,-8.74" />
    <path id="w-1096" d="M -5.867,-9.451 L 0.787,-9.451" />
    <path id="w-1097" d="M 0.787,-9.451 L 1.092,-9.451" />
    <path id="w-1104" d="M -15.011,-8.052 L -15.011,11.969" />
    <path id="w-1105" d="M -6.172,-8.385 L -6.172,11.793" />
    <path id="w-1106" d="M 1.092,-8.385 L 1.092,11.648" />
  </g>
</svg>