<?xml version="1.0" encoding="utf-8"?>
<svg xmlns="http://www.w3.org/2000/svg" viewBox="-132.909 190.877 21.419 23.638">
  <g transform="scale(1,-1)">
    <rect id="mn-39" x="-129.313" y="-195.183" width="0.05" height="0.05" fill="black" transform="rotate(240,-129.288,-195.158)" />
    <rect id="mn-40" x="-126.418" y="-195.335" width="0.05" height="0.05" fill="black" transform="rotate(180,-126.393,-195.31)" />
    <rect id="mn-41" x="-121.674" y="-195.183" width="0.05" height="0.05" fill="black" transform="rotate(120,-121.649,-195.158)" />
    <rect id="mn-42" x="-112.165" y="-197.774" width="0.05" height="0.05" fill="black" transform="rotate(240,-112.14,-197.749)" />
    <rect id="mn-43" x="-112.927" y="-195.031" width="0.05" height="0.05" fill="black" transform="rotate(180,-112.902,-195.006)" />
    <rect id="mn-44" x="-112.927" y="-193.38" width="0.05" height="0.05" fill="black" transform="rotate(120,-112.902,-193.355)" />
    <rect id="mn-55" x="-112.317" y="-208.232" width="0.05" height="0.05" fill="black" transform="rotate(180,-112.292,-208.207)" />
    <rect id="mn-56" x="-113.342" y="-208.232" width="0.05" height="0.05" fill="black" transform="rotate(180,-113.317,-208.207)" />
    <rect id="mn-57" x="-112.317" y="-203.449" width="0.05" height="0.05" fill="black" transform="rotate(180,-112.292,-203.424)" />
    <rect id="mn-58" x="-116.185" y="-203.449" width="0.05" height="0.05" fill="black" transform="rotate(180,-116.16,-203.424)" />
    <rect id="mn-59" x="-128.094" y="-195.335" width="0.05" height="0.05" fill="black" transform="rotate(180,-128.069,-195.31)" />
    <rect id="mn-60" x="-128.094" y="-202.441" width="0.05" height="0.05" fill="black" transform="rotate(240,-128.069,-202.416)" />
    <rect id="mn-78" x="-112.165" y="-201.105" width="0.05" height="0.05" fill="black" transform="rotate(240,-112.14,-201.08)" />
    <rect id="mn-79" x="-112.165" y="-195.183" width="0.05" height="0.05" fill="black" transform="rotate(90,-112.14,-195.158)" />
    <rect id="mn-80" x="-112.165" y="-200.597" width="0.05" height="0.05" fill="black" transform="rotate(120,-112.14,-200.572)" />
  </g>
</svg>