<?xml version="1.0" encoding="utf-8"?>
<svg xmlns="http://www.w3.org/2000/svg" viewBox="-16.763 -31.192 73.836 56.08">
  <g transform="scale(1,-1)">
    <polygon id="cl-1" points="12.252,24.678 14.992,24.678 14.992,22.325 18.133,22.325 18.133,30.489 12.252,30.489" />
    <polygon id="cl-2" points="18.272,27.958 24.369,27.958 24.369,30.489 18.272,30.489" />
    <polygon id="cl-3" points="21.143,22.325 21.143,27.82 18.272,27.82 18.272,22.325" />
    <polygon id="cl-4" points="23.8,22.325 23.8,24.539 21.282,24.539 21.282,22.325" />
    <polygon id="cl-5" points="8.292,24.678 12.113,24.678 12.113,30.489 8.292,30.489" />
    <polygon id="cl-6" points="12.113,22.325 12.113,24.539 8.292,24.539 8.292,22.325" />
    <polygon id="cl-7" points="-5.686,29.574 -5.686,23.393 7.238,23.393 7.238,29.574" />
    <polygon id="cl-8" points="-9.797,-3.67 -1.586,-3.67 -1.586,2.26 -9.797,2.26" />
    <polygon id="cl-9" points="-9.797,-7.67 -1.586,-7.67 -1.586,-3.809 -9.797,-3.809" />
    <polygon id="cl-10" points="-1.586,-23.281 -1.586,-15.5 -1.586,-7.809 -9.797,-7.809 -9.797,-23.281" />
    <polygon id="cl-11" points="3.923,-15.07 3.923,-17.246 7.175,-17.246 7.175,-15.07" />
    <polygon id="cl-12" points="7.175,-17.385 3.923,-17.385 3.923,-23.181 7.175,-23.181" />
    <polygon id="cl-13" points="9.675,-23.181 9.675,-17.385 7.314,-17.385 7.314,-23.181" />
    <polygon id="cl-14" points="12.578,-17.385 10.314,-17.385 10.314,-23.181 12.578,-23.181" />
    <polygon id="cl-15" points="23.647,-23.281 23.647,-15.07 12.716,-15.07 12.716,-23.281" />
    <polygon id="cl-16" points="23.785,-23.281 29.647,-23.281 29.647,-15.07 23.785,-15.07" />
    <polygon id="cl-17" points="29.785,-15.07 29.785,-23.281 41.647,-23.281 41.647,-15.07" />
    <polygon id="cl-18" points="41.785,-23.281 47.647,-23.281 47.647,-15.07 41.785,-15.07" />
    <polygon id="cl-19" points="47.785,-23.281 53.53,-23.281 53.53,-15.07 47.785,-15.07" />
  </g>
</svg>