<?xml version="1.0" encoding="utf-8"?>
<svg xmlns="http://www.w3.org/2000/svg" viewBox="-16.763 -31.192 73.836 56.08">
  <g transform="scale(1,-1)">
    <polygon id="sl-3" points="16.123,19.568 7.294,19.568 7.294,-0.64 14.159,-0.64 14.159,-6.733 7.294,-6.733 7.294,-12.286 16.123,-12.286" />
    <polygon id="sl-8" points="51.767,-24.388 51.767,-23.438 13.665,-23.438 13.665,-24.388" />
    <polygon id="sl-9" points="-2.746,-24.388 -2.746,-23.438 -8.848,-23.438 -8.848,-24.388" />
    <polygon id="sl-10" points="-10.887,-21.79 -9.937,-21.79 -9.937,0.311 -10.887,0.311" />
    <polygon id="sl-11" points="-10.887,23.538 -9.937,23.538 -9.937,29.64 -10.887,29.64" />
    <polygon id="sl-16" points="-9.9,-23.384 56.573,-23.384 56.573,-12.132 7.448,-12.132 7.448,-6.887 14.312,-6.887 14.312,-0.486 7.448,-0.486 7.448,19.415 27.412,19.415 27.412,30.692 -9.9,30.692" />
  </g>
</svg>