<?xml version="1.0" encoding="utf-8"?>
<svg xmlns="http://www.w3.org/2000/svg" viewBox="-16.763 -31.192 73.836 56.08">
  <g transform="scale(1,-1)">
    <rect id="sc-1" x="-9.352" y="29.994" width="0.3" height="0" transform="rotate(180,-9.202,29.994)" />
    <rect id="sc-2" x="-9.352" y="22.679" width="0.3" height="0" transform="rotate(180,-9.202,22.679)" />
    <rect id="sc-3" x="-9.352" y="19.427" width="0.3" height="0" transform="rotate(180,-9.202,19.427)" />
    <rect id="sc-4" x="-9.352" y="13.128" width="0.3" height="0" transform="rotate(180,-9.202,13.128)" />
    <rect id="sc-5" x="-9.352" y="6.829" width="0.3" height="0" transform="rotate(180,-9.202,6.829)" />
    <rect id="sc-6" x="-9.352" y="0.53" width="0.3" height="0" transform="rotate(180,-9.202,0.53)" />
    <rect id="sc-7" x="-9.352" y="-5.769" width="0.3" height="0" transform="rotate(180,-9.202,-5.769)" />
    <rect id="sc-8" x="-9.352" y="-12.069" width="0.3" height="0" transform="rotate(180,-9.202,-12.069)" />
    <rect id="sc-9" x="-9.352" y="-15.32" width="0.3" height="0" transform="rotate(180,-9.202,-15.32)" />
    <rect id="sc-10" x="-9.352" y="-22.635" width="0.3" height="0" transform="rotate(180,-9.202,-22.635)" />
    <rect id="sc-11" x="0.605" y="29.994" width="0.3" height="0" transform="rotate(180,0.755,29.994)" />
    <rect id="sc-12" x="0.605" y="22.679" width="0.3" height="0" transform="rotate(180,0.755,22.679)" />
    <rect id="sc-13" x="0.605" y="19.427" width="0.3" height="0" transform="rotate(180,0.755,19.427)" />
    <rect id="sc-14" x="0.605" y="13.128" width="0.3" height="0" transform="rotate(180,0.755,13.128)" />
    <rect id="sc-15" x="0.605" y="6.829" width="0.3" height="0" transform="rotate(180,0.755,6.829)" />
    <rect id="sc-16" x="0.605" y="0.53" width="0.3" height="0" transform="rotate(180,0.755,0.53)" />
    <rect id="sc-17" x="0.605" y="-5.769" width="0.3" height="0" transform="rotate(180,0.755,-5.769)" />
    <rect id="sc-18" x="0.605" y="-12.069" width="0.3" height="0" transform="rotate(180,0.755,-12.069)" />
    <rect id="sc-19" x="6.498" y="29.994" width="0.3" height="0" transform="rotate(180,6.648,29.994)" />
    <rect id="sc-20" x="6.498" y="22.679" width="0.3" height="0" transform="rotate(180,6.648,22.679)" />
    <rect id="sc-21" x="6.498" y="19.427" width="0.3" height="0" transform="rotate(180,6.648,19.427)" />
    <rect id="sc-22" x="6.498" y="13.128" width="0.3" height="0" transform="rotate(180,6.648,13.128)" />
    <rect id="sc-23" x="6.498" y="6.829" width="0.3" height="0" transform="rotate(180,6.648,6.829)" />
    <rect id="sc-24" x="6.498" y="0.53" width="0.3" height="0" transform="rotate(180,6.648,0.53)" />
    <rect id="sc-25" x="6.498" y="-5.769" width="0.3" height="0" transform="rotate(180,6.648,-5.769)" />
    <rect id="sc-26" x="6.498" y="-12.069" width="0.3" height="0" transform="rotate(180,6.648,-12.069)" />
    <rect id="sc-27" x="6.498" y="-22.635" width="0.3" height="0" transform="rotate(180,6.648,-22.635)" />
    <rect id="sc-28" x="6.498" y="-1.413" width="0.3" height="0" transform="rotate(180,6.648,-1.413)" />
    <rect id="sc-29" x="12.797" y="29.994" width="0.3" height="0" transform="rotate(180,12.947,29.994)" />
    <rect id="sc-30" x="12.797" y="22.679" width="0.3" height="0" transform="rotate(180,12.947,22.679)" />
    <rect id="sc-31" x="12.797" y="-5.769" width="0.3" height="0" transform="rotate(180,12.947,-5.769)" />
    <rect id="sc-32" x="12.797" y="-15.32" width="0.3" height="0" transform="rotate(180,12.947,-15.32)" />
    <rect id="sc-33" x="12.797" y="-22.635" width="0.3" height="0" transform="rotate(180,12.947,-22.635)" />
    <rect id="sc-34" x="12.797" y="-1.413" width="0.3" height="0" transform="rotate(180,12.947,-1.413)" />
    <rect id="sc-35" x="19.299" y="29.994" width="0.3" height="0" transform="rotate(180,19.449,29.994)" />
    <rect id="sc-36" x="19.299" y="22.679" width="0.3" height="0" transform="rotate(180,19.449,22.679)" />
    <rect id="sc-37" x="19.299" y="-15.32" width="0.3" height="0" transform="rotate(180,19.449,-15.32)" />
    <rect id="sc-38" x="19.299" y="-22.635" width="0.3" height="0" transform="rotate(180,19.449,-22.635)" />
    <rect id="sc-39" x="25.802" y="-15.32" width="0.3" height="0" transform="rotate(180,25.952,-15.32)" />
    <rect id="sc-40" x="25.802" y="-22.635" width="0.3" height="0" transform="rotate(180,25.952,-22.635)" />
    <rect id="sc-41" x="32.304" y="-15.32" width="0.3" height="0" transform="rotate(180,32.454,-15.32)" />
    <rect id="sc-42" x="32.304" y="-22.635" width="0.3" height="0" transform="rotate(180,32.454,-22.635)" />
    <rect id="sc-43" x="38.806" y="-15.32" width="0.3" height="0" transform="rotate(180,38.956,-15.32)" />
    <rect id="sc-44" x="38.806" y="-22.635" width="0.3" height="0" transform="rotate(180,38.956,-22.635)" />
    <rect id="sc-45" x="45.309" y="-15.32" width="0.3" height="0" transform="rotate(180,45.459,-15.32)" />
    <rect id="sc-46" x="45.309" y="-22.635" width="0.3" height="0" transform="rotate(180,45.459,-22.635)" />
    <rect id="sc-47" x="-2.037" y="29.994" width="0.3" height="0" transform="rotate(180,-1.887,29.994)" />
    <rect id="sc-48" x="-2.037" y="22.679" width="0.3" height="0" transform="rotate(180,-1.887,22.679)" />
    <rect id="sc-49" x="-2.037" y="19.427" width="0.3" height="0" transform="rotate(180,-1.887,19.427)" />
    <rect id="sc-50" x="-2.037" y="13.128" width="0.3" height="0" transform="rotate(180,-1.887,13.128)" />
    <rect id="sc-51" x="-2.037" y="6.829" width="0.3" height="0" transform="rotate(180,-1.887,6.829)" />
    <rect id="sc-52" x="-2.037" y="0.53" width="0.3" height="0" transform="rotate(180,-1.887,0.53)" />
    <rect id="sc-53" x="-2.037" y="-5.769" width="0.3" height="0" transform="rotate(180,-1.887,-5.769)" />
    <rect id="sc-54" x="-2.037" y="-12.069" width="0.3" height="0" transform="rotate(180,-1.887,-12.069)" />
    <rect id="sc-55" x="-2.037" y="-22.635" width="0.3" height="0" transform="rotate(180,-1.887,-22.635)" />
    <circle id="sc-165" cx="-10.37" cy="6.829" r="0.124" />
    <circle id="sc-166" cx="-10.37" cy="19.427" r="0.124" />
    <circle id="sc-167" cx="-15.856" cy="6.829" r="0.124" />
    <circle id="sc-168" cx="-14.711" cy="19.427" r="0.124" />
    <circle id="sc-169" cx="-15.856" cy="8.674" r="0.124" />
    <circle id="sc-170" cx="-10.37" cy="8.674" r="0.124" />
    <rect id="sc-171" x="-16.081" y="8.674" width="0.45" height="0" />
    <rect id="sc-172" x="-16.081" y="6.829" width="0.45" height="0" />
    <rect id="sc-173" x="-10.595" y="6.829" width="0.45" height="0" />
    <rect id="sc-174" x="-10.595" y="8.674" width="0.45" height="0" />
    <rect id="sc-175" x="-14.936" y="19.427" width="0.45" height="0" />
    <rect id="sc-176" x="-10.595" y="19.427" width="0.45" height="0" />
  </g>
</svg>