<?xml version="1.0" encoding="utf-8"?>
<svg xmlns="http://www.w3.org/2000/svg" viewBox="-16.763 -31.192 73.836 56.08">
  <g transform="scale(1,-1)">
    <path id="w-3" d="M 24.469,22.255 L 8.223,22.255" />
    <path id="w-4" d="M 1.354,-15 L 7.245,-15" />
    <path id="w-6" d="M 12.183,30.641 L 12.183,22.255" />
    <path id="w-7" d="M 18.203,30.641 L 18.203,22.255" />
    <path id="w-9" d="M -1.517,6.067 L -9.849,6.067" />
    <path id="w-10" d="M 8.223,24.608 L 14.923,24.608" />
    <path id="w-11" d="M 14.923,24.608 L 14.923,22.255" />
    <path id="w-12" d="M 24.469,27.889 L 18.203,27.889" />
    <path id="w-13" d="M 21.213,27.889 L 21.213,22.255" />
    <path id="w-14" d="M 21.213,24.608 L 24.469,24.608" />
    <path id="w-15" d="M 23.869,24.608 L 23.869,22.255" />
    <path id="w-17" d="M -1.517,2.33 L -9.849,2.33" />
    <path id="w-18" d="M -1.517,-3.74 L -9.722,-3.74" />
    <path id="w-19" d="M -1.517,-7.74 L -9.722,-7.74" />
    <path id="w-20" d="M -7.097,6.067 L -7.097,2.33" />
    <path id="w-21" d="M -2.398,2.33 L -2.398,4.33" />
    <path id="w-22" d="M -2.398,4.33 L -1.517,4.33" />
    <path id="w-23" d="M -1.517,2.33 L -1.517,-14.931" />
    <path id="w-27" d="M 3.854,-17.315 L 3.854,-15" />
    <path id="w-28" d="M 7.245,-23.333 L 7.245,-15" />
    <path id="w-29" d="M 12.647,-23.333 L 12.647,-15" />
    <path id="w-30" d="M 12.647,-17.315 L 3.854,-17.315" />
    <path id="w-31" d="M 8.945,-17.315 L 8.945,-15" />
    <path id="w-32" d="M 10.947,-17.315 L 10.947,-15" />
    <path id="w-33" d="M 9.745,-17.315 L 9.745,-23.333" />
    <path id="w-34" d="M 10.245,-17.315 L 10.245,-23.333" />
    <path id="w-35" d="M 8.945,-15 L 10.947,-15" />
    <path id="w-36" d="M 12.647,-15 L 53.63,-15" />
    <path id="w-37" d="M 23.716,-15 L 23.716,-23.206" />
    <path id="w-38" d="M 41.716,-15 L 41.716,-23.2" />
    <path id="w-39" d="M 29.716,-23.206 L 29.716,-15" />
    <path id="w-40" d="M 47.716,-15 L 47.716,-23.206" />
    <path id="w-144" d="M -1.378,22.332 L -9.849,22.332" />
    <path id="w-146" d="M -1.517,6.067 L -1.517,4.33" />
  </g>
</svg>